<?xml version="1.0" encoding="UTF-8" standalone="no"?>
<!-- Created with Inkscape (http://www.inkscape.org/) -->

<svg
   xmlns:dc="http://purl.org/dc/elements/1.1/"
   xmlns:cc="http://creativecommons.org/ns#"
   xmlns:rdf="http://www.w3.org/1999/02/22-rdf-syntax-ns#"
   xmlns:svg="http://www.w3.org/2000/svg"
   xmlns="http://www.w3.org/2000/svg"
   xmlns:xlink="http://www.w3.org/1999/xlink"
   xmlns:sodipodi="http://sodipodi.sourceforge.net/DTD/sodipodi-0.dtd"
   xmlns:inkscape="http://www.inkscape.org/namespaces/inkscape"
   version="1.0"
   width="400.65784"
   height="400.65784"
   id="svg2"
   inkscape:version="0.48.4 r9939"
   sodipodi:docname="Escudo_de_Alto_Hospicio.svg">
  <metadata
     id="metadata68">
    <rdf:RDF>
      <cc:Work
         rdf:about="">
        <dc:format>image/svg+xml</dc:format>
        <dc:type
           rdf:resource="http://purl.org/dc/dcmitype/StillImage" />
        <dc:title></dc:title>
      </cc:Work>
    </rdf:RDF>
  </metadata>
  <sodipodi:namedview
     pagecolor="#ffffff"
     bordercolor="#666666"
     borderopacity="1"
     objecttolerance="10"
     gridtolerance="10"
     guidetolerance="10"
     inkscape:pageopacity="0"
     inkscape:pageshadow="2"
     inkscape:window-width="1366"
     inkscape:window-height="705"
     id="namedview66"
     showgrid="false"
     inkscape:zoom="0.58903128"
     inkscape:cx="200.32892"
     inkscape:cy="200.32892"
     inkscape:window-x="-8"
     inkscape:window-y="-8"
     inkscape:window-maximized="1"
     inkscape:current-layer="svg2" />
  <defs
     id="defs5">
    <linearGradient
       id="linearGradient2893">
      <stop
         style="stop-color:#ffffff;stop-opacity:0.3137255"
         offset="0"
         id="stop2895" />
      <stop
         style="stop-color:#ffffff;stop-opacity:0.25098041"
         offset="0.19"
         id="stop2897" />
      <stop
         style="stop-color:#6b6b6b;stop-opacity:0.1254902"
         offset="0.60000002"
         id="stop2901" />
      <stop
         style="stop-color:#000000;stop-opacity:0.1254902"
         offset="1"
         id="stop2899" />
    </linearGradient>
    <radialGradient
       cx="285.18573"
       cy="200.44757"
       r="300"
       fx="285.18573"
       fy="200.44757"
       id="radialGradient11805"
       xlink:href="#linearGradient2893"
       gradientUnits="userSpaceOnUse"
       gradientTransform="matrix(1.0842427,0,0,0.943867,-166.34154,-36.565887)" />
  </defs>
  <path
     d="m 391.80798,200.31636 a 191.49761,191.49761 0 1 1 -382.995195,0 191.49761,191.49761 0 1 1 382.995195,0 z"
     style="fill:#0071bc;fill-opacity:1;stroke:#0071bc;stroke-width:6;stroke-linecap:round;stroke-linejoin:miter;stroke-miterlimit:4;stroke-opacity:1;stroke-dasharray:none"
     id="path2161"
     inkscape:connector-curvature="0" />
  <path
     d="M 379.31819,132.1903 C 211.99975,177.56673 161.68354,237.74441 12.280289,236.53633 29.23259,324.93611 106.97395,391.81314 200.29313,391.81316 c 105.70668,0 191.52026,-85.81359 191.52028,-191.52026 0,-24.00558 -4.41782,-46.92277 -12.49522,-68.1026 z"
     style="fill:#8e5c1f;fill-opacity:1;fill-rule:evenodd;stroke:#e3e4e5;stroke-width:1.50000012;stroke-linecap:butt;stroke-linejoin:miter;stroke-miterlimit:4;stroke-opacity:1;stroke-dasharray:none"
     id="path4105"
     inkscape:connector-curvature="0" />
  <g
     transform="matrix(2.3382864,0,0,2.3382864,-248.58478,-87.243263)"
     id="g8554">
    <path
       d="m 124,168.65625 c 0.0209,0.0311 0.0415,0.0627 0.0625,0.0937 1.47222,2.17858 3.04931,4.28988 4.71875,6.3125 1.66944,2.02262 3.42834,3.95959 5.28125,5.8125 1.85291,1.85291 3.82113,3.61181 5.84375,5.28125 2.02262,1.66944 4.10267,3.24653 6.28125,4.71875 2.17858,1.47222 4.42922,2.86376 6.75,4.125 2.32078,1.26124 4.70703,2.401 7.15625,3.4375 2.44922,1.0365 4.96734,1.95199 7.53125,2.75 2.56391,0.79801 5.17891,1.48549 7.84375,2.03125 2.66484,0.54576 5.37299,0.93899 8.125,1.21875 2.75201,0.27976 5.54957,0.4375 8.375,0.4375 2.82543,0 5.62299,-0.15774 8.375,-0.4375 2.75201,-0.27976 5.46016,-0.67299 8.125,-1.21875 2.66484,-0.54576 5.27984,-1.23324 7.84375,-2.03125 2.56391,-0.79801 5.08203,-1.7135 7.53125,-2.75 2.44922,-1.0365 4.83547,-2.17626 7.15625,-3.4375 2.32078,-1.26124 4.57142,-2.65278 6.75,-4.125 2.17858,-1.47222 4.28988,-3.04931 6.3125,-4.71875 2.02262,-1.66944 3.95959,-3.42834 5.8125,-5.28125 1.85291,-1.85291 3.61181,-3.78988 5.28125,-5.8125 1.66944,-2.02262 3.24653,-4.13392 4.71875,-6.3125 1.47222,-2.17858 2.83251,-4.42922 4.09375,-6.75 0.33028,-0.60773 0.59104,-1.25811 0.90625,-1.875 l -20.5,-11.84375 -17.09375,9.90625 0,-14.9375 -8.21875,0 0,-18.59375 -14.8125,0 0,18.59375 -7.96875,0 0,14.9375 -9.84375,9.28125 0,-9.28125 -11.40625,9.28125 0,-9.28125 -14.5625,9.28125 0,-9.28125 -12.21875,9.28125 0,-27.5625 -5,0 0,27.5625 -3.875,0 0,-23.5625 -5.4375,0 0,23.5625 -9.9375,0 0,1.1875 z"
       style="fill:#ff6600;fill-rule:evenodd;stroke:#e3e4e5;stroke-width:0.64149547;stroke-linecap:butt;stroke-linejoin:miter;stroke-miterlimit:4;stroke-opacity:1;stroke-dasharray:none"
       id="path4111"
       inkscape:connector-curvature="0" />
    <rect
       width="7.1796765"
       height="7.1796765"
       x="234.16003"
       y="161.07458"
       style="fill:#e3e4e5;fill-opacity:1;stroke:none"
       id="rect4113" />
    <rect
       width="7.1796765"
       height="7.1796765"
       x="248.16003"
       y="161.07458"
       style="fill:#e3e4e5;fill-opacity:1;stroke:none"
       id="rect4115" />
    <rect
       width="2.8718705"
       height="2.8718705"
       x="206.62047"
       y="128.2532"
       style="fill:#e3e4e5;fill-opacity:1;stroke:none"
       id="rect4117" />
    <rect
       width="2.8718705"
       height="2.8718705"
       x="210.08202"
       y="134.2532"
       style="fill:#e3e4e5;fill-opacity:1;stroke:none"
       id="rect4119" />
    <rect
       width="2.8718705"
       height="2.8718705"
       x="213.54356"
       y="140.2532"
       style="fill:#e3e4e5;fill-opacity:1;stroke:none"
       id="rect4121" />
    <rect
       width="2.8718705"
       height="2.8718705"
       x="219.54356"
       y="148.2532"
       style="fill:#e3e4e5;fill-opacity:1;stroke:none"
       id="rect4123" />
    <rect
       width="2.8718705"
       height="2.8718705"
       x="219.54356"
       y="154.2532"
       style="fill:#e3e4e5;fill-opacity:1;stroke:none"
       id="rect4125" />
    <rect
       width="2.8718705"
       height="2.8718705"
       x="207.54356"
       y="154.2532"
       style="fill:#e3e4e5;fill-opacity:1;stroke:none"
       id="rect4127" />
    <rect
       width="2.8718705"
       height="2.8718705"
       x="199.54356"
       y="154.2532"
       style="fill:#e3e4e5;fill-opacity:1;stroke:none"
       id="rect4129" />
    <rect
       width="2.8718705"
       height="2.8718705"
       x="207.54356"
       y="148.2532"
       style="fill:#e3e4e5;fill-opacity:1;stroke:none"
       id="rect4131" />
  </g>
  <path
     d="M 195.39734,8.8456927 C 101.67111,11.222904 24.595184,81.061356 10.965008,171.57581 c 23.293424,20.29841 53.728326,32.66294 87.0281,32.66294 73.181532,0 132.551582,-59.44314 132.551612,-132.624681 0,-22.519227 -5.6451,-43.677638 -15.56422,-62.2568738 -4.8371,-0.3666026 -9.75693,-0.5115025 -14.68737,-0.5115025 -1.65167,0 -3.2541,-0.041641 -4.89579,0 z"
     style="fill:#eac102;fill-opacity:1;stroke:#e3e4e5;stroke-width:1.50000011999999990;stroke-linecap:round;stroke-linejoin:miter;stroke-miterlimit:4;stroke-opacity:1;stroke-dasharray:none"
     id="path3134"
     inkscape:connector-curvature="0" />
  <path
     d="m 352.13561,316.91493 c -66.91142,-8.0576 -136.23009,45.13566 -261.08429,40.62772 30.98084,21.5851 68.63899,34.27051 109.24181,34.27051 61.83004,0 116.8166,-29.37104 151.84248,-74.89823 z"
     style="fill:#008f4c;fill-rule:evenodd;stroke:#e3e4e5;stroke-width:1.50000011999999990;stroke-linecap:butt;stroke-linejoin:miter;stroke-miterlimit:4;stroke-opacity:1;stroke-dasharray:none;fill-opacity:1"
     id="path4107"
     inkscape:connector-curvature="0" />
  <g
     id="g12877"
     transform="translate(0,-2.1929687e-6)">
    <path
       d="m 245.62236,155.3014 c 1.37078,0.94632 1.31021,1.29523 2.26101,1.56088 0.8011,0.1623 3.93943,-5.43686 5.23546,-3.56502 1.29633,1.87141 0.66609,1.43633 0.66609,1.43633 0,0 -2.86032,0.3941 -3.78752,2.56285 -0.80913,2.22524 -0.0166,3.77326 1.56011,4.44659 l 0.31898,1.41675 c 0,0 -3.07885,-2.51618 -4.00363,-1.17659 -1.01625,1.4721 -1.9589,3.62955 -1.9589,3.62955 l -0.77853,2.44206 c 0,0 -3.28189,-0.87403 -2.72739,-2.46924 0.6457,-1.72728 2.01762,-2.39184 2.60304,-3.77065 0.58938,-1.37609 0.58938,-1.37609 -0.91928,-2.41757 -1.4929,-1.03062 -2.12315,-1.46571 -2.12315,-1.46571 l 3.6651,-2.64673 0,0 -0.0114,0.0165 z"
       style="fill:#2c2e2d;fill-opacity:1;stroke:#e3e4e5;stroke-width:1.20000005;stroke-miterlimit:4;stroke-opacity:1;stroke-dasharray:none"
       id="path666"
       inkscape:connector-curvature="0" />
    <path
       d="m 259.17423,140.06778 c 0,0 2.24202,2.61652 2.72603,3.56248 0.48619,0.95024 1.9897,1.37457 7.00235,0.009 l 1.8234,1.79839 c 0,0 -3.82417,0.42431 -5.29887,1.5122 -1.31176,1.0099 -0.81503,0.92242 -0.32784,2.227 l 0.28753,3.78323 c 0,0 -0.88375,-1.4189 -2.16624,-2.82197 -0.6291,-0.87711 -1.2016,-0.58419 -1.85456,-1.11036 -0.48347,-0.59139 -0.98838,-0.16637 -1.84053,1.78586 -0.97112,2.02921 -1.83672,1.43978 -1.35053,2.39002 0,0 -2.09649,-2.6856 -0.22094,-4.00546 1.9043,-1.30771 2.87954,-2.66697 1.24921,-4.39746 -1.53716,-1.94486 -2.76316,-2.53269 -2.76316,-2.53269 0,0 1.5533,-1.99375 2.71888,-2.2299 l 0,0 0.0153,0.0298 z"
       style="fill:#2c2e2d;fill-opacity:1;stroke:#e3e4e5;stroke-width:1.20000005;stroke-miterlimit:4;stroke-opacity:1;stroke-dasharray:none"
       id="path662"
       inkscape:connector-curvature="0" />
    <g
       transform="matrix(2.3382864,0,0,2.3382864,-248.58478,-87.243261)"
       id="g8520">
      <g
         transform="matrix(-0.4170515,-0.2844974,0.2751899,-0.4034072,242.65294,133.84318)"
         style="fill:#2c2e2d;fill-opacity:1"
         id="g2110">
        <path
           d="m 106.30007,14.71369 c 0,0 -6.0545,-2.225 -8.7695,-1.11 -2.871,1.11 -25.5075,18.34 -21.6795,48.67 0,0 10.039,-13.24 28.867,-20.43 0,0 -0.625,-9.88 7.168,-9.88 0,0 -7.0115,-7.17 -7.8125,-13.4 -0.1365,-2.225 2.2265,-3.83 2.2265,-3.83"
           style="fill:#2c2e2d;fill-opacity:1;stroke:none"
           id="path2087"
           inkscape:connector-curvature="0" />
        <path
           d="m 106.30007,14.71369 c 0,0 -6.0545,-2.225 -8.7695,-1.11 -2.871,1.11 -25.527,18.34 -21.6795,48.67 0,0 10.039,-13.24 28.867,-20.41 0,0 -0.625,-9.88 7.168,-9.88 0,0 -7.0115,-7.17 -7.8125,-13.4 -0.1365,-2.225 2.2265,-3.83 2.2265,-3.83 l 0,0 0,-0.04 z"
           style="fill:#2c2e2d;fill-opacity:1;stroke:#e3e4e5;stroke-width:0.86132151;stroke-miterlimit:4;stroke-dasharray:none"
           id="path2089"
           inkscape:connector-curvature="0" />
        <path
           d="m 109.17157,29.71369 c -3.0275,0.315 -6.5235,5.1 -7.012,9.415 m 5.254,-11.64 c -1.582,1.115 -9.3945,6.855 -11.3085,18.03 m 10.5075,-20.275 c -1.738,1.115 -9.3945,3.985 -14.668,22.345 m 13.086,-24.57 c -1.738,1.425 -13.066,5.74 -16.8945,27.77 m 16.25,-30.33 c -1.8945,0.935 -8.4375,4.765 -13.2225,13.085 -4.1405,7.17 -4.453,9.885 -7.0115,20.255 m 19.902,-36.055 c -2.3825,0.31 -9.5505,5.255 -14.824,13.065 -3.0275,4.3 -6.3675,9.085 -8.2815,21.075 m 24.2385,-37.5 c -1.582,0 -10.996,1.915 -19.297,15.8"
           style="fill:#2c2e2d;fill-opacity:1;stroke:#000000;stroke-width:0.43619767"
           id="path2091"
           inkscape:connector-curvature="0" />
      </g>
      <path
         d="m 182.89516,101.57468 c -0.85551,0.55288 -2.29388,3.34154 -2.77461,4.27624 -0.38361,0.96658 -3.11172,0.47777 -2.30803,-2.58887 0,0 -2.31484,2.90295 -3.37495,2.35368 -0.96241,-0.51531 -1.51676,-1.93461 -1.08111,-2.76793 0,0 -1.73159,2.23071 -2.5516,1.88782 -0.82078,-0.34491 -1.0168,-1.23169 -0.62892,-2.57224 0,0 -0.82313,2.9928 -2.29038,2.96554 -1.48832,-0.0818 -1.76161,-1.16649 -1.43157,-2.70317 0,0 -1.1687,4.46573 -2.73879,4.56009 -1.57009,0.0944 -1.39488,-1.2376 -0.95494,-2.4449 0,0 -1.99187,4.11478 -4.35665,4.14723 0,0 -1.36445,2.97851 -2.59162,2.19431 -1.31436,-0.81529 -0.65721,-1.29768 -0.65721,-1.29768 0,0 -0.76634,2.15154 -1.94831,1.86859 -0.99927,-0.20073 -0.42075,-1.46217 -0.42075,-1.46217 0,0 -1.39766,1.13695 -2.01368,0.93079 -1.0726,-0.3885 -0.18831,-1.85313 -0.18831,-1.85313 0.25631,-0.90755 4.05934,-7.67504 14.24958,-12.837262 10.27267,-5.119959 12.41864,-2.777265 12.85045,-2.273448 0.4612,0.410902 5.03569,3.678206 5.31699,4.976119 0.21697,1.325361 -0.0486,2.618141 -0.0486,2.618141"
         style="fill:#444349;fill-opacity:1;stroke:none"
         id="path376"
         inkscape:connector-curvature="0" />
      <path
         d="m 182.89516,101.57468 c -0.85551,0.55288 -2.29388,3.34154 -2.77461,4.27624 -0.38676,0.9585 -3.11172,0.47777 -2.30803,-2.58887 0,0 -2.31484,2.90295 -3.37495,2.35368 -0.96241,-0.51531 -1.5136,-1.92653 -1.08111,-2.76793 0,0 -1.73159,2.23071 -2.5516,1.88782 -0.82078,-0.34491 -1.0168,-1.23169 -0.62892,-2.57224 0,0 -0.82313,2.9928 -2.29038,2.96554 -1.48832,-0.0818 -1.75347,-1.16967 -1.43157,-2.70317 0,0 -1.1687,4.46573 -2.73879,4.56009 -1.57009,0.0944 -1.39172,-1.22952 -0.95494,-2.4449 0,0 -1.99187,4.11478 -4.36479,4.15041 0,0 -1.36209,2.98456 -2.59162,2.19431 -1.31436,-0.81529 -0.6572,-1.29768 -0.6572,-1.29768 0,0 -0.76635,2.15154 -1.95646,1.87177 -0.99114,-0.20391 -0.42075,-1.46217 -0.42075,-1.46217 0,0 -1.38952,1.13377 -2.01368,0.93079 -1.06468,-0.3916 -0.18831,-1.85313 -0.18831,-1.85313 0.2563,-0.90755 4.05933,-7.67504 14.24958,-12.837265 10.28082,-5.123139 12.41865,-2.777266 12.85045,-2.273446 0.4612,0.410902 5.03548,3.678288 5.31699,4.976117 0.21697,1.325354 -0.0486,2.618144 -0.0486,2.618144 l 0,0 -0.0407,0.0159 z"
         style="fill:none;stroke:#e3e4e5;stroke-width:0.2050112;stroke-miterlimit:4;stroke-dasharray:none"
         id="path378"
         inkscape:connector-curvature="0" />
      <path
         d="m 168.59295,97.364639 c -0.61578,0.757089 -5.13051,8.084111 -5.34278,8.911631 m 0.0561,-4.54773 c -0.68926,0.78578 -3.73711,5.75745 -4.01392,6.6125 m 1.34392,-5.79769 c -0.63056,1.1282 -4.81652,7.51703 -4.86496,8.35503 m 1.59558,-7.07806 c -0.41041,0.89794 -4.0049,6.82772 -4.21738,7.65533 m 0.34068,-5.0219 c -0.44444,0.61803 -2.76402,4.49548 -2.76402,4.49548 m 21.9759,-15.045278 c -0.74108,0.652457 -5.53886,7.808468 -5.72603,8.917058 m 8.90655,-8.232642 c -0.75358,0.813237 -4.68672,7.247612 -5.10212,8.156782 m 6.94106,-5.012382 c -0.61499,0.759112 -3.44694,4.310802 -3.54139,5.464612 m 3.1706,-4.05627 c -0.36625,0.43392 -1.93126,3.50007 -2.32623,4.24538 m 2.2773,-2.80686 c -0.37052,0.80789 -0.47678,1.52187 -0.61966,1.94998 m -1.44367,-6.053844 c -0.35409,0.657201 -3.23147,5.271424 -3.39,5.852234 m 8.83673,-2.9256 c -0.41921,0.68263 -2.11803,3.79174 -1.95539,4.6171 m 1.68632,-2.94833 c -0.15017,0.57755 -1.47069,2.1288 -1.09218,3.09788"
         style="fill:none;stroke:#000000;stroke-width:0.42766362;stroke-miterlimit:4;stroke-dasharray:none"
         id="path380"
         inkscape:connector-curvature="0" />
      <path
         d="m 203.21138,88.150296 c 0,0 -3.40067,-0.454158 -4.12618,-0.170786 -0.7771,0.368676 -3.78666,2.070047 -3.78666,2.070047 0,0 -1.13746,-0.963501 -1.54592,-2.586371 -0.25798,-0.853273 0.0244,-2.680812 0.0244,-2.680812 0,0 -1.9619,-6.586736 -8.18319,-5.047992 -5.59843,1.376897 -13.08718,3.038384 -22.59191,9.931671 -1.78901,1.289799 -11.13987,6.65238 -18.5493,23.433367 -0.28896,0.63177 1.63093,0.25419 2.42224,-0.65522 1.38945,-1.35014 2.24951,-2.87744 2.24951,-2.87744 1.60333,0.18353 2.69381,-2.5344 2.69381,-2.5344 0.82452,0.93216 1.36184,-1.42079 1.36184,-1.42079 1.19899,0.71143 2.53766,-1.94753 2.53766,-1.94753 2.80201,-0.28467 2.64557,-2.4411 2.64557,-2.4411 -0.11029,0.48751 0.52652,0.38538 1.72118,-0.30927 1.12434,-0.65789 1.74781,-2.381321 1.74781,-2.381321 0.88939,1.507171 2.46226,-0.961722 2.46226,-0.961722 0,0 0.2723,-1.444324 0.51372,-0.05638 0.28208,1.299931 3.57095,-1.466896 3.57095,-1.466896 -0.0152,1.115881 2.33925,-1.276669 2.33925,-1.276669 0.83226,1.745875 2.39701,-0.719832 2.39701,-0.719832 0.98334,0.953886 3.17683,-0.503199 3.17683,-0.503199 -0.65138,0.473151 -0.58968,1.040082 -0.13363,1.606566 0.47019,0.626118 2.70265,-0.53904 2.70265,-0.53904 -1.40089,0.912489 -1.5236,1.777159 -1.43429,2.414757 0.0698,0.563757 3.22547,0.222421 3.22547,0.222421 -2.38814,1.151496 -2.44875,1.766205 -2.29498,2.159889 0.24118,0.424704 3.35981,-1.021425 3.35981,-1.021425 0,0 0.66039,-0.257936 -0.39069,0.371329 -0.98575,0.603747 -2.74281,1.806602 -1.74354,2.007342 0.59078,0.14155 2.2873,-0.23023 2.2873,-0.23023 -1.38524,0.75979 -0.97721,1.41949 -0.10919,1.66916 0.86069,0.25486 1.70055,-0.14531 1.38761,-0.17665 -0.3757,1.5e-4 2.57285,-0.26962 3.33519,0.69613 0.53532,0.60067 3.48147,-1.28767 3.48147,-1.28767 0,0 -0.92833,1.54465 0.15163,1.35087 1.62327,-0.34315 1.96507,-0.83966 2.23753,-1.53711 0.60296,-1.19885 1.21158,1.15328 2.62915,1.05335 l 0.8553,-0.55279 7.33511,-13.626938"
         style="fill:#2c2e2d;fill-opacity:1;stroke:none"
         id="path382"
         inkscape:connector-curvature="0" />
      <path
         d="m 203.21138,88.150296 c 0,0 -3.39752,-0.446085 -4.12302,-0.162712 -0.76897,0.365504 -3.7948,2.073227 -3.7948,2.073227 0,0 -1.13746,-0.963504 -1.54593,-2.586371 -0.26114,-0.861347 0.0244,-2.680807 0.0244,-2.680807 0,0 -1.95874,-6.578666 -8.18319,-5.047997 -5.59843,1.376901 -13.09032,3.030307 -22.59191,9.931676 -1.79715,1.292972 -11.13986,6.652377 -18.54929,23.433368 -0.28897,0.63176 1.63093,0.25418 2.43038,-0.65841 1.38944,-1.35013 2.2495,-2.87743 2.2495,-2.87743 1.60333,0.18352 2.69381,-2.53441 2.69381,-2.53441 0.82452,0.93216 1.36106,-1.42281 1.36106,-1.42281 1.19163,0.71663 2.53529,-1.95358 2.53529,-1.95358 2.80201,-0.28467 2.64557,-2.4411 2.64557,-2.4411 -0.11029,0.48751 0.52652,0.38538 1.71304,-0.30609 1.12434,-0.65789 1.75595,-2.384501 1.75595,-2.384501 0.88939,1.507171 2.46226,-0.961722 2.46226,-0.961722 0,0 0.2723,-1.444324 0.51372,-0.05638 0.28208,1.299931 3.57095,-1.466896 3.57095,-1.466896 -0.0233,1.119057 2.33925,-1.276669 2.33925,-1.276669 0.83226,1.745875 2.40514,-0.723009 2.40514,-0.723009 0.98336,0.953881 3.17705,-0.503282 3.17705,-0.503282 -0.65159,0.473232 -0.58989,1.040162 -0.13364,1.606567 0.47,0.626195 2.70245,-0.538961 2.70245,-0.538961 -1.40089,0.91249 -1.5236,1.777162 -1.43429,2.414757 0.0698,0.563757 3.22547,0.22242 3.22547,0.22242 -2.38814,1.1515 -2.44874,1.766206 -2.29813,2.151818 0.24118,0.424701 3.35981,-1.021427 3.35981,-1.021427 0,0 0.66039,-0.257937 -0.3907,0.371327 -0.98575,0.603752 -2.7428,1.806608 -1.74038,2.015418 0.58762,0.13347 2.28751,-0.23031 2.28751,-0.23031 -1.38545,0.75987 -0.97743,1.41958 -0.1094,1.66924 0.86089,0.25478 1.70055,-0.14531 1.3876,-0.17665 -0.37569,1.5e-4 2.57286,-0.26962 3.3352,0.69613 0.53532,0.60068 3.48147,-1.28767 3.48147,-1.28767 0,0 -0.92833,1.54466 0.15163,1.35088 1.62327,-0.34316 1.96506,-0.83966 2.23753,-1.53711 0.60296,-1.19885 1.21159,1.15327 2.62915,1.05334 l 0.8553,-0.5528 7.33511,-13.626925 0,0 0.0291,0.02586 z"
         style="fill:none;stroke:#e3e4e5;stroke-width:0.42766362;stroke-miterlimit:4;stroke-dasharray:none"
         id="path384"
         inkscape:connector-curvature="0" />
      <path
         d="m 193.33173,99.208594 c 0,0 -0.74986,1.400486 -3.32613,2.262476 m -6.84187,0.59905 c 0,0 1.28889,-0.21255 2.85353,-1.33094 m -4.12912,-0.17895 c 0,0 3.37163,-0.581604 4.4154,-1.061423 0.66039,-0.257938 2.86945,-2.084098 3.99808,-3.115959 m -8.57306,2.012862 c 1.03543,-0.47655 8.47452,-3.828916 11.60547,-6.831907 m -12.66533,5.682194 c 0,0 6.28152,-2.972367 10.31725,-6.400878 m -12.11656,3.766878 c 0.70106,-0.34596 9.083,-4.436566 10.63918,-6.154317 m -9.51784,0.364455 c 0,0 -3.01551,4.067828 -3.68831,4.702921 -2.06168,1.98733 10.31282,-5.810441 10.31282,-5.810441 m -8.30082,-1.211524 c 0,0 -3.94516,5.994623 -5.19143,7.51919 m 1.75513,-6.693599 c 0,0 -3.10972,6.184887 -4.16106,7.41459 m 1.44541,-6.500487 c 0,0 -3.03909,6.75065 -3.78151,7.785238 m -0.30678,-5.669518 c 0,0 -2.33156,5.217778 -3.44736,6.691398 m 1.21299,-5.146211 c 0,0 -3.56536,4.801501 -4.0139,6.612512 m 2.78785,-6.215071 c 0,0 -5.61612,6.046928 -6.26814,8.900757 m 1.99518,-5.88685 c 0,0 -4.02355,4.615129 -4.64259,8.34728 m 0.91334,-5.336318 c 0,0 -2.19635,4.192318 -3.4397,7.288748 m 1.6708,-5.706637 c 0,0 -2.60374,5.314777 -3.04078,7.130607 m 1.25138,-5.02392 c 0,0 -3.04872,4.75328 -3.94519,7.55832 m 1.72815,-4.98209 c 0,0 -2.86916,4.82741 -3.57007,7.55606"
         style="fill:none;stroke:#000000;stroke-width:0.2050112;stroke-miterlimit:4;stroke-dasharray:none"
         id="path386"
         inkscape:connector-curvature="0" />
      <path
         d="m 154.74456,99.05522 c 3.66328,-4.767602 10.85401,-10.319624 18.45614,-13.66353 9.87769,-4.374656 9.56007,-3.215127 10.09902,-3.2069 0.56317,0.0709 3.23347,0.435693 4.07357,0.99877 0.89728,0.540736 1.11773,1.490107 1.66391,1.13251 0.57002,-0.297107 0.15037,-0.577636 0.15037,-0.577636 -0.36419,-0.739649 -3.33963,-3.449454 -6.64627,-2.676833 -2.02254,0.499117 -10.59922,3.104432 -17.78488,8.284488 -3.13056,2.186083 -5.35177,3.788963 -10.63858,9.500174 -0.75437,0.811222 -0.55836,1.697997 0.61227,0.195985"
         style="fill:#ffffff;stroke:none"
         id="path390"
         inkscape:connector-curvature="0" />
      <path
         d="m 194.45607,98.55071 -1.46388,-0.01927 m 1.17511,0.650957 -1.37431,0.01788 m 0.67706,0.554624 -1.20833,0.0345 m 0.67048,1.138909 -1.59025,-0.34221 m 0.73798,1.11953 -1.21929,-0.18692 m 0.28558,0.92392 -0.49806,-0.0963"
         style="fill:none;stroke:#000000;stroke-width:0.19225779"
         id="path392"
         inkscape:connector-curvature="0" />
      <path
         d="m 227.24863,84.250871 c 1.00292,-0.172996 3.95956,0.899034 4.93694,1.26422 0.93842,0.450212 2.60531,-1.755219 -0.0578,-3.467768 0,0 3.67875,0.561945 4.07864,-0.55758 0.35753,-1.030855 -0.19682,-2.450149 -1.08111,-2.767924 0,0 2.79136,0.46411 3.16355,-0.344436 0.36933,-0.809745 -0.0886,-1.594216 -1.28263,-2.316907 0,0 2.63555,1.641888 3.69486,0.627797 1.03175,-1.066158 0.50486,-2.051742 -0.77996,-2.957685 0,0 3.88627,2.491335 5.11302,1.49329 1.2184,-0.994788 0.18701,-1.855458 -0.95494,-2.444898 0,0 4.25322,1.675532 6.01335,0.09685 0,0 3.02242,1.26507 3.39363,-0.143431 0.40548,-1.48704 -0.39735,-1.399175 -0.39735,-1.399175 0,0 2.02193,1.062478 2.70048,0.05283 0.59076,-0.821768 -0.68269,-1.359855 -0.68269,-1.359855 l -1.0166,-2.836491 c -3.01532,-0.718343 -9.12575,-1.391212 -17.16712,0.88479 -11.02213,3.197475 -11.01281,6.374714 -10.98947,7.038072 -0.0606,0.614709 -1.21774,6.120706 -0.53612,7.262259 0.74711,1.11829 1.80961,1.892343 1.80961,1.892343"
         style="fill:#444349;fill-opacity:1;stroke:none"
         id="path394"
         inkscape:connector-curvature="0" />
      <path
         d="m 227.24863,84.250871 c 1.00292,-0.172996 3.95121,0.902296 4.93694,1.26422 0.93527,0.442133 2.60531,-1.755219 -0.0578,-3.467768 0,0 3.67041,0.565205 4.07864,-0.55758 0.36588,-1.034115 -0.18532,-2.44533 -1.08111,-2.767924 0,0 2.78509,0.466557 3.16355,-0.344436 0.36933,-0.809745 -0.0886,-1.594216 -1.28263,-2.316907 0,0 2.63555,1.641888 3.69486,0.627797 1.03801,-1.068602 0.49651,-2.048482 -0.77996,-2.957685 0,0 3.88627,2.491335 5.10467,1.496553 1.2184,-0.994791 0.19017,-1.847382 -0.95494,-2.444899 0,0 4.25323,1.675529 6.0217,0.09359 0,0 3.02478,1.271123 3.39363,-0.143431 0.41383,-1.490302 -0.39526,-1.39999 -0.39526,-1.39999 0,0 2.01984,1.063293 2.69839,0.05365 0.59076,-0.821768 -0.68269,-1.359855 -0.68269,-1.359855 l -1.43807,-2.932 c -3.1423,-0.67695 -9.06264,-1.194274 -16.74565,0.980299 -11.02213,3.197475 -11.01281,6.374714 -10.98947,7.038072 -0.0606,0.614709 -1.2094,6.117446 -0.53612,7.262259 0.74711,1.11829 1.80961,1.892343 1.80961,1.892343 l 0,0 0.0417,-0.01631 z"
         style="fill:#444349;fill-opacity:1;stroke:#e3e4e5;stroke-width:0.42766362;stroke-miterlimit:4;stroke-dasharray:none"
         id="path396"
         inkscape:connector-curvature="0" />
      <path
         d="m 234.91788,71.4591 c 0.9661,0.139228 9.25296,2.466139 9.96031,2.934469 m -3.1221,-3.306386 c 1.03081,0.11395 6.6494,1.700638 7.43267,2.141641 m -4.91766,-3.352009 c 1.22767,0.402395 8.63482,2.263134 9.24009,2.845801 m -5.97154,-4.122447 c 0.97632,0.356299 7.57358,2.305332 8.28928,2.770402 m -24.8654,1.777306 c 0.91406,0.006 9.29961,2.012782 10.18901,2.700873 m -12.12838,-0.01671 c 1.10465,0.08744 8.35824,2.152438 9.27926,2.539631 m -8.50041,1.018824 c 0.9669,0.141247 5.45661,0.833213 6.30891,1.617233 m -5.08132,-0.833195 c 0.55566,0.07383 3.78369,1.267894 4.58718,1.5451 m -3.57601,-0.520634 c 0.81958,0.343047 1.38142,0.796074 1.7685,1.017196 m -3.0337,-5.432802 c 0.70599,0.243152 5.95051,1.685081 6.4603,2.004857 m -8.4732,3.835395 c 0.7707,0.21787 4.12706,1.352504 4.56813,2.069109 m -3.23883,-1.024641 c 0.50145,0.323043 2.5242,0.568465 2.90271,1.53754"
         style="fill:none;stroke:#000000;stroke-width:0.42766362;stroke-miterlimit:4;stroke-dasharray:none"
         id="path398"
         inkscape:connector-curvature="0" />
      <path
         d="m 203.21138,88.150296 c 0,0 2.19239,-2.638723 2.9181,-2.922176 0.82105,-0.25554 4.18704,-1.044365 4.18704,-1.044365 0,0 0.18331,-1.479376 -0.55117,-2.974904 -0.45376,-0.776807 -1.89981,-1.929259 -1.89981,-1.929259 0,0 -3.02178,-6.172761 2.59528,-9.257903 5.04855,-2.781656 11.68133,-6.635828 23.34971,-8.012445 1.38682,-0.167651 6.10432,-1.18799 13.64488,-0.06047 l 6.34923,5.249158 c 0.0347,1.240644 -1.96472,-0.121481 -1.96472,-0.121481 -0.39751,1.334999 -3.17729,0.284643 -3.17729,0.284643 -2.25317,1.689817 -3.60786,0.0014 -3.60786,0.0014 0.41151,0.283706 -0.12532,0.639981 -1.47369,0.938602 -1.26592,0.275714 -2.90078,-0.565649 -2.90078,-0.565649 0.36758,1.710979 -2.4608,0.961152 -2.4608,0.961152 0,0 -1.18811,-0.873908 -0.41656,0.30697 0.67407,1.14683 -3.62068,1.342049 -3.62068,1.342049 0.76854,0.80976 -2.58381,0.646206 -2.58381,0.646206 0.63502,1.822916 -2.25179,1.095922 -2.25179,1.095922 -0.0767,1.367938 -2.67628,1.78294 -2.67628,1.78294 0.80047,-0.09392 1.13852,0.365074 1.18631,1.091018 0.0803,0.778401 -2.35253,1.435439 -2.35253,1.435439 1.65789,-0.282227 2.33333,0.270701 2.68436,0.806069 0.3297,0.46226 -2.22147,2.349919 -2.22147,2.349919 2.53701,-0.772193 2.9982,-0.361293 3.15197,0.03239 0.11741,0.473044 -3.15536,1.523305 -3.15536,1.523305 0,0 -0.59485,0.232341 0.53956,0.008 1.13443,-0.224363 3.24013,-0.530249 2.64312,0.293974 -0.27457,0.479548 -1.8395,1.381645 -1.8395,1.381645 1.53516,-0.380881 1.68125,0.381136 1.21285,1.152786 -0.46135,0.771235 -1.34989,1.04615 -1.06799,0.782467 0.21957,-0.232356 -2.14692,1.573854 -2.05268,2.800559 0.0135,0.804481 -3.43194,1.412601 -3.43194,1.412601 0,0 1.72803,0.507122 0.80347,1.09628 -1.42634,0.847971 -2.01396,0.714487 -2.68721,0.38642 -1.24775,-0.475988 -0.10919,1.669153 -1.22736,2.559637 l -0.99541,0.170068 -14.62924,-5.047977"
         style="fill:#2c2e2d;fill-opacity:1;stroke:none"
         id="path400"
         inkscape:connector-curvature="0" />
      <path
         d="m 203.21138,88.150296 c 0,0 2.19554,-2.63065 2.92939,-2.917282 0.81292,-0.252355 4.19519,-1.047541 4.19519,-1.047541 0,0 0.18331,-1.479381 -0.55931,-2.971731 -0.45692,-0.784878 -1.89982,-1.929248 -1.89982,-1.929248 0,0 -3.01861,-6.164693 2.59528,-9.257909 5.04876,-2.781732 11.67839,-6.643986 23.34992,-8.012521 1.38426,-0.168408 6.05971,-1.178277 13.5368,-0.07541 l 6.45731,5.264096 c 0.0347,1.240637 -1.95716,-0.126767 -1.95716,-0.126767 -0.39046,1.334574 -3.17965,0.278589 -3.17965,0.278589 -2.25317,1.689816 -3.59952,-0.0019 -3.59952,-0.0019 0.41151,0.283705 -0.12531,0.639977 -1.46742,0.936152 -1.27218,0.27816 -2.90705,-0.563199 -2.90705,-0.563199 0.36759,1.710976 -2.46289,0.961967 -2.46289,0.961967 0,0 -1.18602,-0.874723 -0.41446,0.306155 0.67198,1.147645 -3.62068,1.342047 -3.62068,1.342047 0.7748,0.807314 -2.5859,0.647021 -2.5859,0.647021 0.63711,1.822099 -2.25805,1.098367 -2.25805,1.098367 -0.0767,1.367939 -2.67628,1.782941 -2.67628,1.782941 0.79838,-0.0931 1.13851,0.365074 1.19466,1.087755 0.0782,0.779218 -2.35253,1.435439 -2.35253,1.435439 1.65788,-0.282224 2.33332,0.270704 2.69062,0.803626 0.33179,0.461444 -2.21939,2.349103 -2.21939,2.349103 2.52867,-0.768933 2.99612,-0.360478 3.14673,0.02514 0.11949,0.47223 -3.16162,1.525749 -3.16162,1.525749 0,0 -0.59485,0.232339 0.53957,0.008 1.13233,-0.223538 3.24013,-0.530241 2.64418,0.30287 -0.27564,0.470655 -1.83741,1.380828 -1.83741,1.380828 1.53308,-0.380064 1.68124,0.381138 1.21075,1.153605 -0.45925,0.770416 -1.3478,1.045335 -1.06589,0.781651 0.21957,-0.232356 -2.14692,1.573852 -2.05268,2.800556 0.0135,0.804484 -3.43403,1.413418 -3.43403,1.413418 0,0 1.73013,0.506305 0.80555,1.095467 -1.42695,0.848213 -2.02273,0.717912 -2.68783,0.386662 -1.25589,-0.472808 -0.10919,1.669153 -1.21922,2.55646 l -1.00355,0.173244 -14.62925,-5.047973 0,0 -0.0444,0.05456 z"
         style="fill:none;stroke:#e3e4e5;stroke-width:0.42766362;stroke-miterlimit:4;stroke-dasharray:none"
         id="path402"
         inkscape:connector-curvature="0" />
      <path
         d="m 217.97041,89.58509 c 0,0 1.5087,0.518328 3.9874,-0.594086 m 5.49427,-4.219255 c 0,0 -1.16628,0.746394 -3.06637,0.981281 m 2.91599,-2.930661 c 0,0 -2.87535,1.858366 -3.96635,2.212359 -0.59485,0.232342 -3.51485,0.409517 -5.0522,0.418946 m 7.66696,-4.330252 c -1.08265,0.350743 -8.82538,2.928169 -13.16282,2.842225 m 13.16306,-4.405993 c 0,0 -6.63153,2.071278 -11.92368,2.2861 m 11.46288,-5.442903 c -0.75079,0.221112 -9.68629,2.894441 -11.99455,2.686082 m 7.25254,-6.18581 c 0,0 4.96593,0.950401 5.89149,0.961196 2.86347,0.06364 -11.45535,2.691884 -11.45535,2.691884 m 5.21773,-6.49167 c 0,0 6.97148,1.730746 8.91988,2.007524 m -5.83475,-3.729108 c 0,0 6.47864,2.439817 8.08575,2.631169 m -5.46799,-3.800214 c 0,0 6.80912,2.904084 8.06331,3.158826 m -3.62542,-4.373308 c 0,0 5.25205,2.255733 7.06269,2.586327 m -4.37191,-2.96483 c 0,0 5.88481,1.1104 7.43267,2.141647 m -6.19543,-2.706333 c 0,0 8.15393,0.66855 10.56675,2.325299 m -5.44818,-2.979586 c 0,0 6.08661,0.666251 9.0707,2.991073 m -4.27981,-3.307952 c 0,0 4.44864,1.596886 7.4686,3.028126"
         style="fill:none;stroke:#000000;stroke-width:0.17983437;stroke-miterlimit:4;stroke-dasharray:none"
         id="path404"
         inkscape:connector-curvature="0" />
      <path
         d="M 216.15199,89.259856 205.29836,88.97097 c 0,0 2.03895,0.913889 3.13272,1.740879 m -3.45018,-2.361496 10.10762,0.352234 m -9.27991,-0.975694 8.02751,0.126895 m -8.17813,-0.512507 8.49234,-0.05466 m -6.93506,-0.48146 7.78721,-0.07941 m -6.54807,-0.476709 6.91411,0.04287 m -6.73114,-0.561107 5.07273,0.01981 m -4.35025,-0.527704 4.84359,0.03484 m -4.33875,-0.522889 6.16395,0.263738 m -6.11978,-0.727759 c 0,0 3.41295,0.293464 7.40329,-0.292458 0.80799,-0.09686 5.07981,-0.946301 5.96835,-1.221217 m -13.04516,0.785812 c 0,0 5.83849,-0.570145 6.76363,-0.559187 M 211.17721,82.8028 c 0,0 6.39737,-0.125273 8.46815,-0.717689 m -9.03908,-0.166919 c 0,0 3.5177,0.778424 8.89162,-0.210613 m -9.11951,-0.372851 c 0,0 2.45467,1.184322 14.43108,-2.146207 m -14.74638,1.53173 c 0,0 3.51554,0.772284 15.1101,-1.973963 m -14.10206,1.426658 c 0,0 9.53591,-0.534397 12.04769,-1.371191 m -11.86493,0.853042 c 0,0 6.063,0.0053 11.21185,-1.342569 m -3.45832,0.168701 c 0,0 5.25223,-1.088111 6.21383,-1.39156 m -16.48303,2.812711 c 0,0 1.08116,-0.359464 2.1279,-0.831126 1.10075,-0.502074 8.47115,-1.309894 11.60616,-2.306351 m -14.59361,2.500557 c 0,0 2.17315,-0.113502 3.18033,-0.879197 0,0 7.9347,-1.098036 9.8199,-1.752922 m -13.057,1.909684 c 0,0 1.81456,-0.04558 2.95217,-0.862217 0,0 7.02072,-0.887641 9.96818,-1.594432 m -13.37726,1.671768 c 0,0 1.00749,0.413932 1.54913,-0.532933 m -1.41505,-0.110464 c 0,0 0.61522,0.204142 1.88329,-0.663452 m -1.9653,-0.123591 c 0,0 1.05244,-0.04808 2.52759,-0.987239 m -2.56057,0.108912 c 0,0 0.98811,-0.02061 2.02276,-0.499191 m -2.22305,-0.01361 c 0,0 1.78708,-0.332688 2.38149,-0.783587 m -2.3239,-0.05565 c 0,0 0.43163,-1.059798 2.99963,-1.534615 m -2.35552,-0.352783 c 0,0 1.28351,-1.020225 4.04398,-1.435254 m -4.17785,2.078577 c 0,0 0.12573,-0.640143 2.3316,-0.91069 m 1.7361,3.266011 c 0,0 1.99402,-0.187801 3.68175,-0.774866 1.77871,-0.548147 13.1371,-5.650061 15.47058,-6.561484 2.3101,-0.96512 10.20332,-3.538499 10.20332,-3.538499 0,0 5.37502,0.79061 7.57142,2.68779 m -6.2549,-1.121753 c 0,0 -7.65971,-1.762095 -9.14821,-1.625149 m 15.55796,-0.05933 c 0,0 -2.7491,0.03828 -4.88213,0.28038 -2.80202,0.284656 -22.05448,8.758422 -24.61811,10.059908 -2.55842,1.290141 -9.73471,2.766758 -9.73471,2.766758 m 33.1116,-13.842723 c 0,0 0.99867,0.419702 0.66472,0.550139 0,0 -9.48259,3.412892 -11.3241,4.204293 -1.85968,0.726367 -12.78831,5.585961 -15.39641,6.748916 -2.54387,1.140188 -6.22947,1.544262 -6.22947,1.544262 m 1.32327,-0.726272 c 0,0 2.44153,-0.437059 4.12191,-1.018928 1.75348,-0.612746 13.3172,-5.792533 15.31465,-6.572707 1.99744,-0.780171 10.73133,-3.972771 11.66013,-4.335548 m -30.91267,10.810529 c 0,0 2.12367,-0.240776 3.4125,-0.669707 1.22291,-0.405518 13.60212,-5.831694 14.64633,-6.31167 1.01061,-0.541328 10.56625,-3.982761 11.36671,-4.076679 M 212.31333,74.11482 c 0,0 5.00357,-1.144561 8.30856,-2.882211 3.24107,-1.710354 11.51268,-4.713076 12.46592,-5.013272 0.95325,-0.30019 6.80782,-2.5869 6.80782,-2.5869 m -27.49733,9.713886 c 0,0 2.32819,-0.318319 3.75565,-0.803728 1.41869,-0.481984 8.5263,-3.69325 10.0975,-4.388375 1.50992,-0.654901 10.67956,-4.099145 11.81398,-4.323498 m -25.01955,8.815906 c 0,0 2.01046,-0.338494 3.10188,-0.692651 1.08474,-0.35155 18.39808,-7.704914 19.67341,-7.975003 m -21.95875,7.822839 c 0,0 1.16961,0.05975 2.32777,-0.318154 1.08474,-0.351548 10.41879,-4.360292 11.51188,-4.715103 1.08474,-0.351547 6.1144,-2.606918 6.1144,-2.606918 m -19.25364,7.075748 c 0,0 1.47595,-0.141358 2.40685,-0.504951 0.95087,-0.306246 13.92378,-5.801419 15.30193,-6.411839 m -17.11388,6.08409 c 0,0 1.9456,-0.315493 3.85288,-0.913851 1.88098,-0.671853 8.65567,-3.971803 9.90261,-4.314579 m -12.47591,4.365645 c 0,0 6.60523,-2.14478 8.72554,-3.189338 m -8.05231,2.554079 c 0,0 7.62289,-2.686525 9.43701,-2.95065 m -0.24056,-0.424948 1.03778,0.704593 m 0.59594,-1.042529 1.3178,1.03966 m 1.03911,-1.669374 1.00802,1.016392 m 0.28443,-1.439756 1.17553,0.650787 m -0.0817,-1.003574 1.99434,0.991815 m -0.3023,-0.989536 1.00623,0.41442 m 0.62749,-0.752358 c 0,0 0.71885,0.682568 1.33283,0.887199 m 0.50572,-1.088735 c 0,0 0.58736,0.733928 1.22865,1.002343 m 1.18412,-1.125662 c 0,0 -0.27887,0.844222 0.92749,1.192106 m 4.69872,-0.934737 1.31357,0.813274 m -3.69355,-0.63063 1.96126,0.716206 m 5.84152,1.023971 c -3.22516,-0.159461 -8.56726,-0.22597 -11.49142,0.819797 m 10.72496,-1.217545 c 0,0 -4.83243,-0.411517 -7.48275,0.477069 m 1.39212,-2.114406 1.55318,0.656862 m -3.33795,4.203077 -5.33019,-2.073956 m -2.57343,4.041753 -5.21503,-1.970016 m -2.91811,5.302605 -5.31245,-1.043088 m 8.94471,-0.675789 -4.71869,-0.674662 m 0.40962,7.928332 c 0,0 -2.74715,1.219595 -6.06141,1.560065 m 8.11244,1.720231 c 0,0 -3.57309,3.022102 -8.54846,2.675733 m 7.06509,0.430666 c 0,0 -0.58436,0.665698 -1.2184,0.994793 -0.5704,0.294925 -1.32091,0.732331 -2.55282,0.92263 -1.28828,0.212316 -5.13194,0.596679 -6.50625,0.614568 m -10.09349,0.526472 12.61569,-10.719174 m -10.77801,10.299246 9.66859,-8.446515 m -9.44004,9.248447 8.18123,-7.13026 m -5.48272,1.841289 7.93149,-6.807004 m -7.33233,5.381612 5.85325,-5.029616 m -5.10268,11.498443 5.6738,-5.706462 m -6.24337,5.403048 3.1903,-3.019187 m -3.89227,3.002502 4.20175,-4.158856 m 0.97962,3.470734 0.41121,-0.895916 m 0.53038,0.756184 0.41855,-0.901116 m 0.5066,0.912071 0.39497,-0.745307 m 0.59235,0.722669 0.3215,-0.716606 m 0.74223,0.673432 0.4601,-0.770737 m 0.76298,0.367483 0.59074,-0.821774 m 0.41663,0.654018 0.31274,-0.566593"
         style="fill:none;stroke:#000000;stroke-width:0.19225779"
         id="path406"
         inkscape:connector-curvature="0" />
      <path
         d="m 246.31241,63.290168 c -5.98142,-1.000525 -15.04075,-0.205515 -22.89657,2.488229 -10.22803,3.47834 -9.2086,4.115635 -9.60743,4.490147 -0.35789,0.430651 -2.08219,2.511911 -2.3101,3.492138 -0.29305,1.00566 0.19645,1.849947 -0.45584,1.960453 -0.62051,0.167897 -0.50208,-0.322797 -0.50208,-0.322797 -0.24167,-0.787502 0.11759,-4.799794 3.07253,-6.472853 1.82582,-1.003999 9.89721,-4.901174 18.69131,-5.962575 3.78494,-0.515009 6.49493,-0.838182 14.26142,-0.225398 1.10386,0.08542 1.56181,0.869888 -0.24285,0.529982"
         style="fill:#ffffff;stroke:none"
         id="path408"
         inkscape:connector-curvature="0" />
      <path
         d="m 216.69781,89.863412 1.0633,-1.006342 m -0.41469,1.271911 1.08794,-0.943838 m -0.18704,0.892127 0.91163,-0.793526"
         style="fill:none;stroke:#000000;stroke-width:0.19225779"
         id="path410"
         inkscape:connector-curvature="0" />
      <path
         d="m 217.68035,92.378969 c 0,0 1.50143,3.266926 0.83327,4.27484 -0.5498,0.95004 -0.0839,5.077511 -4.01843,6.023231 -3.43709,0.82358 -2.74302,1.80669 -2.74302,1.80669 0,0 -0.66357,1.81355 -2.76746,1.74409 -2.18216,-0.10171 -3.95079,0.87996 -5.22257,-0.40339 -0.22901,-0.20141 -5.90453,-2.3662 -4.02874,-5.40715 0,0 0.50152,1.28403 1.38316,1.97747 1.41931,1.30018 2.51945,1.54297 2.99679,-0.36306 0,0 4.31769,1.43163 4.34981,-0.43547 0,0 2.62595,-0.73479 1.71165,-1.704013 0,0 3.09078,-0.916351 2.75893,-2.559842 0,0 1.61015,-1.964538 0.32167,-2.496755 0,0 1.03055,-3.448437 -1.11409,-3.646243 0,0 -1.04813,-1.889606 -1.921,-0.804066 0,0 -1.23251,-3.155549 -4.45652,0.186283 0,0 -0.37183,-2.900689 -1.74494,-0.353923 0,0 -2.17412,-1.452128 -2.52759,0.98724 0,0 -2.32367,0.907593 -1.15703,2.522866 0,0 -1.5736,0.470352 -1.77381,0.173918 -0.84398,-1.005998 -1.21975,-4.493851 -0.21257,-5.259546 0,0 1.06778,-1.380401 2.59161,-2.194319 0,0 4.28386,-2.192105 5.75674,-1.957632 1.46711,0.243714 2.48671,-0.899136 4.79926,2.279006 0,0 3.50697,1.520246 4.02019,3.628086 0,0 2.01477,0.250859 2.14526,1.979977"
         style="fill:#2c2e2d;fill-opacity:1;stroke:none"
         id="path656"
         inkscape:connector-curvature="0" />
      <path
         d="m 199.71928,100.42978 c 0,0 0.50231,1.28604 1.38394,1.97949 1.41874,1.29808 2.51887,1.54086 2.99679,-0.36307 0,0 4.3179,1.43155 4.34981,-0.43546 0,0 2.62616,-0.73488 1.71187,-1.704105 0,0 3.09077,-0.916341 2.75893,-2.559831 0,0 1.61014,-1.964546 0.32167,-2.496757 0,0 1.03055,-3.448438 -1.1141,-3.646249 0,0 -1.04891,-1.891618 -1.92099,-0.804058 0,0 -1.23252,-3.155555 -4.45653,0.186281 0,0 -0.39627,-2.963275 -1.74594,-0.355864 0,0 -2.17312,-1.450193 -2.52738,0.987156 0,0 -2.32367,0.907594 -1.15624,2.524885 0,0 4.96975,0.357869 6.0463,0.756458 1.04817,0.325908 1.48488,2.237913 1.00383,2.570073 -0.56982,0.297026 -1.173,1.495954 -1.63761,1.677425 0,0 -1.7661,-0.792427 -2.42648,-0.534489 -0.72572,0.283455 -2.71573,0.697728 -2.62058,1.542459 l -0.96152,0.666416"
         style="fill:#2c2e2d;fill-opacity:1;stroke:none"
         id="path3868"
         inkscape:connector-curvature="0" />
      <path
         d="m 217.68035,92.378969 c 0,0 1.50143,3.266926 0.83327,4.27484 -0.54166,0.946863 -0.0839,5.077511 -4.01843,6.023231 -3.43709,0.82358 -2.74302,1.80669 -2.74302,1.80669 0,0 -0.6717,1.81673 -2.76746,1.74409 -2.18531,-0.10978 -3.95079,0.87996 -5.22257,-0.40339 -0.22901,-0.20141 -5.90453,-2.3662 -4.02874,-5.40715 0,0 0.50152,1.28403 1.38316,1.97747 1.41931,1.30018 2.5113,1.54615 2.99679,-0.36306 0,0 4.31769,1.43163 4.34666,-0.44354 0,0 2.62594,-0.7348 1.71165,-1.704022 0,0 3.09077,-0.916346 2.75893,-2.559836 0,0 1.61014,-1.964544 0.32167,-2.496756 0,0 1.03055,-3.448436 -1.11409,-3.646248 0,0 -1.04813,-1.889598 -1.921,-0.804058 0,0 -1.23251,-3.155557 -4.44838,0.183098 0,0 -0.37184,-2.900686 -1.74495,-0.353923 0,0 -2.17412,-1.452129 -2.52758,0.987237 0,0 -2.33182,0.910773 -1.15705,2.522869 0,0 -1.57358,0.47035 -1.77301,0.175939 -0.84477,-1.008014 -1.22054,-4.495873 -0.21336,-5.261568 0,0 1.06778,-1.380394 2.59161,-2.194313 0,0 4.28386,-2.192113 5.75675,-1.957638 1.47309,0.234402 2.4867,-0.899135 4.79926,2.279009 0,0 3.50697,1.520246 4.02018,3.628092 0,0 2.01477,0.250854 2.14527,1.979964 l 0,0 0.0144,0.01297 z"
         style="fill:#2c2e2d;fill-opacity:1;stroke:#e3e4e5;stroke-width:0.42766362;stroke-miterlimit:4;stroke-dasharray:none"
         id="path658"
         inkscape:connector-curvature="0" />
      <path
         d="m 192.36884,99.293815 c 0,0 1.40244,1.232315 1.47294,2.014545 0,0 -1.60539,0.99003 -1.60889,1.36603 -0.007,0.3659 -0.025,0.89864 0.3998,1.02359 0,0 -0.89755,0.0597 -1.51251,-0.74488 -0.51908,-0.75129 -0.6165,-2.9494 1.24235,-3.675436"
         style="fill:#ff7e00;stroke:none"
         id="path668"
         inkscape:connector-curvature="0" />
      <path
         d="m 192.36884,99.293815 c 0,0 1.40007,1.226255 1.47294,2.014545 0,0 -1.60539,0.99003 -1.60889,1.36603 -0.007,0.3659 -0.025,0.89864 0.3998,1.02359 0,0 -0.8894,0.0565 -1.51251,-0.74488 -0.52224,-0.75937 -0.6165,-2.9494 1.24235,-3.675436 l 0,0 0.006,0.01615 z"
         style="fill:#000000;fill-opacity:1;stroke:#e3e4e5;stroke-width:0.42766362;stroke-miterlimit:4;stroke-dasharray:none"
         id="path670"
         inkscape:connector-curvature="0" />
      <path
         d="m 191.58296,102.79096 c 0,0 -1.3133,-1.41372 0.36156,-2.5868 0,0 0.79897,-0.312067 0.29007,0.54987 -0.43565,0.83333 -1.07553,0.56668 -0.65977,2.04011"
         style="fill:#ffffff;stroke:none"
         id="path3866"
         inkscape:connector-curvature="0" />
      <path
         d="m 201.48811,91.196822 c 0.0446,0.499151 0.3998,1.02359 0.3998,1.02359 m 2.88244,-0.07874 c 0.41921,-0.682632 0.25981,-1.28354 0.99345,-1.57009 m 4.46466,-0.189462 c 0,0 -0.86496,0.119118 -1.08852,0.941738 m 1.03965,2.276855 c 0.45582,-0.39677 1.42749,-0.2667 1.65538,0.316765 m 0.64773,-2.479842 c -0.5218,0.203806 -0.69226,0.561255 -0.68024,1.000999 m -1.15798,3.723918 c 0.50208,0.322798 0.96241,0.515305 0.80409,1.096035 0,0 -0.0489,-1.688861 0.88057,-2.05188 m 0.0403,2.436814 c 0.57061,-0.295008 0.80641,-0.677966 0.80641,-0.677966 m -5.19309,1.428004 c 0.18465,0.665507 0.47786,1.223457 0.95069,1.255179 0.42459,0.125024 1.24452,0.251538 1.24452,0.251538 m -8.42806,0.627573 c 0.51087,0.53809 1.20338,0.94008 1.90535,0.95677 l 0.44475,0.56158 m 1.25856,-1.51773 c 0.39048,-0.37125 0.37821,-1.774241 0.37821,-1.774241 m 0.16332,2.751771 c 0.6203,-0.16782 1.58982,-0.62096 1.58982,-0.62096 0,0 0.50659,0.91207 0.97141,0.73051"
         style="fill:none;stroke:#e3e4e5;stroke-width:0.42766362;stroke-miterlimit:4;stroke-dasharray:none"
         id="path3871"
         inkscape:connector-curvature="0" />
      <path
         d="m 199.71928,100.42978 0.9623,-0.664401 c -0.10644,-0.849627 1.88672,-1.255826 2.62057,-1.542458 0.66039,-0.257939 2.4265,0.534487 2.4265,0.534487 0.46461,-0.181468 1.06757,-1.380317 1.6376,-1.677428 0.48106,-0.332155 0.0475,-2.236081 -1.00382,-2.570065 -1.06526,-0.393697 -6.04632,-0.756455 -6.04632,-0.756455 -1.21049,0.02836 -2.2875,0.230295 -4.12664,0.429731 -1.87902,0.289479 -3.29739,1.951086 -3.21474,2.956602 0.15535,0.974801 -0.007,0.365901 -0.007,0.365901 0,0 -0.49696,1.085314 -0.60659,1.791297 0,0 1.68428,1.568989 1.47293,2.014539 0,0 3.80422,-0.0758 5.867,-0.88145"
         style="fill:#ffffff;stroke:none"
         id="path3873"
         inkscape:connector-curvature="0" />
      <path
         d="m 199.71928,100.42978 0.9623,-0.664401 c -0.10644,-0.849627 1.88672,-1.255826 2.62057,-1.542458 0.66039,-0.257939 2.4265,0.534487 2.4265,0.534487 0.46461,-0.181468 1.06757,-1.380317 1.6376,-1.677428 0.48106,-0.332155 0.0362,-2.240983 -1.00382,-2.570065 -1.06526,-0.393697 -6.04632,-0.756455 -6.04632,-0.756455 -1.21049,0.02836 -2.2875,0.230295 -4.12664,0.429731 -1.87902,0.289479 -3.29739,1.951086 -3.21159,2.964679 0.15535,0.974795 -0.007,0.365896 -0.007,0.365896 0,0 -0.48882,1.082138 -0.59845,1.788128 0,0 1.68428,1.568986 1.47293,2.014536 0,0 3.80364,-0.0779 5.86621,-0.88347 l 0,0 0.008,-0.003 z"
         style="fill:#2c2e2d;fill-opacity:1;stroke:#e3e4e5;stroke-width:0.42766362;stroke-miterlimit:4;stroke-dasharray:none"
         id="path682"
         inkscape:connector-curvature="0" />
      <path
         d="m 232.13845,82.05012 -2.99099,-0.611848 m 5.99241,-2.722159 c -1.30818,-0.226677 -6.40854,-1.878484 -6.9597,-1.509637 m 8.83436,-1.14926 c -1.04102,-0.331022 -7.29283,-2.196263 -9.23491,-2.038056 m 12.16651,-0.298356 c -0.71787,-0.08261 -6.80396,-2.096346 -7.95958,-2.308141 m 12.11765,1.356534 c -1.01578,-0.26642 -7.91932,-2.396001 -8.93482,-2.446127 m 14.76046,2.253297 c -1.15433,-0.214628 -3.20465,-1.34979 -12.13839,-3.577608 m 15.34223,2.326236 c -1.30387,-0.381928 -9.3418,-3.106236 -11.99535,-3.186715"
         style="fill:none;stroke:#000000;stroke-width:0.2050112;stroke-miterlimit:4;stroke-dasharray:none"
         id="path686"
         inkscape:connector-curvature="0" />
      <path
         d="m 195.85384,98.103265 c -0.27222,0.28978 -0.74679,0.398909 -1.06325,0.244493 -0.31646,-0.154416 -0.35647,-0.514628 -0.0896,-0.807028 0.26684,-0.292406 0.74074,-0.407656 1.06173,-0.258202 0.32099,0.149445 0.36905,0.507706 0.10766,0.802646"
         style="fill:#ffffff;fill-opacity:1;stroke:#000000;stroke-width:0.20501123;stroke-linecap:butt;stroke-linejoin:bevel;stroke-miterlimit:4;stroke-opacity:1;stroke-dasharray:none"
         id="path5570"
         inkscape:connector-curvature="0" />
    </g>
  </g>
  <path
     d="M 200.29381,1.8288991 C 90.79165,1.8288991 1.8288963,90.791653 1.8288963,200.29381 c 0,109.50216 88.9627537,198.53513 198.4649137,198.53513 109.50214,0 198.53513,-89.03297 198.53513,-198.53513 0,-109.502157 -89.03299,-198.4649109 -198.53513,-198.4649109 z m 0,13.9754139 c 101.91117,0 184.48949,82.578298 184.48949,184.489497 0,101.9112 -82.57832,184.48948 -184.48949,184.48948 -101.911198,0 -184.48951,-82.57828 -184.48951,-184.48948 0,-101.911199 82.578312,-184.489497 184.48951,-184.489497 z"
     style="fill:#000084;fill-opacity:1;stroke:#000000;stroke-width:3.00000024;stroke-linecap:round;stroke-linejoin:miter;stroke-miterlimit:4;stroke-opacity:1;stroke-dasharray:none"
     id="path5133"
     inkscape:connector-curvature="0" />
</svg>
