<?xml version="1.0" encoding="UTF-8" standalone="no"?>
<!-- Created with Inkscape (http://www.inkscape.org/) -->
<svg
   xmlns:svg="http://www.w3.org/2000/svg"
   xmlns="http://www.w3.org/2000/svg"
   xmlns:xlink="http://www.w3.org/1999/xlink"
   version="1.0"
   width="450"
   height="543"
   viewBox="0 0 450 543"
   id="Capa_1"
   xml:space="preserve"><defs
     id="defs526"><linearGradient
   id="linearGradient2893"><stop
     style="stop-color:#ffffff;stop-opacity:0.3137255"
     offset="0"
     id="stop2895" /><stop
     style="stop-color:#ffffff;stop-opacity:0.25098041"
     offset="0.19"
     id="stop2897" /><stop
     style="stop-color:#6b6b6b;stop-opacity:0.1254902"
     offset="0.60000002"
     id="stop2901" /><stop
     style="stop-color:#000000;stop-opacity:0.1254902"
     offset="1"
     id="stop2899" /></linearGradient>
	
	
	
	
	
	
	
	
	
	
	
	
	
	
	
	
	
	
	
	
	
	
	
	
	
	
	
	
	
	
	
	
	
	
	
	
	
	
	
	
	
	
	
	
	
	
	
	
	
	
	
	
	
	
	
	
	
	
	
	
	
	
	
	
	
	
	
	
	
	
	
	
	
	
	
	
	
	
	
	
	
	
	
	
	
	
	
	
	
	
	
	
	
	
	
	
	
	
	
	
	
	
	
	
	
	
	
	
	
	
	
	
	
	
	
	
	
	
	
	
	
	
	
	
	
	
	
	
	
	
	
	
	
	
	
	
	
	
	
	
	
	
	
	
	
	
	
	
	
	
	
	
	
	
	
	
	
	
	
	
	
	
	
	
	
	
	
	
	
	
	
	
	
	
	
	
	
	
	
	
	
	
	
	
	
	
	
	
	
	
	
	
	
	
	
	
	
	
	
	
	
	
	
	
	
	
	
	
	
	
	
	
	
	
	
	
	
	
	
	
	
	
	
	
	
	
	
	
	
	
	
	
	
	
	
	
	
	
	
	
	
	
	
	
	
	
	
	
	
	
	
	
	
	
	
	
	
	
	
	
<marker
   markerUnits="strokeWidth"
   refX="0"
   refY="5"
   markerWidth="4"
   markerHeight="3"
   orient="auto"
   viewBox="0 0 10 10"
   id="marker2279"><path
     d="M 0,0 L 10,5 L 0,10 L 0,0 z "
     id="path7214" /></marker><marker
   markerUnits="strokeWidth"
   refX="10"
   refY="5"
   markerWidth="4"
   markerHeight="3"
   orient="auto"
   viewBox="0 0 10 10"
   id="marker2282"><path
     d="M 10,0 L 0,5 L 10,10 L 10,0 z "
     id="path10" /></marker><marker
   markerUnits="strokeWidth"
   refX="10"
   refY="5"
   markerWidth="4"
   markerHeight="3"
   orient="auto"
   viewBox="0 0 10 10"
   id="marker3282"><path
     d="M 10,0 L 0,5 L 10,10 L 10,0 z "
     id="path3284" /></marker><marker
   markerUnits="strokeWidth"
   refX="0"
   refY="5"
   markerWidth="4"
   markerHeight="3"
   orient="auto"
   viewBox="0 0 10 10"
   id="marker3278"><path
     d="M 0,0 L 10,5 L 0,10 L 0,0 z "
     id="path3280" /></marker><marker
   markerUnits="strokeWidth"
   refX="0"
   refY="5"
   markerWidth="4"
   markerHeight="3"
   orient="auto"
   viewBox="0 0 10 10"
   id="marker3984"><path
     d="M 0,0 L 10,5 L 0,10 L 0,0 z "
     id="path3986" /></marker><marker
   markerUnits="strokeWidth"
   refX="10"
   refY="5"
   markerWidth="4"
   markerHeight="3"
   orient="auto"
   viewBox="0 0 10 10"
   id="marker3988"><path
     d="M 10,0 L 0,5 L 10,10 L 10,0 z "
     id="path3990" /></marker><marker
   markerUnits="strokeWidth"
   refX="10"
   refY="5"
   markerWidth="4"
   markerHeight="3"
   orient="auto"
   viewBox="0 0 10 10"
   id="marker3992"><path
     d="M 10,0 L 0,5 L 10,10 L 10,0 z "
     id="path3994" /></marker><marker
   markerUnits="strokeWidth"
   refX="0"
   refY="5"
   markerWidth="4"
   markerHeight="3"
   orient="auto"
   viewBox="0 0 10 10"
   id="marker3996"><path
     d="M 0,0 L 10,5 L 0,10 L 0,0 z "
     id="path3998" /></marker><marker
   markerUnits="strokeWidth"
   refX="0"
   refY="5"
   markerWidth="4"
   markerHeight="3"
   orient="auto"
   viewBox="0 0 10 10"
   id="marker3190"><path
     d="M 0,0 L 10,5 L 0,10 L 0,0 z "
     id="path3192" /></marker><marker
   markerUnits="strokeWidth"
   refX="10"
   refY="5"
   markerWidth="4"
   markerHeight="3"
   orient="auto"
   viewBox="0 0 10 10"
   id="marker3186"><path
     d="M 10,0 L 0,5 L 10,10 L 10,0 z "
     id="path3188" /></marker><marker
   markerUnits="strokeWidth"
   refX="10"
   refY="5"
   markerWidth="4"
   markerHeight="3"
   orient="auto"
   viewBox="0 0 10 10"
   id="marker3182"><path
     d="M 10,0 L 0,5 L 10,10 L 10,0 z "
     id="path3184" /></marker><marker
   markerUnits="strokeWidth"
   refX="0"
   refY="5"
   markerWidth="4"
   markerHeight="3"
   orient="auto"
   viewBox="0 0 10 10"
   id="marker3178"><path
     d="M 0,0 L 10,5 L 0,10 L 0,0 z "
     id="path3180" /></marker><marker
   markerUnits="strokeWidth"
   refX="10"
   refY="5"
   markerWidth="4"
   markerHeight="3"
   orient="auto"
   viewBox="0 0 10 10"
   id="ArrowStart"><path
     d="M 10,0 L 0,5 L 10,10 L 10,0 z "
     id="path553" /></marker><marker
   markerUnits="strokeWidth"
   refX="0"
   refY="5"
   markerWidth="4"
   markerHeight="3"
   orient="auto"
   viewBox="0 0 10 10"
   id="ArrowEnd"><path
     d="M 0,0 L 10,5 L 0,10 L 0,0 z "
     id="path551" /></marker><radialGradient
   cx="221.44487"
   cy="226.33101"
   r="300"
   fx="221.44487"
   fy="226.33101"
   id="radialGradient6584"
   xlink:href="#linearGradient2893"
   gradientUnits="userSpaceOnUse"
   gradientTransform="matrix(1.2562572,0,0,1.3468683,-15.992875,-112.53955)" /><radialGradient
   cx="221.44487"
   cy="226.33101"
   r="300"
   fx="221.44487"
   fy="226.33101"
   id="radialGradient14617"
   xlink:href="#linearGradient2893"
   gradientUnits="userSpaceOnUse"
   gradientTransform="matrix(1.2562572,0,0,1.3468683,-71.992872,-112.53955)" /></defs><g
     style="display:inline"
     id="layer2"><g
       transform="translate(-55.999951,-1.3751161e-5)"
       id="g6586"><path
         d="M -465.2228,89.299736 C -465.2228,117.92174 -478.77331,141.1512 -495.46948,141.1512 C -512.16565,141.1512 -525.71617,117.92174 -525.71617,89.299736 C -525.71617,60.67773 -512.16565,37.448277 -495.46948,37.448277 C -478.77331,37.448277 -465.2228,60.67773 -465.2228,89.299736 z "
         transform="matrix(6.8414299,0,0,4.9690969,3670.7197,-172.23904)"
         style="fill:#e3e4e5;fill-opacity:1;stroke:#000000;stroke-width:0.46138492;stroke-linecap:butt;stroke-miterlimit:4;stroke-opacity:1"
         id="path2940" /><path
         d="M -465.2228 89.299736 A 30.246685 51.85146 0 1 1  -525.71617,89.299736 A 30.246685 51.85146 0 1 1  -465.2228 89.299736 z"
         transform="matrix(5.5849577,0,0,4.0564906,3048.1761,-90.74354)"
         style="fill:#0071bc;fill-opacity:1;stroke:#000000;stroke-width:0.21009457;stroke-linecap:butt;stroke-miterlimit:4;stroke-dasharray:none;stroke-opacity:1"
         id="path2308" /><path
         d="M 92.435278,362.89339 L 89.570306,351.61084 L 105.35067,342.96899 L 87.363892,342.92175 L 84.508533,331.67706 L 112.26059,324.63 L 114.03918,331.63427 L 92.874925,337.00849 L 115.41879,337.06731 L 117.02914,343.40902 L 97.239682,354.19736 L 118.40394,348.82313 L 120.18734,355.84633 L 92.435278,362.89339 z M 81.036142,303.4533 L 80.119689,294.67287 L 97.097772,292.90079 C 98.781348,292.7251 100.39839,292.82143 101.9489,293.18977 C 103.49944,293.55817 104.89327,294.24401 106.1304,295.24727 C 107.36754,296.25059 108.27695,297.34373 108.85862,298.52669 C 109.67162,300.16995 110.20316,302.18948 110.45322,304.5853 C 110.59785,305.97102 110.65853,307.49312 110.63527,309.15162 C 110.612,310.81014 110.36967,312.21987 109.90826,313.3808 C 109.44686,314.54175 108.73284,315.63414 107.76619,316.65798 C 106.79955,317.68184 105.77046,318.42092 104.6789,318.87522 C 102.92262,319.60838 101.34514,320.04795 99.946481,320.19394 L 82.968398,321.96602 L 82.051945,313.18559 L 99.437968,311.37093 C 100.99204,311.20874 102.1612,310.65141 102.94546,309.69895 C 103.72974,308.74652 104.04212,307.50622 103.88261,305.97805 C 103.72447,304.46286 103.16985,303.3196 102.21875,302.54826 C 101.26766,301.77696 100.00214,301.47376 98.422165,301.63864 L 81.036142,303.4533 z M 79.793925,285.32659 L 79.906048,277.06563 L 95.890749,266.50035 L 80.052364,266.28538 L 80.165548,257.9463 L 108.79572,258.33489 L 108.68254,266.67397 L 92.81581,277.18226 L 108.53702,277.39563 L 108.4241,285.71518 L 79.793925,285.32659 z M 81.018204,249.32177 L 81.874537,240.49603 L 110.37352,243.26119 L 109.51718,252.08693 L 81.018204,249.32177 z M 102.77881,216.0972 L 106.46504,208.88416 C 108.51213,209.78368 110.15355,210.91415 111.38933,212.27556 C 112.6251,213.63703 113.46044,215.20062 113.89534,216.96634 C 114.33023,218.73209 114.31943,220.87704 113.86295,223.40118 C 113.30913,226.4635 112.41145,228.88471 111.16989,230.66482 C 109.92833,232.44495 108.05897,233.83697 105.56181,234.84088 C 103.06465,235.8448 100.0671,236.03046 96.569139,235.39786 C 91.90523,234.55441 88.544989,232.66651 86.488407,229.73418 C 84.431872,226.80187 83.813737,223.06781 84.634,218.53199 C 85.275891,214.98282 86.497987,212.32256 88.300295,210.5512 C 90.102647,208.7799 92.579329,207.66973 95.730349,207.22069 L 96.050561,215.21783 C 95.143445,215.33167 94.464631,215.50001 94.014117,215.72285 C 93.259805,216.08928 92.639536,216.59239 92.153308,217.2322 C 91.667117,217.87206 91.345228,218.62761 91.187639,219.49888 C 90.830809,221.47209 91.351784,223.12769 92.750565,224.46567 C 93.78571,225.47328 95.565352,226.20531 98.089496,226.66179 C 101.21587,227.2272 103.44458,227.14067 104.77562,226.4022 C 106.10667,225.66376 106.92745,224.43607 107.23795,222.71911 C 107.53919,221.05344 107.29918,219.70999 106.51793,218.68875 C 105.73668,217.66755 104.49031,216.8037 102.77881,216.0972 L 102.77881,216.0972 z M 89.445059,198.63114 L 91.761805,190.07195 L 119.40006,197.55289 L 117.08332,206.11208 L 89.445059,198.63114 z M 94.10558,181.62327 L 99.154788,167.81015 C 100.2545,164.80174 101.79358,162.80999 103.77201,161.83488 C 105.75048,160.85984 108.06048,160.85509 110.70202,161.82064 C 113.41696,162.81308 115.24036,164.40499 116.17225,166.59638 C 117.10414,168.78782 116.95766,171.55895 115.73279,174.90979 L 114.06984,179.45913 L 124.04904,183.10689 L 120.99805,191.45347 L 94.10558,181.62327 z M 108.62163,177.46761 L 109.36594,175.43141 C 109.95156,173.82938 110.08461,172.60257 109.76509,171.75099 C 109.44559,170.89946 108.85169,170.31498 107.98339,169.99757 C 107.13957,169.68914 106.32133,169.70891 105.52867,170.05686 C 104.73604,170.40486 104.05586,171.35542 103.48811,172.90853 L 102.62311,175.27492 L 108.62163,177.46761 z M 135.02639,146.50465 L 130.42554,155.4713 L 133.99777,158.86284 L 129.86949,166.9085 L 109.30739,144.26224 L 113.71208,135.67789 L 144.10002,139.17444 L 139.87366,147.41125 L 135.02639,146.50465 z M 128.67075,145.32899 L 118.0685,143.44518 L 125.79076,150.94184 L 128.67075,145.32899 z M 122.13388,120.72954 L 127.12,113.42067 L 144.94849,125.58328 L 152.73036,114.17628 L 158.55487,118.14976 L 145.78688,136.86564 L 122.13388,120.72954 z M 139.92422,96.127744 L 145.7307,89.426122 L 167.37074,108.1757 L 161.56426,114.87732 L 139.92422,96.127744 z M 152.58399,81.730594 L 162.43858,73.031983 C 164.38119,71.317283 166.18306,70.195711 167.84418,69.667264 C 169.50531,69.138888 171.1615,69.022985 172.81274,69.319555 C 174.46397,69.616197 176.04263,70.263442 177.54871,71.261292 C 179.05477,72.259209 180.45406,73.490289 181.74658,74.954534 C 183.77151,77.248597 185.08078,79.25819 185.6744,80.983319 C 186.268,82.708497 186.4781,84.40745 186.30471,86.080182 C 186.13128,87.752953 185.6375,89.200488 184.82336,90.422792 C 183.7135,92.097175 182.56798,93.455672 181.38681,94.498287 L 171.53223,103.1969 L 152.58399,81.730594 z M 163.50831,80.736912 L 173.86134,92.465772 L 175.48668,91.031083 C 176.87286,89.80752 177.72309,88.78348 178.03738,87.95896 C 178.35166,87.134474 178.33654,86.192586 177.99204,85.133293 C 177.64752,84.074039 176.71699,82.685361 175.20045,80.967253 C 173.19274,78.692769 171.44742,77.463192 169.96448,77.278518 C 168.48154,77.093901 166.88103,77.759851 165.16294,79.276372 L 163.50831,80.736912 z M 207.81021,69.945835 L 199.16279,75.121806 L 200.40042,79.889578 L 192.6412,84.533908 L 187.1698,54.438787 L 195.44853,49.483498 L 219.38788,68.524511 L 211.44432,73.279181 L 207.81021,69.945835 z M 203.03833,65.586308 L 195.03713,58.379555 L 197.62531,68.826305 L 203.03833,65.586308 z M 212.61517,40.487444 L 224.9979,36.077598 C 227.43887,35.20833 229.5286,34.837306 231.26711,34.964525 C 233.0056,35.091811 234.5861,35.600145 236.00861,36.489531 C 237.43109,37.37898 238.65581,38.566894 239.68277,40.053274 C 240.70969,41.539711 241.55079,43.20288 242.20606,45.042784 C 243.2326,47.925362 243.70061,50.277727 243.61009,52.099889 C 243.51953,53.922082 243.08273,55.577313 242.29969,57.065586 C 241.51661,58.553881 240.51992,59.713957 239.3096,60.545818 C 237.65666,61.687356 236.08809,62.522406 234.60389,63.05097 L 222.22117,67.460816 L 212.61517,40.487444 z M 223.12549,43.627719 L 228.37406,58.365558 L 230.41638,57.638228 C 232.15817,57.017935 233.32825,56.38354 233.92664,55.735041 C 234.52499,55.086569 234.86124,54.206616 234.93539,53.095182 C 235.00951,51.983778 234.66217,50.348644 233.89335,48.189774 C 232.87551,45.331773 231.71265,43.541313 230.40475,42.818389 C 229.09683,42.095517 227.36346,42.118482 225.20461,42.887285 L 223.12549,43.627719 z M 264.14859,26.681597 L 277.28755,26.298716 C 279.87758,26.223269 281.98003,26.513713 283.5949,27.17005 C 285.20973,27.826443 286.55693,28.796726 287.63648,30.080904 C 288.71599,31.365132 289.51544,32.872431 290.03484,34.602805 C 290.55419,36.333222 290.84232,38.174567 290.89924,40.126846 C 290.98834,43.185455 290.70931,45.567639 290.06213,47.273403 C 289.4149,48.979183 288.48967,50.419504 287.28643,51.594369 C 286.08314,52.769243 284.77767,53.56607 283.37002,53.984853 C 281.44589,54.561979 279.69641,54.873487 278.12158,54.919379 L 264.98262,55.302259 L 264.14859,26.681597 z M 273.18138,32.905501 L 273.63708,48.543394 L 275.80413,48.480244 C 277.65228,48.426394 278.96086,48.183096 279.72984,47.75035 C 280.4988,47.317619 281.08966,46.583952 281.50242,45.549346 C 281.91515,44.51476 282.08815,42.852116 282.02141,40.561409 C 281.93302,37.52886 281.37795,35.467333 280.35618,34.376822 C 279.33439,33.286352 277.67815,32.774484 275.38747,32.841214 L 273.18138,32.905501 z M 301.31527,27.018748 L 324.61214,31.430585 L 323.47466,37.43711 L 308.89013,34.675169 L 308.04337,39.146479 L 321.57245,41.708543 L 320.48584,47.446406 L 306.95677,44.884342 L 305.9065,50.430302 L 320.91322,53.272194 L 319.70669,59.643332 L 295.98763,55.151544 L 301.31527,27.018748 z M 354.55236,70.282675 L 345.68209,65.498653 L 342.21789,69.000476 L 334.25872,64.707836 L 357.32247,44.615154 L 365.81455,49.195206 L 361.69468,79.504927 L 353.5464,75.110302 L 354.55236,70.282675 z M 355.85829,63.952523 L 357.95944,53.391195 L 350.30577,60.957873 L 355.85829,63.952523 z M 382.07007,59.162299 L 388.47854,64.376474 L 386.84443,83.467459 L 396.84135,71.180787 L 403.31041,76.444269 L 385.23954,98.654208 L 378.77047,93.390726 L 380.37607,74.427621 L 370.45311,86.623393 L 363.9992,81.372238 L 382.07007,59.162299 z M 409.49217,82.480872 L 427.31196,102.62463 L 422.01636,107.30928 L 416.03761,100.55081 L 399.8875,114.8377 L 394.02521,108.21088 L 410.17533,93.923995 L 404.19657,87.165523 L 409.49217,82.480872 z M 419.78149,116.15956 C 423.71457,113.63339 427.48035,112.7622 431.07884,113.54599 C 434.67729,114.32979 437.73258,116.67728 440.24471,120.58845 C 442.82011,124.59823 443.72806,128.37908 442.96858,131.93102 C 442.20902,135.48295 439.8901,138.50441 436.01182,140.99542 C 433.19619,142.80383 430.58294,143.81298 428.17208,144.02287 C 425.76118,144.23272 423.47927,143.76396 421.32634,142.61659 C 419.17338,141.46917 417.23843,139.55888 415.52149,136.88572 C 413.77638,134.16869 412.76485,131.64209 412.48689,129.30591 C 412.20891,126.9697 412.65129,124.64671 413.81401,122.33691 C 414.97671,120.02711 416.96587,117.968 419.78149,116.15956 L 419.78149,116.15956 z M 424.53007,123.62506 C 422.09789,125.1872 420.64073,126.76148 420.15857,128.34788 C 419.67638,129.93428 419.9349,131.50533 420.93412,133.06105 C 421.96147,134.66057 423.27701,135.56431 424.88075,135.77229 C 426.48446,135.98025 428.63387,135.21872 431.32899,133.4877 C 433.59678,132.0311 434.96005,130.5094 435.41878,128.9226 C 435.87745,127.33579 435.60368,125.75906 434.59746,124.1924 C 433.6334,122.69147 432.32802,121.82763 430.6813,121.60087 C 429.03453,121.37411 426.98412,122.04884 424.53007,123.62506 L 424.53007,123.62506 z M 451.79572,141.38017 L 460.92003,161.26138 L 455.32844,163.82759 L 449.91088,152.02312 L 445.3666,154.10868 L 449.99393,164.1913 L 444.73961,166.60272 L 440.11228,156.52011 L 429.47938,161.39998 L 425.77263,153.32324 L 451.79572,141.38017 z M 446.60867,192.9968 L 443.50721,183.40777 L 438.58328,183.54291 L 435.80038,174.93879 L 466.35547,176.36674 L 469.3247,185.54694 L 445.39326,204.5979 L 442.54425,195.78937 L 446.60867,192.9968 z M 451.9286,189.32603 L 460.74834,183.14794 L 449.98719,183.32359 L 451.9286,189.32603 z M 458.85084,219.58164 L 464.70167,218.46183 L 467.27174,231.88996 L 455.28233,234.18467 C 453.03829,231.94945 451.41066,229.9045 450.39946,228.04983 C 449.38825,226.19512 448.62319,223.91217 448.10429,221.20098 C 447.46544,217.86312 447.51379,215.0334 448.24934,212.71183 C 448.98489,210.39024 450.36731,208.43536 452.39661,206.84719 C 454.4259,205.25902 456.89846,204.1859 459.81429,203.62783 C 462.88356,203.04039 465.67436,203.16247 468.1867,203.99409 C 470.69899,204.82571 472.77718,206.35024 474.42128,208.5677 C 475.69395,210.29942 476.63871,212.77666 477.25556,215.99943 C 477.85031,219.10707 478.01383,221.48526 477.7461,223.13401 C 477.47831,224.78273 476.85025,226.22865 475.86192,227.47179 C 474.87353,228.71488 473.5203,229.76599 471.80224,230.62514 L 468.70151,222.52852 C 469.69686,221.98005 470.39696,221.23954 470.80181,220.30699 C 471.20661,219.3744 471.28664,218.26868 471.0419,216.98983 C 470.67717,215.0843 469.72469,213.69231 468.18446,212.81385 C 466.64419,211.93538 464.44173,211.77029 461.57708,212.31858 C 458.53336,212.90112 456.46881,213.88952 455.38344,215.28378 C 454.29806,216.67802 453.95118,218.39824 454.34282,220.44445 C 454.52883,221.41638 454.84697,222.31663 455.29722,223.14522 C 455.74745,223.97377 456.42039,224.89229 457.31605,225.90078 L 459.96331,225.39411 L 458.85084,219.58164 z M 457.77654,257.4867 L 457.0585,247.43419 L 452.24515,246.38775 L 451.60087,237.36776 L 480.92766,246.06212 L 481.61508,255.68604 L 453.82178,268.46042 L 453.16218,259.22613 L 457.77654,257.4867 z M 463.82002,255.19483 L 473.8614,251.30546 L 463.37055,248.90226 L 463.82002,255.19483 z M 463.16613,270.09046 L 463.39855,278.52172 C 462.02581,278.65605 460.97179,278.99046 460.2365,279.52496 C 459.04645,280.39529 458.42181,281.6763 458.36258,283.36798 C 458.31837,284.63021 458.58035,285.61329 459.14852,286.31722 C 459.71667,287.02111 460.39114,287.38673 461.17192,287.41409 C 461.91364,287.44005 462.58869,287.13796 463.19706,286.50785 C 463.80541,285.87769 464.41132,284.38757 465.01478,282.03747 C 466.02242,278.19016 467.2774,275.46549 468.77971,273.86344 C 470.28245,272.24837 472.15293,271.48003 474.39116,271.55841 C 475.86159,271.6099 477.23579,272.08472 478.51376,272.98286 C 479.79168,273.88099 480.77481,275.19876 481.46315,276.93616 C 482.15144,278.67354 482.44342,281.0322 482.3391,284.01216 C 482.21102,287.66875 481.43347,290.43295 480.00644,292.30475 C 478.57936,294.1765 476.37599,295.24262 473.39632,295.50311 L 473.2002,287.15128 C 474.4962,286.97516 475.44942,286.54276 476.05985,285.85408 C 476.67024,285.16537 476.99732,284.19641 477.04109,282.94719 C 477.07707,281.91916 476.88621,281.13726 476.46853,280.6015 C 476.05081,280.06571 475.52965,279.78688 474.90505,279.76502 C 474.44958,279.74906 474.03216,279.94942 473.65278,280.36609 C 473.26081,280.76928 472.87483,281.74595 472.49484,283.29611 C 471.52667,287.13175 470.58714,289.87073 469.67626,291.51305 C 468.76534,293.15533 467.66544,294.33501 466.37655,295.05209 C 465.08764,295.76911 463.66241,296.10029 462.10088,296.04564 C 460.26606,295.98136 458.59216,295.41462 457.07918,294.34542 C 455.56619,293.27616 454.44145,291.81664 453.70496,289.96684 C 452.96847,288.11699 452.64875,285.80621 452.74581,283.03449 C 452.91624,278.16767 453.97118,274.83016 455.91065,273.02193 C 457.85012,271.21369 460.26861,270.23654 463.16613,270.09046 L 463.16613,270.09046 z M 480.9761,302.08976 L 477.31861,328.73443 L 470.31399,327.77291 L 471.54112,318.83331 L 450.17894,315.90094 L 451.38216,307.13549 L 472.74434,310.06785 L 473.97147,301.12824 L 480.9761,302.08976 z M 448.51117,347.04514 L 450.93416,337.26262 L 446.67963,334.78021 L 448.85374,326.00249 L 474.05939,343.33246 L 471.73971,352.69789 L 441.35939,356.26006 L 443.58516,347.27379 L 448.51117,347.04514 z M 454.96707,346.73264 L 465.71884,346.13601 L 456.48378,340.60908 L 454.96707,346.73264 z "
         style="font-size:40px;font-style:normal;font-variant:normal;font-weight:normal;font-stretch:normal;text-align:start;line-height:125%;writing-mode:lr-tb;text-anchor:start;fill:#0071bc;fill-opacity:1;stroke:none;stroke-width:1px;stroke-linecap:butt;stroke-linejoin:miter;stroke-opacity:1;font-family:Arial Black"
         id="text4441" /><path
         d="M 221.36451,495.45232 L 226.90756,501.35917 C 225.36919,502.98186 223.75054,504.14471 222.05162,504.84773 C 220.35264,505.55073 218.59875,505.80855 216.78995,505.62119 C 214.9811,505.4338 212.96599,504.69881 210.74459,503.41621 C 208.04957,501.86014 206.07414,500.19707 204.8183,498.42701 C 203.56245,496.65694 202.88402,494.42715 202.78302,491.73763 C 202.68201,489.04813 203.52022,486.16417 205.29766,483.08576 C 207.66755,478.98124 210.57989,476.45664 214.03469,475.51195 C 217.48946,474.5673 221.21274,475.24736 225.20454,477.55214 C 228.32801,479.35562 230.4188,481.4048 231.47691,483.69967 C 232.53495,485.99456 232.74288,488.7007 232.1007,491.8181 L 224.4658,489.41704 C 224.66519,488.52481 224.73614,487.82904 224.67865,487.32973 C 224.58868,486.49597 224.32477,485.74217 223.8869,485.06834 C 223.44899,484.39452 222.84665,483.83625 222.07989,483.39351 C 220.34334,482.39087 218.60908,482.32173 216.87713,483.18609 C 215.579,483.81984 214.28864,485.24742 213.00604,487.46882 C 211.41741,490.22022 210.74571,492.34705 210.99095,493.84934 C 211.23615,495.35163 212.11426,496.53899 213.62529,497.41143 C 215.09118,498.25782 216.4367,498.48592 217.66187,498.09572 C 218.887,497.70552 220.12121,496.82439 221.36451,495.45232 L 221.36451,495.45232 z M 244.81425,487.94146 L 253.46713,489.7877 L 251.37635,499.58667 L 260.83149,501.60408 L 262.92227,491.80512 L 271.61336,493.65952 L 265.63854,521.66201 L 256.94745,519.80761 L 259.36428,508.48055 L 249.90914,506.46313 L 247.49232,517.7902 L 238.83943,515.94395 L 244.81425,487.94146 z M 283.52022,493.27484 L 292.3691,492.70543 L 294.20778,521.27915 L 285.35889,521.84856 L 283.52022,493.27484 z M 304.89095,491.04907 L 313.30892,488.32533 L 319.95295,508.85922 L 333.09092,504.60825 L 335.26151,511.31661 L 313.70556,518.29133 L 304.89095,491.04907 z M 335.05991,479.64982 L 354.80523,466.52234 L 358.18983,471.61319 L 345.82867,479.83138 L 348.34819,483.62105 L 359.81479,475.9976 L 363.048,480.86074 L 351.5814,488.48419 L 354.70648,493.18468 L 367.42546,484.7286 L 371.01551,490.12847 L 350.91236,503.49384 L 335.05991,479.64982 z "
         style="font-size:40px;font-style:normal;font-variant:normal;font-weight:normal;font-stretch:normal;text-align:start;line-height:125%;writing-mode:lr-tb;text-anchor:start;fill:#0071bc;fill-opacity:1;stroke:none;stroke-width:1px;stroke-linecap:butt;stroke-linejoin:miter;stroke-opacity:1;font-family:Arial Black"
         id="text5518" /></g></g><g
     style="display:inline"
     id="layer3"><g
       transform="translate(-56.000003,0)"
       id="g14452"><g
         transform="matrix(1.8128346,0,0,1.8128346,140.96108,82.257363)"
         style="fill:#eac102;stroke:#000000;stroke-width:0.55162227;stroke-miterlimit:4;stroke-dasharray:none;stroke-opacity:1"
         id="g6614"><g
           style="fill:#eac102;stroke:#000000;stroke-width:0.55162227;stroke-miterlimit:4;stroke-dasharray:none;stroke-opacity:1"
           id="g3661"><path
             d="M 77.246792,4.495199 C 67.744268,4.495199 60.03198,12.207475 60.031992,21.709999 C 60.031992,31.212523 67.744268,38.924799 77.246792,38.924799 C 86.749316,38.924799 94.461603,31.212523 94.461592,21.709999 C 94.461592,12.207475 86.749316,4.495199 77.246792,4.495199 z M 77.246792,11.672976 C 82.789932,11.672976 87.295679,16.166859 87.295679,21.709999 C 87.295687,27.253139 82.789932,31.758886 77.246792,31.758886 C 71.703652,31.758886 67.209768,27.253139 67.209768,21.709999 C 67.209765,16.166859 71.703652,11.672976 77.246792,11.672976 z "
             style="fill:#eac102;fill-opacity:1;fill-rule:evenodd;stroke:#000000;stroke-width:0.55162227;stroke-miterlimit:4;stroke-dasharray:none;stroke-opacity:1"
             id="path9478" /><g
             transform="matrix(0.379651,0,0,0.379651,-255.0843,-53.84055)"
             style="fill:#eac102;fill-opacity:1;stroke:#000000;stroke-width:1.45297205;stroke-miterlimit:4;stroke-dasharray:none;stroke-opacity:1"
             id="g12214"><path
               d="M 782.96875,249.65625 L 767.59375,280.4375 C 800.86774,293.57731 837.10262,300.8125 875.03125,300.8125 C 913.20798,300.8125 949.67261,293.49114 983.125,280.1875 L 966.71875,249.78125 C 937.87444,259.28866 907.04712,264.4375 875.03125,264.4375 C 842.87564,264.4375 811.92162,259.24339 782.96875,249.65625 z "
               style="opacity:1;fill:#eac102;fill-opacity:1;fill-rule:evenodd;stroke:#000000;stroke-width:1.45297205;stroke-miterlimit:4;stroke-dasharray:none;stroke-opacity:1;display:inline"
               id="path9483" /><rect
               width="7.5573525"
               height="55.42065"
               ry="3.7786763"
               x="830.74225"
               y="-141.02827"
               transform="matrix(0.895595,0.44487,-0.44487,0.895595,0,0)"
               style="opacity:1;fill:#eac102;fill-opacity:1;fill-rule:evenodd;stroke:#000000;stroke-width:1.45297229;stroke-miterlimit:4;stroke-dasharray:none;stroke-opacity:1"
               id="rect10397" /><rect
               width="7.5573506"
               height="55.420635"
               ry="3.7786753"
               x="852.86694"
               y="-146.21059"
               transform="matrix(0.895595,0.44487,-0.44487,0.895595,0,0)"
               style="opacity:1;fill:#eac102;fill-opacity:1;fill-rule:evenodd;stroke:#000000;stroke-width:1.45297229;stroke-miterlimit:4;stroke-dasharray:none;stroke-opacity:1;display:inline"
               id="rect11284" /><rect
               width="7.5573497"
               height="55.420628"
               ry="3.7786748"
               x="-736.60876"
               y="638.88129"
               transform="matrix(-0.895595,0.44487,0.44487,0.895595,0,0)"
               style="opacity:1;fill:#eac102;fill-opacity:1;fill-rule:evenodd;stroke:#000000;stroke-width:1.45297229;stroke-miterlimit:4;stroke-dasharray:none;stroke-opacity:1;display:inline"
               id="rect11286" /><rect
               width="7.5573478"
               height="55.420612"
               ry="3.7786739"
               x="-714.48407"
               y="633.69897"
               transform="matrix(-0.895595,0.44487,0.44487,0.895595,0,0)"
               style="opacity:1;fill:#eac102;fill-opacity:1;fill-rule:evenodd;stroke:#000000;stroke-width:1.45297229;stroke-miterlimit:4;stroke-dasharray:none;stroke-opacity:1;display:inline"
               id="rect11288" /></g><path
             d="M 7.7308296,98.772587 C 16.3339,113.12247 29.627712,125.21012 42.676025,129.37653 C 26.815584,134.3703 11.452924,136.36465 13.947258,160.93684 C -4.5145401,120.93347 6.2908399,115.36208 7.7308296,98.772587 z "
             style="fill:#eac102;fill-opacity:1;fill-rule:evenodd;stroke:#000000;stroke-width:0.55162227;stroke-linecap:butt;stroke-linejoin:miter;stroke-miterlimit:4;stroke-dasharray:none;stroke-opacity:1"
             id="path9510" /><path
             d="M 146.76638,98.772587 C 138.16329,113.12247 124.86947,125.21012 111.82116,129.37653 C 127.6816,134.3703 143.04428,136.36465 140.54993,160.93684 C 159.01172,120.93347 148.20635,115.36208 146.76638,98.772587 z "
             style="fill:#eac102;fill-opacity:1;fill-rule:evenodd;stroke:#000000;stroke-width:0.55162227;stroke-linecap:butt;stroke-linejoin:miter;stroke-miterlimit:4;stroke-dasharray:none;stroke-opacity:1"
             id="path11320" /><path
             d="M 77.258656,23.13369 C 74.236668,23.13369 71.794024,26.519452 71.789309,30.691118 L 71.777445,30.691118 C 71.477463,82.920408 74.80682,172.79481 62.725141,170.82759 C 36.078405,167.4002 21.489283,128.79604 8.684194,100.20203 L 8.1743645,99.727466 L 7.693377,99.727466 L 7.2130464,101.04438 L 7.2486387,100.68846 C 8.6207543,118.30875 5.9987402,137.43565 39.293556,169.54766 C 61.090375,188.40576 73.500046,200.07242 77.116287,204.28572 L 77.116287,38.26041 C 77.165379,38.262206 77.209252,38.272274 77.258656,38.272274 C 77.297973,38.272274 77.338174,38.273413 77.377297,38.272274 L 77.377297,204.28572 C 80.993537,200.07242 93.403201,188.40576 115.20003,169.54766 C 148.49485,137.43565 145.87287,118.30875 147.24496,100.68846 L 147.28054,101.04438 L 146.8002,99.607383 L 146.19914,99.607383 L 145.80939,100.20203 C 133.00429,128.79604 118.41517,167.4002 91.768443,170.82759 C 79.746516,172.78508 82.97937,83.607201 82.716139,31.474148 C 82.718728,31.438973 82.713899,31.402686 82.716139,31.367371 C 82.730084,31.147383 82.739867,30.92794 82.739867,30.702982 C 82.739867,26.525788 80.28354,23.13369 77.258656,23.13369 z "
             style="fill:#eac102;fill-opacity:1;fill-rule:evenodd;stroke:#000000;stroke-width:0.55162227;stroke-miterlimit:4;stroke-dasharray:none;stroke-opacity:1"
             id="path11290" /></g></g><g
         id="g14431"><g
           id="g13229"><path
             d="M 199.68086,187.64063 C 196.90572,230.81597 200.23977,276.89585 223.11836,314.57813 C 236.0402,335.7851 256.9106,353.36018 281.52461,358.45313 C 312.90501,350.85508 336.8251,325.00648 348.52461,295.70313 C 363.01262,260.72019 364.76112,221.94336 362.11836,184.54688 C 345.25957,193.20122 326.90259,203.22529 307.05586,197.67188 C 298.05444,195.391 289.5217,189.41641 280.99336,185.57813 C 265.42981,192.69018 247.96318,203.10442 230.64961,196.92188 C 219.88467,193.53266 209.86834,189.75461 199.86836,184.54688 C 199.80586,185.57813 199.74336,186.60938 199.68086,187.64063 z "
             style="fill:#eac102;fill-opacity:1;fill-rule:evenodd;stroke:#000000;stroke-width:1px;stroke-linecap:butt;stroke-linejoin:miter;stroke-opacity:1"
             id="path7680" /><path
             d="M 350.01563,271.5 L 211.98438,271.5 C 216.45404,288.25118 223.26832,304.25052 233.57813,318.5625 C 245.25864,334.38245 262.06941,347.08111 281.45313,351.5 C 315.06286,342.57899 338.60904,311.71053 347.79688,279.28125 C 348.6071,276.70635 349.32565,274.10149 350.01563,271.5 z "
             style="fill:#ed1c24;fill-opacity:1;fill-rule:evenodd;stroke:#000000;stroke-width:1px;stroke-linecap:butt;stroke-linejoin:miter;stroke-opacity:1"
             id="path8786" /><path
             d="M 281,191.5 C 279.56251,192.1875 278.125,192.875 276.6875,193.5625 C 260.94904,201.66723 241.40197,208.27977 224.15625,200.375 C 217.8162,198.23373 211.42536,195.8599 205.34375,193.0625 C 204.00438,219.05645 205.2415,246.17078 212,271.5 L 350.03125,271.5 C 356.76442,246.113 357.97353,219.55712 356.6875,193.375 C 338.34722,203.32421 314.7865,209.39954 295.3125,198.90625 C 290.45085,196.61168 285.8879,193.77156 281,191.5 z "
             style="fill:#0071bc;fill-opacity:1;fill-rule:evenodd;stroke:#000000;stroke-width:1px;stroke-linecap:butt;stroke-linejoin:miter;stroke-opacity:1"
             id="path8771" /></g><g
           transform="matrix(0.7519842,0,0,0.7519842,-72.925432,52.537938)"
           id="g9878"><path
             d="M 470.72871,346.12341 L 475.10342,360.91073 L 490.52222,360.65832 L 477.81051,369.38846 L 482.81523,383.9746 L 470.58424,374.5828 L 458.25854,383.84995 L 463.41109,369.31536 L 450.78866,360.45663 L 466.2041,360.86556 L 470.72871,346.12341 z "
             style="fill:#ffffff;fill-opacity:1;stroke:#000000;stroke-width:0.5;stroke-miterlimit:4;stroke-dasharray:none;stroke-opacity:1"
             id="path3133" /><path
             d="M 475.10341,360.91074 L 458.25857,383.84991 L 470.58424,374.58278 L 470.72871,346.12346 L 475.10341,360.91074 z M 463.41111,369.31535 L 490.52217,360.65833 L 477.81048,369.38845 L 482.8152,383.97455 L 470.35688,366.64282 L 450.78871,360.45664 L 463.41111,369.31535 z "
             style="fill:#b3b3b3;fill-opacity:1;stroke:#000000;stroke-width:0.5;stroke-miterlimit:4;stroke-dasharray:none;stroke-opacity:1"
             id="path4547" /></g><g
           id="g13219"><path
             d="M 325.22891,298.23254 L 321.05157,298.23254 L 306.42339,298.23254 L 276.10398,298.23254 L 276.10398,293.48624 L 325.22891,293.48624 C 326.15721,295.16316 326.15721,296.73528 325.22891,298.23254 z "
             style="fill:#eac102;stroke:#000000;stroke-width:0.5;stroke-miterlimit:4;stroke-dasharray:none;stroke-opacity:1"
             id="path2360" /><path
             d="M 314.44868,304.79051 L 316.90418,304.79051 L 316.87423,303.03872 L 314.44868,303.03872 L 314.44868,299.98432 L 312.92148,299.98432 L 312.92148,303.03872 L 310.13658,303.03872 L 310.13658,304.79051 L 312.92148,304.79051 L 312.92148,308.63846 L 306.42339,308.63846 L 306.42339,298.48707 L 306.42339,298.23254 L 321.05157,298.23254 L 321.05157,308.63846 L 314.44868,308.63846 L 314.44868,304.79051 z "
             style="fill:#eac102;stroke:#000000;stroke-width:0.5;stroke-miterlimit:4;stroke-dasharray:none;stroke-opacity:1"
             id="path2362" /><path
             d="M 276.10398,300.47842 C 274.98104,301.07732 273.88804,301.07732 272.85493,300.47842 L 272.85493,298.23254 L 272.85493,293.48624 L 272.85493,291.30024 C 273.81318,290.62648 274.8912,290.62648 276.10398,291.30024 L 276.10398,293.48624 L 276.10398,298.23254 L 276.10398,300.47842 z "
             style="fill:#eac102;stroke:#000000;stroke-width:0.5;stroke-miterlimit:4;stroke-dasharray:none;stroke-opacity:1"
             id="path2364" /><path
             d="M 272.85493,293.48624 L 272.85493,298.23254 L 264.39544,298.23254 L 264.39544,293.48624 L 272.85493,293.48624 z "
             style="fill:#eac102;stroke:#000000;stroke-width:0.5;stroke-miterlimit:4;stroke-dasharray:none;stroke-opacity:1"
             id="path2366" /><path
             d="M 261.95492,291.82428 C 262.59874,290.26729 263.42223,290.26729 264.39544,291.82428 L 264.39544,293.48624 L 264.39544,298.23254 L 264.39544,299.95438 C 263.49709,301.18213 262.68857,301.1971 261.95492,299.98432 L 261.95492,299.38542 L 261.95492,292.39324 L 261.95492,291.82428 z "
             style="fill:#eac102;stroke:#000000;stroke-width:0.5;stroke-miterlimit:4;stroke-dasharray:none;stroke-opacity:1"
             id="path2368" /><path
             d="M 260.75711,292.39324 L 261.95492,292.39324 L 261.95492,299.38542 L 260.75711,299.38542 L 260.75711,292.39324 z "
             style="fill:#eac102;stroke:#000000;stroke-width:0.5;stroke-miterlimit:4;stroke-dasharray:none;stroke-opacity:1"
             id="path2370" /><path
             d="M 249.60256,310.61483 C 244.13758,309.88118 241.05324,305.89848 240.33455,298.68171 C 240.31958,298.41221 240.28964,298.1427 240.27466,297.85822 L 240.27466,293.81563 C 240.28964,293.54598 240.31958,293.27647 240.33455,293.00712 C 241.05324,285.79035 244.13758,281.80765 249.60256,281.07399 C 255.29213,280.31039 259.00532,284.08363 260.75711,292.39339 L 260.75711,299.38557 C 259.00532,307.6353 255.29213,311.37843 249.60256,310.61483 z M 254.64831,297.19943 L 254.64831,294.4894 C 256.54983,289.7431 255.4718,287.00312 251.39927,286.22455 C 246.81767,286.10477 244.64665,288.32071 244.87124,292.88733 L 246.26368,294.30973 C 247.10215,295.38775 247.10215,296.40588 246.26368,297.36413 L 244.87124,298.78652 C 244.64665,303.36812 246.81767,305.59903 251.39927,305.4493 C 255.4718,304.70068 256.54983,301.94573 254.64831,297.19943 z "
             style="fill:#eac102;stroke:#000000;stroke-width:0.5;stroke-miterlimit:4;stroke-dasharray:none;stroke-opacity:1"
             id="path2372" /><path
             d="M 240.27466,293.81563 L 240.27466,297.85822 L 239.34637,298.75657 L 236.81601,297.00479 C 235.82782,296.1813 235.82782,295.40272 236.81601,294.68404 L 239.34637,292.91728 L 240.27466,293.81563 z "
             style="fill:#eac102;stroke:#000000;stroke-width:0.5;stroke-miterlimit:4;stroke-dasharray:none;stroke-opacity:1"
             id="path2374" /></g><path
           d="M 339.97878,252.99412 C 322.16291,249.92739 311.90422,256.37009 296.65618,252.60807 C 297.562,251.98666 297.90569,250.91705 298.02878,249.86288 C 298.02878,249.451 298.41792,248.8865 298.71508,248.49028 C 299.09425,247.98472 299.28978,247.97556 300.00189,247.97556 C 302.18472,245.73425 300.21155,245.18638 299.9161,244.11513 C 300.20467,242.1697 300.34504,240.25417 300.34504,238.28159 C 300.34504,237.56718 300.35547,236.95305 300.51661,236.30849 C 300.67912,235.65845 301.32658,234.71641 300.68819,234.07801 C 301.26184,231.49509 295.75228,231.61572 298.97244,231.24703 C 299.72567,230.39188 296.72381,229.6609 295.8841,229.53129 C 295.98447,228.32214 296.65738,227.60883 295.54095,226.52873 C 295.35196,226.33974 293.50621,226.52873 293.22469,226.52873 C 292.06222,226.52873 290.9724,227.32499 289.7932,227.47239 C 288.90494,227.41128 288.12845,227.74338 287.30537,227.98711 C 287.24366,228.00768 287.5316,229.39084 287.30537,229.61707 C 286.79696,230.12548 285.72262,230.51698 285.0749,230.64652 C 284.54822,230.75186 286.13764,231.53939 284.90332,232.36227 C 284.3868,232.70662 283.77258,232.64495 283.18758,232.7912 C 282.51495,232.95936 282.58706,233.64671 282.58706,234.1638 C 282.58706,234.19063 281.51236,235.53956 281.38604,235.70797 C 280.95059,237.25572 280.15917,237.78813 278.81242,238.53895 C 277.90532,239.08322 279.40903,239.48066 279.92766,239.73998 C 280.47745,240.01487 281.02145,240.74798 281.47183,241.19836 C 281.69417,241.42071 283.23395,241.51021 283.7023,241.6273 C 284.47853,241.82136 284.48274,243.12746 284.64596,243.94355 C 284.52508,245.8238 286.33024,244.6921 286.27592,246.43139 C 286.67201,247.79861 287.55064,248.98833 288.16324,250.29182 C 288.38007,250.72548 288.518,251.37934 288.59218,251.7502 C 288.65833,252.08099 289.75662,250.5454 290.4795,251.7502 C 290.85762,252.38041 291.5259,252.51629 291.85209,252.95122 C 292.07332,253.24619 291.30017,253.46595 290.73686,253.46595 C 290.5724,253.46595 289.24971,252.52229 287.99167,252.52229 C 287.33396,252.52229 286.67626,252.52229 286.01856,252.52229 C 263.49932,249.45717 254.15671,256.53807 222.02122,252.86543 C 222.10071,252.12152 222.46025,251.79356 223.22224,251.7502 C 224.08924,251.12617 224.81112,250.37194 225.79587,249.86288 C 226.74708,249.69196 227.49179,249.94379 228.19791,249.17658 C 228.9587,248.41579 229.04065,246.87545 229.99944,245.91666 C 231.61516,245.0349 232.82005,244.29181 233.77408,242.65675 C 234.66697,241.35404 239.70048,237.59684 240.29392,240.76942 C 240.5601,241.9088 241.28314,244.57725 242.35282,243.17147 C 243.11326,241.90406 243.88417,242.05623 245.1838,242.05623 C 246.2253,242.1514 247.08428,241.55598 248.18636,241.36994 C 248.56083,240.83318 248.59037,239.87561 248.78687,239.48262 C 249.22951,238.54079 249.71644,237.70871 249.73052,236.65164 C 249.60314,235.48265 249.43226,234.30629 249.64474,233.13435 C 249.79257,232.10263 249.52746,231.07331 249.47316,230.04601 C 249.41177,229.00089 250.01794,228.13718 250.41682,227.21503 C 250.58056,226.03045 249.42379,225.61127 249.73052,224.38405 C 250.011,223.26216 250.54928,222.86733 251.18891,222.06779 C 255.80172,219.09881 261.63207,217.35482 266.63062,215.03323 C 269.16658,213.75349 272.41386,214.69801 275.12357,215.20481 C 277.70148,215.84928 280.84506,215.97689 283.53073,215.97689 C 285.65977,215.97689 287.56694,216.66319 289.70741,216.66319 C 291.88182,216.61377 294.05401,216.72065 296.22725,216.74898 C 297.6631,216.74898 298.8774,217.09213 300.25925,217.09213 C 301.53642,217.09213 303.31365,217.10909 304.37704,216.5774 C 305.26124,216.1353 306.45835,216.68931 307.46538,217.09213 C 308.8482,217.64525 311.01047,217.63466 312.0979,218.72209 C 312.97389,219.59808 315.53207,220.03327 316.64463,220.43783 C 318.051,220.94924 318.12249,221.81043 319.56139,221.81043 C 321.90188,221.74087 322.64331,223.14467 322.82131,225.49928 C 322.82131,226.5011 324.06079,227.39549 323.67919,228.15869 C 323.33301,228.85105 322.48334,229.20983 322.04923,229.78865 C 321.27395,231.94824 323.07112,230.75747 320.84821,232.01912 C 320.32079,232.54653 320.69355,233.28783 320.93399,234.24959 C 321.3917,235.07403 322.09589,235.87742 322.47816,236.65164 C 323.54797,237.1482 324.75843,237.15499 325.90965,237.42372 C 327.19907,238.06626 328.02752,239.39169 328.998,240.42627 C 330.66084,240.45385 330.3078,242.28018 330.97111,242.48517 C 331.66811,242.62457 332.10522,242.33248 332.68685,242.91411 C 333.38727,243.61452 333.1238,244.57552 333.7163,245.31615 C 334.66924,246.68881 336.0528,247.76149 337.40516,248.74764 C 337.86323,249.02249 339.11249,250.67872 339.20669,251.14969 C 339.3441,251.83673 339.49245,252.50779 339.97878,252.99412 z "
           style="fill:#dccc8c;fill-rule:evenodd;stroke:#000000;stroke-width:0.29864496px;stroke-linecap:butt;stroke-linejoin:miter;stroke-opacity:1"
           id="path2161" /><path
           d="M 271.66152,220.47403 C 270.28129,220.51075 270.29282,221.51328 267.37784,221.2953 C 267.00061,221.3614 266.83776,221.29455 266.55656,221.12731 C 266.54295,221.2362 266.49983,221.34117 266.46324,221.44462 C 266.53096,221.44044 267.75379,221.885 268.23644,221.97658 C 269.3266,221.97658 269.90622,222.164 270.87758,221.19264 C 271.26228,220.80793 271.81763,221.00687 271.95084,220.47403 C 271.84518,220.46718 271.75354,220.47158 271.66152,220.47403 z M 280.11691,220.73534 C 279.63773,220.78708 279.02571,221.20183 278.74501,221.25797 C 277.86531,221.25797 279.66633,221.90192 280.17291,221.90192 C 280.29207,221.90192 280.41772,221.90192 280.53688,221.90192 C 280.84817,221.90192 281.77891,222.77951 282.10477,222.90985 C 282.81231,223.19287 283.91825,222.76053 284.60592,222.76053 C 285.27319,222.76053 285.94516,222.76053 286.61244,222.76053 C 287.03242,222.76053 286.51643,222.19123 285.96848,222.19123 C 285.39324,222.19123 284.9267,220.87185 284.32594,221.47262 C 283.94909,221.84946 284.49715,222.11657 283.10336,222.11657 C 282.06809,222.11657 281.33584,221.47717 280.53688,220.838 C 280.42273,220.74668 280.27664,220.7181 280.11691,220.73534 z M 303.91518,220.94999 C 303.89368,220.95359 303.86643,220.96244 303.84052,220.97799 C 303.03805,221.45947 302.79713,221.73206 302.04865,222.48055 C 302.50858,223.21644 302.61959,224.08494 303.55121,223.61913 C 304.09453,223.34747 304.97485,222.83944 305.4084,222.40589 C 305.65113,222.16316 307.04941,221.04824 306.63098,221.11798 C 306.25701,221.18031 304.46574,222.86305 304.12983,222.19123 C 304.08603,222.10364 304.23767,220.89598 303.91518,220.94999 z M 296.85969,222.03258 C 296.19055,222.07603 296.13568,222.6952 295.18915,222.6952 C 294.99955,222.6952 293.65713,222.77409 293.61193,222.76053 C 292.90533,222.54855 291.64596,222.11657 290.97079,222.11657 C 289.73567,222.11657 288.69168,222.33122 287.68569,222.33122 C 286.81763,222.33122 287.6974,223.10353 287.96567,223.26449 C 288.37944,223.51275 288.84265,224.59892 288.04033,224.19776 C 287.6294,223.99229 286.54085,223.333 286.18314,224.04843 C 285.8457,224.7233 285.44047,225.00638 284.68058,225.19635 C 283.97432,225.37291 283.9527,225.90563 283.10336,225.90563 C 282.45906,225.90563 281.20511,225.77778 282.31942,226.33493 C 282.62883,226.48964 284.25172,227.83705 283.82197,228.26679 C 283.13527,228.95349 281.64836,228.30323 281.18083,228.77076 C 280.96563,228.98596 278.10667,229.62936 278.81967,229.62936 C 279.25183,229.62936 281.65229,229.44464 281.32082,230.27331 C 281.15268,230.69368 280.33725,231.63497 279.7436,231.48656 C 279.1919,231.34863 277.23665,230.83681 278.10106,231.70121 C 278.17255,231.77271 278.25504,231.83498 278.31571,231.91586 C 278.64177,232.3506 278.57598,233.03788 278.31571,233.55841 C 278.23439,233.72104 277.24246,234.31926 277.24245,234.34235 C 277.24245,234.84392 277.85826,235.63996 277.74642,235.91957 C 277.38954,236.81176 276.67779,237.34284 275.95455,238.06608 C 275.85389,238.16674 274.98451,239.07796 275.67457,239.35399 C 276.23222,239.57705 276.62001,240.04674 277.0278,240.35258 C 277.12313,240.42407 277.20759,240.52029 277.31711,240.56723 C 277.94546,240.83653 278.33575,240.79787 278.95966,240.64189 C 279.37917,240.53702 280.24757,240.1401 280.24757,240.99653 C 280.24757,242.02982 281.23592,241.27426 281.18083,241.13652 C 281.23374,241.11126 281.28659,241.08622 281.33949,241.06186 C 280.9155,240.61135 280.4296,239.9863 279.93026,239.73663 C 279.41163,239.47731 277.90323,239.08631 278.81034,238.54205 C 280.15708,237.79123 280.9507,237.25267 281.38615,235.70492 C 281.51246,235.5365 282.59006,234.19186 282.59006,234.16503 C 282.59006,233.64794 282.51472,232.96129 283.18735,232.79313 C 283.77235,232.64688 284.38803,232.70818 284.90456,232.36383 C 286.13888,231.54095 284.54587,230.75195 285.07255,230.64662 C 285.72027,230.51708 286.79464,230.12844 287.30305,229.62003 C 287.52929,229.3938 287.24135,228.00738 287.30305,227.98681 C 288.12613,227.74307 288.90662,227.41241 289.79487,227.47352 C 290.97408,227.32612 292.06682,226.53092 293.22929,226.53092 C 293.51081,226.53092 295.3548,226.34193 295.54379,226.53092 C 296.66022,227.61102 295.98014,228.31756 295.87976,229.5267 C 296.71947,229.65632 299.7221,230.38876 298.96887,231.24391 C 295.74871,231.61259 301.25973,231.49811 300.68608,234.08104 C 301.32448,234.71944 300.68061,235.6615 300.51809,236.31154 C 300.35695,236.9561 300.34077,237.56632 300.34077,238.28073 C 300.34077,238.65841 300.33245,239.03588 300.32211,239.40998 C 300.93802,239.32776 301.45564,239.08032 301.98332,238.42072 C 302.45934,237.82569 304.03047,236.10953 304.69912,236.77817 C 305.97996,238.05901 304.20033,238.06608 306.77097,238.06608 C 307.31839,238.06608 308.14024,238.50208 308.41352,238.77536 C 308.93922,239.30106 308.15505,240.06327 309.41211,240.06327 C 310.3645,240.06327 310.8154,239.62379 311.63329,239.41932 C 312.40059,239.22749 312.84097,238.69289 313.56514,238.49538 C 315.49847,237.96811 314.7711,238.82817 315.20769,240.13793 C 315.50602,241.03291 315.68827,240.87175 316.28095,240.42724 C 317.8756,239.23125 317.29748,240.22802 318.49279,240.42724 C 319.48848,240.59319 319.24087,241.16934 319.85535,240.06327 C 319.97451,239.84878 320.08376,239.62971 320.21,239.41932 C 320.38845,239.12188 321.9272,238.37261 321.9272,238.34606 C 321.9272,237.71338 322.14186,237.23493 322.14185,236.56352 C 322.14185,236.44645 322.18554,236.34653 322.25385,236.25555 C 321.85933,235.60478 321.31793,234.93346 320.93794,234.24902 C 320.6975,233.28727 320.3172,232.54593 320.84462,232.01852 C 323.06753,230.75687 321.27325,231.9476 322.04853,229.78802 C 322.40192,229.31683 323.02139,228.98765 323.42976,228.50944 C 323.33939,228.18687 323.20807,228.12329 322.78581,227.91215 C 322.50168,227.77009 321.20859,227.43464 321.20859,226.97889 C 321.20859,226.45275 321.35791,226.22808 321.35791,225.69098 C 321.35791,225.01079 318.61195,224.77805 318.06348,224.41241 C 317.99199,224.36475 317.92569,224.30151 317.84883,224.26308 C 317.60968,224.14351 316.7345,223.54774 316.71025,223.5538 C 316.05402,223.71786 314.71436,224.5537 313.99445,223.83378 C 312.67638,222.51572 313.27138,223.4784 310.70002,223.04984 C 309.50791,222.85116 308.66152,222.86709 308.41352,223.9831 C 308.36586,224.19759 308.32682,224.41391 308.27353,224.62706 C 307.86291,226.26952 306.94348,224.65988 306.12702,225.47633 C 306.05553,225.54782 305.99132,225.62782 305.91237,225.69098 C 305.34797,226.1425 304.97146,227.42113 304.19516,226.8389 C 303.69155,226.46119 303.92799,225.26168 303.84052,225.26168 C 303.79285,225.26168 303.74819,225.26168 303.70053,225.26168 C 303.15241,225.26168 302.59677,225.26168 302.04865,225.26168 C 301.55606,225.26168 300.92976,225.28137 300.55542,224.90704 C 300.43626,224.78788 300.29256,224.68721 300.19145,224.5524 C 299.83957,224.08322 300.48091,223.38202 301.12472,223.1245 C 302.08011,222.74234 300.50792,222.6952 300.05146,222.6952 C 298.97915,222.6952 298.13874,222.20842 297.19567,222.05124 C 297.07074,222.03042 296.95528,222.02637 296.85969,222.03258 z M 261.8809,222.89118 C 261.73334,222.88991 261.57298,222.90983 261.37694,222.97518 C 260.80626,223.16541 260.07459,223.48636 259.65973,223.69379 C 259.06621,223.99055 259.03,224.69528 259.23043,225.19635 C 259.26992,225.29506 259.32975,225.37813 259.38908,225.467 C 259.5167,225.29254 259.99424,224.90588 260.15436,224.69239 C 260.453,224.2942 261.96226,224.89704 262.30087,224.9817 C 262.91112,225.13426 263.42267,225.41585 264.15807,225.12169 C 264.85783,224.84178 264.95262,224.47773 265.87528,224.47773 C 266.81047,224.47773 267.51579,224.76705 268.45109,224.76705 C 269.36409,224.76705 269.95123,224.09164 270.5976,223.76845 C 271.46747,223.33352 269.16229,223.66541 269.02038,223.69379 C 268.06915,223.88404 267.73548,223.90211 267.0232,223.18983 C 266.67516,222.8418 266.00701,222.86297 265.44598,222.97518 C 264.64658,223.13506 264.25499,223.40448 263.37413,223.40448 C 262.7875,223.40448 262.52033,222.89672 261.8809,222.89118 z M 259.38908,225.467 C 259.33869,225.53589 259.34174,225.57166 259.44508,225.55099 C 259.42828,225.523 259.4073,225.49428 259.38908,225.467 z M 280.19157,223.25516 C 279.9286,223.24813 279.50062,223.33578 278.74501,223.61913 C 277.82541,223.96398 276.1094,223.76845 275.09594,223.76845 C 274.60828,223.76845 274.85473,223.49565 274.23734,223.61913 C 274.21351,223.61913 274.19584,223.61913 274.17201,223.61913 C 273.58005,223.61913 274.89201,225.40028 275.31059,224.9817 C 275.83668,224.45561 277.05711,224.52653 277.88641,224.69239 C 278.87113,224.88933 280.0524,225.47479 280.96618,225.8403 C 281.2632,225.95911 281.93354,224.47773 282.60873,224.47773 C 283.38597,224.47773 284.56467,224.35796 283.25268,223.9831 C 282.64584,223.80972 282.03816,223.76845 281.32082,223.76845 C 280.5582,223.76845 280.77011,223.27061 280.19157,223.25516 z M 256.15065,226.48426 C 255.57274,226.48426 255.08799,227.04253 254.86275,227.34286 C 254.38067,227.98563 254.13778,228.62278 253.50951,229.1254 C 253.2286,229.35013 253.36952,230.09628 253.36952,230.48796 C 253.36952,230.8206 252.13851,231.14569 251.93229,231.19725 C 251.30018,231.35527 250.51534,231.27191 249.86044,231.27191 L 249.64579,233.10111 C 249.64416,233.11328 249.64754,233.12627 249.64579,233.13844 L 249.64579,233.16644 L 249.5618,233.84772 C 249.50202,234.78379 249.62815,235.71484 249.72979,236.64752 C 249.71742,237.57535 249.34642,238.34116 248.95518,239.14867 L 248.86185,239.92328 C 249.15384,239.94974 249.79436,240.64113 250.14976,240.99653 C 250.55559,241.40237 250.92924,241.74092 251.28834,241.92047 C 251.93395,242.24327 252.60529,241.7486 253.2202,242.20978 C 253.72356,242.5873 254.77913,242.07164 255.01207,241.78048 C 255.48093,241.1944 255.49978,240.86346 256.01066,240.35258 C 256.34745,240.0158 257.30547,239.77639 257.58788,239.49398 C 257.67214,239.40972 257.77253,239.35082 257.86786,239.27933 C 258.11999,239.09023 258.81848,238.89402 258.94112,238.92468 C 259.56999,239.0819 260.43772,238.92468 261.08763,238.92468 C 261.96494,238.92468 262.27117,239.34526 262.94482,239.63397 C 263.75136,239.97962 264.64385,238.56071 265.52064,238.56071 C 266.6484,238.56071 267.90999,238.42072 269.09504,238.42072 C 269.55478,238.42072 270.67228,237.70211 269.80433,237.70211 C 268.20603,237.70211 267.18133,237.42182 265.87528,236.63818 C 265.38881,236.34631 264.76219,236.42353 264.15807,236.42353 C 263.19347,236.42353 262.9704,236.01981 262.44086,235.49027 C 262.19244,235.24184 262.30087,234.10853 262.30087,233.6984 C 262.30087,233.10262 262.30087,232.51165 262.30087,231.91586 C 262.30087,231.36098 265.3623,232.32662 265.5953,232.41982 C 266.6866,232.85634 267.86858,231.2758 268.16178,230.9826 C 268.24472,230.89966 266.86637,231.19725 265.30599,231.19725 C 264.63866,231.19725 263.95486,231.05726 263.23414,231.05726 C 262.66667,231.05726 262.21946,231.11583 261.94623,230.84261 C 261.40987,230.30625 260.42056,230.12603 259.79972,229.62936 C 259.75811,229.59607 259.74889,229.5277 259.72506,229.48004 C 259.54624,229.1224 258.53543,229.18197 258.2225,228.55611 C 257.97466,228.06042 257.94252,227.83434 257.94252,227.19354 C 257.94252,226.5386 256.5847,226.48426 256.15065,226.48426 z M 263.08481,227.2682 C 262.66647,227.2682 262.10339,227.82286 261.65692,227.91215 C 261.28865,227.98581 261.2667,228.0862 260.94764,228.34145 C 260.90101,228.35311 262.87016,227.78805 262.87016,229.20006 C 262.87016,229.91154 264.04919,228.93875 264.37272,228.69609 C 264.98705,228.23535 265.87418,228.61402 266.16459,229.34005 C 266.45449,230.06479 267.16274,228.80245 267.4525,228.41612 C 267.85462,227.87995 268.72716,227.91215 269.38436,227.91215 C 270.17625,227.91215 270.44004,227.28892 269.66434,227.48285 C 268.78705,227.70217 268.03653,227.54547 267.30317,227.91215 C 267.22637,227.95055 266.54063,227.2682 266.16459,227.2682 C 265.67965,227.2682 265.00041,227.49098 264.58737,227.6975 C 263.86312,228.05963 263.61065,227.2682 263.08481,227.2682 z M 259.08111,240.92187 C 258.33129,241.29678 257.98405,243.52148 257.22391,244.28163 C 256.68692,244.81862 259.09136,244.59393 259.65973,244.6456 C 260.84007,244.75291 261.92684,244.21811 262.30087,243.28303 C 262.38174,243.08086 260.81455,243.22461 260.51833,242.92839 C 259.98536,242.39542 259.36301,241.62664 259.08111,240.92187 z M 239.35187,242.49909 C 239.20744,242.78797 235.62453,245.80315 235.42283,245.92418 C 234.69825,246.35892 234.63422,245.80098 235.56282,247.28674 C 235.81884,247.69638 236.52816,248.79012 236.85072,248.85463 C 239.01113,249.28671 237.45036,247.26343 237.35469,247.07209 C 237.04335,246.44942 238.24607,245.62218 239.06256,246.64279 C 239.7559,247.50946 240.18195,247.3837 241.14374,247.57606 C 242.52894,247.8531 241.98065,247.35959 241.14374,246.85744 C 239.99549,246.16849 240.33792,245.04723 240.63978,244.14164 C 241.09186,242.78541 240.5197,243.64253 239.92117,244.00165 C 239.30754,244.36983 238.84791,245.19537 238.84791,243.85233 C 238.84791,243.44543 239.24786,242.86315 239.35187,242.49909 z M 250.14976,243.06838 C 249.14769,243.06838 248.16996,243.20837 247.14464,243.20837 C 246.65777,243.20837 246.1328,243.29432 246.00606,243.3577 C 245.68396,243.51874 247.43395,245.18575 247.43395,246.56813 C 247.43395,246.83791 248.71896,246.30121 249.43114,245.92418 C 250.38446,245.41947 249.53855,245.09832 251.00836,246.56813 C 251.90827,247.46804 251.77815,247.89306 252.08161,248.49999 C 252.37598,249.08871 253.40017,249.07508 252.86556,249.78789 C 252.42601,250.37396 252.2216,250.08432 252.2216,251.15046 C 252.2216,252.12162 250.70408,249.91292 250.36441,249.57324 C 250.2328,249.44163 250.11959,249.28693 250.00043,249.14394 C 249.66479,248.74117 248.92054,249.33561 248.43255,249.14394 C 247.47926,248.76951 247.25172,250.05887 246.64068,250.6465 C 246.28698,250.98665 246.70025,249.95844 247.01398,249.33993 C 247.1836,249.00554 247.00054,248.64334 246.71534,248.71464 C 246.29931,248.81865 245.74162,249.7537 245.64208,250.00255 C 245.57816,250.16235 245.37943,250.2652 245.28744,250.35719 C 245.50254,250.71569 243.10066,251.36757 242.78629,251.43044 C 242.46427,251.49484 242.11886,251.43044 241.63837,251.43044 C 241.20522,251.43044 240.40255,252.33432 239.99583,252.57836 C 239.14392,253.0895 238.54456,253.23399 237.70933,253.65161 C 237.34327,253.83464 237.12458,253.88122 236.94405,253.91293 C 255.1499,254.31333 264.80405,251.03229 279.3143,251.86908 C 279.12001,251.68484 278.89598,251.58141 278.60502,251.29045 C 278.00769,250.69312 277.06577,250.70023 276.5985,250.07721 C 276.21752,249.56923 275.5438,249.01766 275.31059,248.43466 C 275.13553,247.99699 273.76035,246.48515 273.17341,247.07209 C 272.79535,247.45016 272.26845,248.36391 271.67086,248.00536 C 270.54828,247.33181 270.63341,247.71469 269.52435,247.57606 C 269.0118,247.51199 266.85641,246.5649 267.15385,245.6162 C 267.01738,245.68112 266.64088,245.80253 266.51923,245.92418 C 265.78305,246.66036 264.66373,246.80027 264.23273,247.57606 C 263.4097,249.05751 263.35922,248.77439 262.44086,247.85604 C 261.99374,247.40892 261.37096,246.90793 261.01297,246.99743 C 260.44379,247.13973 259.23043,248.43832 259.23043,248.85463 C 259.23043,248.88337 258.20163,249.95809 258.15717,250.00255 C 258.06185,250.09787 257.96319,250.19653 257.86786,250.29186 C 257.34813,250.81158 256.99516,251.21579 256.22531,251.21579 C 255.68991,251.21579 255.20274,251.23977 254.93741,251.5051 C 254.29547,252.14704 254.0788,252.16336 254.0788,251.5051 C 254.0788,251.24492 254.3542,250.06329 254.15346,249.86256 C 253.6886,249.39769 255.1165,248.96485 255.58136,248.49999 C 255.89164,248.18971 256.26931,247.74671 256.65462,247.3614 C 257.31573,246.70029 256.55226,246.03647 256.08532,245.56953 C 255.17574,244.65995 254.7643,247.17599 253.86415,247.57606 C 253.52328,247.72756 253.66794,246.79194 253.36952,246.56813 C 252.82772,246.16178 254.05105,245.55972 254.36812,244.92558 C 255.27724,243.10733 253.8206,244.29252 253.00555,244.49628 C 252.20793,244.69568 251.3996,245.7303 251.14835,244.85092 C 250.94239,244.13007 249.95415,244.27677 250.9337,243.787 C 251.63052,243.43858 250.62767,243.06838 250.14976,243.06838 z M 267.15385,245.6162 C 267.21202,245.58853 267.23651,245.56953 267.16318,245.56953 C 267.15694,245.58515 267.15875,245.60058 267.15385,245.6162 z M 285.14721,245.14957 C 284.80768,245.18828 284.41032,245.42002 284.11129,245.56953 C 283.61106,245.81965 283.56402,245.90962 283.74731,246.64279 C 283.89014,247.21411 284.24255,247.69046 284.39127,248.28534 C 284.61191,249.1679 285.6609,249.68589 286.10847,250.43185 C 286.48785,251.06415 286.59716,251.70448 287.18173,252.28905 C 287.34946,252.45677 288.0054,252.36371 288.25498,252.36371 C 288.28635,252.36371 288.87825,251.8151 288.89894,251.79442 L 288.85227,251.70109 C 288.71144,251.79337 288.60884,251.83714 288.59096,251.74775 C 288.5309,251.44747 288.42535,250.96675 288.27365,250.56251 L 287.52704,249.08795 C 287.1398,248.39635 286.74511,247.70514 286.46312,246.97877 L 286.44445,246.9321 L 285.62318,245.31755 C 285.4899,245.26062 285.35239,245.21172 285.22187,245.14957 C 285.19672,245.1502 285.17308,245.14661 285.14721,245.14957 z "
           style="fill:#c8b470;fill-rule:evenodd;stroke:none;stroke-width:1px;stroke-linecap:butt;stroke-linejoin:miter;stroke-opacity:1"
           id="path2170" /><path
           d="M 339.97878,252.99412 C 322.16291,249.92739 311.90422,256.37009 296.65618,252.60807 C 297.562,251.98666 297.90569,250.91705 298.02878,249.86288 C 298.02878,249.451 298.41792,248.8865 298.71508,248.49028 C 299.09425,247.98472 299.28978,247.97556 300.00189,247.97556 C 302.18472,245.73425 300.21155,245.18638 299.9161,244.11513 C 300.20467,242.1697 300.34504,240.25417 300.34504,238.28159 C 300.34504,237.56718 300.35547,236.95305 300.51661,236.30849 C 300.67912,235.65845 301.32658,234.71641 300.68819,234.07801 C 301.26184,231.49509 295.75228,231.61572 298.97244,231.24703 C 299.72567,230.39188 296.72381,229.6609 295.8841,229.53129 C 295.98447,228.32214 296.65738,227.60883 295.54095,226.52873 C 295.35196,226.33974 293.50621,226.52873 293.22469,226.52873 C 292.06222,226.52873 290.9724,227.32499 289.7932,227.47239 C 288.90494,227.41128 288.12845,227.74338 287.30537,227.98711 C 287.24366,228.00768 287.5316,229.39084 287.30537,229.61707 C 286.79696,230.12548 285.72262,230.51698 285.0749,230.64652 C 284.54822,230.75186 286.13764,231.53939 284.90332,232.36227 C 284.3868,232.70662 283.77258,232.64495 283.18758,232.7912 C 282.51495,232.95936 282.58706,233.64671 282.58706,234.1638 C 282.58706,234.19063 281.51236,235.53956 281.38604,235.70797 C 280.95059,237.25572 280.15917,237.78813 278.81242,238.53895 C 277.90532,239.08322 279.40903,239.48066 279.92766,239.73998 C 280.47745,240.01487 281.02145,240.74798 281.47183,241.19836 C 281.69417,241.42071 283.23395,241.51021 283.7023,241.6273 C 284.47853,241.82136 284.48274,243.12746 284.64596,243.94355 C 284.52508,245.8238 286.33024,244.6921 286.27592,246.43139 C 286.67201,247.79861 287.55064,248.98833 288.16324,250.29182 C 288.38007,250.72548 288.518,251.37934 288.59218,251.7502 C 288.65833,252.08099 289.75662,250.5454 290.4795,251.7502 C 290.85762,252.38041 291.5259,252.51629 291.85209,252.95122 C 292.07332,253.24619 291.30017,253.46595 290.73686,253.46595 C 290.5724,253.46595 289.24971,252.52229 287.99167,252.52229 C 287.33396,252.52229 286.67626,252.52229 286.01856,252.52229 C 263.49932,249.45717 254.15671,256.53807 222.02122,252.86543 C 222.10071,252.12152 222.46025,251.79356 223.22224,251.7502 C 224.08924,251.12617 224.81112,250.37194 225.79587,249.86288 C 226.74708,249.69196 227.49179,249.94379 228.19791,249.17658 C 228.9587,248.41579 229.04065,246.87545 229.99944,245.91666 C 231.61516,245.0349 232.82005,244.29181 233.77408,242.65675 C 234.66697,241.35404 239.70048,237.59684 240.29392,240.76942 C 240.5601,241.9088 241.28314,244.57725 242.35282,243.17147 C 243.11326,241.90406 243.88417,242.05623 245.1838,242.05623 C 246.2253,242.1514 247.08428,241.55598 248.18636,241.36994 C 248.56083,240.83318 248.59037,239.87561 248.78687,239.48262 C 249.22951,238.54079 249.71644,237.70871 249.73052,236.65164 C 249.60314,235.48265 249.43226,234.30629 249.64474,233.13435 C 249.79257,232.10263 249.52746,231.07331 249.47316,230.04601 C 249.41177,229.00089 250.01794,228.13718 250.41682,227.21503 C 250.58056,226.03045 249.42379,225.61127 249.73052,224.38405 C 250.011,223.26216 250.54928,222.86733 251.18891,222.06779 C 255.80172,219.09881 261.63207,217.35482 266.63062,215.03323 C 269.16658,213.75349 272.41386,214.69801 275.12357,215.20481 C 277.70148,215.84928 280.84506,215.97689 283.53073,215.97689 C 285.65977,215.97689 287.56694,216.66319 289.70741,216.66319 C 291.88182,216.61377 294.05401,216.72065 296.22725,216.74898 C 297.6631,216.74898 298.8774,217.09213 300.25925,217.09213 C 301.53642,217.09213 303.31365,217.10909 304.37704,216.5774 C 305.26124,216.1353 306.45835,216.68931 307.46538,217.09213 C 308.8482,217.64525 311.01047,217.63466 312.0979,218.72209 C 312.97389,219.59808 315.53207,220.03327 316.64463,220.43783 C 318.051,220.94924 318.12249,221.81043 319.56139,221.81043 C 321.90188,221.74087 322.64331,223.14467 322.82131,225.49928 C 322.82131,226.5011 324.06079,227.39549 323.67919,228.15869 C 323.33301,228.85105 322.48334,229.20983 322.04923,229.78865 C 321.27395,231.94824 323.07112,230.75747 320.84821,232.01912 C 320.32079,232.54653 320.69355,233.28783 320.93399,234.24959 C 321.3917,235.07403 322.09589,235.87742 322.47816,236.65164 C 323.54797,237.1482 324.75843,237.15499 325.90965,237.42372 C 327.19907,238.06626 328.02752,239.39169 328.998,240.42627 C 330.66084,240.45385 330.3078,242.28018 330.97111,242.48517 C 331.66811,242.62457 332.10522,242.33248 332.68685,242.91411 C 333.38727,243.61452 333.1238,244.57552 333.7163,245.31615 C 334.66924,246.68881 336.0528,247.76149 337.40516,248.74764 C 337.86323,249.02249 339.11249,250.67872 339.20669,251.14969 C 339.3441,251.83673 339.49245,252.50779 339.97878,252.99412 z "
           style="fill:none;fill-rule:evenodd;stroke:#000000;stroke-width:0.5;stroke-linecap:butt;stroke-linejoin:miter;stroke-miterlimit:4;stroke-dasharray:none;stroke-opacity:1"
           id="path3174" /></g></g></g><g
     style="display:inline"
     id="layer1"><path
       d="M 225,13.845071 C 110.77432,13.845071 18.069428,129.27448 18.069428,271.5 C 18.069428,413.72552 110.77431,529.15493 225,529.15493 C 339.22569,529.15493 431.93057,413.72552 431.93057,271.5 C 431.93057,129.27448 339.22567,13.845071 225,13.845071 z "
       style="opacity:0.5;fill:url(#radialGradient14617);fill-opacity:1;fill-rule:evenodd;stroke:none;stroke-width:1px;stroke-linecap:butt;stroke-linejoin:miter;stroke-opacity:1"
       id="path2875" /></g></svg>