<?xml version="1.0" encoding="UTF-8" standalone="no"?>
<!-- Created with Inkscape (http://www.inkscape.org/) -->

<svg
   xmlns:dc="http://purl.org/dc/elements/1.1/"
   xmlns:cc="http://creativecommons.org/ns#"
   xmlns:rdf="http://www.w3.org/1999/02/22-rdf-syntax-ns#"
   xmlns:svg="http://www.w3.org/2000/svg"
   xmlns="http://www.w3.org/2000/svg"
   xmlns:xlink="http://www.w3.org/1999/xlink"
   xmlns:sodipodi="http://sodipodi.sourceforge.net/DTD/sodipodi-0.dtd"
   xmlns:inkscape="http://www.inkscape.org/namespaces/inkscape"
   width="412.43637"
   height="535.97113"
   id="svg2"
   version="1.1"
   inkscape:version="0.47 r22583"
   sodipodi:docname="Escudo de Taltal.svg">
  <defs
     id="defs4">
    <linearGradient
       id="linearGradient4479">
      <stop
         style="stop-color:#cccccc;stop-opacity:0.10980392;"
         offset="0"
         id="stop3702" />
      <stop
         id="stop3722"
         offset="0.00195313"
         style="stop-color:#cccccc;stop-opacity:0.10588235;" />
      <stop
         id="stop3720"
         offset="0.00390625"
         style="stop-color:#cccccc;stop-opacity:0.10588235;" />
      <stop
         id="stop3718"
         offset="0.0078125"
         style="stop-color:#cccccc;stop-opacity:0.10588235;" />
      <stop
         id="stop3716"
         offset="0.015625"
         style="stop-color:#cccccc;stop-opacity:0.10588235;" />
      <stop
         id="stop3714"
         offset="0.03125"
         style="stop-color:#cccccc;stop-opacity:0.10588235;" />
      <stop
         id="stop3712"
         offset="0.0625"
         style="stop-color:#cccccc;stop-opacity:0.10196078;" />
      <stop
         id="stop3710"
         offset="0.125"
         style="stop-color:#cccccc;stop-opacity:0.09411765;" />
      <stop
         id="stop3708"
         offset="0.25"
         style="stop-color:#cccccc;stop-opacity:0.08235294;" />
      <stop
         style="stop-color:#cccccc;stop-opacity:0.06666667;"
         offset="0.375"
         id="stop3724" />
      <stop
         id="stop3706"
         offset="0.5"
         style="stop-color:#cccccc;stop-opacity:0.05490196;" />
      <stop
         style="stop-color:#cccccc;stop-opacity:0;"
         offset="1"
         id="stop4483" />
    </linearGradient>
    <linearGradient
       id="linearGradient4469">
      <stop
         style="stop-color:#000000;stop-opacity:0.0942029;"
         offset="0"
         id="stop4471" />
      <stop
         id="stop4477"
         offset="0.5"
         style="stop-color:#000000;stop-opacity:0.04705882;" />
      <stop
         style="stop-color:#000000;stop-opacity:0;"
         offset="1"
         id="stop4473" />
    </linearGradient>
    <linearGradient
       id="linearGradient4449">
      <stop
         style="stop-color:#d4e1e1;stop-opacity:1;"
         offset="0"
         id="stop4451" />
      <stop
         style="stop-color:#f79933;stop-opacity:0;"
         offset="1"
         id="stop4453" />
    </linearGradient>
    <inkscape:perspective
       sodipodi:type="inkscape:persp3d"
       inkscape:vp_x="0 : 526.18109 : 1"
       inkscape:vp_y="0 : 1000 : 0"
       inkscape:vp_z="744.09448 : 526.18109 : 1"
       inkscape:persp3d-origin="372.04724 : 350.78739 : 1"
       id="perspective10" />
    <inkscape:perspective
       id="perspective2824"
       inkscape:persp3d-origin="0.5 : 0.33333333 : 1"
       inkscape:vp_z="1 : 0.5 : 1"
       inkscape:vp_y="0 : 1000 : 0"
       inkscape:vp_x="0 : 0.5 : 1"
       sodipodi:type="inkscape:persp3d" />
    <inkscape:perspective
       id="perspective3486"
       inkscape:persp3d-origin="0.5 : 0.33333333 : 1"
       inkscape:vp_z="1 : 0.5 : 1"
       inkscape:vp_y="0 : 1000 : 0"
       inkscape:vp_x="0 : 0.5 : 1"
       sodipodi:type="inkscape:persp3d" />
    <inkscape:perspective
       id="perspective3499"
       inkscape:persp3d-origin="0.5 : 0.33333333 : 1"
       inkscape:vp_z="1 : 0.5 : 1"
       inkscape:vp_y="0 : 1000 : 0"
       inkscape:vp_x="0 : 0.5 : 1"
       sodipodi:type="inkscape:persp3d" />
    <inkscape:perspective
       id="perspective2921"
       inkscape:persp3d-origin="0.5 : 0.33333333 : 1"
       inkscape:vp_z="1 : 0.5 : 1"
       inkscape:vp_y="0 : 1000 : 0"
       inkscape:vp_x="0 : 0.5 : 1"
       sodipodi:type="inkscape:persp3d" />
    <linearGradient
       inkscape:collect="always"
       xlink:href="#linearGradient4479"
       id="linearGradient4485"
       x1="386.72089"
       y1="478.64615"
       x2="430.91943"
       y2="478.64615"
       gradientUnits="userSpaceOnUse" />
  </defs>
  <sodipodi:namedview
     id="base"
     pagecolor="#ffffff"
     bordercolor="#666666"
     borderopacity="1.0"
     inkscape:pageopacity="0.0"
     inkscape:pageshadow="2"
     inkscape:zoom="2.0044511"
     inkscape:cx="234.55714"
     inkscape:cy="307.13312"
     inkscape:document-units="px"
     inkscape:current-layer="layer1"
     showgrid="false"
     inkscape:window-width="1280"
     inkscape:window-height="750"
     inkscape:window-x="-4"
     inkscape:window-y="-4"
     inkscape:window-maximized="1" />
  <metadata
     id="metadata7">
    <rdf:RDF>
      <cc:Work
         rdf:about="">
        <dc:format>image/svg+xml</dc:format>
        <dc:type
           rdf:resource="http://purl.org/dc/dcmitype/StillImage" />
        <dc:title />
      </cc:Work>
    </rdf:RDF>
  </metadata>
  <g
     inkscape:label="Capa 1"
     inkscape:groupmode="layer"
     id="layer1"
     transform="translate(-3.4779611,-3.803436)">
    <g
       id="g3244">
      <g
         id="g3795">
        <g
           id="g3702"
           transform="matrix(2.0313341,0,0,2.0313341,74.734029,-701.78219)">
          <g
             transform="matrix(1,0,0,0.98586304,0,7.3971885)"
             id="g3686">
            <path
               sodipodi:type="arc"
               style="fill:#f79933;fill-opacity:1;stroke:#f79933;stroke-width:0.105;stroke-miterlimit:4;stroke-opacity:1;stroke-dasharray:none"
               id="path3681"
               sodipodi:cx="408.82016"
               sodipodi:cy="478.64615"
               sodipodi:rx="22.036774"
               sodipodi:ry="133.74042"
               d="m 430.85693,478.64615 c 0,73.86279 -9.8662,133.74042 -22.03677,133.74042 -12.17057,0 -22.03677,-59.87763 -22.03677,-133.74042 0,-73.86279 9.8662,-133.74042 22.03677,-133.74042 12.17057,0 22.03677,59.87763 22.03677,133.74042 z"
               transform="matrix(4.6017076,0.03437538,0,0.99971319,-1814.8307,-13.916067)" />
            <path
               transform="matrix(4.4670205,0.03376224,0,0.98188134,-1759.6494,-5.2445581)"
               d="m 430.85693,478.64615 c 0,73.86279 -9.8662,133.74042 -22.03677,133.74042 -12.17057,0 -22.03677,-59.87763 -22.03677,-133.74042 0,-73.86279 9.8662,-133.74042 22.03677,-133.74042 12.17057,0 22.03677,59.87763 22.03677,133.74042 z"
               sodipodi:ry="133.74042"
               sodipodi:rx="22.036774"
               sodipodi:cy="478.64615"
               sodipodi:cx="408.82016"
               id="path3684"
               style="fill:#3f486e;fill-opacity:1;stroke:#3f486e;stroke-width:0.105;stroke-miterlimit:4;stroke-opacity:1;stroke-dasharray:none"
               sodipodi:type="arc" />
          </g>
          <g
             transform="matrix(0.93638361,0,0,0.93638361,4.46864,30.765035)"
             id="g3696">
            <path
               sodipodi:type="arc"
               style="fill:#f79933;fill-opacity:1;stroke:#f79933;stroke-width:0.105;stroke-miterlimit:4;stroke-opacity:1;stroke-dasharray:none"
               id="path3698"
               sodipodi:cx="408.82016"
               sodipodi:cy="478.64615"
               sodipodi:rx="22.036774"
               sodipodi:ry="133.74042"
               d="m 430.85693,478.64615 c 0,73.86279 -9.8662,133.74042 -22.03677,133.74042 -12.17057,0 -22.03677,-59.87763 -22.03677,-133.74042 0,-73.86279 9.8662,-133.74042 22.03677,-133.74042 12.17057,0 22.03677,59.87763 22.03677,133.74042 z"
               transform="matrix(4.6017076,0.03437538,0,0.99971319,-1814.8307,-13.916067)" />
            <path
               transform="matrix(4.4670205,0.03376224,0,0.98188134,-1759.6494,-5.2445581)"
               d="m 430.85693,478.64615 c 0,73.86279 -9.8662,133.74042 -22.03677,133.74042 -12.17057,0 -22.03677,-59.87763 -22.03677,-133.74042 0,-73.86279 9.8662,-133.74042 22.03677,-133.74042 12.17057,0 22.03677,59.87763 22.03677,133.74042 z"
               sodipodi:ry="133.74042"
               sodipodi:rx="22.036774"
               sodipodi:cy="478.64615"
               sodipodi:cx="408.82016"
               id="path3700"
               style="fill:#3f486e;fill-opacity:1;stroke:#3f486e;stroke-width:0.105;stroke-miterlimit:4;stroke-opacity:1;stroke-dasharray:none"
               sodipodi:type="arc" />
          </g>
        </g>
        <g
           id="g2896"
           transform="matrix(2.0313341,0,0,2.0313341,-579.60441,-699.22032)">
          <g
             id="g4086">
            <g
               id="g4000">
              <g
                 id="g3930">
                <g
                   id="g3854"
                   transform="translate(-200,0)">
                  <g
                     transform="translate(200,0)"
                     id="g3710">
                    <g
                       id="g3703"
                       transform="translate(140,0)">
                      <g
                         transform="translate(-46,0)"
                         id="g3656">
                        <path
                           style="fill:#3f486e;fill-opacity:1;stroke:#f79933;stroke-width:0.69999999;stroke-linecap:butt;stroke-linejoin:miter;stroke-miterlimit:4;stroke-opacity:1;stroke-dasharray:none"
                           d="m 219.19573,456.15825 15.93232,0 c 0.39596,19.30978 6.71522,39.39216 15.6528,59.81606 -22.68304,-13.47671 -38.16451,-30.78211 -31.58512,-59.81606 z"
                           id="path3610"
                           sodipodi:nodetypes="cccc" />
                        <path
                           style="fill:none;stroke:#f79933;stroke-width:0.69999999;stroke-linecap:butt;stroke-linejoin:miter;stroke-miterlimit:4;stroke-opacity:1;stroke-dasharray:none"
                           d="m 218.77548,458.43465 14.32937,0"
                           id="path3620" />
                        <path
                           id="path3622"
                           d="m 218.38019,461.02759 14.32937,0"
                           style="fill:none;stroke:#f79933;stroke-width:0.69999999;stroke-linecap:butt;stroke-linejoin:miter;stroke-miterlimit:4;stroke-opacity:1;stroke-dasharray:none" />
                        <path
                           style="fill:none;stroke:#f79933;stroke-width:0.69999999;stroke-linecap:butt;stroke-linejoin:miter;stroke-miterlimit:4;stroke-opacity:1;stroke-dasharray:none"
                           d="m 217.9849,463.49817 14.32937,0"
                           id="path3624" />
                        <path
                           id="path3626"
                           d="m 217.88608,466.26522 14.32937,0"
                           style="fill:none;stroke:#f79933;stroke-width:0.69999999;stroke-linecap:butt;stroke-linejoin:miter;stroke-miterlimit:4;stroke-opacity:1;stroke-dasharray:none" />
                        <path
                           style="fill:none;stroke:#f79933;stroke-width:0.69999999;stroke-linecap:butt;stroke-linejoin:miter;stroke-miterlimit:4;stroke-opacity:1;stroke-dasharray:none"
                           d="m 217.78726,468.7358 14.32937,0"
                           id="path3628" />
                        <path
                           id="path3630"
                           d="m 217.98491,471.40403 14.32937,0"
                           style="fill:none;stroke:#f79933;stroke-width:0.69999999;stroke-linecap:butt;stroke-linejoin:miter;stroke-miterlimit:4;stroke-opacity:1;stroke-dasharray:none" />
                        <path
                           style="fill:none;stroke:#f79933;stroke-width:0.69999999;stroke-linecap:butt;stroke-linejoin:miter;stroke-miterlimit:4;stroke-opacity:1;stroke-dasharray:none"
                           d="m 218.08373,473.67696 14.32937,0"
                           id="path3632" />
                        <path
                           id="path3634"
                           d="m 218.3802,476.24636 14.32937,0"
                           style="fill:none;stroke:#f79933;stroke-width:0.69999999;stroke-linecap:butt;stroke-linejoin:miter;stroke-miterlimit:4;stroke-opacity:1;stroke-dasharray:none" />
                        <path
                           style="fill:none;stroke:#f79933;stroke-width:0.69999999;stroke-linecap:butt;stroke-linejoin:miter;stroke-miterlimit:4;stroke-opacity:1;stroke-dasharray:none"
                           d="m 218.87432,479.30988 14.32937,0"
                           id="path3636" />
                        <path
                           id="path3638"
                           d="m 219.76373,482.17575 14.32937,0"
                           style="fill:none;stroke:#f79933;stroke-width:0.69999999;stroke-linecap:butt;stroke-linejoin:miter;stroke-miterlimit:4;stroke-opacity:1;stroke-dasharray:none" />
                        <path
                           style="fill:none;stroke:#f79933;stroke-width:0.69999999;stroke-linecap:butt;stroke-linejoin:miter;stroke-miterlimit:4;stroke-opacity:1;stroke-dasharray:none"
                           d="m 220.75197,484.9428 14.32937,0"
                           id="path3640" />
                        <path
                           id="path3642"
                           d="m 221.93785,487.5122 14.32937,0"
                           style="fill:none;stroke:#f79933;stroke-width:0.69999999;stroke-linecap:butt;stroke-linejoin:miter;stroke-miterlimit:4;stroke-opacity:1;stroke-dasharray:none" />
                        <path
                           style="fill:none;stroke:#f79933;stroke-width:0.69999999;stroke-linecap:butt;stroke-linejoin:miter;stroke-miterlimit:4;stroke-opacity:1;stroke-dasharray:none"
                           d="m 223.32138,490.18043 14.32937,0"
                           id="path3644" />
                        <path
                           id="path3646"
                           d="m 224.86113,492.94748 12.6334,0"
                           style="fill:none;stroke:#f79933;stroke-width:0.65727127;stroke-linecap:butt;stroke-linejoin:miter;stroke-miterlimit:4;stroke-opacity:1;stroke-dasharray:none" />
                        <path
                           style="fill:none;stroke:#f79933;stroke-width:0.65727127;stroke-linecap:butt;stroke-linejoin:miter;stroke-miterlimit:4;stroke-opacity:1;stroke-dasharray:none"
                           d="m 226.63995,495.41806 12.6334,0"
                           id="path3648" />
                        <path
                           id="path3650"
                           d="m 228.1223,497.49335 12.6334,0"
                           style="fill:none;stroke:#f79933;stroke-width:0.65727127;stroke-linecap:butt;stroke-linejoin:miter;stroke-miterlimit:4;stroke-opacity:1;stroke-dasharray:none" />
                        <path
                           style="fill:#f79933;fill-opacity:1;stroke:#f79933;stroke-width:0.65727127;stroke-linecap:butt;stroke-linejoin:miter;stroke-miterlimit:4;stroke-opacity:1;stroke-dasharray:none"
                           d="m 230.39523,500.06275 12.6334,0"
                           id="path3652" />
                        <path
                           id="path3654"
                           d="m 233.01123,502.87921 10.66258,0"
                           style="fill:none;stroke:#f79933;stroke-width:0.73731256;stroke-linecap:butt;stroke-linejoin:miter;stroke-miterlimit:4;stroke-opacity:1;stroke-dasharray:none" />
                      </g>
                      <path
                         style="fill:#f79933;fill-opacity:1;stroke:#f79933;stroke-width:0.69999999;stroke-linecap:butt;stroke-linejoin:miter;stroke-miterlimit:4;stroke-opacity:1;stroke-dasharray:none"
                         d="m 196.97986,442.07457 c -7.15073,6.06145 -15.85214,24.91407 -13.13435,41.73794 5.70618,26.67585 17.54966,23.1085 22.13874,35.38265 0.88722,6.709 -1.5779,8.84301 -3.85214,8.83066 -7.71881,-1.57283 -7.02455,-15.9697 -22.27642,-22.69673 3.9387,7.0157 10.01291,15.45508 9.87728,19.75456 -2.95519,0.33723 -4.3749,2.20995 -5.88434,3.99294 -2.047,5.0036 -2.28979,6.4297 -1.81892,8.19604 3.18392,-2.78984 5.6138,-7.34632 11.83388,-7.77469 5.06011,2.68135 8.58245,2.67901 11.42084,2.52082 6.91087,-1.58828 9.53464,-8.04538 9.24681,-10.50775 0.45368,-11.70018 -12.32288,-18.91265 -15.90137,-28.08827 l 14.22013,0.13768 -18.70378,-13.23976 c -0.48635,-5.21406 -0.117,-10.23797 2.73202,-14.71084 l 0.10162,-23.53525 z"
                         id="path3683"
                         sodipodi:nodetypes="cccccccccccccccc" />
                      <path
                         style="fill:#f79933;fill-opacity:1;stroke:#f79933;stroke-width:0.69999999;stroke-linecap:butt;stroke-linejoin:miter;stroke-miterlimit:4;stroke-opacity:1;stroke-dasharray:none"
                         d="m 202.964,480.75551 0.83855,-8.66494 9.783,5.59028 c -1.84484,2.72057 -5.42263,3.70818 -10.62155,3.07466 z"
                         id="path3685"
                         sodipodi:nodetypes="cccc" />
                      <path
                         sodipodi:nodetypes="cccc"
                         id="path3695"
                         d="m 193.49776,445.95956 18.19824,-25.70374 -15.1138,28.47974 -3.08444,-2.776 z"
                         style="fill:#f79933;fill-opacity:1;stroke:#f79933;stroke-width:0.69999999;stroke-linecap:butt;stroke-linejoin:miter;stroke-miterlimit:4;stroke-opacity:1;stroke-dasharray:none" />
                      <path
                         style="fill:#3f486e;fill-opacity:1;stroke:#f79933;stroke-width:0.69999999;stroke-linecap:butt;stroke-linejoin:miter;stroke-miterlimit:4;stroke-opacity:1;stroke-dasharray:none"
                         d="m 221.31945,404.21331 c -6.65939,15.31659 -20.82899,38.48685 -19.6104,43.90077 0.56933,7.08004 4.50114,2.41038 5.91109,-0.23421 3.27915,9.15258 -6.55063,23.23175 -15.25806,15.93867 -10.65565,-8.83225 19.25369,-39.53193 28.95737,-59.60523 z"
                         id="path3699"
                         sodipodi:nodetypes="ccccc" />
                      <path
                         sodipodi:type="arc"
                         style="fill:none;stroke:#f79933;stroke-width:1.6901871;stroke-miterlimit:4;stroke-opacity:1;stroke-dasharray:none"
                         id="path3701"
                         sodipodi:cx="271.91577"
                         sodipodi:cy="445.91083"
                         sodipodi:rx="2.0745199"
                         sodipodi:ry="2.9965289"
                         d="m 273.99029,445.91083 c 0,1.65493 -0.92879,2.99653 -2.07452,2.99653 -1.14572,0 -2.07452,-1.3416 -2.07452,-2.99653 0,-1.65494 0.9288,-2.99653 2.07452,-2.99653 1.14573,0 2.07452,1.34159 2.07452,2.99653 z"
                         transform="matrix(0.66060639,0,0,0.46632463,16.13559,248.57813)" />
                    </g>
                    <g
                       id="g3736"
                       transform="translate(-94.129758,0.32213202)">
                      <path
                         sodipodi:nodetypes="ccccccccc"
                         id="path3730"
                         d="m 532.55706,516.15765 9.08538,4.76599 -0.91611,5.25846 3.82252,-3.74303 7.15164,3.52773 c -1.41032,2.54981 -2.50533,6.67615 -4.29645,7.32199 -2.30528,-3.47174 -5.45936,-3.63018 -8.85108,-1.4276 -2.6959,-2.03924 -5.44133,-3.56749 -8.85109,-0.28552 -1.14497,-5.13934 0.12966,-10.27868 2.85519,-15.41802 z"
                         style="fill:#f79933;fill-opacity:1;stroke:none" />
                      <path
                         sodipodi:nodetypes="cssssssssssssssssscccsssscccsccc"
                         id="path3734"
                         d="m 545.04105,519.82379 c -0.71273,-0.3358 -2.3132,-1.18923 -2.31507,-1.2082 -0.003,-0.0348 0.27078,-0.62145 4.94835,-10.58921 1.40459,-2.99314 2.55209,-5.46307 2.54999,-5.48871 -0.002,-0.0256 -0.15692,-0.31063 -0.34405,-0.63331 -0.43611,-0.75208 -0.74233,-1.42237 -0.97248,-2.12876 -0.15985,-0.49057 -0.19312,-0.67855 -0.26097,-1.4743 -0.0793,-0.93092 -0.0689,-1.13586 0.0942,-1.84452 0.16569,-0.71984 0.38262,-1.18935 1.03502,-2.23997 0.25617,-0.41255 0.58988,-0.96459 0.74158,-1.22674 0.1517,-0.26217 0.30139,-0.47018 0.33265,-0.46225 0.0634,0.016 9.39601,4.81471 9.46029,4.8643 0.0462,0.0357 -0.2699,1.71194 -0.42443,2.24984 -0.64291,2.2379 -1.99428,3.64148 -4.03995,4.19609 -0.55302,0.14992 -1.92314,0.26339 -2.57508,0.21306 -0.25584,-0.0197 -0.47207,-0.022 -0.4805,-0.005 -0.0481,0.0965 -6.71136,14.30811 -7.03121,14.99651 -0.21211,0.45652 -0.39749,0.82968 -0.41196,0.82925 -0.0145,-4.3e-4 -0.60946,-0.27553 -1.32219,-0.61132 l 1.01581,0.5633 z m 10.24218,-18.89345 c 0.4727,-0.15312 0.88196,-0.43661 1.16171,-0.80466 0.24332,-0.32013 0.60073,-1.09484 0.52972,-1.14824 -0.19402,-0.14588 -5.02388,-2.57454 -5.07301,-2.55092 -0.10722,0.0515 -0.28864,0.58467 -0.34286,1.00759 -0.10919,0.8516 0.20951,1.90875 0.94593,3.13753 l 0.28704,0.47895 0.37637,0.0282 c 0.207,0.0155 0.41219,0.033 0.45597,0.0389 0.24721,0.0335 1.36809,-0.093 1.65913,-0.18735 l 0,0 0,7e-5 z"
                         style="fill:#f79933;fill-opacity:1;stroke:#f79933;stroke-width:0.15691455;stroke-miterlimit:4;stroke-opacity:1;stroke-dasharray:none" />
                    </g>
                    <path
                       sodipodi:type="star"
                       style="fill:#f79933;fill-opacity:1;stroke:none"
                       id="path3740"
                       sodipodi:sides="5"
                       sodipodi:cx="445.83072"
                       sodipodi:cy="420.01703"
                       sodipodi:r1="8.7629385"
                       sodipodi:r2="3.9206586"
                       sodipodi:arg1="0.94200004"
                       sodipodi:arg2="1.5703186"
                       inkscape:flatsided="false"
                       inkscape:rounded="0"
                       inkscape:randomized="0"
                       d="m 450.98483,427.10393 -5.15224,-3.16624 -5.14921,3.17116 1.41915,-5.87849 -4.60715,-3.91725 6.02932,-0.46686 2.30183,-5.59216 2.30718,5.58996 6.02976,0.4611 -4.6034,3.92165 1.42476,5.87713 z"
                       transform="translate(4.187716,3.2213202)" />
                    <path
                       transform="matrix(0.60900698,0,0,0.60900698,63.011329,143.40235)"
                       d="m 450.98483,427.10393 -5.15224,-3.16624 -5.14921,3.17116 1.41915,-5.87849 -4.60715,-3.91725 6.02932,-0.46686 2.30183,-5.59216 2.30718,5.58996 6.02976,0.4611 -4.6034,3.92165 1.42476,5.87713 z"
                       inkscape:randomized="0"
                       inkscape:rounded="0"
                       inkscape:flatsided="false"
                       sodipodi:arg2="1.5703186"
                       sodipodi:arg1="0.94200004"
                       sodipodi:r2="3.9206586"
                       sodipodi:r1="8.7629385"
                       sodipodi:cy="420.01703"
                       sodipodi:cx="445.83072"
                       sodipodi:sides="5"
                       id="path3742"
                       style="fill:#f79933;fill-opacity:1;stroke:none"
                       sodipodi:type="star" />
                    <path
                       sodipodi:type="star"
                       style="fill:#f79933;fill-opacity:1;stroke:none"
                       id="path3744"
                       sodipodi:sides="5"
                       sodipodi:cx="445.83072"
                       sodipodi:cy="420.01703"
                       sodipodi:r1="8.7629385"
                       sodipodi:r2="3.9206586"
                       sodipodi:arg1="0.94200004"
                       sodipodi:arg2="1.5703186"
                       inkscape:flatsided="false"
                       inkscape:rounded="0"
                       inkscape:randomized="0"
                       d="m 450.98483,427.10393 -5.15224,-3.16624 -5.14921,3.17116 1.41915,-5.87849 -4.60715,-3.91725 6.02932,-0.46686 2.30183,-5.59216 2.30718,5.58996 6.02976,0.4611 -4.6034,3.92165 1.42476,5.87713 z"
                       transform="matrix(0.60900698,0,0,0.60900698,154.74709,130.19494)" />
                    <g
                       id="g3626"
                       transform="translate(-174,0)">
                      <path
                         sodipodi:nodetypes="cccccccccccccccc"
                         id="path2846"
                         d="m 538.48679,472.4731 9.66047,0 0,-3.39422 18.01546,-5.48296 19.32093,4.69968 0,4.1775 10.96593,0 -0.26109,4.43859 c -2.5239,2.42233 -5.04781,0.88402 -7.57171,-0.78328 -2.42969,1.09253 -4.22707,3.87124 -8.61609,-0.26109 -3.9379,4.40476 -6.26503,1.56107 -8.87719,0 -2.0872,3.40968 -4.52717,3.2917 -7.31062,-0.26109 -2.43688,3.13312 -4.87375,3.13312 -7.31063,0 -2.42418,1.55478 -4.08926,5.00731 -9.13828,0 -2.95906,2.81331 -5.91812,4.0978 -8.87718,0 l 0,-3.13313 z"
                         style="fill:#f79933;fill-opacity:1;stroke:#f79933;stroke-width:0.30000001;stroke-linecap:butt;stroke-linejoin:miter;stroke-miterlimit:4;stroke-opacity:1;stroke-dasharray:none" />
                      <rect
                         y="468.66599"
                         x="558.24207"
                         height="3.2395554"
                         width="9.7668982"
                         id="rect3620"
                         style="fill:#3f486e;fill-opacity:1;stroke:#3f486e;stroke-width:0.36947513;stroke-miterlimit:4;stroke-opacity:1;stroke-dasharray:none" />
                      <rect
                         style="fill:#3f486e;fill-opacity:1;stroke:#3f486e;stroke-width:0.26392448;stroke-miterlimit:4;stroke-opacity:1;stroke-dasharray:none"
                         id="rect3622"
                         width="4.826376"
                         height="3.3451059"
                         x="571.35797"
                         y="468.61319" />
                      <rect
                         y="457.47778"
                         x="576.46484"
                         height="10.01317"
                         width="3.2397816"
                         id="rect3624"
                         style="fill:#f79933;fill-opacity:1;stroke:#f79933;stroke-width:0.37411737;stroke-miterlimit:4;stroke-opacity:1;stroke-dasharray:none" />
                    </g>
                    <g
                       id="g3659">
                      <path
                         id="path3641"
                         d="m 390.701,452.83526 c -0.94995,-0.17416 -3.02769,-1.29436 -3.95141,-2.13038 -2.76149,-2.49931 -4.07147,-5.88378 -4.85532,-12.54424 l -0.0906,-0.76978 -1.4379,0 c -0.79085,0 -1.4379,-0.0406 -1.4379,-0.0901 0,-0.12901 4.00114,-5.06471 4.1405,-5.10761 0.0638,-0.0196 1.04391,1.12146 2.17811,2.53575 l 2.06217,2.57144 -1.58102,0.0526 -1.58101,0.0526 0.11792,1.12474 c 0.78093,7.44887 3.43613,11.63284 7.66458,12.07761 3.19884,0.33647 6.08569,-0.55041 7.7244,-2.37305 0.91041,-1.0126 1.88768,-2.90005 2.35343,-4.54531 0.3689,-1.30311 0.82695,-4.30622 0.82836,-5.43091 l 0.001,-0.85302 -1.45938,-0.0526 -1.45938,-0.0526 2.04803,-2.56953 c 1.12642,-1.41325 2.103,-2.55433 2.17017,-2.53575 0.0672,0.0186 1.06479,1.19525 2.21692,2.61482 l 2.09478,2.58103 -1.59444,0 -1.59444,0 -0.20922,2.21878 c -0.69126,7.33058 -3.56793,11.74407 -8.47224,12.99838 -1.34496,0.34398 -4.56105,0.46835 -5.87618,0.22724 z"
                         style="fill:#f79933;fill-opacity:1;stroke:#f79933;stroke-width:0.08875129;stroke-miterlimit:4;stroke-opacity:1;stroke-dasharray:none" />
                      <path
                         id="path3657"
                         d="m 392.02293,436.84437 0,-7.48053 -2.30881,0 -2.30881,0 0,0.64646 0,0.64647 -0.64647,0 -0.64646,0 0,-2.1241 0,-2.12411 0.64646,0 0.64647,0 0,0.64647 0,0.64647 2.30881,0 2.30881,0 0,-1.40475 0,-1.40475 -0.37838,-0.18063 c -0.48558,-0.23182 -1.16094,-0.89239 -1.39888,-1.36827 -0.31233,-0.62464 -0.39631,-0.97199 -0.38945,-1.61072 0.01,-0.93555 0.30424,-1.64632 0.95233,-2.30082 0.69841,-0.70532 1.40511,-0.9936 2.41496,-0.9851 0.48955,0.004 0.69785,0.0356 1.0168,0.15352 1.02915,0.3806 1.82903,1.22079 2.12936,2.23666 0.1447,0.48946 0.14528,1.35664 0.001,1.83986 -0.23435,0.78612 -0.8959,1.61541 -1.58194,1.98304 l -0.33409,0.17903 -0.0165,1.43147 -0.0165,1.43146 2.37151,0 2.37151,0 0,-0.64647 0,-0.64647 0.64646,0 0.64647,0 0,2.12411 0,2.1241 -0.64647,0 -0.64646,0 0,-0.64647 0,-0.64646 -2.37038,0 -2.37037,0 0,7.48053 0,7.48054 -1.20058,0 -1.20058,0 0,-7.48054 z m 1.8861,-13.56418 c 1.03846,-0.53028 1.26855,-1.88381 0.46116,-2.71273 -0.52198,-0.53589 -1.27892,-0.65526 -1.96888,-0.31048 -1.02826,0.51383 -1.2456,1.86823 -0.43169,2.69027 0.49356,0.4985 1.33299,0.6426 1.93941,0.33294 z"
                         style="fill:#f79933;fill-opacity:1;stroke:#f79933;stroke-width:0.105;stroke-miterlimit:4;stroke-opacity:1;stroke-dasharray:none" />
                    </g>
                    <path
                       sodipodi:nodetypes="cscsssccsccccccccccccsc"
                       id="path7069-1"
                       d="m 377.46667,486.62802 c -0.84903,0.0206 -1.61545,1.38221 -1.53098,3.70504 0.11553,3.17797 0.2028,5.02049 0.27627,7.4794 -2.79154,-0.79136 -2.97693,-1.81237 -3.08496,-6.62935 -0.0805,-3.66628 -2.24448,-2.69764 -2.17559,-0.0947 0.0742,2.80239 -0.0541,7.92848 2.77417,8.52578 0.94669,0.19992 1.47164,0.37728 2.23312,0.51048 0.0548,3.07307 0.26302,6.64779 0.27859,9.64383 -4.75315,0.78878 -4.60365,-4.37475 -4.58155,-7.41711 0.0292,-4.01332 -2.17525,-3.08178 -2.20782,0.86621 -0.44091,5.30925 1.10185,9.3643 6.58908,10.03644 0.0666,1.98742 0.14753,3.00771 0.25095,5.29423 0.0248,2.37265 3.51715,2.24401 3.23688,-0.004 0,0 -0.0522,-2.13281 -0.10129,-5.19029 7.07971,0.21641 8.08287,-4.42469 8.11761,-10.78252 -0.0546,-4.13441 -2.50348,-4.50838 -2.63144,-0.61906 -0.27635,4.04209 0.46408,8.26387 -4.78858,7.98741 -0.0378,-3.15456 -0.0605,-6.17578 -0.0254,-9.57661 5.03048,-0.41924 5.25858,-3.32231 5.09017,-7.79584 -0.20905,-3.74916 -2.04167,-2.45235 -2.15716,-0.56593 -0.23785,3.40427 0.50297,5.79868 -3.63288,5.95257 0.0289,-1.42904 0.0963,-2.76785 0.12895,-3.94066 0.21096,-7.58603 -0.60783,-7.35985 -2.05815,-7.38469 z"
                       style="fill:#f79933;fill-opacity:1;fill-rule:evenodd;stroke:#f79933;stroke-width:0.63200402;stroke-linecap:butt;stroke-linejoin:miter;stroke-miterlimit:4;stroke-opacity:1;stroke-dasharray:none" />
                  </g>
                  <path
                     id="path3764"
                     d="m 599.75981,518.34728 -0.69425,-0.0335 0.30402,-0.28155 c 0.48627,-0.45035 0.61645,-0.55388 0.69646,-0.55388 0.0414,0 0.097,-0.0569 0.12369,-0.12633 0.0267,-0.0695 0.10652,-0.12634 0.17746,-0.12634 0.0709,0 0.12898,-0.0379 0.12898,-0.0842 0,-0.0463 0.0568,-0.0842 0.12633,-0.0842 0.0695,0 0.12633,-0.0379 0.12633,-0.0842 0,-0.0463 0.04,-0.0842 0.0888,-0.0842 0.32625,0 2.3536,-1.77738 2.3536,-2.06341 0,-0.0271 0.0745,-0.12914 0.16553,-0.22687 0.091,-0.0977 0.14566,-0.20983 0.12137,-0.24914 -0.0243,-0.0393 -0.002,-0.0715 0.05,-0.0715 0.0518,0 0.0707,-0.0379 0.0421,-0.0842 -0.0286,-0.0463 -0.01,-0.0842 0.0421,-0.0842 0.0518,0 0.0707,-0.0379 0.0421,-0.0842 -0.0286,-0.0463 -0.0119,-0.0842 0.0371,-0.0842 0.0491,0 0.0811,-0.0284 0.0713,-0.0632 -0.01,-0.0347 0.0294,-0.14844 0.0872,-0.25266 0.0578,-0.10423 0.0802,-0.1895 0.0497,-0.1895 -0.0305,0 -0.0177,-0.0474 0.0283,-0.10528 0.046,-0.0579 0.0671,-0.18108 0.0467,-0.27372 -0.0204,-0.0926 -0.0502,-0.24425 -0.0664,-0.33689 -0.0162,-0.0927 -0.0354,-0.16845 -0.0427,-0.16845 -0.007,0 -0.0294,-0.0865 -0.049,-0.19231 -0.0197,-0.10577 -0.097,-0.2858 -0.17187,-0.40006 -0.0749,-0.11425 -0.11011,-0.20774 -0.0783,-0.20774 0.0318,0 -0.002,-0.0596 -0.0745,-0.13235 -0.0728,-0.0728 -0.13234,-0.18649 -0.13234,-0.25267 0,-0.0662 -0.0379,-0.12031 -0.0842,-0.12031 -0.0463,0 -0.0842,-0.0533 -0.0842,-0.11854 0,-0.14196 -0.44965,-0.66438 -1.12496,-1.30703 -0.91702,-0.87267 -2.32816,-2.3295 -2.32816,-2.40354 0,-0.0182 0.12318,-0.0329 0.27373,-0.0325 0.15054,3.4e-4 0.70957,-0.002 1.24228,-0.005 0.88153,-0.006 1.35465,0.0202 1.41072,0.0769 0.0116,0.0117 0.059,0.0308 0.10528,0.0423 0.0463,0.0116 0.10317,0.0305 0.12633,0.0421 0.0232,0.0116 0.0705,0.026 0.10528,0.0321 0.0696,0.0121 0.90152,0.49585 1.13993,0.66279 0.27646,0.19358 1.15513,1.07876 1.15513,1.16369 0,0.0461 0.0568,0.10567 0.12633,0.13233 0.0695,0.0267 0.12634,0.10247 0.12634,0.16845 0,0.066 0.0568,0.14178 0.12633,0.16844 0.0695,0.0267 0.12633,0.10246 0.12633,0.16845 0,0.066 0.0568,0.14178 0.12634,0.16844 0.0695,0.0267 0.12633,0.085 0.12633,0.12957 0,0.10017 0.51204,0.85889 0.60571,0.89752 0.0374,0.0154 0.0681,0.0818 0.0681,0.14739 0,0.0656 0.0379,0.11931 0.0842,0.11931 0.0463,0 0.0842,0.0406 0.0842,0.0902 0,0.10068 0.24455,0.36717 0.35193,0.38351 0.038,0.006 0.0787,0.0201 0.0902,0.0318 0.12551,0.12682 1.62983,0.10199 2.12662,-0.0351 0.0926,-0.0256 0.37689,-0.0985 0.63166,-0.16206 0.49864,-0.1244 1.28825,-0.50469 1.55294,-0.74792 0.0898,-0.0825 0.21417,-0.15002 0.27637,-0.15002 0.0622,0 0.13491,-0.0568 0.16157,-0.12634 0.0267,-0.0695 0.0934,-0.12633 0.14827,-0.12633 0.12503,0 0.80864,-0.68927 0.80864,-0.81535 0,-0.0512 0.0568,-0.11489 0.12633,-0.14155 0.0695,-0.0267 0.12633,-0.10652 0.12633,-0.17746 0,-0.0709 0.0379,-0.12898 0.0842,-0.12898 0.0463,0 0.0842,-0.0568 0.0842,-0.12633 0,-0.0695 0.0401,-0.12633 0.0892,-0.12633 0.0491,0 0.0658,-0.0379 0.0371,-0.0842 -0.0286,-0.0463 -0.0165,-0.0842 0.0269,-0.0842 0.084,0 0.32166,-0.50409 0.28789,-0.61061 -0.011,-0.0347 0.0242,-0.0632 0.0782,-0.0632 0.054,0 0.0733,-0.0249 0.0428,-0.0554 -0.0305,-0.0305 -0.0164,-0.10242 0.0313,-0.15986 0.0477,-0.0574 0.10236,-0.17462 0.12154,-0.26041 0.0312,-0.13936 0.0623,-0.26993 0.1678,-0.70343 0.0169,-0.0695 0.0385,-0.12633 0.0479,-0.12633 0.0216,0 0.0601,-0.22047 0.13235,-0.758 0.0739,-0.55023 0.0754,-1.18035 0.004,-1.60023 -0.0984,-0.57595 -0.17891,-0.9879 -0.2181,-1.11595 -0.004,-0.0116 -0.0102,-0.0495 -0.0147,-0.0842 -0.005,-0.0347 -0.0501,-0.13897 -0.10123,-0.23161 -0.0511,-0.0926 -0.10216,-0.22461 -0.11344,-0.29325 -0.0113,-0.0686 -0.0607,-0.1382 -0.10986,-0.15458 -0.0491,-0.0164 -0.0679,-0.0644 -0.0417,-0.10681 0.0262,-0.0424 0.007,-0.077 -0.0416,-0.077 -0.0491,0 -0.0892,-0.0536 -0.0892,-0.11918 0,-0.12565 -0.14517,-0.31702 -0.74847,-0.9867 -0.20321,-0.22557 -0.41708,-0.41012 -0.47527,-0.41012 -0.0582,0 -0.12761,-0.0568 -0.15428,-0.12633 -0.0267,-0.0695 -0.10246,-0.12634 -0.16844,-0.12634 -0.066,0 -0.14178,-0.0568 -0.16845,-0.12633 -0.0267,-0.0695 -0.10072,-0.12633 -0.16457,-0.12633 -0.0638,0 -0.20348,-0.0758 -0.3103,-0.16845 -0.10682,-0.0926 -0.24527,-0.16844 -0.30767,-0.16844 -0.0624,0 -0.11345,-0.0442 -0.11345,-0.0983 0,-0.054 -0.0235,-0.0748 -0.0521,-0.0461 -0.0287,0.0287 -0.10753,-0.003 -0.17524,-0.0709 -0.0677,-0.0677 -0.15794,-0.10157 -0.20053,-0.0752 -0.0426,0.0263 -0.0774,0.005 -0.0774,-0.0463 0,-0.0518 -0.0379,-0.0707 -0.0842,-0.0421 -0.0463,0.0286 -0.0842,0.01 -0.0842,-0.0421 0,-0.0518 -0.0379,-0.0707 -0.0842,-0.0421 -0.0463,0.0286 -0.0842,0.01 -0.0842,-0.0421 0,-0.0518 -0.0379,-0.0707 -0.0842,-0.0421 -0.0463,0.0286 -0.0842,0.0119 -0.0842,-0.0371 0,-0.0491 -0.0284,-0.0811 -0.0632,-0.0713 -0.0347,0.01 -0.14844,-0.0294 -0.25267,-0.0872 -0.10422,-0.0578 -0.1895,-0.0839 -0.1895,-0.0581 0,0.0259 -0.0947,-0.0151 -0.21055,-0.0909 -0.11581,-0.0759 -0.21056,-0.11378 -0.21056,-0.0842 0,0.0296 -0.0947,-0.008 -0.21056,-0.0842 -0.1158,-0.0759 -0.21055,-0.11378 -0.21055,-0.0842 0,0.0296 -0.0947,-0.008 -0.21056,-0.0842 -0.1158,-0.0759 -0.21055,-0.11378 -0.21055,-0.0842 0,0.0296 -0.0947,-0.008 -0.21056,-0.0842 -0.1158,-0.0759 -0.21055,-0.11378 -0.21055,-0.0842 0,0.0296 -0.0948,-0.008 -0.21056,-0.0842 -0.11581,-0.0759 -0.21056,-0.11001 -0.21056,-0.0758 0,0.0342 -0.0568,0.0149 -0.12633,-0.0427 -0.0695,-0.0577 -0.12633,-0.0804 -0.12633,-0.0505 0,0.0299 -0.0947,-0.008 -0.21056,-0.0836 -0.11581,-0.0759 -0.21056,-0.11378 -0.21056,-0.0842 0,0.0296 -0.0948,-0.008 -0.21055,-0.0842 -0.11581,-0.0759 -0.21056,-0.11002 -0.21056,-0.0759 0,0.0342 -0.0509,0.0199 -0.11302,-0.0317 -0.0622,-0.0516 -0.13797,-0.0689 -0.16845,-0.0384 -0.0305,0.0305 -0.0554,0.0112 -0.0554,-0.0428 0,-0.054 -0.0284,-0.0938 -0.0632,-0.0883 -0.0347,0.005 -0.0916,7.5e-4 -0.12634,-0.0105 -0.0347,-0.0113 -0.0916,-0.0268 -0.12633,-0.0346 -0.0347,-0.008 -0.17687,-0.0749 -0.31583,-0.14919 -0.13897,-0.0743 -0.27162,-0.13319 -0.29478,-0.13081 -0.0232,0.002 -0.16048,-0.0569 -0.30516,-0.1317 -0.14467,-0.0748 -0.2868,-0.11227 -0.31583,-0.0832 -0.029,0.029 -0.0528,0.006 -0.0528,-0.0504 0,-0.0568 -0.0379,-0.0798 -0.0842,-0.0512 -0.0463,0.0286 -0.0842,0.006 -0.0842,-0.0512 0,-0.0568 -0.0235,-0.0797 -0.0522,-0.051 -0.0604,0.0604 -1.01429,-0.40489 -1.18959,-0.58019 -0.0648,-0.0648 -0.1719,-0.11776 -0.23807,-0.11776 -0.0662,0 -0.12032,-0.0401 -0.12032,-0.0892 0,-0.0491 -0.0379,-0.0658 -0.0842,-0.0371 -0.0463,0.0286 -0.0842,0.0126 -0.0842,-0.0355 0,-0.0482 -0.0947,-0.11137 -0.21055,-0.14043 -0.11581,-0.0291 -0.21056,-0.0866 -0.21056,-0.12794 0,-0.0413 -0.0528,-0.0751 -0.11732,-0.0751 -0.0645,0 -0.14006,-0.0593 -0.16785,-0.13167 -0.0278,-0.0724 -0.0887,-0.10809 -0.13534,-0.0793 -0.0466,0.0288 -0.0848,0.0113 -0.0848,-0.0389 0,-0.0502 -0.10001,-0.1293 -0.22224,-0.17577 -0.25168,-0.0957 -0.23745,-0.14349 0.0589,-0.19796 0.11299,-0.0208 0.21491,-0.0453 0.22649,-0.0545 0.0116,-0.009 0.059,-0.0263 0.10528,-0.0378 0.0463,-0.0116 0.10318,-0.0305 0.12634,-0.0421 0.0232,-0.0116 0.08,-0.0305 0.12633,-0.0421 0.0463,-0.0116 0.10317,-0.0305 0.12633,-0.0421 0.0232,-0.0116 0.0708,-0.0258 0.10584,-0.0316 0.1303,-0.0215 1.07432,-0.51821 1.10153,-0.57955 0.0155,-0.035 0.0629,-0.0423 0.10527,-0.0161 0.0424,0.0262 0.077,0.007 0.077,-0.0416 0,-0.0491 0.0474,-0.0899 0.10528,-0.0908 0.11399,-0.002 1.15806,-1.02427 1.15806,-1.13419 0,-0.0368 0.0572,-0.10895 0.127,-0.16038 0.14878,-0.10953 0.1787,-1.03908 0.0423,-1.31473 -0.0115,-0.0232 -0.015,-0.0745 -0.008,-0.11414 0.007,-0.0396 -0.0309,-0.1249 -0.0846,-0.1895 -0.0536,-0.0646 -0.0693,-0.11747 -0.0347,-0.11747 0.0345,0 0.0155,-0.0568 -0.0421,-0.12633 -0.0577,-0.0695 -0.0799,-0.12634 -0.0495,-0.12634 0.0305,0 0.008,-0.0853 -0.0497,-0.1895 -0.0578,-0.10422 -0.097,-0.21792 -0.0872,-0.25267 0.01,-0.0347 -0.02,-0.0632 -0.0663,-0.0632 -0.0463,0 -0.0752,-0.0284 -0.0642,-0.0632 0.0306,-0.0964 -0.20002,-0.61061 -0.27378,-0.61061 -0.0357,0 -0.0886,-0.0948 -0.11772,-0.21056 -0.0291,-0.1158 -0.0923,-0.21055 -0.14043,-0.21055 -0.0482,0 -0.0671,-0.0331 -0.0421,-0.0736 0.025,-0.0405 -0.0485,-0.1751 -0.16347,-0.29912 -0.11494,-0.12402 -0.20898,-0.25828 -0.20898,-0.29835 0,-0.0401 -0.0474,-0.0901 -0.10528,-0.11117 -0.15382,-0.056 0.038,-0.35063 0.24073,-0.36981 0.0876,-0.008 0.25408,-0.0397 0.36989,-0.0698 0.20998,-0.0546 0.36848,-0.0851 0.92644,-0.17866 0.71702,-0.12017 3.40617,-0.0566 3.95845,0.0935 0.11581,0.0315 0.26741,0.0594 0.33689,0.062 0.0695,0.003 0.17463,0.0429 0.23365,0.0895 0.059,0.0466 0.13133,0.0607 0.1607,0.0314 0.0294,-0.0294 0.10424,-0.0112 0.1664,0.0404 0.0622,0.0516 0.11303,0.0656 0.11303,0.0311 0,-0.0345 0.0568,-0.0156 0.12634,0.0421 0.0695,0.0577 0.12633,0.0766 0.12633,0.0421 0,-0.0345 0.0568,-0.0156 0.12633,0.0421 0.0695,0.0577 0.12634,0.0766 0.12634,0.0421 0,-0.0345 0.0569,-0.0156 0.12633,0.0421 0.0695,0.0577 0.12633,0.0794 0.12633,0.0483 0,-0.0311 0.24021,0.0778 0.5338,0.24197 0.29358,0.16419 0.55888,0.27343 0.58955,0.24276 0.0307,-0.0307 0.0558,-0.009 0.0558,0.0475 0,0.0568 0.0379,0.0798 0.0842,0.0512 0.0463,-0.0286 0.0842,-0.0171 0.0842,0.0256 0,0.0427 0.22612,0.17917 0.5025,0.3032 0.27637,0.12403 0.52534,0.26247 0.55326,0.30765 0.0279,0.0452 0.0821,0.0628 0.12035,0.0392 0.0383,-0.0237 0.0922,0.016 0.11992,0.0882 0.0277,0.0722 0.0845,0.11006 0.12633,0.0842 0.0418,-0.0258 0.0987,0.0121 0.12633,0.0842 0.0277,0.0722 0.0845,0.11005 0.12634,0.0842 0.0418,-0.0258 0.0986,0.0121 0.12633,0.0842 0.0277,0.0722 0.0845,0.11006 0.12633,0.0842 0.0418,-0.0258 0.0977,0.01 0.12429,0.0789 0.0266,0.0692 0.0972,0.12585 0.15701,0.12585 0.0598,0 0.15606,0.0758 0.21391,0.16844 0.0579,0.0926 0.14856,0.16845 0.20156,0.16845 0.053,0 0.31732,0.22651 0.58738,0.50336 0.52218,0.53532 0.52581,0.53693 1.51781,0.67765 2.51977,0.35742 4.51031,1.35716 5.6195,2.82236 0.43141,0.56989 1.23763,2.0404 1.16078,2.11725 -0.0238,0.0238 -0.46663,-0.003 -0.98401,-0.0606 -1.13636,-0.12549 -2.38704,-0.0646 -3.07224,0.14949 -0.53996,0.16874 -0.56624,0.2173 -0.42276,0.78091 0.0295,0.1158 0.0674,0.2674 0.0844,0.33688 0.0169,0.0695 0.0368,0.12634 0.0442,0.12634 0.007,0 0.0278,0.0758 0.0453,0.16844 0.0175,0.0926 0.0522,0.2632 0.077,0.379 0.13448,0.62783 0.14871,0.7231 0.25796,1.72656 0.0674,0.6188 0.0722,2.7237 0.008,3.24256 -0.0937,0.7507 -0.23562,1.52078 -0.31052,1.68445 -0.0106,0.0232 -0.0281,0.08 -0.0388,0.12633 -0.0108,0.0463 -0.0268,0.10318 -0.0357,0.12634 -0.009,0.0232 -0.0293,0.11139 -0.0453,0.19607 -0.016,0.0847 -0.0573,0.21734 -0.0916,0.29478 -0.0343,0.0774 -0.0704,0.16924 -0.0802,0.20398 -0.01,0.0347 -0.0273,0.0821 -0.0389,0.10528 -0.0116,0.0232 -0.0291,0.0705 -0.0389,0.10528 -0.10555,0.37453 -0.72361,1.63573 -0.84548,1.72527 -0.0463,0.034 -0.0531,0.0625 -0.015,0.0632 0.038,6.8e-4 0.01,0.0609 -0.0632,0.13364 -0.0728,0.0728 -0.13235,0.18649 -0.13235,0.25267 0,0.0662 -0.0379,0.12032 -0.0842,0.12032 -0.0463,0 -0.0842,0.0528 -0.0842,0.11732 0,0.0645 -0.0572,0.13927 -0.12711,0.1661 -0.0699,0.0268 -0.11729,0.0831 -0.10528,0.12503 0.048,0.16747 -1.18831,1.56248 -2.02645,2.28666 -0.49154,0.42471 -0.54647,0.46556 -0.71,0.528 -0.0811,0.031 -0.14739,0.0954 -0.14739,0.14314 0,0.0478 -0.0419,0.0869 -0.0931,0.0869 -0.0512,0 -0.20572,0.0947 -0.34335,0.21056 -0.13762,0.11581 -0.30417,0.21056 -0.3701,0.21056 -0.0659,0 -0.11987,0.0338 -0.11987,0.0751 0,0.0413 -0.0948,0.0989 -0.21056,0.12794 -0.1158,0.0291 -0.21055,0.0923 -0.21055,0.14043 0,0.0482 -0.0379,0.0642 -0.0842,0.0355 -0.0463,-0.0286 -0.0842,-0.006 -0.0842,0.0512 0,0.0568 -0.0236,0.0797 -0.0524,0.0509 -0.0288,-0.0288 -0.24673,0.0479 -0.48428,0.17036 -0.23755,0.1225 -0.50109,0.2347 -0.58566,0.24933 -0.0846,0.0146 -0.23616,0.0724 -0.33689,0.12846 -0.10072,0.056 -0.21156,0.10793 -0.2463,0.11536 -0.0347,0.007 -0.0821,0.023 -0.10528,0.0346 -0.0232,0.0116 -0.08,0.0305 -0.12633,0.0421 -0.0463,0.0116 -0.0937,0.0287 -0.10528,0.038 -0.0116,0.009 -0.0779,0.0308 -0.14739,0.0477 -0.0695,0.0169 -0.22108,0.0541 -0.33689,0.0827 -0.1158,0.0286 -0.26741,0.0658 -0.33689,0.0827 -0.0695,0.0169 -0.12633,0.0385 -0.12633,0.0479 0,0.019 -0.19308,0.0575 -0.61061,0.12191 -0.15055,0.0232 -0.3969,0.063 -0.54745,0.0884 -0.15055,0.0254 -0.46322,0.0569 -0.69483,0.07 -0.66959,0.0379 -1.14518,0.14406 -1.19198,0.26601 -0.12709,0.33118 -1.66872,1.89186 -1.86877,1.89186 -0.0491,0 -0.12786,0.0663 -0.17507,0.14739 -0.0472,0.0811 -0.087,0.11638 -0.0884,0.0785 -10e-4,-0.0379 -0.10678,0.003 -0.23417,0.0903 -0.37785,0.25978 -1.20017,0.70017 -1.20017,0.64276 0,-0.0292 -0.0568,-0.006 -0.12633,0.0517 -0.0695,0.0577 -0.12634,0.0766 -0.12634,0.0421 0,-0.0345 -0.0474,-0.0254 -0.10527,0.0203 -0.0579,0.0457 -0.16213,0.087 -0.23162,0.0917 -0.0695,0.005 -0.25898,0.0313 -0.42111,0.0589 -0.78322,0.13353 -1.87414,0.19305 -2.75769,0.15046 l 0,0 z m 20.36768,-22.1725 c 0.29696,-0.0482 0.85261,-0.0879 1.23477,-0.0882 0.38215,-3.6e-4 0.69481,-0.0291 0.69478,-0.0638 -3e-5,-0.0347 -0.17225,-0.28251 -0.38271,-0.55059 -0.48955,-0.6236 -1.32799,-1.24005 -2.19478,-1.61368 -1.05176,-0.45336 -3.19805,-0.91063 -2.5365,-0.5404 0.0817,0.0457 0.12648,0.11865 0.0996,0.16212 -0.0269,0.0435 -0.009,0.079 0.0403,0.079 0.0491,0 0.0892,0.0568 0.0892,0.12633 0,0.0695 0.0379,0.12634 0.0842,0.12634 0.0463,0 0.0842,0.0568 0.0842,0.12633 0,0.0695 0.0379,0.12633 0.0842,0.12633 0.0463,0 0.0842,0.0569 0.0842,0.12634 0,0.0695 0.0309,0.12633 0.0687,0.12633 0.0378,0 0.15512,0.20845 0.26072,0.46322 0.10559,0.25478 0.2285,0.46323 0.27313,0.46323 0.0446,0 0.0577,0.0379 0.0291,0.0842 -0.0286,0.0463 -0.006,0.0842 0.0512,0.0842 0.0568,0 0.0785,0.0248 0.0482,0.055 -0.0303,0.0303 0.0233,0.18187 0.11916,0.33689 0.0958,0.15502 0.15118,0.28186 0.12306,0.28186 -0.0281,0 0.006,0.11098 0.0764,0.24663 l 0.12754,0.24663 0.45064,-0.15839 c 0.24785,-0.0871 0.69361,-0.19781 0.99057,-0.24599 l 0,0 z m -10.15559,-2.09884 c 0.43532,-0.19777 0.85998,-0.68406 0.93183,-1.06709 0.22299,-1.18862 -0.47433,-2.14474 -1.56422,-2.14474 -0.90764,0 -1.52427,0.60461 -1.58471,1.55382 -0.0258,0.40593 0.005,0.59762 0.13582,0.85346 0.42704,0.83293 1.28702,1.16537 2.08128,0.80455 z"
                     style="fill:#f79933;fill-opacity:1;stroke:#f79933;stroke-width:0.00884335;stroke-miterlimit:4;stroke-opacity:1;stroke-dasharray:none" />
                </g>
                <path
                   style="fill:#f79933;fill-opacity:1;stroke:#f79933;stroke-width:0.193;stroke-miterlimit:4;stroke-opacity:1;stroke-dasharray:none"
                   d="m 387.92702,531.02347 c -11.5041,-1.36889 -22.73818,-8.12451 -29.25848,-17.59459 l -1.89246,-2.74861 -0.12341,-32.2962 -0.1234,-32.2962 2.29939,0 2.29939,0 0,31.74787 0,31.74788 1.13676,1.6729 c 3.17132,4.66702 8.67323,9.2317 14.43871,11.97913 6.10119,2.90741 8.81998,3.47946 16.49167,3.46998 5.61153,-0.007 7.16512,0.009 10.26113,-0.9002 8.14569,-2.39307 14.8092,-7.10351 19.78091,-13.68172 l 2.02511,-2.67948 0,-31.67818 0,-31.67818 2.29051,0 2.29051,0 0,31.91424 0,31.91425 -2.27974,3.40849 c -6.55364,9.79851 -17.59159,16.33236 -29.91186,17.70615 -4.86457,0.54243 -5.10448,0.54225 -9.72474,-0.008 l 0,4.7e-4 z"
                   id="path3922"
                   sodipodi:nodetypes="ccccccccccssscccccccccscc" />
                <rect
                   style="fill:#f79933;fill-opacity:1;stroke:#f79933;stroke-width:0.18289274;stroke-miterlimit:4;stroke-opacity:1;stroke-dasharray:none"
                   id="rect3899"
                   width="23.072418"
                   height="4.8511171"
                   x="361.18033"
                   y="440.75626" />
                <rect
                   y="440.75244"
                   x="403.17651"
                   height="4.7442479"
                   width="21.658306"
                   id="rect3901"
                   style="fill:#f79933;fill-opacity:1;stroke:#f79933;stroke-width:0.17523664;stroke-miterlimit:4;stroke-opacity:1;stroke-dasharray:none" />
                <rect
                   style="fill:#ffffff;fill-opacity:1;stroke:#ffffff;stroke-width:0.13755199;stroke-miterlimit:4;stroke-opacity:1;stroke-dasharray:none"
                   id="rect3907"
                   width="7.9794111"
                   height="7.9342313"
                   x="353.1684"
                   y="437.6369" />
                <rect
                   y="440.71732"
                   x="356.16861"
                   height="4.9170356"
                   width="5.0203643"
                   id="rect3905"
                   style="fill:#3f486e;fill-opacity:1;stroke:#3f486e;stroke-width:0.08589114;stroke-miterlimit:4;stroke-opacity:1;stroke-dasharray:none" />
                <rect
                   y="437.63696"
                   x="425.03015"
                   height="7.9344459"
                   width="7.9794459"
                   id="rect3909"
                   style="fill:#ffffff;fill-opacity:1;stroke:#ffffff;stroke-width:0.13755415;stroke-miterlimit:4;stroke-opacity:1;stroke-dasharray:none" />
                <rect
                   style="fill:#3f486e;fill-opacity:1;stroke:#3f486e;stroke-width:0.08562306;stroke-miterlimit:4;stroke-opacity:1;stroke-dasharray:none"
                   id="rect3903"
                   width="5.0206294"
                   height="4.8861327"
                   x="424.95886"
                   y="440.74854" />
                <rect
                   style="fill:#f79933;fill-opacity:1;stroke:#f79933;stroke-width:0.23451123;stroke-miterlimit:4;stroke-opacity:1;stroke-dasharray:none"
                   id="rect3924"
                   width="66.8414"
                   height="2.7071013"
                   x="360.08902"
                   y="480.67148" />
                <rect
                   y="480.66721"
                   x="392.15189"
                   height="46.235401"
                   width="3.6319077"
                   id="rect3926"
                   style="fill:#f79933;fill-opacity:1;stroke:#f79933;stroke-width:0.22591408;stroke-miterlimit:4;stroke-opacity:1;stroke-dasharray:none" />
                <path
                   style="fill:#ffffff;stroke:#ffffff;stroke-width:0.20696236;stroke-linecap:butt;stroke-linejoin:miter;stroke-miterlimit:4;stroke-opacity:1;stroke-dasharray:none"
                   d="m 385.58876,526.18558 15.78398,0.0923 -7.60606,8.27516 -8.17792,-8.36744 0,-5e-5 0,3e-5 z"
                   id="path3928"
                   sodipodi:nodetypes="cccccc" />
              </g>
              <path
                 id="path3994"
                 d="m 369.19947,388.68333 c -0.24175,-0.20159 -0.2401,-0.20593 2.50891,-6.56114 l 2.75082,-6.35942 0.91891,-0.21131 c 1.07195,-0.2465 4.39941,-0.31435 7.58536,-0.15466 l 1.9258,0.0965 0.14843,-1.0487 0.14843,-1.0487 3.29551,-0.0306 3.29552,-0.0306 4.19503,-5.43441 c 2.30726,-2.98892 4.41904,-5.72058 4.69283,-6.07035 1.53638,-1.9627 4.48714,-1.97304 9.22127,-0.0323 1.41471,0.57995 5.05843,2.42528 8.26017,4.18329 1.52238,0.83591 2.7856,1.53748 2.80716,1.55904 0.0216,0.0216 -0.0143,0.18 -0.0797,0.35207 -0.0848,0.22296 -0.17707,0.29459 -0.32121,0.24926 -0.78872,-0.24806 -10.53086,-2.57888 -12.1117,-2.89775 -2.26399,-0.45666 -4.14818,-0.61733 -4.88532,-0.41657 -0.31497,0.0858 -1.10414,0.59462 -2.19689,1.4165 l -1.70535,1.28264 -0.5889,1.57516 c -0.66812,1.78701 -2.00601,4.62061 -2.96295,6.27542 l -0.64592,1.11696 1.26235,1.70448 c 0.69429,0.93747 1.24585,1.72098 1.22568,1.74115 -0.0202,0.0202 -1.33475,-0.36494 -2.9213,-0.85581 l -2.88463,-0.89248 -6.35941,0.15444 -6.35942,0.15443 -0.6321,0.4237 c -1.05083,0.70435 -3.5073,3.25047 -6.39644,6.62985 -1.50463,1.75994 -2.78368,3.22956 -2.84234,3.26581 -0.0587,0.0362 -0.21551,-0.0249 -0.34856,-0.13581 l 0,0 z m 48.77865,-21.96827 c -0.005,-0.22835 -6.82109,-3.68516 -8.80566,-4.46594 -2.23133,-0.87786 -3.40659,-1.15337 -4.96001,-1.16274 -1.26743,-0.008 -1.37337,0.0102 -2.01223,0.3388 -0.3709,0.19079 -0.76903,0.47696 -0.88474,0.63595 -0.24765,0.34026 -1.39265,4.41908 -1.2091,4.30716 0.0688,-0.042 0.61946,-0.46356 1.22361,-0.93686 1.61952,-1.26876 1.83898,-1.35023 3.5844,-1.33062 1.72798,0.0194 4.08871,0.47309 9.4813,1.82206 3.88482,0.97179 3.58501,0.90549 3.58243,0.79219 z"
                 style="fill:#f79933;fill-opacity:1;stroke:#3f486e;stroke-width:0.09;stroke-miterlimit:4;stroke-opacity:1;stroke-dasharray:none" />
              <path
                 style="fill:#f79933;fill-opacity:1;stroke:#3f486e;stroke-width:0.07358315;stroke-miterlimit:4;stroke-opacity:1;stroke-dasharray:none"
                 d="m 365.10642,417.6891 c -0.19765,-0.16482 -0.1963,-0.16836 2.05127,-5.36432 l 2.24904,-5.1994 0.75129,-0.17277 c 0.87642,-0.20154 3.59692,-0.25701 6.20172,-0.12645 l 1.57452,0.0789 0.12135,-0.85741 0.12136,-0.8574 2.69437,-0.025 2.69439,-0.025 3.42981,-4.44312 c 1.8864,-2.44372 3.61297,-4.67709 3.83682,-4.96306 1.25613,-1.60469 3.66864,-1.61314 7.53922,-0.0264 1.15665,0.47416 4.13572,1.98288 6.75344,3.42022 1.24468,0.68343 2.27748,1.25703 2.2951,1.27465 0.0177,0.0177 -0.0117,0.14717 -0.0652,0.28785 -0.0693,0.18229 -0.14477,0.24086 -0.26262,0.20379 -0.64485,-0.20281 -8.60993,-2.10846 -9.90241,-2.36917 -1.85101,-0.37336 -3.39151,-0.50472 -3.99419,-0.34058 -0.25751,0.0702 -0.90273,0.48615 -1.79615,1.15812 l -1.39428,1.04867 -0.48148,1.28784 c -0.54625,1.46104 -1.6401,3.77776 -2.42248,5.13072 l -0.5281,0.91321 1.03209,1.39357 c 0.56764,0.76647 1.01859,1.40706 1.0021,1.42355 -0.0165,0.0165 -1.09128,-0.29837 -2.38843,-0.6997 l -2.35844,-0.72969 -5.1994,0.12627 -5.1994,0.12626 -0.5168,0.34642 c -0.85914,0.57587 -2.86753,2.65755 -5.22966,5.4205 -1.23017,1.43891 -2.27591,2.64046 -2.32387,2.67009 -0.048,0.0296 -0.1762,-0.0204 -0.28498,-0.11103 l 0,0 z m 39.88096,-17.96105 c -0.004,-0.18669 -5.57685,-3.01295 -7.19942,-3.65131 -1.82431,-0.71773 -2.7852,-0.94298 -4.05526,-0.95064 -1.03624,-0.007 -1.12285,0.008 -1.64518,0.277 -0.30324,0.15599 -0.62875,0.38996 -0.72335,0.51995 -0.20248,0.27819 -1.13862,3.61299 -0.98855,3.52149 0.0563,-0.0343 0.50646,-0.379 1.00041,-0.76597 1.32411,-1.03733 1.50353,-1.10393 2.93057,-1.0879 1.41278,0.0159 3.34289,0.38679 7.75182,1.4897 3.17619,0.79452 2.93107,0.74032 2.92896,0.64768 z"
                 id="path3996" />
              <path
                 id="path3998"
                 d="m 403.41652,423.15306 c -0.14825,-0.12363 -0.14724,-0.12628 1.53857,-4.02356 l 1.68692,-3.89986 0.56351,-0.12959 c 0.65736,-0.15116 2.6979,-0.19277 4.65165,-0.0948 l 1.18099,0.0592 0.091,-0.64311 0.091,-0.6431 2.02094,-0.0188 2.02095,-0.0188 2.57256,-3.33261 c 1.41491,-1.83293 2.70994,-3.50809 2.87784,-3.72258 0.94218,-1.20362 2.7517,-1.20995 5.65486,-0.0198 0.86756,0.35565 3.10204,1.48728 5.06548,2.56537 0.93359,0.51261 1.70825,0.94285 1.72146,0.95606 0.0133,0.0133 -0.009,0.11039 -0.0489,0.21591 -0.052,0.13673 -0.10859,0.18066 -0.19698,0.15285 -0.48368,-0.15212 -6.45796,-1.58147 -7.42739,-1.77701 -1.38837,-0.28005 -2.54384,-0.37857 -2.99588,-0.25546 -0.19315,0.0527 -0.6771,0.36464 -1.34722,0.86866 l -1.04579,0.78656 -0.36114,0.96596 c -0.40972,1.09587 -1.23017,2.83354 -1.817,3.84834 l -0.39611,0.68496 0.77413,1.04526 c 0.42576,0.5749 0.764,1.05538 0.75163,1.06775 -0.0124,0.0124 -0.81852,-0.22379 -1.79146,-0.52482 l -1.76897,-0.54731 -3.89986,0.0947 -3.89985,0.0947 -0.38763,0.25983 c -0.64441,0.43194 -2.15082,1.99332 -3.92256,4.0657 -0.9227,1.07926 -1.70707,1.9805 -1.74304,2.00272 -0.036,0.0222 -0.13216,-0.0153 -0.21375,-0.0833 l 0,0 z m 29.91307,-13.47185 c -0.003,-0.14003 -4.18296,-2.25989 -5.39999,-2.7387 -1.36834,-0.53834 -2.08906,-0.70729 -3.04168,-0.71304 -0.77724,-0.005 -0.8422,0.006 -1.23398,0.20777 -0.22745,0.117 -0.4716,0.29249 -0.54256,0.38999 -0.15187,0.20866 -0.85403,2.70996 -0.74147,2.64133 0.0422,-0.0257 0.37988,-0.28427 0.75037,-0.57452 0.99316,-0.77806 1.12773,-0.82802 2.1981,-0.81599 1.05967,0.0119 2.50736,0.29011 5.81432,1.11736 2.38233,0.59594 2.19848,0.55528 2.19689,0.4858 z"
                 style="fill:#f79933;fill-opacity:1;stroke:#3f486e;stroke-width:0.05519171;stroke-miterlimit:4;stroke-opacity:1;stroke-dasharray:none" />
            </g>
            <g
               id="g4080"
               style="fill:#ffffff">
              <path
                 id="path4064"
                 d="m 374.44683,590.63042 c -0.44577,-0.036 -1.39582,-0.0458 -2.11122,-0.0217 -0.94656,0.0318 -1.31507,0.0206 -1.35339,-0.0414 -0.0844,-0.13657 0.11724,-0.26275 0.57628,-0.36059 0.49528,-0.10556 0.86803,-0.42274 1.09209,-0.92925 0.21076,-0.47645 2.36141,-9.28713 2.40429,-9.84977 0.0438,-0.57498 -0.0479,-0.85999 -0.36189,-1.12417 -0.11751,-0.0989 -0.33702,-0.19923 -0.48779,-0.22301 -0.15078,-0.0238 -0.38189,-0.0598 -0.5136,-0.0799 -0.17303,-0.0265 -0.23946,-0.0755 -0.23946,-0.17639 0,-0.0768 0.0269,-0.15631 0.0598,-0.17663 0.0329,-0.0203 0.46699,-0.0723 0.96466,-0.11553 0.49768,-0.0432 1.0593,-0.11636 1.24805,-0.16255 0.37854,-0.0926 1.00644,-0.38518 1.07911,-0.50275 0.0255,-0.0413 0.0987,-0.0751 0.16259,-0.0751 0.0953,0 0.10802,0.0595 0.0709,0.33043 -0.0249,0.18174 -0.66089,2.84254 -1.4133,5.91288 -0.75241,3.07034 -1.38527,5.78138 -1.40637,6.02452 -0.0316,0.36442 -0.0113,0.48491 0.1154,0.68583 0.15728,0.24934 0.6467,0.52535 0.93675,0.52829 0.25471,0.003 0.39285,0.0809 0.39285,0.22266 0,0.13025 -0.15283,0.23098 -0.31917,0.21038 -0.0473,-0.006 -0.45079,-0.0401 -0.89656,-0.0762 z"
                 style="fill:#ffffff;fill-opacity:1;stroke:#3f486e;stroke-width:0.00663126;stroke-miterlimit:4;stroke-opacity:1;stroke-dasharray:none" />
              <path
                 id="path4066"
                 d="m 382.55171,590.90814 c -1.3132,-0.32539 -2.17358,-1.52782 -2.17358,-3.03769 0,-1.53314 0.90276,-2.68697 2.87354,-3.67271 0.30394,-0.15202 0.56606,-0.28872 0.58249,-0.30379 0.0164,-0.0151 -0.13348,-0.20182 -0.33315,-0.41502 -1.59508,-1.7032 -1.58086,-3.76463 0.037,-5.36259 0.8573,-0.84677 1.61986,-1.17739 2.71555,-1.17739 1.94991,0 3.27345,1.65996 2.86546,3.59382 -0.24098,1.14219 -0.96434,1.99401 -2.19204,2.5813 -0.39737,0.19009 -0.72234,0.3622 -0.72215,0.38246 2e-4,0.0203 0.16661,0.16508 0.3698,0.32182 0.49173,0.37931 1.06265,1.20524 1.25089,1.8096 0.18404,0.59088 0.19976,1.61109 0.0344,2.2354 -0.30729,1.16041 -1.13938,2.17911 -2.21364,2.71005 -0.8007,0.39574 -2.22615,0.54993 -3.09459,0.33474 l 0,0 z m 1.62586,-0.41835 c 1.55794,-0.28539 2.73447,-1.90968 2.47016,-3.41022 -0.1102,-0.62563 -0.38469,-1.14244 -0.87516,-1.64776 -0.49147,-0.50634 -1.38737,-1.19847 -1.55133,-1.19847 -0.24461,0 -1.18146,0.6418 -1.71194,1.17279 -0.87931,0.88014 -1.22494,1.73928 -1.15752,2.87721 0.0706,1.19094 0.78015,2.02507 1.88011,2.2101 0.49956,0.084 0.4663,0.0842 0.94568,-0.004 l 0,0 z m 2.09677,-7.5519 c 1.38424,-0.72739 2.12844,-1.94425 2.04546,-3.3446 -0.0537,-0.90583 -0.43941,-1.57113 -1.12621,-1.94241 -0.2512,-0.1358 -0.41442,-0.15933 -1.10521,-0.15933 -0.73607,0 -0.84855,0.0187 -1.22504,0.20367 -0.48894,0.2402 -1.04182,0.80353 -1.26684,1.29078 -0.12934,0.28007 -0.16046,0.4835 -0.16022,1.04754 2.7e-4,0.61671 0.0237,0.74378 0.19676,1.06837 0.10805,0.20262 0.4063,0.57221 0.66277,0.8213 0.44324,0.43049 1.39464,1.26684 1.45023,1.27484 0.0143,0.002 0.25207,-0.115 0.5283,-0.26016 l 0,0 z"
                 style="fill:#ffffff;fill-opacity:1;stroke:#3f486e;stroke-width:0.00663126;stroke-miterlimit:4;stroke-opacity:1;stroke-dasharray:none" />
              <path
                 id="path4068"
                 d="m 392.53723,590.82016 c -0.55561,-0.1493 -0.95012,-0.39639 -1.37349,-0.86021 -0.90712,-0.9938 -1.19188,-2.50728 -0.57492,-3.05569 0.2377,-0.21129 0.74936,-0.2271 0.99195,-0.0307 0.22564,0.18271 0.2781,0.79886 0.1156,1.35783 -0.15401,0.52977 -0.14804,0.9048 0.0202,1.27008 0.37707,0.8186 1.21636,1.16804 2.15207,0.89602 0.86954,-0.25278 1.48295,-0.86296 2.12294,-2.11175 0.61888,-1.20761 0.93765,-2.2449 1.03143,-3.35632 0.10375,-1.22973 -0.0764,-1.89508 -0.65471,-2.41751 -0.37633,-0.34 -0.56981,-0.41579 -1.05623,-0.41376 -0.7666,0.003 -1.54829,0.59496 -2.11174,1.59867 -0.17702,0.31532 -0.40307,0.68415 -0.50234,0.81961 -0.1577,0.2152 -0.19398,0.2328 -0.28737,0.1394 -0.0934,-0.0934 0.0463,-0.58317 1.10704,-3.88022 0.66767,-2.07533 1.22662,-3.78602 1.24213,-3.80153 0.0155,-0.0155 0.29226,0.0435 0.61499,0.13101 0.44363,0.12037 0.80252,0.15997 1.47096,0.1623 0.82142,0.003 0.91665,-0.0119 1.34185,-0.20833 0.44629,-0.20616 1.06908,-0.76761 1.37965,-1.24378 0.18224,-0.27941 0.33625,-0.26254 0.33625,0.0368 -10e-6,0.3367 -0.61495,1.40017 -1.07931,1.86654 -0.20865,0.20954 -0.56151,0.47011 -0.78414,0.57903 -0.7065,0.34566 -1.96803,0.48887 -2.99947,0.3405 -0.27634,-0.0397 -0.42225,-0.0322 -0.45869,0.0238 -0.099,0.15208 -1.25102,3.72102 -1.22494,3.7949 0.0142,0.0402 0.21601,-0.055 0.44848,-0.21161 0.80763,-0.5441 1.73571,-0.73995 2.47551,-0.52241 0.93469,0.27485 1.72976,1.22552 2.05064,2.45197 0.17126,0.65458 0.15325,1.91591 -0.0378,2.64416 -0.53552,2.04189 -1.91087,3.58052 -3.58188,4.00713 -0.54978,0.14036 -1.64129,0.13734 -2.17473,-0.006 l 0,0 z"
                 style="fill:#ffffff;fill-opacity:1;stroke:#3f486e;stroke-width:0.00663126;stroke-miterlimit:4;stroke-opacity:1;stroke-dasharray:none" />
              <path
                 id="path4070"
                 d="m 402.94429,590.93909 c -0.75331,-0.16026 -1.28633,-0.52611 -1.69324,-1.16221 -0.81578,-1.27527 -0.74659,-2.79251 0.18304,-4.01387 0.37594,-0.49391 1.05718,-1.0033 1.95342,-1.46064 0.41395,-0.21124 0.76557,-0.39519 0.78136,-0.40877 0.0158,-0.0136 -0.17514,-0.24264 -0.42431,-0.509 -1.50226,-1.60592 -1.47626,-3.70493 0.0652,-5.26799 0.82651,-0.83806 1.81864,-1.22515 2.97988,-1.16262 1.09498,0.059 1.98949,0.66371 2.45685,1.661 0.17964,0.38332 0.19863,0.50489 0.19863,1.27119 0,0.79951 -0.0132,0.87526 -0.23455,1.34246 -0.12901,0.27232 -0.32795,0.6143 -0.44209,0.75994 -0.30106,0.38418 -1.00923,0.90092 -1.6443,1.19983 -0.30393,0.14305 -0.56165,0.26613 -0.5727,0.2735 -0.011,0.007 0.24134,0.27514 0.56087,0.59504 0.32489,0.32526 0.6669,0.75159 0.77594,0.96722 0.57936,1.14576 0.54973,2.52576 -0.0799,3.72404 -0.74955,1.42639 -2.01469,2.18136 -3.74192,2.23296 -0.44577,0.0133 -0.95075,-0.006 -1.12218,-0.0421 z m 1.51725,-0.44639 c 0.92447,-0.15 1.75327,-0.78042 2.23198,-1.69773 0.23598,-0.4522 0.2465,-0.50694 0.2465,-1.28284 0,-0.75047 -0.0157,-0.84034 -0.21209,-1.21355 -0.11665,-0.22169 -0.41455,-0.6139 -0.662,-0.87159 -0.47867,-0.49849 -1.36533,-1.19365 -1.52246,-1.19365 -0.15743,0 -0.9688,0.48785 -1.37205,0.82497 -0.54807,0.45817 -0.89637,0.90441 -1.19573,1.53195 -0.23396,0.49046 -0.26639,0.63112 -0.2919,1.26617 -0.0371,0.92442 0.10283,1.40042 0.5619,1.91102 0.38509,0.42831 0.6387,0.57698 1.1945,0.70022 0.51899,0.11508 0.47331,0.11396 1.02135,0.025 l 0,0 z m 2.07537,-7.51901 c 0.5923,-0.3157 1.22953,-0.84742 1.51568,-1.26471 0.41951,-0.61179 0.56561,-1.10366 0.57424,-1.93333 0.007,-0.6669 -0.012,-0.77682 -0.19936,-1.15857 -0.41478,-0.84503 -1.09227,-1.20215 -2.17713,-1.14761 -0.77681,0.039 -1.18393,0.20499 -1.70988,0.69696 -0.54086,0.50591 -0.74924,0.95236 -0.79007,1.6927 -0.0592,1.07297 0.21432,1.5516 1.53149,2.68011 0.42533,0.36441 0.78541,0.66257 0.80018,0.66257 0.0148,0 0.21945,-0.10266 0.45485,-0.22812 z"
                 style="fill:#ffffff;fill-opacity:1;stroke:#3f486e;stroke-width:0.00663126;stroke-miterlimit:4;stroke-opacity:1;stroke-dasharray:none" />
            </g>
          </g>
          <path
             sodipodi:nodetypes="csscccssssssssssssssssssssssssssssssssssssssssssccssssssssssssssccccccccc"
             id="path4181"
             d="m 431.11069,572.10257 c -5.34636,-2.9433 -13.43317,-5.84997 -18.96307,-7.65188 -7.63218,-2.48694 -13.78616,-3.74954 -21.59938,-3.96629 -13.35232,-0.37042 -22.23443,3.88434 -36.88307,11.39892 l -2.19295,1.24733 -0.48385,-1.33502 c -1.00253,-2.76614 -3.36753,-5.46365 -6.82957,-7.78981 -2.92334,-1.9642 -8.43841,-4.90722 -10.07054,-5.37397 -3.64381,-1.04204 -6.68506,-3.12594 -7.94108,-5.44135 -2.88336,-5.31529 0.70968,-11.71575 7.36902,-13.12685 3.86767,-0.81955 10.57712,-0.0791 13.69461,1.51132 2.1206,1.08185 3.65081,3.59413 3.38703,5.56078 -0.28922,2.15626 -2.17829,4.04923 -4.69511,4.70478 -1.5239,0.39692 -4.53364,0.44323 -7.62647,0.11734 -3.91179,-0.41218 -5.42993,-1.59883 -5.46861,-4.27451 -0.0222,-1.53763 0.61095,-2.42302 2.33848,-3.26995 2.51129,-1.23116 6.34417,-0.73152 9.23331,1.20362 0.0347,0.0233 0.12242,-0.15924 0.0548,0.0176 -0.0887,0.2305 -0.67967,0.66846 -1.79441,0.67003 -2.68376,0.004 -4.67154,1.12855 -4.67154,2.64331 0,0.68512 0.60247,1.33823 1.84669,2.00192 1.24025,0.66158 5.22392,0.5929 6.83696,-0.11787 1.39339,-0.61399 2.46044,-1.64636 2.97384,-2.87721 0.92129,-2.20875 -0.79138,-5.0457 -3.70729,-6.14093 -3.11758,-1.17097 -8.84236,-1.69172 -11.91665,-1.08399 -3.41657,0.6754 -5.94052,2.38983 -7.22911,4.91045 -0.63297,1.23818 -0.6925,1.55307 -0.6925,3.66299 0,2.12761 0.0536,2.40523 0.68515,3.54537 1.1705,2.11327 3.45115,3.74155 6.7016,4.78465 2.01184,0.64561 2.65506,0.64303 6.92509,-0.0278 3.80748,-0.59818 6.24074,-1.52579 9.29363,-3.54291 10.30381,-6.80802 19.88208,-9.9815 30.87186,-11.64876 4.50937,-0.68411 14.38452,-0.63705 18.89451,-0.13639 12.27743,1.36287 21.18037,4.45348 33.58759,11.49648 1.73218,0.98328 3.57586,1.9569 4.09708,2.16362 1.8258,0.72409 4.65105,1.09879 8.28492,1.09879 3.41358,0 3.56558,-0.0206 4.76353,-0.64644 4.65882,-2.43379 2.04567,-10.46071 -3.13712,-9.63644 -0.51318,0.0816 -2.2315,0.70427 -3.8185,1.38368 -5.40369,2.31338 -8.19103,2.84918 -11.03158,2.12056 -4.43328,-1.13716 -6.90109,-3.58018 -7.15147,-7.07962 -0.0941,-1.31548 -0.0226,-1.74802 0.46492,-2.81298 0.70229,-1.534 1.87138,-2.74108 3.47172,-3.58452 1.15312,-0.60775 1.34608,-0.63466 4.55129,-0.63478 2.81537,-1.1e-4 3.60604,0.0813 4.97684,0.51258 3.19024,1.00365 4.62125,2.67504 4.43967,5.18546 -0.12315,1.70251 -0.62724,2.40179 -2.38208,3.30444 -1.18965,0.61193 -1.5765,0.69219 -3.32473,0.68974 -2.22773,-0.003 -3.53956,-0.50569 -4.34746,-1.66556 -0.61948,-0.80842 -0.80076,-1.85815 -0.9213,-2.7147 0.46438,0.2522 1.01536,0.51374 1.22552,0.59475 0.34552,0.13318 1.63237,0.25332 2.47619,-0.10622 1.27273,-0.54231 1.89699,-1.41614 1.89699,-2.65541 0,-1.66706 -0.51209,-2.26714 -2.10448,-2.46609 -1.93919,-0.24229 -4.72061,0.0119 -5.91584,0.54058 -2.46314,1.08957 -4.03298,3.46061 -3.79808,5.73653 0.33745,3.26964 2.53265,5.3966 6.67313,6.46573 2.59697,0.67058 5.64586,0.0287 11.09581,-2.33585 2.92358,-1.26846 4.52479,-1.52523 5.99939,-0.96207 1.25195,0.47812 2.52575,1.70851 3.21273,3.10323 0.74548,1.51349 0.74698,4.12435 0.003,5.53122 -0.6497,1.2289 -2.05363,2.26361 -3.72474,2.74518 -0.70638,0.20356 -1.54402,0.55129 -1.86142,0.77273 -0.3174,0.22143 -1.77167,1.10761 -3.23171,1.96928 -6.51262,3.84353 -8.92923,6.55565 -10.0996,11.33458 l -0.40344,1.64738 -2.30836,-1.27081 0,0 1.9e-4,2e-5 2e-5,3e-5 0,-2e-5 z m 11.11571,-30.82516 0,0 z"
             style="fill:#f79933;fill-opacity:1;stroke:#3f486e;stroke-width:0.01154181;stroke-miterlimit:4;stroke-opacity:1;stroke-dasharray:none" />
        </g>
        <path
           style="fill:#f79933;fill-opacity:1;stroke:#f79933;stroke-width:0.23881322;stroke-miterlimit:4;stroke-opacity:1;stroke-dasharray:none"
           d="m 156.35555,214.97858 0,-17.83094 2.24822,0 2.24821,0 -0.0357,17.01502 -0.0357,17.01503 -1.12382,0.41597 c -0.61811,0.22879 -1.61375,0.59595 -2.21254,0.81592 l -1.08871,0.39994 0,-17.83094 z"
           id="path2925"
           transform="translate(3.4779611,3.803436)" />
        <path
           style="fill:#f79933;fill-opacity:1;stroke:#f79933;stroke-width:0.23881322;stroke-miterlimit:4;stroke-opacity:1;stroke-dasharray:none"
           d="m 166.32952,213.14817 0,-16.00053 2.24765,0 2.24765,0 0,15.16004 0,15.16005 -0.59703,0.2211 c -0.32837,0.12161 -1.33981,0.49982 -2.24765,0.84049 l -1.65062,0.61939 0,-16.00054 z"
           id="path2927"
           transform="translate(3.4779611,3.803436)" />
        <path
           style="fill:#f79933;fill-opacity:1;stroke:#f79933;stroke-width:0.23881322;stroke-miterlimit:4;stroke-opacity:1;stroke-dasharray:none"
           d="m 176.30348,211.26572 0,-14.11808 2.24765,0 2.24766,0 0,13.32521 0,13.32522 -2.15283,0.79286 c -1.18406,0.43607 -2.1955,0.79286 -2.24765,0.79286 -0.0522,0 -0.0948,-6.35313 -0.0948,-14.11807 z"
           id="path2929"
           transform="translate(3.4779611,3.803436)" />
        <path
           style="fill:#f79933;fill-opacity:1;stroke:#f79933;stroke-width:0.23881322;stroke-miterlimit:4;stroke-opacity:1;stroke-dasharray:none"
           d="m 186.27744,209.45453 0,-12.30689 2.24766,0 2.24765,0 -0.001,11.48411 -0.001,11.4841 -2.07073,0.7608 c -1.13891,0.41844 -2.14976,0.78869 -2.24634,0.82278 -0.13961,0.0493 -0.1756,-2.45999 -0.1756,-12.2449 z"
           id="path2931"
           transform="translate(3.4779611,3.803436)" />
        <path
           style="fill:#f79933;fill-opacity:1;stroke:#f79933;stroke-width:0.23881322;stroke-miterlimit:4;stroke-opacity:1;stroke-dasharray:none"
           d="m 246.54495,224.43831 -2.14112,-0.79997 -0.001,-11.34363 -0.001,-11.34363 2.24765,0 2.24766,0 0,12.15138 c 0,6.68326 -0.0474,12.14788 -0.10536,12.1436 -0.058,-0.004 -1.06887,-0.36776 -2.24649,-0.80775 z"
           id="path2933" />
        <path
           style="fill:#f79933;fill-opacity:1;stroke:#f79933;stroke-width:0.23881322;stroke-miterlimit:4;stroke-opacity:1;stroke-dasharray:none"
           d="m 257.53622,228.54156 c -0.69537,-0.26823 -1.69101,-0.64912 -2.21254,-0.84641 l -0.94823,-0.3587 0,-13.19269 0,-13.19268 2.24766,0 2.24765,0 0,14.04784 c 0,7.72631 -0.0158,14.0439 -0.0351,14.03909 -0.0193,-0.005 -0.60405,-0.22821 -1.29942,-0.49645 l 0,0 z"
           id="path2935" />
        <path
           style="fill:#f79933;fill-opacity:1;stroke:#f79933;stroke-width:0.23881322;stroke-miterlimit:4;stroke-opacity:1;stroke-dasharray:none"
           d="m 267.51018,232.26461 c -0.6181,-0.23019 -1.55053,-0.57979 -2.07205,-0.77689 l -0.94823,-0.35835 0,-15.08915 0,-15.08914 2.17741,0 2.17742,0 0,15.87406 c 0,8.73073 -0.0474,15.87044 -0.10536,15.86602 -0.058,-0.004 -0.61108,-0.19636 -1.22919,-0.42655 z"
           id="path2937" />
        <path
           style="fill:#f79933;fill-opacity:1;stroke:#f79933;stroke-width:0.23881322;stroke-miterlimit:4;stroke-opacity:1;stroke-dasharray:none"
           d="m 276.60732,235.67658 -2.14112,-0.79998 -0.001,-16.96276 -10e-4,-16.96276 2.17741,0 2.17742,0 0,17.77051 c 0,9.77379 -0.0158,17.76702 -0.0351,17.76274 -0.0193,-0.004 -0.99863,-0.36776 -2.17625,-0.80775 z"
           id="path2939" />
      </g>
      <path
         sodipodi:nodetypes="csssssssscccssssssssscccssssccc"
         id="path2903"
         d="m 156.29382,450.03046 c -0.26352,-0.60231 -0.10768,-0.84908 1.19355,-1.89035 1.13619,-0.90918 1.33852,-1.16408 1.31579,-1.65759 -0.0334,-0.72519 -9.51284,-22.83897 -10.4057,-24.27459 -0.14037,-0.22567 -0.64965,-0.0605 -2.79117,0.90559 -1.44071,0.64989 -2.72868,1.34636 -2.86215,1.54773 -0.32551,0.49107 -0.23439,2.01375 0.25344,4.23559 0.33584,1.52947 0.3594,1.86281 0.14265,2.017 -0.14283,0.10158 -0.3801,0.16801 -0.52726,0.14758 -0.16012,-0.0223 -0.83846,-1.61779 -1.689,-3.97274 l -1.42144,-3.93583 2.65016,-1.06668 c 4.36044,-1.75548 8.6879,-3.64759 12.27392,-5.36656 1.86068,-0.89192 3.46209,-1.62531 3.55871,-1.62976 0.0966,-0.004 0.29274,0.23263 0.43584,0.52683 0.1431,0.29422 1.01302,1.99429 1.93317,3.77795 1.68744,3.27103 1.7344,3.46131 0.86397,3.5014 -0.13428,0.006 -0.89603,-0.89377 -1.69278,-1.99989 -1.72758,-2.39839 -2.27111,-2.73747 -3.62456,-2.26121 -1.07476,0.3782 -4.65447,1.95313 -4.6502,2.04591 0.005,0.1136 2.74992,6.57889 4.34309,10.23044 2.87873,6.59806 5.88346,13.16029 6.32139,13.80569 l 0.44258,0.65225 1.84924,-0.22166 c 1.67713,-0.20103 1.86134,-0.18883 1.97936,0.13115 0.0716,0.19404 0.11277,0.43813 0.0916,0.54243 -0.0212,0.10431 -1.13769,0.6152 -2.48101,1.13534 -1.34332,0.52014 -3.55301,1.48867 -4.91043,2.15229 -1.97568,0.9659 -2.49288,1.14976 -2.59267,0.92169 l 0,0 -4e-5,0 z"
         style="fill:#3f486e;fill-opacity:1;stroke:#f79933;stroke-width:0.33773288;stroke-miterlimit:4;stroke-opacity:1;stroke-dasharray:none" />
      <path
         id="path2907"
         d="m 170.35942,443.79319 c -0.0817,-0.2697 -0.14477,-0.5269 -0.14028,-0.57151 0.003,-0.0446 0.36382,-0.36841 0.79857,-0.71954 1.19952,-0.9688 1.17001,-0.876 1.56274,-4.91188 0.34417,-3.53664 0.4241,-4.91872 1.06447,-18.39041 0.2282,-4.80094 0.43316,-8.91107 0.45549,-9.13359 0.0388,-0.38643 0.0564,-0.40807 0.39574,-0.48227 0.19536,-0.0426 0.40235,-0.0925 0.46001,-0.11038 0.0577,-0.0181 0.46045,0.53574 0.89511,1.23056 1.30924,2.09292 5.10188,7.93059 6.93877,10.68025 2.11646,3.16812 9.25467,13.55603 9.48978,13.80999 0.43909,0.47432 0.81216,0.60474 2.10743,0.73679 l 1.23839,0.12623 0.16041,0.57978 c 0.0887,0.32014 0.1216,0.60916 0.0738,0.64536 -0.0477,0.0361 -0.49014,0.13975 -0.98325,0.23047 -2.17955,0.40091 -4.50141,1.04115 -7.04574,1.94278 -0.55236,0.19575 -1.04573,0.33506 -1.09634,0.30956 -0.0506,-0.0254 -0.1488,-0.29141 -0.21819,-0.59094 l -0.1262,-0.54461 0.28935,-0.16873 c 0.70664,-0.41199 1.46548,-0.97262 1.65412,-1.22204 0.29099,-0.38474 0.30643,-0.82997 0.0485,-1.39867 -0.1949,-0.42974 -3.22043,-5.23481 -3.60503,-5.72546 -0.14708,-0.18761 -0.19711,-0.17896 -2.51175,0.43351 -2.96977,0.78584 -7.10166,1.96215 -7.21766,2.0548 -0.0832,0.0665 -0.35017,6.98997 -0.29234,7.58149 0.0142,0.14969 0.12529,0.36714 0.24588,0.48327 0.20594,0.19829 0.29798,0.21519 1.51164,0.27759 l 1.29235,0.0664 0.15926,0.58759 c 0.0875,0.32319 0.14354,0.59654 0.12431,0.60746 -0.0192,0.011 -0.65123,0.13832 -1.4045,0.28311 -1.93663,0.37222 -2.96197,0.65024 -4.65634,1.26257 -0.81406,0.29421 -1.48909,0.534 -1.50008,0.5329 -0.011,-0.002 -0.0868,-0.22268 -0.16841,-0.49241 z m 6.06047,-13.78612 c 1.79531,-0.435 7.00032,-1.96181 6.98024,-2.04755 -0.0104,-0.0406 -1.75126,-2.73465 -3.8706,-5.98693 -3.36339,-5.16142 -3.86038,-5.88139 -3.90889,-5.66265 -0.0596,0.26919 -0.61769,13.17052 -0.59148,13.6752 0.008,0.16648 0.0501,0.30611 0.0923,0.31031 0.042,0.004 0.6264,-0.12553 1.29845,-0.28838 l 0,0 z"
         style="fill:#3f486e;fill-opacity:1;stroke:#f79933;stroke-width:0.15669169;stroke-miterlimit:4;stroke-opacity:1;stroke-dasharray:none" />
      <path
         id="path2911"
         d="m 198.38769,436.70311 c -0.0153,-0.27126 0.51556,-0.587 1.60897,-0.95694 1.35609,-0.45881 1.67162,-0.67639 1.8675,-1.28783 0.12963,-0.40466 0.0155,-4.89925 -0.25373,-9.98796 -0.68692,-12.98572 -0.92345,-15.99229 -1.29885,-16.51015 -0.23557,-0.32497 -0.77501,-0.54479 -1.91598,-0.78076 -1.52699,-0.31581 -1.94547,-0.62428 -1.7485,-1.29133 0.0265,-0.0893 1.21921,-0.17305 2.65078,-0.18615 1.43156,-0.0131 3.83781,-0.15049 5.34722,-0.3053 3.06246,-0.31411 3.4228,-0.2748 3.22217,0.35152 -0.0825,0.25759 -0.86433,0.66287 -1.9151,0.99274 -1.57708,0.49512 -1.80505,0.64932 -2.03881,1.379 -0.15221,0.47517 -0.0353,4.8013 0.27728,10.26092 0.56756,9.91249 0.95241,15.88326 1.03767,16.09918 0.0616,0.15606 6.3894,-0.15627 8.3701,-0.41313 0.88852,-0.11523 1.60749,-0.39048 1.92084,-0.73534 0.27543,-0.30314 0.93747,-1.70181 1.4712,-3.10815 0.53379,-1.40633 1.05388,-2.53024 1.15591,-2.49756 0.10202,0.0327 0.35742,0.0497 0.56756,0.0376 0.30518,-0.0172 0.25552,0.56927 -0.24691,2.91538 -0.34592,1.61534 -0.74166,3.52717 -0.87943,4.24854 -0.19127,1.00144 -0.33842,1.31371 -0.62251,1.32056 -4.76018,0.11511 -12.39879,0.48537 -14.84962,0.71978 -3.51009,0.33573 -3.6946,0.32262 -3.72776,-0.26484 l 0,0 z"
         style="fill:#3f486e;fill-opacity:1;stroke:#f79933;stroke-width:0.4309288;stroke-miterlimit:4;stroke-opacity:1;stroke-dasharray:none" />
      <path
         inkscape:transform-center-y="2.2813877"
         sodipodi:nodetypes="csssssssscccssssssssscccssssccc"
         id="path2903-1"
         d="m 221.65782,436.45369 c 0.0683,-0.65387 0.32573,-0.79148 1.97145,-1.05422 1.43698,-0.22941 1.7388,-0.35112 1.96278,-0.79146 0.32912,-0.64707 3.00825,-24.55735 2.94093,-26.24663 -0.0106,-0.26555 -0.53501,-0.37346 -2.87426,-0.59109 -1.5737,-0.14646 -3.0376,-0.17697 -3.25311,-0.0678 -0.52558,0.26624 -1.19838,1.63525 -1.87154,3.80813 -0.46337,1.49578 -0.60752,1.79726 -0.87214,1.82428 -0.17436,0.0178 -0.41348,-0.0416 -0.53135,-0.13208 -0.12822,-0.0985 0.0699,-1.82082 0.49346,-4.28858 l 0.70789,-4.12433 2.8312,0.38138 c 4.65852,0.62714 9.35585,1.11918 13.32296,1.39559 2.05842,0.14342 3.8131,0.29664 3.89931,0.34049 0.086,0.0442 0.13965,0.34686 0.11878,0.67335 -0.0209,0.3265 -0.10411,2.2344 -0.18495,4.23979 -0.14825,3.67765 -0.20139,3.8663 -0.97806,3.47126 -0.11972,-0.0611 -0.33769,-1.21969 -0.48419,-2.575 -0.31763,-2.93869 -0.62278,-3.50197 -2.03486,-3.75631 -1.12132,-0.20195 -5.0118,-0.60049 -5.05391,-0.51771 -0.0518,0.10125 -0.85812,7.07867 -1.27628,11.04063 -0.75558,7.15895 -1.3839,14.34898 -1.32187,15.12646 l 0.0627,0.78573 1.71744,0.72058 c 1.55759,0.65351 1.71174,0.7551 1.65632,1.09162 -0.0336,0.20409 -0.11833,0.43666 -0.18825,0.5169 -0.07,0.0802 -1.29309,-0.027 -2.71803,-0.23814 -1.42494,-0.21117 -3.82467,-0.46035 -5.33273,-0.55373 -2.19495,-0.1359 -2.73548,-0.23146 -2.70961,-0.47906 l 0,0 -3e-5,-2e-5 z"
         style="fill:#3f486e;fill-opacity:1;stroke:#f79933;stroke-width:0.33773288;stroke-miterlimit:4;stroke-opacity:1;stroke-dasharray:none" />
      <path
         style="fill:#3f486e;fill-opacity:1;stroke:#f79933;stroke-width:0.15669169;stroke-miterlimit:4;stroke-opacity:1;stroke-dasharray:none"
         d="m 235.45017,437.64978 c 0.0687,-0.27328 0.1471,-0.52626 0.17391,-0.56219 0.0256,-0.0366 0.50157,-0.12858 1.05504,-0.20583 1.52709,-0.21314 1.45402,-0.14877 3.86817,-3.40675 2.11555,-2.85495 2.8955,-3.99872 10.37901,-15.21896 2.6669,-3.99858 4.9583,-7.41687 5.09198,-7.59615 0.23218,-0.31133 0.25841,-0.32082 0.58754,-0.20977 0.18942,0.0641 0.39256,0.12781 0.4512,0.14217 0.0588,0.0142 0.119,0.69632 0.13399,1.51576 0.0451,2.46827 0.29182,9.42541 0.45129,12.72833 0.18376,3.80561 0.95651,16.38598 1.02736,16.72472 0.13229,0.63268 0.38501,0.93653 1.42753,1.71648 l 0.99674,0.74568 -0.16091,0.57963 c -0.0887,0.32014 -0.20931,0.58486 -0.26892,0.59129 -0.0595,0.007 -0.49215,-0.13248 -0.96162,-0.30853 -2.07498,-0.7782 -4.39517,-1.42446 -7.04065,-1.96114 -0.57432,-0.1165 -1.06902,-0.25102 -1.09929,-0.29893 -0.0303,-0.0479 0.0225,-0.32644 0.11712,-0.61896 l 0.17215,-0.53187 0.33492,0.005 c 0.81791,0.0106 1.75707,-0.0795 2.04719,-0.19625 0.44752,-0.18007 0.68994,-0.55384 0.76154,-1.17417 0.0541,-0.46877 -0.0664,-6.14573 -0.14358,-6.76436 -0.0295,-0.23656 -0.0769,-0.25489 -2.37659,-0.92124 -2.95061,-0.85495 -7.09856,-1.97332 -7.2457,-1.9536 -0.10556,0.0142 -3.89828,5.81255 -4.15318,6.34946 -0.0649,0.13564 -0.0816,0.37925 -0.038,0.54089 0.0745,0.27601 0.1447,0.33788 1.15311,1.0161 l 1.0738,0.72216 -0.16592,0.58575 c -0.0914,0.32212 -0.184,0.58532 -0.20611,0.58478 -0.0221,-4.4e-4 -0.62952,-0.21663 -1.34986,-0.48023 -1.85196,-0.67776 -2.87414,-0.96718 -4.64199,-1.31438 -0.84937,-0.1668 -1.55153,-0.30868 -1.56039,-0.31528 -0.008,-0.007 0.0402,-0.2356 0.10908,-0.50886 z m 12.29226,-8.69983 c 1.76311,0.55119 7.0115,1.92145 7.03842,1.8376 0.012,-0.0402 -0.0938,-3.24598 -0.23668,-7.12523 -0.22676,-6.1564 -0.28225,-7.02948 -0.43644,-6.86691 -0.18966,0.20011 -7.30904,10.97369 -7.54635,11.41987 -0.0788,0.14685 -0.11461,0.28823 -0.0806,0.31355 0.034,0.0251 0.60166,0.21482 1.26166,0.42113 l 0,0 z"
         id="path2936" />
      <path
         style="fill:#3f486e;fill-opacity:1;stroke:#f79933;stroke-width:0.4309288;stroke-miterlimit:4;stroke-opacity:1;stroke-dasharray:none"
         d="m 262.68839,445.36828 c 0.0942,-0.25484 0.70693,-0.3326 1.85715,-0.23564 1.42654,0.12025 1.80268,0.0466 2.22621,-0.43594 0.2803,-0.31935 1.96864,-4.48635 3.75176,-9.26002 4.55041,-12.18173 5.5329,-15.03307 5.39525,-15.65769 -0.0864,-0.39197 -0.49334,-0.80873 -1.44546,-1.48027 -1.27424,-0.89875 -1.53493,-1.34855 -1.08821,-1.88165 0.0599,-0.0713 1.18703,0.32769 2.50499,0.88676 1.31794,0.55907 3.57924,1.39299 5.02511,1.85317 2.93353,0.93365 3.24827,1.11345 2.81445,1.60774 -0.17841,0.20329 -1.05701,0.26304 -2.15215,0.14635 -1.64367,-0.17512 -1.91423,-0.12466 -2.41967,0.45119 -0.32913,0.37501 -1.94772,4.38864 -3.83905,9.51972 -3.43388,9.31601 -5.46285,14.94464 -5.47081,15.17665 -0.006,0.16768 5.92132,2.40558 7.84006,2.96019 0.86073,0.24879 1.62982,0.2832 2.05473,0.092 0.37349,-0.1681 1.53853,-1.18656 2.58898,-2.26323 1.05049,-1.07664 1.97576,-1.89977 2.05628,-1.8291 0.0805,0.0707 0.30792,0.18815 0.50545,0.26089 0.2867,0.10597 0.007,0.62394 -1.38943,2.57486 -0.9616,1.34324 -2.08716,2.93849 -2.50126,3.54502 -0.57489,0.842 -0.8344,1.06965 -1.09763,0.9626 -4.41094,-1.79339 -11.56313,-4.50109 -13.90401,-5.26383 -3.35263,-1.09239 -3.51659,-1.17802 -3.31265,-1.72994 l 0,0 z"
         id="path2938" />
      <g
         id="g3234">
        <path
           style="fill:#f79933;fill-opacity:1;stroke:#3f486e;stroke-width:0.12599969;stroke-miterlimit:4;stroke-opacity:1;stroke-dasharray:none"
           d="m 351.0943,272.36514 c -6.39855,-2.5953 -9.37988,-3.91843 -14.33245,-6.36083 -6.64017,-3.27465 -11.80555,-6.39076 -14.97951,-9.0367 l -1.43454,-1.19588 -0.73436,-2.00838 c -1.5958,-4.36426 -2.19886,-8.41304 -1.87579,-12.59347 l 0.12417,-1.60761 17.7187,8.41818 17.71871,8.41819 -0.0409,6.06502 c -0.0226,3.33577 0.004,6.06504 0.0603,6.06504 0.34715,0 11.80464,-5.21513 12.5478,-5.71143 2.64336,-1.76526 4.65946,-4.81413 5.46112,-8.25867 0.21571,-0.92682 2.0392,-14.27004 1.96222,-14.3583 -0.0273,-0.0314 -4.58042,2.25398 -10.11774,5.07875 l -10.06784,5.13594 -20.77112,-9.3115 c -11.4241,-5.12132 -21.08143,-9.44579 -21.46069,-9.60991 l -0.6896,-0.29843 1.44914,-1.03665 1.44914,-1.03666 1.05168,0.47421 c 11.76178,5.30335 38.18589,17.11693 38.5366,17.22875 0.43589,0.13902 1.55291,-0.40124 14.41122,-6.96955 7.66629,-3.91613 14.3,-7.29759 14.74154,-7.51437 l 0.80284,-0.39413 1.33861,1.00539 1.3386,1.0054 -3.71153,1.91463 c -2.04132,1.05307 -3.7285,1.97444 -3.74927,2.04751 -0.0215,0.0729 -0.53979,3.8892 -1.1534,8.48032 -1.25153,9.36437 -1.50236,10.51921 -2.90759,13.38746 -1.32474,2.70401 -3.15362,4.78287 -5.75479,6.5415 -1.34016,0.90607 -14.52339,6.78089 -14.68443,6.54381 -0.0786,-0.11556 -0.11643,-0.10696 -0.11815,0.0265 -0.004,0.29256 -0.23131,0.2354 -2.12866,-0.53417 z"
           id="path3704" />
        <path
           style="fill:#f79933;fill-opacity:1;stroke:#3f486e;stroke-width:0.12599969;stroke-miterlimit:4;stroke-opacity:1;stroke-dasharray:none"
           d="m 336.68308,235.20871 c -8.96566,-4.02212 -17.06146,-7.65004 -17.99065,-8.06206 -0.92921,-0.41202 -1.68886,-0.78454 -1.68813,-0.82787 7.5e-4,-0.0433 0.49518,-0.41938 1.09873,-0.8357 l 1.0974,-0.75698 16.91712,7.57857 16.91714,7.57859 11.91464,-6.08852 11.91464,-6.0885 0.58138,0.40668 c 0.94424,0.66048 1.53189,1.16502 1.44763,1.2429 -0.11836,0.10933 -25.39905,12.99744 -25.67243,13.08777 -0.12999,0.043 -7.57179,-3.21276 -16.53747,-7.23488 z"
           id="path3706" />
        <path
           style="fill:#f79933;fill-opacity:1;stroke:#3f486e;stroke-width:0.12599969;stroke-miterlimit:4;stroke-opacity:1;stroke-dasharray:none"
           d="m 337.98047,228.88383 c -8.25211,-3.69978 -14.9852,-6.77946 -14.96246,-6.84374 0.0228,-0.0643 0.38988,-0.3642 0.81584,-0.66644 0.72782,-0.51644 0.80373,-0.53705 1.25999,-0.34216 0.26706,0.11406 6.66528,2.97803 14.21831,6.36438 l 13.73277,6.15697 9.39442,-4.80133 9.3944,-4.8013 0.77338,0.5677 c 0.42536,0.31225 0.77288,0.61483 0.77226,0.67242 -0.001,0.10201 -19.87051,10.30355 -20.21954,10.38127 -0.0966,0.0215 -6.92726,-2.988 -15.17937,-6.68777 l 0,0 z"
           id="path3708" />
        <path
           style="fill:#f79933;fill-opacity:1;stroke:#3f486e;stroke-width:0.12599969;stroke-miterlimit:4;stroke-opacity:1;stroke-dasharray:none"
           d="m 340.93225,224.00991 c -6.88484,-3.08121 -12.56462,-5.64722 -12.62173,-5.70227 -0.057,-0.0551 0.2618,-0.35305 0.70875,-0.66222 l 0.81259,-0.56213 11.18247,5.02448 c 6.15037,2.76349 11.46596,5.12955 11.81247,5.25794 l 0.63001,0.23346 6.79423,-3.47518 c 3.73684,-1.91137 6.87731,-3.47519 6.9788,-3.47519 0.10158,0 0.50133,0.24188 0.8885,0.53749 l 0.70393,0.53751 -6.10774,3.10556 c -3.35925,1.70806 -6.818,3.48293 -7.68607,3.94415 l -1.57832,0.83859 -12.51789,-5.60219 z"
           id="path3710" />
        <path
           style="fill:#f79933;fill-opacity:1;stroke:#3f486e;stroke-width:0.10880021;stroke-miterlimit:4;stroke-opacity:1;stroke-dasharray:none"
           d="m 344.07401,218.55862 c -5.19863,-2.33408 -9.59722,-4.30768 -9.77464,-4.38578 -0.31362,-0.13795 -0.30155,-0.15646 0.43514,-0.66386 l 0.75771,-0.52184 8.88091,3.98211 c 4.8845,2.19017 9.00332,4.00762 9.15291,4.03874 0.1655,0.0344 1.89712,-0.77187 4.42002,-2.05805 2.2814,-1.16308 4.2398,-2.08455 4.35199,-2.04772 0.11213,0.0368 0.43914,0.2663 0.72653,0.50996 l 0.52253,0.44299 -4.85403,2.47984 c -2.66972,1.36393 -4.92446,2.47706 -5.01054,2.47362 -0.0861,-0.004 -4.40991,-1.91593 -9.60853,-4.25001 l 0,0 z"
           id="path3714" />
        <path
           style="fill:#f79933;fill-opacity:1;stroke:#3f486e;stroke-width:0.47936472;stroke-miterlimit:4;stroke-opacity:1;stroke-dasharray:none"
           d="m 321.28827,274.42194 0.0699,-7.04478 -2.04738,-1.73819 c -1.12606,-0.956 -2.04737,-1.82199 -2.04737,-1.9244 0,-0.29051 2.18922,-2.87779 2.43505,-2.87779 0.12052,0 1.45258,1.0516 2.96006,2.3369 l 2.74085,2.3369 -0.0534,7.90952 -0.0534,7.90951 -2.0373,0.0686 -2.03731,0.0684 0.07,-7.04478 0,0 z"
           id="path3722" />
        <path
           style="fill:#f79933;fill-opacity:1;stroke:#3f486e;stroke-width:0.47936472;stroke-miterlimit:4;stroke-opacity:1;stroke-dasharray:none"
           d="m 338.27324,281.03002 0.14785,-5.21309 -4.70661,-2.59943 c -2.58863,-1.42968 -4.7066,-2.7136 -4.7066,-2.85317 0,-0.30958 1.65221,-3.29581 1.8235,-3.29581 0.0671,0 2.70251,1.4291 5.85618,3.17579 l 5.73389,3.17579 0.004,2.99604 c 0.002,1.64782 -0.0669,4.53298 -0.1528,6.4115 l -0.15624,3.41547 -1.9953,0 -1.99532,0 0.14785,-5.21309 -7.1e-4,0 z"
           id="path3724"
           sodipodi:nodetypes="cccssccccccccc" />
        <path
           style="fill:#f79933;fill-opacity:1;stroke:#3f486e;stroke-width:0.47936472;stroke-miterlimit:4;stroke-opacity:1;stroke-dasharray:none"
           d="m 350.52995,281.56891 c -3.88552,-1.39774 -4.81474,-1.86159 -4.66626,-2.32937 0.50413,-1.58837 1.3253,-3.20227 1.59692,-3.13855 0.17217,0.0405 1.38412,0.50957 2.69326,1.04265 2.17039,0.88378 2.52964,0.96063 4.07461,0.87145 1.58104,-0.0913 2.27931,-0.35927 10.44273,-4.00811 4.81164,-2.15068 8.87786,-3.96053 9.03608,-4.02188 0.26993,-0.1046 1.75245,2.7621 1.7475,3.3792 -0.002,0.33125 -17.69153,8.19594 -19.17245,8.5243 -1.86301,0.41308 -4.05387,0.29133 -5.75239,-0.31969 z"
           id="path3726" />
      </g>
    </g>
  </g>
</svg>
