<?xml version="1.0" encoding="UTF-8" standalone="no"?>
<!-- Generator: Adobe Illustrator 14.0.0, SVG Export Plug-In . SVG Version: 6.00 Build 43363)  -->

<svg
   xmlns:dc="http://purl.org/dc/elements/1.1/"
   xmlns:cc="http://creativecommons.org/ns#"
   xmlns:rdf="http://www.w3.org/1999/02/22-rdf-syntax-ns#"
   xmlns:svg="http://www.w3.org/2000/svg"
   xmlns="http://www.w3.org/2000/svg"
   xmlns:sodipodi="http://sodipodi.sourceforge.net/DTD/sodipodi-0.dtd"
   xmlns:inkscape="http://www.inkscape.org/namespaces/inkscape"
   version="1.1"
   id="Capa_1"
   x="0px"
   y="0px"
   width="562px"
   height="543px"
   viewBox="0 0 562 543"
   enable-background="new 0 0 562 543"
   xml:space="preserve"
   sodipodi:version="0.32"
   inkscape:version="0.48.4 r9939"
   sodipodi:docname="20100117020039!Coat_of_Arms_of_Calama.svg"
   inkscape:output_extension="org.inkscape.output.svg.inkscape"><metadata
   id="metadata528"><rdf:RDF><cc:Work
       rdf:about=""><dc:format>image/svg+xml</dc:format><dc:type
         rdf:resource="http://purl.org/dc/dcmitype/StillImage" /></cc:Work></rdf:RDF></metadata><defs
   id="defs526">
	
	
	
	
	
	
	
	
	
	
	
	
	
	
	
	
	
	
	
	
	
	
	
	
	
	
	
	
	
	
	
	
	
	
	
	
	
	
	
	
	
	
	
	
	
	
	
	
	
	
	
	
	
	
	
	
	
	
	
	
	
	
	
	
	
	
	
	
	
	
	
	
	
	
	
	
	
	
	
	
	
	
	
	
	
	
	
	
	
	
	
	
	
	
	
	
	
	
	
	
	
	
	
	
	
	
	
	
	
	
	
	
	
	
	
	
	
	
	
	
	
	
	
	
	
	
	
	
	
	
	
	
	
	
	
	
	
	
	
	
	
	
	
	
	
	
	
	
	
	
	
	
	
	
	
	
	
	
	
	
	
	
	
	
	
	
	
	
	
	
	
	
	
	
	
	
	
	
	
	
	
	
	
	
	
	
	
	
	
	
	
	
	
	
	
	
	
	
	
	
	
	
	
	
	
	
	
	
	
	
	
	
	
	
	
	
	
	
	
	
	
	
	
	
	
	
	
	
	
	
	
	
	
	
	
	
	
	
	
	
	
	
	
	
	
	
	
	
	
	
	
	
	
	
	
	
	
	
	
	
<marker
   id="marker2279"
   viewBox="0 0 10 10"
   refX="0"
   refY="5"
   markerUnits="strokeWidth"
   markerWidth="4"
   markerHeight="3"
   orient="auto"><path
     d="M 0,0 L 10,5 L 0,10 L 0,0 z "
     id="path7214" /></marker><marker
   id="marker2282"
   viewBox="0 0 10 10"
   refX="10"
   refY="5"
   markerUnits="strokeWidth"
   markerWidth="4"
   markerHeight="3"
   orient="auto"><path
     d="M 10,0 L 0,5 L 10,10 L 10,0 z "
     id="path10" /></marker><marker
   orient="auto"
   markerHeight="3"
   markerWidth="4"
   markerUnits="strokeWidth"
   refY="5"
   refX="10"
   viewBox="0 0 10 10"
   id="marker3282"><path
     id="path3284"
     d="M 10,0 L 0,5 L 10,10 L 10,0 z " /></marker><marker
   orient="auto"
   markerHeight="3"
   markerWidth="4"
   markerUnits="strokeWidth"
   refY="5"
   refX="0"
   viewBox="0 0 10 10"
   id="marker3278"><path
     id="path3280"
     d="M 0,0 L 10,5 L 0,10 L 0,0 z " /></marker><marker
   id="marker3984"
   viewBox="0 0 10 10"
   refX="0"
   refY="5"
   markerUnits="strokeWidth"
   markerWidth="4"
   markerHeight="3"
   orient="auto"><path
     d="M 0,0 L 10,5 L 0,10 L 0,0 z "
     id="path3986" /></marker><marker
   id="marker3988"
   viewBox="0 0 10 10"
   refX="10"
   refY="5"
   markerUnits="strokeWidth"
   markerWidth="4"
   markerHeight="3"
   orient="auto"><path
     d="M 10,0 L 0,5 L 10,10 L 10,0 z "
     id="path3990" /></marker><marker
   orient="auto"
   markerHeight="3"
   markerWidth="4"
   markerUnits="strokeWidth"
   refY="5"
   refX="10"
   viewBox="0 0 10 10"
   id="marker3992"><path
     id="path3994"
     d="M 10,0 L 0,5 L 10,10 L 10,0 z " /></marker><marker
   orient="auto"
   markerHeight="3"
   markerWidth="4"
   markerUnits="strokeWidth"
   refY="5"
   refX="0"
   viewBox="0 0 10 10"
   id="marker3996"><path
     id="path3998"
     d="M 0,0 L 10,5 L 0,10 L 0,0 z " /></marker><marker
   id="marker3190"
   viewBox="0 0 10 10"
   refX="0"
   refY="5"
   markerUnits="strokeWidth"
   markerWidth="4"
   markerHeight="3"
   orient="auto"><path
     d="M 0,0 L 10,5 L 0,10 L 0,0 z "
     id="path3192" /></marker><marker
   id="marker3186"
   viewBox="0 0 10 10"
   refX="10"
   refY="5"
   markerUnits="strokeWidth"
   markerWidth="4"
   markerHeight="3"
   orient="auto"><path
     d="M 10,0 L 0,5 L 10,10 L 10,0 z "
     id="path3188" /></marker><marker
   orient="auto"
   markerHeight="3"
   markerWidth="4"
   markerUnits="strokeWidth"
   refY="5"
   refX="10"
   viewBox="0 0 10 10"
   id="marker3182"><path
     id="path3184"
     d="M 10,0 L 0,5 L 10,10 L 10,0 z " /></marker><marker
   orient="auto"
   markerHeight="3"
   markerWidth="4"
   markerUnits="strokeWidth"
   refY="5"
   refX="0"
   viewBox="0 0 10 10"
   id="marker3178"><path
     id="path3180"
     d="M 0,0 L 10,5 L 0,10 L 0,0 z " /></marker><marker
   markerUnits="strokeWidth"
   refX="10"
   refY="5"
   markerWidth="4"
   markerHeight="3"
   orient="auto"
   viewBox="0 0 10 10"
   id="ArrowStart"><path
     d="M 10,0 L 0,5 L 10,10 L 10,0 z "
     id="path553" /></marker><marker
   markerUnits="strokeWidth"
   refX="0"
   refY="5"
   markerWidth="4"
   markerHeight="3"
   orient="auto"
   viewBox="0 0 10 10"
   id="ArrowEnd"><path
     d="M 0,0 L 10,5 L 0,10 L 0,0 z "
     id="path551" /></marker></defs><sodipodi:namedview
   inkscape:window-height="705"
   inkscape:window-width="1366"
   inkscape:pageshadow="2"
   inkscape:pageopacity="0.0"
   guidetolerance="10.0"
   gridtolerance="10.0"
   objecttolerance="10.0"
   borderopacity="1.0"
   bordercolor="#666666"
   pagecolor="#ffffff"
   id="base"
   showguides="true"
   inkscape:guide-bbox="true"
   inkscape:zoom="0.30064458"
   inkscape:cx="143.37902"
   inkscape:cy="271.5"
   inkscape:window-x="-8"
   inkscape:window-y="-8"
   inkscape:current-layer="Capa_1"
   showgrid="false"
   inkscape:window-maximized="1" />
<path
   transform="matrix(-1.0256785,-6.0490075e-2,6.0490075e-2,-1.0256785,95.800315,393.23697)"
   d="M 31.59877 128.88974 A 204.56049 204.56049 0 1 1  -377.5222,128.88974 A 204.56049 204.56049 0 1 1  31.59877 128.88974 z"
   sodipodi:ry="204.56049"
   sodipodi:rx="204.56049"
   sodipodi:cy="128.88974"
   sodipodi:cx="-172.96172"
   id="path8366"
   style="font-size:40.01008606px;opacity:0;fill:#8ab0d5;fill-opacity:1;stroke:#000000;stroke-width:0;stroke-linecap:butt;stroke-miterlimit:4;stroke-dasharray:none;stroke-opacity:1"
   sodipodi:type="arc" /><path
   sodipodi:type="arc"
   style="opacity:1;fill:#eac102;fill-opacity:1;stroke:#000000;stroke-width:1.53794980000000000;stroke-linecap:butt;stroke-miterlimit:4;stroke-dasharray:none;stroke-opacity:1"
   id="path2940"
   sodipodi:cx="-495.46948"
   sodipodi:cy="89.299736"
   sodipodi:rx="30.246685"
   sodipodi:ry="51.85146"
   d="M -465.2228 89.299736 A 30.246685 51.85146 0 1 1  -525.71617,89.299736 A 30.246685 51.85146 0 1 1  -465.2228 89.299736 z"
   transform="matrix(8.5133296,0,0,4.966109,4499.095,-171.97222)" /><path
   sodipodi:type="arc"
   style="opacity:1;fill:#0071bc;fill-opacity:1;stroke:#000000;stroke-width:10.90989269000000000;stroke-linecap:butt;stroke-miterlimit:4;stroke-dasharray:none;stroke-opacity:1"
   id="path3916"
   sodipodi:cx="-172.96172"
   sodipodi:cy="128.88974"
   sodipodi:rx="204.56049"
   sodipodi:ry="204.56049"
   d="M 31.59877 128.88974 A 204.56049 204.56049 0 1 1  -377.5222,128.88974 A 204.56049 204.56049 0 1 1  31.59877 128.88974 z"
   transform="matrix(0.9165993,0,0,0.9165993,439.53659,153.35975)" /><path
   transform="matrix(3.3448035,0,0,1.9511354,1938.248,97.264126)"
   d="M -465.2228 89.299736 A 30.246685 51.85146 0 1 1  -525.71617,89.299736 A 30.246685 51.85146 0 1 1  -465.2228 89.299736 z"
   sodipodi:ry="51.85146"
   sodipodi:rx="30.246685"
   sodipodi:cy="89.299736"
   sodipodi:cx="-495.46948"
   id="path11590"
   style="opacity:1;fill:#eac102;fill-opacity:1;stroke:none;stroke-width:1.53794980000000000;stroke-linecap:butt;stroke-miterlimit:4;stroke-dasharray:none;stroke-opacity:1"
   sodipodi:type="arc" /><path
   style="opacity:1;fill:#ee985d;fill-opacity:1;stroke:none;stroke-width:10.90989304;stroke-linecap:butt;stroke-miterlimit:4;stroke-dasharray:none;stroke-opacity:1"
   d="M 95.6875 300.1875 C 109.5136 390.08041 187.25768 458.99999 281 459 C 374.74232 459 452.4864 390.08041 466.3125 300.1875 L 95.6875 300.1875 z "
   id="path4888" /><path
   style="fill:#eac102;fill-opacity:1;stroke:none;stroke-width:0.49999997000000002;stroke-linecap:butt;stroke-miterlimit:4;stroke-dasharray:none;stroke-opacity:1"
   d="M 268.54688,100.78125 C 263.32225,101.23834 258.93054,101.83929 253.76563,102.75 L 280.17188,252.5 L 280.10938,253.375 L 253.57813,141.96875 C 251.03429,142.60438 248.88021,143.18482 246.35938,143.90625 L 279.85938,256.15625 L 279.57813,259.3125 L 225.39063,110.4375 C 220.46232,112.23125 216.36259,113.93979 211.60938,116.15625 L 279.39063,261.5 L 279.04688,265.40625 L 219.01563,154.34375 C 216.72298,155.61612 214.79511,156.71321 212.54688,158.0625 L 278.95313,265.96875 L 278.70313,267.03125 L 277.48438,265.78125 L 183.20313,131.0625 C 178.90702,134.07067 175.37697,136.78509 171.35938,140.15625 L 270.89063,258.78125 L 191.35938,174.65625 C 189.47417,176.47864 187.90052,178.0523 186.07813,179.9375 L 276.23438,265.15625 L 278.48438,267.84375 L 278.35938,268.34375 L 150.70313,161.21875 C 147.33197,165.23633 144.61755,168.76638 141.60938,173.0625 L 278.26563,268.75 L 278.10938,269.46875 L 167.76563,201.5625 C 166.41634,203.81073 165.288,205.73861 164.01563,208.03125 L 278.04688,269.625 L 278.04688,269.65625 L 274.64063,268.65625 L 124.98438,198.875 C 122.76792,203.62821 121.05938,207.72795 119.26563,212.65625 L 266.01563,266.09375 L 155.76563,233.1875 C 155.04419,235.70835 154.46377,237.86242 153.82813,240.40625 L 274.17188,269.0625 L 277.89063,270.40625 L 277.82813,270.6875 L 277.92188,270.40625 L 278.32813,270.5625 L 278.26563,270.78125 L 277.82813,270.6875 L 111.98438,241.46875 C 111.07367,246.63366 110.50398,251.02537 110.04688,256.25 L 278.17188,270.96875 L 278.10938,271.15625 L 278.20313,270.96875 L 278.54688,271 L 278.54688,271.15625 L 278.57813,271 L 280.42188,271.15625 L 280.32813,271.125 L 279.73438,271.03125 L 279.67188,271 L 279.98438,270.90625 L 280.01563,270.90625 L 280.29688,270.84375 L 280.32813,270.84375 L 280.82813,270.71875 L 280.57813,270.96875 L 280.92188,270.75 L 281.23438,271.125 L 280.95313,270.71875 L 280.98438,270.6875 L 281.01563,270.6875 L 281.48438,271 L 281.48438,270.96875 L 281.17188,270.71875 L 281.70313,270.84375 L 281.98438,270.90625 L 282.07813,271.0625 L 282.01563,270.90625 L 282.32813,271 L 282.26563,271.03125 L 282.07813,271.0625 L 281.70313,271.15625 L 282.10938,271.125 L 282.14063,271.125 L 282.67188,271.0625 L 283.01563,271.15625 L 282.73438,271.0625 L 283.42188,271 L 283.45313,271.15625 L 283.45313,271 L 283.79688,270.96875 L 283.89063,271.15625 L 283.82813,270.96875 L 451.95313,256.25 C 451.49602,251.02537 450.92636,246.63366 450.01563,241.46875 L 284.23438,270.6875 L 284.14063,270.40625 L 287.82813,269.0625 L 408.17188,240.40625 C 407.53623,237.86242 406.95581,235.70835 406.23438,233.1875 L 295.95313,266.09375 L 442.73438,212.65625 C 440.94061,207.72795 439.23208,203.62821 437.01563,198.875 L 287.35938,268.65625 L 283.98438,269.65625 L 283.95313,269.625 L 397.98438,208.03125 C 396.712,205.73861 395.58368,203.81073 394.23438,201.5625 L 283.92188,269.46875 L 283.73438,268.71875 L 420.39063,173.0625 C 417.38245,168.76638 414.66803,165.23633 411.29688,161.21875 L 283.64063,268.34375 L 283.51563,267.8125 L 285.67188,265.25 L 375.92188,179.9375 C 374.09947,178.0523 372.52583,176.47864 370.64063,174.65625 L 290.92188,259 L 390.64063,140.15625 C 386.62304,136.78509 383.12423,134.07067 378.82813,131.0625 L 284.42188,265.875 L 283.32813,267 L 283.07813,265.9375 L 349.45313,158.0625 C 347.2049,156.71321 345.27702,155.61612 342.98438,154.34375 L 282.95313,265.40625 L 282.95313,265.34375 L 282.60938,261.53125 L 350.39063,116.15625 C 345.63741,113.93979 341.53767,112.23125 336.60938,110.4375 L 282.42188,259.3125 L 282.14063,256.21875 L 315.64063,143.90625 C 313.11978,143.18482 310.99696,142.60438 308.45313,141.96875 L 281.89063,253.46875 L 281.82813,252.5625 L 308.26563,102.75 C 303.10071,101.83929 298.67775,101.23834 293.45313,100.78125 L 282.14063,230 L 284.70313,138.40625 C 282.08146,138.36184 279.88729,138.36183 277.26563,138.40625 L 279.82813,229.65625 L 268.54688,100.78125 z M 280.57813,270.96875 L 280.54688,270.96875 L 280.51563,270.96875 L 280.32813,271.125 L 280.54688,271 L 280.85938,271.15625 L 280.57813,270.96875 z M 281.26563,260.9375 L 281.51563,261.75 L 281.23438,262.5625 L 281.26563,260.9375 z M 280.70313,261.125 L 280.73438,262.5 L 280.48438,261.8125 L 280.70313,261.125 z M 281.92188,263.03125 L 282.17188,263.96875 L 282.57813,266.15625 L 282.26563,266.71875 L 281.35938,264.21875 L 281.92188,263.03125 z M 280.10938,263.0625 L 280.64063,264.1875 L 279.73438,266.6875 L 279.42188,266.125 L 279.73438,264.3125 L 280.10938,263.0625 z M 281.14063,265.28125 L 282.01563,267.15625 L 281.04688,268.96875 L 281.14063,265.28125 z M 280.82813,265.375 L 280.95313,268.9375 L 279.98438,267.1875 L 280.82813,265.375 z M 279.32813,266.59375 L 279.60938,267.03125 L 279.32813,267.71875 L 279.17188,267.53125 L 279.32813,266.59375 z M 282.64063,266.59375 L 282.82813,267.5625 L 282.64063,267.75 L 282.39063,267 L 282.64063,266.59375 z M 283.07813,267 L 283.14063,267.21875 L 283.10938,267.25 L 283.07813,267 z M 282.14063,267.40625 L 282.42188,268 L 281.14063,269.3125 L 281.07813,269.15625 L 282.14063,267.40625 z M 279.85938,267.46875 L 280.92188,269.1875 L 280.85938,269.3125 L 279.60938,268 L 279.85938,267.46875 z M 279.10938,267.875 L 279.23438,268 L 279.17188,268.1875 L 279.07813,268.03125 L 279.10938,267.875 z M 282.85938,267.875 L 282.89063,268 L 282.79688,268.15625 L 282.73438,268 L 282.85938,267.875 z M 283.39063,267.96875 L 283.51563,268.4375 L 283.23438,268.6875 L 283.20313,268.1875 L 283.39063,267.96875 z M 278.64063,268.03125 L 278.79688,268.21875 L 278.76563,268.6875 L 278.51563,268.46875 L 278.64063,268.03125 z M 282.51563,268.21875 L 282.60938,268.40625 L 281.51563,270 L 281.23438,269.46875 L 282.51563,268.21875 z M 279.48438,268.25 L 280.79688,269.46875 L 280.48438,270.03125 L 279.39063,268.46875 L 279.48438,268.25 z M 279.01563,268.46875 L 279.04688,268.53125 L 278.95313,268.8125 L 279.01563,268.46875 z M 282.98438,268.46875 L 283.04688,268.84375 L 282.92188,268.53125 L 282.98438,268.46875 z M 282.76563,268.71875 L 282.89063,269 L 281.73438,269.9375 L 282.76563,268.71875 z M 279.23438,268.75 L 280.20313,269.875 L 279.14063,269 L 279.23438,268.75 z M 283.64063,268.8125 L 283.82813,269.5 L 283.39063,269.78125 L 283.29688,269.5625 L 283.26563,269.0625 L 283.64063,268.8125 z M 278.39063,268.84375 L 278.70313,269.0625 L 278.67188,269.5625 L 278.60938,269.75 L 278.20313,269.5 L 278.39063,268.84375 z M 283.01563,269.25 L 283.20313,269.65625 L 283.23438,269.875 L 281.79688,270.3125 L 281.67188,270.1875 L 283.01563,269.25 z M 279.01563,269.28125 L 280.32813,270.1875 L 280.20313,270.3125 L 278.85938,269.90625 L 278.79688,269.875 L 278.82813,269.65625 L 279.01563,269.28125 z M 280.95313,269.375 L 280.95313,269.4375 L 280.92188,269.40625 L 280.95313,269.375 z M 280.85938,269.53125 L 280.92188,269.59375 L 280.67188,269.84375 L 280.85938,269.53125 z M 281.14063,269.53125 L 281.35938,269.875 L 281.07813,269.59375 L 281.14063,269.53125 z M 276.85938,269.6875 L 277.98438,269.96875 L 277.92188,270.1875 L 276.85938,269.6875 z M 280.95313,269.6875 L 280.98438,270.5625 L 281.01563,269.6875 L 281.45313,270.09375 L 281.32813,270.28125 L 280.98438,270.5625 L 280.95313,270.53125 L 280.60938,270.25 L 280.51563,270.09375 L 280.95313,269.6875 z M 285.14063,269.6875 L 284.10938,270.1875 L 284.04688,269.9375 L 285.14063,269.6875 z M 283.98438,269.9375 L 284.04688,270.1875 L 283.60938,270.40625 L 283.48438,270.0625 L 283.98438,269.9375 z M 278.04688,269.96875 L 278.48438,270.0625 L 278.35938,270.40625 L 277.98438,270.21875 L 278.04688,269.96875 z M 278.60938,270.09375 L 278.64063,270.125 L 278.60938,270.5 L 278.45313,270.4375 L 278.60938,270.09375 z M 283.35938,270.09375 L 283.39063,270.09375 L 283.54688,270.4375 L 283.39063,270.5 L 283.35938,270.09375 z M 278.73438,270.125 L 279.17188,270.25 L 279.89063,270.625 L 279.57813,270.96875 L 278.67188,270.53125 L 278.73438,270.125 z M 283.26563,270.125 L 283.32813,270.53125 L 282.39063,270.96875 L 281.98438,270.84375 L 281.95313,270.84375 L 281.79688,270.78125 L 281.76563,270.78125 L 281.23438,270.625 L 281.73438,270.5 L 281.89063,270.71875 L 281.79688,270.5 L 281.85938,270.46875 L 282.01563,270.625 L 281.89063,270.71875 L 281.79688,270.78125 L 281.89063,270.75 L 281.95313,270.84375 L 281.92188,270.75 L 282.07813,270.65625 L 282.10938,270.65625 L 282.89063,270.21875 L 283.26563,270.125 z M 280.42188,270.25 L 280.60938,270.40625 L 280.64063,270.4375 L 280.35938,270.375 L 280.42188,270.25 z M 281.57813,270.25 L 281.64063,270.34375 L 281.32813,270.4375 L 281.57813,270.25 z M 279.51563,270.3125 L 280.07813,270.46875 L 279.95313,270.59375 L 279.51563,270.3125 z M 282.54688,270.3125 L 282.07813,270.625 L 281.92188,270.46875 L 282.54688,270.3125 z M 284.10938,270.40625 L 284.20313,270.71875 L 283.76563,270.78125 L 283.73438,270.78125 L 283.42188,270.84375 L 283.42188,270.65625 L 283.60938,270.59375 L 283.73438,270.78125 L 283.67188,270.5625 L 284.10938,270.40625 z M 280.14063,270.46875 L 280.23438,270.5 L 280.10938,270.6875 L 279.98438,270.625 L 280.14063,270.46875 z M 280.26563,270.5 L 280.79688,270.625 L 280.26563,270.78125 L 280.14063,270.71875 L 280.26563,270.5 z M 278.39063,270.5625 L 278.57813,270.65625 L 278.57813,270.84375 L 278.29688,270.78125 L 278.39063,270.5625 z M 278.64063,270.65625 L 279.48438,271 L 278.60938,270.84375 L 278.64063,270.65625 z M 279.95313,270.65625 L 280.20313,270.8125 L 279.64063,270.96875 L 279.95313,270.65625 z M 283.35938,270.6875 L 283.39063,270.84375 L 282.54688,271 L 282.48438,271 L 283.35938,270.6875 z "
   id="path11593" /><path
   style="opacity:1;fill:#000000;fill-opacity:1;stroke:none;stroke-width:10.90989304;stroke-linecap:butt;stroke-miterlimit:4;stroke-dasharray:none;stroke-opacity:1"
   d="M 280.99355,79.000632 C 174.78824,79.000632 88.50772,165.28117 88.507702,271.48648 C 88.507702,377.6918 174.78824,464.00098 280.99355,464.00098 C 387.19887,464.00098 473.50805,377.6918 473.50805,271.48648 C 473.50805,165.28117 387.19887,79.000632 280.99355,79.000632 z M 280.99355,88.997293 C 381.78824,88.997293 463.51139,170.6918 463.51139,271.48648 C 463.51139,372.28117 381.78824,454.00432 280.99355,454.00432 C 180.19887,454.00432 98.504363,372.28117 98.504363,271.48648 C 98.504372,170.6918 180.19887,88.997293 280.99355,88.997293 z "
   id="path11584" /><path
   style="fill:#000000;fill-rule:evenodd;fill-opacity:1"
   d="M 317.78125,241.15625 C 310.30739,241.58115 302.95821,246.09797 299.84375,253 C 267.21917,267.38663 264.34256,276.0193 258.23928,281.75148 C 240.65702,302.76868 254.55752,294.63274 253.875,303.1875 C 264.83838,298.48985 276.51631,309.25846 287.21875,303.21875 C 295.0805,302.55299 302.53666,306.20453 310.28125,306.53125 C 317.41362,305.37811 324.93486,299.39267 332.09375,303.78125 C 337.07477,307.95315 342.47659,311.88425 349.3125,312.0625 C 362.86537,312.72344 375.99875,308.54586 389.62421,309.36871 C 406.00984,309.39167 422.72664,307.90999 437.57135,300.58311 C 442.994,302.05277 451.9455,301.8491 457.60744,301.89553 C 461.7732,307.13843 465.63349,303.71129 469.84375,309 C 478.43886,316.24022 491.33395,319.89066 501.53125,313.75 C 512.21903,309.56103 523.26224,312.99307 533.8125,315.46875 C 537.9973,316.2576 535.18892,317.76551 533.66193,311.35492 C 534.48457,303.16253 535.36635,295.89233 537.02828,287.83155 C 528.22946,280.51892 524.0523,279.52115 513.5625,282.5 C 503.76996,273.23953 489.70242,271.49682 477.25,267.84375 C 452.55618,262.74404 426.33222,265.54181 403.375,275.59375 C 397.19476,274.69826 393.51873,268.02256 387.375,266.53125 C 380.89389,263.27355 373.4109,264.40669 366.625,264.28125 C 358.5208,260.77195 352.67661,250.66101 342.9375,251.46875 C 338.76331,242.08075 326.74607,241.13905 317.78125,241.15625 z M 157.59375,259.75 C 147.01292,260.64176 137.60449,271.15449 126.71875,266.5 C 121.52209,265.84614 115.90315,262.62438 111.13102,263.16292 C 104.78894,267.98874 98.381644,274.83596 89.6875,273.5625 C 65.999735,274.81373 46.27063,292.85467 22.21875,292.25 C 16.966246,296.53813 23.592896,303.4385 19.3125,308.21875 C 37.375192,308.85535 55.284653,307.05741 72.875,302.9375 C 79.397647,301.72332 86.07761,300.01057 92.53125,299.25 C 96.950178,304.70425 105.16557,300.93554 110.1875,305.3125 C 116.51789,308.10719 123.63818,309.55455 130.375,309.4375 C 141.26139,318.85297 157.30724,315.35315 169.25,310 C 185.92447,305.19814 203.278,314.92325 219.71875,310.5 C 228.18678,302.78158 225.30964,290.33872 227.84375,281.125 C 231.1506,277.11232 229.22145,271.48598 224.875,269.21875 C 218.07467,263.45632 206.62026,263.70625 201.4375,271.5 C 198.94985,275.69074 192.93596,278.45879 189.0625,274.375 C 185.07355,269.90427 177.96338,271.47672 174.46875,266.3125 C 170.49446,261.19359 163.89409,259.1945 157.59375,259.75 z "
   id="path11717"
   sodipodi:nodetypes="ccccccccccccccccccccccccccccccccccccccccc" /><path
   style="fill:#e3e4e5;fill-rule:evenodd;stroke:#000000;stroke-opacity:1;stroke-width:1.50000000000000000;stroke-miterlimit:4;stroke-dasharray:none;fill-opacity:1"
   d="M 320.0625 245.09375 C 312.55475 245.33437 305.51425 248.37075 303.96875 254.96875 C 312.92235 258.69509 328.47348 257.04021 336.75 253.15625 C 337.15071 253.09637 337.57321 253.02246 337.96875 252.96875 C 337.9053 252.8607 337.81847 252.76195 337.75 252.65625 C 338.17637 252.42961 338.59373 252.20794 338.96875 251.96875 C 335.55025 247.40825 327.57025 244.85313 320.0625 245.09375 z M 159.96875 263.78125 C 151.53838 263.98742 141.875 269.64187 134.96875 272.96875 C 128.01475 270.58975 120.001 269.29975 113 266.96875 C 109.556 270.52475 104.103 272.07275 101 275.96875 C 105.898 277.40375 109.612 280.02475 115 280.96875 C 116.16048 279.83359 117.35821 278.89475 118.625 278.125 C 118.6346 278.12231 118.64665 278.1277 118.65625 278.125 C 119.25812 277.95588 119.86723 277.76524 120.46875 277.5625 C 121.07265 277.35896 121.67679 277.13565 122.28125 276.90625 C 123.49668 276.44499 124.7142 275.9543 125.9375 275.4375 C 125.94636 275.43376 125.95989 275.44124 125.96875 275.4375 C 141.60491 272.66579 161.22992 284.19766 172.96875 271.96875 C 173.52375 271.97175 174.10375 271.15875 172.96875 270.96875 C 169.629 265.50162 165.02697 263.65755 159.96875 263.78125 z "
   id="path73" /><path
   style="fill:#bab5b2;fill-rule:evenodd;stroke:#000000;stroke-opacity:1;stroke-width:1.5;stroke-miterlimit:4;stroke-dasharray:none"
   d="M 345.3125,255.90625 C 332.31915,255.84714 321.49876,259.7422 310.96875,258.96875 C 307.30475,258.69875 303.60275,256.48476 299.96875,256.96875 C 283.25375,259.19475 274.74774,278.04675 256.96875,280.96875 C 256.35975,287.57675 258.71674,291.22074 257.96875,297.96875 C 258.8814,297.62696 259.77849,297.44594 260.65625,297.375 C 260.66608,297.37722 260.67767,297.37278 260.6875,297.375 C 262.82646,297.8572 264.91181,298.19459 266.9375,298.4375 C 266.95928,298.44011 266.97823,298.46616 267,298.46875 C 269.9959,299.522 272.93165,300.93566 275.96875,300.96875 C 300.49675,301.24075 327.85976,276.76975 352.96875,275.96875 C 368.02975,275.48875 372.48551,284.91076 383.9375,288.96875 C 394.9045,292.85375 401.8625,287.08775 408.9375,282.96875 C 398.0385,280.60875 389.82051,269.16874 377.9375,267.96875 C 374.7105,267.64275 371.2975,269.60274 367.9375,268.96875 C 359.6725,267.40775 354.63776,259.10275 347.96875,255.96875 C 347.08288,255.92706 346.17872,255.91019 345.3125,255.90625 z M 214.125,268.9375 C 205.41829,269.11838 201.40584,280.77113 193.96875,280.96875 C 188.85275,281.10475 184.85875,274.27675 178.96875,273.96875 C 173.01075,273.65575 166.12975,281.45875 157.96875,281.96875 C 149.84475,282.47475 140.01576,276.48075 132.96875,276.96875 C 127.92971,277.31784 122.99595,279.93872 118.53125,282.59375 C 115.64489,282.66919 112.81835,282.68696 110,281.96875 C 103.29466,278.53591 96.969637,277.28316 90.875,277.40625 C 69.10844,277.84585 49.945312,295.94921 24,295.96875 C 23.78,299.18875 25.769,300.19974 25,303.96875 C 52.889,305.21375 69.263,298.67574 93,293.96875 C 92.776,290.41075 95.674,287.97676 98,286.96875 C 98.932213,286.82568 99.799795,286.75354 100.625,286.6875 C 101.71392,286.70764 102.78571,286.78304 103.71875,287.15625 C 104.86255,287.59791 105.93019,288.05812 107.03125,287.90625 C 107.02601,287.92845 107.0047,287.94648 107,287.96875 C 118.977,287.69175 127.94876,298.05574 138.96875,301.96875 C 158.47275,283.49475 190.77175,299.73274 219.96875,293.96875 C 219.77275,285.77375 223.30075,281.30075 225.96875,275.96875 C 224.85297,275.19528 223.88644,274.40702 223,273.65625 C 221.9194,272.52155 220.88559,271.66424 219.875,271.03125 C 219.84247,271.01087 219.81371,270.98865 219.78125,270.96875 C 218.31489,269.86513 216.84322,269.08964 214.96875,268.96875 C 214.67781,268.94997 214.40586,268.93167 214.125,268.9375 z M 452.0625,269.5 C 435.21571,269.44254 418.65856,272.45175 406.9375,278.96875 C 413.44983,283.023 420.34188,281.53737 427.09375,283.6875 C 427.10323,283.69052 427.11552,283.68447 427.125,283.6875 C 428.48211,284.42517 429.80114,285.19385 431.125,285.96875 C 431.65655,286.27988 432.18958,286.59762 432.71875,286.90625 C 432.731,286.9134 432.73775,286.93036 432.75,286.9375 C 435.11624,288.84425 437.34254,290.99632 439.9375,291.96875 C 444.62177,293.72505 448.25604,293.67678 451.5,292.90625 C 451.50983,292.90392 451.52143,292.9086 451.53125,292.90625 C 452.01868,292.84889 452.50146,292.77359 452.96875,292.65625 C 453.2966,292.57393 453.61794,292.48189 453.9375,292.375 C 454.89618,292.05433 455.81058,291.62458 456.71875,291.15625 C 456.82527,291.10132 456.92515,291.02486 457.03125,290.96875 C 457.07194,290.94723 457.11561,290.92793 457.15625,290.90625 C 459.90157,289.73946 462.66645,288.50671 465.9375,287.96875 C 480.0395,285.64875 496.2505,292.79576 508.9375,283.96875 C 508.16562,283.42162 507.36484,282.89316 506.53125,282.375 C 506.66476,282.23766 506.80657,282.1126 506.9375,281.96875 C 505.62148,281.38832 504.23165,280.8336 502.8125,280.28125 C 502.80344,280.27772 502.79031,280.28477 502.78125,280.28125 C 489.5302,273.37338 470.63017,269.56333 452.0625,269.5 z "
   id="path79"
   sodipodi:nodetypes="cssccssscccccsscccsscsccsccccccccccccssscccsssssssssssscscccscc" /><rect
   style="opacity:1;fill:#000000;fill-opacity:1;stroke:none;stroke-width:0.5;stroke-linecap:butt;stroke-miterlimit:4;stroke-dasharray:none;stroke-opacity:1"
   id="rect11709"
   width="506.41193"
   height="32.430321"
   x="25.777948"
   y="299.35681" /><path
   style="fill:#0071bc;fill-rule:evenodd;stroke:#000000;stroke-opacity:1;stroke-width:1.50000000000000000;stroke-miterlimit:4;stroke-dasharray:none;fill-opacity:1"
   d="M 350.875,278.3125 C 330.6621,278.87543 311.18524,296.16787 295.96875,299.96875 C 300.26275,301.86475 306.21975,300.99874 306.96875,298.96875 C 308.47775,299.83875 306.69475,300.46574 307.96875,302.96875 C 313.81975,302.05675 322.46574,296.59374 331.96875,298.96875 C 335.67875,299.89675 339.18675,305.93175 342.96875,306.96875 C 355.52375,310.41275 380.46949,304.00974 398.9375,304.96875 C 416.9655,305.90475 427.6025,299.76174 438.9375,295.96875 C 434.4415,291.58475 429.72049,287.31876 423.9375,285.96875 C 413.0875,283.43475 406.21849,292.00074 393.9375,292.96875 C 382.1995,293.89475 375.47174,285.49075 364.96875,280.96875 C 360.27188,278.94619 355.53951,278.18259 350.875,278.3125 z M 526.53125,284.625 C 515.61372,284.78375 504.06676,290.71887 492.9375,291.96875 C 481.3105,293.27575 466.56551,286.42274 458.9375,295.96875 C 470.3055,301.56875 475.7085,312.82375 489.9375,312.96875 C 495.8025,313.02875 501.5445,308.68875 507.9375,307.96875 C 518.9785,306.72675 526.77552,310.95675 537.9375,311.96875 C 538.5855,303.95075 539.51249,296.20876 540.9375,288.96875 C 536.33719,285.66625 531.49376,284.55284 526.53125,284.625 z M 103.96875,290.28125 C 93.810815,290.73688 97.691986,291.61471 97,297.96875 C 109.978,297.95575 120.48075,308.91174 131.96875,303.96875 C 125.96925,297.719 115.39003,289.91429 103.96875,290.28125 z M 167.4375,294.78125 C 153.44141,295.03877 145.65525,302.79366 134.96875,306.96875 C 134.63575,306.96875 134.30175,306.96875 133.96875,306.96875 C 146.90475,317.46275 161.82575,306.53974 174.96875,304.96875 C 188.82275,303.31175 201.78074,308.53175 216.96875,307.96875 C 219.80975,306.47675 219.74974,302.08174 219.96875,297.96875 C 204.47675,300.41175 187.22975,296.36574 171.96875,294.96875 C 170.37725,294.82306 168.88537,294.75461 167.4375,294.78125 z "
   id="path109"
   sodipodi:nodetypes="ccccssscsssccccsscccccccccccccsc" /><path
   style="fill:#e0e0e0;fill-rule:evenodd"
   id="path187"
   d="M 459.942,472.94 C 512.762,421.107 554.382,358.075 549.93,248.968 C 556.609,356.3 513.687,422.699 459.942,472.94 z "
   clip-rule="evenodd" />
<path
   inkscape:connector-curvature="0"
   style="fill:#bab5b2;fill-opacity:1;stroke:#000000;stroke-width:1.59845948000000000;stroke-miterlimit:4;stroke-opacity:1"
   d="m 227.42168,195.24394 c -1.54368,-2.04045 -3.57838,-3.1371 -2.89866,-0.53752 1.83939,7.03485 -1.77584,13.24217 5.05542,17.04917 0.53475,-1.53813 1.42668,-1.44869 1.3123,-3.24724 -3.2395,-0.90687 -2.6107,-12.45174 -3.53123,-13.30004"
   id="path2604"
   sodipodi:nodetypes="csccc" /><path
   inkscape:connector-curvature="0"
   id="path2606"
   d="m 345.74526,289.50429 c -0.80869,1.57226 0.97702,5.14126 3.47384,9.28716 -1.58497,-0.27742 -3.17526,-0.78349 -4.76563,-2.86726 1.12354,3.52553 2.64874,5.67455 4.3042,7.41559 -1.12354,0.44617 -2.42079,-0.0229 -4.05451,-2.63321 0,0.63644 0,1.27304 0,1.90955 0.46676,1.51252 1.42211,3.6997 1.9106,5.22851 1.35694,0.70184 1.69342,3.78126 2.627,6.03916 1.95403,-3.40594 3.58778,-7.23071 1.42204,-16.04994 1.86717,-1.59409 -0.23341,-5.03805 -1.9485,-7.64951 0.5048,0.1469 1.90514,1.27312 2.41533,1.42547 -0.46683,-3.74324 -1.2484,-7.50264 -4.30419,-11.26757 -2.39363,-1.44183 -4.55934,-1.46349 -6.20936,1.65938 -0.42883,1.87157 -0.53192,2.69851 3.0938,4.59194 3.70718,2.63321 3.45749,2.93239 1.99199,2.86712"
   style="fill:#cc6633;stroke:none" /><path
   inkscape:connector-curvature="0"
   style="fill:#000000;fill-opacity:1;stroke:none"
   d="m 229.49359,336.68544 c 8.90153,3.75944 14.88293,28.71015 18.48695,35.91361 2.01376,4.10226 6.46993,13.56349 2.2688,19.55362 -1.8454,2.63867 -5.02609,3.56903 -5.21604,5.71806 -6.18763,1.01747 -9.56369,4.08047 -9.07517,8.77588 2.50215,4.21088 11.4905,3.34036 15.85988,0.81052 -0.0651,-1.10443 0.59701,-2.21433 1.99196,-3.31876 0.3202,-1.06092 0.65678,-2.14356 0.99871,-3.20452 12.97779,-6.7409 3.94056,-15.23923 5.51458,-33.73196 0.84676,3.40042 1.69346,6.82263 2.54022,10.22298 0.86839,7.78007 1.8237,15.62004 1.21036,22.67654 -1.75855,2.91077 -3.73424,5.65283 -6.97463,7.10009 -2.80072,1.08264 -2.82245,2.14363 -5.74796,6.50146 -0.31494,1.00108 -1.82377,3.6343 -0.70024,4.63541 1.56863,2.29599 2.05712,3.67251 12.44588,0.82701 0.17358,-1.40364 0.36366,-2.80736 0.55355,-4.20557 1.27016,0.52779 2.20371,0 2.75736,-1.65938 0.23341,-1.9533 1.54693,-3.91186 3.98398,-5.88681 -0.14662,-2.95421 3.62569,-2.97604 4.77102,-7.09995 1.12353,-4.12411 -1.08017,-11.64301 -1.61209,-17.46995 -1.71516,-9.24359 -3.47923,-17.95957 -3.20239,-27.07259 4.23913,-3.9553 4.58107,-10.73435 4.36938,-18.9986 8.16332,3.41664 20.60917,-3.34065 24.51173,-6.08267 3.8971,-2.74209 2.01369,17.91596 16.28324,26.39793 3.11556,2.99773 4.45081,4.88572 5.67744,9.56458 4.87954,4.90755 -3.05037,22.2522 -8.09816,27.77449 -2.45878,2.7856 -6.25279,7.90521 -8.71157,10.71263 -3.81574,2.36122 -9.28692,5.20666 -8.97208,9.66806 4.66789,2.36109 13.21114,1.78435 17.28199,0 0.3202,-1.8662 3.18062,-5.18506 0.84669,-7.07293 2.73563,0.25027 7.22974,-2.10548 7.90824,-3.34048 1.53066,-4.33624 12.32099,-27.32835 15.2683,-31.34905 1.90517,-0.0815 2.71386,-5.35352 2.54561,-7.24681 -0.3202,-3.48208 -0.72187,0.38627 -4.79275,-11.36553 2.83879,5.60925 10.7904,10.47319 10.32364,17.66026 -0.91189,5.31007 -5.91629,18.06292 -6.82814,23.40017 -3.15892,2.67676 -1.99196,5.47875 -9.13487,8.26435 -3.3544,2.78557 -8.76046,7.86173 -8.86353,11.24029 3.62569,1.91515 12.99404,3.34055 17.80845,0.81065 1.05838,-2.40473 1.35695,-6.05542 2.41532,-8.46015 1.55233,-0.35905 0.87385,-2.3993 2.44252,-2.78557 1.69345,-1.06098 6.08453,-0.80522 7.79969,-1.8662 2.6107,-12.0727 5.68283,-31.83854 8.30991,-43.92759 0.89009,-2.53 -1.05845,-9.43958 -3.39241,-10.5005 -5.23235,-3.16638 -8.75493,-10.35342 -12.40241,-14.79297 -6.04105,-4.54846 -2.88209,-16.78987 2.67053,-23.20977 2.44245,3.48748 0.93352,4.61357 1.97569,5.16855 2.83869,1.55057 6.84441,-6.84429 5.48746,-10.96827 -0.92819,-5.27199 0.17358,-9.26537 -1.05845,-16.13154 -2.01369,-11.19674 -8.3099,-13.57982 -14.4161,-7.86162 -7.84315,-7.16532 -18.25355,-12.1381 -29.02763,-10.50054 -18.02013,-5.48411 -30.93277,0.51147 -38.73791,3.25356 -10.57871,2.2089 -15.77306,6.90415 -22.17237,12.38824 -3.01241,2.57354 -6.72498,0.57673 -8.99381,-2.39931 -0.12493,-17.34465 1.31352,-35.32048 8.97207,-53.66095 -3.04721,-6.24782 -1.08977,-6.4181 -2.77898,-15.09227 -3.62575,-5.718 -9.92194,-5.67455 -16.07163,-5.95208 -4.6407,-0.48961 -9.30855,2.36126 -13.97098,6.7573 -1.93233,3.01954 -9.60716,3.91185 -11.08893,5.59302 -1.4872,1.67574 -0.23342,5.95207 0.54819,8.84099 1.04213,2.35585 3.69087,3.54724 6.38304,3.86828 1.59036,0.52783 3.52268,0.14689 5.11291,0.68008 0.35827,1.52891 2.81706,2.97604 4.91761,4.01517 -4.70586,12.62228 -7.88651,33.70474 -6.76298,53.66095 0.23341,10.07612 0.59162,23.65591 11.51223,32.43163 4.15231,3.34052 1.54693,8.79755 3.90262,12.43188"
   id="path2608"
   sodipodi:nodetypes="csscccccccccccccccscccscccccccccscccccccccccccscscccscccccscccccsc" /><path
   inkscape:connector-curvature="0"
   id="path2610"
   d="m 241.9829,215.58782 c -5.44943,-5.16321 -12.19074,-6.99121 -21.73274,-1.52878 -4.36935,4.88569 -8.20674,4.88569 -12.99942,6.73547 -0.14663,1.8933 -1.78035,2.91077 -2.75736,2.76381 0.34196,0.65827 0.55365,2.55166 0.91189,3.20995 1.55229,1.65395 5.89455,1.22961 9.94363,1.20792 -3.24039,1.02277 -6.71955,1.53421 -9.17834,0.91396 0.84676,1.63759 3.60405,4.91297 10.24224,3.36234 1.73682,3.6343 5.23777,6.69189 12.23409,3.82477 2.07346,0.40259 5.0858,-1.31666 7.18638,-1.8281 -3.34898,3.67788 -7.46322,6.26765 -11.23546,6.67017 -1.21042,3.82477 -9.41717,30.92458 -8.20681,47.796 -0.59707,6.27305 2.05712,18.77022 5.55262,27.31203 1.69891,4.14574 4.70586,4.73873 6.29622,6.99121 3.98938,5.65279 2.77895,10.96826 4.51584,13.55809 11.4092,1.6376 12.40787,35.51635 18.76382,33.92227 4.71128,-1.1697 6.89323,-18.34044 0.93355,-21.89311 -19.82217,-11.79528 -12.59243,-40.59257 -13.62911,-38.10618 4.30422,15.4297 1.33525,30.30975 11.23552,29.54261 7.9516,-3.35681 11.789,20.31539 11.63702,24.12374 -0.16832,5.58759 1.27552,6.61046 2.33396,10.90306 0.80873,3.33512 1.08011,8.68876 2.03542,19.42311 0.23342,2.67679 0.0868,4.35783 -0.59165,6.65382 -2.07882,3.05769 -4.26076,6.50156 -8.33161,8.07398 -4.26622,1.63753 -6.23645,6.94769 -5.11291,8.49823 0.95528,1.32209 4.79268,3.10657 9.56366,0.32094 0.23341,-0.80522 1.05848,-1.828 1.03671,-4.2926 3.26755,-0.25583 3.3544,-4.65177 6.27995,-7.48089 -0.67844,-2.72026 5.19435,-3.52552 5.12925,-8.73767 -0.0434,-5.31004 -2.56734,-16.95848 -4.64622,-26.77331 -2.26873,-5.2502 -2.24707,-10.77792 -2.58358,-13.64512 1.42211,-3.95539 -3.24581,-4.01517 -0.16832,-7.01299 6.27449,-6.12072 5.50919,-16.36539 -3.15899,-26.35445 1.75858,-1.02288 2.58365,-3.9553 3.89713,-5.95208 l -0.023,7.26877 7.01806,8.58528 c 6.8281,1.65938 21.6513,-2.84543 26.50368,-9.43402 3.52262,-2.7857 6.55136,-6.05555 6.23651,-12.68757 -0.0434,-1.10453 3.9189,0 3.24039,0.87052 -1.43831,1.91508 1.04211,3.69959 0.40709,6.71368 -0.46679,2.23612 -5.85654,3.8302 -5.60143,5.90859 l 1.4655,11.90405 c 0.91185,7.50268 6.17136,15.08688 13.86788,22.63307 l 5.46577,12.21962 c 0.46676,7.20346 -9.6017,21.14779 -14.77438,27.64925 -1.84544,1.55064 -3.52262,5.16325 -5.368,6.73554 -2.24713,0.78896 -5.66113,3.16644 -8.56502,7.23055 2.67047,0.91413 7.84855,1.8227 13.7811,-0.0651 1.48713,-1.44726 1.31891,-5.33729 0,-6.56686 3.47916,-0.72369 6.51329,-1.44725 8.63011,-3.80308 4.9013,-10.84319 10.19878,-21.68085 16.41353,-32.5404 1.82371,-2.46464 1.33522,-6.56686 -1.5903,-9.90188 -6.27997,-13.73218 -7.76171,-24.29242 -4.47796,-31.64827 5.32466,-1.82799 10.03052,-11.62116 11.2843,-20.63626 1.50354,-10.83776 -0.61874,-22.61137 -6.36131,-27.39355 -5.2595,-5.77806 -16.3267,-9.22193 -25.8904,-7.83997 -14.31301,-5.99552 -42.99867,2.86713 -47.558,6.18599 -8.56499,1.2296 -10.66008,10.62557 -17.29826,10.02704 -4.23904,-0.35908 -7.44142,-3.80301 -7.95164,-8.754 0.10849,-40.48369 9.8405,-44.95046 8.75497,-51.70775 -0.80333,-2.14357 -2.54015,-3.67778 -4.57557,-4.59194 1.62829,-1.57223 3.00697,-3.16631 2.58361,-4.76052 -0.33658,-1.31656 -0.70017,-2.65507 -1.05841,-3.97159"
   style="fill:#bab5b2;fill-opacity:1;stroke:#000000;stroke-opacity:1" /><path
   inkscape:connector-curvature="0"
   id="path2612"
   d="m 216.85783,221.87716 c 4.45078,-1.59409 4.55933,-3.65609 9.81338,-2.14357 3.52262,1.88783 3.09929,2.39927 4.24449,4.29256 -1.9323,-1.02277 -2.52388,-1.68107 -3.66915,-1.06082 -2.01366,1.18596 -5.66114,0.87052 -6.38304,-0.91403 -1.48181,-0.51144 -2.52391,0.33729 -4.00568,-0.15245"
   style="fill:#000000;fill-opacity:1;stroke:none" /><path
   inkscape:connector-curvature="0"
   id="path2614"
   d="m 249.5709,343.04008 c -1.18869,4.37965 -1.14526,6.43625 1.31352,10.83776 -2.86042,4.29259 -3.0504,9.49928 1.63376,15.08678 -3.8592,7.1218 1.42211,10.96836 1.05844,20.19022 -2.18201,5.76164 -6.42104,5.80525 -6.50786,9.54289 -5.29755,0.89225 -9.15667,2.21433 -9.26526,6.37646 -0.27681,0.63651 1.08017,-1.38196 2.75736,-0.89231 -1.71519,1.08278 -2.24717,2.19261 -1.69892,2.50818 1.44384,0.82688 4.09258,1.1697 7.5717,1.08264 1.33529,-0.46782 3.26751,-0.52769 3.90259,-2.91077 -0.17358,-0.91399 -0.76533,-2.72027 -0.93358,-3.6343 5.29751,-1.10443 7.29489,-3.84655 7.50661,-9.52113 0.59162,2.20893 1.5469,3.50922 1.62833,4.6572 1.34064,-2.00214 2.88751,-4.61369 2.16567,-7.37747 -2.54564,-9.75502 -2.54564,-16.0227 -1.52527,-23.05742 0.10323,-17.13253 -4.58099,-19.72229 -9.60709,-22.91042"
   style="fill:#bab5b2;fill-opacity:1;stroke:none" /><path
   inkscape:connector-curvature="0"
   id="path2616"
   d="m 345.63674,290.29315 c -0.80333,1.57236 0.97702,5.1414 3.47916,9.28716 -1.59029,-0.27742 -3.18065,-0.78886 -4.77098,-2.87265 1.12357,3.53092 2.64877,5.67455 4.30422,7.42098 -1.12353,0.44617 -2.41535,-0.0229 -4.04908,-2.63867 0,0.6366 0,1.27851 0,1.91511 0.46676,1.50706 1.42204,3.69414 1.90514,5.22835 1.35695,0.7019 1.69888,3.78126 2.63247,6.03373 1.9268,-3.40035 3.58232,-7.22512 1.42207,-16.04445 1.86168,-1.59408 -0.23341,-5.03795 -1.95402,-7.6495 0.51018,0.14689 1.91056,1.27304 2.43709,1.42 -0.4668,-3.73778 -1.2484,-7.50268 -4.30419,-11.26211 -2.3937,-1.44722 -4.55395,-1.46891 -6.2094,1.65938 -0.4234,1.86614 -0.53192,2.69864 3.09383,4.58651 3.71257,2.63864 3.4575,2.93252 1.99203,2.87265"
   style="fill:#bab5b2;fill-opacity:1;stroke:none" /><path
   inkscape:connector-curvature="0"
   id="path2618"
   d="m 327.31808,319.99895 c -0.27155,9.01517 -2.18198,14.7931 -2.03539,22.52969 0.15188,7.29052 3.69084,15.23923 7.52824,23.48729 -1.18866,-1.36017 -2.86039,-3.91185 -4.04908,-3.34065 -0.65678,-5.5004 -3.37064,-8.43836 -5.21608,-12.60049 -2.10055,-4.71707 -3.22408,-10.50043 -1.46547,-13.51991 2.69756,-4.86394 4.45618,-10.36997 5.25951,-16.53414"
   style="fill:#000000;fill-opacity:1;stroke:none" /><path
   inkscape:connector-curvature="0"
   id="path2620"
   d="m 347.63413,367.22368 c 0.31494,1.74094 0.61335,3.50916 0.94986,5.27202 -1.69346,10.01072 -4.00566,18.63956 -7.63141,24.20529 -2.14394,1.59412 -3.64741,3.1883 -4.5376,4.78238 -1.18873,1.19152 -2.37196,2.38291 -3.58232,3.59082 -4.45075,1.97495 -7.25147,5.10324 -9.79707,8.37319 4.4562,2.31765 8.92864,1.27845 13.37939,-0.23391 1.02044,-2.78017 2.05712,-5.58746 3.09383,-8.37306 0.787,-0.63661 1.59036,-1.27321 2.37736,-1.90966 2.13855,-0.95763 7.88651,-3.10663 8.35334,-5.50593 0.82496,-12.85636 3.24574,-23.0792 6.44274,-35.93543 1.37861,-4.82582 1.37861,-9.05864 -1.6718,-11.96941 -4.51587,-3.40042 -8.63011,-6.9476 -11.23542,-11.00641 -3.7343,-3.50913 -5.89458,-7.99233 -6.44816,-13.41111 -2.62708,3.59079 -3.96229,7.18161 -4.04912,10.7725 -1.8237,5.67455 -0.3202,11.34903 1.67719,17.02371 4.2173,4.78225 8.4347,9.58628 12.65753,14.36865"
   style="fill:#bab5b2;fill-opacity:1;stroke:none" /><path
   inkscape:connector-curvature="0"
   id="path2622"
   d="m 338.80864,333.6658 c 0.80869,11.56145 14.10133,18.51451 14.42154,30.11401 0.25511,-3.84655 0.97158,-7.50264 -1.95396,-14.21645 -4.55394,-3.25346 -8.56502,-9.20014 -12.44591,-15.89756"
   style="fill:#000000;fill-opacity:1;stroke:none" /><path
   inkscape:connector-curvature="0"
   id="path2624"
   d="m 351.91386,348.88475 c 2.41533,3.2969 3.88083,6.58851 4.41275,9.86376 0.3582,-2.23069 1.24839,-4.44495 -0.38533,-6.71368 -0.99329,-1.72478 -2.35027,-2.78557 -4.00572,-3.15008"
   style="fill:#000000;fill-opacity:1;stroke:none" /><path
   inkscape:connector-curvature="0"
   id="path2626"
   d="m 234.34226,213.24495 c 0.96294,-1.37979 3.30009,-6.23725 2.34132,-10.06414 -1.0564,-4.18732 -2.88471,-4.2306 -4.09806,-8.99982 -0.79772,-2.21558 -1.31658,-2.06839 -1.53366,0.42588 -0.55039,5.56051 -2.12444,12.69654 1.93605,17.94482 -0.0131,-4.12408 -0.0329,-5.04237 -0.342,-9.99322 1.40662,4.98936 1.94011,6.06998 1.71029,10.68717"
   style="fill:#bab5b2;fill-opacity:1;stroke:#000000;stroke-width:1.56473434000000000;stroke-miterlimit:4;stroke-opacity:1;stroke-dasharray:none" /><path
   style="font-size:42px;font-style:normal;font-weight:bold;fill:#000000;fill-opacity:1;stroke:none;stroke-width:1px;stroke-linecap:butt;stroke-linejoin:miter;stroke-opacity:1;font-family:Arial"
   d="M 71.354497,256.25934 L 41.401601,253.67179 L 41.924053,247.62401 L 71.876948,250.21155 L 71.354497,256.25934 z M 72.533374,244.52703 L 66.827923,243.71679 L 67.638163,238.01134 L 73.343614,238.82158 L 72.533374,244.52703 z M 76.294658,221.53098 L 47.645435,212.41543 L 50.399999,203.75813 L 71.596425,204.77781 L 53.689309,193.42017 L 56.450091,184.74333 L 85.099314,193.85888 L 83.38937,199.23306 L 60.83739,192.05751 L 81.579939,204.91991 L 79.807815,210.4895 L 55.452621,208.98127 L 78.004602,216.15681 L 76.294658,221.53098 z M 60.683869,174.82477 L 63.404391,169.39822 L 77.960747,176.69584 C 80.270704,177.85391 81.801593,178.53729 82.553419,178.74596 C 83.769816,179.06521 84.930112,178.95487 86.03431,178.41492 C 87.138508,177.875 88.070499,176.84728 88.830286,175.33174 C 89.602323,173.79179 89.869701,172.47292 89.632421,171.37514 C 89.395134,170.2774 88.857996,169.41931 88.021007,168.80085 C 87.184014,168.18244 85.702209,167.34015 83.575587,166.27398 L 68.70757,158.82012 L 71.428092,153.39356 L 85.544458,160.4706 C 88.771053,162.08823 90.976919,163.37764 92.162062,164.33881 C 93.347194,165.30004 94.20048,166.40457 94.721925,167.65241 C 95.243352,168.9003 95.445134,170.32055 95.327272,171.91317 C 95.209392,173.50582 94.617381,175.36545 93.551239,177.49205 C 92.2645,180.05868 90.992346,181.85643 89.734774,182.88533 C 88.477194,183.91425 87.181796,184.57626 85.848575,184.87137 C 84.515354,185.1665 83.268038,185.17586 82.106622,184.89948 C 80.388969,184.48188 78.026841,183.51942 75.02023,182.0121 L 60.683869,174.82477 z M 101.62617,161.26126 L 76.975395,144.05049 L 80.356502,139.20777 L 103.86235,140.61219 L 87.400473,129.11878 L 90.62896,124.49466 L 115.27974,141.70543 L 111.79297,146.69948 L 88.779527,145.41374 L 104.85466,156.63714 L 101.62617,161.26126 z M 119.46628,137.0244 L 96.650282,117.44631 L 100.60329,112.83953 L 123.41929,132.41762 L 119.46628,137.0244 z M 133.34616,106.64238 L 138.89174,103.92737 C 140.50516,106.92367 141.10297,109.72244 140.68515,112.32369 C 140.26731,114.92497 138.89162,117.33974 136.55808,119.568 C 133.67078,122.32503 130.35585,123.60475 126.61327,123.40716 C 122.87069,123.20959 119.36596,121.40018 116.09908,117.97894 C 112.64338,114.35996 110.89395,110.65706 110.85078,106.87022 C 110.80765,103.08342 112.30882,99.735974 115.3543,96.827856 C 118.01417,94.288035 120.92531,93.011086 124.08773,92.997005 C 125.96406,92.982326 127.98031,93.609061 130.13647,94.877213 L 126.78211,100.06514 C 125.44865,99.183431 124.06246,98.805735 122.62354,98.932051 C 121.18463,99.058429 119.88178,99.67867 118.715,100.79278 C 117.10327,102.33183 116.34793,104.15895 116.44899,106.27417 C 116.55007,108.38943 117.83748,110.74237 120.31124,113.33299 C 122.93608,116.08186 125.29996,117.56758 127.40289,117.79016 C 129.50582,118.01277 131.34832,117.36872 132.9304,115.85801 C 134.09717,114.74389 134.74673,113.41475 134.87908,111.87058 C 135.01141,110.32644 134.50043,108.58371 133.34616,106.64238 L 133.34616,106.64238 z M 149.38782,107.6431 L 130.8813,83.949629 L 135.66525,80.212981 L 154.17176,103.90645 L 149.38782,107.6431 z M 158.66804,100.26996 L 142.46609,74.944712 L 150.67175,69.695104 C 153.78126,67.705813 155.88925,66.535752 156.99571,66.184919 C 158.68996,65.636655 160.43361,65.685669 162.22669,66.33196 C 164.01975,66.978323 165.56097,68.309198 166.85036,70.324588 C 167.84501,71.879375 168.3991,73.367033 168.51264,74.787567 C 168.62615,76.208156 168.44157,77.498887 167.95888,78.659764 C 167.47617,79.820688 166.8483,80.786377 166.07526,81.556834 C 165.0092,82.579698 163.31875,83.831591 161.0039,85.312515 L 157.66981,87.445513 L 163.78146,96.998626 L 158.66804,100.26996 z M 150.32036,75.957594 L 154.91791,83.144022 L 157.71647,81.353629 C 159.73189,80.064273 160.99462,79.069791 161.50465,78.37018 C 162.01467,77.670615 162.28207,76.91525 162.30686,76.104083 C 162.33164,75.292967 162.10457,74.513103 161.62567,73.76449 C 161.03623,72.843182 160.27931,72.256224 159.3549,72.003616 C 158.43049,71.751067 157.50579,71.815162 156.5808,72.195901 C 155.89674,72.471261 154.63337,73.198355 152.79069,74.377185 L 150.32036,75.957594 z M 207.14454,74.118074 L 201.14306,76.872829 L 195.90852,71.761388 L 184.98657,76.774699 L 185.58022,84.016369 L 179.72784,86.702682 L 177.82839,54.494196 L 183.66212,51.816438 L 207.14454,74.118074 z M 192.02477,67.970508 L 183.60588,59.559501 L 184.56952,71.392563 L 192.02477,67.970508 z M 210.48549,73.229778 L 201.7767,44.711512 L 207.58234,42.938608 L 214.81172,66.612299 L 229.24737,62.203997 L 230.72679,67.048572 L 210.48549,73.229778 z M 234.86247,66.38201 L 228.68682,36.958673 L 234.62769,35.711749 L 240.80333,65.135086 L 234.86247,66.38201 z M 243.22284,33.896939 L 254.25485,32.718908 C 256.74264,32.453284 258.65941,32.4411 260.00515,32.682356 C 261.814,33.011716 263.41419,33.76894 264.80572,34.954031 C 266.19721,36.139181 267.32122,37.651919 268.17774,39.492252 C 269.03422,41.332635 269.61199,43.653054 269.91106,46.453519 C 270.17378,48.914155 270.09437,51.067571 269.67281,52.913774 C 269.15734,55.168759 268.27816,57.043212 267.03525,58.53714 C 266.09732,59.668517 264.76841,60.614773 263.04851,61.375911 C 261.76122,61.93961 260.00284,62.340494 257.77334,62.578566 L 246.41506,63.791438 L 243.22284,33.896939 z M 249.79886,38.309584 L 251.91322,58.110101 L 256.41982,57.628872 C 258.10554,57.448871 259.31209,57.223785 260.03948,56.953612 C 260.99215,56.604396 261.76015,56.103025 262.34349,55.449495 C 262.92679,54.795983 263.35087,53.777914 263.61574,52.395287 C 263.88057,51.012683 263.8896,49.165836 263.64283,46.854742 C 263.39603,44.543681 263.00267,42.791364 262.46275,41.597786 C 261.92279,40.404252 261.24875,39.500007 260.44063,38.885049 C 259.63247,38.270141 258.65115,37.900568 257.49669,37.776328 C 256.63349,37.676033 254.97159,37.757249 252.51098,38.019975 L 249.79886,38.309584 z M 303.77538,62.02594 L 297.17648,61.779212 L 294.80847,54.8568 L 282.79928,54.407784 L 280.06441,61.139403 L 273.62946,60.898804 L 286.45455,31.292865 L 292.86901,31.532698 L 303.77538,62.02594 z M 293.05085,49.722115 L 289.328,38.418874 L 284.85345,49.415619 L 293.05085,49.722115 z M 312.396,33.000088 L 323.31046,34.991955 C 325.77174,35.441164 327.61361,35.97187 328.83608,36.584073 C 330.4778,37.411824 331.79831,38.590908 332.79762,40.121327 C 333.79688,41.651791 334.44688,43.420763 334.74763,45.428251 C 335.04833,47.435771 334.94587,49.824845 334.44026,52.595478 C 333.99596,55.029886 333.31043,57.072816 332.38368,58.724271 C 331.25118,60.74123 329.87752,62.290286 328.26267,63.371446 C 327.04293,64.191174 325.50056,64.72271 323.63558,64.966055 C 322.2414,65.142448 320.44144,65.029373 318.2357,64.62683 L 306.99844,62.576053 L 312.396,33.000088 z M 317.45459,39.093209 L 313.87954,58.682747 L 318.33812,59.49643 C 320.00588,59.800797 321.22681,59.926331 322.00092,59.873032 C 323.01347,59.807667 323.89195,59.54411 324.63638,59.08236 C 325.38077,58.620616 326.0756,57.764162 326.72089,56.512995 C 327.36613,55.26184 327.8974,53.493033 328.3147,51.206569 C 328.73195,48.920128 328.85052,47.128121 328.67042,45.830544 C 328.49026,44.532999 328.09965,43.474978 327.49857,42.656477 C 326.89744,41.838015 326.06082,41.205863 324.98869,40.76002 C 324.18915,40.419563 322.57219,40.027187 320.13781,39.582892 L 317.45459,39.093209 z M 359.15267,43.95233 L 369.44999,48.082478 C 371.7721,49.013883 373.47099,49.90152 374.54668,50.745392 C 375.99016,51.88415 377.04878,53.303065 377.72254,55.002141 C 378.39623,56.701247 378.6801,58.56436 378.57414,60.591484 C 378.46811,62.618628 377.89089,64.939186 376.84248,67.553164 C 375.92125,69.849918 374.84178,71.714924 373.60406,73.148188 C 372.0918,74.898539 370.43661,76.142267 368.63847,76.879376 C 367.27966,77.43917 365.66224,77.65218 363.78621,77.518408 C 362.38487,77.412994 360.6437,76.942951 358.56267,76.108275 L 347.96081,71.855979 L 359.15267,43.95233 z M 362.89339,50.932477 L 355.4805,69.414362 L 359.68699,71.101539 C 361.26044,71.732639 362.43175,72.099326 363.20093,72.201601 C 364.20615,72.339639 365.11956,72.256716 365.94117,71.952833 C 366.76274,71.648946 367.61453,70.948402 368.49654,69.851197 C 369.37852,68.753995 370.25212,67.126808 371.11737,64.969633 C 371.98256,62.812469 372.4564,61.080182 372.5389,59.772765 C 372.62134,58.46537 372.44975,57.350675 372.02412,56.428676 C 371.59844,55.506706 370.90482,54.720295 369.94325,54.069442 C 369.22774,53.57626 367.72163,52.869059 365.4249,51.947837 L 362.89339,50.932477 z M 375.97061,83.641311 L 390.94105,57.569156 L 410.27286,68.66934 L 407.74034,73.079909 L 393.67276,65.002407 L 390.35394,70.782386 L 403.44337,78.298242 L 400.92106,82.691026 L 387.83163,75.175171 L 383.75714,82.271207 L 398.32269,90.634639 L 395.80038,95.027424 L 375.97061,83.641311 z M 431.33908,109.07737 L 434.55771,114.34664 C 431.72432,116.23153 428.99322,117.08685 426.3644,116.91259 C 423.73554,116.7383 421.20337,115.59298 418.76789,113.47661 C 415.75447,110.85804 414.17222,107.67638 414.02114,103.93164 C 413.87005,100.18689 415.34592,96.529174 418.44875,92.95848 C 421.73091,89.181407 425.25521,87.095424 429.02165,86.700522 C 432.78805,86.305653 436.26052,87.489235 439.43908,90.251272 C 442.2151,92.663594 443.75707,95.443467 444.06498,98.590899 C 444.25397,100.45774 443.81733,102.52351 442.75504,104.78819 L 437.27784,101.93048 C 438.03181,100.52085 438.27904,99.105564 438.01955,97.684611 C 437.76,96.263668 437.02136,95.024101 435.80364,93.965904 C 434.12147,92.504179 432.23205,91.921915 430.13539,92.219112 C 428.03867,92.51633 425.81556,94.01684 423.46604,96.720647 C 420.97301,99.589584 419.7134,102.08131 419.68721,104.19583 C 419.661,106.31034 420.47349,108.08502 422.12469,109.51985 C 423.34243,110.57804 424.72618,111.10126 426.27597,111.08953 C 427.82572,111.07778 429.51342,110.40706 431.33908,109.07737 L 431.33908,109.07737 z M 449.91531,145.58549 L 445.60146,140.58578 L 449.05715,134.1371 L 441.20648,125.03824 L 434.41492,127.62068 L 430.20825,122.74519 L 460.62063,111.97107 L 464.81391,116.83104 L 449.91531,145.58549 z M 451.61961,129.35296 L 457.36013,118.9285 L 446.26079,123.14213 L 451.61961,129.35296 z M 451.70077,148.54461 L 476.65252,132.21842 L 479.97614,137.298 L 459.2631,150.85077 L 467.52726,163.48109 L 463.28855,166.25452 L 451.70077,148.54461 z M 477.17533,194.50608 L 474.32499,188.54941 L 479.3521,183.23382 L 474.16483,172.39341 L 466.93358,173.10275 L 464.15405,167.29407 L 496.32806,164.87997 L 499.09873,170.67015 L 477.17533,194.50608 z M 483.08041,179.28998 L 491.35576,170.7377 L 479.53961,171.89038 L 483.08041,179.28998 z M 478.30314,197.51699 L 507.11193,188.91901 L 509.71009,197.62453 L 491.61888,208.7167 L 512.81264,208.02006 L 515.41666,216.74523 L 486.60788,225.34321 L 484.99503,219.93911 L 507.67261,213.17098 L 483.28833,214.22059 L 481.61683,208.61997 L 502.59358,196.15297 L 479.916,202.9211 L 478.30314,197.51699 z M 491.31577,258.23496 L 490.43761,251.6901 L 496.85697,248.18025 L 495.25883,236.26941 L 488.16039,234.71817 L 487.30405,228.33591 L 518.65871,235.94378 L 519.51232,242.30571 L 491.31577,258.23496 z M 501.61833,245.57569 L 512.12459,239.98631 L 500.52744,237.44543 L 501.61833,245.57569 z "
   id="text8368" />
<path
   transform="translate(2,-4)"
   style="font-size:42px;font-style:normal;font-variant:normal;font-weight:bold;font-stretch:normal;text-align:start;line-height:125%;writing-mode:lr-tb;text-anchor:start;fill:#000000;fill-opacity:1;stroke:none;stroke-width:1px;stroke-linecap:butt;stroke-linejoin:miter;stroke-opacity:1;font-family:Arial"
   d="M 69.748596,398.6505 L 89.774416,383.72091 L 84.442418,376.56883 L 88.519925,373.52898 L 102.79987,392.68339 L 98.722367,395.72325 L 93.402626,388.58761 L 73.376806,403.5172 L 69.748596,398.6505 z M 81.202827,413.46 L 104.31177,394.22857 L 108.19479,398.89449 L 85.085845,418.12593 L 81.202827,413.46 z M 88.720471,422.61217 L 110.59971,401.99251 L 125.88864,418.21538 L 122.18737,421.70356 L 111.06176,409.89833 L 106.21131,414.46954 L 116.56334,425.45393 L 112.877,428.92804 L 102.52498,417.94365 L 96.570123,423.55569 L 108.08956,435.77881 L 104.40323,439.25293 L 88.720471,422.61217 z M 108.13848,442.90741 L 127.88317,420.23543 L 137.51799,428.62625 C 139.94083,430.73631 141.52395,432.47308 142.26735,433.83658 C 143.01067,435.2001 143.25884,436.68984 143.01186,438.30581 C 142.76479,439.92178 142.05765,441.39993 140.89043,442.74025 C 139.40887,444.44141 137.68545,445.41069 135.72016,445.64808 C 133.75481,445.88545 131.65152,445.28202 129.41028,443.83777 C 129.89721,445.27711 130.16208,446.62277 130.2049,447.87473 C 130.24767,449.12669 130.04781,451.11007 129.60531,453.82488 L 128.52161,460.65877 L 123.04693,455.89095 L 124.0338,448.07532 C 124.39383,445.28868 124.55712,443.47741 124.52367,442.64149 C 124.49019,441.80558 124.30525,441.09156 123.96884,440.49943 C 123.6324,439.9073 122.93838,439.15331 121.88676,438.23746 L 120.95885,437.42936 L 112.71618,446.89406 L 108.13848,442.90741 z M 124.11045,433.8105 L 127.49733,436.76008 C 129.69337,438.6726 131.14542,439.774 131.85351,440.0643 C 132.56154,440.35461 133.26775,440.40762 133.97216,440.22334 C 134.67651,440.03906 135.325,439.60669 135.91764,438.92622 C 136.58205,438.16327 136.91492,437.36991 136.91624,436.54613 C 136.9175,435.72235 136.60086,434.92536 135.9663,434.15515 C 135.64,433.78036 134.54896,432.78486 132.69316,431.16865 L 129.1207,428.05745 L 124.11045,433.8105 z M 131.24063,462.61621 L 148.32012,437.87429 L 158.83459,445.13249 C 161.47865,446.95773 163.24643,448.50615 164.13795,449.77775 C 165.0294,451.04937 165.44296,452.50191 165.37863,454.13538 C 165.31422,455.76887 164.77719,457.31695 163.76752,458.77963 C 162.48594,460.63612 160.88201,461.79243 158.9557,462.24857 C 157.02934,462.70471 154.87167,462.34079 152.4827,461.15681 C 153.12786,462.53252 153.54187,463.84001 153.72473,465.07929 C 153.90753,466.31857 153.9312,468.31185 153.79574,471.05915 L 153.48473,477.97144 L 147.51022,473.8472 L 147.61498,465.9702 C 147.66045,463.16077 147.61972,461.34261 147.49281,460.51571 C 147.36586,459.68881 147.10206,459.00001 146.70141,458.44931 C 146.30073,457.89862 145.52658,457.22716 144.37895,456.43493 L 143.36632,455.73591 L 136.23627,466.06473 L 131.24063,462.61621 z M 146.09251,451.78665 L 149.78861,454.33809 C 152.18514,455.99245 153.75149,456.92419 154.48764,457.13331 C 155.22375,457.34243 155.93146,457.31596 156.61077,457.0539 C 157.29003,456.79185 157.88598,456.28953 158.39863,455.54693 C 158.97335,454.71433 159.21521,453.88866 159.1242,453.06992 C 159.03314,452.25119 158.62917,451.49471 157.9123,450.80046 C 157.54605,450.4646 156.35032,449.59765 154.32508,448.19959 L 150.42646,445.50835 L 146.09251,451.78665 z M 180.42029,492.1672 L 174.57217,489.1003 L 175.41913,481.83325 L 164.77628,476.25187 L 159.40702,481.1473 L 153.70419,478.15659 L 178.03761,456.96981 L 183.72227,459.951 L 180.42029,492.1672 z M 176.04632,476.44244 L 177.55898,464.63843 L 168.78157,472.63262 L 176.04632,476.44244 z M 203.3104,469.0206 L 213.89272,472.35339 C 216.27909,473.10499 218.04073,473.86048 219.17765,474.61985 C 220.70377,475.64521 221.86752,476.97925 222.6689,478.622 C 223.47021,480.26478 223.89534,482.10081 223.94429,484.13011 C 223.99317,486.15944 223.59461,488.51726 222.74861,491.20358 C 222.00522,493.56391 221.07113,495.50581 219.94633,497.02929 C 218.57196,498.88988 217.01644,500.25622 215.27975,501.12832 C 213.96759,501.79011 212.37113,502.12585 210.49037,502.13554 C 209.08507,502.13731 207.31311,501.80143 205.1745,501.12789 L 194.27921,497.69653 L 203.3104,469.0206 z M 207.57257,475.69513 L 201.59079,494.68854 L 205.9137,496.04999 C 207.5307,496.55925 208.72656,496.83554 209.5013,496.87886 C 210.51412,496.93983 211.41855,496.78749 212.21459,496.42183 C 213.01059,496.05617 213.80647,495.29271 214.60224,494.13143 C 215.39796,492.97016 216.14493,491.28108 216.84313,489.0642 C 217.54129,486.84734 217.88164,485.08396 217.86419,483.77406 C 217.84668,482.46418 217.59057,481.36582 217.09587,480.47897 C 216.60112,479.59215 215.84954,478.86093 214.84113,478.2853 C 214.0901,477.84813 212.53443,477.25785 210.17414,476.51447 L 207.57257,475.69513 z M 223.39574,506.38537 L 228.73066,476.79804 L 250.66888,480.75375 L 249.76638,485.75897 L 233.80214,482.88044 L 232.61943,489.4397 L 247.47364,492.11808 L 246.57478,497.10312 L 231.72057,494.42474 L 230.26857,502.4775 L 246.79792,505.45793 L 245.89906,510.44297 L 223.39574,506.38537 z M 261.2443,502.12105 L 267.1548,501.59234 C 267.49498,503.57744 268.20494,505.03901 269.28467,505.97703 C 270.36438,506.91507 271.82706,507.39119 273.67272,507.4054 C 275.62773,507.42046 277.10401,507.01825 278.10158,506.19875 C 279.09911,505.37927 279.60215,504.41583 279.6107,503.30844 C 279.61616,502.59753 279.41233,501.99096 278.99921,501.48873 C 278.58606,500.98652 277.86139,500.54685 276.82522,500.1697 C 276.11619,499.91815 274.49949,499.46819 271.97512,498.81981 C 268.72752,497.98814 266.45202,496.97938 265.14862,495.79351 C 263.31571,494.12506 262.40842,492.10142 262.42674,489.72256 C 262.43853,488.19138 262.88363,486.76264 263.76204,485.43633 C 264.64044,484.11008 265.8992,483.10461 267.53831,482.41992 C 269.17741,481.73528 271.15221,481.40185 273.4627,481.41962 C 277.23601,481.44871 280.06988,482.29771 281.96433,483.96661 C 283.85873,485.63558 284.84316,487.85123 284.91762,490.61358 L 278.84543,490.83342 C 278.59755,489.28657 278.049,488.17147 277.19976,487.48813 C 276.35049,486.80484 275.0714,486.45659 273.36248,486.44341 C 271.59885,486.42985 270.21524,486.78151 269.21165,487.49838 C 268.5655,487.95829 268.23943,488.57787 268.23344,489.35712 C 268.22796,490.06805 268.52404,490.67875 269.1217,491.18921 C 269.88234,491.83768 271.7365,492.5219 274.68418,493.24187 C 277.63183,493.96188 279.81029,494.69987 281.21957,495.45585 C 282.6288,496.21186 283.72835,497.23891 284.5182,498.53701 C 285.30801,499.83514 285.6956,501.43436 285.68099,503.33468 C 285.6677,505.05729 285.17677,506.66684 284.20821,508.16333 C 283.2396,509.65982 281.87752,510.76704 280.12196,511.48498 C 278.36636,512.20292 276.18295,512.55184 273.57171,512.53173 C 269.77103,512.50246 266.85894,511.60158 264.83543,509.82911 C 262.81191,508.05664 261.61487,505.48729 261.2443,502.12105 L 261.2443,502.12105 z M 287.80632,497.27432 C 287.44352,494.2334 287.59382,491.62693 288.2572,489.45491 C 288.75459,487.85348 289.51835,486.3786 290.5485,485.03025 C 291.57864,483.68195 292.75803,482.6325 294.08668,481.8819 C 295.85259,480.87266 297.95057,480.22307 300.38061,479.93313 C 304.77909,479.40841 308.46133,480.35287 311.42735,482.76652 C 314.39332,485.18023 316.16623,488.8171 316.74607,493.67715 C 317.32101,498.4965 316.46081,502.42341 314.16548,505.4579 C 311.87009,508.49239 308.52996,510.27121 304.14506,510.79434 C 299.70582,511.32395 296.01461,510.39088 293.07142,507.99513 C 290.12821,505.59939 288.37318,502.02579 287.80632,497.27432 L 287.80632,497.27432 z M 293.99286,496.32971 C 294.39614,499.71005 295.48243,502.17932 297.25176,503.73752 C 299.02106,505.29573 301.10716,505.9315 303.51005,505.64483 C 305.91291,505.35816 307.78152,504.25747 309.11587,502.34275 C 310.45018,500.42804 310.91084,497.7398 310.49787,494.278 C 310.0897,490.85697 309.03516,488.39425 307.33425,486.88981 C 305.6333,485.38543 303.54066,484.78142 301.05634,485.07778 C 298.572,485.3742 296.67123,486.46496 295.35403,488.35007 C 294.03682,490.23523 293.58309,492.8951 293.99286,496.32971 L 293.99286,496.32971 z M 323.29593,507.39028 L 316.32118,478.39912 L 322.22309,476.97923 L 328.013,501.04548 L 342.68803,497.51493 L 343.87288,502.43984 L 323.29593,507.39028 z M 366.42721,494.51644 L 361.67724,482.78852 L 344.93392,470.78483 L 351.52969,468.11345 L 362.55258,476.4821 L 364.51214,462.85538 L 370.99387,460.23019 L 367.29999,480.55547 L 372.03457,492.24538 L 366.42721,494.51644 z M 406.28009,462.05327 L 412.2918,460.6447 C 413.19565,463.92554 413.1536,466.78714 412.16567,469.22948 C 411.17769,471.67185 409.29767,473.7186 406.52559,475.36972 C 403.09571,477.41265 399.57876,477.92009 395.97473,476.89204 C 392.37069,475.864 389.35831,473.3179 386.93758,469.25373 C 384.37693,464.95467 383.49824,460.95468 384.30149,457.25376 C 385.10476,453.55289 387.3153,450.62501 390.9331,448.47011 C 394.09281,446.58814 397.21554,445.99326 400.30131,446.68548 C 402.13357,447.09002 403.95903,448.15102 405.7777,449.86849 L 401.34989,454.17671 C 400.24691,453.01959 398.98001,452.34199 397.5492,452.14391 C 396.11839,451.94589 394.70996,452.25965 393.32392,453.08519 C 391.4093,454.22562 390.26516,455.83803 389.89149,457.92242 C 389.51783,460.00687 390.24752,462.58782 392.08056,465.66529 C 394.02553,468.93073 395.99811,470.90665 397.99829,471.59305 C 399.99846,472.27947 401.93824,472.06297 403.81763,470.94354 C 405.20366,470.11799 406.13353,468.96739 406.60724,467.49172 C 407.08093,466.01609 406.97187,464.20328 406.28009,462.05327 L 406.28009,462.05327 z M 411.35233,454.56153 C 409.49088,452.1297 408.29227,449.81031 407.7565,447.60333 C 407.36861,445.97193 407.27439,444.31369 407.47387,442.62862 C 407.67336,440.9436 408.15354,439.4397 408.91441,438.1169 C 409.91977,436.34877 411.39409,434.72094 413.33738,433.2334 C 416.85487,430.54096 420.50457,429.47764 424.28648,430.04344 C 428.06838,430.6093 431.44684,432.83552 434.42187,436.72209 C 437.37194,440.57616 438.63242,444.39345 438.20332,448.174 C 437.77418,451.95458 435.80631,455.18694 432.2997,457.87109 C 428.74963,460.5885 425.09802,461.6662 421.34487,461.10418 C 417.59171,460.54218 414.26087,458.3613 411.35233,454.56153 L 411.35233,454.56153 z M 416.1945,450.59681 C 418.26372,453.30008 420.45649,454.8714 422.77283,455.31078 C 425.08917,455.75019 427.20813,455.23444 429.12973,453.76354 C 431.05131,452.29266 432.09843,450.39353 432.27112,448.06612 C 432.44377,445.73874 431.47057,443.19085 429.3515,440.42244 C 427.25735,437.68664 425.09523,436.10477 422.86515,435.6768 C 420.63506,435.2489 418.52665,435.79531 416.53992,437.31603 C 414.5532,438.8368 413.47333,440.74378 413.30032,443.03697 C 413.12732,445.33021 414.09205,447.85015 416.1945,450.59681 L 416.1945,450.59681 z M 426.1094,423.8328 L 434.73271,415.46257 C 436.43972,413.8057 437.78165,412.64129 438.7585,411.96934 C 439.73537,411.29745 440.77392,410.86575 441.87414,410.67423 C 442.97438,410.48278 444.10946,410.54802 445.27939,410.86997 C 446.44932,411.19199 447.48661,411.81897 448.39124,412.75092 C 449.37205,413.76142 449.99968,414.95275 450.27414,416.3249 C 450.54859,417.69712 450.42456,419.04645 449.90204,420.3729 C 451.588,419.47952 453.23171,419.1511 454.83317,419.38763 C 456.43462,419.62422 457.84002,420.36545 459.04938,421.61134 C 460.00161,422.5924 460.69958,423.76786 461.14328,425.13771 C 461.58696,426.5076 461.68294,427.85296 461.43124,429.17378 C 461.17951,430.49464 460.53674,431.78065 459.50292,433.03182 C 458.85312,433.81497 457.14958,435.56378 454.39231,438.27824 L 447.04925,445.40579 L 426.1094,423.8328 z M 433.95041,423.19543 L 438.79258,428.184 L 441.64739,425.41297 C 443.34459,423.76561 444.37539,422.71742 444.73982,422.2684 C 445.3997,421.45643 445.73591,420.62994 445.74843,419.78894 C 445.76095,418.94799 445.42917,418.17923 444.75308,417.48267 C 444.10555,416.81559 443.39549,416.45212 442.6229,416.39224 C 441.85031,416.33242 441.05818,416.61068 440.24651,417.22702 C 439.76724,417.59698 438.50243,418.77704 436.45206,420.76721 L 433.95041,423.19543 z M 442.27779,431.77459 L 447.87699,437.54309 L 451.90905,433.62936 C 453.4787,432.10579 454.4316,431.09511 454.76775,430.59734 C 455.30095,429.85115 455.54973,429.05237 455.51408,428.20098 C 455.4784,427.34964 455.08919,426.54136 454.34645,425.77613 C 453.71796,425.12866 453.02774,424.73164 452.27579,424.58506 C 451.52382,424.43853 450.75109,424.55029 449.95759,424.92036 C 449.16409,425.29047 447.7765,426.43728 445.79481,428.3608 L 442.27779,431.77459 z M 468.59974,424.00992 L 445.30427,405.00485 L 453.38078,395.10507 C 455.4118,392.61559 457.09675,390.97742 458.43563,390.19054 C 459.77452,389.40374 461.25551,389.10777 462.87859,389.30264 C 464.50167,389.49758 466.0018,390.15681 467.37898,391.28031 C 469.12693,392.70637 470.15115,394.39772 470.45164,396.35435 C 470.75212,398.31104 470.21667,400.43266 468.84527,402.7192 C 470.2682,402.18622 471.60464,401.87819 472.85458,401.79511 C 474.10451,401.71209 476.09329,401.84804 478.82093,402.20297 L 485.68615,403.06625 L 481.09693,408.69149 L 473.25359,407.95657 C 470.45682,407.68638 468.64123,407.58145 467.80682,407.64176 C 466.97242,407.70212 466.26471,407.90994 465.68372,408.26522 C 465.10272,408.62054 464.37145,409.33846 463.4899,410.419 L 462.71207,411.37243 L 472.43705,419.30633 L 468.59974,424.00992 z M 458.99369,408.33888 L 461.83279,404.85886 C 463.67366,402.60243 464.72778,401.11569 464.99515,400.39864 C 465.26253,399.68163 465.29279,398.97408 465.08595,398.27597 C 464.87911,397.57791 464.42609,396.94366 463.72691,396.37322 C 462.94298,395.7337 462.13932,395.42653 461.31592,395.45171 C 460.49253,395.47695 459.70614,395.81908 458.95674,396.47808 C 458.59265,396.81627 457.63277,397.93877 456.07709,399.8456 L 453.08243,403.51631 L 458.99369,408.33888 z M 487.46668,400.24551 L 462.12676,384.06651 L 474.12306,365.27764 L 478.40976,368.0146 L 469.68016,381.6871 L 475.29781,385.27384 L 483.42042,372.55203 L 487.68983,375.27796 L 479.56722,387.99977 L 486.46397,392.4032 L 495.50258,378.24672 L 499.77199,380.97265 L 487.46668,400.24551 z "
   id="text9437" />
<path
   style="fill:none;fill-rule:evenodd;stroke:#000000;stroke-width:1px;stroke-linecap:butt;stroke-linejoin:miter;stroke-opacity:1;opacity:0"
   d="M 64.062142,390.64042 C 221.78712,618.44412 502.0858,489.47782 527.47536,299.35521 L 574.31599,455.39598"
   id="path11574"
   sodipodi:nodetypes="ccc" /><path
   style="opacity:1;fill:#000000;fill-opacity:1;stroke:none;stroke-width:1.5379498;stroke-linecap:butt;stroke-miterlimit:4;stroke-dasharray:none;stroke-opacity:1"
   d="M 281.00622,10.221904 C 206.90016,10.221904 140.51807,40.169746 93.18089,87.506975 C 45.843713,134.8442 16.827051,199.89075 16.826966,271.56339 C 16.826966,343.23601 45.843628,408.12737 93.18089,455.46461 C 140.51815,502.80186 206.90016,532.74969 281.00622,532.74969 C 355.11229,532.74969 421.49438,502.80186 468.83156,455.46461 C 516.16874,408.12737 544.91953,343.23601 544.91944,271.56339 C 544.91944,199.89074 516.16882,134.8442 468.83156,87.506975 C 421.4943,40.169746 355.11229,10.221904 281.00622,10.221904 z M 281.00622,17.826258 C 349.04016,17.826258 411.51404,45.508979 457.39177,91.386748 C 503.26951,137.26452 531.88341,201.09604 531.88341,271.56339 C 531.88349,342.03074 503.26951,405.70708 457.39177,451.58484 C 411.51404,497.4626 349.04016,525.14533 281.00622,525.14533 C 212.97229,525.14533 150.49841,497.4626 104.62068,451.58484 C 58.74294,405.70708 30.129043,342.03074 30.129043,271.56339 C 30.129128,201.09604 58.74294,137.26452 104.62068,91.386748 C 150.49841,45.508979 212.97229,17.826258 281.00622,17.826258 z "
   id="path11711" /></svg>