<?xml version="1.0" encoding="UTF-8" standalone="no"?>
<!-- Created with Inkscape (http://www.inkscape.org/) -->

<svg
   xmlns:dc="http://purl.org/dc/elements/1.1/"
   xmlns:cc="http://creativecommons.org/ns#"
   xmlns:rdf="http://www.w3.org/1999/02/22-rdf-syntax-ns#"
   xmlns:svg="http://www.w3.org/2000/svg"
   xmlns="http://www.w3.org/2000/svg"
   xmlns:xlink="http://www.w3.org/1999/xlink"
   xmlns:sodipodi="http://sodipodi.sourceforge.net/DTD/sodipodi-0.dtd"
   xmlns:inkscape="http://www.inkscape.org/namespaces/inkscape"
   width="666.03125"
   height="976.672"
   id="svg2"
   version="1.1"
   inkscape:version="0.48.0 r9654"
   sodipodi:docname="Documento nuevo 1">
  <defs
     id="defs4">
    <linearGradient
       id="gold"
       x1="0"
       y1="0"
       x2="1"
       y2="1">
      <stop
         style="stop-color:#c04000"
         offset="0%"
         id="stop6" />
      <stop
         style="stop-color:#ffe000"
         offset="50%"
         id="stop8" />
      <stop
         style="stop-color:#c04000"
         offset="100%"
         id="stop10" />
    </linearGradient>
    <linearGradient
       id="gold-3"
       x1="0"
       y1="0"
       x2="1"
       y2="1">
      <stop
         style="stop-color:#c04000"
         offset="0%"
         id="stop6-8" />
      <stop
         style="stop-color:#ffe000"
         offset="50%"
         id="stop8-7" />
      <stop
         style="stop-color:#c04000"
         offset="100%"
         id="stop10-4" />
    </linearGradient>
    <linearGradient
       id="gold-9"
       x1="0"
       y1="0"
       x2="1"
       y2="1">
      <stop
         style="stop-color:#c04000"
         offset="0%"
         id="stop6-6" />
      <stop
         style="stop-color:#ffe000"
         offset="50%"
         id="stop8-8" />
      <stop
         style="stop-color:#c04000"
         offset="100%"
         id="stop10-7" />
    </linearGradient>
    <linearGradient
       id="gold-8"
       x1="0"
       y1="0"
       x2="1"
       y2="1">
      <stop
         style="stop-color:#c04000"
         offset="0%"
         id="stop6-62" />
      <stop
         style="stop-color:#ffe000"
         offset="50%"
         id="stop8-0" />
      <stop
         style="stop-color:#c04000"
         offset="100%"
         id="stop10-44" />
    </linearGradient>
    <linearGradient
       inkscape:collect="always"
       xlink:href="#gold-2"
       id="linearGradient3120"
       gradientUnits="userSpaceOnUse"
       gradientTransform="matrix(1.0251166,0,0,0.97549879,-10.271236,14.692274)"
       x1="9.0235682"
       y1="8.6505594"
       x2="97.265495"
       y2="96.892487" />
    <linearGradient
       id="gold-2"
       x1="0"
       y1="0"
       x2="1"
       y2="1">
      <stop
         style="stop-color:#c04000"
         offset="0%"
         id="stop6-9" />
      <stop
         style="stop-color:#ffe000"
         offset="50%"
         id="stop8-09" />
      <stop
         style="stop-color:#c04000"
         offset="100%"
         id="stop10-6" />
    </linearGradient>
  </defs>
  <sodipodi:namedview
     id="base"
     pagecolor="#ffffff"
     bordercolor="#666666"
     borderopacity="1.0"
     inkscape:pageopacity="0.0"
     inkscape:pageshadow="2"
     inkscape:zoom="0.12374369"
     inkscape:cx="-143.06726"
     inkscape:cy="-1299.8334"
     inkscape:document-units="px"
     inkscape:current-layer="layer1"
     showgrid="false"
     showguides="true"
     inkscape:guide-bbox="true"
     fit-margin-top="25"
     fit-margin-left="25"
     fit-margin-right="25"
     fit-margin-bottom="25"
     inkscape:window-width="1280"
     inkscape:window-height="738"
     inkscape:window-x="-8"
     inkscape:window-y="-8"
     inkscape:window-maximized="1" />
  <metadata
     id="metadata7">
    <rdf:RDF>
      <cc:Work
         rdf:about="">
        <dc:format>image/svg+xml</dc:format>
        <dc:type
           rdf:resource="http://purl.org/dc/dcmitype/StillImage" />
        <dc:title></dc:title>
      </cc:Work>
    </rdf:RDF>
  </metadata>
  <g
     inkscape:label="Capa 1"
     inkscape:groupmode="layer"
     id="layer1"
     transform="translate(1419.3438,477.85947)">
    <use
       xlink:href="#star"
       x="100"
       y="0"
       id="use27"
       width="1"
       height="1" />
    <use
       xlink:href="#star"
       x="100"
       y="0"
       id="use27-3"
       width="1"
       height="1" />
    <use
       xlink:href="#star"
       x="100"
       y="0"
       id="use27-31"
       width="1"
       height="1" />
    <use
       xlink:href="#star"
       x="100"
       y="0"
       id="use27-2"
       transform="translate(-187.81713,94.355486)"
       width="200"
       height="100" />
    <g
       id="g4431">
      <path
         sodipodi:nodetypes="cccccccccccccc"
         inkscape:connector-curvature="0"
         d="m -782.97524,-217.52112 c -5.78909,7.72405 -17.74023,17.00905 -16.91788,31.31187 l 0,510.49147 c -0.18515,123.51724 -90.12443,104.1946 -202.91268,122.07257 -53.3811,7.43234 -74.5778,16.7314 -82.9085,22.97024 -8.3306,-6.23884 -29.5274,-15.5379 -82.908,-22.97024 -112.7887,-17.87797 -202.7286,1.44467 -202.9131,-122.07257 l 0,-509.90105 c 0.8163,-18.88645 -3.4896,-28.26634 -16.7783,-32.37614 l 25.8517,-32.85714 c 7.4652,4.06005 6.057,11.86312 28.1763,13.33715 l 493.83966,0 c 5.49299,-0.23615 16.35201,-5.80796 26.53971,-13.55566 z"
         id="path4115"
         style="fill:#eac102;stroke:#000000;stroke-width:7.16233397;stroke-miterlimit:4;stroke-dasharray:none" />
      <path
         inkscape:connector-curvature="0"
         id="path3965"
         d="m -1323.5446,203.78571 0.125,89.0625 c 0.1536,102.84201 75.0594,86.73959 168.9687,101.625 20.3917,2.8392 34.6823,6.00112 45.3125,9.09375 l 0,-199.78125 -214.4062,0 z"
         style="fill:#b25211;fill-opacity:1;stroke:#000000;stroke-width:5.963449;stroke-miterlimit:4;stroke-dasharray:none" />
      <path
         inkscape:connector-curvature="0"
         id="path4132"
         d="m -1323.5938,166.21875 0.063,37.5625 214.4062,0 0,-43.125 -9.4375,-4.71875 -7.875,-6.4375 -10,-2.125 -9.2813,2.125 -11.4374,8.5625 -25.6876,-0.6875 -13.5937,-5.71875 -10,0 -7.125,7.125 -15,3.59375 -5,-4.3125 -13.5937,-0.6875 -5,-0.71875 -3.5626,3.5625 -6.4374,-6.4375 -5.6876,7.875 -5.7187,2.84375 -17.875,-9.28125 -5,5 -12.125,-2.15625 -15.0313,8.15625 z"
         style="fill:#b25211;fill-opacity:1;stroke:#000000;stroke-width:5.963449;stroke-miterlimit:4;stroke-dasharray:none" />
      <path
         id="path3175"
         d="m -1323.5938,166.21875 15.0313,-8.15625 12.125,2.15625 5,-5 17.875,9.28125 5.7187,-2.84375 5.6876,-7.875 6.4374,6.4375 3.5626,-3.5625 5,0.71875 13.5937,0.6875 5,4.3125 15,-3.59375 7.125,-7.125 10,0 13.5937,5.71875 25.6876,0.6875 11.4374,-8.5625 9.2813,-2.125 10,2.125 7.875,6.4375 9.4375,4.71875 0,-28.0625 -214.5,0 0.031,33.625 z"
         style="fill:#0071bc;stroke:#000000;stroke-width:5.963449;stroke-miterlimit:4;stroke-dasharray:none"
         inkscape:connector-curvature="0" />
      <path
         inkscape:connector-curvature="0"
         id="path3103"
         d="m -1324.1071,-186.21429 0.4062,271.843754 214.5625,0 0,-271.843754 -214.9687,0 z"
         style="fill:#0071bc;stroke:#000000;stroke-width:5.96324968;stroke-miterlimit:4;stroke-dasharray:none" />
      <path
         inkscape:connector-curvature="0"
         id="path3974"
         d="m -847.63839,296.72321 -214.53121,0 0,106.90625 c 10.6767,-3.11287 25.2818,-6.30209 45.7812,-9.15625 92.64112,-14.68445 166.61769,0.56236 168.75001,-97.75 z"
         style="fill:#242a8c;fill-opacity:1;stroke:#000000;stroke-width:5.963449;stroke-miterlimit:4;stroke-dasharray:none" />
      <path
         inkscape:connector-curvature="0"
         id="path3178"
         d="m -1062.1696,132.59821 0,164.125 214.53121,0 c 0.0292,-1.34541 0.18542,-2.4866 0.1875,-3.875 l 0.0937,-160.25 -214.81241,0 z"
         style="fill:#0071bc;stroke:#000000;stroke-width:5.963449;stroke-miterlimit:4;stroke-dasharray:none" />
      <path
         inkscape:connector-curvature="0"
         id="path4232"
         d="m -941.26815,226.09438 c -19.06794,6.7114 -16.75063,-10.66751 -37.5215,-6.71133 -20.77093,3.95622 -27.73065,22.87928 -37.48195,16.15782 -9.7512,-6.72145 -14.1862,-0.81746 -17.1455,-7.95268 -2.9592,-7.13521 8.2161,-14.54303 17.7081,-13.27139 9.492,1.27162 22.66138,-8.2757 22.66138,-8.2757 0,0 4.98538,-5.34891 15.13148,-1.3423 10.14612,4.00663 19.89736,10.72807 24.98641,7.55908 5.08905,-3.16898 11.09136,1.84688 15.49436,6.28748 4.40302,4.44059 -3.83278,7.54902 -3.83278,7.54902 z"
         style="fill:#e3e4e5;stroke:#000000;stroke-width:0.74812722px;stroke-linecap:butt;stroke-linejoin:miter;stroke-opacity:1" />
      <path
         inkscape:connector-curvature="0"
         id="path3979"
         d="m -847.26339,-36.620536 -214.90621,0 0,122.25 214.84371,0 0.0625,-122.25 z"
         style="fill:#242a8c;fill-opacity:1;stroke:#000000;stroke-width:5.963449;stroke-miterlimit:4;stroke-dasharray:none" />
      <path
         inkscape:connector-curvature="0"
         id="path3082"
         d="m -1062.1696,-186.21429 0,149.593754 214.90621,0 0.0937,-149.593754 -214.99991,0 z"
         style="fill:#0071bc;stroke:#000000;stroke-width:5.963449;stroke-miterlimit:4;stroke-dasharray:none" />
      <path
         inkscape:connector-curvature="0"
         id="path4429"
         d="m -977.82766,-63.351304 -1.01015,-7.576144 13.63705,-4.545687 10.10153,-1.010152 4.54569,8.586297 1.51523,6.565991 6.06091,7.071068 2.52538,1.515229 8.5863,5.555839 7.57614,3.535534 c 0,0 4.54569,1.010152 7.57615,1.010152 3.03045,0 17.67767,5.050763 17.67767,5.050763 l 5.05076,3.030458 6.56599,6.565991 8.5863,3.535534 8.58629,6.060915 10.60661,4.545687 7.57614,2.525381 2.52538,5.0507625 0.50508,7.07106783 c 0,0 -3.03046,14.64721267 -5.05076,16.66751767 -2.02031,2.020305 -33.33504,2.020305 -33.33504,2.020305 0,0 -39.39595,-1.515229 -47.98224,-4.04061 -8.5863,-2.525382 -43.94164,-13.1319839 -43.94164,-13.1319839 l -13.13198,-14.1421351 0,-12.626907 c 0,0 0,4.545686 1.01015,-3.535534 1.01015,-8.08122 9.59645,-9.596449 9.59645,-9.596449 l 2.0203,-4.04061 4.04061,-3.030458 3.03046,-6.565991 -2.52538,-9.59645 z"
         style="fill:#e3e4e5;stroke:#000000;stroke-width:3;stroke-linecap:butt;stroke-linejoin:miter;stroke-miterlimit:4;stroke-opacity:1;stroke-dasharray:none" />
      <g
         style="stroke-width:3;stroke-miterlimit:4;stroke-dasharray:none"
         id="g4340">
        <path
           inkscape:connector-curvature="0"
           style="fill:#b25211;fill-opacity:1;stroke:#000000;stroke-width:3;stroke-linecap:butt;stroke-linejoin:miter;stroke-miterlimit:4;stroke-opacity:1;stroke-dasharray:none"
           id="path5104"
           d="m -1003.799,18.084806 c 3.95082,14.368081 26.92995,34.541587 48.89549,38.964176 9.58812,5.387066 61.43187,0.164788 105.61772,-7.946254 l 2e-5,-47.7742779 c -9.48063,0.26173 -19.46224,-0.93509008 -28.11086,-3.3414502 -32.83069,-9.1346259 -72.12609,-24.5758959 -101.32429,-13.5584109 -9.98508,3.767716 -23.62828,15.82940954 -25.07808,33.656217 z"
           sodipodi:nodetypes="ccccssc" />
        <path
           inkscape:connector-curvature="0"
           style="fill:none;stroke:#000000;stroke-width:3;stroke-linecap:butt;stroke-linejoin:miter;stroke-miterlimit:4;stroke-opacity:1;stroke-dasharray:none"
           id="path5118"
           d="M -849.28574,15.461924 C -859.40191,15.67848 -869.69376,13.802452 -879.53538,11.75239 -901.11404,7.257425 -950.91211,-10.553007 -975.2531,0.11394136 -985.38446,4.5538045 -993.7646,11.240642 -997.078,30.258877"
           sodipodi:nodetypes="cssc" />
        <path
           inkscape:connector-curvature="0"
           style="fill:none;stroke:#000000;stroke-width:3;stroke-linecap:butt;stroke-linejoin:miter;stroke-miterlimit:4;stroke-opacity:1;stroke-dasharray:none"
           id="path5120"
           d="m -988.27276,39.452066 c 1.78593,-14.270879 8.89893,-21.763887 20.37249,-25.499654 21.4754,-6.9923308 64.79237,7.363705 88.55319,10.98642 9.87851,1.506145 19.0372,2.03464 30.06133,1.532655"
           sodipodi:nodetypes="cssc" />
        <path
           inkscape:connector-curvature="0"
           style="fill:none;stroke:#000000;stroke-width:3;stroke-linecap:butt;stroke-linejoin:miter;stroke-miterlimit:4;stroke-opacity:1;stroke-dasharray:none"
           id="path5142"
           d="m -978.68796,46.761833 c 3.15106,-14.419154 10.93741,-17.823371 20.61017,-19.972145 16.33969,-3.629807 61.08489,9.152028 77.15602,10.975125 11.77998,1.336305 20.62956,2.649189 31.63602,2.009744"
           sodipodi:nodetypes="cssc" />
        <path
           inkscape:connector-curvature="0"
           style="fill:none;stroke:#000000;stroke-width:3;stroke-linecap:butt;stroke-linejoin:miter;stroke-miterlimit:4;stroke-opacity:1;stroke-dasharray:none;display:inline"
           id="path5142-1"
           d="m -967.6751,52.845182 c 2.02267,-5.617843 5.98213,-12.169415 16.67213,-12.79685 21.72849,-1.275326 57.34661,13.760181 96.15079,10.223259"
           sodipodi:nodetypes="csc" />
        <path
           inkscape:connector-curvature="0"
           style="fill:#b25211;fill-opacity:1;stroke:#000000;stroke-width:3;stroke-linecap:butt;stroke-linejoin:miter;stroke-miterlimit:4;stroke-opacity:1;stroke-dasharray:none"
           id="path5108"
           d="m -942.468,59.279745 c -26.28829,-7.484046 -45.71015,-24.059831 -54.98937,-65.8788451 1.64892,-4.6065029 6.04284,-8.1511509 9.6579,-9.4367389 5.37747,-1.912315 8.85973,0.532879 5.21441,2.036321 5.87729,25.547037 16.11692,67.683857 52.16462,72.703769 z"
           sodipodi:nodetypes="ccsccc" />
        <path
           style="fill:none;stroke:#000000;stroke-width:3;stroke-linecap:butt;stroke-linejoin:miter;stroke-miterlimit:4;stroke-opacity:1;stroke-dasharray:none"
           d="m -991.95661,-13.739391 c 12.5348,54.251577 32.74039,67.151585 53.08708,72.84723"
           id="path9407"
           inkscape:connector-curvature="0"
           sodipodi:nodetypes="cc" />
      </g>
      <path
         style="fill:#eac102;stroke:#000000;stroke-width:3.61504698;stroke-linecap:butt;stroke-linejoin:miter;stroke-miterlimit:4;stroke-opacity:1;stroke-dasharray:none;display:inline"
         d="m -1141.307,-131.96174 -49.153,2.18609 -46.5301,57.483104 20.0896,-2.06251 -55.7107,54.19234 21.8362,-2.24183 -37.2935,54.75269 89.4939,-65.90935 -26.8247,2.80715 53.9682,-54.39015 -20.4414,2.13568 z"
         id="path4107"
         inkscape:connector-curvature="0"
         sodipodi:nodetypes="cccccccccccc" />
      <path
         sodipodi:nodetypes="cccccccccccccccccccccccccccccccccaaaaa"
         id="path5508"
         d="m -1111.2738,-37.494606 0.1027,33.6317505 c -13.4049,2.99311998 -25.9246,8.31618 -37.1356,15.4880595 l -23.9757,-23.76619 -35.5004,35.58465 23.9757,23.76614 c -7.1322,11.21498 -12.4025,23.72412 -15.3305,37.10256 l -33.7397,0.0854 0.1531,50.202366 33.7398,-0.0852 c 3.0095,13.36344 8.356,25.84583 15.5565,37.02456 l -23.8304,23.8869 35.7169,35.40475 23.8304,-23.88697 c 11.2546,7.11512 23.8066,12.37485 37.2295,15.30019 l 0.1026,33.63171 50.3636,-0.12723 -0.1025,-33.63176 c 13.4049,-2.99312 25.9246,-8.31619 37.1356,-15.48804 l 23.9757,23.76617 35.5004,-35.58464 -23.97571,-23.76615 c 7.13228,-11.21494 12.40252,-23.7241 15.33048,-37.10253 l 33.73969,-0.0852 -0.1531,-50.202396 -33.73973,0.0852 c -3.00953,-13.36345 -8.35596,-25.8458 -15.55656,-37.02453 l 23.8304,-23.88691 -35.71695,-35.40473 -23.83032,23.88691 c -11.2546,-7.1150995 -23.8067,-12.3747795 -37.2295,-15.3001395 l -0.1027,-33.6317505 z m 22.5019,65.12144 c 37.9473,-0.39589 79.7438,42.78455 80.2746,80.730176 0.5267,37.66454 -39.7449,81.66888 -77.4073,82.32955 -38.2052,0.67023 -80.8693,-42.50312 -81.4038,-80.71041 -0.5305,-37.928086 40.6068,-81.953596 78.5365,-82.349316 z"
         style="fill:#e3e4e5;fill-opacity:1;stroke:#000000;stroke-width:5.5999999;stroke-miterlimit:4;stroke-opacity:1;stroke-dasharray:none"
         inkscape:connector-curvature="0" />
      <path
         sodipodi:nodetypes="ccccccccccccccc"
         style="fill:#e3e4e5;stroke:#000000;stroke-width:5;stroke-miterlimit:4;stroke-opacity:1;stroke-dasharray:none"
         inkscape:connector-curvature="0"
         d="m -1133.2787,173.94955 88.6142,0 c -8.8292,-10.87096 -14.3127,-24.71587 -11.0769,-46.31137 l 0,-356.50513 88.61419,0 55.3838,14.91913 0,-71.17658 -55.3838,9.94608 -243.68879,0 -55.3837,-9.94608 0,71.17658 55.3837,-14.91913 88.614,0 0,356.50513 c 0.3538,19.48315 -3.3492,34.90944 -11.0767,46.31137 z"
         class="Rot Rand2"
         id="kreuz-1-7" />
      <path
         sodipodi:nodetypes="ccccccccccccccc"
         style="fill:#ed1c24;stroke:none"
         inkscape:connector-curvature="0"
         d="m -1116.5665,165.86833 58.2203,0 c -8.5184,-10.48823 -11.687,-23.84571 -8.5651,-44.6809 l 0,-358.2395 95.49436,0 53.43393,14.39387 0,-54.38498 -53.43393,9.59592 -235.10936,0 -53.4338,-9.59592 0,54.38498 53.4338,-14.39387 95.4943,-2.85714 0,358.2395 c 0.3413,18.79721 1.9209,36.53753 -5.5345,47.53804 z"
         class="Rot Rand2"
         id="kreuz-1" />
      <g
         style="stroke-width:4.74168873;stroke-miterlimit:4;stroke-dasharray:none"
         transform="matrix(0.40070111,0,0,0.40070111,-789.83565,-178.83)"
         id="g3107">
        <path
           inkscape:connector-curvature="0"
           style="fill:#e3e4e5;stroke:#000000;stroke-width:4.74168873;stroke-miterlimit:4;stroke-dasharray:none"
           d="m -746.5625,-441.70312 229.6875,-74.5625 -175.53125,0 -54.15625,74.5625 z"
           id="path3059" />
        <path
           inkscape:connector-curvature="0"
           style="fill:#ed1c24;stroke:#000000;stroke-width:4.74168873;stroke-miterlimit:4;stroke-dasharray:none"
           d="m -745.4375,-440.07812 140.71875,193.65625 -54.1875,-166.8125 -84.5625,-27.46875 -1.96875,0.625 z"
           id="path3057" />
        <path
           inkscape:connector-curvature="0"
           style="fill:#0071bc;stroke:#000000;stroke-width:4.74168873;stroke-miterlimit:4;stroke-dasharray:none"
           d="m -746.59375,-443.45312 -2.625,-1.8125 2.59375,3.5625 -229.5625,-74.5625 141.96875,103.03125 87.625,-28.4375 1.15625,1.59375 1.96875,-0.625 -3.09375,-1 -0.0312,0 0,-1.75 z"
           id="path3064" />
        <path
           inkscape:connector-curvature="0"
           style="fill:#0071bc;stroke:#000000;stroke-width:4.74168873;stroke-miterlimit:4;stroke-dasharray:none"
           d="m -746.59375,-683.14062 -54.1875,166.875 51.5625,71 2.625,1.8125 0,-239.6875 z"
           id="path3055" />
        <path
           inkscape:connector-curvature="0"
           style="fill:#ed1c24;stroke:#000000;stroke-width:4.74168873;stroke-miterlimit:4;stroke-dasharray:none"
           d="m -748.46875,-439.10937 -139.96875,192.6875 141.84375,-103.09375 0,-90.1875 -1.875,0.59375 z"
           id="path3053" />
        <path
           inkscape:connector-curvature="0"
           style="fill:none;stroke:#000000;stroke-width:4.74168873;stroke-miterlimit:4;stroke-dasharray:none"
           d="m -748.46875,-439.10937 1.875,-0.59375 0,-1.96875 -1.875,2.5625 z"
           id="path10" />
        <path
           inkscape:connector-curvature="0"
           style="fill:#0071bc;stroke:#000000;stroke-width:4.74168873;stroke-miterlimit:4;stroke-dasharray:none"
           d="m -746.5,-441.6875 -54.15625,-74.5625 -175.53125,0 229.6875,74.5625 z"
           id="path3077" />
        <path
           inkscape:connector-curvature="0"
           style="fill:#e3e4e5;stroke:#000000;stroke-width:4.74168873;stroke-miterlimit:4;stroke-dasharray:none"
           d="m -744.5625,-441.03125 85.71875,27.8125 141.96875,-103.03125 -222.6875,72.3125 -1.8125,2.6875 -3.1875,0.21875 z"
           id="path3075" />
        <path
           inkscape:connector-curvature="0"
           style="fill:#ed1c24;stroke:#000000;stroke-width:4.74168873;stroke-miterlimit:4;stroke-dasharray:none"
           d="m -746.46875,-440.90625 0,91.375 141.84375,103.125 -141.34375,-194.53125 -0.5,0.0312 z"
           id="path3073" />
        <path
           inkscape:connector-curvature="0"
           style="fill:#eac102;stroke:#000000;stroke-width:4.74168873;stroke-miterlimit:4;stroke-dasharray:none"
           d="m -746.46875,-440.90625 0.5,-0.0312 -0.5,-0.71875 0,0.75 z"
           id="path3071" />
        <path
           inkscape:connector-curvature="0"
           style="fill:#ed1c24;stroke:#000000;stroke-width:4.74168873;stroke-miterlimit:4;stroke-dasharray:none"
           d="m -749.5,-440.71875 -84.65625,27.5 -54.1875,166.8125 141.3125,-194.46875 -2.46875,0.15625 z"
           id="path3069" />
        <path
           inkscape:connector-curvature="0"
           style="fill:#e3e4e5;stroke:#000000;stroke-width:4.74168873;stroke-miterlimit:4;stroke-dasharray:none"
           d="m -749.5,-440.71875 2.46875,-0.15625 0.5625,-0.78125 1.90625,0.625 3.1875,-0.21875 1.8125,-2.6875 -6.875,2.25 54.15625,-74.5625 -54.1875,-166.90625 0,241.46875 -0.0312,0 -3,0.96875 z"
           id="path10-1" />
      </g>
      <path
         sodipodi:nodetypes="ccccc"
         inkscape:connector-curvature="0"
         id="path4134"
         d="m -899.86473,196.19656 c -9.46745,-3.0194 -20.70867,-10.51635 -26.72174,-4.8159 -1.29982,-5.89281 -11.54252,-10.81574 -18.85338,-16.05664 8.73339,2.24156 17.80159,-4.70777 26.15517,7.95964 15.65349,-2.5069 13.47818,8.21423 19.41995,12.9129 z"
         style="fill:#000000;stroke:#000000;stroke-width:1px;stroke-linecap:butt;stroke-linejoin:miter;stroke-opacity:1" />
      <path
         sodipodi:nodetypes="ccccc"
         inkscape:connector-curvature="0"
         id="path4134-7"
         d="m -890.00076,167.97238 c -4.80954,-3.24865 -9.87707,-9.2983 -14.18418,-7.09209 0.24031,-3.51626 -4.69078,-7.95917 -7.92646,-12.09829 4.52602,2.69204 10.75067,0.28818 13.34982,8.76083 9.18497,1.16847 6.20328,6.81939 8.76082,10.42955 z"
         style="fill:#000000;stroke:#000000;stroke-width:0.58405483px;stroke-linecap:butt;stroke-linejoin:miter;stroke-opacity:1" />
      <path
         inkscape:transform-center-y="14.142136"
         sodipodi:nodetypes="ccccc"
         inkscape:connector-curvature="0"
         id="path4134-7-3"
         d="m -861.63006,194.07851 c -5.48647,-1.89315 -11.9471,-6.42509 -15.53644,-3.17929 -0.67795,-3.45865 -6.59093,-6.47391 -10.78764,-9.63453 5.06855,1.42889 10.45894,-2.50412 15.16241,5.00712 9.17442,-1.24859 7.75689,4.9815 11.16167,7.8067 z"
         style="fill:#000000;stroke:#000000;stroke-width:0.58405483px;stroke-linecap:butt;stroke-linejoin:miter;stroke-opacity:1" />
      <g
         id="g4249">
        <path
           transform="matrix(0.96253135,0,0,3.6427142,-1041.8772,132.7653)"
           style="fill:#ffffff;fill-rule:evenodd;stroke:#000000;stroke-width:0.64911115;stroke-miterlimit:4;stroke-opacity:1"
           d="m 154.959,29.5829 -39.28351,-1.840152 -21.706098,0.558718 -7.604574,0.227035 -0.185661,-0.57392 -13.545543,0.568036 -5.970274,2.677994 -0.706859,4.020571 -4.302254,3.787336 -1.855227,2.886582 34.4311,0 34.0739,-0.5917 26.536,-6.6012 z"
           id="_74415816"
           inkscape:connector-curvature="0"
           sodipodi:nodetypes="cccccccccccccc" />
        <path
           id="_77465336"
           class="fil1 str0"
           d="m -915.8063,248.74834 0,-6.37876 21.83881,0 0,1.97791 c -1.80168,0.30627 -4.39495,0.83557 -7.75271,1.53174 -1.96545,0.50138 -5.07748,1.44852 -9.3635,2.86911 l -4.7226,0 z m -24.95113,0 0,-6.37876 23.20392,0 0,6.37876 -23.20392,0 z m -25.16912,19.24726 c 0,-2.56275 0.65517,-3.81624 1.99263,-3.81624 1.33771,0 1.99288,1.25349 1.99288,3.81624 0,2.56244 -0.65517,3.84385 -1.99288,3.84385 -1.33746,0 -1.99263,-1.28141 -1.99263,-3.84385 z m -8.24437,5.62633 c 0,-2.28385 0.60065,-3.42602 1.8291,-3.42602 1.22848,0 1.85621,1.14217 1.85621,3.42602 0,2.3398 -0.62773,3.50957 -1.85621,3.50957 -1.22845,0 -1.8291,-1.16977 -1.8291,-3.50957 z m -7.4525,4.819 c 0,-2.11707 0.60062,-3.17545 1.77462,-3.17545 1.11909,0 1.66495,1.05838 1.66495,3.17545 0,2.1166 -0.54586,3.17529 -1.66495,3.17529 -1.174,0 -1.77462,-1.05869 -1.77462,-3.17529 z m 15.83329,-29.69259 0,-6.37876 22.71252,0 0,6.37876 -22.71252,0 z m -3.73977,-9.55405 0,11.83822 12.63899,0 0,25.0407 c 13.43097,-8.46775 22.87637,-14.45628 28.30888,-17.93792 10.86474,-6.96369 23.42226,-11.36446 37.67209,-13.23081 l 0,-6.93567 c -15.20552,-1.08639 -27.7627,-1.6157 -37.67209,-1.55975 -10.3463,0.11115 -23.99543,1.05837 -40.94787,2.78523 z m -18.89086,51.08454 c 6.30593,-2.06113 11.79301,-4.1502 16.48845,-6.2952 3.41224,-1.55976 7.83462,-3.84385 13.26715,-6.85213 l 0,-23.25789 -25.74273,19.99897 0,6.85213 -4.01287,3.11975 0,6.43437 z m 36.88049,-54.00926 c 5.37775,-0.44544 10.01875,-0.77964 13.86784,-1.00276 3.8762,-0.19479 8.708,-0.25065 14.52262,-0.13917 l -5.75976,-15.09675 c -1.06468,-1.64362 -3.13946,-2.42334 -6.22412,-2.36772 -5.2961,0.13917 -10.10057,2.1446 -14.41364,5.93291 l -1.99294,12.67349 z m -29.42799,32.86796 15.12368,-11.58717 -10.56464,0 0,-12.72951 5.5141,-6.93559 13.59477,-1.22548 -1.36481,-3.17545 c -0.7916,-1.19779 -2.10195,-1.81072 -3.90362,-1.81072 -2.6207,0 -4.96858,0.58492 -7.04308,1.72717 -2.07477,1.14193 -4.36786,3.09182 -6.87923,5.87706 l -4.47717,21.53136 0,8.32833 z m 6.06028,-13.20287 11.05596,0 4.39526,-3.28693 -11.68401,0 0,-11.97699 -3.76721,4.56794 0,10.69598 z"
           inkscape:connector-curvature="0"
           style="fill:#e3e4e5;fill-rule:evenodd;stroke:#000000;stroke-width:0.51477623;stroke-miterlimit:4;stroke-opacity:1;stroke-dasharray:none" />
        <path
           inkscape:connector-curvature="0"
           style="fill:#000000;fill-rule:evenodd;stroke:#000000;stroke-width:0.53170753;stroke-miterlimit:4;stroke-opacity:1;stroke-dasharray:none"
           d="m -878.21814,267.50963 -2.64738,-6.33407 -1.6982,-3.05443 -1.01596,-0.96418 -2.03186,-0.64748 -1.6982,0 -2.70673,0.32374 -3.90061,1.28792 -6.44422,1.60464 -9.6626,3.20926 -9.10643,4.54645 -48.00901,20.88131 -10.0853,3.9412 -8.39452,2.32953 -4.91657,1.04864 -2.45458,0.32374 -6.20692,0.59822 -2.63257,0.22521 -3.8413,-0.28152 c 0.09,1.08263 0.2029,2.09816 0.3559,2.92775 0.3785,2.39573 0.9014,4.42369 1.5128,6.12293 9.05789,4.06657 19.19272,7.54746 30.46357,10.44418 9.90196,2.56251 19.751,3.8497 29.53659,3.8497 14.67847,0 23.38714,0.10792 26.09572,0.30263 9.78563,0.8916 18.17197,4.6535 25.19098,11.36613 l 3.20357,-44.54257 c 1.43467,-3.8228 4.15384,-8.75017 8.14239,-14.73726 1.11658,-1.68549 2.07969,-3.2601 2.95144,-4.77167 z"
           id="path4222" />
        <path
           inkscape:connector-curvature="0"
           style="fill:#e3e4e5;fill-rule:evenodd;stroke:#000000;stroke-width:0.53170753;stroke-miterlimit:4;stroke-opacity:1;stroke-dasharray:none"
           d="m -885.61154,252.96943 -11.86506,1.93541 -10.508,2.56881 -12.5473,4.82797 -54.91298,25.42072 -12.71784,4.34236 -11.52394,2.09024 -6.13274,0.2041 c 0.039,0.77489 0.09,1.48597 0.1483,2.18877 l 3.8413,0.28152 2.63257,-0.22521 6.20692,-0.59822 2.45458,-0.32374 4.91657,-1.04864 8.39452,-2.32953 10.0853,-3.9412 48.00901,-20.88131 9.10643,-4.54645 9.6626,-3.20926 6.44422,-1.60464 3.90061,-1.28792 2.70673,-0.32374 1.6982,0 2.03186,0.64748 1.01596,0.96418 1.6982,3.05443 2.64738,6.33407 c 0.73119,-1.26786 1.40363,-2.49552 1.9948,-3.66672 l -0.5784,-2.50548 -1.34967,-3.86378 -1.35706,-1.92837 -2.71413,-2.25211 -3.38894,-0.32374 z"
           id="path4217" />
        <path
           inkscape:connector-curvature="0"
           style="fill:#ed1c24;fill-rule:evenodd;stroke:#000000;stroke-width:0.53170753;stroke-miterlimit:4;stroke-opacity:1;stroke-dasharray:none"
           d="m -1005.8194,294.35904 6.13274,-0.2041 11.52394,-2.09024 12.71784,-4.34236 54.91298,-25.42072 12.5473,-4.82797 10.508,-2.56881 11.86506,-1.93541 3.38894,0.32374 2.71413,2.25211 1.35706,1.92837 1.34967,3.86378 0.5784,2.50548 c 1.7556,-3.47803 2.89422,-6.52974 3.26289,-9.02957 0.0581,-0.557 0.089,-1.08282 0.089,-1.63982 0,-4.62389 -2.35526,-7.83113 -7.01519,-9.64185 l -0.5117,-0.0985 c -0.98838,-0.0418 -1.98561,-0.0663 -2.99592,-0.0634 -0.33678,9.1e-4 -0.67667,0.007 -1.01596,0.0141 -9.49926,0.18884 -19.96305,2.40999 -31.40531,6.65077 -7.51393,2.75754 -16.948,7.60431 -28.33525,14.51205 -13.60108,8.32858 -22.80348,13.67133 -27.63815,16.01112 -10.63012,5.09726 -22.01889,8.94446 -34.13427,11.50689 0.016,0.84305 0.065,1.53762 0.1038,2.29434 z"
           id="path4211" />
      </g>
      <path
         sodipodi:nodetypes="cccccccccccccccccccccccccccccccccccccccccccccccccccccccccccccccccccccccccccccccccccccccccccccccccccc"
         id="path3747"
         style="fill:#e3e4e5;fill-opacity:1;fill-rule:evenodd;stroke:#000000;stroke-width:2.58800006;stroke-miterlimit:4;stroke-opacity:1;stroke-dasharray:none"
         d="m -1275.0571,204.66059 1.6272,4.12646 -5.6975,0 2.4214,8.00718 6.4573,0 1.6312,4.12646 -6.8246,0 3.0002,10.00686 7.7705,0 1.9789,5.10935 -8.2205,0 3.5709,11.76082 9.2856,0 2.1238,5.37202 -9.8183,0 4.2882,14.1672 11.0588,0 2.7245,6.82942 -11.7623,0 4.6253,15.31109 13.1061,0 3.5769,9.04939 -13.9747,0 5.7095,18.95458 15.6813,0 5.6256,14.2689 -17.0255,0 8.1572,27.13969 19.5068,0 10.2049,27.40938 11.7024,0.75761 -11.0914,-28.16699 54.6435,0 21.9503,38.26852 15.8694,3.78807 -26.885,-42.05659 20.3137,0 -19.2057,-27.13969 -17.6819,0 -8.6917,-14.2689 16.3377,0 -13.351,-18.95458 -14.5695,0 -5.5312,-9.04939 13.6955,0 -10.7413,-15.31109 -12.2636,0 -4.2028,-6.82942 11.6328,0 -9.9803,-14.1672 -10.2836,0 -3.3076,-5.37202 9.8232,0 -8.2757,-11.76082 -8.6912,0 -3.1056,-5.10935 8.1585,0 -7.0536,-10.00686 -7.2329,0 -2.4968,-4.12646 6.8659,0 -5.6525,-8.00718 -6.1062,0 -2.5122,-4.12646 -42.8892,-3.4e-4 z m 36.0134,0.0271 2.3882,4.13493 -30.659,0 -1.7512,-4.13493 m 39.5164,16.26009 -32.6029,0 -1.7512,-4.13493 31.9619,0 z m -28.386,9.98992 34.252,0 3.0111,5.12629 -35.0847,0 z m 7.1397,16.84475 36.9616,0 3.1298,5.38897 -37.773,0 z m 8.294,19.53923 40.0686,0 3.9588,6.83788 -41.1179,0 z m 9.3967,22.1405 43.5947,0 5.3026,9.05787 -45.063,0 z m 11.8903,28.02092 48.0671,0 8.318,14.235 -50.3572,0 z"
         inkscape:connector-curvature="0" />
      <g
         style="fill:#b25211;fill-opacity:1;stroke-width:3.5999999;stroke-miterlimit:4;stroke-dasharray:none"
         transform="translate(-2795.0921,180.8173)"
         id="g4422">
        <path
           sodipodi:nodetypes="cccccccccccccccccccccc"
           style="fill:#b25211;fill-opacity:1;stroke:#000000;stroke-width:3.5999999;stroke-linecap:butt;stroke-linejoin:miter;stroke-miterlimit:4;stroke-opacity:1;stroke-dasharray:none"
           d="m 1742.7448,-236.98392 25.2539,-27.77919 48.9924,19.19289 0.505,-7.07106 20.7082,-4.04061 -91.4188,-63.63961 127.2792,-0.50508 0.2525,-44.82552 -7.5761,-0.25253 0.7576,33.96637 -20.7081,-8.08122 -0.2526,-26.5165 -8.0812,0.25253 1.7678,24.24367 -82.3275,2.0203 36.113,-26.01143 -16.1624,0 -36.6181,26.01143 -1.0101,65.65992 20.7081,5.05076 -19.698,23.73858 z"
           id="path4412"
           inkscape:connector-curvature="0" />
        <path
           style="fill:#b25211;fill-opacity:1;stroke:#000000;stroke-width:3.5999999;stroke-linecap:butt;stroke-linejoin:miter;stroke-miterlimit:4;stroke-opacity:1;stroke-dasharray:none"
           d="m 1817.517,-252.75491 -77.0242,-45.96194"
           id="path4414"
           inkscape:connector-curvature="0" />
        <path
           style="fill:#b25211;fill-opacity:1;stroke:#000000;stroke-width:3.5999999;stroke-linecap:butt;stroke-linejoin:miter;stroke-miterlimit:4;stroke-opacity:1;stroke-dasharray:none"
           d="m 1741.2505,-333.81965 103.5406,0 29.2944,12.87945"
           id="path4416"
           inkscape:connector-curvature="0" />
        <path
           style="fill:#b25211;fill-opacity:1;stroke:#000000;stroke-width:3.5999999;stroke-linecap:butt;stroke-linejoin:miter;stroke-miterlimit:4;stroke-opacity:1;stroke-dasharray:none"
           d="m 1846.622,-340.00684 -1.6415,6.31346"
           id="path4418"
           inkscape:connector-curvature="0" />
        <path
           style="fill:#b25211;fill-opacity:1;stroke:#000000;stroke-width:3.5999999;stroke-linecap:butt;stroke-linejoin:miter;stroke-miterlimit:4;stroke-opacity:1;stroke-dasharray:none"
           d="m 1840.3085,-341.7746 6.5029,1.76776"
           id="path4420"
           inkscape:connector-curvature="0" />
      </g>
    </g>
  </g>
</svg>
