<?xml version="1.0" encoding="UTF-8" standalone="no"?>
<!-- Created with Inkscape (http://www.inkscape.org/) -->

<svg
   xmlns:dc="http://purl.org/dc/elements/1.1/"
   xmlns:cc="http://creativecommons.org/ns#"
   xmlns:rdf="http://www.w3.org/1999/02/22-rdf-syntax-ns#"
   xmlns:svg="http://www.w3.org/2000/svg"
   xmlns="http://www.w3.org/2000/svg"
   xmlns:xlink="http://www.w3.org/1999/xlink"
   xmlns:sodipodi="http://sodipodi.sourceforge.net/DTD/sodipodi-0.dtd"
   xmlns:inkscape="http://www.inkscape.org/namespaces/inkscape"
   version="1.0"
   width="400"
   height="400"
   id="svg2"
   sodipodi:version="0.32"
   inkscape:version="0.48.2 r9819"
   sodipodi:docname="Escudo_de_Copiapó.svg"
   inkscape:output_extension="org.inkscape.output.svg.inkscape">
  <metadata
     id="metadata11">
    <rdf:RDF>
      <cc:Work
         rdf:about="">
        <dc:format>image/svg+xml</dc:format>
        <dc:type
           rdf:resource="http://purl.org/dc/dcmitype/StillImage" />
      </cc:Work>
    </rdf:RDF>
  </metadata>
  <sodipodi:namedview
     inkscape:window-height="778"
     inkscape:window-width="1280"
     inkscape:pageshadow="2"
     inkscape:pageopacity="0.0"
     guidetolerance="10.0"
     gridtolerance="10.0"
     objecttolerance="10.0"
     borderopacity="1.0"
     bordercolor="#666666"
     pagecolor="#ffffff"
     id="base"
     inkscape:zoom="0.28858796"
     inkscape:cx="98.627286"
     inkscape:cy="200.00554"
     inkscape:window-x="-4"
     inkscape:window-y="-4"
     inkscape:current-layer="svg2"
     showgrid="false"
     inkscape:window-maximized="0" />
  <defs
     id="defs5">
    <linearGradient
       id="linearGradient2893">
      <stop
         style="stop-color:#ffffff;stop-opacity:0.3137255"
         offset="0"
         id="stop2895" />
      <stop
         style="stop-color:#ffffff;stop-opacity:0.25098041"
         offset="0.19"
         id="stop2897" />
      <stop
         style="stop-color:#6b6b6b;stop-opacity:0.1254902"
         offset="0.60000002"
         id="stop2901" />
      <stop
         style="stop-color:#000000;stop-opacity:0.1254902"
         offset="1"
         id="stop2899" />
    </linearGradient>
    <radialGradient
       cx="221.44487"
       cy="226.33101"
       r="300"
       fx="221.44487"
       fy="226.33101"
       id="radialGradient10561"
       xlink:href="#linearGradient2893"
       gradientUnits="userSpaceOnUse"
       gradientTransform="matrix(1.1393743,0,0,1.1357624,458.97616,-108.04994)" />
    <linearGradient
       id="linearGradient9507">
      <stop
         style="stop-color:white;stop-opacity:0.3137255"
         offset="0"
         id="stop9509" />
      <stop
         style="stop-color:white;stop-opacity:0.25098041"
         offset="0.19"
         id="stop9511" />
      <stop
         style="stop-color:#6b6b6b;stop-opacity:0.1254902"
         offset="0.60000002"
         id="stop9513" />
      <stop
         style="stop-color:black;stop-opacity:0.1254902"
         offset="1"
         id="stop9515" />
    </linearGradient>
    <linearGradient
       id="linearGradient9517">
      <stop
         style="stop-color:white;stop-opacity:1"
         offset="0"
         id="stop9519" />
      <stop
         style="stop-color:white;stop-opacity:1"
         offset="0.22857143"
         id="stop9521" />
      <stop
         style="stop-color:black;stop-opacity:1"
         offset="1"
         id="stop9523" />
    </linearGradient>
    <linearGradient
       id="linearGradient9525">
      <stop
         style="stop-color:#fd0000;stop-opacity:1"
         offset="0"
         id="stop9527" />
      <stop
         style="stop-color:#e77275;stop-opacity:0.65882355"
         offset="0.5"
         id="stop9529" />
      <stop
         style="stop-color:black;stop-opacity:0.32291666"
         offset="1"
         id="stop9531" />
    </linearGradient>
    <radialGradient
       cx="225.52438"
       cy="218.90099"
       r="300"
       fx="225.52438"
       fy="218.90099"
       id="radialGradient9533"
       xlink:href="#linearGradient2955"
       gradientUnits="userSpaceOnUse"
       gradientTransform="matrix(-4.167939e-4,2.182867,-1.884232,-3.599562e-4,615.5972,-289.1214)" />
    <polygon
       points="0,-1 0.58778525,0.80901699 -0.95105652,-0.30901699 0.95105652,-0.30901699 -0.58778525,0.80901699 0,-1 "
       transform="scale(53,53)"
       id="polygon9535" />
    <clipPath
       id="clipPath9537">
      <path
         d="M 0,-200 L 0,600 L 300,600 L 300,-200 L 0,-200 z "
         id="path9539" />
    </clipPath>
    <radialGradient
       cx="225.52438"
       cy="218.90099"
       r="300"
       fx="225.52438"
       fy="218.90099"
       id="radialGradient9541"
       xlink:href="#linearGradient2955"
       gradientUnits="userSpaceOnUse"
       gradientTransform="matrix(-4.167939e-4,2.182867,-1.884232,-3.599562e-4,615.5972,-289.1214)" />
    <radialGradient
       cx="225.52438"
       cy="218.90099"
       r="300"
       fx="225.52438"
       fy="218.90099"
       id="radialGradient9543"
       xlink:href="#linearGradient2955"
       gradientUnits="userSpaceOnUse"
       gradientTransform="matrix(0,1.748721,-1.593162,-1.049767e-7,551.7876,-191.2898)" />
    <radialGradient
       cx="225.52438"
       cy="218.90099"
       r="300"
       fx="225.52438"
       fy="218.90099"
       id="radialGradient9545"
       xlink:href="#linearGradient2955"
       gradientUnits="userSpaceOnUse"
       gradientTransform="matrix(0,1.386237,-1.323286,-5.741131e-8,-158.0823,-109.5408)" />
    <radialGradient
       cx="221.44487"
       cy="226.33101"
       r="300"
       fx="221.44487"
       fy="226.33101"
       id="radialGradient9547"
       xlink:href="#linearGradient2893"
       gradientUnits="userSpaceOnUse"
       gradientTransform="matrix(1.353218,0,0,1.348928,-77.62935,-85.74693)" />
    <radialGradient
       r="300"
       fy="218.90099"
       fx="225.52438"
       cy="218.90099"
       cx="225.52438"
       gradientTransform="matrix(0,1.386237,-1.323286,-5.741131e-8,-158.0823,-109.5408)"
       gradientUnits="userSpaceOnUse"
       id="radialGradient2871"
       xlink:href="#linearGradient2955"
       inkscape:collect="always" />
    <radialGradient
       r="300"
       fy="218.90099"
       fx="225.52438"
       cy="218.90099"
       cx="225.52438"
       gradientTransform="matrix(0,1.748721,-1.593162,-1.049767e-7,551.7876,-191.2898)"
       gradientUnits="userSpaceOnUse"
       id="radialGradient2865"
       xlink:href="#linearGradient2955"
       inkscape:collect="always" />
    <radialGradient
       r="300"
       fy="218.90099"
       fx="225.52438"
       cy="218.90099"
       cx="225.52438"
       gradientTransform="matrix(-4.167939e-4,2.182867,-1.884232,-3.599562e-4,615.5972,-289.1214)"
       gradientUnits="userSpaceOnUse"
       id="radialGradient1911"
       xlink:href="#linearGradient2955"
       inkscape:collect="always" />
    <clipPath
       id="clip">
      <path
         id="path10"
         d="M 0,-200 L 0,600 L 300,600 L 300,-200 L 0,-200 z " />
    </clipPath>
    <polygon
       points="0,-1 0.58778525,0.80901699 -0.95105652,-0.30901699 0.95105652,-0.30901699 -0.58778525,0.80901699 0,-1 "
       transform="scale(53,53)"
       id="star" />
    <radialGradient
       gradientUnits="userSpaceOnUse"
       gradientTransform="matrix(-4.167939e-4,2.182867,-1.884232,-3.599562e-4,615.5972,-289.1214)"
       r="300"
       fy="218.90099"
       fx="225.52438"
       cy="218.90099"
       cx="225.52438"
       id="radialGradient2961"
       xlink:href="#linearGradient2955"
       inkscape:collect="always" />
    <linearGradient
       id="linearGradient2955">
      <stop
         style="stop-color:#fd0000;stop-opacity:1;"
         offset="0"
         id="stop2867" />
      <stop
         id="stop2873"
         offset="0.5"
         style="stop-color:#e77275;stop-opacity:0.65882355;" />
      <stop
         id="stop2959"
         offset="1"
         style="stop-color:black;stop-opacity:0.32291666;" />
    </linearGradient>
    <linearGradient
       id="linearGradient2885">
      <stop
         style="stop-color:white;stop-opacity:1;"
         offset="0"
         id="stop2887" />
      <stop
         id="stop2891"
         offset="0.22857143"
         style="stop-color:white;stop-opacity:1;" />
      <stop
         style="stop-color:black;stop-opacity:1;"
         offset="1"
         id="stop2889" />
    </linearGradient>
    <linearGradient
       id="linearGradient3350">
      <stop
         id="stop3352"
         offset="0"
         style="stop-color:white;stop-opacity:0.3137255;" />
      <stop
         style="stop-color:white;stop-opacity:0.25098041;"
         offset="0.19"
         id="stop3354" />
      <stop
         id="stop3356"
         offset="0.60000002"
         style="stop-color:#6b6b6b;stop-opacity:0.1254902;" />
      <stop
         id="stop3358"
         offset="1"
         style="stop-color:black;stop-opacity:0.1254902;" />
    </linearGradient>
  </defs>
  <text
     x="142.10168"
     y="307.14688"
     style="font-size:10px;font-style:normal;font-variant:normal;font-weight:normal;font-stretch:normal;text-align:center;line-height:100%;writing-mode:lr-tb;text-anchor:middle;fill:#000000;fill-opacity:1;stroke:none;stroke-width:1px;stroke-linecap:butt;stroke-linejoin:miter;stroke-opacity:1;font-family:Calibri"
     id="text6536"
     xml:space="preserve"><tspan
       x="142.10168"
       y="307.14688"
       id="tspan6538" /></text>
  <path
     style="fill:#e3e4e5;fill-opacity:1;stroke:#000000;stroke-width:3;stroke-miterlimit:4;stroke-dasharray:none"
     d="M 200.36833,0.45345276 C 199.71661,0.45186248 199.06767,0.46638717 198.41335,0.48178587 C 167.42387,-0.10344295 140.97696,23.607986 109.70237,19.464971 C 96.99557,17.275202 85.341188,11.548683 73.37932,7.0834011 C 51.361468,29.364194 29.307587,51.612447 7.4198343,74.034546 C 21.783595,89.761847 40.017205,104.28824 45.301206,125.85581 C 51.02302,154.05004 38.409762,181.49464 28.726335,207.39851 C 16.526588,238.16304 11.946433,274.57838 26.77135,305.26108 C 41.768679,334.97345 73.988617,351.69014 105.56574,357.93233 C 126.99591,361.53229 149.88472,362.58359 168.89024,374.47887 C 179.42108,381.47916 188.14142,390.69035 198.32835,398.36368 C 201.93468,402.5475 205.21166,394.41382 208.69827,392.81039 C 225.28188,377.95566 244.86417,363.40667 267.99947,362.3523 C 300.81753,358.09941 335.97167,350.09089 359.54376,325.40592 C 381.14173,303.56703 387.09268,270.27356 381.21859,240.80325 C 376.031,208.25602 356.88947,179.26116 353.87713,146.42565 C 352.52675,127.90969 358.65616,108.8497 372.46366,96.049374 C 379.23873,88.610121 386.4103,81.494128 392.58017,73.52455 C 370.68328,51.008371 348.61539,28.901216 326.56401,6.5450719 C 306.13623,17.878975 280.61705,25.054858 258.22455,15.413336 C 239.54164,8.5689295 220.5714,0.50276326 200.36833,0.45345276 z M 197.42169,17.141656 C 198.35352,17.126289 199.30333,17.120331 200.255,17.141656 C 201.20666,17.120332 202.1565,17.126257 203.08831,17.141656 C 204.95192,17.172453 206.76239,17.276325 208.58493,17.45332 C 216.78634,18.249797 224.82927,20.519524 235.04806,24.224934 C 239.58974,25.871783 244.57262,27.795473 250.17794,30.004889 C 252.04808,30.657072 253.85861,31.268075 255.6179,31.818208 C 257.37719,32.368341 259.08393,32.869579 260.74619,33.319863 C 262.40845,33.770148 264.04044,34.157217 265.61949,34.509854 C 267.98806,35.03881 270.25591,35.469403 272.4761,35.784844 C 275.43636,36.205433 278.29617,36.436755 281.08937,36.493172 C 283.18427,36.535485 285.23899,36.47704 287.29432,36.323173 C 290.71987,36.066729 294.11924,35.53872 297.60757,34.764852 C 299.0029,34.455305 300.42798,34.10501 301.85754,33.716527 C 304.00187,33.133802 306.17062,32.459014 308.43082,31.704876 C 309.93762,31.202117 311.47355,30.66608 313.04912,30.089888 C 316.20025,28.937506 319.51328,27.641156 323.02237,26.208252 L 370.42367,74.261211 L 357.6171,88.229435 C 356.82448,89.094787 356.068,89.983373 355.32212,90.864415 C 354.61554,91.699033 353.91846,92.536919 353.25381,93.386062 C 353.11627,93.561774 352.99289,93.748046 352.85714,93.924391 C 352.42038,94.492009 351.97198,95.050089 351.55382,95.624378 C 351.2123,96.093161 350.8913,96.567746 350.56216,97.041033 C 350.26604,97.46708 349.96992,97.886261 349.68383,98.316023 C 349.48982,98.60736 349.30657,98.901291 349.11717,99.19435 C 348.58571,100.01667 348.05402,100.85155 347.55885,101.68766 C 347.52022,101.75289 347.48393,101.82068 347.44552,101.886 C 347.14186,102.40281 346.85703,102.92212 346.56719,103.44432 C 346.16598,104.16649 345.78031,104.89332 345.40553,105.62597 C 345.06539,106.2909 344.73226,106.96389 344.41387,107.63762 C 343.97882,108.55823 343.56164,109.47688 343.16722,110.41426 C 343.04112,110.71395 342.92083,111.01949 342.79889,111.32092 C 342.57492,111.87511 342.35717,112.43243 342.14723,112.99258 C 341.98885,113.41452 341.84431,113.84221 341.6939,114.26757 C 341.50401,114.80453 341.33276,115.34008 341.15557,115.88255 C 340.98637,116.4012 340.80318,116.91712 340.64557,117.44087 C 340.50794,117.89824 340.37772,118.36789 340.24891,118.8292 C 340.12762,119.26319 339.99404,119.695 339.88058,120.13252 C 339.46021,121.7541 339.11704,123.3914 338.80392,125.06248 C 338.74163,125.3944 338.66364,125.72022 338.60559,126.05414 C 338.49084,126.71557 338.39209,127.39646 338.29392,128.06579 C 338.22909,128.50789 338.15319,128.95187 338.09559,129.39745 C 338.05066,129.74451 338.0228,130.09657 337.98226,130.44577 C 337.88744,131.26248 337.79806,132.08223 337.72726,132.91075 C 337.69828,133.24983 337.66721,133.58968 337.64226,133.93075 C 337.60658,134.41986 337.58468,134.91081 337.55726,135.40407 C 337.51817,136.10745 337.49457,136.81716 337.47226,137.52905 C 337.45262,138.15577 337.45056,138.79397 337.44393,139.42737 C 337.43999,139.80492 337.41491,140.18075 337.4156,140.56069 C 337.41632,140.97525 337.4377,141.38993 337.44393,141.80735 C 337.48625,144.64482 337.62926,147.53185 337.92559,150.50562 C 338.25156,153.77682 338.73765,157.14789 339.37058,160.5922 C 339.58156,161.74031 339.80552,162.88087 340.05058,164.04884 C 340.37716,165.60523 340.74013,167.18804 341.12723,168.78047 C 341.63219,170.85856 342.19101,172.95798 342.79889,175.09876 C 343.12417,176.24432 343.46414,177.39152 343.81888,178.5554 C 344.1105,179.51232 344.414,180.47588 344.72554,181.44538 C 344.82272,181.74785 344.90975,182.04833 345.00887,182.35204 C 347.19581,189.05283 349.84088,196.02085 352.97047,203.34687 C 370.04948,243.32701 371.17516,280.83045 356.03045,303.73109 C 341.25289,326.07661 312.93161,340.2555 274.20442,344.67244 C 235.45379,350.21807 228.39381,355.23028 200.255,378.7855 C 172.11616,355.23027 165.02787,350.21807 126.27724,344.67244 C 87.550047,340.25549 59.228776,326.07662 44.451212,303.73109 C 29.306497,280.83045 30.460512,243.32702 47.539522,203.34687 C 50.669111,196.02085 53.31419,189.05283 55.501126,182.35204 C 55.733936,181.6387 55.958998,180.93361 56.181121,180.22705 C 56.357928,179.66483 56.521083,179.11335 56.691117,178.5554 C 57.045857,177.39152 57.385823,176.24432 57.711109,175.09876 C 57.735754,175.01198 57.771632,174.93043 57.796108,174.84376 C 58.105467,173.74818 58.392092,172.66449 58.674435,171.58545 C 58.70965,171.45093 58.752972,171.32306 58.787767,171.18879 C 59.118683,169.91154 59.429859,168.64652 59.72276,167.39215 C 59.985581,166.26732 60.227205,165.15551 60.459421,164.04884 C 60.70447,162.88087 60.92844,161.74031 61.139416,160.5922 C 61.772342,157.14789 62.258431,153.77682 62.584404,150.50562 C 62.880739,147.53185 63.023749,144.64482 63.066067,141.80735 C 63.070255,141.5256 63.092721,141.2378 63.0944,140.95736 C 63.095708,140.73886 63.094615,140.52339 63.0944,140.3057 C 63.093685,139.48584 63.088385,138.67777 63.066067,137.86905 C 63.062923,137.75469 63.04131,137.64318 63.037734,137.52905 C 63.015429,136.81716 62.991835,136.10745 62.952735,135.40407 C 62.94215,135.21426 62.93621,135.0266 62.924402,134.83741 C 62.891243,134.30395 62.853952,133.77934 62.811069,133.25075 C 62.801778,133.13647 62.792483,133.02481 62.782736,132.91075 C 62.711935,132.08223 62.62256,131.26248 62.527738,130.44577 C 62.503665,130.23804 62.496698,130.02942 62.471072,129.82244 C 62.434604,129.52831 62.397346,129.23673 62.357739,128.94412 C 62.318006,128.65006 62.258975,128.35833 62.216074,128.06579 C 62.117912,127.39646 62.019158,126.71557 61.90441,126.05414 C 61.846024,125.7176 61.768758,125.39699 61.706078,125.06248 C 61.592459,124.45699 61.493789,123.84808 61.366081,123.24916 C 61.35985,123.21993 61.344012,123.19338 61.337747,123.16416 C 61.143659,122.25923 60.940718,121.36268 60.714419,120.47252 C 60.668871,120.29327 60.619607,120.11285 60.572753,119.93419 C 60.378167,119.19257 60.166528,118.45573 59.949425,117.72421 C 59.921368,117.62955 59.892858,117.53536 59.864426,117.44087 C 59.706814,116.91712 59.523619,116.4012 59.35443,115.88255 C 59.177228,115.34008 59.005982,114.80453 58.8161,114.26757 C 58.746372,114.07006 58.689212,113.86933 58.617769,113.67257 C 58.463044,113.24714 58.298852,112.81958 58.136106,112.39758 C 57.906174,111.8006 57.673756,111.20279 57.427778,110.61259 C 57.400023,110.54606 57.370737,110.48071 57.342779,110.41426 C 56.948354,109.47688 56.53117,108.55823 56.096122,107.63762 C 55.777741,106.96389 55.444609,106.2909 55.104463,105.62597 C 54.947464,105.31874 54.812778,104.99635 54.651133,104.69097 C 54.215912,103.86967 53.759993,103.06245 53.291143,102.25433 C 53.208659,102.11204 53.119671,101.97121 53.036145,101.82933 C 53.00844,101.78231 52.978967,101.73464 52.951146,101.68766 C 52.455973,100.85155 51.924289,100.01667 51.392825,99.19435 C 51.351605,99.130548 51.32093,99.059737 51.279492,98.996018 C 50.937235,98.469924 50.588323,97.958259 50.231167,97.437697 C 49.959178,97.041096 49.690147,96.641133 49.409507,96.247706 C 49.133299,95.860801 48.844091,95.469934 48.559514,95.086049 C 48.173259,94.564851 47.771209,94.04342 47.369523,93.527727 C 47.332683,93.48045 47.29316,93.433293 47.256191,93.386062 C 46.591538,92.536919 45.894456,91.699033 45.187873,90.864415 C 44.441989,89.983373 43.685522,89.094787 42.892891,88.229435 L 30.086324,74.261211 L 77.459288,26.208252 C 80.968378,27.641156 84.28064,28.937506 87.432544,30.089888 C 89.008496,30.66608 90.543503,31.202117 92.050841,31.704876 C 94.31185,32.459014 96.507047,33.133802 98.652457,33.716527 C 100.08273,34.10501 101.47796,34.455305 102.87409,34.764852 C 106.36442,35.53872 109.78791,36.066729 113.21568,36.323173 C 118.01453,36.682195 122.85094,36.520875 128.03389,35.784844 C 130.25516,35.469403 132.52113,35.03881 134.89051,34.509854 C 136.47009,34.157217 138.10115,33.770148 139.7638,33.319863 C 141.42645,32.869579 143.1326,32.368341 144.8921,31.818208 C 146.6516,31.268075 148.46191,30.657072 150.33205,30.004889 C 159.5283,26.380066 167.02282,23.522313 173.70687,21.419956 C 175.6166,20.819283 177.46047,20.279786 179.26016,19.804969 C 181.05985,19.330151 182.79823,18.906573 184.53012,18.558312 C 186.26201,18.21005 187.98041,17.929325 189.68675,17.708318 C 190.53991,17.597815 191.38203,17.503546 192.23673,17.424987 C 193.94612,17.26787 195.6745,17.17047 197.42169,17.141656 z "
     id="path2165" />
  <g
     id="g2119"
     transform="translate(394.10588,-1941.2284)">
    <g
       id="g11024"
       transform="translate(-1361.835,-74.82611)" />
  </g>
  <path
     id="path2174"
     style="fill:#ed1c24;stroke:none;fill-opacity:1"
     d="M 197.42169,17.150934 C 183.44415,17.381444 171.35204,21.728857 150.33205,30.014167 C 120.40987,40.449089 105.532,37.680758 77.459288,26.21753 L 30.086324,74.270489 L 42.892891,88.238713 C 68.257083,115.92996 69.681346,151.5246 47.539522,203.35615 C 30.460512,243.33629 29.306497,280.83972 44.451212,303.74036 C 59.228776,326.08589 87.550047,340.26477 126.27724,344.68171 C 165.02787,350.22734 172.11616,355.23955 200.255,378.79478 C 228.39381,355.23955 235.45379,350.22734 274.20442,344.68171 C 312.93161,340.26477 341.25289,326.08589 356.03045,303.74036 C 371.17516,280.83972 370.04948,243.33629 352.97047,203.35615 C 330.82867,151.5246 332.25291,115.92996 357.6171,88.238713 L 370.42367,74.270489 L 323.02237,26.21753 C 294.94968,37.680758 280.10013,40.449089 250.17794,30.014167 C 227.75667,21.176503 215.48172,16.809746 200.255,17.150934 C 199.30333,17.129609 198.35352,17.135567 197.42169,17.150934 z " />
  <path
     id="path1873"
     style="fill:#0071bc;fill-opacity:1;fill-rule:evenodd;stroke:#000000;stroke-width:0.50000000000000000;stroke-linecap:butt;stroke-linejoin:miter;stroke-miterlimit:4;stroke-dasharray:none;stroke-opacity:1"
     d="M 197.42169,17.141656 C 183.44415,17.372166 171.35204,21.719579 150.33205,30.004889 C 120.40987,40.439811 105.532,37.67148 77.459288,26.208252 L 30.086324,74.261211 L 42.892891,88.229435 C 64.672035,112.00673 68.786748,141.64474 55.501126,182.35204 L 345.00887,182.35204 C 331.72325,141.64474 335.83796,112.00672 357.6171,88.229435 L 370.42367,74.261211 L 323.02237,26.208252 C 294.94968,37.67148 280.10013,40.439811 250.17794,30.004889 C 227.75667,21.167226 215.48172,16.800468 200.255,17.141656 C 199.30333,17.120331 198.35352,17.126289 197.42169,17.141656 z " />
  <g
     style="fill:#eac102;fill-opacity:1;stroke:none;stroke-opacity:1"
     id="g3861"
     transform="matrix(0.9793887,0.2019846,-0.2019846,0.9793887,34.455561,-22.703924)">
    <path
       inkscape:connector-curvature="0"
       style="fill:#000002;fill-opacity:1;stroke:none;stroke-opacity:1"
       d="m 251.94695,224.68332 c -22.13239,20.59738 -50.90331,29.89921 -55.81895,36.68132 -7.49793,0.83801 -15.58277,8.11767 -25.10647,6.00224 -8.10639,-1.80062 -12.88046,-10.18853 -16.808,-12.76196 -3.92755,-2.57342 -2.32406,-16.02357 -2.03721,-17.80447 1.16987,-7.26325 5.51539,-10.34902 7.05564,-14.55818 1.05823,-2.8919 0.0112,-10.66117 4.06634,-12.70933 -6.43036,-4.86033 0.61755,-10.49521 3.58922,-23.65051 -3.60423,-5.45505 -6.46872,-7.53075 3.63661,-21.72172 -5.12081,-3.59295 -4.25079,-12.44438 6.05527,-20.77271 -2.48422,-2.04271 -1.33656,-7.98541 10.55625,-11.90784 1.07336,-6.89247 2.28456,-10.0675 11.17114,-11.66636 1.34079,-2.7366 -0.7798,-5.87168 8.01388,-8.79164 -1.60148,-4.19284 0.074,-7.53412 5.40061,-9.62239 2.71706,-5.016467 6.42206,-13.311949 6.42206,-19.103083 0,-13.548334 -5.76664,-25.318554 -17.06512,-24.571973 -21.21352,1.401744 -24.68902,14.733544 -17.92351,25.425378 2.18135,3.447274 3.33187,3.489334 7.21831,0.26388 3.40072,-2.822349 5.46576,-2.994633 7.8089,-0.651487 4.80871,4.808711 -2.49194,11.996855 -12.18463,11.996855 -10.13999,0 -16.95059,-9.181396 -16.95059,-22.851152 0,-19.258881 15.22431,-31.420336 39.33352,-31.420336 19.62835,0 38.52091,19.390312 39.61947,39.93419 4.18104,8.282825 1.27851,6.696353 1.55521,15.021476 5.12975,16.221002 -0.55673,32.793702 -4.83832,33.782732 -0.82494,6.28719 3.23235,14.93629 -4.98473,14.61993 3.18367,8.98424 5.05899,15.81777 -1.36631,17.85246 7.41755,19.09724 -9.88249,23.31519 2.87871,23.31519 7.57081,0 12.57786,3.10227 14.46308,4.98749 6.37809,6.37809 12.78435,14.62218 -3.76038,34.682 z"
       id="path16714"
       sodipodi:nodetypes="ccssssccccccccsssssssscccccssc" />
    <path
       inkscape:connector-curvature="0"
       style="fill:#eac102;fill-opacity:1;stroke:none;stroke-opacity:1"
       d="m 258.77357,203.85274 c 0.84151,-3.16038 -1.68595,-6.79861 -7.79601,-11.22217 -7.71743,-5.58727 -10.50957,-5.93068 -19.06988,-2.34543 -5.51578,2.31014 -12.12044,7.0813 -14.67705,10.60259 -4.85086,6.68127 -23.58623,15.51039 -34.4368,16.22849 -8.14589,0.53911 -21.34194,7.21849 -25.43762,12.87566 -1.76407,2.43663 -3.03562,8.73582 -2.82567,13.99819 0.29446,7.3801 2.42118,11.04445 9.30065,16.02505 10.0974,7.31032 20.59533,5.85456 35.52614,-4.92647 4.7825,-3.45328 16.26088,-10.51608 25.50751,-15.69513 16.24721,-9.10007 30.9801,-24.54206 33.90873,-35.54078 z"
       id="path16712" />
    <path
       inkscape:connector-curvature="0"
       style="fill:#000002;fill-opacity:1;stroke:none;stroke-opacity:1"
       d="m 219.57169,238.65815 c -38.63027,22.97212 -40.30787,23.59941 -49.18563,18.39159 -7.47622,-4.38565 -7.68596,-5.21401 -2.96958,-11.72852 3.07458,-4.24678 12.79437,-10.00697 24.66021,-14.61427 19.46994,-7.55985 29.38314,-13.97051 44.0248,-28.46992 7.55513,-7.48173 16.69922,-7.91836 19.57465,-0.93469 2.72654,6.62205 -14.64253,24.59311 -36.10445,37.35581 z"
       id="path16710" />
    <path
       inkscape:connector-curvature="0"
       style="fill:#eac102;fill-opacity:1;stroke:none;stroke-opacity:1"
       d="m 247.52923,111.91718 c 4.30264,3.64785 2.84867,-7.66186 -0.13572,-15.737758 -5.74228,-5.742289 -25.71827,-7.147629 -30.42455,-1.476907 -3.06029,3.687428 -4.08027,7.042485 5.78153,7.042485 7.31144,0 20.47611,6.52433 24.77874,10.17218 z"
       id="path17655"
       sodipodi:nodetypes="ccssc" />
    <path
       inkscape:connector-curvature="0"
       style="fill:#eac102;fill-opacity:1;stroke:none;stroke-opacity:1"
       d="m 248.55399,116.49442 c -6.36438,-4.24292 -11.76074,-7.37437 -11.76074,-7.37437 -9.36931,-4.67013 -21.26364,-7.10427 -27.27489,-3.29356 -2.57951,1.63523 -0.12426,2.99866 7.63403,4.23926 6.29007,1.00583 15.2563,5.04293 19.92496,8.97135 10.62692,8.94196 10.01982,7.07409 11.47664,-2.54268 z"
       id="path16708"
       sodipodi:nodetypes="ccsssc" />
    <path
       inkscape:connector-curvature="0"
       style="fill:#eac102;fill-opacity:1;stroke:none;stroke-opacity:1"
       d="m 235.90034,81.050057 c -7.86952,-0.577997 -12.83947,0.580216 -15.32118,3.570493 -3.21421,3.872879 -2.23087,4.426002 7.86845,4.426002 6.34794,0 13.70527,0.830237 16.34963,1.844971 3.6229,1.390238 4.55443,0.510215 3.77946,-3.570493 -0.77467,-4.079191 -3.90258,-5.626562 -12.67636,-6.270973 z"
       id="path16706" />
    <path
       inkscape:connector-curvature="0"
       style="fill:#eac102;fill-opacity:1;stroke:none;stroke-opacity:1"
       d="m 243.06957,68.498764 c -8.05029,0.955078 -6.27712,0.640369 -22.27399,3.834264 -3.71753,0.742231 -0.97022,4.486678 -0.97022,6.64135 0,0.997219 6.48865,-1.553284 13.6287,-0.917357 18.25926,1.62626 13.01522,-5.236495 9.61551,-9.558257 z"
       id="path16704"
       sodipodi:nodetypes="csssc" />
    <path
       inkscape:connector-curvature="0"
       style="fill:#eac102;fill-opacity:1;stroke:none;stroke-opacity:1"
       d="m 236.09202,122.07116 c -7.89794,-7.31956 -22.36654,-10.66697 -31.34039,-7.2508 -5.16501,1.96621 -4.93289,2.37758 2.42073,4.29017 4.47343,1.16349 13.80354,6.44346 20.73357,11.73327 6.93003,5.28982 13.23162,9.61785 14.00354,9.61785 4.34994,0 0.33666,-12.68706 -5.81745,-18.39049 z"
       id="path16702" />
    <path
       inkscape:connector-curvature="0"
       style="fill:#eac102;fill-opacity:1;stroke:none;stroke-opacity:1"
       d="m 234.69839,144.03977 c -9.54407,-12.1333 -23.29503,-20.71649 -33.18952,-20.71649 -12.87117,0 -14.45246,4.61463 -2.88901,8.43091 5.29706,1.74819 16.46675,8.27866 24.82154,14.51217 8.35479,6.23351 15.60107,11.33365 16.10284,11.33365 2.73985,0 0.175,-7.17725 -4.84585,-13.56024 z"
       id="path16698" />
    <path
       inkscape:connector-curvature="0"
       style="fill:#eac102;fill-opacity:1;stroke:none;stroke-opacity:1"
       d="m 183.48599,147.20564 c -6.35654,-1.27131 -8.90099,-0.32959 -11.3195,4.18943 -4.58226,8.56203 -4.15172,9.06133 7.81332,9.06133 6.01321,0 18.84145,3.21345 28.50719,7.14099 9.66574,3.92754 20.64765,6.06046 24.05772,7.10365 24.37007,7.45519 -36.69795,-25.02325 -49.05873,-27.4954 z"
       id="path16696"
       sodipodi:nodetypes="cssssc" />
    <path
       inkscape:connector-curvature="0"
       style="fill:#eac102;fill-opacity:1;stroke:none;stroke-opacity:1"
       d="m 217.56918,146.84009 c -14.22932,-9.38222 -20.79955,-12.03766 -28.30692,-11.44058 -13.55269,1.07787 -14.21903,6.76773 -1.04535,8.92623 5.95206,0.97524 18.5342,6.92758 27.9603,13.22742 19.08802,12.75728 22.28031,13.74923 20.88207,6.48874 -0.52788,-2.74103 -9.29842,-10.48184 -19.4901,-17.20181 z"
       id="path16694" />
    <path
       inkscape:connector-curvature="0"
       style="fill:#eac102;fill-opacity:1;stroke:none;stroke-opacity:1"
       d="m 226.92879,184.1355 c -4.29824,0.82167 -15.34632,0.28104 -24.5513,-1.20138 -23.89468,-3.84812 -36.18718,1.65542 -36.18718,16.20155 l 0,6.85087 10.39598,-7.0549 c 7.32176,-4.96868 14.29029,-7.05961 23.56525,-7.07083 13.44468,-0.0163 34.59223,-4.65773 34.59223,-7.59231 0,-0.89481 -3.51674,-0.95466 -7.81498,-0.133 z"
       id="path16692" />
    <path
       inkscape:connector-curvature="0"
       style="fill:#eac102;fill-opacity:1;stroke:none;stroke-opacity:1"
       d="m 195.6906,167.4233 c -13.89914,-4.75927 -15.20976,-4.77314 -22.13705,-0.2342 -9.1761,6.01241 -10.63402,18.06992 -1.60033,13.23524 3.65472,-1.95595 16.64818,-4.34077 34.99083,-1.4866 36.89927,5.74165 34.17564,-0.34428 16.37414,-2.42902 -7.35806,-0.8617 -19.50199,-6.30309 -27.62759,-9.08542 z"
       id="path16690"
       sodipodi:nodetypes="cssssc" />
    <path
       inkscape:connector-curvature="0"
       sodipodi:nodetypes="csscc"
       style="fill:#eac102;fill-opacity:1;stroke:none;stroke-opacity:1"
       d="m 220.04155,193.23882 c -2.41498,0.74868 -5.86382,1.55493 -15.28992,1.79167 -19.99544,0.50219 -41.55428,10.82142 -41.55428,21.96477 0,9.92662 5.68866,-6.35106 22.70704,-4.06701 12.26441,-2.04034 26.58686,-9.98511 34.13716,-19.68943 z"
       id="path16688" />
    <path
       inkscape:connector-curvature="0"
       style="fill:#eac102;fill-opacity:1;stroke:none;stroke-opacity:1"
       d="m 213.22658,44.413355 c -2.3047,0.884394 -4.19036,4.353999 -4.19036,7.710233 0,6.062554 0.0456,6.058492 7.01518,-0.624451 6.8886,-6.605328 5.43368,-10.254866 -2.82482,-7.085782 z"
       id="path16684" />
    <path
       inkscape:connector-curvature="0"
       style="fill:#eac102;fill-opacity:1;stroke:none;stroke-opacity:1"
       d="m 206.17983,43.344247 c -1.57102,0 -2.76606,2.892099 -2.65564,6.426886 0.19157,6.132396 0.31325,6.165116 2.65564,0.714099 1.35017,-3.142034 2.54521,-6.034133 2.65563,-6.426887 0.11042,-0.392754 -1.08462,-0.714098 -2.65563,-0.714098 z"
       id="path16682" />
    <path
       inkscape:connector-curvature="0"
       style="fill:#eac102;fill-opacity:1;stroke:none;stroke-opacity:1"
       d="m 198.48758,46.969102 c -0.72422,2.779177 -0.67659,6.635309 0.10584,8.569182 0.78244,1.933871 1.37498,-0.340002 1.31677,-5.053052 -0.0582,-4.71305 -0.69839,-6.29531 -1.42261,-3.51613 z"
       id="path16680" />
    <path
       inkscape:connector-curvature="0"
       style="fill:#eac102;fill-opacity:1;stroke:none;stroke-opacity:1"
       d="m 194.92283,83.333764 c -1.47831,0 -3.48514,1.290096 -4.45965,2.866877 -0.97451,1.576784 -5.22784,2.115505 -9.45186,1.197163 -5.9401,-1.291441 -6.70934,-0.980166 -3.39543,1.373974 4.81417,3.419893 15.19357,4.123828 18.09049,1.226905 2.78201,-2.782011 2.32552,-6.664919 -0.78355,-6.664919 z"
       id="path16678" />
    <path
       inkscape:connector-curvature="0"
       style="fill:#eac102;fill-opacity:1;stroke:none;stroke-opacity:1"
       d="m 191.89786,46.200641 c -1.57102,0 -2.8564,1.852206 -2.8564,4.116015 0,2.263809 1.28538,4.910421 2.8564,5.881364 1.57101,0.970943 2.85639,-0.881266 2.85639,-4.116015 0,-3.23475 -1.28538,-5.881364 -2.85639,-5.881364 z"
       id="path16676" />
    <path
       inkscape:connector-curvature="0"
       style="fill:#eac102;fill-opacity:1;stroke:none;stroke-opacity:1"
       d="m 182.99553,49.057035 c -1.81279,0 -2.52627,2.536363 -1.65292,5.876034 1.19999,4.588788 0.72031,5.19856 -2.18967,2.783487 -2.7705,-2.299306 -4.17819,-1.914924 -5.48807,1.49857 -2.8147,7.335009 -2.08415,9.836667 2.87257,9.836667 3.99349,0 4.09224,-0.66831 0.7141,-4.832898 -2.66375,-3.283885 -2.77585,-4.145371 -0.34975,-2.687819 1.96377,1.179794 4.85587,1.350675 6.42688,0.379732 3.89844,-2.409368 3.62774,-12.853773 -0.33314,-12.853773 z"
       id="path16674" />
    <path
       inkscape:connector-curvature="0"
       style="fill:#eac102;fill-opacity:1;stroke:none;stroke-opacity:1"
       d="m 174.75949,71.908188 c -1.57102,0 -2.85639,2.570754 -2.85639,5.712788 0,3.142033 1.28537,5.712788 2.85639,5.712788 1.57102,0 2.8564,-2.570755 2.8564,-5.712788 0,-3.142034 -1.28538,-5.712788 -2.8564,-5.712788 z"
       id="path16670" />
    <path
       inkscape:connector-curvature="0"
       id="path17647"
       d="m 218.91757,62.196702 c -7.07044,1.216749 -1.2849,3.845606 -0.61803,7.056867 0.35927,1.730038 18.12335,-1.98747 23.03142,-3.653762 -0.89743,-3.87884 -2.84698,-4.939191 -4.00405,-6.338359 -1.13362,-1.37082 -12.67048,2.791349 -18.40934,2.935254 z"
       style="fill:#eac102;fill-opacity:1;stroke:none;stroke-opacity:1"
       sodipodi:nodetypes="cscsc" />
    <path
       inkscape:connector-curvature="0"
       id="path17651"
       d="m 226.72417,48.180582 c -2.73715,-0.377818 -7.80682,4.060584 -10.53522,6.916638 -5.00597,5.240201 -3.27489,5.262483 7.23881,3.366832 18.30788,-3.300964 10.45267,-5.21707 3.29641,-10.28347 z"
       style="fill:#eac102;fill-opacity:1;stroke:none;stroke-opacity:1"
       sodipodi:nodetypes="cssc" />
  </g>
  <path
     transform="matrix(0,-0.6587561,0.6587561,0,68.11212,353.03301)"
     d="m 64.726578,161.28172 a 17.799809,17.799809 0 1 1 -35.599617,0 17.799809,17.799809 0 1 1 35.599617,0 z"
     sodipodi:ry="17.799809"
     sodipodi:rx="17.799809"
     sodipodi:cy="161.28172"
     sodipodi:cx="46.926769"
     id="path18837"
     style="fill:#eac102;fill-opacity:1;stroke:#000000;stroke-width:3;stroke-miterlimit:4;stroke-opacity:1;stroke-dasharray:none"
     sodipodi:type="arc" />
  <path
     sodipodi:type="arc"
     style="fill:#eac102;fill-opacity:1;stroke:#000000;stroke-width:3;stroke-miterlimit:4;stroke-opacity:1;stroke-dasharray:none"
     id="path18839"
     sodipodi:cx="46.926769"
     sodipodi:cy="161.28172"
     sodipodi:rx="17.799809"
     sodipodi:ry="17.799809"
     d="m 64.726578,161.28172 a 17.799809,17.799809 0 1 1 -35.599617,0 17.799809,17.799809 0 1 1 35.599617,0 z"
     transform="matrix(0,-0.6587561,0.6587561,0,89.783829,330.34294)" />
  <path
     transform="matrix(0,-0.6587561,0.6587561,0,108.67426,314.98091)"
     d="m 64.726578,161.28172 a 17.799809,17.799809 0 1 1 -35.599617,0 17.799809,17.799809 0 1 1 35.599617,0 z"
     sodipodi:ry="17.799809"
     sodipodi:rx="17.799809"
     sodipodi:cy="161.28172"
     sodipodi:cx="46.926769"
     id="path18841"
     style="fill:#eac102;fill-opacity:1;stroke:#000000;stroke-width:3;stroke-miterlimit:4;stroke-opacity:1;stroke-dasharray:none"
     sodipodi:type="arc" />
  <path
     transform="matrix(0,-0.6587561,0.6587561,0,98.302607,360.47951)"
     d="m 64.726578,161.28172 a 17.799809,17.799809 0 1 1 -35.599617,0 17.799809,17.799809 0 1 1 35.599617,0 z"
     sodipodi:ry="17.799809"
     sodipodi:rx="17.799809"
     sodipodi:cy="161.28172"
     sodipodi:cx="46.926769"
     id="path18845"
     style="fill:#eac102;fill-opacity:1;stroke:#000000;stroke-width:3;stroke-miterlimit:4;stroke-opacity:1;stroke-dasharray:none"
     sodipodi:type="arc" />
  <path
     sodipodi:type="arc"
     style="fill:#eac102;fill-opacity:1;stroke:#000000;stroke-width:3;stroke-miterlimit:4;stroke-opacity:1;stroke-dasharray:none"
     id="path18843"
     sodipodi:cx="46.926769"
     sodipodi:cy="161.28172"
     sodipodi:rx="17.799809"
     sodipodi:ry="17.799809"
     d="m 64.726578,161.28172 a 17.799809,17.799809 0 1 1 -35.599617,0 17.799809,17.799809 0 1 1 35.599617,0 z"
     transform="matrix(0,-0.6587561,0.6587561,0,120.22193,338.38192)" />
  <path
     sodipodi:type="arc"
     style="fill:#eac102;fill-opacity:1;stroke:#000000;stroke-width:3;stroke-miterlimit:4;stroke-opacity:1;stroke-dasharray:none"
     id="path3851"
     sodipodi:cx="46.926769"
     sodipodi:cy="161.28172"
     sodipodi:rx="17.799809"
     sodipodi:ry="17.799809"
     d="m 64.726578,161.28172 a 17.799809,17.799809 0 1 1 -35.599617,0 17.799809,17.799809 0 1 1 35.599617,0 z"
     transform="matrix(0,-0.6587561,0.6587561,0,101.48981,289.97854)" />
  <path
     sodipodi:type="arc"
     style="fill:#eac102;fill-opacity:1;stroke:#000000;stroke-width:3;stroke-miterlimit:4;stroke-opacity:1;stroke-dasharray:none"
     id="path18851"
     sodipodi:cx="46.926769"
     sodipodi:cy="161.28172"
     sodipodi:rx="17.799809"
     sodipodi:ry="17.799809"
     d="m 64.726578,161.28172 a 17.799809,17.799809 0 1 1 -35.599617,0 17.799809,17.799809 0 1 1 35.599617,0 z"
     transform="matrix(0,-0.6587561,0.6587561,0,124.77567,275.42801)" />
  <path
     transform="matrix(0,-0.6587561,0.6587561,0,134.35351,297.81621)"
     d="m 64.726578,161.28172 a 17.799809,17.799809 0 1 1 -35.599617,0 17.799809,17.799809 0 1 1 35.599617,0 z"
     sodipodi:ry="17.799809"
     sodipodi:rx="17.799809"
     sodipodi:cy="161.28172"
     sodipodi:cx="46.926769"
     id="path18853"
     style="fill:#eac102;fill-opacity:1;stroke:#000000;stroke-width:3;stroke-miterlimit:4;stroke-opacity:1;stroke-dasharray:none"
     sodipodi:type="arc" />
  <path
     transform="matrix(0,-0.6587561,0.6587561,0,56.460344,317.5757)"
     d="m 64.726578,161.28172 a 17.799809,17.799809 0 1 1 -35.599617,0 17.799809,17.799809 0 1 1 35.599617,0 z"
     sodipodi:ry="17.799809"
     sodipodi:rx="17.799809"
     sodipodi:cy="161.28172"
     sodipodi:cx="46.926769"
     id="path3855"
     style="fill:#eac102;fill-opacity:1;stroke:#000000;stroke-width:3;stroke-miterlimit:4;stroke-opacity:1;stroke-dasharray:none"
     sodipodi:type="arc" />
  <path
     sodipodi:type="arc"
     style="fill:#eac102;fill-opacity:1;stroke:#000000;stroke-width:3;stroke-miterlimit:4;stroke-opacity:1;stroke-dasharray:none"
     id="path3857"
     sodipodi:cx="46.926769"
     sodipodi:cy="161.28172"
     sodipodi:rx="17.799809"
     sodipodi:ry="17.799809"
     d="m 64.726578,161.28172 a 17.799809,17.799809 0 1 1 -35.599617,0 17.799809,17.799809 0 1 1 35.599617,0 z"
     transform="matrix(0,-0.6587561,0.6587561,0,39.847787,340.07379)" />
  <path
     transform="matrix(0,-0.6587561,0.6587561,0,148.22793,324.14087)"
     d="m 64.726578,161.28172 a 17.799809,17.799809 0 1 1 -35.599617,0 17.799809,17.799809 0 1 1 35.599617,0 z"
     sodipodi:ry="17.799809"
     sodipodi:rx="17.799809"
     sodipodi:cy="161.28172"
     sodipodi:cx="46.926769"
     id="path3859"
     style="fill:#eac102;fill-opacity:1;stroke:#000000;stroke-width:3;stroke-miterlimit:4;stroke-opacity:1;stroke-dasharray:none"
     sodipodi:type="arc" />
  <path
     transform="matrix(0,-0.6587561,0.6587561,0,78.135689,301.82685)"
     d="m 64.726578,161.28172 a 17.799809,17.799809 0 1 1 -35.599617,0 17.799809,17.799809 0 1 1 35.599617,0 z"
     sodipodi:ry="17.799809"
     sodipodi:rx="17.799809"
     sodipodi:cy="161.28172"
     sodipodi:cx="46.926769"
     id="path3853"
     style="fill:#eac102;fill-opacity:1;stroke:#000000;stroke-width:3;stroke-miterlimit:4;stroke-opacity:1;stroke-dasharray:none"
     sodipodi:type="arc" />
</svg>
