<?xml version="1.0" encoding="UTF-8" standalone="no"?>
<!-- Created with Inkscape (http://www.inkscape.org/) -->

<svg
   xmlns:dc="http://purl.org/dc/elements/1.1/"
   xmlns:cc="http://creativecommons.org/ns#"
   xmlns:rdf="http://www.w3.org/1999/02/22-rdf-syntax-ns#"
   xmlns:svg="http://www.w3.org/2000/svg"
   xmlns="http://www.w3.org/2000/svg"
   version="1.1"
   width="449.96875"
   height="575.47705"
   id="svg2">
  <defs
     id="defs4" />
  <metadata
     id="metadata7">
    <rdf:RDF>
      <cc:Work
         rdf:about="">
        <dc:format>image/svg+xml</dc:format>
        <dc:type
           rdf:resource="http://purl.org/dc/dcmitype/StillImage" />
        <dc:title></dc:title>
      </cc:Work>
    </rdf:RDF>
  </metadata>
  <g
     id="g3295">
    <path
       d="M 6.93403,141.77626 C 148.39121,272.28052 306.2054,241.17787 443.03472,142.34128 296.13983,81.338487 150.80049,82.246797 6.93403,141.77626 z"
       id="path3888"
       style="fill:#5e2600;fill-opacity:1;stroke:#000000;stroke-width:0.99999994;stroke-linecap:butt;stroke-linejoin:bevel;stroke-miterlimit:4;stroke-opacity:1;stroke-dasharray:none" />
    <path
       d="m 32.3581,91.293697 385.25255,0 0,360.015933 c 0,135.13324 -148.17405,45.60746 -192.62626,121.6199 C 180.53216,496.91709 32.3581,577.99703 32.3581,451.30963 z"
       id="Field"
       style="fill:#ff6600;stroke:#000000;stroke-width:1;stroke-miterlimit:4;stroke-opacity:1;stroke-dasharray:none" />
    <path
       d="m 55.77495,96.293438 0,101.826822 c 1.21237,-0.47819 2.34193,-1.21877 3.39745,-2.14372 2.2078,-1.93468 4.19851,-4.47166 6.46343,-5.93647 1.10355,-1.34061 2.44582,-3.09989 3.9775,-4.53479 1.53168,-1.43491 3.25277,-2.54543 5.05474,-2.63843 1.20131,-0.062 2.46406,0.31619 3.72891,1.40166 1.88886,2.1986 3.34284,4.6348 4.64041,7.17323 1.29757,2.53843 2.43874,5.17913 3.56318,7.83283 3.34115,-2.78457 6.79197,-5.59959 9.61228,-8.08018 4.89055,5.61209 9.55507,11.87002 14.83276,17.56203 1.21794,1.31354 2.43237,2.63938 3.72891,3.87519 3.05177,3.26909 6.12614,6.30183 9.44655,9.06959 3.32042,2.76777 6.88688,5.27058 10.7724,7.58548 1.88827,1.46465 3.70159,1.89806 5.46906,1.73147 1.76747,-0.16648 3.47214,-0.92989 5.22046,-1.73147 1.74833,-0.80158 3.55533,-1.70339 5.3862,-2.14372 1.83087,-0.44033 3.70258,-0.42249 5.71766,0.49471 3.07953,1.07737 6.26604,2.66069 9.28083,4.61724 3.01478,1.95656 5.85782,4.28637 8.36932,6.84343 3.42849,3.58699 7.33554,6.61807 11.4353,9.39939 4.09977,2.78133 8.39218,5.31287 12.67828,7.75039 3.17285,0.99294 6.1114,2.78348 9.03224,4.45234 2.92083,1.66886 5.82398,3.21601 9.03224,3.87519 4.24932,-0.4385 8.17527,-1.81666 11.93249,-3.62784 3.75723,-1.81117 7.34573,-4.05536 10.93812,-6.10136 4.16503,-1.94175 9.60906,-5.35965 15.08135,-8.40999 4.44388,-2.47708 8.95107,-4.76487 12.76114,-5.85401 1.90504,-0.54457 3.65326,-0.7391 5.13761,-0.57715 1.48435,0.162 2.67431,0.70575 3.56317,1.81391 0.23812,0.11425 0.43063,0.29036 0.66292,0.41226 1.83575,-2.74273 4.85037,-5.30517 7.78927,-7.75038 2.93889,-2.44522 5.80203,-4.77323 7.29208,-6.92587 3.11252,-5.06233 6.50867,-9.21537 10.85525,-13.27459 1.09933,-0.70963 2.2557,-1.02986 3.39745,-1.07186 1.14176,-0.042 2.28985,0.23218 3.39745,0.6596 2.21517,0.85504 4.26451,2.41316 5.88338,3.95764 1.6801,1.2041 3.36398,2.36274 5.05474,3.54539 l 0.58005,-0.90696 c 3.07302,-3.44098 6.66499,-6.34544 10.27521,-9.15204 3.61021,-2.80661 7.2387,-5.51532 10.52379,-8.65735 2.9005,-1.96758 5.30238,-4.727 7.70641,-7.33812 2.40403,-2.61112 4.8102,-5.07391 7.7064,-6.34872 4.18412,2.53558 8.22722,5.47521 12.18109,8.57489 3.95387,3.09968 7.83695,6.37555 11.6839,9.64675 3.84696,3.2712 7.65483,6.5142 11.51818,9.5643 0.54123,0.4273 1.11436,0.73575 1.65729,1.15431 l 0,-121.615022 -338.41885,0 z"
       id="use3074"
       style="fill:#0071bc;stroke:#000000;stroke-width:1;stroke-miterlimit:4;stroke-opacity:1;stroke-dasharray:none" />
    <path
       d="m 224.96875,70.78125 c -1.30908,0 -2.60581,0.02667 -3.90625,0.0625 l 0,54.21875 a 86.023091,85.593628 0 0 0 -35.53125,9.375 L 158.5,87.59375 c -2.28381,1.237735 -4.51392,2.547188 -6.71875,3.90625 l 27,46.78125 a 86.023091,85.593628 0 0 0 -26.09375,26 L 105.96875,137.3125 c -1.36269,2.21073 -2.66554,4.45988 -3.90625,6.75 L 148.71875,171 a 86.023091,85.593628 0 0 0 -9.5625,35.625 l -53.875,0 c -0.03532,1.29231 -0.03125,2.60538 -0.03125,3.90625 0,1.3091 0.02667,2.60581 0.0625,3.90625 l 53.75,0 a 86.023091,85.593628 0 0 0 9.71875,35.59375 L 102.0625,277 c 1.24095,2.28972 2.54335,4.53967 3.90625,6.75 l 46.71875,-26.96875 a 86.023091,85.593628 0 0 0 26.15625,25.875 l -27.0625,46.875 c 2.21072,1.36269 4.45988,2.69679 6.75,3.9375 L 185.625,286.53125 A 86.023091,85.593628 0 0 0 221.0625,296 l 0,54.1875 c 1.30044,0.0357 2.59717,0.0625 3.90625,0.0625 1.3091,0 2.63706,-0.0268 3.9375,-0.0625 l 0,-54.1875 a 86.023091,85.593628 0 0 0 35.5,-9.40625 l 27.03125,46.875 c 2.29604,-1.24391 4.56504,-2.57099 6.78125,-3.9375 L 271.1875,282.75 a 86.023091,85.593628 0 0 0 26.09375,-25.96875 L 344,283.75 c 1.3629,-2.21033 2.66531,-4.46028 3.90625,-6.75 l -46.6875,-26.9375 a 86.023091,85.593628 0 0 0 9.59375,-35.625 l 53.84375,0 c 0.0357,-1.30044 0.0625,-2.59715 0.0625,-3.90625 0,-1.30086 0.004,-2.61394 -0.0312,-3.90625 l -53.78125,0 a 86.023091,85.593628 0 0 0 -9.6875,-35.59375 l 46.6875,-26.96875 c -1.2407,-2.29012 -2.54357,-4.53928 -3.90625,-6.75 l -46.71875,26.96875 A 86.023091,85.593628 0 0 0 271.125,138.375 L 298.21875,91.5 c -2.21033,-1.36289 -4.46028,-2.665307 -6.75,-3.90625 l -27.09375,46.9375 a 86.023091,85.593628 0 0 0 -35.46875,-9.46875 l 0,-54.21875 c -1.30044,-0.03573 -2.62841,-0.0625 -3.9375,-0.0625 z"
       id="path3038"
       style="fill:#eac102;fill-opacity:1;stroke:#000000;stroke-width:1;stroke-miterlimit:4;stroke-opacity:1;stroke-dasharray:none" />
    <path
       d="m 394.1938,217.90846 c -0.54293,-0.41856 -1.11606,-0.72701 -1.65729,-1.15431 -3.86335,-3.0501 -7.67122,-6.2931 -11.51818,-9.5643 -3.84695,-3.2712 -7.73003,-6.54707 -11.6839,-9.64675 -3.95387,-3.09968 -7.99697,-6.03931 -12.18109,-8.57489 -2.8962,1.27481 -5.30237,3.7376 -7.7064,6.34872 -2.40403,2.61112 -4.80591,5.37054 -7.70641,7.33812 -3.28509,3.14203 -6.91358,5.85074 -10.52379,8.65735 -3.61022,2.8066 -7.20219,5.71106 -10.27521,9.15204 l -0.58005,0.90696 c -1.69076,-1.18265 -3.37464,-2.34129 -5.05474,-3.54539 -1.61887,-1.54448 -3.66821,-3.1026 -5.88338,-3.95764 -1.1076,-0.42753 -2.25569,-0.70161 -3.39745,-0.6596 -1.14175,0.042 -2.29812,0.36223 -3.39745,1.07186 -4.34658,4.05922 -7.74273,8.21226 -10.85525,13.27459 -1.49005,2.15264 -4.35319,4.48065 -7.29208,6.92587 -2.9389,2.44521 -5.95352,5.00765 -7.78927,7.75038 -0.23229,-0.1219 -0.42485,-0.29788 -0.66292,-0.41226 -0.88886,-1.10816 -2.07882,-1.65197 -3.56317,-1.81391 -1.48435,-0.162 -3.23257,0.0327 -5.13761,0.57715 -3.81007,1.08914 -8.31726,3.37693 -12.76114,5.85401 -5.47229,3.05034 -10.91632,6.46824 -15.08135,8.40999 -3.59239,2.046 -7.18089,4.29019 -10.93812,6.10136 -3.75722,1.81118 -7.68317,3.18934 -11.93249,3.62784 -3.20826,-0.65918 -6.11141,-2.20633 -9.03224,-3.87519 -2.92084,-1.66886 -5.85939,-3.4594 -9.03224,-4.45234 -4.2861,-2.43752 -8.57851,-4.96906 -12.67828,-7.75039 -4.09976,-2.78132 -8.00681,-5.8124 -11.4353,-9.39939 -2.5115,-2.55706 -5.35454,-4.88687 -8.36932,-6.84343 -3.01479,-1.95655 -6.2013,-3.53987 -9.28083,-4.61724 -2.01508,-0.9172 -3.88679,-0.93504 -5.71766,-0.49471 -1.83087,0.44033 -3.63787,1.34214 -5.3862,2.14372 -1.74832,0.80158 -3.45299,1.56488 -5.22046,1.73147 -1.76747,0.16649 -3.58079,-0.26682 -5.46906,-1.73147 -3.88552,-2.3149 -7.45198,-4.81771 -10.7724,-7.58548 -3.32041,-2.76776 -6.39478,-5.8005 -9.44655,-9.06959 -1.29654,-1.23581 -2.51097,-2.56165 -3.72891,-3.87519 -5.27769,-5.69201 -9.94221,-11.94994 -14.83276,-17.56203 -2.82031,2.48059 -6.27113,5.29561 -9.61228,8.08018 -1.12444,-2.6537 -2.26561,-5.2944 -3.56318,-7.83283 -1.29757,-2.53843 -2.75155,-4.97463 -4.64041,-7.17323 -1.26485,-1.08547 -2.5276,-1.46367 -3.72891,-1.40166 -1.80197,0.0931 -3.52306,1.20352 -5.05474,2.63843 -1.53168,1.4349 -2.87395,3.19418 -3.9775,4.53479 -2.26492,1.46481 -4.25563,4.00179 -6.46343,5.93647 -1.05552,0.92495 -2.18508,1.66553 -3.39745,2.14372 l 0,196.06815 c 0.71985,-0.38587 1.29903,-0.78111 2.07162,-1.15431 4.54206,-2.19412 9.88861,-4.2451 15.08134,-6.34872 5.19274,-2.10362 10.24771,-4.31929 14.08698,-6.92587 1.91965,-1.30331 3.51778,-2.66468 4.72328,-4.205 1.2055,-1.54031 1.99649,-3.26041 2.23734,-5.11195 -1.85317,-1.26615 -3.04435,-2.44545 -3.7289,-3.54539 -0.68456,-1.09993 -0.8295,-2.09462 -0.58006,-3.05068 0.24953,-0.95606 0.87426,-1.80394 1.82303,-2.63843 0.94876,-0.83448 2.23259,-1.65579 3.64604,-2.39107 5.65374,-2.94108 14.03057,-5.17362 17.73301,-7.42058 2.42155,-1.21626 5.5974,-2.455 8.86651,-3.87519 3.2691,-1.42019 6.64666,-2.99401 9.52942,-4.8646 1.44137,-0.9353 2.7812,-1.95658 3.89464,-3.05068 1.11343,-1.09411 2.02041,-2.26166 2.65166,-3.54539 0.63126,-1.28373 0.99955,-2.70083 0.99438,-4.20499 -0.005,-1.50417 -0.36429,-3.10921 -1.16011,-4.8646 -2.02685,-1.32296 -3.41677,-2.59978 -4.30895,-3.79274 -0.89218,-1.19297 -1.2736,-2.30884 -1.24297,-3.38049 0.0305,-1.07165 0.41851,-2.09164 1.1601,-3.05068 0.74159,-0.95904 1.8253,-1.86577 3.06599,-2.72088 2.4814,-1.7102 5.74269,-3.18825 8.94937,-4.5348 3.20669,-1.34655 6.29789,-2.57547 8.53505,-3.62784 6.17016,-1.70236 12.18454,-3.83194 18.06447,-6.26626 5.87994,-2.43432 11.66614,-5.19008 17.40156,-7.99773 3.3311,-1.8526 7.23669,-4.21276 11.43531,-6.51362 4.19862,-2.30087 8.72486,-4.48092 13.17546,-5.93646 2.22531,-0.72779 4.37342,-1.29268 6.5463,-1.56657 2.17289,-0.2739 4.33707,-0.25936 6.38058,0.0823 2.0435,0.34167 3.96331,1.02476 5.80051,2.14372 1.83721,1.11896 3.58365,2.64178 5.13761,4.6997 9.40893,7.33789 18.74123,13.69128 27.75962,19.95311 9.0184,6.26183 17.76065,12.43285 25.93661,19.54085 1.01644,0.9291 1.66432,1.82424 2.07161,2.63843 0.4073,0.81419 0.55974,1.51132 0.49719,2.22617 -0.12516,1.42971 -1.06825,2.74922 -2.23734,3.87519 -1.1691,1.12598 -2.54701,2.10373 -3.64604,3.05069 -1.09904,0.94695 -1.90804,1.82816 -1.82302,2.72087 7.91331,2.8909 24.25964,7.289 36.37754,11.87293 3.02947,1.14597 5.82311,2.31269 8.12072,3.46293 2.29762,1.15025 4.13544,2.2666 5.30334,3.38049 1.16789,1.11389 1.6855,2.17866 1.32583,3.21558 -0.35967,1.03693 -1.60954,2.0489 -3.89464,2.96823 -1.12107,0.7404 -1.77794,1.37624 -2.07161,1.97883 -0.29367,0.60259 -0.26678,1.15813 0.0827,1.64901 0.69954,0.98176 2.55379,1.782 4.72328,2.47353 2.16949,0.69153 4.71008,1.28626 6.87776,1.89637 2.16768,0.61011 3.94626,1.2413 4.64041,1.97882 6.69756,1.79888 13.22757,4.1828 19.47318,7.17322 6.2456,2.99042 12.19779,6.55365 17.73301,10.80107 3.1073,1.61712 5.98383,3.8416 8.94937,5.85401 0.0833,0.0565 0.1652,0.1087 0.24846,0.1649 l 0,-179.49553 z"
       id="path3886"
       style="fill:#ff6600;stroke:#000000;stroke-width:1;stroke-miterlimit:4;stroke-opacity:1;stroke-dasharray:none" />
    <g
       transform="translate(-216.83949,1.3482861)"
       id="g4127">
      <path
         d="m 452.34766,281.1192 c -1.34725,1.0846 -2.93181,2.27659 -4.06036,3.29803 -2.38523,2.15884 -4.30835,4.19634 -5.80052,6.10137 -1.49217,1.90502 -2.51866,3.6696 -3.23172,5.3593 -0.71306,1.68971 -1.11224,3.26928 -1.1601,4.78215 -0.048,1.51288 0.24236,2.99533 0.74578,4.3699 0.50339,1.37457 1.21377,2.68289 2.15448,3.95764 1.88141,2.54949 4.5107,4.95689 7.45781,7.33813 2.94711,2.38123 6.26236,4.73468 9.36369,7.25567 3.10134,2.521 6.02523,5.19391 8.36932,8.16264 1.17207,1.48438 2.17129,3.04564 2.98313,4.6997 0.81183,1.65406 1.40246,3.4146 1.74015,5.27685 0.33769,1.86226 0.4161,3.82752 0.16573,5.93647 -0.25031,2.10894 -0.78778,4.3668 -1.74015,6.76097 -5.27544,10.69407 -10.45244,19.151 -14.5013,26.54917 -2.02444,3.69911 -3.81333,7.10086 -5.1376,10.38881 -1.32427,3.28796 -2.20701,6.49473 -2.5688,9.64675 -0.3618,3.15203 -0.2002,6.27297 0.66291,9.5643 0.86307,3.29134 2.45592,6.68296 4.80615,10.38881 2.35022,3.70586 5.51255,7.72469 9.61229,12.12028 4.09974,4.39559 9.13546,9.23323 15.24707,14.5938 6.62159,4.47559 11.85078,8.51231 15.91,12.20273 4.05922,3.69042 6.92002,7.01896 8.86651,10.14146 1.94648,3.1225 2.94838,5.96801 3.23171,8.73979 0.28333,2.77177 -0.1469,5.44191 -1.07723,8.08018 -0.93024,2.63827 -2.36617,5.27572 -4.06037,7.99774 -1.6942,2.72201 -3.62623,5.55193 -5.63479,8.57489 -1.61971,2.43774 -3.24606,5.15424 -4.80614,7.91528 52.56148,-9.39019 121.14798,8.27957 121.14798,-77.99852 l 0,-37.26779 c -0.0833,-0.0562 -0.16546,-0.10844 -0.24846,-0.1649 -2.96555,-2.01241 -5.84207,-4.23689 -8.94937,-5.85401 -5.53522,-4.24742 -11.48742,-7.81064 -17.73302,-10.80106 -6.2456,-2.99042 -12.77562,-5.37435 -19.47317,-7.17323 -0.69415,-0.73752 -2.47273,-1.36871 -4.64041,-1.97882 -2.16769,-0.61011 -4.70828,-1.20484 -6.87776,-1.89637 -2.16949,-0.69153 -4.02375,-1.49177 -4.72328,-2.47353 -0.34978,-0.49087 -0.37654,-1.04642 -0.0827,-1.64901 0.29367,-0.60259 0.95054,-1.23843 2.07161,-1.97882 2.2851,-0.91934 3.53496,-1.93131 3.89463,-2.96823 0.35968,-1.03693 -0.15804,-2.1017 -1.32583,-3.21559 -1.1679,-1.11389 -3.00572,-2.23023 -5.30333,-3.38048 -2.29762,-1.15025 -5.09125,-2.31696 -8.12073,-3.46294 -12.1179,-4.58392 -28.46422,-8.98202 -36.37754,-11.87292 -0.0851,-0.89272 0.72399,-1.77392 1.82302,-2.72088 1.09904,-0.94696 2.47695,-1.92471 3.64604,-3.05068 1.1691,-1.12598 2.11221,-2.44548 2.23735,-3.87519 0.0626,-0.71486 -0.0899,-1.41199 -0.49719,-2.22618 -0.4073,-0.81419 -1.05518,-1.70933 -2.07162,-2.63843 -8.17596,-7.108 -16.91821,-13.27902 -25.9366,-19.54085 -9.0184,-6.26183 -18.3507,-12.61522 -27.75963,-19.95311 -0.67893,-0.89912 -1.49339,-1.35549 -2.23734,-2.06127 z"
         id="path3867"
         style="fill:#eac102;stroke:#000000;stroke-width:1;stroke-miterlimit:4;stroke-opacity:1;stroke-dasharray:none" />
      <path
         d="m 448.78449,278.23342 c -1.30579,0.1058 -2.64615,0.0696 -3.89464,0.65961 -4.0667,3.00696 -7.5408,5.81892 -10.44093,8.40998 -2.90013,2.59107 -5.24958,5.02774 -7.12635,7.25568 -1.87677,2.22794 -3.22941,4.26621 -4.22609,6.18382 -0.99669,1.9176 -1.64608,3.69923 -1.90589,5.3593 -0.25986,1.66007 -0.16811,3.16195 0.16573,4.61725 0.33382,1.4553 0.95595,2.81921 1.74016,4.12254 1.5684,2.60664 3.87002,5.02272 6.38057,7.33813 3.06792,2.81048 5.49937,5.45788 7.29208,7.99773 1.79271,2.53986 2.95915,4.9213 3.64604,7.25568 0.68689,2.33437 0.8296,4.56691 0.58005,6.76097 -0.24952,2.19406 -0.88932,4.3947 -1.90589,6.51362 -1.01656,2.11892 -2.36329,4.15732 -3.97749,6.26626 -1.61421,2.10895 -3.50948,4.26703 -5.55193,6.43117 -4.08489,4.32826 -8.80833,8.82931 -13.58979,13.76929 -3.4106,3.42883 -6.5569,6.84593 -9.03223,10.55372 -1.23767,1.85389 -2.35532,3.82862 -3.23172,5.85401 -0.8764,2.02539 -1.47576,4.08397 -1.90589,6.34871 -0.43012,2.26475 -0.68113,4.68374 -0.58005,7.25568 0.10103,2.57194 0.52567,5.29812 1.24297,8.24508 0.7173,2.94697 1.7304,6.092 3.14885,9.48185 1.41846,3.38986 3.26444,7.0654 5.46906,10.96597 4.95006,11.06844 9.56761,19.56584 12.84401,26.96143 1.6382,3.69778 2.8865,7.14718 3.72891,10.47126 0.8424,3.32408 1.28224,6.49832 1.07724,9.81165 -0.20498,3.31334 -1.06483,6.72319 -2.56881,10.38881 -1.50397,3.66562 -3.65747,7.57451 -6.71202,11.95538 -1.98902,2.85266 -4.97188,6.2813 -7.70641,9.5643 12.26905,4.93093 22.75909,12.62862 30.07984,25.14751 10.66399,-18.23602 28.31109,-25.32938 48.06144,-28.8578 1.56008,-2.76104 3.18643,-5.47754 4.80614,-7.91528 2.00856,-3.02296 3.94059,-5.85288 5.63479,-8.57489 1.6942,-2.72202 3.13013,-5.35947 4.06037,-7.99774 0.93023,-2.63827 1.36056,-5.30841 1.07723,-8.08018 -0.28333,-2.77178 -1.28523,-5.61729 -3.23171,-8.73979 -1.94649,-3.1225 -4.80729,-6.45104 -8.86651,-10.14146 -4.05922,-3.69042 -9.28841,-7.72714 -15.91,-12.20273 -6.11161,-5.36057 -11.14733,-10.19821 -15.24707,-14.5938 -4.09974,-4.39559 -7.26207,-8.41442 -9.61229,-12.12028 -2.35023,-3.70585 -3.94308,-7.09747 -4.80615,-10.38881 -0.86306,-3.29133 -1.02471,-6.41227 -0.66291,-9.5643 0.36179,-3.15202 1.24453,-6.35879 2.5688,-9.64675 1.32427,-3.28795 3.11316,-6.6897 5.1376,-10.38881 4.04886,-7.39817 9.22586,-15.8551 14.5013,-26.54917 0.95237,-2.39417 1.48978,-4.65203 1.74015,-6.76097 0.25032,-2.10895 0.17183,-4.07421 -0.16573,-5.93647 -0.33769,-1.86225 -0.92832,-3.62279 -1.74015,-5.27685 -0.81184,-1.65406 -1.81106,-3.21532 -2.98313,-4.6997 -2.34409,-2.96873 -5.26798,-5.64164 -8.36932,-8.16264 -3.10133,-2.52099 -6.41658,-4.87444 -9.36369,-7.25567 -2.94711,-2.38124 -5.5764,-4.78864 -7.45781,-7.33813 -0.94071,-1.27475 -1.65109,-2.58307 -2.15448,-3.95764 -0.50339,-1.37457 -0.79364,-2.85702 -0.74578,-4.3699 0.048,-1.51287 0.44704,-3.09244 1.1601,-4.78215 0.71306,-1.6897 1.73955,-3.45428 3.23172,-5.3593 1.49217,-1.90503 3.41529,-3.94253 5.80052,-6.10137 1.12855,-1.02144 2.71311,-2.21343 4.06036,-3.29803 -0.95879,-0.90962 -1.86573,-2.00834 -2.90026,-2.63843 -0.21027,-0.12796 -0.45049,-0.1306 -0.66291,-0.24722 z"
         id="path3865"
         style="fill:#0071bc;stroke:#000000;stroke-width:1;stroke-miterlimit:4;stroke-opacity:1;stroke-dasharray:none" />
      <path
         d="m 437.26631,276.2546 c -2.17288,0.27389 -4.32099,0.83878 -6.5463,1.56657 -4.4506,1.45554 -8.97684,3.63559 -13.17546,5.93646 -4.19862,2.30086 -8.10421,4.66102 -11.43531,6.51362 -5.73542,2.80765 -11.52162,5.56341 -17.40156,7.99773 -5.87993,2.43432 -11.89431,4.5639 -18.06447,6.26626 -2.23716,1.05237 -5.32836,2.28129 -8.53505,3.62784 -3.20668,1.34655 -6.46797,2.8246 -8.94937,4.5348 -1.24069,0.85511 -2.3244,1.76184 -3.06599,2.72088 -0.74159,0.95904 -1.12948,1.97903 -1.1601,3.05068 -0.0305,1.07165 0.35079,2.18752 1.24297,3.38049 0.89218,1.19296 2.2821,2.46978 4.30895,3.79274 0.79582,1.75539 1.15494,3.36043 1.16011,4.8646 0.005,1.50416 -0.36312,2.92126 -0.99438,4.20499 -0.63125,1.28373 -1.53823,2.45128 -2.65166,3.54539 -1.11344,1.0941 -2.45327,2.11538 -3.89464,3.05068 -2.88276,1.87059 -6.26032,3.44441 -9.52942,4.8646 -3.26911,1.42019 -6.44496,2.65893 -8.86651,3.87519 -3.70244,2.24696 -12.07927,4.4795 -17.73301,7.42058 -1.41345,0.73528 -2.69728,1.55659 -3.64604,2.39107 -0.94877,0.83449 -1.57358,1.68237 -1.82303,2.63843 -0.24952,0.95606 -0.10447,1.95075 0.58006,3.05068 0.68455,1.09994 1.87573,2.27924 3.7289,3.54539 -0.24077,1.85154 -1.03184,3.57164 -2.23734,5.11195 -1.2055,1.54032 -2.80363,2.90169 -4.72328,4.205 -3.83927,2.60658 -8.89424,4.82225 -14.08698,6.92587 -5.19273,2.10362 -10.53928,4.1546 -15.08134,6.34872 -0.77259,0.3732 -1.35177,0.76844 -2.07162,1.15431 l 0,40.48337 c 0,90.41425 85.96372,60.34142 139.12959,81.70881 2.73453,-3.283 5.71739,-6.71164 7.70641,-9.5643 3.05455,-4.38087 5.20805,-8.28976 6.71202,-11.95538 1.50398,-3.66562 2.36381,-7.07547 2.56881,-10.38881 0.20497,-3.31333 -0.23494,-6.48757 -1.07724,-9.81165 -0.84241,-3.32408 -2.09071,-6.77348 -3.72891,-10.47126 -3.2764,-7.39559 -7.89395,-15.89299 -12.84401,-26.96143 -2.20462,-3.90057 -4.0506,-7.57611 -5.46906,-10.96597 -1.41845,-3.38985 -2.43155,-6.53488 -3.14885,-9.48185 -0.7173,-2.94696 -1.14189,-5.67314 -1.24297,-8.24508 -0.10103,-2.57194 0.14982,-4.99093 0.58005,-7.25568 0.43013,-2.26474 1.02949,-4.32332 1.90589,-6.34871 0.8764,-2.02539 1.99405,-4.00012 3.23172,-5.85401 2.47533,-3.70779 5.62163,-7.12489 9.03223,-10.55372 4.78146,-4.93998 9.5049,-9.44103 13.58979,-13.76929 2.04245,-2.16414 3.93772,-4.32222 5.55193,-6.43117 1.6142,-2.10894 2.96093,-4.14734 3.97749,-6.26626 1.01657,-2.11892 1.65634,-4.31956 1.90589,-6.51362 0.24952,-2.19406 0.10686,-4.4266 -0.58005,-6.76097 -0.68689,-2.33438 -1.85333,-4.71582 -3.64604,-7.25568 -1.79271,-2.53985 -4.22416,-5.18725 -7.29208,-7.99773 -2.51055,-2.31541 -4.81217,-4.73149 -6.38057,-7.33813 -0.78421,-1.30333 -1.40634,-2.66724 -1.74016,-4.12254 -0.33382,-1.4553 -0.42554,-2.95718 -0.16573,-4.61725 0.25986,-1.66007 0.9092,-3.4417 1.90589,-5.3593 0.99668,-1.91761 2.34932,-3.95588 4.22609,-6.18382 1.87677,-2.22794 4.22622,-4.66461 7.12635,-7.25568 2.90013,-2.59106 6.37423,-5.40302 10.44093,-8.40998 1.24849,-0.58998 2.58885,-0.55376 3.89464,-0.65961 -1.64422,-0.90369 -3.32792,-1.5938 -5.1376,-1.89637 -2.04351,-0.34168 -4.20769,-0.35635 -6.38058,-0.0823 z"
         id="path3862"
         style="fill:#eac102;stroke:#000000;stroke-width:1;stroke-miterlimit:4;stroke-opacity:1;stroke-dasharray:none" />
    </g>
    <g
       transform="translate(-213.32122,1.3482861)"
       id="g4132">
      <path
         d="m 269.09617,196.64567 c 3.52351,-1.63878 6.17398,-5.83832 9.38788,-7.91687 2.94276,-3.57494 7.67731,-10.15322 12.73666,-5.81129 6.62631,7.71296 8.46394,18.23913 14.06139,26.62139 2.62868,5.95121 5.86694,11.34943 10.48296,15.91022"
         id="path3010"
         style="fill:none;stroke:#000000;stroke-width:1;stroke-linecap:butt;stroke-linejoin:miter;stroke-miterlimit:4;stroke-opacity:1;stroke-dasharray:none" />
      <path
         d="m 299.61666,197.78644 c 3.28363,-2.73452 6.69293,-5.5207 9.4604,-7.95483 6.01912,6.90719 11.66144,14.8224 18.57627,21.41335 6.10355,6.53818 12.38508,12.02495 20.15608,16.65475 7.55306,5.85855 13.73396,-5.29944 21.79433,-1.63065 6.15911,2.15478 12.61207,6.40001 17.63504,11.51412 6.85697,7.17399 15.59482,12.2765 24.16699,17.1515 6.34573,1.98586 11.62437,6.99315 18.0409,8.31155 8.49861,-0.87702 15.72364,-5.68653 22.90843,-9.77852 10.92958,-5.09541 30.72769,-20.13136 36.47228,-12.96942 6.33762,3.04495 10.61555,8.76242 14.84066,14.13867"
         id="path3012"
         style="fill:none;stroke:#000000;stroke-width:1;stroke-linecap:butt;stroke-linejoin:miter;stroke-miterlimit:4;stroke-opacity:1;stroke-dasharray:none" />
      <path
         d="m 489.56834,240.82458 c 3.69244,-5.46097 12.03681,-10.33488 15.00596,-14.6243 3.11253,-5.06233 6.53532,-9.24054 10.88191,-13.29976 4.39733,-2.83848 9.42086,0.50668 12.65863,3.59565 6.39229,4.58128 12.93731,8.91807 19.15937,13.68636"
         id="path3014"
         style="fill:none;stroke:#000000;stroke-width:1;stroke-linecap:butt;stroke-linejoin:miter;stroke-miterlimit:4;stroke-opacity:1;stroke-dasharray:none" />
    </g>
    <g
       transform="matrix(2.9386901,0,0,2.9240189,-616.73078,-1159.3384)"
       id="g3934"
       style="stroke-width:0.3411403;stroke-miterlimit:4;stroke-dasharray:none">
      <g
         transform="matrix(-0.45832192,-0.45831534,-0.45832192,0.45831534,795.8044,300.28152)"
         id="g13742"
         style="fill:#e3e4e5;stroke:#000000;stroke-width:0.52632076;stroke-miterlimit:4;stroke-opacity:1;stroke-dasharray:none">
        <path
           d="m 348.29311,713.65273 -11.55364,0.14729 c 2.05703,27.55675 -5.20817,127.20969 -5.20817,127.20969 l 9.32309,-0.23652 7.43872,-127.12046 z"
           id="path3649"
           style="fill:#e3e4e5;fill-opacity:1;fill-rule:evenodd;stroke:#000000;stroke-width:0.52632076;stroke-linecap:butt;stroke-linejoin:miter;stroke-miterlimit:4;stroke-opacity:1;stroke-dasharray:none" />
        <path
           d="m 291.41229,734.027 c -0.71408,1.11702 -0.11415,1.44884 2.11131,0.22035 5.9506,-3.28482 13.43169,-5.90522 20.2432,-7.65871 5.74321,-1.47849 15.3548,-2.92253 21.6271,-1.85035 l -0.51816,11.74589 13.86667,-1.65572 c 0.12389,-0.0148 0.48926,-8.24112 0.60208,-9.50322 6.44849,-2.62805 18.05844,-1.51183 24.34017,-0.10469 6.37863,1.42885 13.19206,3.69684 18.28598,6.70982 5.08021,3.00486 -2.30692,-4.97349 -12.51367,-8.75455 -10.21707,-3.78487 -23.78899,-7.354 -37.02095,-6.20483 -13.36504,1.16071 -32.21095,5.98325 -37.91496,8.44949 -5.79959,2.50756 -11.91864,6.74481 -13.10877,8.60652 z"
           id="path3651"
           style="fill:#e3e4e5;fill-opacity:1;fill-rule:evenodd;stroke:#000000;stroke-width:0.52632076;stroke-linecap:butt;stroke-linejoin:miter;stroke-miterlimit:4;stroke-opacity:1;stroke-dasharray:none" />
      </g>
      <g
         transform="matrix(-0.64247444,-0.08569898,-0.08570021,0.64246522,578.50816,33.542205)"
         id="g13738"
         style="fill:#e3e4e5;stroke:#000000;stroke-width:0.52632082;stroke-miterlimit:4;stroke-opacity:1;stroke-dasharray:none">
        <path
           d="m 406.03834,733.87777 -8.27444,-8.06169 c -18.44906,21.35757 -95.56132,88.19729 -95.56132,88.19729 l 6.76197,6.42031 97.07379,-86.55591 z"
           id="path13720"
           style="fill:#e3e4e5;fill-opacity:1;fill-rule:evenodd;stroke:#000000;stroke-width:0.52632082;stroke-linecap:butt;stroke-linejoin:miter;stroke-miterlimit:4;stroke-opacity:1;stroke-dasharray:none" />
        <path
           d="m 392.64352,765.20163 0.98047,0.78586 c 19.20731,-9.6475 30.98674,-30.51102 21.30527,-51.2741 -16.59992,-8.84122 -43.49106,5.62698 -48.88934,23.47222 l 26.6036,27.01602 z"
           id="path1884"
           style="fill:#e3e4e5;fill-opacity:1;fill-rule:nonzero;stroke:#000000;stroke-width:0.52632082;stroke-linecap:round;stroke-linejoin:round;stroke-miterlimit:4;stroke-opacity:1;stroke-dasharray:none;stroke-dashoffset:0;marker:none;visibility:visible;display:inline;overflow:visible" />
      </g>
    </g>
    <g
       transform="matrix(0.30074987,0,0,0.29856597,242.36334,192.34656)"
       id="g23714"
       style="fill:#ff6600;stroke:#000000;stroke-width:3.33716083;stroke-miterlimit:4;stroke-dasharray:none">
      <path
         d="m -68.241076,208.36574 c -118.946654,7.6759 -163.571494,134.93621 -220.125004,221.65625 l -32.84375,0.28125 2.78125,24.96875 500.46875,0 6.8125,-25.375 -29.8125,0 C 157.8224,303.3295 61.473003,198.33487 -68.241076,208.36574 z"
         id="path23702"
         style="fill:#ff6600;fill-rule:evenodd;stroke:#000000;stroke-width:3.33716083;stroke-linecap:butt;stroke-linejoin:miter;stroke-miterlimit:4;stroke-opacity:1;stroke-dasharray:none" />
      <path
         d="M -307.78125,385.40625 -305,410.375 l 500.46875,0 6.8125,-25.375 -510.0625,0.40625 z"
         id="path23712"
         style="fill:#ff6600;fill-rule:evenodd;stroke:#000000;stroke-width:3.33716083;stroke-linecap:butt;stroke-linejoin:miter;stroke-miterlimit:4;stroke-opacity:1;stroke-dasharray:none" />
      <path
         d="m -260.63932,262.0257 c 0,45.17489 -18.31074,81.79638 -40.89819,81.79638 -22.58745,0 -40.89819,-36.62149 -40.89819,-81.79638 0,-45.17489 18.31074,-81.79638 40.89819,-81.79638 22.58745,0 40.89819,36.62149 40.89819,81.79638 z"
         transform="translate(52.977759,47.136896)"
         id="path23710"
         style="fill:#ff6600;fill-opacity:1;fill-rule:nonzero;stroke:#000000;stroke-width:3.33716083;stroke-linecap:round;stroke-linejoin:bevel;stroke-miterlimit:4;stroke-opacity:1;stroke-dasharray:none;stroke-dashoffset:0" />
      <path
         d="m -260.63932,262.0257 c 0,45.17489 -18.31074,81.79638 -40.89819,81.79638 -22.58745,0 -40.89819,-36.62149 -40.89819,-81.79638 0,-45.17489 18.31074,-81.79638 40.89819,-81.79638 22.58745,0 40.89819,36.62149 40.89819,81.79638 z"
         transform="translate(42.977759,47.136896)"
         id="path23708"
         style="fill:#ff6600;fill-opacity:1;fill-rule:nonzero;stroke:#000000;stroke-width:3.33716083;stroke-linecap:round;stroke-linejoin:bevel;stroke-miterlimit:4;stroke-opacity:1;stroke-dasharray:none;stroke-dashoffset:0" />
    </g>
    <g
       transform="matrix(0.80872498,-0.40828,0.41157483,0.80713162,-364.4761,-19.033393)"
       id="g5518"
       style="fill:#630b57;stroke:#000000;stroke-width:1.10378683;stroke-miterlimit:4;stroke-opacity:1;stroke-dasharray:none">
      <path
         d="m 363.86713,666.85366 c -2.81528,-0.75435 -4.45965,-1.65573 -4.45965,-1.65573 -10.39429,4.45034 -20.45867,9.92921 -30.21298,16.06989 l 0.10597,-5.64792 c 23.11409,-14.56996 40.60938,-22.68634 53.80051,-27.38295 l 3.61051,4.26171 c -5.76716,1.99277 -12.03518,4.79659 -20.75823,9.38476 3.04276,2.72071 6.70073,4.55306 6.18636,20.54914 l -5.04311,24.45174 -3.51911,-0.94294 c 1.71447,-11.87715 8.92845,-30.6956 0.28973,-39.0877 z"
         id="path11555"
         style="fill:#008f4c;fill-opacity:1;fill-rule:evenodd;stroke:#000000;stroke-width:1.10378683;stroke-linecap:butt;stroke-linejoin:miter;stroke-miterlimit:4;stroke-opacity:1;stroke-dasharray:none" />
      <path
         d="m 783.94189,599.6351 c -10.02585,-3.37539 -15.51679,-14.5383 -12.26626,-24.93693 3.25054,-10.39863 14.01242,-16.09773 24.04106,-12.73127 10.02865,3.36646 15.52883,14.52448 12.2869,24.926 -3.24192,10.40152 -13.99908,16.1102 -24.03051,12.75267"
         transform="matrix(0.6242577,0.1672694,-0.1629063,0.6079745,-10.754194,261.40552)"
         id="path11535"
         style="fill:#630b57;fill-opacity:1;fill-rule:evenodd;stroke:#000000;stroke-width:1.73063052;stroke-linecap:round;stroke-linejoin:round;stroke-miterlimit:4;stroke-opacity:1;stroke-dasharray:none;stroke-dashoffset:0" />
      <path
         d="m 783.94189,599.6351 c -10.02585,-3.37539 -15.51679,-14.5383 -12.26626,-24.93693 3.25054,-10.39863 14.01242,-16.09773 24.04106,-12.73127 10.02865,3.36646 15.52883,14.52448 12.2869,24.926 -3.24192,10.40152 -13.99908,16.1102 -24.03051,12.75267"
         transform="matrix(0.6242577,0.1672694,-0.1629063,0.6079745,-11.807627,249.14325)"
         id="path11505"
         style="fill:#630b57;fill-opacity:1;fill-rule:evenodd;stroke:#000000;stroke-width:1.73063052;stroke-linecap:round;stroke-linejoin:round;stroke-miterlimit:4;stroke-opacity:1;stroke-dasharray:none;stroke-dashoffset:0" />
      <path
         d="m 783.94189,599.6351 c -10.02585,-3.37539 -15.51679,-14.5383 -12.26626,-24.93693 3.25054,-10.39863 14.01242,-16.09773 24.04106,-12.73127 10.02865,3.36646 15.52883,14.52448 12.2869,24.926 -3.24192,10.40152 -13.99908,16.1102 -24.03051,12.75267"
         transform="matrix(0.6242577,0.1672694,-0.1629063,0.6079745,-29.001675,221.49765)"
         id="path11507"
         style="fill:#630b57;fill-opacity:1;fill-rule:evenodd;stroke:#000000;stroke-width:1.73063052;stroke-linecap:round;stroke-linejoin:round;stroke-miterlimit:4;stroke-opacity:1;stroke-dasharray:none;stroke-dashoffset:0" />
      <path
         d="m 783.94189,599.6351 c -10.02585,-3.37539 -15.51679,-14.5383 -12.26626,-24.93693 3.25054,-10.39863 14.01242,-16.09773 24.04106,-12.73127 10.02865,3.36646 15.52883,14.52448 12.2869,24.926 -3.24192,10.40152 -13.99908,16.1102 -24.03051,12.75267"
         transform="matrix(0.6242577,0.1672694,-0.1629063,0.6079745,-65.658666,213.51856)"
         id="path11509"
         style="fill:#630b57;fill-opacity:1;fill-rule:evenodd;stroke:#000000;stroke-width:1.73063052;stroke-linecap:round;stroke-linejoin:round;stroke-miterlimit:4;stroke-opacity:1;stroke-dasharray:none;stroke-dashoffset:0" />
      <path
         d="m 783.94189,599.6351 c -10.02585,-3.37539 -15.51679,-14.5383 -12.26626,-24.93693 3.25054,-10.39863 14.01242,-16.09773 24.04106,-12.73127 10.02865,3.36646 15.52883,14.52448 12.2869,24.926 -3.24192,10.40152 -13.99908,16.1102 -24.03051,12.75267"
         transform="matrix(0.6242577,0.1672694,-0.1629063,0.6079745,-12.342124,215.82469)"
         id="path11513"
         style="fill:#630b57;fill-opacity:1;fill-rule:evenodd;stroke:#000000;stroke-width:1.73063052;stroke-linecap:round;stroke-linejoin:round;stroke-miterlimit:4;stroke-opacity:1;stroke-dasharray:none;stroke-dashoffset:0" />
      <path
         d="m 783.94189,599.6351 c -10.02585,-3.37539 -15.51679,-14.5383 -12.26626,-24.93693 3.25054,-10.39863 14.01242,-16.09773 24.04106,-12.73127 10.02865,3.36646 15.52883,14.52448 12.2869,24.926 -3.24192,10.40152 -13.99908,16.1102 -24.03051,12.75267"
         transform="matrix(0.6242577,0.1672694,-0.1629063,0.6079745,-3.8602425,230.0774)"
         id="path11515"
         style="fill:#630b57;fill-opacity:1;fill-rule:evenodd;stroke:#000000;stroke-width:1.73063052;stroke-linecap:round;stroke-linejoin:round;stroke-miterlimit:4;stroke-opacity:1;stroke-dasharray:none;stroke-dashoffset:0" />
      <path
         d="m 783.94189,599.6351 c -10.02585,-3.37539 -15.51679,-14.5383 -12.26626,-24.93693 3.25054,-10.39863 14.01242,-16.09773 24.04106,-12.73127 10.02865,3.36646 15.52883,14.52448 12.2869,24.926 -3.24192,10.40152 -13.99908,16.1102 -24.03051,12.75267"
         transform="matrix(0.6242577,0.1672694,-0.1629063,0.6079745,-78.943533,256.03569)"
         id="path11523"
         style="fill:#630b57;fill-opacity:1;fill-rule:evenodd;stroke:#000000;stroke-width:1.73063052;stroke-linecap:round;stroke-linejoin:round;stroke-miterlimit:4;stroke-opacity:1;stroke-dasharray:none;stroke-dashoffset:0" />
      <path
         d="m 783.94189,599.6351 c -10.02585,-3.37539 -15.51679,-14.5383 -12.26626,-24.93693 3.25054,-10.39863 14.01242,-16.09773 24.04106,-12.73127 10.02865,3.36646 15.52883,14.52448 12.2869,24.926 -3.24192,10.40152 -13.99908,16.1102 -24.03051,12.75267"
         transform="matrix(0.6242577,0.1672694,-0.1629063,0.6079745,-66.429056,244.64436)"
         id="path11519"
         style="fill:#630b57;fill-opacity:1;fill-rule:evenodd;stroke:#000000;stroke-width:1.73063052;stroke-linecap:round;stroke-linejoin:round;stroke-miterlimit:4;stroke-opacity:1;stroke-dasharray:none;stroke-dashoffset:0" />
      <path
         d="m 783.94189,599.6351 c -10.02585,-3.37539 -15.51679,-14.5383 -12.26626,-24.93693 3.25054,-10.39863 14.01242,-16.09773 24.04106,-12.73127 10.02865,3.36646 15.52883,14.52448 12.2869,24.926 -3.24192,10.40152 -13.99908,16.1102 -24.03051,12.75267"
         transform="matrix(0.6242577,0.1672694,-0.1629063,0.6079745,-73.987846,233.40363)"
         id="path11521"
         style="fill:#630b57;fill-opacity:1;fill-rule:evenodd;stroke:#000000;stroke-width:1.73063052;stroke-linecap:round;stroke-linejoin:round;stroke-miterlimit:4;stroke-opacity:1;stroke-dasharray:none;stroke-dashoffset:0" />
      <path
         d="m 783.94189,599.6351 c -10.02585,-3.37539 -15.51679,-14.5383 -12.26626,-24.93693 3.25054,-10.39863 14.01242,-16.09773 24.04106,-12.73127 10.02865,3.36646 15.52883,14.52448 12.2869,24.926 -3.24192,10.40152 -13.99908,16.1102 -24.03051,12.75267"
         transform="matrix(0.6242577,0.1672694,-0.1629063,0.6079745,-25.530076,235.32939)"
         id="path11531"
         style="fill:#630b57;fill-opacity:1;fill-rule:evenodd;stroke:#000000;stroke-width:1.73063052;stroke-linecap:round;stroke-linejoin:round;stroke-miterlimit:4;stroke-opacity:1;stroke-dasharray:none;stroke-dashoffset:0" />
      <path
         d="m 783.94189,599.6351 c -10.02585,-3.37539 -15.51679,-14.5383 -12.26626,-24.93693 3.25054,-10.39863 14.01242,-16.09773 24.04106,-12.73127 10.02865,3.36646 15.52883,14.52448 12.2869,24.926 -3.24192,10.40152 -13.99908,16.1102 -24.03051,12.75267"
         transform="matrix(0.6242577,0.1672694,-0.1629063,0.6079745,-57.407167,228.63107)"
         id="path11533"
         style="fill:#630b57;fill-opacity:1;fill-rule:evenodd;stroke:#000000;stroke-width:1.73063052;stroke-linecap:round;stroke-linejoin:round;stroke-miterlimit:4;stroke-opacity:1;stroke-dasharray:none;stroke-dashoffset:0" />
      <path
         d="m 783.94189,599.6351 c -10.02585,-3.37539 -15.51679,-14.5383 -12.26626,-24.93693 3.25054,-10.39863 14.01242,-16.09773 24.04106,-12.73127 10.02865,3.36646 15.52883,14.52448 12.2869,24.926 -3.24192,10.40152 -13.99908,16.1102 -24.03051,12.75267"
         transform="matrix(0.6242577,0.1672694,-0.1629063,0.6079745,-41.164854,212.70937)"
         id="path11511"
         style="fill:#630b57;fill-opacity:1;fill-rule:evenodd;stroke:#000000;stroke-width:1.73063052;stroke-linecap:round;stroke-linejoin:round;stroke-miterlimit:4;stroke-opacity:1;stroke-dasharray:none;stroke-dashoffset:0" />
      <path
         d="m 783.94189,599.6351 c -10.02585,-3.37539 -15.51679,-14.5383 -12.26626,-24.93693 3.25054,-10.39863 14.01242,-16.09773 24.04106,-12.73127 10.02865,3.36646 15.52883,14.52448 12.2869,24.926 -3.24192,10.40152 -13.99908,16.1102 -24.03051,12.75267"
         transform="matrix(0.6242577,0.1672694,-0.1629063,0.6079745,-25.361635,296.19598)"
         id="path11543"
         style="fill:#630b57;fill-opacity:1;fill-rule:evenodd;stroke:#000000;stroke-width:1.73063052;stroke-linecap:round;stroke-linejoin:round;stroke-miterlimit:4;stroke-opacity:1;stroke-dasharray:none;stroke-dashoffset:0" />
      <path
         d="m 783.94189,599.6351 c -10.02585,-3.37539 -15.51679,-14.5383 -12.26626,-24.93693 3.25054,-10.39863 14.01242,-16.09773 24.04106,-12.73127 10.02865,3.36646 15.52883,14.52448 12.2869,24.926 -3.24192,10.40152 -13.99908,16.1102 -24.03051,12.75267"
         transform="matrix(0.6242577,0.1672694,-0.1629063,0.6079745,-38.317033,295.10752)"
         id="path11541"
         style="fill:#630b57;fill-opacity:1;fill-rule:evenodd;stroke:#000000;stroke-width:1.73063052;stroke-linecap:round;stroke-linejoin:round;stroke-miterlimit:4;stroke-opacity:1;stroke-dasharray:none;stroke-dashoffset:0" />
      <path
         d="m 783.94189,599.6351 c -10.02585,-3.37539 -15.51679,-14.5383 -12.26626,-24.93693 3.25054,-10.39863 14.01242,-16.09773 24.04106,-12.73127 10.02865,3.36646 15.52883,14.52448 12.2869,24.926 -3.24192,10.40152 -13.99908,16.1102 -24.03051,12.75267"
         transform="matrix(0.6242577,0.1672694,-0.1629063,0.6079745,-25.438671,275.90152)"
         id="path11537"
         style="fill:#630b57;fill-opacity:1;fill-rule:evenodd;stroke:#000000;stroke-width:1.73063052;stroke-linecap:round;stroke-linejoin:round;stroke-miterlimit:4;stroke-opacity:1;stroke-dasharray:none;stroke-dashoffset:0" />
      <path
         d="m 783.94189,599.6351 c -10.02585,-3.37539 -15.51679,-14.5383 -12.26626,-24.93693 3.25054,-10.39863 14.01242,-16.09773 24.04106,-12.73127 10.02865,3.36646 15.52883,14.52448 12.2869,24.926 -3.24192,10.40152 -13.99908,16.1102 -24.03051,12.75267"
         transform="matrix(0.6242577,0.1672694,-0.1629063,0.6079745,-69.272915,283.50845)"
         id="path11547"
         style="fill:#630b57;fill-opacity:1;fill-rule:evenodd;stroke:#000000;stroke-width:1.73063052;stroke-linecap:round;stroke-linejoin:round;stroke-miterlimit:4;stroke-opacity:1;stroke-dasharray:none;stroke-dashoffset:0" />
      <path
         d="m 783.94189,599.6351 c -10.02585,-3.37539 -15.51679,-14.5383 -12.26626,-24.93693 3.25054,-10.39863 14.01242,-16.09773 24.04106,-12.73127 10.02865,3.36646 15.52883,14.52448 12.2869,24.926 -3.24192,10.40152 -13.99908,16.1102 -24.03051,12.75267"
         transform="matrix(0.6242577,0.1672694,-0.1629063,0.6079745,-63.050972,266.74486)"
         id="path11525"
         style="fill:#630b57;fill-opacity:1;fill-rule:evenodd;stroke:#000000;stroke-width:1.73063052;stroke-linecap:round;stroke-linejoin:round;stroke-miterlimit:4;stroke-opacity:1;stroke-dasharray:none;stroke-dashoffset:0" />
      <path
         d="m 783.94189,599.6351 c -10.02585,-3.37539 -15.51679,-14.5383 -12.26626,-24.93693 3.25054,-10.39863 14.01242,-16.09773 24.04106,-12.73127 10.02865,3.36646 15.52883,14.52448 12.2869,24.926 -3.24192,10.40152 -13.99908,16.1102 -24.03051,12.75267"
         transform="matrix(0.6242577,0.1672694,-0.1629063,0.6079745,-51.84847,310.2942)"
         id="path11549"
         style="fill:#630b57;fill-opacity:1;fill-rule:evenodd;stroke:#000000;stroke-width:1.73063052;stroke-linecap:round;stroke-linejoin:round;stroke-miterlimit:4;stroke-opacity:1;stroke-dasharray:none;stroke-dashoffset:0" />
      <path
         d="m 783.94189,599.6351 c -10.02585,-3.37539 -15.51679,-14.5383 -12.26626,-24.93693 3.25054,-10.39863 14.01242,-16.09773 24.04106,-12.73127 10.02865,3.36646 15.52883,14.52448 12.2869,24.926 -3.24192,10.40152 -13.99908,16.1102 -24.03051,12.75267"
         transform="matrix(0.6242577,0.1672694,-0.1629063,0.6079745,-62.635943,325.83446)"
         id="path11551"
         style="fill:#630b57;fill-opacity:1;fill-rule:evenodd;stroke:#000000;stroke-width:1.73063052;stroke-linecap:round;stroke-linejoin:round;stroke-miterlimit:4;stroke-opacity:1;stroke-dasharray:none;stroke-dashoffset:0" />
      <path
         d="m 783.94189,599.6351 c -10.02585,-3.37539 -15.51679,-14.5383 -12.26626,-24.93693 3.25054,-10.39863 14.01242,-16.09773 24.04106,-12.73127 10.02865,3.36646 15.52883,14.52448 12.2869,24.926 -3.24192,10.40152 -13.99908,16.1102 -24.03051,12.75267"
         transform="matrix(0.6242577,0.1672694,-0.1629063,0.6079745,-70.196297,308.14256)"
         id="path11553"
         style="fill:#630b57;fill-opacity:1;fill-rule:evenodd;stroke:#000000;stroke-width:1.73063052;stroke-linecap:round;stroke-linejoin:round;stroke-miterlimit:4;stroke-opacity:1;stroke-dasharray:none;stroke-dashoffset:0" />
      <path
         d="m 783.94189,599.6351 c -10.02585,-3.37539 -15.51679,-14.5383 -12.26626,-24.93693 3.25054,-10.39863 14.01242,-16.09773 24.04106,-12.73127 10.02865,3.36646 15.52883,14.52448 12.2869,24.926 -3.24192,10.40152 -13.99908,16.1102 -24.03051,12.75267"
         transform="matrix(0.6242577,0.1672694,-0.1629063,0.6079745,-70.196297,308.14256)"
         id="path11503"
         style="fill:#630b57;fill-opacity:1;fill-rule:evenodd;stroke:#000000;stroke-width:1.73063052;stroke-linecap:round;stroke-linejoin:round;stroke-miterlimit:4;stroke-opacity:1;stroke-dasharray:none;stroke-dashoffset:0" />
      <path
         d="m 783.94189,599.6351 c -10.02585,-3.37539 -15.51679,-14.5383 -12.26626,-24.93693 3.25054,-10.39863 14.01242,-16.09773 24.04106,-12.73127 10.02865,3.36646 15.52883,14.52448 12.2869,24.926 -3.24192,10.40152 -13.99908,16.1102 -24.03051,12.75267"
         transform="matrix(0.6242577,0.1672694,-0.1629063,0.6079745,-60.505357,294.37517)"
         id="path11545"
         style="fill:#630b57;fill-opacity:1;fill-rule:evenodd;stroke:#000000;stroke-width:1.73063052;stroke-linecap:round;stroke-linejoin:round;stroke-miterlimit:4;stroke-opacity:1;stroke-dasharray:none;stroke-dashoffset:0" />
      <path
         d="m 783.94189,599.6351 c -10.02585,-3.37539 -15.51679,-14.5383 -12.26626,-24.93693 3.25054,-10.39863 14.01242,-16.09773 24.04106,-12.73127 10.02865,3.36646 15.52883,14.52448 12.2869,24.926 -3.24192,10.40152 -13.99908,16.1102 -24.03051,12.75267"
         transform="matrix(0.6242577,0.1672694,-0.1629063,0.6079745,-50.00356,282.2209)"
         id="path11539"
         style="fill:#630b57;fill-opacity:1;fill-rule:evenodd;stroke:#000000;stroke-width:1.73063052;stroke-linecap:round;stroke-linejoin:round;stroke-miterlimit:4;stroke-opacity:1;stroke-dasharray:none;stroke-dashoffset:0" />
      <path
         d="m 783.94189,599.6351 c -10.02585,-3.37539 -15.51679,-14.5383 -12.26626,-24.93693 3.25054,-10.39863 14.01242,-16.09773 24.04106,-12.73127 10.02865,3.36646 15.52883,14.52448 12.2869,24.926 -3.24192,10.40152 -13.99908,16.1102 -24.03051,12.75267"
         transform="matrix(0.6242577,0.1672694,-0.1629063,0.6079745,-38.985607,265.82086)"
         id="path11527"
         style="fill:#630b57;fill-opacity:1;fill-rule:evenodd;stroke:#000000;stroke-width:1.73063052;stroke-linecap:round;stroke-linejoin:round;stroke-miterlimit:4;stroke-opacity:1;stroke-dasharray:none;stroke-dashoffset:0" />
      <path
         d="m 783.94189,599.6351 c -10.02585,-3.37539 -15.51679,-14.5383 -12.26626,-24.93693 3.25054,-10.39863 14.01242,-16.09773 24.04106,-12.73127 10.02865,3.36646 15.52883,14.52448 12.2869,24.926 -3.24192,10.40152 -13.99908,16.1102 -24.03051,12.75267"
         transform="matrix(0.6242577,0.1672694,-0.1629063,0.6079745,-32.881295,253.63346)"
         id="path11529"
         style="fill:#630b57;fill-opacity:1;fill-rule:evenodd;stroke:#000000;stroke-width:1.73063052;stroke-linecap:round;stroke-linejoin:round;stroke-miterlimit:4;stroke-opacity:1;stroke-dasharray:none;stroke-dashoffset:0" />
      <path
         d="m 783.94189,599.6351 c -10.02585,-3.37539 -15.51679,-14.5383 -12.26626,-24.93693 3.25054,-10.39863 14.01242,-16.09773 24.04106,-12.73127 10.02865,3.36646 15.52883,14.52448 12.2869,24.926 -3.24192,10.40152 -13.99908,16.1102 -24.03051,12.75267"
         transform="matrix(0.6242577,0.1672694,-0.1629063,0.6079745,-50.807102,253.43796)"
         id="path11501"
         style="fill:#630b57;fill-opacity:1;fill-rule:evenodd;stroke:#000000;stroke-width:1.73063052;stroke-linecap:round;stroke-linejoin:round;stroke-miterlimit:4;stroke-opacity:1;stroke-dasharray:none;stroke-dashoffset:0" />
      <path
         d="m 783.94189,599.6351 c -10.02585,-3.37539 -15.51679,-14.5383 -12.26626,-24.93693 3.25054,-10.39863 14.01242,-16.09773 24.04106,-12.73127 10.02865,3.36646 15.52883,14.52448 12.2869,24.926 -3.24192,10.40152 -13.99908,16.1102 -24.03051,12.75267"
         transform="matrix(0.6242577,0.1672694,-0.1629063,0.6079745,-41.554913,236.56478)"
         id="path11517"
         style="fill:#630b57;fill-opacity:1;fill-rule:evenodd;stroke:#000000;stroke-width:1.73063052;stroke-linecap:round;stroke-linejoin:round;stroke-miterlimit:4;stroke-opacity:1;stroke-dasharray:none;stroke-dashoffset:0" />
    </g>
    <path
       d="m 443.40571,142.44163 c -145.61423,-47.822901 -291.22844,-41.76401 -436.84267,0 l 0,-56.47421 c 145.61423,-41.76401 291.22844,-47.822896 436.84267,0 z"
       id="path2998"
       style="fill:#ff6600;stroke:#000000;stroke-width:0.99999994;stroke-linecap:butt;stroke-linejoin:bevel;stroke-miterlimit:4;stroke-opacity:1;stroke-dasharray:none" />
    <path
       d="m 410.22809,32.574304 c -126.74413,-38.7164016 -251.53238,-41.3336289 -370.48743,0 l 0,66.110209 c 123.50616,-43.637849 249.68557,-41.752818 370.48743,0 z"
       id="path3001"
       style="fill:#ff6600;stroke:#000000;stroke-width:1;stroke-linecap:butt;stroke-linejoin:miter;stroke-miterlimit:4;stroke-opacity:1;stroke-dasharray:none" />
    <g
       transform="translate(-215.16755,1.3482861)"
       id="text4240"
       style="font-size:34px;font-style:normal;font-variant:normal;font-weight:bold;font-stretch:normal;text-align:start;line-height:125%;letter-spacing:0px;word-spacing:0px;writing-mode:lr-tb;text-anchor:start;fill:#000000;fill-opacity:1;stroke:none;font-family:Book Antiqua;-inkscape-font-specification:Book Antiqua Bold">
      <path
         d="m 284.99169,69.595219 -0.40962,-1.333016 c 0.60302,-0.1853 1.21625,-0.431627 1.83967,-0.738983 0.29055,-0.147171 0.48061,-0.301095 0.57018,-0.461775 0.0896,-0.160671 0.1157,-0.414743 0.0784,-0.762217 -0.0657,-0.47767 -0.51591,-2.168733 -1.35051,-5.073196 -0.59895,-2.062162 -1.22676,-4.161775 -1.88344,-6.298846 -1.29063,-4.200037 -1.96135,-6.335674 -2.01218,-6.406915 -0.0508,-0.0712 -0.43595,0.0037 -1.15535,0.224767 -1.47055,0.451901 -2.7218,0.882705 -3.75374,1.292412 -0.59735,0.241472 -0.92757,0.400838 -0.99067,0.478096 -0.0631,0.0773 -0.0955,0.188564 -0.0972,0.333791 -0.002,0.145267 0.19367,1.101249 0.58603,2.867949 l -1.36475,0.41937 c -0.59977,-2.027165 -1.19273,-3.74961 -1.7789,-5.167338 l 0.13555,-0.180594 c 3.37806,-0.875907 6.64342,-1.79826 9.79611,-2.767061 3.1421,-0.965501 6.63703,-2.12049 10.48478,-3.464973 l 0.25258,0.200267 c 0.24435,1.511185 0.6233,3.253079 1.13685,5.225688 l -1.31714,0.404741 c -0.63814,-1.737492 -1.02756,-2.665677 -1.16828,-2.784557 -0.10983,-0.09359 -0.30348,-0.120923 -0.58096,-0.08199 -0.88863,0.122567 -2.5919,0.570698 -5.10981,1.344394 -0.2116,0.06504 -0.3288,0.135792 -0.3516,0.212249 -0.0196,0.08708 0.0454,0.373942 0.19497,0.860575 l 3.18172,10.693385 c 0.94926,3.08922 1.55844,4.977465 1.82754,5.664739 0.26907,0.687287 0.52687,1.0741 0.77341,1.16044 0.16678,0.05296 1.0314,-0.09116 2.59387,-0.43234 l 0.40962,1.333015 c -1.57796,0.403835 -3.23973,0.873952 -4.98534,1.410351 -2.29576,0.705455 -4.14637,1.314646 -5.55183,1.827576 z"
         id="path4248"
         style="font-size:34px;font-style:normal;font-variant:normal;font-weight:bold;font-stretch:normal;text-align:start;line-height:125%;writing-mode:lr-tb;text-anchor:start;font-family:Book Antiqua;-inkscape-font-specification:Book Antiqua Bold" />
      <path
         d="m 302.4316,64.363186 -0.36352,-1.346319 c 1.45434,-0.472928 2.2546,-0.820838 2.40077,-1.043732 0.14617,-0.222889 0.14975,-0.676684 0.0107,-1.361387 -0.30604,-1.43062 -0.97836,-4.069242 -2.01696,-7.915876 -0.39814,-1.474527 -0.99651,-3.605769 -1.79513,-6.393733 -0.53779,-1.906838 -0.86399,-2.945105 -0.97859,-3.114805 -0.11459,-0.169657 -0.26357,-0.275599 -0.44693,-0.317825 -0.2668,-0.05404 -1.10628,0.06371 -2.51842,0.353262 l -0.36351,-1.346319 c 2.22421,-0.508812 3.91864,-0.920464 5.08331,-1.234956 2.0088,-0.542361 3.81372,-1.075557 5.41477,-1.599587 l 0.36351,1.346319 c -1.43009,0.477869 -2.21915,0.814159 -2.36719,1.008872 -0.14805,0.19476 -0.1781,0.561124 -0.0901,1.099096 0.18079,1.051753 0.69385,3.14298 1.53917,6.273687 1.12515,4.16719 1.92519,7.066528 2.4001,8.698022 0.4749,1.631509 0.83432,2.580556 1.07828,2.847143 0.1016,0.1216 0.26741,0.194338 0.49741,0.218213 0.22999,0.02388 0.99229,-0.0931 2.2869,-0.350937 l 0.36352,1.346319 -1.90424,0.462568 c -1.20828,0.280385 -2.28256,0.547518 -3.22283,0.801399 z"
         id="path4250"
         style="font-size:34px;font-style:normal;font-variant:normal;font-weight:bold;font-stretch:normal;text-align:start;line-height:125%;writing-mode:lr-tb;text-anchor:start;font-family:Book Antiqua;-inkscape-font-specification:Book Antiqua Bold" />
      <path
         d="m 316.24814,60.645241 -0.20491,-0.872752 c 0.51035,-0.392667 0.96209,-0.817051 1.35523,-1.273152 -0.17915,-1.731447 -0.90115,-5.29085 -2.16601,-10.678219 -0.86263,-3.674164 -1.47206,-6.100395 -1.82828,-7.278701 -0.18158,-0.628098 -0.38625,-1.003527 -0.61402,-1.126286 -0.22777,-0.122717 -1.06131,-0.07765 -2.50063,0.1352 l -0.31874,-1.357615 c 2.5656,-0.500019 4.58647,-0.923325 6.06261,-1.269921 l 8.88254,-2.187789 c 0.93739,-0.220059 1.79206,-0.38093 2.56401,-0.482615 l 0.15487,0.151221 c 0.0387,1.230124 0.2331,2.832933 0.58324,4.808432 l -1.2768,0.299772 c -0.42323,-1.560438 -0.6825,-2.38632 -0.77782,-2.477648 -0.0953,-0.09128 -0.3645,-0.136088 -0.80747,-0.134426 -0.93985,0.01605 -2.33101,0.240348 -4.17347,0.672907 -0.90509,0.21252 -1.95215,0.498144 -3.14121,0.856873 0.64161,3.362295 1.18311,6.031848 1.6245,8.008665 1.1706,-0.195243 2.26231,-0.411768 3.27514,-0.649577 1.49768,-0.351616 2.38599,-0.611334 2.66492,-0.779154 0.16798,-0.107638 0.2606,-0.294228 0.27785,-0.559771 0.0191,-0.209106 -0.0648,-0.905621 -0.25185,-2.089547 l 1.38994,-0.326334 c 0.37364,1.833594 0.62497,3.025137 0.754,3.574632 l 0.93459,3.617496 -1.38994,0.326334 c -0.40683,-1.393767 -0.6948,-2.184491 -0.8639,-2.372172 -0.095,-0.114104 -0.26198,-0.171538 -0.50088,-0.172302 -0.56658,0.008 -1.79265,0.233311 -3.67821,0.675999 -0.59262,0.139148 -1.28,0.334639 -2.06214,0.586474 0.11251,0.576132 0.23835,1.160496 0.37749,1.753094 0.72349,3.081579 1.3339,5.439367 1.83123,7.073372 l 3.21148,-0.702842 c 1.82092,-0.427518 3.46284,-0.915332 4.92578,-1.463444 0.0366,-1.05451 0.0309,-2.241181 -0.0173,-3.560016 l 1.34146,-0.31495 c 0.19739,1.954543 0.47946,3.809621 0.84619,5.565239 -0.95522,0.337956 -1.88536,0.61318 -2.79042,0.825673 -0.59262,0.139138 -1.76674,0.392063 -3.52235,0.758776 -1.63711,0.338892 -3.13986,0.668974 -4.50824,0.990246 -1.79938,0.422465 -3.68688,0.905408 -5.66249,1.448828 z"
         id="path4252"
         style="font-size:34px;font-style:normal;font-variant:normal;font-weight:bold;font-stretch:normal;text-align:start;line-height:125%;writing-mode:lr-tb;text-anchor:start;font-family:Book Antiqua;-inkscape-font-specification:Book Antiqua Bold" />
      <path
         d="m 335.41697,56.154197 -0.25762,-1.370528 c 1.2413,-0.345949 1.94521,-0.58525 2.11173,-0.717906 0.10738,-0.08775 0.17497,-0.207443 0.20278,-0.359072 0.0597,-0.281497 -0.0298,-1.176862 -0.26843,-2.686099 -0.38317,-2.337937 -0.7005,-4.175856 -0.95198,-5.513762 -0.33942,-1.805604 -0.79259,-4.096603 -1.35952,-6.873004 -0.43404,-2.069348 -0.7766,-3.322556 -1.02767,-3.759627 -0.0701,-0.133204 -0.17756,-0.225619 -0.3224,-0.277245 -0.19448,-0.07604 -0.91855,-0.06381 -2.17221,0.03669 l -0.25762,-1.370528 c 2.26794,-0.336199 3.72822,-0.56565 4.38085,-0.688352 l 8.14662,-1.683388 c 1.77298,-0.333251 3.09685,-0.404736 3.97162,-0.214455 0.87474,0.190332 1.61975,0.618996 2.23502,1.285995 0.61525,0.667048 1.01898,1.511788 1.21119,2.534223 0.24534,1.305285 0.0826,2.521161 -0.48835,3.647631 -0.57095,1.126507 -1.72028,2.246292 -3.44802,3.359358 l 4.45976,4.584113 3.46289,3.504574 c 0.63389,0.55654 1.08871,0.879276 1.36446,0.968209 0.27572,0.08894 0.69741,0.08569 1.26509,-0.0098 l 0.23616,1.256317 -0.95957,0.197267 c -2.75874,0.541096 -4.53102,0.908026 -5.31686,1.10079 -1.23054,-1.334043 -3.05657,-3.259995 -5.4781,-5.777862 l -4.32101,-4.475054 c 0.0631,-0.203301 0.1079,-0.414425 0.13432,-0.633374 0.44531,-0.02739 0.77129,-0.06051 0.97797,-0.09937 1.01157,-0.190138 1.93016,-0.785117 2.75577,-1.78494 0.82559,-0.999791 1.09629,-2.255659 0.81209,-3.767609 -0.24741,-1.316121 -0.82574,-2.265993 -1.73501,-2.849618 -0.90928,-0.583581 -2.13619,-0.730213 -3.68075,-0.439897 -0.48948,0.09203 -1.14583,0.254825 -1.96906,0.488379 l 0.79054,4.834633 1.0002,6.129715 c 0.25967,1.381416 0.6463,3.138737 1.15992,5.271969 0.39166,1.604351 0.64941,2.49624 0.77324,2.675669 0.0918,0.129139 0.23295,0.220859 0.42335,0.275159 0.25295,0.08759 1.011,0.04645 2.27416,-0.123422 l 0.25762,1.370528 c -1.97222,0.291896 -3.71429,0.579946 -5.22621,0.864149 -1.60983,0.302608 -3.33215,0.665775 -5.16696,1.089504 z"
         id="path4254"
         style="font-size:34px;font-style:normal;font-variant:normal;font-weight:bold;font-stretch:normal;text-align:start;line-height:125%;writing-mode:lr-tb;text-anchor:start;font-family:Book Antiqua;-inkscape-font-specification:Book Antiqua Bold" />
      <path
         d="m 359.57277,51.671507 -0.18994,-1.381535 c 1.25682,-0.28451 1.97164,-0.488919 2.14447,-0.613229 0.11156,-0.08237 0.18496,-0.19859 0.22019,-0.348669 0.0735,-0.278222 0.0281,-1.176903 -0.13606,-2.696046 -0.26777,-2.353948 -0.49437,-4.205244 -0.67978,-5.553895 -0.25025,-1.820106 -0.59025,-4.130612 -1.02001,-6.931526 -0.33179,-2.088183 -0.61232,-3.356715 -0.84161,-3.805601 -0.0635,-0.136488 -0.16625,-0.234074 -0.30838,-0.292758 -0.1905,-0.0855 -0.9143,-0.108883 -2.17139,-0.07014 l -0.18994,-1.381535 c 2.28173,-0.224305 3.75153,-0.381692 4.4094,-0.472163 l 8.21952,-1.280878 c 1.78722,-0.245691 3.113,-0.25201 3.97736,-0.01896 0.86433,0.233102 1.58736,0.697872 2.16911,1.394311 0.58171,0.696486 0.94342,1.560051 1.08514,2.590698 0.18088,1.315768 -0.0415,2.522172 -0.66708,3.619215 -0.62562,1.097078 -1.82862,2.159009 -3.60899,3.185797 l 4.22902,4.797806 3.28643,3.670567 c 0.60576,0.587029 1.04417,0.931733 1.31522,1.034114 0.271,0.10239 0.69235,0.119871 1.26404,0.05244 l 0.17411,1.266407 -0.9681,0.149857 c -2.78201,0.404827 -4.57019,0.68419 -5.36456,0.838091 -1.16347,-1.392922 -2.89261,-3.406311 -5.18744,-6.040171 l -4.0958,-4.682059 c 0.073,-0.199952 0.12814,-0.40862 0.1653,-0.626005 0.44611,-0.0055 0.77333,-0.02252 0.98167,-0.05118 1.01969,-0.14018 1.96642,-0.689283 2.84018,-1.647312 0.87374,-0.957997 1.20585,-2.19904 0.99632,-3.723133 -0.18241,-1.326692 -0.71335,-2.303845 -1.59283,-2.931463 -0.87949,-0.627574 -2.09772,-0.834342 -3.65467,-0.620306 -0.49342,0.06786 -1.15698,0.19819 -1.99069,0.390994 l 0.55192,4.867649 0.69767,6.171473 c 0.19144,1.39251 0.49122,3.166713 0.89935,5.322614 0.31232,1.621665 0.52591,2.525146 0.64077,2.710445 0.0854,0.133498 0.22181,0.232044 0.40931,0.295638 0.24834,0.09992 1.0075,0.09609 2.27748,-0.01148 l 0.18994,1.381536 c -1.98419,0.194592 -3.73831,0.396656 -5.26238,0.606192 -1.62276,0.223104 -3.36085,0.501166 -5.21427,0.834186 z"
         id="path4256"
         style="font-size:34px;font-style:normal;font-variant:normal;font-weight:bold;font-stretch:normal;text-align:start;line-height:125%;writing-mode:lr-tb;text-anchor:start;font-family:Book Antiqua;-inkscape-font-specification:Book Antiqua Bold" />
      <path
         d="m 383.6405,46.868718 c 1.0319,-0.143583 1.66256,-0.30292 1.892,-0.478009 0.156,-0.124388 0.37939,-0.56555 0.67018,-1.323486 0.55036,-1.490985 1.24068,-3.554864 2.07096,-6.191644 l 4.632,-14.841076 2.43159,-0.207475 8.99257,17.127578 c 1.16707,2.22198 1.87305,3.433598 2.11796,3.634858 0.24486,0.201268 0.95506,0.290627 2.1306,0.268079 l 0.11856,1.389482 c -1.80412,0.07618 -3.50566,0.182486 -5.10465,0.318918 -1.9078,0.162782 -3.71855,0.356161 -5.43226,0.580138 l -0.11856,-1.389482 c 1.30757,-0.167106 2.05937,-0.306231 2.2554,-0.417376 0.196,-0.111139 0.28365,-0.288014 0.26297,-0.530626 -0.0179,-0.209521 -0.31064,-0.906557 -0.87822,-2.091111 l -1.33309,-2.735437 c -1.36932,0.09463 -2.89759,0.213918 -4.5848,0.357872 -1.46669,0.125151 -2.80009,0.250031 -4.00021,0.374639 l -0.56552,1.964369 c -0.15428,0.535241 -0.33102,1.327875 -0.53023,2.377906 -0.0464,0.237229 -0.0616,0.449576 -0.0456,0.637043 0.0216,0.253639 0.14444,0.423663 0.36843,0.510076 0.22397,0.08642 1.00783,0.127836 2.35159,0.124258 l 0.11856,1.389482 c -1.0873,0.01502 -2.43597,0.09121 -4.046,0.228589 -1.53284,0.13079 -2.7481,0.273359 -3.64578,0.427708 z m 9.48356,-16.954545 -2.7662,8.783571 c 1.01924,-0.03142 2.14089,-0.09935 3.36497,-0.203805 1.2792,-0.109137 2.50091,-0.241149 3.66515,-0.396036 z"
         id="path4258"
         style="font-size:34px;font-style:normal;font-variant:normal;font-weight:bold;font-stretch:normal;text-align:start;line-height:125%;writing-mode:lr-tb;text-anchor:start;font-family:Book Antiqua;-inkscape-font-specification:Book Antiqua Bold" />
      <path
         d="m 418.57561,44.268 c 1.03946,-0.0702 1.67982,-0.184501 1.92108,-0.342914 0.16441,-0.113036 0.41847,-0.537282 0.76216,-1.272739 0.6545,-1.448298 1.48915,-3.458148 2.50395,-6.029558 l 5.67068,-14.47606 2.44018,-0.03487 7.75791,17.721036 c 1.00689,2.299002 1.62536,3.557544 1.85541,3.775632 0.23001,0.218091 0.9321,0.357487 2.10629,0.418188 l 0.0199,1.394389 c -1.80499,-0.05169 -3.50979,-0.06607 -5.11442,-0.04314 -1.91454,0.02736 -3.73444,0.09211 -5.4597,0.194243 l -0.0199,-1.394389 c 1.31612,-0.07415 2.07588,-0.159722 2.27928,-0.256716 0.20337,-0.09699 0.30333,-0.267217 0.29987,-0.510684 -0.003,-0.210263 -0.2457,-0.926268 -0.72804,-2.14802 l -1.13615,-2.822921 c -1.37259,-0.0025 -2.90547,0.0083 -4.59864,0.03251 -1.47186,0.02104 -2.81076,0.05124 -4.01669,0.09061 l -0.70312,1.919422 c -0.19177,0.522981 -0.42416,1.30112 -0.69718,2.334419 -0.0631,0.23335 -0.0933,0.444089 -0.0906,0.632219 0.004,0.254533 0.1141,0.432823 0.33141,0.53487 0.2173,0.10205 0.99626,0.198839 2.33691,0.290368 l 0.0199,1.394389 c -1.08564,-0.06197 -2.43631,-0.08141 -4.05202,-0.05832 -1.53826,0.02198 -2.76056,0.07819 -3.66691,0.168623 z m 10.65965,-16.240885 -3.38088,8.565785 c 1.01891,0.04079 2.14256,0.05241 3.37096,0.03484 1.28371,-0.01834 2.5117,-0.06356 3.68398,-0.135661 z"
         id="path4260"
         style="font-size:34px;font-style:normal;font-variant:normal;font-weight:bold;font-stretch:normal;text-align:start;line-height:125%;writing-mode:lr-tb;text-anchor:start;font-family:Book Antiqua;-inkscape-font-specification:Book Antiqua Bold" />
      <path
         d="m 445.02647,45.367822 0.0651,-1.39301 0.9981,-0.01982 c 0.80913,-0.0065 1.32139,-0.121037 1.53677,-0.343645 0.21538,-0.222604 0.37093,-1.001997 0.46664,-2.33818 0.20505,-2.727116 0.38201,-5.682686 0.53088,-8.866718 0.0791,-1.691497 0.15796,-3.615692 0.23664,-5.772591 0.0389,-1.305578 -10e-4,-2.105201 -0.12052,-2.398871 -0.0596,-0.146803 -0.17581,-0.268573 -0.34856,-0.365309 -0.17276,-0.09669 -0.95331,-0.227364 -2.34167,-0.392013 l 0.0651,-1.39301 c 1.33618,0.09573 2.64549,0.173565 3.92795,0.2335 1.4925,0.0698 2.93051,0.120411 4.31402,0.151831 0.53135,1.431998 1.08534,2.853951 1.66197,4.265864 0.40727,1.005161 2.21874,5.272471 5.43443,12.801943 4.11244,-7.386302 7.00392,-12.829791 8.67446,-16.330484 1.32407,0.117325 2.58312,0.203888 3.77715,0.259689 1.40404,0.06567 2.75964,0.101343 4.06682,0.107034 l -0.0651,1.39301 c -1.45246,0.02075 -2.27652,0.109645 -2.47218,0.266673 -0.19573,0.157067 -0.34112,0.65994 -0.43617,1.50862 -0.1536,1.388892 -0.32162,4.034646 -0.50404,7.93727 -0.092,1.967911 -0.1671,4.047401 -0.22519,6.238477 -0.0581,2.191085 -0.0387,3.432933 0.0585,3.725547 0.0696,0.169453 0.17422,0.301762 0.31384,0.396926 0.13956,0.09516 0.90854,0.236374 2.30695,0.423629 l -0.0651,1.39301 c -1.7869,-0.17218 -3.38237,-0.291091 -4.78641,-0.356733 -1.41515,-0.06616 -3.34089,-0.111875 -5.77724,-0.137142 l 0.0651,-1.393009 0.97998,0.01258 c 0.77542,0.003 1.26414,-0.08216 1.46617,-0.255537 0.20198,-0.173372 0.34884,-0.648477 0.44058,-1.425315 0.0917,-0.776836 0.20526,-2.61354 0.34071,-5.510121 l 0.46829,-10.016403 c -1.86231,3.336606 -4.24407,7.712567 -7.1453,13.127896 -1.18995,2.226808 -2.12254,4.044612 -2.79778,5.453415 l -1.12767,-0.05272 c -0.74028,-1.940333 -1.73895,-4.396877 -2.99601,-7.369638 l -5.18663,-12.05909 -0.10544,2.255349 c -0.29152,6.235386 -0.45916,10.532046 -0.50292,12.889991 -0.0113,0.952337 0.0885,1.544229 0.29924,1.775678 0.21077,0.231451 1.02769,0.413682 2.45077,0.546691 l -0.0651,1.39301 c -1.12355,-0.141167 -2.24916,-0.238111 -3.37682,-0.290832 -1.68046,-0.07857 -3.18057,-0.104379 -4.50032,-0.07744 z"
         id="path4262"
         style="font-size:34px;font-style:normal;font-variant:normal;font-weight:bold;font-stretch:normal;text-align:start;line-height:125%;writing-mode:lr-tb;text-anchor:start;font-family:Book Antiqua;-inkscape-font-specification:Book Antiqua Bold" />
      <path
         d="m 479.13981,45.617286 c 1.04032,0.05614 1.68981,0.02019 1.94846,-0.107853 0.17689,-0.0923 0.48043,-0.482677 0.91063,-1.171123 0.82499,-1.358423 1.89679,-3.252463 3.21539,-5.682127 l 7.38127,-13.683196 2.42646,0.260762 5.55579,18.529799 c 0.72119,2.403978 1.18277,3.72813 1.38473,3.97246 0.20192,0.244329 0.88198,0.467687 2.04018,0.670073 l -0.149,1.386548 c -1.78546,-0.269796 -3.47599,-0.49043 -5.07159,-0.661903 -1.90378,-0.204591 -3.71813,-0.360612 -5.44307,-0.468064 l 0.14901,-1.386548 c 1.31541,0.08571 2.07994,0.09273 2.29359,0.02107 0.21362,-0.07166 0.33344,-0.228536 0.35948,-0.470632 0.0224,-0.209082 -0.13177,-0.949198 -0.46267,-2.220351 l -0.7861,-2.939691 c -1.36219,-0.168645 -2.8851,-0.343438 -4.56875,-0.524381 -1.46359,-0.157278 -2.7963,-0.289368 -3.99813,-0.396267 l -0.93028,1.820198 c -0.25367,0.495922 -0.57855,1.240208 -0.97463,2.232862 -0.0909,0.223997 -0.14635,0.429532 -0.16645,0.616604 -0.0272,0.253102 0.0609,0.443452 0.26422,0.571053 0.20335,0.127603 0.96487,0.317972 2.28458,0.571109 l -0.14901,1.386547 c -1.07015,-0.192925 -2.40854,-0.375716 -4.01517,-0.548374 -1.52961,-0.164381 -2.74973,-0.256542 -3.66036,-0.276484 z m 12.54718,-14.831147 -4.39288,8.093554 c 1.00648,0.163828 2.12046,0.311372 3.34195,0.442632 1.27649,0.137188 2.50093,0.240945 3.67332,0.311271 z"
         id="path4264"
         style="font-size:34px;font-style:normal;font-variant:normal;font-weight:bold;font-stretch:normal;text-align:start;line-height:125%;writing-mode:lr-tb;text-anchor:start;font-family:Book Antiqua;-inkscape-font-specification:Book Antiqua Bold" />
      <path
         d="m 505.39357,50.04455 0.21822,-1.377353 c 1.28535,0.09158 2.02874,0.102905 2.23016,0.03396 0.13064,-0.04654 0.23454,-0.13653 0.31172,-0.269979 0.15087,-0.245033 0.36767,-1.11835 0.6504,-2.619954 0.42527,-2.330647 0.74441,-4.168251 0.95744,-5.512817 0.28748,-1.814596 0.63104,-4.124576 1.03068,-6.929948 0.28705,-2.0948 0.38583,-3.390222 0.29634,-3.886268 -0.0212,-0.149015 -0.0913,-0.272184 -0.2104,-0.369506 -0.15759,-0.137003 -0.84361,-0.368953 -2.05806,-0.695851 l 0.21821,-1.377352 c 2.24893,0.445969 3.70134,0.720898 4.35723,0.824787 l 8.2383,1.153922 c 1.7818,0.282314 3.05262,0.660142 3.81247,1.133484 0.75982,0.473381 1.31731,1.127594 1.67248,1.962642 0.35513,0.835083 0.4513,1.766389 0.28853,2.793922 -0.20785,1.311778 -0.76999,2.402121 -1.68643,3.271033 -0.91648,0.868935 -2.37543,1.537054 -4.37683,2.004359 l 2.65868,5.816785 2.08285,4.464909 c 0.40984,0.737278 0.72966,1.194155 0.95945,1.370632 0.22975,0.176472 0.62799,0.315204 1.19471,0.416194 l -0.20003,1.262574 -0.97002,-0.136873 c -2.78005,-0.418034 -4.57253,-0.668399 -5.37743,-0.751097 -0.71031,-1.670134 -1.78242,-4.097944 -3.21632,-7.283439 l -2.56468,-5.667423 c 0.12781,-0.170236 0.24097,-0.354012 0.33948,-0.551327 0.42858,0.123942 0.74672,0.20236 0.95443,0.235255 1.01661,0.161074 2.08177,-0.09039 3.1955,-0.754382 1.11369,-0.663974 1.79091,-1.755695 2.03166,-3.275168 0.20954,-1.32268 -0.0157,-2.411709 -0.6758,-3.26709 -0.66011,-0.855345 -1.76629,-1.405989 -3.31852,-1.651932 -0.49193,-0.07792 -1.1648,-0.145299 -2.01863,-0.202152 l -0.88113,4.818946 -1.11915,6.109117 c -0.21995,1.388292 -0.44672,3.173296 -0.68031,5.355021 -0.17061,1.64263 -0.22777,2.569253 -0.17148,2.779872 0.0431,0.152499 0.14513,0.286329 0.30618,0.40149 0.20877,0.167545 0.93651,0.383694 2.18324,0.648447 l -0.21821,1.377352 c -1.95554,-0.388256 -3.69303,-0.702748 -5.21248,-0.943476 -1.61785,-0.256316 -3.36199,-0.493423 -5.23245,-0.711319 z"
         id="path4266"
         style="font-size:34px;font-style:normal;font-variant:normal;font-weight:bold;font-stretch:normal;text-align:start;line-height:125%;writing-mode:lr-tb;text-anchor:start;font-family:Book Antiqua;-inkscape-font-specification:Book Antiqua Bold" />
      <path
         d="m 529.6331,54.035228 0.26832,-1.368475 c 1.51371,0.217844 2.38535,0.259044 2.61492,0.123599 0.22956,-0.135442 0.43315,-0.541024 0.61075,-1.216745 0.35712,-1.41873 0.91898,-4.083059 1.68561,-7.992994 0.29386,-1.498795 0.69803,-3.675234 1.21252,-6.529325 0.35945,-1.948344 0.52523,-3.023946 0.49734,-3.226809 -0.0279,-0.202822 -0.1148,-0.363659 -0.26067,-0.482508 -0.21552,-0.166299 -1.02072,-0.431318 -2.41559,-0.79506 l 0.26831,-1.368475 c 2.22031,0.525584 3.92238,0.904422 5.10623,1.136515 2.04184,0.400364 3.89671,0.718934 5.56462,0.955708 l -0.26832,1.368475 c -1.49413,-0.202704 -2.3506,-0.249387 -2.5694,-0.14005 -0.21882,0.109375 -0.40756,0.424822 -0.56619,0.94634 -0.30219,1.0235 -0.76525,3.126363 -1.38918,6.308595 -0.83051,4.235764 -1.39291,7.190409 -1.68719,8.863943 -0.29431,1.67354 -0.39088,2.683762 -0.28971,3.030671 0.0375,0.153969 0.15412,0.292444 0.34995,0.415426 0.19581,0.122981 0.93142,0.35462 2.20685,0.694918 l -0.26832,1.368475 -1.9128,-0.425794 c -1.20791,-0.281948 -2.28974,-0.516619 -3.2455,-0.704012 z"
         id="path4268"
         style="font-size:34px;font-style:normal;font-variant:normal;font-weight:bold;font-stretch:normal;text-align:start;line-height:125%;writing-mode:lr-tb;text-anchor:start;font-family:Book Antiqua;-inkscape-font-specification:Book Antiqua Bold" />
      <path
         d="m 543.63879,56.79446 0.19334,-0.841354 c 0.6577,-0.144126 1.2942,-0.344228 1.9095,-0.600306 0.81193,-2.89094 1.58226,-5.922038 2.31098,-9.093303 0.57256,-2.49169 1.08593,-4.849361 1.54013,-7.07302 0.32951,-1.58226 0.46221,-2.505683 0.39809,-2.770272 -0.0217,-0.152599 -0.10811,-0.283174 -0.25918,-0.391726 -0.15109,-0.108511 -0.91413,-0.383214 -2.28911,-0.82411 l 0.3123,-1.35911 c 2.06942,0.532331 3.99402,1.002972 5.77381,1.411925 1.72585,0.396602 3.36621,0.745148 4.9211,1.045639 l -0.31231,1.359111 c -1.51087,-0.244954 -2.39815,-0.312566 -2.66183,-0.202837 -0.16255,0.06488 -0.30756,0.238804 -0.43503,0.521784 -0.12751,0.283017 -0.57427,2.017212 -1.34029,5.202591 l -1.90772,7.857297 c -0.33958,1.477766 -0.69469,3.196115 -1.06533,5.155049 1.39568,0.400207 2.4333,0.678387 3.11287,0.834542 2.03865,0.46846 3.78966,0.706157 5.25303,0.713091 0.50599,-0.917136 1.04997,-2.024275 1.63197,-3.32142 l 1.42383,0.327179 c -0.59177,1.487953 -1.24207,3.354238 -1.95089,5.59886 -1.05945,-0.08446 -2.02062,-0.225836 -2.88353,-0.424123 l -5.84225,-1.410617 -2.61371,-0.634667 c -1.20562,-0.288395 -2.94554,-0.648462 -5.21977,-1.080203 z"
         id="path4270"
         style="font-size:34px;font-style:normal;font-variant:normal;font-weight:bold;font-stretch:normal;text-align:start;line-height:125%;writing-mode:lr-tb;text-anchor:start;font-family:Book Antiqua;-inkscape-font-specification:Book Antiqua Bold" />
      <path
         d="m 563.87231,61.535794 0.22575,-0.833244 c 0.66278,-0.118569 1.30655,-0.293893 1.9313,-0.525972 0.92318,-2.857359 1.81021,-5.856381 2.66109,-8.997074 0.66854,-2.46767 1.27276,-4.803712 1.81265,-7.008132 0.39049,-1.568325 0.55882,-2.485922 0.50499,-2.752794 -0.0158,-0.153325 -0.0971,-0.287145 -0.24383,-0.401461 -0.14678,-0.114276 -0.89862,-0.418298 -2.25551,-0.912065 l 0.36466,-1.346009 c 2.04726,0.612004 3.95221,1.156762 5.71485,1.634274 1.70921,0.463083 3.33486,0.874839 4.87696,1.235269 l -0.36467,1.346008 c -1.50026,-0.30323 -2.38426,-0.405123 -2.65199,-0.305679 -0.16493,0.05854 -0.31657,0.226724 -0.45489,0.50456 -0.13836,0.277872 -0.65189,1.993482 -1.54059,5.146836 l -2.21031,7.777597 c -0.39651,1.463521 -0.81784,3.166842 -1.264,5.109969 1.37915,0.45391 2.40523,0.77203 3.07825,0.954362 2.019,0.546991 3.75949,0.852262 5.2215,0.915813 0.54109,-0.896871 1.12751,-1.982132 1.75926,-3.255787 l 1.4101,0.382027 c -0.6489,1.463941 -1.37092,3.303666 -2.16606,5.519181 -1.05538,-0.125392 -2.01037,-0.303851 -2.86496,-0.535378 l -5.78329,-1.635614 -2.58719,-0.735325 c -1.19357,-0.334828 -2.91825,-0.761948 -5.17407,-1.281362 z"
         id="path4272"
         style="font-size:34px;font-style:normal;font-variant:normal;font-weight:bold;font-stretch:normal;text-align:start;line-height:125%;writing-mode:lr-tb;text-anchor:start;font-family:Book Antiqua;-inkscape-font-specification:Book Antiqua Bold" />
      <path
         d="m 583.22371,65.202182 c 1.00834,0.262061 1.65198,0.356088 1.93095,0.282081 0.19172,-0.05525 0.56688,-0.377408 1.12548,-0.966467 1.07884,-1.16706 2.50614,-2.809907 4.28191,-4.928545 l 9.9568,-11.940481 2.32602,0.738452 1.75691,19.264827 c 0.22834,2.499419 0.41716,3.888944 0.56645,4.168581 0.14925,0.279626 0.77125,0.633858 1.86601,1.062699 l -0.42197,1.329156 c -1.69604,-0.619734 -3.30884,-1.172398 -4.83841,-1.657994 -1.82497,-0.579381 -3.57197,-1.093368 -5.24102,-1.541962 l 0.42197,-1.329157 c 1.27204,0.345782 2.01988,0.50482 2.24352,0.477114 0.2236,-0.02771 0.37225,-0.157604 0.44595,-0.389676 0.0636,-0.200431 0.0598,-0.956435 -0.0115,-2.268013 l -0.18532,-3.037333 c -1.30138,-0.43637 -2.75905,-0.910753 -4.37301,-1.42315 -1.40301,-0.445412 -2.68277,-0.84009 -3.83928,-1.184036 l -1.27393,1.598645 c -0.34729,0.435517 -0.81379,1.100259 -1.39951,1.994228 -0.13363,0.201433 -0.2289,0.391814 -0.28583,0.571144 -0.077,0.242624 -0.0286,0.446695 0.14529,0.612215 0.17388,0.165519 0.88229,0.503636 2.12522,1.014353 l -0.42198,1.329156 c -1.01035,-0.402045 -2.28559,-0.847542 -3.82571,-1.336492 -1.4663,-0.46551 -2.64367,-0.798651 -3.53212,-0.999426 z m 15.24783,-12.037366 -5.91576,7.057394 c 0.95374,0.360857 2.01608,0.72715 3.18701,1.098883 1.22365,0.388487 2.40295,0.733852 3.53789,1.036096 z"
         id="path4274"
         style="font-size:34px;font-style:normal;font-variant:normal;font-weight:bold;font-stretch:normal;text-align:start;line-height:125%;writing-mode:lr-tb;text-anchor:start;font-family:Book Antiqua;-inkscape-font-specification:Book Antiqua Bold" />
    </g>
  </g>
</svg>
