<?xml version="1.0" encoding="utf-8"?>
<!-- Generator: Adobe Illustrator 23.0.5, SVG Export Plug-In . SVG Version: 6.00 Build 0)  -->
<svg version="1.1"
	 id="svg3713" xmlns:cc="http://creativecommons.org/ns#" xmlns:dc="http://purl.org/dc/elements/1.1/" xmlns:rdf="http://www.w3.org/1999/02/22-rdf-syntax-ns#" xmlns:svg="http://www.w3.org/2000/svg"
	 xmlns="http://www.w3.org/2000/svg" xmlns:xlink="http://www.w3.org/1999/xlink" x="0px" y="0px" viewBox="0 0 421 642.3"
	 style="enable-background:new 0 0 421 642.3;" xml:space="preserve">
<style type="text/css">
	.st0{fill:#FFFFFF;}
	.st1{fill:#6BABE5;}
	.st2{fill:#E1261C;}
	.st3{fill:#002F87;}
	.st4{fill:#FFCE00;}
	.st5{fill:#1D1D1B;}
</style>
<g id="g3721" transform="matrix(1.3333333,0,0,-1.3333333,0,755.90533)">
	<g id="g3723">
		<g>
			<g id="g3725">
				<g id="g3731" transform="translate(72.0457,406.8146)">
					<path id="path3733" class="st0" d="M-68.8,42.6c0-27.4,0-55.3,0-82.2c0-44.7-0.1-91,0.2-136.5c2.4-65.1,53.8-124.7,119.5-138.5
						c60.6-14.3,129.2,11.9,163.1,62.3c24.2,33.5,27.7,71.8,26.4,98.1l0,196.7H-68.8z"/>
				</g>
				<g id="g3735" transform="translate(127.1785,200.8932)">
					<path id="path3737" class="st0" d="M-68.8,42.6c1.5-44.8,34.6-85.7,77-95.2c39-9.8,83.2,8.2,105.1,42.8
						c15.6,23.1,17.9,49.5,17.1,67.5l0,49l-199.3-0.6L-68.8,42.6z"/>
				</g>
				<path id="path3739" class="st1" d="M257.6,310.5H58.3v83.6h199.3V310.5z"/>
				<g id="g3741" transform="translate(183.6423,111.7878)">
					<path id="path3743" class="st2" d="M-68.8,42.6c0,0-19.4,10.1-24.6,17.1v119.7c0,0,5.5,0.9,13.7-1.8c8.2-2.7,9.9-7.4,6.7-12.1
						c-3.2-4.7-19.6-16.7,4.5-21.2L-68.8,42.6z"/>
				</g>
				<g id="g3745" transform="translate(269.6804,111.9362)">
					<path id="path3747" class="st2" d="M-68.8,42.6c0,0,19.4,10.1,24.6,17.1v119.7c0,0-5.5,0.9-13.7-1.8c-8.2-2.7-9.9-7.4-6.7-12.1
						c3.2-4.7,19.6-16.7-4.5-21.2L-68.8,42.6z"/>
				</g>
				<g id="g3749" transform="translate(172.8347,238.4391)">
					<path id="path3751" class="st3" d="M-68.8,42.6c0-3.7-6.1-6.8-13.6-6.8c-7.5,0-13.7,3-13.7,6.8c0,3.7,6.1,6.8,13.7,6.8
						C-74.9,49.4-68.8,46.3-68.8,42.6"/>
				</g>
				<g id="g3753" transform="translate(308.281,238.2526)">
					<path id="path3755" class="st3" d="M-68.8,42.6c0-3.8-6.1-7-13.7-7c-7.6,0-13.7,3.1-13.7,7s6.1,7,13.7,7
						C-74.9,49.6-68.8,46.5-68.8,42.6"/>
				</g>
				<g id="g3757" transform="translate(125.5134,213.0704)">
					<path id="path3759" class="st3" d="M-68.8,42.6c0,0,14.1,0.9,18.1,3.6c3.9,2.7,5.6,5.3,1.1,11.6c-4.4,6.3-8.8,7.4-7.1,13.7
						c1.7,6.4,22.4,6.8,22.4,6.8s23.3-1.1,21.2-9.2c-2.1-8.1-10-11.8-10-15.5c0-3.7,0.4-7.6,10.1-9.7c9.7-2.1,21.6-0.5,21.6-0.5
						L8.3,31.8v-97.9c0,0,13-3,24.2-3.1c11.1-0.1,20.2,1.6,24.2,3.3V43.5c0,0,15-2.1,22.9,0.7c7.9,2.7,11.2,6.3,5.9,13.6
						c-5.2,7.4-13.6,11.3-1.4,17.7c12.2,6.4,32.9,0.3,34-0.8c1.1-1.1,4.3-2.2,3.7-4.9c-0.6-2.7-2.5-7.7-7.4-11.9
						c-4.9-4.3-1.8-9.7-1-10.3c0.9-0.7,5.2-4.3,20.8-4.9l-0.9,68.9c0,0-7.4-0.6-15.8,6.4c-8.4,7-15.6,8.3-17.9,8.1
						c-2.3-0.3-9-0.3-18.6-7.8c-9.6-7.5-16.5-7.8-22.9-4.6c-6.4,3.1-18.6,12.2-25.6,12.5c-7,0.2-20-8.6-22.7-10.1
						c-2.7-1.5-13-9.7-26,1.6c-13,11.3-25.2,8.4-28.3,6.3c-3.1-2.2-11-9.4-23.6-12.3L-68.8,42.6z"/>
				</g>
				<g id="g3761" transform="translate(190.2283,282.3576)">
					<path id="path3763" class="st4" d="M-68.8,42.6c0,0-4.5,11.3-2.8,21c1.6,9.8,6,19.7,17,27.7s25.9,7.7,30.3,6.3
						c4.5-1.3,13.4-4.6,16.4-7.5c3-2.8,9.5-8.4,12.4-15.7c2.9-7.3,2.9-12.9,3-16.3c0.1-3.4-2-13.1-2.9-15.2c0,0-6.4-3.3-17.2,4.7
						c-10.7,8-19.3,11.1-26.1,8.2C-45.4,52.9-60.3,40.4-68.8,42.6"/>
				</g>
				<g id="g3765" transform="translate(189.6072,282.005)">
					<path id="path3767" d="M-68.8,42.6c-2.3,5.2-3.4,10.7-3.4,16.3c0,22.4,18.2,40.6,40.6,40.6C-9.2,99.5,9,81.3,9,58.9
						c0-5.5-1.1-10.8-3.2-15.8l-1.5,0.6c2,4.8,3.1,9.9,3.1,15.2c0,21.5-17.5,39-39,39c-21.5,0-39-17.5-39-39
						c0-5.5,1.1-10.7,3.3-15.7L-68.8,42.6z"/>
				</g>
				<g id="g3769" transform="translate(202.5896,104.403)">
					<path id="path3771" d="M-68.8,42.6v109.6"/>
				</g>
				<path id="path3773" d="M134.6,147H133v109.6h1.6V147z"/>
				<g id="g3775" transform="translate(250.947,214.0114)">
					<path id="path3777" d="M-68.8,42.6V-66.9"/>
				</g>
				<path id="path3779" d="M183,147.1h-1.6v109.5h1.6V147.1z"/>
				<g id="g3781" transform="translate(226.6941,244.4064)">
					<path id="path3783" d="M-68.8,42.6c-7,0-12.9-2.7-12.9-6c0-3.2,5.9-6,12.9-6c7,0,12.9,2.7,12.9,6
						C-55.9,39.9-61.8,42.6-68.8,42.6 M-68.8,29.1c-8.1,0-14.5,3.3-14.5,7.6c0,4.3,6.4,7.6,14.5,7.6s14.5-3.3,14.5-7.6
						C-54.3,32.4-60.7,29.1-68.8,29.1"/>
				</g>
				<g id="g3785" transform="translate(133.0671,409.2892)">
					<path id="path3787" class="st0" d="M-68.8,42.6c0,0-2.3-0.8-3,0.5c-0.7,1.2-1.1,2.9-0.4,4c0.7,1.1,4.4,1.9,4.4,1.9
						s-0.6,3.2-1.1,4.8c-0.5,1.6-3.6,9.6-4,10.7c-0.4,1.1-4.9,11.1-5.9,13.3c0,0-1.6-1.1-3-0.4c-1.5,0.7-3.2,1.8-2.8,3.7
						c0.4,1.8,2,2.9,2.8,3l-3.4,5.8l-4,6.8l-9,15.1l-5.4,9.3l-7.2,2.6l-3.7,8.2l4.1,5l6,1.8l2.1-3.8l6.7,2l-2,4.2l6.2,1.9l1.9-3.6
						l6.5,1.8l-1.3,3.9l6.1,1.9l7.4-1.6l3.3-7.8l-3.2-5.9l10.7-18.4l10.8,2.4l1-3.1l10.8,1.3l-1,3.6l9.9,0.8l-3.2,20.1l-5.9,3.8
						l-1,8.2l5.6,3.8l6.2,0.4l0.8-3.7l7.2,0.4l-0.6,4l6.8,0.4l0.7-3.9l7.3,0.5l-0.7,4l7.2,0.5l5.9-2.8l0.8-8.1l-5.2-4.7l3.6-21
						l10.6,0.7l0.9-3.5h12.8l0.4,3.5l11.5-0.4l2.9,20.6l-5.1,4.9l0.5,8l6.6,2.8l6.8-0.6l-0.5-3.8l7.5-0.7l0.5,3.7l6-0.4l0.4-3.7
						l7.1-0.7l0.6,3.9L83,154l5.3-3.9l-0.9-7.6l-6.4-4.1l-2.6-20l9.4-0.9l-0.4-3l10.2-1.6l1.6,3.1l10.5-2.5l11.1,18.4l-3.4,5.7
						l3.3,8.1l7.3,1.6l6.3-2.1l-1.8-4.1l7-2l1.9,4l5.5-1.9l-1-3.9l6.2-2l2.6,3.9l5.6-2.4l4-4.9l-3.5-7.9l-7.4-2.3l-21.6-37.2
						l2.1-1.9l0.5-2.4l-1-1.6l-2.1-1l-2.9,0.3l-3.1-6.7l-3.3-7.7l-2.6-8.1l-1.8-5.9l2.9-1.1l1.6-1.6l0-2.8l-1.2-1.2l-4.8,0.7
						l-19.6,3.6l-20.5,2.5L49.8,51l-24.4,0.6L9.2,51.1l-17.9-0.5l-19.5-1.7l-22.4-2.8L-68.8,42.6z"/>
				</g>
				<g id="g3789" transform="translate(133.3913,415.4079)">
					<path id="path3791" class="st5" d="M-68.8,42.6c-2.1,10.7-8.4,23.6-11.1,28.7l1.5,0.5c2.7-5.1,9.1-18.1,11.2-29L-68.8,42.6z"/>
				</g>
				<g id="g3793" transform="translate(153.323,478.5128)">
					<path id="path3795" class="st5" d="M-68.8,42.6l-1.2,3.4c-5.2-1-8.3-1.7-10.4-2.3l-0.5,1.3c2.3,0.6,5.6,1.3,11.2,2.4l0.7,0.1
						l1.2-3.4l8.9,1.3l-0.7,3.5l0.8,0.1c0,0,5.1,0.5,10.3,0.9l0.2-1.3c-4-0.3-7.8-0.7-9.4-0.9l0.7-3.5L-68.8,42.6z"/>
				</g>
				<g id="g3797" transform="translate(145.4285,473.0895)">
					<path id="path3799" class="st5" d="M-68.8,42.6l-0.4,1.3c12.3,2.4,23.9,3.8,29.7,4.4l0.2-1.3C-45,46.4-56.5,45-68.8,42.6"/>
				</g>
				<g id="g3801" transform="translate(149.6394,465.6896)">
					<path id="path3803" class="st5" d="M-68.8,42.6l-0.3,1.3c13.8,2.5,18.6,2.9,24.1,3.4c0.8,0.1,1.6,0.1,2.5,0.2l0.2-1.3
						c-0.9-0.1-1.7-0.2-2.5-0.2C-50.6,45.5-55,45.1-68.8,42.6"/>
				</g>
				<g id="g3805" transform="translate(169.5476,469.2707)">
					<path id="path3807" class="st5" d="M-68.8,42.6l-1.6,8.2 M-73.1,33.3l-2.6,8.5 M-85.6,48.4l3.1-7.6"/>
				</g>
				<g id="g3809" transform="translate(168.7517,469.1657)">
					<path id="path3811" class="st5" d="M-68.8,42.6l-1.6,8.2l1.6,0.2l1.6-8.2L-68.8,42.6z M-82.5,40.7l-3.1,7.6l1.5,0.4l3.1-7.6
						L-82.5,40.7z M-73.1,33.2l-2.6,8.5l1.6,0.3l2.6-8.5L-73.1,33.2z"/>
				</g>
				<g id="g3813" transform="translate(154.0652,457.5944)">
					<path id="path3815" class="st5" d="M-68.8,42.6c-0.3,0-0.6,0.1-0.7,0.4l-22.9,40.1c-0.2,0.3,0,0.7,0.4,0.9
						c0.4,0.2,0.9,0,1.1-0.3l22.9-40.1c0.2-0.3,0-0.7-0.4-0.9C-68.6,42.6-68.7,42.6-68.8,42.6"/>
				</g>
				<g id="g3817" transform="translate(120.2117,450.0773)">
					<path id="path3819" class="st5" d="M-68.8,42.6c-0.3,0-0.6,0.1-0.7,0.4l-21.7,37c-0.2,0.3,0,0.7,0.4,0.9c0.4,0.2,0.9,0,1.1-0.3
						l21.7-37c0.2-0.3,0-0.7-0.4-0.9C-68.6,42.6-68.7,42.6-68.8,42.6"/>
				</g>
				<g id="g3821" transform="translate(113.489,495.7062)">
					<path id="path3823" class="st5" d="M-68.8,42.6l3.7-6.7 M-64.4,2.4l10.1,3.3 M-43.6,9.1l10.8,3.5 M-36.9,19.8l-11.9-3.6
						 M-57.6,13.5l-11-3.4 M-73,17L-40.8,27 M-44.9,33.8L-77,24 M-80.9,30.8L-49.2,41"/>
				</g>
				<g id="g3825" transform="translate(101.6912,483.2707)">
					<path id="path3827" class="st5" d="M-68.8,42.6l-0.6,1.2l15,4.9l-3.4,6.1l1.5,0.6l3.4-6.1l15.1,4.9l0.6-1.2L-68.8,42.6z
						 M-64.9,35.8l-0.6,1.2l32.1,9.8l0.6-1.2L-64.9,35.8z M-60.9,28.8l-0.6,1.2l32.1,10.1l0.6-1.2L-60.9,28.8z M-36.7,28l-0.6,1.2
						l11.9,3.6l0.6-1.2L-36.7,28z M-56.5,21.9l-0.6,1.2l11,3.4l0.6-1.2L-56.5,21.9z M-31.6,20.9l-0.6,1.2l10.8,3.5l0.6-1.2
						L-31.6,20.9z M-52.4,14.2l-0.6,1.2l10.1,3.3l0.6-1.2L-52.4,14.2z"/>
				</g>
				<g id="g3829" transform="translate(177.1257,460.6086)">
					<path id="path3831" class="st5" d="M-68.8,42.6c-0.4,0-0.7,0.2-0.8,0.6L-76.5,87c-0.1,0.4,0.3,0.7,0.7,0.7
						c0.4,0,0.8-0.2,0.9-0.6l6.9-43.8c0.1-0.4-0.3-0.7-0.7-0.7C-68.7,42.6-68.8,42.6-68.8,42.6"/>
				</g>
				<g id="g3833" transform="translate(212.0525,462.8586)">
					<path id="path3835" class="st5" d="M-68.8,42.6c-0.4,0-0.8,0.2-0.8,0.6l-6.5,44.4c-0.1,0.4,0.3,0.7,0.7,0.7
						c0.4,0,0.8-0.2,0.9-0.6l6.5-44.4C-67.9,43-68.2,42.7-68.8,42.6C-68.7,42.6-68.8,42.6-68.8,42.6"/>
				</g>
				<g id="g3837" transform="translate(197.8738,501.443)">
					<path id="path3839" class="st5" d="M-68.8,42.6l1-7.1 M-87.1,41.3l1-7.2 M-90.3,10l10.6,0.8 M-67.4,11.8l11.4,0.9 M-56.8,20.8
						l-13-0.9 M-79.7,19.1l-12-0.9 M-92.7,25.9l34.7,2.4 M-58.8,35.7l-34.9-2.3 M-95.6,40.8l35.1,2.7"/>
				</g>
				<g id="g3841" transform="translate(180.4773,499.6603)">
					<path id="path3843" class="st5" d="M-68.8,42.6l0.8-6.2l16.7,1.1l-0.9,6.4L-68.8,42.6z M-76.2,34.5l-0.1,1.3l6.8,0.4l-0.8,6.2
						l-7.7-0.6l-0.2,1.3l35.1,2.7l0.2-1.3l-7.6-0.6l0.9-6.4l8.1,0.5l0.1-1.3L-76.2,34.5z M-75.2,27l-0.1,1.3l34.7,2.4l0.1-1.3
						L-75.2,27z M-52.3,21l-0.1,1.3l13,0.9l0.1-1.3L-52.3,21z M-74.2,19.4l-0.1,1.3l12,0.9l0.1-1.3L-74.2,19.4z M-50,12.9l-0.2,1.3
						l11.4,0.9l0.2-1.3L-50,12.9z M-72.8,11.1l-0.2,1.3l10.6,0.8l0.2-1.3L-72.8,11.1z"/>
				</g>
				<g id="g3845" transform="translate(174.489,421.8673)">
					<path id="path3847" class="st5" d="M-68.8,42.6c-0.3,3.6-1.1,6.4-1.8,9.1L-69,52l-0.8-0.1L-69,52c0.7-2.7,1.5-5.6,1.8-9.3
						L-68.8,42.6z"/>
				</g>
				<g id="g3849" transform="translate(186.4597,432.3517)">
					<path id="path3851" class="st5" d="M-68.8,42.6c-0.5,3.7-0.9,6.5-1.7,9.7l1.6,0.2c0.7-3.3,1.2-6.1,1.7-9.8L-68.8,42.6z"/>
				</g>
				<g id="g3853" transform="translate(159.78,429.3742)">
					<path id="path3855" class="st5" d="M-68.8,42.6c-1,3.7-1.6,5.7-3,9.3l1.5,0.4c1.4-3.6,2-5.7,3-9.4L-68.8,42.6z"/>
				</g>
				<g id="g3857" transform="translate(135.2781,424.9567)">
					<path id="path3859" class="st5" d="M-68.8,42.6l-0.2,0.6c-1,3-1.9,5.8-3.1,8.6l1.5,0.4c1.2-2.9,2.2-5.7,3.2-8.7l0.2-0.6
						L-68.8,42.6z"/>
				</g>
				<g id="g3861" transform="translate(213.7077,433.7116)">
					<path id="path3863" class="st5" d="M-68.8,42.6l-1.1,9.8l1.6,0.1l1.1-9.8L-68.8,42.6z"/>
				</g>
				<g id="g3865" transform="translate(143.3816,436.4679)">
					<path id="path3867" class="st5" d="M-68.8,42.6c-1.3,3.4-2.4,6-4,9.1l1.5,0.5c1.6-3.2,2.7-5.8,4-9.2L-68.8,42.6z"/>
				</g>
				<g id="g3869" transform="translate(199.7107,443.2135)">
					<path id="path3871" class="st5" d="M-68.8,42.6l-1.5,10l1.6,0.2l1.5-10L-68.8,42.6z"/>
				</g>
				<g id="g3873" transform="translate(126.3796,499.8849)">
					<path id="path3875" class="st5" d="M-68.8,42.6l4.4-0.8l2.6,4.7l-4.9,0.6L-68.8,42.6z M-64,40.4c-0.1,0-0.1,0-0.2,0l-5.9,1
						c-0.2,0-0.4,0.2-0.5,0.3c-0.1,0.2-0.1,0.4-0.1,0.6l2.6,5.8c0.1,0.3,0.5,0.5,0.9,0.4l6.7-0.8c0.3,0,0.5-0.2,0.6-0.3
						c0.1-0.2,0.1-0.4,0-0.6l-3.3-6C-63.4,40.6-63.7,40.4-64,40.4"/>
				</g>
				<g id="g3877" transform="translate(128.4509,505.778)">
					<path id="path3879" class="st5" d="M-68.8,42.6L-64,42l-3.1,6.7l-5,1.2L-68.8,42.6z M-62.8,40.5c0,0-0.1,0-0.1,0l-6.6,0.8
						c-0.3,0-0.5,0.2-0.6,0.4l-4.1,8.8c-0.1,0.2,0,0.5,0.2,0.7c0.2,0.2,0.5,0.3,0.8,0.2l7-1.6c0.2-0.1,0.4-0.2,0.5-0.4l3.7-8.1
						c0.1-0.2,0.1-0.5-0.1-0.7C-62.3,40.6-62.5,40.5-62.8,40.5"/>
				</g>
				<g id="g3881" transform="translate(92.5339,490.5954)">
					<path id="path3883" class="st5" d="M-68.8,42.6l5.7-2l2.6,3l-5.1,2.2L-68.8,42.6z M-62.8,39.1c-0.1,0-0.2,0-0.3,0.1l-7.2,2.5
						c-0.2,0.1-0.4,0.2-0.5,0.4c-0.1,0.2,0,0.4,0.2,0.6l4.2,4.4c0.2,0.2,0.7,0.3,1,0.2l6.5-2.8c0.2-0.1,0.4-0.2,0.4-0.4
						c0.1-0.2,0-0.4-0.1-0.5l-3.5-4.1C-62.3,39.2-62.6,39.1-62.8,39.1"/>
				</g>
				<g id="g3885" transform="translate(88.4177,498.3683)">
					<path id="path3887" class="st5" d="M-68.8,42.6l3.1-6.7l3.1,3.2l-3.3,7.2L-68.8,42.6z M-65.9,33.9c0,0-0.1,0-0.1,0
						c-0.3,0-0.5,0.2-0.6,0.4l-3.7,8.1c-0.1,0.2-0.1,0.4,0.1,0.6l3.9,5.1c0.2,0.2,0.5,0.3,0.8,0.3c0.3,0,0.6-0.2,0.7-0.4l4.1-8.8
						c0.1-0.2,0.1-0.5-0.1-0.7l-4.2-4.4C-65.5,34-65.7,33.9-65.9,33.9"/>
				</g>
				<g id="g3889" transform="translate(97.2498,494.6271)">
					<path id="path3891" class="st5" d="M-68.8,42.6l4.6-2.1l23.1,7.5l1.7,4.2L-68.8,42.6z M-64.3,39.1c-0.1,0-0.3,0-0.4,0.1l-6.4,3
						c-0.3,0.1-0.4,0.4-0.4,0.6c0,0.3,0.2,0.5,0.5,0.6l32.5,10.5c0.3,0.1,0.6,0,0.8-0.1c0.2-0.2,0.3-0.4,0.2-0.7l-2.3-5.8
						c-0.1-0.2-0.2-0.3-0.5-0.4L-64,39.1C-64.1,39.1-64.2,39.1-64.3,39.1"/>
				</g>
				<g id="g3893" transform="translate(92.405,503.1623)">
					<path id="path3895" class="st5" d="M-68.8,42.6l3.5-7.5l30.9,10l-3.5,7.5l-4.8-1.6l1.6-3.4c0.2-0.3,0-0.7-0.5-0.9l-6.7-2.2
						c-0.2-0.1-0.4-0.1-0.6,0c-0.2,0.1-0.4,0.2-0.4,0.4l-1.6,3.4l-4.8-1.6l1.6-3.4c0.2-0.3,0-0.7-0.5-0.9l-6.9-2.2
						c-0.2-0.1-0.4-0.1-0.6,0c-0.2,0.1-0.4,0.2-0.4,0.4l-1.6,3.4L-68.8,42.6z M-65.8,33.6c-0.1,0-0.2,0-0.3,0.1
						c-0.2,0.1-0.3,0.2-0.4,0.4l-4,8.7c-0.2,0.3,0,0.7,0.5,0.9l6.1,2c0.2,0.1,0.4,0.1,0.6,0c0.2-0.1,0.3-0.2,0.4-0.4l1.6-3.4
						l5.4,1.7l-1.6,3.4c-0.2,0.3,0,0.7,0.5,0.9l6.3,2c0.2,0.1,0.4,0.1,0.6,0c0.2-0.1,0.4-0.2,0.4-0.4l1.6-3.4l5.2,1.7l-1.6,3.4
						c-0.2,0.3,0,0.7,0.5,0.9l6.3,2.1c0.2,0.1,0.4,0.1,0.6,0c0.2-0.1,0.3-0.2,0.4-0.4l4-8.7c0.2-0.3,0-0.7-0.5-0.9l-32.4-10.5
						C-65.6,33.6-65.7,33.6-65.8,33.6"/>
				</g>
				<g id="g3897" transform="translate(201.4353,510.3044)">
					<path id="path3899" class="st5" d="M-68.8,42.6l3.9-1.6l4.1,3.7l-4.5,1.6L-68.8,42.6z M-64.7,39.5c-0.1,0-0.2,0-0.4,0.1
						l-5.4,2.2c-0.2,0.1-0.4,0.3-0.4,0.4c-0.1,0.2,0,0.4,0.1,0.6l4.5,4.7c0.2,0.2,0.6,0.3,1,0.2l6.2-2.2c0.2-0.1,0.4-0.3,0.5-0.5
						c0.1-0.2,0-0.4-0.2-0.6l-5.2-4.7C-64.2,39.6-64.4,39.5-64.7,39.5"/>
				</g>
				<g id="g3901" transform="translate(205.406,515.2692)">
					<path id="path3903" class="st5" d="M-68.8,42.6l4.5-1.6l-0.7,6.7l-4.5,2.1L-68.8,42.6z M-63.4,39.3c-0.1,0-0.2,0-0.3,0.1
						l-6.1,2.2c-0.3,0.1-0.5,0.3-0.5,0.6l-1,8.9c0,0.2,0.1,0.5,0.4,0.6c0.3,0.1,0.6,0.1,0.8,0l6.2-2.9c0.2-0.1,0.4-0.3,0.4-0.5
						l0.9-8.2c0-0.2-0.1-0.5-0.3-0.6C-63.1,39.4-63.2,39.3-63.4,39.3"/>
				</g>
				<g id="g3905" transform="translate(165.4802,508.8776)">
					<path id="path3907" class="st5" d="M-68.8,42.6l4.8-3l3.5,2.2l-4.2,3.1L-68.8,42.6z M-64,38.1c-0.2,0-0.3,0-0.5,0.1l-6.2,3.8
						c-0.2,0.1-0.3,0.3-0.3,0.5c0,0.2,0.1,0.4,0.4,0.5l5.6,3.1c0.3,0.2,0.7,0.1,1-0.1l5.4-4c0.2-0.1,0.3-0.3,0.3-0.5
						c0-0.2-0.1-0.4-0.3-0.5l-4.8-3C-63.7,38.2-63.8,38.1-64,38.1"/>
				</g>
				<g id="g3909" transform="translate(164.0857,516.8073)">
					<path id="path3911" class="st5" d="M-68.8,42.6l0.7-6.7l4,2.2l-0.8,7.3L-68.8,42.6z M-68.8,34.1c-0.1,0-0.2,0-0.3,0.1
						c-0.3,0.1-0.4,0.3-0.5,0.5l-0.9,8.2c0,0.2,0.1,0.4,0.3,0.6l5.5,3.9c0.2,0.2,0.5,0.2,0.8,0.1c0.3-0.1,0.5-0.3,0.5-0.6l1-8.9
						c0-0.2-0.1-0.5-0.4-0.6l-5.6-3.1C-68.4,34.1-68.6,34.1-68.8,34.1"/>
				</g>
				<g id="g3913" transform="translate(171.4392,511.547)">
					<path id="path3915" class="st5" d="M-68.8,42.6l3.6-2.8l24.9,2l3,3.4L-68.8,42.6z M-65.4,38.4c-0.2,0-0.4,0.1-0.6,0.2l-5.2,4
						c-0.2,0.2-0.3,0.5-0.2,0.7c0.1,0.2,0.4,0.4,0.7,0.4l35.1,2.8c0.3,0,0.6-0.1,0.8-0.3c0.2-0.2,0.1-0.5,0-0.7l-4.2-4.8
						c-0.1-0.2-0.3-0.3-0.6-0.3L-65.4,38.4C-65.4,38.4-65.4,38.4-65.4,38.4"/>
				</g>
				<g id="g3917" transform="translate(169.5837,520.3439)">
					<path id="path3919" class="st5" d="M-68.8,42.6l0.8-7.5l33.3,2.7l-0.8,7.5l-5.2-0.4l0.4-3.4c0-0.4-0.3-0.7-0.7-0.7l-7.3-0.6
						c-0.2,0-0.4,0-0.6,0.1c-0.2,0.1-0.3,0.3-0.3,0.5l-0.4,3.4l-5.2-0.4l0.4-3.4c0-0.4-0.3-0.7-0.7-0.7l-7.4-0.6
						c-0.2,0-0.4,0-0.6,0.2c-0.2,0.1-0.3,0.3-0.3,0.5l-0.4,3.4L-68.8,42.6z M-68.7,33.7c-0.2,0-0.4,0.1-0.5,0.2
						c-0.2,0.1-0.3,0.3-0.3,0.5l-0.9,8.8c0,0.4,0.3,0.7,0.7,0.7l6.6,0.5c0.2,0,0.4,0,0.6-0.1s0.3-0.3,0.3-0.5l0.4-3.4l5.8,0.5
						l-0.4,3.4c0,0.4,0.3,0.7,0.7,0.7l6.8,0.5c0.2,0,0.4,0,0.6-0.2c0.2-0.1,0.3-0.3,0.3-0.5l0.4-3.4L-42,42l-0.4,3.4
						c0,0.4,0.3,0.7,0.7,0.7l6.8,0.5c0.2,0,0.4,0,0.6-0.2c0.2-0.1,0.3-0.3,0.3-0.5l0.9-8.8c0-0.4-0.3-0.7-0.7-0.7L-68.7,33.7
						C-68.7,33.7-68.7,33.7-68.7,33.7"/>
				</g>
				<g id="g3921" transform="translate(148.7781,418.4069)">
					<path id="path3923" class="st5" d="M-68.8,42.6c-1,4.6-2.4,8.7-2.4,8.8l1.6,0.4c0,0,1.4-4.2,2.5-8.9L-68.8,42.6z"/>
				</g>
				<g id="g3925" transform="translate(170.3728,440.6076)">
					<path id="path3927" class="st5" d="M-68.8,42.6c0,0-0.9,4.6-2.3,9.8l1.6,0.3c1.5-5.2,2.3-9.8,2.4-9.9L-68.8,42.6z"/>
				</g>
				<g id="g3929" transform="translate(201.2702,423.7379)">
					<path id="path3931" class="st5" d="M-68.8,42.6C-69.2,48.5-70,52-70,52l1.6,0.2c0-0.1,0.8-3.6,1.2-9.6L-68.8,42.6z"/>
				</g>
				<g id="g3933" transform="translate(187.6296,509.0675)">
					<path id="path3935" class="st5" d="M-68.8,42.6l1.1-8.1"/>
				</g>
				<g id="g3937" transform="translate(187.9275,500.8712)">
					<path id="path3939" class="st5" d="M-68.8,42.6l-1.1,8.1l1.6,0.1l1.1-8.1L-68.8,42.6z"/>
				</g>
				<g id="g3941" transform="translate(189.8464,493.3971)">
					<path id="path3943" class="st5" d="M-68.8,42.6l1-7.6"/>
				</g>
				<g id="g3945" transform="translate(190.074,485.7248)">
					<path id="path3947" class="st5" d="M-68.8,42.6l-1,7.6l1.6,0.1l1-7.6L-68.8,42.6z"/>
				</g>
				<g id="g3949" transform="translate(200.239,486.5651)">
					<path id="path3951" class="st5" d="M-68.8,42.6l1-7.6"/>
				</g>
				<g id="g3953" transform="translate(200.4665,478.8927)">
					<path id="path3955" class="st5" d="M-68.8,42.6l-1,7.6l1.6,0.1l1-7.6L-68.8,42.6z"/>
				</g>
				<g id="g3957" transform="translate(181.865,485.1037)">
					<path id="path3959" class="st5" d="M-68.8,42.6l1-7.6"/>
				</g>
				<g id="g3961" transform="translate(182.0925,477.4313)">
					<path id="path3963" class="st5" d="M-68.8,42.6l-1,7.6l1.6,0.1l1-7.6L-68.8,42.6z"/>
				</g>
				<g id="g3965" transform="translate(202.6023,470.5143)">
					<path id="path3967" class="st5" d="M-68.8,42.6l1-7.6"/>
				</g>
				<g id="g3969" transform="translate(202.8298,462.8419)">
					<path id="path3971" class="st5" d="M-68.8,42.6l-1,7.6l1.6,0.1l1-7.6L-68.8,42.6z"/>
				</g>
				<g id="g3973" transform="translate(184.0388,469.5343)">
					<path id="path3975" class="st5" d="M-68.8,42.6l1-7.6"/>
				</g>
				<g id="g3977" transform="translate(184.2663,461.8625)">
					<path id="path3979" class="st5" d="M-68.8,42.6l-1,7.6l1.6,0.1l1-7.6L-68.8,42.6z"/>
				</g>
				<g id="g3981" transform="translate(121.3582,481.776)">
					<path id="path3983" class="st5" d="M-68.8,42.6l3.7-6.7"/>
				</g>
				<g id="g3985" transform="translate(124.3572,474.8053)">
					<path id="path3987" class="st5" d="M-68.8,42.6l-3.7,6.7l1.5,0.6l3.7-6.7L-68.8,42.6z"/>
				</g>
				<g id="g3989" transform="translate(126.2371,491.4806)">
					<path id="path3991" class="st5" d="M-68.8,42.6l3.7-6.7"/>
				</g>
				<g id="g3993" transform="translate(129.2361,484.5099)">
					<path id="path3995" class="st5" d="M-68.8,42.6l-3.7,6.7l1.5,0.6l3.7-6.7L-68.8,42.6z"/>
				</g>
				<g id="g3997" transform="translate(108.6619,485.9884)">
					<path id="path3999" class="st5" d="M-68.8,42.6l3.7-6.7"/>
				</g>
				<g id="g4001" transform="translate(111.6609,479.0172)">
					<path id="path4003" class="st5" d="M-68.8,42.6l-3.7,6.7l1.5,0.6l3.7-6.7L-68.8,42.6z"/>
				</g>
				<g id="g4005" transform="translate(116.53,471.8429)">
					<path id="path4007" class="st5" d="M-68.8,42.6l3.7-6.7"/>
				</g>
				<g id="g4009" transform="translate(119.5291,464.8722)">
					<path id="path4011" class="st5" d="M-68.8,42.6l-3.7,6.7l1.5,0.6l3.7-6.7L-68.8,42.6z"/>
				</g>
				<g id="g4013" transform="translate(133.7175,477.4176)">
					<path id="path4015" class="st5" d="M-68.8,42.6l3.7-6.7"/>
				</g>
				<g id="g4017" transform="translate(136.7165,470.4469)">
					<path id="path4019" class="st5" d="M-68.8,42.6l-3.7,6.7l1.5,0.6l3.7-6.7L-68.8,42.6z"/>
				</g>
				<g id="g4021" transform="translate(124.4802,457.5915)">
					<path id="path4023" class="st5" d="M-68.8,42.6l2.7-4.9"/>
				</g>
				<g id="g4025" transform="translate(126.4773,452.4171)">
					<path id="path4027" class="st5" d="M-68.8,42.6l-2.7,4.9l1.5,0.6l2.7-4.9L-68.8,42.6z"/>
				</g>
				<g id="g4029" transform="translate(141.4304,463.1906)">
					<path id="path4031" class="st5" d="M-68.8,42.6l3.6-6.5"/>
				</g>
				<g id="g4033" transform="translate(144.3269,456.401)">
					<path id="path4035" class="st5" d="M-68.8,42.6l-3.6,6.5l1.5,0.6l3.6-6.5L-68.8,42.6z"/>
				</g>
				<g id="g4037" transform="translate(219.4734,472.1022)">
					<path id="path4039" class="st5" d="M-68.8,42.6c-0.4,0-0.8,0.3-0.8,0.6l-0.6,7.6c0,0.4,0.3,0.7,0.8,0.7c0.4,0,0.8-0.3,0.9-0.6
						l0.6-7.6C-68,42.9-68.3,42.6-68.8,42.6C-68.8,42.6-68.8,42.6-68.8,42.6"/>
				</g>
				<g id="g4041" transform="translate(320.1482,415.4069)">
					<path id="path4043" class="st5" d="M-68.8,42.6l-1.6,0.2c2.1,10.9,8.5,23.9,11.2,29l1.5-0.5C-60.3,66.2-66.7,53.4-68.8,42.6"/>
				</g>
				<g id="g4045" transform="translate(300.2156,478.5128)">
					<path id="path4047" class="st5" d="M-68.8,42.6l-11.9,1.7l0.7,3.5c-1.6,0.2-5.5,0.5-9.4,0.9l0.2,1.3C-84,49.5-79,49-79,49
						l0.8-0.1l-0.7-3.5l8.9-1.3l1.2,3.4l0.7-0.1c5.6-1.1,9-1.9,11.2-2.4l-0.5-1.3c-2.2,0.5-5.3,1.3-10.4,2.3L-68.8,42.6z"/>
				</g>
				<g id="g4049" transform="translate(308.1111,473.0895)">
					<path id="path4051" class="st5" d="M-68.8,42.6C-81,45-92.5,46.4-98.3,47l0.2,1.3c5.8-0.6,17.3-2.1,29.7-4.4L-68.8,42.6z"/>
				</g>
				<g id="g4053" transform="translate(303.9099,465.6881)">
					<path id="path4055" class="st5" d="M-68.8,42.6C-82.5,45.1-87,45.5-92.7,46c-0.8,0.1-1.6,0.1-2.5,0.2l0.2,1.3
						c0.9-0.1,1.7-0.2,2.5-0.2c5.5-0.5,10.3-1,24.1-3.4L-68.8,42.6z"/>
				</g>
				<g id="g4057" transform="translate(285.5798,477.505)">
					<path id="path4059" class="st5" d="M-68.8,42.6l-1.6-8.2 M-63.4,33.6l-2.6-8.5 M-56.7,32.5l3.1,7.6"/>
				</g>
				<g id="g4061" transform="translate(284.7888,469.1657)">
					<path id="path4063" class="st5" d="M-68.8,42.6l-1.6,0.2l1.6,8.2l1.6-0.2L-68.8,42.6z M-55.1,40.7l-1.5,0.4l3.1,7.6l1.5-0.4
						L-55.1,40.7z M-64.5,33.2l-1.6,0.3l2.6,8.5l1.6-0.3L-64.5,33.2z"/>
				</g>
				<g id="g4065" transform="translate(233.7751,483.2477)">
					<path id="path4067" class="st5" d="M-68.8,42.6h-14l-0.5,3.8c-3,0-6.6-0.1-10.7-0.4l-0.1,1.3c4.5,0.3,8.3,0.4,11.5,0.4h0.7
						l0.5-3.8h11.1l0.5,3.8h0.7c3.1,0,6.9-0.1,11.3-0.4l-0.1-1.3c-4,0.2-7.5,0.4-10.4,0.4L-68.8,42.6z"/>
				</g>
				<g id="g4069" transform="translate(243.6472,479.8644)">
					<path id="path4071" class="st5" d="M-68.8,42.6c-5.8,0.5-11.7,0.6-16.9,0.6c-5.2,0-11-0.2-16.9-0.6"/>
				</g>
				<g id="g4073" transform="translate(243.571,479.2023)">
					<path id="path4075" class="st5" d="M-68.8,42.6c-5.1,0.4-10.8,0.6-16.8,0.6c-6,0-11.7-0.2-16.8-0.6l-0.2,1.3
						c5.2,0.4,10.9,0.6,17,0.6c6.1,0,11.8-0.2,17-0.6L-68.8,42.6z"/>
				</g>
				<g id="g4077" transform="translate(242.6755,472.2296)">
					<path id="path4079" class="st5" d="M-68.8,42.6c-5.8,0.5-10.7,0.5-15.9,0.5c-5.2,0-10.1-0.2-16-0.6"/>
				</g>
				<g id="g4081" transform="translate(210.8669,471.4962)">
					<path id="path4083" class="st5" d="M-68.8,42.6l-0.2,1.3c5.4,0.4,10.4,0.6,16.1,0.6c5.5,0,10.3-0.1,16-0.5l-0.2-1.3
						c-5.7,0.4-10.4,0.5-15.8,0.5C-58.5,43.2-63.4,43-68.8,42.6"/>
				</g>
				<g id="g4085" transform="translate(299.6394,457.8825)">
					<path id="path4087" class="st5" d="M-68.8,42.6c-0.1,0-0.2,0-0.3,0.1c-0.4,0.2-0.6,0.6-0.4,0.9l22.7,39.8
						c0.2,0.3,0.7,0.5,1.1,0.3c0.4-0.2,0.6-0.6,0.4-0.9L-68.1,43C-68.2,42.7-68.5,42.6-68.8,42.6"/>
				</g>
				<g id="g4089" transform="translate(333.6248,449.9884)">
					<path id="path4091" class="st5" d="M-68.8,42.6c-0.1,0-0.2,0-0.3,0.1c-0.4,0.2-0.6,0.6-0.4,0.9l21.4,37.1
						c0.2,0.3,0.7,0.5,1.1,0.3c0.4-0.2,0.6-0.6,0.4-0.9L-68.1,43C-68.2,42.7-68.5,42.6-68.8,42.6"/>
				</g>
				<g id="g4093" transform="translate(336.3201,489.0128)">
					<path id="path4095" class="st5" d="M-68.8,42.6l3.7,6.7 M-101,19.3l10.5-3.4 M-79.4,12.3l10-3.2 M-64.4,16.5l-12,3.7
						 M-85.3,22.9L-97,26.5 M-93,33.7l32.1-10.1 M-56.9,30.6L-89,40.5 M-85.3,47.9l32.9-10.6"/>
				</g>
				<g id="g4097" transform="translate(352.408,483.0905)">
					<path id="path4099" class="st5" d="M-68.8,42.6l-32.9,10.6l0.6,1.2l15.8-5.1l3.4,6.1l1.5-0.6l-3.4-6.1l15.6-5L-68.8,42.6z
						 M-73.2,35.9l-32.1,9.8l0.6,1.2l32.1-9.8L-73.2,35.9z M-77.2,28.9L-109.4,39l0.6,1.2l32.2-10.1L-77.2,28.9z M-101.6,28.2
						l-11.7,3.6l0.6,1.2l11.7-3.6L-101.6,28.2z M-80.7,21.8l-12,3.7l0.6,1.2l12-3.7L-80.7,21.8z M-106.9,21.2l-10.5,3.4l0.6,1.2
						l10.5-3.4L-106.9,21.2z M-85.8,14.4l-10,3.2l0.6,1.2l10-3.2L-85.8,14.4z"/>
				</g>
				<g id="g4101" transform="translate(276.408,460.6095)">
					<path id="path4103" class="st5" d="M-68.8,42.6c0,0-0.1,0-0.1,0c-0.4,0-0.8,0.4-0.7,0.7l6.9,43.8c0.1,0.4,0.5,0.6,0.9,0.6
						c0.4,0,0.8-0.4,0.7-0.7L-68,43.2C-68,42.9-68.4,42.6-68.8,42.6"/>
				</g>
				<g id="g4105" transform="translate(241.5085,462.9997)">
					<path id="path4107" class="st5" d="M-68.8,42.6C-68.8,42.6-68.9,42.6-68.8,42.6c-0.5,0-0.9,0.4-0.8,0.7l6.5,44.2
						c0.1,0.4,0.4,0.6,0.9,0.6c0.4,0,0.8-0.4,0.7-0.7L-68,43.2C-68,42.9-68.4,42.6-68.8,42.6"/>
				</g>
				<g id="g4109" transform="translate(254.7038,494.3835)">
					<path id="path4111" class="st5" d="M-68.8,42.6l1,7.1 M-50.5,41.1l1,7.2 M-80.6,19.7l11.6-0.9 M-56.8,17.9l10.4-0.8
						 M-44.9,25.3l-11.8,0.9 M-66.8,26.9l-13,0.9 M-78.6,35.3l34.7-2.4 M-42.9,40.5l-34.8,2.3 M-76.2,50.5l35.1-2.7"/>
				</g>
				<g id="g4113" transform="translate(255.5388,494.5583)">
					<path id="path4115" class="st5" d="M-68.8,42.6l16.7-1.1l0.8,6.2L-67.9,49L-68.8,42.6z M-43.8,39.7l-34.9,2.3l0.1,1.3l8.1-0.5
						l0.9,6.4l-7.6,0.6l0.2,1.3l35.1-2.7L-42,47l-7.7,0.6l-0.8-6.2l6.8-0.4L-43.8,39.7z M-44.9,32.1l-34.7,2.4l0.1,1.3l34.7-2.4
						L-44.9,32.1z M-67.7,26.1l-13,0.9l0.1,1.3l13-0.9L-67.7,26.1z M-45.8,24.5l-11.8,0.9l0.1,1.3l11.8-0.9L-45.8,24.5z M-69.9,18
						l-11.6,0.9l0.2,1.3l11.6-0.9L-69.9,18z M-47.3,16.3l-10.4,0.8l0.2,1.3l10.4-0.8L-47.3,16.3z"/>
				</g>
				<g id="g4117" transform="translate(320.8835,423.6794)">
					<path id="path4119" class="st5" d="M-68.8,42.6c-26.9,6.2-56.8,9.3-94.1,9.7c-37.3-0.4-67.3-3.5-94.1-9.7l-0.4,1.3
						c27,6.3,57,9.4,94.5,9.8c37.5-0.4,67.6-3.5,94.6-9.8L-68.8,42.6z"/>
				</g>
				<g id="g4121" transform="translate(279.0505,421.8673)">
					<path id="path4123" class="st5" d="M-68.8,42.6l-1.6,0.1c0.4,3.7,1.1,6.5,1.8,9.2l1.6-0.2C-67.7,49-68.4,46.2-68.8,42.6"/>
				</g>
				<g id="g4125" transform="translate(325.0564,432.7765)">
					<path id="path4127" class="st5" d="M-68.8,42.6c-29.2,6.7-62.3,10.3-98.3,10.8c-36-0.5-69-4.2-98.3-10.8l-0.4,1.3
						c29.4,6.7,62.6,10.4,98.7,10.9c36.2-0.5,69.4-4.2,98.7-10.9L-68.8,42.6z"/>
				</g>
				<g id="g4129" transform="translate(329.4373,441.6686)">
					<path id="path4131" class="st5" d="M-68.8,42.6c-29.8,7.8-65.3,12-102.7,12.2c-37.3-0.2-72.8-4.4-102.7-12.2l-0.5,1.3
						c30,7.8,65.6,12,103.1,12.3c37.5-0.2,73.2-4.5,103.2-12.3L-68.8,42.6z"/>
				</g>
				<g id="g4133" transform="translate(267.0798,432.3517)">
					<path id="path4135" class="st5" d="M-68.8,42.6l-1.6,0.1c0.5,3.7,1,6.6,1.7,9.8l1.6-0.2C-67.8,49.1-68.3,46.3-68.8,42.6"/>
				</g>
				<g id="g4137" transform="translate(293.7605,429.3742)">
					<path id="path4139" class="st5" d="M-68.8,42.6l-1.6,0.3c1,3.7,1.6,5.7,3,9.4l1.5-0.4C-67.2,48.3-67.8,46.3-68.8,42.6"/>
				</g>
				<g id="g4141" transform="translate(318.2625,424.9567)">
					<path id="path4143" class="st5" d="M-68.8,42.6l-1.6,0.4l0.2,0.6c1,3,2,5.8,3.2,8.7l1.5-0.4c-1.2-2.8-2.1-5.7-3.1-8.6
						L-68.8,42.6z"/>
				</g>
				<g id="g4145" transform="translate(239.8327,433.7116)">
					<path id="path4147" class="st5" d="M-68.8,42.6l-1.6,0.1l1.1,9.8l1.6-0.1L-68.8,42.6z"/>
				</g>
				<g id="g4149" transform="translate(310.158,436.4679)">
					<path id="path4151" class="st5" d="M-68.8,42.6l-1.5,0.4c1.3,3.4,2.4,6,4,9.2l1.5-0.5C-66.4,48.6-67.5,46-68.8,42.6"/>
				</g>
				<g id="g4153" transform="translate(253.8288,443.2135)">
					<path id="path4155" class="st5" d="M-68.8,42.6l-1.6,0.2l1.5,10l1.6-0.2L-68.8,42.6z"/>
				</g>
				<g id="g4157" transform="translate(320.2019,503.8131)">
					<path id="path4159" class="st5" d="M-68.8,42.6l2.6-4.7l4.4,0.8l-2,4.6L-68.8,42.6z M-66.7,36.5c-0.3,0-0.6,0.1-0.7,0.4l-3.3,6
						c-0.1,0.2-0.1,0.4,0,0.6c0.1,0.2,0.3,0.3,0.6,0.3l6.7,0.8c0.4,0.1,0.7-0.1,0.9-0.4l2.6-5.8c0.1-0.2,0.1-0.4-0.1-0.6
						c-0.1-0.2-0.3-0.3-0.5-0.3l-5.9-1C-66.5,36.5-66.6,36.5-66.7,36.5"/>
				</g>
				<g id="g4161" transform="translate(325.6765,505.1813)">
					<path id="path4163" class="st5" d="M-68.8,42.6L-68.8,42.6L-68.8,42.6z M-71.1,49.3l-3.1-6.7l4.8,0.6l3.4,7.3L-71.1,49.3z
						 M-75.4,41.1c-0.2,0-0.5,0.1-0.6,0.2c-0.2,0.2-0.2,0.4-0.1,0.7l3.7,8.1c0.1,0.2,0.3,0.3,0.5,0.4l7,1.6c0.3,0.1,0.6,0,0.8-0.2
						c0.2-0.2,0.3-0.5,0.2-0.7l-4.1-8.8c-0.1-0.2-0.3-0.4-0.6-0.4l-6.6-0.8C-75.3,41.1-75.4,41.1-75.4,41.1"/>
				</g>
				<g id="g4165" transform="translate(352.7019,491.6256)">
					<path id="path4167" class="st5" d="M-68.8,42.6l2.6-3l5.7,2l-3.2,3.3L-68.8,42.6z M-66.4,38.1c-0.3,0-0.5,0.1-0.7,0.3l-3.5,4.1
						c-0.1,0.2-0.2,0.4-0.1,0.5c0.1,0.2,0.2,0.3,0.4,0.4l6.5,2.8c0.3,0.1,0.8,0.1,1-0.2l4.2-4.4c0.2-0.2,0.2-0.4,0.2-0.6
						c-0.1-0.2-0.2-0.4-0.5-0.4l-7.2-2.5C-66.2,38.1-66.3,38.1-66.4,38.1"/>
				</g>
				<g id="g4169" transform="translate(358.9744,494.8175)">
					<path id="path4171" class="st5" d="M-68.8,42.6l3.1-3.2l3.1,6.7l-2.8,3.7L-68.8,42.6z M-65.5,37.5c-0.2,0-0.5,0.1-0.6,0.3
						l-4.2,4.4c-0.2,0.2-0.2,0.4-0.1,0.7l4.1,8.8c0.1,0.2,0.4,0.4,0.7,0.4c0.3,0,0.6-0.1,0.8-0.3l3.9-5.1c0.1-0.2,0.2-0.4,0.1-0.6
						l-3.7-8.1c-0.1-0.2-0.3-0.4-0.6-0.4C-65.4,37.5-65.4,37.5-65.5,37.5"/>
				</g>
				<g id="g4173" transform="translate(328.6599,499.9782)">
					<path id="path4175" class="st5" d="M-68.8,42.6l23.1-7.5l4.6,2.1l-29.3,9.5L-68.8,42.6z M-45.7,33.7c-0.1,0-0.2,0-0.3,0
						l-23.8,7.7c-0.2,0.1-0.4,0.2-0.5,0.4l-2.3,5.8c-0.1,0.2,0,0.5,0.2,0.7c0.2,0.2,0.6,0.2,0.8,0.1L-39,38c0.3-0.1,0.5-0.3,0.5-0.6
						c0-0.3-0.1-0.5-0.4-0.6l-6.4-3C-45.4,33.8-45.5,33.7-45.7,33.7"/>
				</g>
				<g id="g4177" transform="translate(326.7937,505.6667)">
					<path id="path4179" class="st5" d="M-68.8,42.6l30.9-10l3.5,7.5l-4.6,1.5l-1.6-3.4c-0.1-0.2-0.2-0.3-0.4-0.4
						c-0.2-0.1-0.4-0.1-0.6,0l-6.9,2.2c-0.4,0.1-0.6,0.5-0.5,0.9l1.6,3.4l-4.8,1.6l-1.6-3.4c-0.1-0.2-0.2-0.3-0.4-0.4
						c-0.2-0.1-0.4-0.1-0.6,0l-6.7,2.2c-0.4,0.1-0.6,0.5-0.5,0.9l1.6,3.4l-4.8,1.6L-68.8,42.6z M-37.4,31.1c-0.1,0-0.2,0-0.3,0
						l-32.4,10.5c-0.4,0.1-0.6,0.5-0.5,0.9l4,8.7c0.1,0.2,0.2,0.3,0.4,0.4c0.2,0.1,0.4,0.1,0.6,0l6.3-2.1c0.4-0.1,0.6-0.5,0.5-0.9
						l-1.6-3.4l5.2-1.7l1.6,3.4c0.1,0.2,0.2,0.3,0.4,0.4c0.2,0.1,0.4,0.1,0.6,0l6.3-2c0.4-0.1,0.6-0.5,0.5-0.9l-1.6-3.4l5.4-1.7
						l1.6,3.4c0.1,0.2,0.2,0.3,0.4,0.4c0.2,0.1,0.4,0.1,0.6,0l6.1-2c0.4-0.1,0.6-0.5,0.5-0.9l-4-8.7c-0.1-0.2-0.2-0.3-0.4-0.4
						C-37.2,31.1-37.3,31.1-37.4,31.1"/>
				</g>
				<g id="g4181" transform="translate(244.0954,512.4078)">
					<path id="path4183" class="st5" d="M-68.8,42.6l4.1-3.7l3.9,1.6l-3.5,3.7L-68.8,42.6z M-64.9,37.4c-0.2,0-0.4,0.1-0.6,0.2
						l-5.2,4.7c-0.2,0.2-0.2,0.4-0.2,0.6c0.1,0.2,0.2,0.4,0.5,0.5l6.2,2.2c0.3,0.1,0.7,0,1-0.2l4.5-4.7c0.1-0.2,0.2-0.4,0.1-0.6
						c-0.1-0.2-0.2-0.4-0.4-0.4l-5.4-2.2C-64.7,37.5-64.8,37.4-64.9,37.4"/>
				</g>
				<g id="g4185" transform="translate(248.8952,514.8141)">
					<path id="path4187" class="st5" d="M-68.8,42.6L-68.8,42.6L-68.8,42.6z M-73.3,48.2l-0.7-6.7l4.5,1.6l0.8,7.3L-73.3,48.2z
						 M-74.9,39.8c-0.2,0-0.3,0-0.5,0.1c-0.2,0.1-0.4,0.4-0.3,0.6l0.9,8.2c0,0.2,0.2,0.4,0.4,0.5l6.2,2.9c0.3,0.1,0.6,0.1,0.8,0
						c0.3-0.1,0.4-0.4,0.4-0.6l-1-8.9c0-0.2-0.2-0.5-0.5-0.6l-6.1-2.2C-74.7,39.8-74.8,39.8-74.9,39.8"/>
				</g>
				<g id="g4189" transform="translate(279.739,508.0968)">
					<path id="path4191" class="st5" d="M-68.8,42.6l3.5-2.2l4.8,3l-4.1,2.3L-68.8,42.6z M-65.2,38.9c-0.2,0-0.3,0-0.5,0.1l-4.8,3
						c-0.2,0.1-0.3,0.3-0.3,0.5c0,0.2,0.1,0.4,0.3,0.5l5.4,4c0.3,0.2,0.7,0.2,1,0.1l5.6-3.1c0.2-0.1,0.3-0.3,0.4-0.5
						c0-0.2-0.1-0.4-0.3-0.5l-6.2-3.8C-64.9,39-65.1,38.9-65.2,38.9"/>
				</g>
				<g id="g4193" transform="translate(284.6931,512.3453)">
					<path id="path4195" class="st5" d="M-68.8,42.6l4-2.2l0.7,6.7l-4,2.8L-68.8,42.6z M-64.1,38.5c-0.2,0-0.3,0-0.5,0.1l-5.6,3.1
						c-0.2,0.1-0.4,0.4-0.4,0.6l1,8.9c0,0.2,0.2,0.5,0.5,0.6c0.3,0.1,0.6,0.1,0.8-0.1l5.5-3.9c0.2-0.1,0.3-0.4,0.3-0.6l-0.9-8.2
						c0-0.2-0.2-0.4-0.5-0.5C-63.8,38.5-63.9,38.5-64.1,38.5"/>
				</g>
				<g id="g4197" transform="translate(253.5427,510.7267)">
					<path id="path4199" class="st5" d="M-68.8,42.6l24.9-2l3.6,2.8L-71.8,46L-68.8,42.6z M-43.6,39.3
						C-43.6,39.3-43.6,39.3-43.6,39.3l-25.7,2.1c-0.2,0-0.4,0.1-0.6,0.3l-4.2,4.8c-0.2,0.2-0.2,0.5,0,0.7c0.2,0.2,0.5,0.4,0.8,0.3
						l35.1-2.8c0.3,0,0.6-0.2,0.7-0.4c0.1-0.2,0-0.5-0.2-0.7l-5.2-4C-43.2,39.3-43.4,39.3-43.6,39.3"/>
				</g>
				<g id="g4201" transform="translate(249.8093,515.5265)">
					<path id="path4203" class="st5" d="M-68.8,42.6l33.3-2.7l0.8,7.5l-5,0.4l-0.4-3.4c0-0.2-0.1-0.3-0.3-0.5
						c-0.2-0.1-0.4-0.2-0.6-0.2l-7.4,0.6c-0.4,0-0.8,0.4-0.7,0.7l0.4,3.4l-5.2,0.4l-0.4-3.4c0-0.2-0.1-0.3-0.3-0.5
						c-0.2-0.1-0.4-0.2-0.6-0.2l-7.3,0.6c-0.4,0-0.8,0.4-0.7,0.7l0.4,3.4l-5.2,0.4L-68.8,42.6z M-34.7,38.5
						C-34.7,38.5-34.8,38.5-34.7,38.5l-35,2.8c-0.4,0-0.8,0.4-0.7,0.7l0.9,8.8c0,0.2,0.1,0.3,0.3,0.5c0.2,0.1,0.4,0.2,0.6,0.2
						l6.8-0.5c0.4,0,0.8-0.4,0.7-0.7l-0.4-3.4l5.7-0.5l0.4,3.4c0,0.2,0.1,0.3,0.3,0.5c0.2,0.1,0.4,0.2,0.6,0.2l6.8-0.5
						c0.4,0,0.8-0.4,0.7-0.7l-0.4-3.4l5.8-0.5l0.4,3.4c0,0.2,0.1,0.3,0.3,0.5c0.2,0.1,0.4,0.2,0.6,0.1l6.6-0.5
						c0.4,0,0.8-0.4,0.7-0.7l-0.9-8.8c0-0.2-0.1-0.3-0.3-0.5C-34.3,38.6-34.5,38.5-34.7,38.5"/>
				</g>
				<g id="g4205" transform="translate(226.779,418.8136)">
					<path id="path4207" class="st5" d="M-68.8,42.6c39.5-0.4,62.6-2.6,94.9-9.1c0.5,0,0.9,0.1,1.1,0.4c0.4,0.4,0.6,1.1,0.6,2
						c0,1.1-0.7,2-2,2.3c-25,6-58.6,9.3-94.6,9.3c-36,0-69.6-3.3-94.6-9.3c-1.3-0.3-2-1.1-2-2.2c-0.1-0.9,0.1-1.6,0.6-2
						c0.3-0.2,0.6-0.4,1.1-0.4C-131.4,40-108.3,42.2-68.8,42.6L-68.8,42.6z M26,32.2l-0.2,0c-32.3,6.4-55.3,8.6-94.6,9
						c-39.4-0.4-62.4-2.6-94.6-9l-0.2,0c-1,0-1.8,0.3-2.4,0.8c-1,0.9-1.1,2.2-1,2.9c0,1.6,1.2,3,3.2,3.5c25.2,6,58.9,9.3,95.1,9.4h0
						h0h0h0c36.1,0,69.9-3.4,95.1-9.4c2-0.5,3.2-1.8,3.2-3.5c0.1-0.7,0-2-1-2.9C27.8,32.5,27,32.2,26,32.2"/>
				</g>
				<g id="g4209" transform="translate(226.7693,463.0773)">
					<path id="path4211" class="st5" d="M-68.8,42.6c-40.2,0-79-4.8-106.6-13c-1.3-0.4-2.4-2.1-2-3.5c0.3-0.7,1-1.4,1.8-1.8
						c0.4-0.2,1-0.3,1.7-0.1c27.8,8.1,65.1,12.6,105,12.6h0c39.9,0,77.2-4.5,105-12.6c0.6-0.2,1.3,0,1.7,0.1c0.9,0.4,1.6,1,1.8,1.8
						c0.5,1.4-0.7,3.1-2,3.5C10.3,37.8-28.6,42.6-68.8,42.6 M-174.4,22.8c-0.6,0-1.2,0.1-1.8,0.4c-1.3,0.5-2.3,1.5-2.7,2.6
						c-0.7,2,0.7,4.4,2.9,5.1c28.1,8.4,66.2,13.1,107.2,13.1c41,0,79-4.7,107.1-13.1c2.2-0.7,3.6-3.1,3-5.1
						c-0.4-1.1-1.4-2.1-2.7-2.6c-1-0.4-2-0.5-3-0.2C8.1,31-29,35.4-68.8,35.5c-39.7,0-76.9-4.5-104.5-12.5
						C-173.6,22.8-174,22.8-174.4,22.8"/>
				</g>
				<g id="g4213" transform="translate(304.7625,418.4059)">
					<path id="path4215" class="st5" d="M-68.8,42.6l-1.6,0.2c1,4.7,2.4,8.8,2.5,8.9l1.6-0.4C-66.4,51.3-67.8,47.3-68.8,42.6"/>
				</g>
				<g id="g4217" transform="translate(283.1687,440.6076)">
					<path id="path4219" class="st5" d="M-68.8,42.6l-1.6,0.2c0,0,0.9,4.6,2.4,9.9l1.6-0.3C-67.9,47.2-68.8,42.7-68.8,42.6"/>
				</g>
				<g id="g4221" transform="translate(252.2702,423.7379)">
					<path id="path4223" class="st5" d="M-68.8,42.6l-1.6,0.1c0.4,6,1.2,9.5,1.2,9.6l1.6-0.2C-67.6,52-68.4,48.5-68.8,42.6"/>
				</g>
				<g id="g4225" transform="translate(264.8113,500.9445)">
					<path id="path4227" class="st5" d="M-68.8,42.6l1.1,8.1"/>
				</g>
				<g id="g4229" transform="translate(265.613,500.8712)">
					<path id="path4231" class="st5" d="M-68.8,42.6l-1.6,0.1l1.1,8.1l1.6-0.1L-68.8,42.6z"/>
				</g>
				<g id="g4233" transform="translate(262.6658,485.798)">
					<path id="path4235" class="st5" d="M-68.8,42.6l1,7.6"/>
				</g>
				<g id="g4237" transform="translate(263.4666,485.7248)">
					<path id="path4239" class="st5" d="M-68.8,42.6l-1.6,0.1l1,7.6l1.6-0.1L-68.8,42.6z"/>
				</g>
				<g id="g4241" transform="translate(252.2722,478.9665)">
					<path id="path4243" class="st5" d="M-68.8,42.6l1,7.6"/>
				</g>
				<g id="g4245" transform="translate(253.074,478.8927)">
					<path id="path4247" class="st5" d="M-68.8,42.6l-1.6,0.1l1,7.6l1.6-0.1L-68.8,42.6z"/>
				</g>
				<g id="g4249" transform="translate(270.6472,477.505)">
					<path id="path4251" class="st5" d="M-68.8,42.6l1,7.6"/>
				</g>
				<g id="g4253" transform="translate(271.448,477.4313)">
					<path id="path4255" class="st5" d="M-68.8,42.6l-1.6,0.1l1,7.6l1.6-0.1L-68.8,42.6z"/>
				</g>
				<g id="g4257" transform="translate(249.9089,462.9157)">
					<path id="path4259" class="st5" d="M-68.8,42.6l1,7.6"/>
				</g>
				<g id="g4261" transform="translate(250.7097,462.8419)">
					<path id="path4263" class="st5" d="M-68.8,42.6l-1.6,0.1l1,7.6l1.6-0.1L-68.8,42.6z"/>
				</g>
				<g id="g4265" transform="translate(268.4724,461.9352)">
					<path id="path4267" class="st5" d="M-68.8,42.6l1,7.6"/>
				</g>
				<g id="g4269" transform="translate(269.2742,461.8625)">
					<path id="path4271" class="st5" d="M-68.8,42.6l-1.6,0.1l1,7.6l1.6-0.1L-68.8,42.6z"/>
				</g>
				<g id="g4273" transform="translate(328.45,475.0827)">
					<path id="path4275" class="st5" d="M-68.8,42.6l3.7,6.7"/>
				</g>
				<g id="g4277" transform="translate(329.1824,474.8053)">
					<path id="path4279" class="st5" d="M-68.8,42.6l-1.5,0.6l3.7,6.7l1.5-0.6L-68.8,42.6z"/>
				</g>
				<g id="g4281" transform="translate(323.572,484.7868)">
					<path id="path4283" class="st5" d="M-68.8,42.6l3.7,6.7"/>
				</g>
				<g id="g4285" transform="translate(324.3035,484.5099)">
					<path id="path4287" class="st5" d="M-68.8,42.6l-1.5,0.6l3.7,6.7l1.5-0.6L-68.8,42.6z"/>
				</g>
				<g id="g4289" transform="translate(341.1472,479.2946)">
					<path id="path4291" class="st5" d="M-68.8,42.6l3.7,6.7"/>
				</g>
				<g id="g4293" transform="translate(341.8787,479.0172)">
					<path id="path4295" class="st5" d="M-68.8,42.6l-1.5,0.6l3.7,6.7l1.5-0.6L-68.8,42.6z"/>
				</g>
				<g id="g4297" transform="translate(333.2791,465.1491)">
					<path id="path4299" class="st5" d="M-68.8,42.6l3.7,6.7"/>
				</g>
				<g id="g4301" transform="translate(334.0105,464.8722)">
					<path id="path4303" class="st5" d="M-68.8,42.6l-1.5,0.6l3.7,6.7l1.5-0.6L-68.8,42.6z"/>
				</g>
				<g id="g4305" transform="translate(316.0906,470.7238)">
					<path id="path4307" class="st5" d="M-68.8,42.6l3.7,6.7"/>
				</g>
				<g id="g4309" transform="translate(316.823,470.4469)">
					<path id="path4311" class="st5" d="M-68.8,42.6l-1.5,0.6l3.7,6.7l1.5-0.6L-68.8,42.6z"/>
				</g>
				<g id="g4313" transform="translate(326.3298,452.694)">
					<path id="path4315" class="st5" d="M-68.8,42.6l2.7,4.9"/>
				</g>
				<g id="g4317" transform="translate(327.0613,452.4171)">
					<path id="path4319" class="st5" d="M-68.8,42.6l-1.5,0.6l2.7,4.9l1.5-0.6L-68.8,42.6z"/>
				</g>
				<g id="g4321" transform="translate(308.4802,456.6789)">
					<path id="path4323" class="st5" d="M-68.8,42.6l3.6,6.5"/>
				</g>
				<g id="g4325" transform="translate(309.2117,456.401)">
					<path id="path4327" class="st5" d="M-68.8,42.6l-1.5,0.6l3.6,6.5l1.5-0.6L-68.8,42.6z"/>
				</g>
				<g id="g4329" transform="translate(234.0671,472.1022)">
					<path id="path4331" class="st5" d="M-68.8,42.6C-68.8,42.6-68.8,42.6-68.8,42.6c-0.5,0-0.8,0.3-0.8,0.7l0.6,7.6
						c0,0.4,0.4,0.6,0.9,0.6c0.4,0,0.8-0.3,0.8-0.7l-0.6-7.6C-68,42.9-68.4,42.6-68.8,42.6"/>
				</g>
				<path id="path4333" class="st5" d="M158.8,506.3h-1.6v9h1.6V506.3z"/>
				<g id="g4335" transform="translate(227.5749,444.2702)">
					<path id="path4337" class="st5" d="M-68.8,42.6h-1.6v10.3h1.6L-68.8,42.6z"/>
				</g>
				<g id="g4339" transform="translate(227.574,424.3195)">
					<path id="path4341" class="st5" d="M-68.8,42.6h-1.6l0,9.8h1.6L-68.8,42.6z"/>
				</g>
				<g id="g4343" transform="translate(130.0652,453.321)">
					<path id="path4345" class="st5" d="M-68.8,42.6c0,0.1-3.1,5.5-5.2,9.5c-1.1,2-1.2,3.8-0.5,5.1c0.6,1.1,1.9,2,3.7,2.4
						c4,1,7.1-0.4,9.3-4.1c2.4-4.1,5.3-9.8,5.3-9.9l-1.5-0.5c0,0.1-2.8,5.7-5.2,9.8c-2.4,4.1-5.2,4-7.4,3.4
						c-0.9-0.2-2.1-0.7-2.6-1.7c-0.6-1-0.4-2.4,0.5-4c2.1-3.9,5.2-9.4,5.2-9.4L-68.8,42.6z"/>
				</g>
				<g id="g4347" transform="translate(323.3015,453.32)">
					<path id="path4349" class="st5" d="M-68.8,42.6l-1.5,0.6c0,0.1,3.1,5.5,5.2,9.4c0.9,1.7,1.1,3,0.5,4c-0.6,1-1.7,1.4-2.6,1.7
						c-2.2,0.5-5,0.6-7.4-3.4c-2.4-4.1-5.2-9.7-5.2-9.8l-1.5,0.5c0,0.1,2.9,5.7,5.3,9.9c2.2,3.8,5.2,5.1,9.3,4.1
						c1.8-0.4,3-1.3,3.7-2.4c0.8-1.4,0.6-3.1-0.5-5.1C-65.7,48.1-68.8,42.7-68.8,42.6"/>
				</g>
				<g id="g4351" transform="translate(187.4343,462.2174)">
					<path id="path4353" class="st5" d="M-68.8,42.6l-1.5,12.2c-0.3,2.2,0.2,3.8,1.4,5c1,1,2.5,1.5,4.4,1.5c4.3,0.1,6.7-1.9,7.4-6
						c0.8-4.5,1.6-11.8,1.6-11.9l-1.6-0.1c0,0.1-0.8,7.3-1.6,11.8c-0.7,4.4-3.5,4.9-5.7,4.8c-1,0-2.3-0.2-3.2-1.1
						c-0.9-0.8-1.2-2.2-1-4l1.5-12.2L-68.8,42.6z"/>
				</g>
				<g id="g4355" transform="translate(266.2292,462.2174)">
					<path id="path4357" class="st5" d="M-68.8,42.6l-1.6,0.1l1.5,12.2c0.2,1.8-0.1,3.1-1,4c-0.9,0.9-2.3,1.1-3.2,1.1
						c-2.3,0-5-0.5-5.7-4.8c-0.8-4.5-1.6-11.7-1.6-11.8l-1.6,0.1c0,0.1,0.8,7.4,1.6,11.9c0.7,4,3,6,7.1,6c0.1,0,0.2,0,0.3,0
						c1.9,0,3.4-0.6,4.4-1.5c1.2-1.1,1.7-2.8,1.4-5L-68.8,42.6z"/>
				</g>
				<g id="g4359" transform="translate(294.2498,244.4064)">
					<path id="path4361" d="M-68.8,42.6c-7,0-12.9-2.7-12.9-6c0-3.2,5.9-6,12.9-6c7,0,12.9,2.7,12.9,6
						C-55.9,39.9-61.8,42.6-68.8,42.6 M-68.8,29.1c-8.1,0-14.5,3.3-14.5,7.6c0,4.3,6.4,7.6,14.5,7.6s14.5-3.3,14.5-7.6
						C-54.3,32.4-60.7,29.1-68.8,29.1"/>
				</g>
				<g id="g4363" transform="translate(159.2156,244.4064)">
					<path id="path4365" d="M-68.8,42.6c-7,0-12.9-2.7-12.9-6c0-3.2,5.9-6,12.9-6c7,0,12.9,2.7,12.9,6
						C-55.9,39.9-61.8,42.6-68.8,42.6 M-68.8,29.1c-8.1,0-14.5,3.3-14.5,7.6c0,4.3,6.4,7.6,14.5,7.6s14.5-3.3,14.5-7.6
						C-54.3,32.4-60.7,29.1-68.8,29.1"/>
				</g>
				<g id="g4367" transform="translate(259.6619,252.069)">
					<path id="path4369" d="M-68.8,42.6c-1.6,0-3.2,0.2-4.8,0.6c-1.4,0.4-2.9,0.9-4.4,1.7c-1.5,0.7-3,1.6-4.1,2.3
						c-1.4,0.9-2.8,1.8-4,2.6c-1.4,1-2.7,1.8-4,2.6c-1.1,0.7-2.5,1.5-4,2.2c-1.4,0.7-2.8,1.2-4.1,1.6c-1.1,0.3-2.2,0.5-3.2,0.6
						c-0.3,0-0.5,0-0.8,0c-0.4,0-0.7,0-1.1,0c-1-0.1-2.1-0.3-3.2-0.6c-1.3-0.4-2.7-0.9-4.1-1.6c-1.2-0.6-2.5-1.3-4-2.2
						c-1.1-0.7-2.1-1.4-3.2-2.1l-0.7-0.5c-1.5-1-2.8-1.8-4-2.6c-1.2-0.7-2.6-1.6-4.1-2.3c-1.5-0.7-3-1.3-4.4-1.7
						c-1.6-0.4-3.2-0.6-4.8-0.6h-0.2l-0.2,0.8v-0.8c-1.6,0-3.1,0.2-4.7,0.6c-1.3,0.3-2.5,0.8-3.9,1.5l0,0l-0.3,0.1
						c-0.3,0.2-0.7,0.4-1,0.6c-1.1,0.6-2.1,1.2-3.1,1.8c-1.4,0.9-2.8,1.8-4,2.6c-1.4,0.9-2.7,1.8-4,2.6c-1.1,0.7-2.5,1.5-4,2.2
						c-1.4,0.7-2.8,1.2-4.1,1.6c-2.9,0.8-5.5,0.8-8.5,0c-1.3-0.4-2.6-0.9-4-1.6c-2.5-1.2-4.9-2.8-7.4-4.5l-0.6-0.4
						c-1.6-1-2.9-1.9-4.1-2.6c-1.6-1-3-1.7-4.2-2.3c-1.6-0.7-3-1.3-4.5-1.7c-1.5-0.4-2.9-0.6-4.4-0.6l0,1.6c1.3,0,2.6,0.2,4,0.6
						c1.4,0.4,2.7,0.9,4.2,1.6c1.2,0.6,2.5,1.3,4.1,2.2c1.2,0.7,2.5,1.5,4,2.6l0.6,0.4c2.5,1.6,5,3.3,7.6,4.6
						c1.5,0.7,2.9,1.3,4.3,1.7c3.2,0.9,6.1,0.8,9.3,0c1.4-0.4,2.9-0.9,4.4-1.7c1.5-0.7,2.9-1.6,4.1-2.3c1.3-0.8,2.6-1.7,4-2.6
						c1.2-0.8,2.5-1.7,3.9-2.6c0.9-0.6,1.9-1.1,3-1.7c0.2-0.1,0.5-0.3,0.7-0.4l0,0l0.3-0.2c1.3-0.7,2.5-1.2,3.8-1.5
						c1.4-0.4,2.8-0.6,4.2-0.6h0.3c1.4,0,2.8,0.2,4.3,0.6c1.3,0.4,2.7,0.9,4.1,1.6c1.5,0.7,2.8,1.5,4,2.2c1.2,0.8,2.5,1.6,4,2.6
						l0.7,0.5c1.1,0.7,2.2,1.5,3.3,2.2c1.5,1,2.9,1.7,4.2,2.3c1.5,0.7,3,1.3,4.4,1.7c1.2,0.3,2.4,0.5,3.5,0.6c0.4,0,0.8,0,1.2,0
						c0.3,0,0.6,0,0.9,0c1.2-0.1,2.3-0.3,3.5-0.6c1.4-0.4,2.9-0.9,4.4-1.7c1.5-0.7,2.9-1.6,4.1-2.3c1.3-0.8,2.6-1.7,4-2.6
						c1.2-0.8,2.5-1.7,3.9-2.6c1.1-0.7,2.5-1.5,4-2.2c1.4-0.7,2.8-1.2,4.1-1.6c1.5-0.4,2.9-0.6,4.3-0.6h0.4c1.4,0,2.8,0.2,4.2,0.6
						c1,0.3,1.9,0.6,2.9,1.1c0.4,0.2,0.7,0.3,1.1,0.5c1.5,0.7,2.9,1.5,4.1,2.2c1.3,0.8,2.7,1.7,4.1,2.6l0.7,0.5
						c2.4,1.6,4.9,3.2,7.4,4.5c1.5,0.7,2.9,1.3,4.3,1.7c3.3,0.9,6.1,0.8,9.3,0c1.4-0.4,2.9-0.9,4.4-1.7c1.2-0.6,2.5-1.3,4.1-2.3
						c1.1-0.7,2.2-1.4,3.3-2.2l0.7-0.5c1.4-1,2.7-1.8,4-2.6c1.1-0.7,2.5-1.5,4-2.2c1.4-0.7,2.8-1.2,4.1-1.6c1.9-0.5,3.6-0.7,5.4-0.6
						l0.1-1.6c-1.9-0.1-3.8,0.1-5.9,0.6c-1.4,0.4-2.9,0.9-4.4,1.7c-1.5,0.7-2.9,1.6-4.1,2.3c-1.2,0.8-2.5,1.6-4,2.6l-0.7,0.5
						c-1.1,0.7-2.1,1.5-3.2,2.1c-1.5,1-2.8,1.7-4,2.2c-1.4,0.7-2.8,1.2-4.1,1.6c-2.9,0.8-5.5,0.8-8.5,0c-1.3-0.4-2.6-0.9-4-1.6
						c-2.4-1.2-4.8-2.7-7.2-4.4l-0.7-0.5c-1.4-0.9-2.8-1.8-4.1-2.6c-1.2-0.7-2.7-1.6-4.2-2.3c-0.4-0.2-0.7-0.3-1.1-0.5
						c-1-0.5-2.1-0.9-3.2-1.2c-1.6-0.4-3.1-0.6-4.7-0.6H-68.8z"/>
				</g>
				<g id="g4371" transform="translate(327.9148,212.4093)">
					<path id="path4373" d="M-68.8,42.6c-1.6,0-19.2,0.2-22.2,7.4c-1.3,3.2,0.3,7.1,4.8,11.7c4.1,4.1,5.6,7.5,4.5,10
						c-2.2,5.3-15.4,6.4-20.6,6.4c-0.1,0-0.2,0-0.4,0c-5.2,0-18.4-1.1-20.6-6.4c-1.1-2.5,0.5-5.9,4.5-10c4.6-4.6,6.2-8.6,4.8-11.7
						c-3.1-7.4-21.5-7.4-22.3-7.4c-0.8,0-19.2,0-22.3,7.4c-1.3,3.2,0.3,7.1,4.9,11.7c4.1,4.1,5.6,7.5,4.5,10
						c-2.2,5.3-15.7,6.4-20.8,6.4c-0.1,0-0.1,0-0.2,0c-5.2,0-18.4-1.1-20.6-6.4c-1.1-2.5,0.5-5.9,4.5-10c4.6-4.6,6.2-8.6,4.8-11.7
						c-3.1-7.4-21.5-7.4-22.3-7.4c-0.8,0-19.2,0-22.3,7.4c-1.3,3.2,0.3,7.1,4.8,11.7c4.1,4.1,5.6,7.5,4.5,10
						c-2.2,5.3-15.8,6.4-20.8,6.4c-0.1,0-0.1,0-0.2,0c-5.2,0-18.4-1.1-20.6-6.4c-1.1-2.5,0.5-5.9,4.5-10c4.6-4.6,6.2-8.6,4.8-11.7
						c-3.1-7.4-21.5-7.4-22.3-7.4l0,1.6c0.1,0,0.1,0,0.2,0c5.2,0,18.4,1.1,20.6,6.4c1.1,2.5-0.5,5.9-4.5,10
						c-4.6,4.6-6.2,8.6-4.8,11.7c3.1,7.4,21.5,7.4,22.3,7.4c0.8,0,19.2,0,22.3-7.4c1.3-3.2-0.3-7.1-4.9-11.7
						c-4.1-4.1-5.6-7.5-4.5-10c2.3-5.3,15.8-6.4,20.8-6.4c5,0,18.6,1.1,20.8,6.4c1.1,2.5-0.5,5.9-4.5,10c-4.6,4.6-6.2,8.6-4.8,11.7
						c3.1,7.4,21.5,7.4,22.3,7.4c0.8,0,19.2,0,22.3-7.4c1.3-3.2-0.3-7.1-4.8-11.7c-4.1-4.1-5.6-7.5-4.5-10
						c2.2-5.3,15.7-6.4,20.8-6.4c5,0,18.6,1.1,20.8,6.4c1.1,2.5-0.5,5.9-4.5,10c-4.6,4.6-6.2,8.6-4.8,11.7
						c3.1,7.4,21.5,7.4,22.3,7.4c0.8,0,19.2,0,22.3-7.4c1.3-3.2-0.3-7.1-4.8-11.7c-4.1-4.1-5.6-7.5-4.5-10
						c2.3-5.3,15.8-6.4,20.8-6.4L-68.8,42.6C-68.7,42.6-68.7,42.6-68.8,42.6"/>
				</g>
				<g id="g4375" transform="translate(326.9724,281.3898)">
					<path id="path4377" d="M-68.8,42.6c-1.6,0-3.1,0.2-4.8,0.6c-1.4,0.4-2.9,0.9-4.4,1.7c-1.5,0.7-2.9,1.6-4.1,2.3
						c-1.2,0.8-2.5,1.6-4,2.6l-0.7,0.5c-1.1,0.7-2.1,1.4-3.2,2.1c-1.5,1-2.8,1.7-4,2.2c-1.4,0.7-2.8,1.2-4.1,1.6
						c-3,0.8-5.7,0.8-8.7,0c-1.3-0.4-2.7-0.9-4.1-1.6l-0.5-0.3c-0.9-0.4-3.4-1.6-3.8-1.9c-0.4-0.3-0.9-0.7-1.3-1l-0.7-0.6l-1.6-1.1
						c-1.5-1-2.8-1.8-4-2.6c-1.1-0.7-2.6-1.6-4.1-2.3c-1.5-0.7-3-1.3-4.4-1.7c-1.6-0.4-3.1-0.6-4.6-0.6c-1.5,0-3,0.2-4.6,0.6
						c-1.4,0.4-2.9,0.9-4.4,1.7c-1.5,0.7-2.9,1.6-4.1,2.3c-1.4,0.9-2.8,1.8-4,2.6l-1,0.7c-1,0.7-1.9,1.3-2.9,1.9
						c-1.5,0.9-2.7,1.6-4,2.2c-1.4,0.7-2.8,1.2-4.1,1.6c-1.5,0.4-2.9,0.6-4.3,0.6l-0.1,0c-0.1,0-0.1,0-0.2,0c-0.2,0-0.4,0-0.5,0
						l-0.3,0c-1.2-0.1-2.4-0.2-3.6-0.5c-1.3-0.4-2.7-0.9-4.1-1.6c-1.5-0.7-2.8-1.5-4-2.2c-1.3-0.8-2.5-1.6-4-2.6
						c-1.2-0.8-2.6-1.7-4-2.6c-1.1-0.7-2.6-1.6-4.1-2.3c-1.5-0.7-3-1.3-4.4-1.7c-1.6-0.4-3.1-0.6-4.6-0.6c-1.5,0-3,0.2-4.6,0.6
						c-1.3,0.4-2.7,0.9-4.1,1.5l0,0l-0.3,0.2c-0.3,0.1-0.6,0.3-1,0.5c-0.9,0.5-1.9,1.1-2.8,1.8c-1.2,0.8-2.3,1.7-3.6,2.6
						c-0.4,0.3-1.8,1.1-2.8,1.6c-0.8,0.4-1.5,0.8-1.8,1c-1.5,0.9-2.7,1.6-4,2.2c-1.4,0.7-2.8,1.2-4.1,1.6c-3,0.8-5.8,0.8-8.7,0
						c-1.3-0.3-2.7-0.9-4.1-1.6c-1.3-0.6-2.6-1.3-4-2.2c-0.9-0.6-1.8-1.2-2.8-1.8l-1.2-0.8c-1.2-0.8-2.6-1.7-4-2.6
						c-1.2-0.7-2.6-1.6-4.1-2.3c-1.5-0.7-3-1.3-4.4-1.7c-1.5-0.4-2.9-0.6-4.4-0.6l0,1.6c1.3,0,2.6,0.2,4,0.6
						c1.3,0.4,2.7,0.9,4.1,1.6c1.5,0.7,2.8,1.5,4,2.2c1.4,0.9,2.8,1.8,3.9,2.6l1.2,0.8c0.9,0.6,1.9,1.3,2.8,1.9
						c1.5,0.9,2.8,1.7,4.1,2.3c1.5,0.7,3,1.3,4.4,1.7c3.2,0.9,6.3,0.9,9.5,0c1.4-0.4,2.9-0.9,4.4-1.7c1.3-0.6,2.6-1.3,4.1-2.3
						c0.3-0.2,1-0.6,1.7-1c1.5-0.8,2.6-1.4,3-1.7c1.3-0.9,2.4-1.8,3.5-2.6c0.9-0.7,1.8-1.2,2.7-1.7c0.2-0.1,0.5-0.3,0.7-0.4l0.2-0.1
						c1.4-0.7,2.8-1.2,4.1-1.5c1.4-0.4,2.8-0.6,4.2-0.6c1.3,0,2.7,0.2,4.2,0.6c1.3,0.4,2.7,0.9,4.1,1.6c1.5,0.7,2.9,1.6,4,2.2
						c1.4,0.9,2.8,1.8,3.9,2.6c1.4,1,2.7,1.8,4,2.6c1.2,0.7,2.6,1.6,4.1,2.3c1.5,0.7,3,1.3,4.4,1.7c1.3,0.3,2.6,0.5,3.9,0.6l0.3,0
						c0.2,0,0.4,0,0.6,0c0.2,0,0.3,0,0.3,0c1.6,0,3.1-0.2,4.8-0.6c1.4-0.4,2.9-0.9,4.4-1.7c1.3-0.6,2.6-1.4,4.1-2.3c1-0.6,2-1.3,3-2
						l1-0.7c1.2-0.8,2.6-1.7,3.9-2.6c1.1-0.7,2.5-1.5,4-2.2c1.4-0.7,2.8-1.2,4.1-1.6c1.4-0.4,2.8-0.6,4.2-0.6c1.4,0,2.7,0.2,4.2,0.6
						c1.3,0.4,2.7,0.9,4.1,1.6c1.5,0.7,2.9,1.6,4,2.2c1.2,0.8,2.5,1.6,4,2.6l1.5,1l0.6,0.5c0.5,0.4,0.9,0.7,1.4,1.1
						c0.4,0.3,1.8,1,4.1,2.1l0.5,0.3c1.5,0.7,3,1.3,4.4,1.7c3.3,0.9,6.3,0.9,9.5,0c1.4-0.4,2.9-0.9,4.4-1.7c1.2-0.6,2.5-1.3,4.1-2.3
						c1.1-0.7,2.2-1.4,3.3-2.2l0.7-0.5c1.4-1,2.7-1.8,4-2.6c1.1-0.7,2.5-1.5,4-2.2c1.4-0.7,2.8-1.2,4.1-1.6c1.9-0.5,3.6-0.7,5.4-0.6
						l0.1-1.6C-68,42.6-68.4,42.6-68.8,42.6"/>
				</g>
				<g id="g4379" transform="translate(72.0457,406.8146)">
					<path id="path4381" d="M-68.8,42.6c0-27.4,0-55.2,0-82.1c0-44.8-0.1-91.1,0.2-136.6c2.4-65.1,53.8-124.7,119.5-138.5
						c60.6-14.3,129.2,11.9,163.1,62.3c24.2,33.5,27.7,71.8,26.4,98.1l0,196.7H-68.8z M85.1-321.7c-11.9,0-23.6,1.3-34.9,4
						c-67.1,14.1-119.6,74.9-122,141.5c-0.3,45.6-0.2,91.9-0.2,136.7c0,27.4,0.1,55.8,0,83.7l0,1.6h315.7V-154
						c1.3-26.7-2.3-65.7-27-100c-16.9-25.1-42.9-45.3-73.1-56.8C124.8-318,104.8-321.7,85.1-321.7"/>
				</g>
				<g id="g4383" transform="translate(72.0457,406.8146)">
					<path id="path4385" d="M-68.8,42.6c0-27.4,0-55.3,0-82.2c0-44.7-0.1-91,0.2-136.5c2.4-65.1,53.8-124.7,119.5-138.5
						c60.6-14.3,129.2,11.9,163.1,62.3c24.2,33.5,27.7,71.8,26.4,98.1l0,196.7H-68.8z M85.1-321.7c-11.9,0-23.6,1.3-34.9,4
						c-67.1,14.1-119.6,74.9-122,141.5c-0.3,45.6-0.2,91.8-0.2,136.6c0,27.5,0.1,55.9,0,83.8l0,1.6h315.7V-154
						c1.3-26.7-2.3-65.7-27-100c-16.9-25.1-42.9-45.3-73.1-56.8C124.8-318,104.8-321.7,85.1-321.7"/>
				</g>
				<g id="g4387" transform="translate(78.4773,399.1872)">
					<path id="path4389" d="M-68.8,42.6c0-26.3,0-53.1,0-79c0-42.7-0.1-86.9,0.2-130.3c2.3-62.5,51.5-119.5,114.5-132.8
						c58-13.7,123.8,11.4,156.4,59.8c23.2,32.1,26.6,68.8,25.3,94l0,188.3H-68.8z M78.7-304.8c-11.2,0-22.4,1.3-33.1,3.8
						c-63.7,13.4-113.5,71.1-115.8,134.3c-0.3,43.5-0.2,87.6-0.2,130.4c0,26.2,0,53.2,0,79.8l0,0.8h299.6v-189.9
						c1.3-25.4-2.2-62.4-25.6-94.9c-16-23.8-40.7-43-69.4-53.9C116.3-301.4,97.4-304.8,78.7-304.8"/>
				</g>
				<g id="g4391" transform="translate(78.4773,399.1872)">
					<path id="path4393" d="M-68.8,42.6c0-26.3,0-53,0-78.8c0-42.8-0.1-87,0.2-130.5c2.3-62.5,51.5-119.5,114.5-132.8
						c58-13.7,123.8,11.4,156.4,59.8c23.2,32.1,26.6,68.8,25.3,94l0,188.3H-68.8z M78.7-304.8c-11.2,0-22.4,1.3-33.1,3.8
						c-63.7,13.4-113.5,71.1-115.8,134.3c-0.3,43.5-0.2,87.7-0.2,130.5c0,26.1,0,53.1,0,79.6l0,0.8h299.6v-189.9
						c1.3-25.4-2.2-62.4-25.6-94.9c-16-23.8-40.7-43-69.4-53.9C116.3-301.4,97.4-304.8,78.7-304.8"/>
				</g>
				<g id="g4395" transform="translate(127.0544,351.5446)">
					<path id="path4397" d="M-68.8,42.6c0-18.7,0-37.4,0-56.1c0-31-0.1-63,0.1-94.6c1.5-44.8,34.6-85.7,77-95.2
						c39-9.8,83.2,8.2,105.1,42.8c15.6,23.1,17.9,49.5,17.1,67.5l0,135.5H-68.8z M30.4-209.2c-7.7,0-15.4,0.9-22.8,2.8
						c-43.7,9.8-77.9,52-79.5,98.3C-72.1-76.5-72-44.5-72-13.5c0,19.2,0,38.5,0,57.7l0,1.6h205.8V-92.8c0.9-18.5-1.5-45.6-17.6-69.4
						c-11-17.4-27.9-31.4-47.6-39.5C56.2-206.6,43.2-209.2,30.4-209.2"/>
				</g>
				<g id="g4399" transform="translate(127.0544,351.5446)">
					<path id="path4401" d="M-68.8,42.6c0-18.7,0-37.4,0-56.1c0-31-0.1-63,0.1-94.6c1.5-44.8,34.6-85.7,77-95.2
						c39-9.8,83.2,8.2,105.1,42.8c15.6,23.1,17.9,49.5,17.1,67.5l0,135.5H-68.8z M30.4-209.2c-7.7,0-15.4,0.9-22.8,2.8
						c-43.7,9.8-77.9,52-79.5,98.3C-72.1-76.5-72-44.5-72-13.5c0,19.2,0,38.5,0,57.7l0,1.6h205.8V-92.8c0.9-18.5-1.5-45.6-17.6-69.4
						c-11-17.4-27.9-31.4-47.6-39.5C56.2-206.6,43.2-209.2,30.4-209.2"/>
				</g>
				<g id="g4403" transform="translate(183.4704,214.0114)">
					<path id="path4405" d="M-68.8,42.6V-60.1"/>
				</g>
				<path id="path4407" d="M115.5,153.9h-1.6v102.7h1.6V153.9z"/>
				<g id="g4409" transform="translate(159.2146,231.6657)">
					<path id="path4411" d="M-68.8,42.6V-60.9"/>
				</g>
				<path id="path4413" d="M91.2,170.8h-1.6v103.5h1.6V170.8z"/>
				<path id="path4415" d="M91.2,287.8h-1.6v3.6h1.6V287.8z"/>
				<g id="g4417" transform="translate(269.3923,213.9581)">
					<path id="path4419" d="M-68.8,42.6V-60.1"/>
				</g>
				<path id="path4421" d="M201.4,153.9h-1.6v102.7h1.6V153.9z"/>
				<path id="path4423" d="M226.3,170.8h-1.6v103.5h1.6V170.8z"/>
				<path id="path4425" d="M226.3,287.8h-1.6v3.6h1.6V287.8z"/>
				<g id="g4427" transform="translate(104.2322,373.6681)">
					<path id="path4429" d="M-68.8,42.6l5.9,14.4h8.9v-0.6h-0.7c-0.6,0-1.2-0.1-1.5-0.3c-0.3-0.2-0.5-0.4-0.6-0.8
						c-0.1-0.3-0.2-0.9-0.2-2V38.9c0-1.1,0.1-1.8,0.2-2.1c0.1-0.3,0.4-0.5,0.7-0.7c0.4-0.2,0.9-0.3,1.5-0.3h0.7v-0.6h-11.4v0.6h0.7
						c0.6,0,1.2,0.1,1.5,0.3c0.3,0.2,0.5,0.4,0.6,0.8c0.1,0.3,0.2,0.9,0.2,2v16.2l-8.4-20h-0.4L-79.6,55V39.6c0-1.1,0-1.7,0.1-2
						c0.1-0.5,0.4-1,0.9-1.3c0.5-0.3,1.2-0.5,2.2-0.5v-0.6h-7.5v0.6h0.2c0.5,0,0.9,0.1,1.4,0.2s0.7,0.4,1,0.7
						c0.2,0.3,0.4,0.7,0.5,1.2c0,0.1,0,0.7,0,1.6v13.8c0,1.1-0.1,1.8-0.2,2.1c-0.1,0.3-0.4,0.5-0.7,0.7c-0.4,0.2-0.9,0.3-1.5,0.3
						h-0.7V57h8.9L-68.8,42.6z"/>
				</g>
				<g id="g4431" transform="translate(120.447,388.0924)">
					<path id="path4433" d="M-68.8,42.6h11.3V42h-0.6c-0.8,0-1.4-0.1-1.8-0.3c-0.3-0.2-0.5-0.4-0.7-0.7c-0.1-0.3-0.2-1.1-0.2-2.3V28
						c0-2,0.1-3.3,0.4-3.9c0.3-0.6,0.8-1.2,1.5-1.6c0.7-0.4,1.5-0.6,2.6-0.6c1.2,0,2.2,0.3,3,0.8c0.8,0.5,1.5,1.3,1.9,2.2
						c0.4,0.9,0.6,2.6,0.6,4.9v8.9c0,1-0.1,1.7-0.3,2.1c-0.2,0.4-0.5,0.7-0.8,0.9c-0.5,0.2-1.2,0.4-2.1,0.4v0.6h7.6V42h-0.5
						c-0.6,0-1.1-0.1-1.5-0.4c-0.4-0.2-0.7-0.6-0.9-1.1c-0.1-0.3-0.2-1-0.2-1.9v-8.3c0-2.6-0.2-4.4-0.5-5.6
						c-0.3-1.1-1.2-2.2-2.5-3.1c-1.3-1-3.1-1.4-5.4-1.4c-1.9,0-3.4,0.3-4.4,0.8c-1.4,0.7-2.4,1.6-3,2.6c-0.6,1.1-0.9,2.5-0.9,4.3
						v10.7c0,1.3-0.1,2-0.2,2.3c-0.1,0.3-0.4,0.6-0.7,0.7c-0.3,0.2-1,0.3-1.9,0.3V42.6z"/>
				</g>
				<g id="g4435" transform="translate(151.7634,388.0924)">
					<path id="path4437" d="M-68.8,42.6L-58,29v9.4c0,1.3-0.2,2.2-0.6,2.7c-0.5,0.6-1.4,0.9-2.6,0.9v0.6h7.2V42
						c-0.9-0.1-1.5-0.3-1.9-0.5c-0.3-0.2-0.6-0.5-0.7-0.9c-0.2-0.4-0.3-1.2-0.3-2.2V20.2h-0.5l-14.8,18.2V24.5
						c0-1.3,0.3-2.1,0.9-2.5c0.6-0.4,1.2-0.7,2-0.7h0.5v-0.6h-7.8v0.6c1.2,0,2,0.3,2.5,0.7c0.5,0.5,0.7,1.3,0.7,2.5V40l-0.5,0.6
						c-0.5,0.6-0.9,1-1.2,1.1c-0.4,0.2-0.9,0.3-1.5,0.3v0.6L-68.8,42.6z"/>
				</g>
				<g id="g4439" transform="translate(179.4978,366.8117)">
					<path id="path4441" d="M-68.8,42.6V42h-11.4v0.6h0.7c0.6,0,1.1,0.1,1.5,0.3c0.3,0.2,0.5,0.4,0.6,0.8c0.1,0.3,0.2,0.9,0.2,2
						v14.4c0,1.1-0.1,1.8-0.2,2.1c-0.1,0.3-0.4,0.5-0.7,0.7s-0.8,0.3-1.5,0.3h-0.7v0.6h11.4v-0.6h-0.7c-0.6,0-1.1-0.1-1.5-0.3
						c-0.3-0.2-0.5-0.4-0.7-0.8c-0.1-0.3-0.2-0.9-0.2-2V45.8c0-1.1,0.1-1.8,0.2-2.1c0.1-0.3,0.4-0.5,0.7-0.7
						c0.4-0.2,0.8-0.3,1.5-0.3H-68.8z"/>
				</g>
				<g id="g4443" transform="translate(202.3103,388.5919)">
					<path id="path4445" d="M-68.8,42.6V35h-0.6c-0.5,2-1.4,3.5-2.6,4.5c-1.3,1.1-2.8,1.6-4.4,1.6c-1.4,0-2.6-0.4-3.8-1.2
						c-1.1-0.8-2-1.8-2.5-3.1c-0.7-1.6-1-3.4-1-5.4c0-2,0.2-3.7,0.7-5.3c0.5-1.6,1.3-2.8,2.3-3.6c1.1-0.8,2.4-1.2,4.1-1.2
						c1.4,0,2.6,0.3,3.8,0.9c1.1,0.6,2.4,1.6,3.6,3.1v-1.9c-1.2-1.3-2.5-2.2-3.8-2.8c-1.3-0.6-2.9-0.9-4.7-0.9
						c-2.3,0-4.4,0.5-6.2,1.4c-1.8,0.9-3.2,2.3-4.2,4c-1,1.8-1.5,3.6-1.5,5.6c0,2.1,0.5,4.1,1.6,5.9c1.1,1.9,2.6,3.3,4.4,4.4
						c1.9,1,3.8,1.5,5.9,1.5c1.5,0,3.2-0.3,4.9-1c1-0.4,1.6-0.6,1.9-0.6c0.3,0,0.6,0.1,0.9,0.4c0.3,0.3,0.4,0.7,0.5,1.2H-68.8z"/>
				</g>
				<g id="g4447" transform="translate(216.2185,366.8117)">
					<path id="path4449" d="M-68.8,42.6V42h-11.4v0.6h0.7c0.6,0,1.1,0.1,1.5,0.3c0.3,0.2,0.5,0.4,0.6,0.8c0.1,0.3,0.2,0.9,0.2,2
						v14.4c0,1.1-0.1,1.8-0.2,2.1c-0.1,0.3-0.4,0.5-0.7,0.7s-0.8,0.3-1.5,0.3h-0.7v0.6h11.4v-0.6h-0.7c-0.6,0-1.1-0.1-1.5-0.3
						c-0.3-0.2-0.5-0.4-0.7-0.8c-0.1-0.3-0.2-0.9-0.2-2V45.8c0-1.1,0.1-1.8,0.2-2.1c0.1-0.3,0.4-0.5,0.7-0.7
						c0.4-0.2,0.8-0.3,1.5-0.3H-68.8z"/>
				</g>
				<g id="g4451" transform="translate(225.8982,386.8336)">
					<path id="path4453" d="M-68.8,42.6v-9.5c0.4,0,0.6,0,0.8,0c1.3,0,2.3,0.4,3,1.2c0.7,0.8,1.1,2,1.1,3.6c0,1.6-0.4,2.8-1.1,3.6
						c-0.7,0.8-1.8,1.1-3.2,1.1H-68.8z M-68.8,31.9v-6.1c0-1.2,0.1-1.9,0.2-2.2c0.1-0.3,0.4-0.6,0.8-0.7c0.4-0.2,1.1-0.3,2-0.3V22
						h-11.1v0.6c1,0,1.7,0.1,2.1,0.3c0.4,0.2,0.6,0.4,0.8,0.7c0.1,0.3,0.2,1,0.2,2.2V40c0,1.2-0.1,1.9-0.2,2.2
						c-0.1,0.3-0.4,0.6-0.8,0.7c-0.4,0.2-1,0.3-2,0.3v0.6h9.5c3.1,0,5.4-0.6,6.8-1.7c1.4-1.1,2-2.5,2-4.2c0-1.4-0.4-2.6-1.3-3.6
						c-0.9-1-2.1-1.7-3.6-2.1C-64.5,32-66.3,31.9-68.8,31.9"/>
				</g>
				<g id="g4455" transform="translate(247.906,373.6359)">
					<path id="path4457" d="M-68.8,42.6l-3.3,7.5l-3.4-7.5H-68.8z M-68.2,41.4H-76l-0.9-2.1c-0.3-0.7-0.5-1.3-0.5-1.8
						c0-0.6,0.2-1.1,0.7-1.4c0.3-0.2,1-0.3,2.1-0.4v-0.6h-7.3v0.6c0.8,0.1,1.4,0.4,1.9,1c0.5,0.5,1.1,1.6,1.9,3.3l7.8,17.5h0.3
						l7.9-17.9c0.8-1.7,1.4-2.8,1.9-3.2c0.4-0.3,0.9-0.5,1.5-0.6v-0.6h-10.6v0.6h0.4c0.8,0,1.4,0.1,1.8,0.4c0.2,0.2,0.4,0.4,0.4,0.7
						c0,0.2,0,0.4-0.1,0.6c0,0.1-0.2,0.5-0.5,1.2L-68.2,41.4z"/>
				</g>
				<g id="g4459" transform="translate(279.4314,373.8942)">
					<path id="path4461" d="M-68.8,42.6l-0.8-7.7H-89v0.6h0.7c0.6,0,1.1,0.1,1.5,0.3c0.3,0.2,0.5,0.4,0.6,0.8c0.1,0.3,0.2,0.9,0.2,2
						v14.4c0,1.1-0.1,1.8-0.2,2.1c-0.1,0.3-0.4,0.5-0.7,0.7c-0.4,0.2-0.8,0.3-1.5,0.3H-89v0.6h11.7v-0.6h-1c-0.6,0-1.1-0.1-1.5-0.3
						c-0.3-0.2-0.5-0.4-0.7-0.8c-0.1-0.3-0.2-0.9-0.2-2V39.1c0-1.1,0.1-1.8,0.2-2.1c0.1-0.3,0.4-0.5,0.8-0.7c0.3-0.1,0.9-0.1,2-0.1
						h1.8c1.2,0,2.1,0.2,2.9,0.6c0.8,0.4,1.4,1.1,2,1.9c0.6,0.9,1.1,2.2,1.6,3.9H-68.8z"/>
				</g>
				<g id="g4463" transform="translate(292.7087,366.8117)">
					<path id="path4465" d="M-68.8,42.6V42h-11.4v0.6h0.7c0.6,0,1.1,0.1,1.5,0.3c0.3,0.2,0.5,0.4,0.6,0.8c0.1,0.3,0.2,0.9,0.2,2
						v14.4c0,1.1-0.1,1.8-0.2,2.1c-0.1,0.3-0.4,0.5-0.7,0.7c-0.4,0.2-0.8,0.3-1.5,0.3h-0.7v0.6h11.4v-0.6h-0.7
						c-0.6,0-1.1-0.1-1.5-0.3c-0.3-0.2-0.5-0.4-0.7-0.8c-0.1-0.3-0.2-0.9-0.2-2V45.8c0-1.1,0.1-1.8,0.2-2.1c0.1-0.3,0.4-0.5,0.7-0.7
						c0.4-0.2,0.8-0.3,1.5-0.3H-68.8z"/>
				</g>
				<g id="g4467" transform="translate(302.2449,386.8498)">
					<path id="path4469" d="M-68.8,42.6V25.5c0-0.9,0-1.5,0.1-1.7c0.1-0.2,0.2-0.4,0.4-0.5c0.3-0.2,0.7-0.2,1.3-0.2
						c1.8,0,3.2,0.6,4.1,1.8c1.3,1.7,1.9,4.2,1.9,7.7c0,2.8-0.4,5-1.3,6.7c-0.7,1.3-1.6,2.2-2.7,2.7C-65.7,42.5-67,42.6-68.8,42.6
						 M-77.1,22v0.6h0.7c0.6,0,1.1,0.1,1.5,0.3c0.3,0.2,0.6,0.5,0.8,0.8c0.1,0.2,0.1,0.9,0.1,2v14.4c0,1.1-0.1,1.8-0.2,2.1
						c-0.1,0.3-0.4,0.5-0.7,0.7c-0.4,0.2-0.8,0.3-1.5,0.3h-0.7v0.6h9.8c2.6,0,4.7-0.4,6.3-1.1c1.9-0.9,3.4-2.2,4.4-4
						c1-1.8,1.5-3.8,1.5-6c0-1.5-0.2-3-0.7-4.3c-0.5-1.3-1.1-2.4-1.9-3.2c-0.8-0.8-1.7-1.5-2.7-2c-1-0.5-2.3-0.9-3.8-1.2
						c-0.7-0.1-1.7-0.2-3.1-0.2H-77.1z"/>
				</g>
				<g id="g4471" transform="translate(330.5281,373.6359)">
					<path id="path4473" d="M-68.8,42.6l-3.3,7.5l-3.4-7.5H-68.8z M-68.2,41.4H-76l-0.9-2.1c-0.3-0.7-0.5-1.3-0.5-1.8
						c0-0.6,0.2-1.1,0.7-1.4c0.3-0.2,1-0.3,2.1-0.4v-0.6h-7.3v0.6c0.8,0.1,1.4,0.4,1.9,1c0.5,0.5,1.1,1.6,1.9,3.3l7.8,17.5h0.3
						l7.9-17.9c0.8-1.7,1.4-2.8,1.9-3.2c0.4-0.3,0.9-0.5,1.5-0.6v-0.6h-10.6v0.6h0.4c0.8,0,1.4,0.1,1.8,0.4c0.2,0.2,0.4,0.4,0.4,0.7
						c0,0.2,0,0.4-0.1,0.6c0,0.1-0.2,0.5-0.5,1.2L-68.2,41.4z"/>
				</g>
				<g id="g4475" transform="translate(349.9695,386.8498)">
					<path id="path4477" d="M-68.8,42.6V25.5c0-0.9,0-1.5,0.1-1.7c0.1-0.2,0.2-0.4,0.4-0.5c0.3-0.2,0.7-0.2,1.3-0.2
						c1.8,0,3.2,0.6,4.1,1.8c1.3,1.7,1.9,4.2,1.9,7.7c0,2.8-0.4,5-1.3,6.7c-0.7,1.3-1.6,2.2-2.7,2.7C-65.7,42.5-67,42.6-68.8,42.6
						 M-77.1,22v0.6h0.7c0.6,0,1.1,0.1,1.5,0.3c0.3,0.2,0.6,0.5,0.8,0.8c0.1,0.2,0.1,0.9,0.1,2v14.4c0,1.1-0.1,1.8-0.2,2.1
						c-0.1,0.3-0.4,0.5-0.7,0.7c-0.4,0.2-0.8,0.3-1.5,0.3h-0.7v0.6h9.8c2.6,0,4.7-0.4,6.3-1.1c1.9-0.9,3.4-2.2,4.4-4
						c1-1.8,1.5-3.8,1.5-6c0-1.5-0.2-3-0.7-4.3c-0.5-1.3-1.1-2.4-1.9-3.2c-0.8-0.8-1.7-1.5-2.7-2c-1-0.5-2.3-0.9-3.8-1.2
						c-0.7-0.1-1.7-0.2-3.1-0.2H-77.1z"/>
				</g>
				<g id="g4479" transform="translate(154.7253,110.7653)">
					<path id="path4481" d="M-68.8,42.6l-5.1-5.7l-0.5,0.4c1,1.8,1.3,3.5,1.1,5.2c-0.3,1.6-1,3-2.2,4.1c-1,0.9-2.2,1.5-3.6,1.6
						c-1.4,0.2-2.7,0-3.9-0.6c-1.6-0.8-3-1.9-4.4-3.4c-1.3-1.5-2.3-3-3-4.5c-0.7-1.5-0.9-3-0.7-4.3c0.2-1.3,1-2.5,2.2-3.7
						c1-0.9,2.2-1.5,3.4-1.9c1.3-0.3,2.8-0.3,4.8-0.1l-1.3-1.4c-1.8-0.1-3.3,0-4.7,0.5c-1.4,0.5-2.7,1.3-4,2.5
						c-1.7,1.6-3,3.3-3.7,5.2c-0.7,1.9-0.9,3.8-0.4,5.8c0.4,2,1.3,3.7,2.6,5.2c1.4,1.6,3.1,2.7,5.2,3.3c2.1,0.7,4.1,0.8,6.2,0.3
						c2.1-0.5,3.9-1.4,5.4-2.8c1.1-1,2.1-2.4,3-4c0.5-0.9,0.8-1.5,1-1.7c0.3-0.2,0.6-0.3,0.9-0.3c0.4,0,0.7,0.2,1.2,0.6L-68.8,42.6z
						"/>
				</g>
				<g id="g4483" transform="translate(158.4275,90.82)">
					<path id="path4485" d="M-68.8,42.6l1.1,8.1l-6.8-4.7L-68.8,42.6z M-68.9,41.3l-6.6,4l-1.9-1.3c-0.6-0.5-1.1-0.9-1.3-1.3
						c-0.3-0.5-0.3-1-0.1-1.5c0.2-0.3,0.7-0.8,1.6-1.4l-0.3-0.5l-6.2,3.8l0.3,0.5c0.7-0.3,1.5-0.4,2.2-0.2c0.7,0.2,1.8,0.8,3.3,1.9
						L-62.2,56l0.3-0.2l-2.5-19.4c-0.2-1.8-0.3-3.1-0.1-3.7c0.1-0.5,0.5-0.9,1-1.3l-0.3-0.5l-9.1,5.5l0.3,0.5l0.4-0.2
						c0.7-0.4,1.3-0.6,1.7-0.6c0.3,0,0.5,0.2,0.7,0.5c0.1,0.2,0.2,0.4,0.2,0.6c0,0.1,0.1,0.5,0.2,1.3L-68.9,41.3z"/>
				</g>
				<g id="g4487" transform="translate(181.5242,94.2213)">
					<path id="path4489" d="M-68.8,42.6l-3.3-9l0.9-0.3c1.4-0.5,2.5-0.8,3.3-0.8c0.8,0,1.5,0.3,2.2,0.8c0.6,0.5,1.2,1.3,1.6,2.4
						c0.6,1.6,0.6,2.9,0.2,3.9c-0.5,1-1.5,1.8-3.1,2.4L-68.8,42.6z M-72.4,32.5l-2.1-5.8c-0.4-1.1-0.6-1.8-0.6-2.2
						c0-0.3,0.2-0.7,0.5-1c0.3-0.3,0.9-0.6,1.8-1l-0.2-0.6l-10.5,3.8l0.2,0.6c1-0.3,1.6-0.5,2-0.4c0.4,0.1,0.7,0.2,1,0.4
						c0.2,0.2,0.6,0.9,1,2l4.8,13.4c0.4,1.1,0.6,1.8,0.6,2.2c0,0.3-0.2,0.7-0.5,1c-0.3,0.3-0.9,0.6-1.8,1l0.2,0.6l9.6-3.5
						c2.5-0.9,4.2-1.7,5.3-2.5c1-0.8,1.7-1.7,2.1-2.9c0.4-1.2,0.4-2.4-0.1-3.7c-0.5-1.5-1.5-2.6-3-3.2c-0.9-0.4-2.1-0.5-3.4-0.4
						l2.4-8.8c0.3-1.1,0.6-1.9,0.8-2.2c0.3-0.5,0.7-0.8,1.3-1l-0.2-0.6l-6.5,2.3L-71.1,32L-72.4,32.5z"/>
				</g>
				<g id="g4491" transform="translate(214.3786,87.1325)">
					<path id="path4493" d="M-68.8,42.6l-1.1-5.8l-0.6,0.1c-0.1,1.4-0.3,2.4-0.6,3.1c-0.3,0.7-0.8,1.2-1.4,1.7
						c-0.4,0.3-1,0.5-2.1,0.7l-1.6,0.3l-3.2-16.6c-0.2-1.1-0.3-1.8-0.2-2.1c0.1-0.3,0.3-0.6,0.6-0.9c0.3-0.3,0.8-0.5,1.4-0.6
						l0.7-0.1l-0.1-0.6L-88.2,24l0.1,0.6l0.7-0.1c0.6-0.1,1.1-0.1,1.6,0c0.3,0.1,0.6,0.3,0.8,0.6c0.2,0.2,0.3,0.9,0.6,2l3.2,16.6
						l-1.6,0.3c-1.4,0.3-2.6,0.2-3.3-0.3c-1.1-0.7-1.9-1.8-2.4-3.3l-0.6,0.1l1.1,5.8L-68.8,42.6z"/>
				</g>
				<g id="g4495" transform="translate(224.7185,72.5221)">
					<path id="path4497" d="M-68.8,42.6l-3.1,7.6l-3.5-7.5L-68.8,42.6z M-68.3,41.4l-7.7,0.2l-1-2.1c-0.3-0.7-0.5-1.3-0.5-1.8
						c0-0.6,0.2-1.1,0.7-1.4c0.3-0.2,1-0.3,2.1-0.4l0-0.6l-7.3,0.1l0,0.6c0.8,0.1,1.4,0.4,2,0.9c0.5,0.5,1.2,1.6,1.9,3.3l8.2,17.3
						l0.3,0l7.5-18.1c0.7-1.7,1.3-2.8,1.8-3.2c0.4-0.3,0.9-0.5,1.5-0.6l0-0.6l-10.6,0.2l0,0.6l0.4,0c0.8,0,1.4,0.1,1.8,0.3
						c0.2,0.2,0.4,0.4,0.4,0.7c0,0.2,0,0.4-0.1,0.6c0,0.1-0.2,0.5-0.5,1.2L-68.3,41.4z"/>
				</g>
				<g id="g4499" transform="translate(256.6208,90.9879)">
					<path id="path4501" d="M-68.8,42.6l1.3-7.6l-0.6-0.1c-1.1,2-2.4,3.3-4,4.2c-1.6,0.8-3.3,1.1-4.9,0.8c-1.6-0.3-2.9-1-3.8-2.1
						c-0.9-1.1-1.5-2.5-1.6-4.2c-0.2-1.7-0.1-3.4,0.2-5.1c0.4-2.1,0.9-3.8,1.7-5.3c0.8-1.5,1.7-2.5,3-3c1.2-0.5,2.6-0.7,4.1-0.4
						c0.5,0.1,1,0.2,1.6,0.4c0.5,0.2,1.1,0.5,1.6,0.8l-0.8,4.5c-0.1,0.8-0.3,1.4-0.5,1.6c-0.2,0.2-0.4,0.4-0.8,0.6
						c-0.4,0.1-0.9,0.2-1.4,0.1l-0.6-0.1l-0.1,0.6L-64,30l0.1-0.6c-0.8-0.2-1.3-0.4-1.6-0.6c-0.3-0.2-0.5-0.5-0.6-0.9
						c-0.1-0.2,0-0.7,0.1-1.5l0.8-4.5c-1.3-0.9-2.6-1.6-4.1-2.1c-1.4-0.6-3-1-4.6-1.3c-2-0.4-3.8-0.4-5.2-0.1
						c-1.4,0.3-2.8,0.8-4,1.6c-1.2,0.7-2.2,1.6-3,2.6c-1,1.3-1.7,2.9-2,4.7c-0.6,3.2,0.1,6.2,2,8.8s4.6,4.2,8,4.8
						c1.1,0.2,2,0.3,2.9,0.2c0.5,0,1.3-0.1,2.4-0.3c1.1-0.2,1.8-0.3,2-0.3c0.3,0.1,0.6,0.2,0.8,0.5c0.2,0.3,0.4,0.7,0.5,1.4
						L-68.8,42.6z"/>
				</g>
				<g id="g4503" transform="translate(267.072,92.7067)">
					<path id="path4505" d="M-68.8,42.6l3.1-8.4l0.4,0.1c1.3,0.5,2.1,1.2,2.4,2.3c0.3,1,0.2,2.4-0.2,4l0.6,0.2l3.9-10.8l-0.6-0.2
						c-0.5,1.1-1.2,2-1.8,2.6c-0.7,0.6-1.3,0.9-1.9,1c-0.6,0.1-1.4-0.1-2.4-0.4l2.1-5.8c0.4-1.1,0.7-1.8,0.9-2
						c0.2-0.2,0.4-0.4,0.8-0.4c0.3-0.1,0.8,0,1.4,0.2l1.2,0.4c1.9,0.7,3.3,1.7,4.1,3c0.8,1.3,1.2,3,1,5l0.6,0.2l1.5-6.9l-17.8-6.5
						l-0.2,0.6l0.7,0.3c0.6,0.2,1,0.5,1.3,0.8c0.2,0.2,0.3,0.6,0.3,0.9c0,0.3-0.2,0.9-0.5,2l-4.9,13.5c-0.3,0.9-0.6,1.5-0.7,1.7
						c-0.2,0.3-0.5,0.5-0.9,0.6c-0.5,0.1-1.1,0.1-1.7-0.2l-0.7-0.2l-0.2,0.6l17.2,6.3l2.2-6.1l-0.6-0.2c-0.8,1.4-1.6,2.3-2.4,2.7
						c-0.8,0.5-1.7,0.7-2.8,0.6c-0.6,0-1.7-0.3-3.3-0.9L-68.8,42.6z"/>
				</g>
				<g id="g4507" transform="translate(284.8523,101.8463)">
					<path id="path4509" d="M-68.8,42.6l16.1-6.3l-4.7,8.1c-0.7,1.1-1.3,1.8-1.8,2c-0.8,0.3-1.7,0.1-2.7-0.5l-0.3,0.5l6.3,3.6
						l0.3-0.5c-0.7-0.6-1.2-1-1.4-1.3c-0.2-0.3-0.2-0.7-0.2-1.2c0.1-0.5,0.3-1.1,0.9-2l9.1-15.8l-0.5-0.3l-21.9,8.4l7-12
						c0.6-1.1,1.3-1.7,2-1.8c0.7-0.1,1.4,0,2,0.4l0.4,0.3l0.3-0.5l-6.7-3.9l-0.3,0.5c1,0.6,1.6,1.2,1.8,1.9c0.2,0.7,0,1.5-0.6,2.5
						l-7.7,13.4l-0.7,0.3c-0.7,0.3-1.2,0.4-1.6,0.4c-0.4,0-0.9-0.2-1.5-0.5l-0.3,0.5L-68.8,42.6z"/>
				</g>
				<g id="g4511" transform="translate(316.6716,106.5387)">
					<path id="path4513" d="M-68.8,42.6l-7.4,3.6l2.4-7.9L-68.8,42.6z M-67.6,42.1l-5.8-5.1l0.7-2.2c0.2-0.7,0.5-1.3,0.8-1.6
						c0.4-0.5,0.9-0.6,1.5-0.5c0.3,0.1,1,0.4,1.9,1.1l0.4-0.5l-5.5-4.8l-0.4,0.5c0.5,0.6,0.8,1.3,0.8,2c0,0.7-0.2,2-0.7,3.7
						L-79.5,53l0.2,0.2l17.7-8.4c1.7-0.8,2.9-1.2,3.5-1.2c0.5,0,1,0.2,1.6,0.6l0.4-0.5l-8-6.9l-0.4,0.5l0.3,0.3c0.6,0.6,1,1,1.1,1.4
						c0.1,0.3,0,0.5-0.2,0.8c-0.1,0.1-0.3,0.3-0.5,0.4c-0.1,0.1-0.5,0.3-1.2,0.6L-67.6,42.1z"/>
				</g>
				<g id="g4515" transform="translate(91.0095,255.6076)">
					<path id="path4517" d="M-68.8,42.6l6.2-4.5l-2.4-7.3l6.2,4.5l6.2-4.5l-2.4,7.3l6.2,4.5h-7.7l-2.4,7.3l-2.4-7.3H-68.8z
						 M-48.9,25.8l-9.8,7.1l-9.8-7.1l3.8,11.5l-9.8,7.1h12.1l3.8,11.5l3.8-11.5h12.1l-9.8-7.1L-48.9,25.8z"/>
				</g>
				<g id="g4519" transform="translate(342.4929,255.6076)">
					<path id="path4521" d="M-68.8,42.6l6.2-4.5l-2.4-7.3l6.2,4.5l6.2-4.5l-2.4,7.3l6.2,4.5h-7.7l-2.4,7.3l-2.4-7.3H-68.8z
						 M-48.9,25.8l-9.8,7.1l-9.8-7.1l3.8,11.5l-9.8,7.1h12.1l3.8,11.5l3.8-11.5h12.1l-9.8-7.1L-48.9,25.8z"/>
				</g>
			</g>
		</g>
	</g>
</g>
</svg>
