<?xml version="1.0" encoding="UTF-8" standalone="no"?>
<!-- Created with Inkscape (http://www.inkscape.org/) -->

<svg
   xmlns:dc="http://purl.org/dc/elements/1.1/"
   xmlns:cc="http://creativecommons.org/ns#"
   xmlns:rdf="http://www.w3.org/1999/02/22-rdf-syntax-ns#"
   xmlns:svg="http://www.w3.org/2000/svg"
   xmlns="http://www.w3.org/2000/svg"
   xmlns:sodipodi="http://sodipodi.sourceforge.net/DTD/sodipodi-0.dtd"
   xmlns:inkscape="http://www.inkscape.org/namespaces/inkscape"
   width="447"
   height="780"
   id="svg2"
   version="1.0"
   inkscape:version="0.48.4 r9939"
   sodipodi:docname="Coat_of_arms_of_Pichilemu.svg"
   sodipodi:version="0.32"
   inkscape:output_extension="org.inkscape.output.svg.inkscape"
   inkscape:export-filename="C:\Documentos de Diego\Dibujos\Coat_of_arms_of_Pichilemu_.png"
   inkscape:export-xdpi="100.67114"
   inkscape:export-ydpi="100.67114">
  <defs
     id="defs4">
    <inkscape:perspective
       sodipodi:type="inkscape:persp3d"
       inkscape:vp_x="0 : 526.18109 : 1"
       inkscape:vp_y="0 : 1000 : 0"
       inkscape:vp_z="744.09448 : 526.18109 : 1"
       inkscape:persp3d-origin="372.04724 : 350.78739 : 1"
       id="perspective10" />
    <inkscape:perspective
       id="perspective2824"
       inkscape:persp3d-origin="0.5 : 0.33333333 : 1"
       inkscape:vp_z="1 : 0.5 : 1"
       inkscape:vp_y="0 : 1000 : 0"
       inkscape:vp_x="0 : 0.5 : 1"
       sodipodi:type="inkscape:persp3d" />
    <inkscape:perspective
       id="perspective3764"
       inkscape:persp3d-origin="0.5 : 0.33333333 : 1"
       inkscape:vp_z="1 : 0.5 : 1"
       inkscape:vp_y="0 : 1000 : 0"
       inkscape:vp_x="0 : 0.5 : 1"
       sodipodi:type="inkscape:persp3d" />
    <inkscape:perspective
       id="perspective3786"
       inkscape:persp3d-origin="0.5 : 0.33333333 : 1"
       inkscape:vp_z="1 : 0.5 : 1"
       inkscape:vp_y="0 : 1000 : 0"
       inkscape:vp_x="0 : 0.5 : 1"
       sodipodi:type="inkscape:persp3d" />
    <inkscape:perspective
       id="perspective3809"
       inkscape:persp3d-origin="0.5 : 0.33333333 : 1"
       inkscape:vp_z="1 : 0.5 : 1"
       inkscape:vp_y="0 : 1000 : 0"
       inkscape:vp_x="0 : 0.5 : 1"
       sodipodi:type="inkscape:persp3d" />
    <inkscape:perspective
       id="perspective3831"
       inkscape:persp3d-origin="0.5 : 0.33333333 : 1"
       inkscape:vp_z="1 : 0.5 : 1"
       inkscape:vp_y="0 : 1000 : 0"
       inkscape:vp_x="0 : 0.5 : 1"
       sodipodi:type="inkscape:persp3d" />
    <inkscape:perspective
       id="perspective3859"
       inkscape:persp3d-origin="0.5 : 0.33333333 : 1"
       inkscape:vp_z="1 : 0.5 : 1"
       inkscape:vp_y="0 : 1000 : 0"
       inkscape:vp_x="0 : 0.5 : 1"
       sodipodi:type="inkscape:persp3d" />
    <inkscape:perspective
       id="perspective3881"
       inkscape:persp3d-origin="0.5 : 0.33333333 : 1"
       inkscape:vp_z="1 : 0.5 : 1"
       inkscape:vp_y="0 : 1000 : 0"
       inkscape:vp_x="0 : 0.5 : 1"
       sodipodi:type="inkscape:persp3d" />
    <inkscape:perspective
       id="perspective3903"
       inkscape:persp3d-origin="0.5 : 0.33333333 : 1"
       inkscape:vp_z="1 : 0.5 : 1"
       inkscape:vp_y="0 : 1000 : 0"
       inkscape:vp_x="0 : 0.5 : 1"
       sodipodi:type="inkscape:persp3d" />
    <inkscape:perspective
       id="perspective3973"
       inkscape:persp3d-origin="0.5 : 0.33333333 : 1"
       inkscape:vp_z="1 : 0.5 : 1"
       inkscape:vp_y="0 : 1000 : 0"
       inkscape:vp_x="0 : 0.5 : 1"
       sodipodi:type="inkscape:persp3d" />
  </defs>
  <sodipodi:namedview
     id="base"
     pagecolor="#ffffff"
     bordercolor="#666666"
     borderopacity="1.0"
     inkscape:pageopacity="0.0"
     inkscape:pageshadow="2"
     inkscape:zoom="1.046"
     inkscape:cx="254.55201"
     inkscape:cy="257.94493"
     inkscape:document-units="px"
     inkscape:current-layer="g4026"
     showgrid="false"
     inkscape:window-width="1366"
     inkscape:window-height="705"
     inkscape:window-x="-8"
     inkscape:window-y="-8"
     inkscape:window-maximized="1"
     showguides="true"
     inkscape:guide-bbox="true" />
  <metadata
     id="metadata7">
    <rdf:RDF>
      <cc:Work
         rdf:about="">
        <dc:format>image/svg+xml</dc:format>
        <dc:type
           rdf:resource="http://purl.org/dc/dcmitype/StillImage" />
        <dc:title />
      </cc:Work>
    </rdf:RDF>
  </metadata>
  <g
     inkscape:label="Capa 1"
     inkscape:groupmode="layer"
     id="layer1"
     transform="translate(-711.72475,-50.5447)">
    <g
       id="g4026"
       transform="translate(1384.2641,507.23861)">
      <path
         style="fill:#ffffff;fill-opacity:1;fill-rule:evenodd;stroke:none;stroke-width:1px;stroke-linecap:butt;stroke-linejoin:miter;stroke-opacity:1"
         d="M -456.21605,-439.23354 L -504.8888,-375.68857 L -508.94486,-363.52038 L -483.25647,-314.84764 L -408.89533,-324.31179 L -392.67109,-364.8724 L -444.04787,-450.0497 L -456.21605,-439.23354 z"
         id="path6450" />
      <path
         style="fill:#ffffff;fill-opacity:1;fill-rule:evenodd;stroke:none;stroke-width:1px;stroke-linecap:butt;stroke-linejoin:miter;stroke-opacity:1"
         d="M -663.32208,-250.92872 L -661.97008,253.37497 L -652.50588,276.35932 L -634.92968,291.23154 L -469.98308,291.23154 L -451.05478,316.91994 L -429.42248,291.23154 L -272.5881,289.87952 L -245.54769,280.41538 L -236.08354,262.83911 L -234.73152,-249.5767 L -663.32208,-250.92872 z"
         id="path6010" />
      <path
         id="path3849-8"
         d="M -618.94528,-28.110218 L -444.34818,-28.789748 L -445.35748,214.14038 L -618.69298,218.21753 L -618.94528,-28.110218 L -618.94528,-28.110218 z"
         style="fill:#82cae2;fill-opacity:1;stroke:#ff0000;stroke-width:1.15938067px;stroke-linecap:butt;stroke-linejoin:miter;marker:none;stroke-miterlimit:4;stroke-dasharray:none;stroke-dashoffset:0;stroke-opacity:1;visibility:visible;display:inline;overflow:visible;enable-background:accumulate" />
      <path
         id="path3849"
         d="M -450.18768,-169.32405 L -275.59068,-170.00358 L -276.59998,72.926552 L -449.93538,77.003702 L -450.18768,-169.32405 z"
         style="fill:#82cae2;fill-opacity:1;stroke:#ff0000;stroke-width:1.15938067px;stroke-linecap:butt;stroke-linejoin:miter;marker:none;stroke-miterlimit:4;stroke-dasharray:none;stroke-dashoffset:0;stroke-opacity:1;visibility:visible;display:inline;overflow:visible;enable-background:accumulate" />
      <path
         sodipodi:nodetypes="cscccsscccccssssssccssscccccccsscccsscccccsscccccccscccssccccccccscccssccccssssssssssssssssssssssssssscccssssssssssscccsssssssssssssssscccsscccccccssssscccscccsssssccccccccccccccccccccssscccssscccssscccsccsccccccccccccscccccscccsssssscccccssccccccccccccsccccccccsssssssssssssssscccsssssssscccccccccccsssscccccccccccccccccscccccccscccsssscccccccccssscccccssssssscccccsscccssssscccssssssscccccccscccssssssssscccssccccccccccssssssscccsscccssccccccscccsssssccccsscccssssssssssssssssscccscccssssssssssssssscccssssssssssssssscccssssssssssssssssssssssssssscccssssscccssssssssccccssssscccccsssccccccssssssssssscccsssscccssssssscccsssssssssscccscsscccccccssccccc"
         style="fill:#766a76;fill-opacity:1"
         d="M -454.70408,317.52806 C -455.79938,311.67882 -457.82568,307.57915 -461.79008,303.19105 C -468.98428,295.2279 -461.95408,295.83719 -553.09248,295.27806 L -634.59248,294.77806 L -641.09248,291.56223 C -644.66748,289.79352 -649.27538,286.95202 -651.33238,285.24777 C -655.66708,281.65632 -661.05058,272.9231 -663.70438,265.17765 C -665.48278,259.9875 -665.56548,249.83846 -665.83488,3.5280615 L -666.11528,-252.72193 L -448.10378,-252.72193 L -230.09258,-252.72193 L -230.09258,1.6415715 C -230.09258,167.2261 -230.44217,257.8851 -231.09408,261.39157 C -233.36708,273.61605 -241.44617,284.34276 -253.19757,290.73868 C -263.10917,296.13325 -264.99077,296.24185 -348.87467,296.2607 C -411.55538,296.2748 -426.76468,296.53369 -429.37458,297.63105 C -434.09748,299.61683 -441.68798,308.65591 -444.30918,315.41578 C -446.51458,321.10351 -446.69278,321.27806 -450.29208,321.27806 C -453.78738,321.27806 -454.04238,321.0613 -454.70408,317.52806 L -454.70408,317.52806 z M -446.27488,303.41002 C -443.23378,298.71681 -436.94928,292.83575 -432.40818,290.43353 C -430.81008,289.58814 -409.31078,289.27806 -352.29477,289.27806 C -304.30787,289.27806 -272.29598,288.89181 -268.97907,288.27278 C -255.94507,285.84025 -244.50768,276.9455 -239.98908,265.72748 L -237.59258,259.77806 L -237.59258,7.2780615 L -237.59258,-245.22193 L -448.09248,-245.22193 L -658.59248,-245.22193 L -658.59248,3.7780615 C -658.59248,208.99062 -658.35478,253.95418 -657.24088,259.46616 C -654.77958,271.646 -645.35148,282.72691 -634.26978,286.46444 C -631.51988,287.3919 -610.29108,287.84003 -550.09248,288.24137 L -469.59248,288.77806 L -464.82208,291.14777 C -459.62718,293.72834 -452.42328,301.15454 -450.87218,305.52806 C -450.33568,307.04056 -449.79158,308.27806 -449.66308,308.27806 C -449.53448,308.27806 -448.00978,306.08744 -446.27488,303.41002 z M -453.54648,257.52806 C -454.68938,252.40051 -459.88128,245.43073 -464.32658,243.05647 L -468.59248,240.77806 L -532.47158,240.56149 C -603.06528,240.32216 -602.93118,240.33336 -611.26458,233.97727 C -616.44288,230.02765 -619.33448,225.91976 -622.05528,218.64777 C -624.07908,213.23868 -624.09248,211.9332 -624.09248,19.240552 L -624.09248,-174.72194 L -448.58008,-174.72194 L -273.06787,-174.72194 L -273.33028,20.528062 L -273.59258,215.77806 L -275.87257,220.72301 C -280.36777,230.4723 -285.20348,234.91447 -295.59258,238.83816 C -300.27677,240.60725 -304.78457,240.7469 -366.95937,241.049 L -433.32598,241.37147 L -437.21568,244.49736 C -441.45448,247.90371 -447.09248,255.9629 -447.09248,258.61561 C -447.09248,259.78606 -447.95678,260.27806 -450.01298,260.27806 C -452.38378,260.27806 -453.04898,259.7604 -453.54648,257.52806 L -453.54648,257.52806 z M -452.34548,211.19494 L -452.77968,175.6319 L -453.09248,35.278062 L -535.59248,35.278062 L -618.09248,35.278062 L -618.09248,87.190222 L -618.50798,178.27806 C -619.15778,211.28971 -618.65978,215.60212 -613.21938,224.08024 C -611.04898,227.46258 -608.40798,229.92095 -604.82278,231.89631 L -599.59248,234.77806 L -533.09248,235.27806 C -472.14668,235.7363 -466.27738,235.92615 -462.81938,237.55111 C -460.74428,238.52629 -458.12858,240.24191 -457.00688,241.36361 C -452.79948,245.57106 -452.60588,244.31819 -452.34548,211.19494 z M -353.86838,195.33922 L -353.59258,178.94868 L -344.19027,193.12771 C -339.01898,200.92617 -334.60538,207.12421 -334.38227,206.90112 C -334.15918,206.67803 -336.53127,199.90009 -339.65357,191.83904 C -342.77578,183.77798 -345.12318,176.97537 -344.86998,176.72214 C -344.61677,176.4689 -339.50078,179.56772 -333.50107,183.60841 C -327.50137,187.6491 -321.24257,191.8099 -319.59258,192.85464 C -317.94258,193.89938 -321.86048,189.1525 -328.29907,182.306 C -334.73767,175.45951 -339.83738,169.68957 -339.63178,169.48392 C -339.31217,169.16433 -315.47318,173.47748 -309.59258,174.91886 C -305.16737,176.00351 -310.92298,173.18719 -323.34258,168.19072 C -330.35508,165.36956 -336.09258,162.70888 -336.09258,162.2781 C -336.09258,161.84733 -335.08007,161.26271 -333.84258,160.97895 C -314.01667,156.4329 -304.09258,153.81264 -304.09258,153.12403 C -304.09258,152.65874 -311.49097,152.27806 -320.53357,152.27806 C -329.57608,152.27806 -337.18087,151.94056 -337.43308,151.52806 C -337.68527,151.11556 -332.50987,147.17806 -325.93208,142.77806 C -319.35438,138.37806 -313.49507,134.2163 -312.91147,133.5297 C -311.66367,132.0617 -314.36188,132.9588 -329.86267,139.16567 C -335.51118,141.42749 -340.34867,143.27806 -340.61267,143.27806 C -342.16088,143.27806 -340.29227,139.5944 -334.01817,130.27806 C -323.63528,114.86076 -323.75428,114.71103 -336.47508,127.18709 C -342.87308,133.46206 -348.31117,138.39275 -348.55978,138.1442 C -348.80838,137.89564 -347.67118,130.53758 -346.03287,121.79295 C -344.39448,113.04833 -343.17517,105.53628 -343.32327,105.09952 C -343.47137,104.66276 -346.46218,111.04925 -349.96957,119.29173 C -353.47688,127.53421 -356.64907,134.27806 -357.01878,134.27806 C -357.38848,134.27806 -359.24388,126.74056 -361.14177,117.52806 C -363.03967,108.31556 -364.71818,101.67806 -364.87167,102.77806 C -365.02517,103.87806 -365.47518,111.93518 -365.87167,120.68277 L -366.59258,136.58748 L -375.51247,122.936 C -380.41828,115.42769 -384.60708,109.45931 -384.82068,109.67292 C -385.03428,109.88653 -382.93278,116.02817 -380.15078,123.32101 C -377.36878,130.61385 -375.09258,136.96262 -375.09258,137.42939 C -375.09258,139.31802 -378.06288,137.96017 -387.59248,131.71513 C -393.09248,128.11084 -398.48488,124.66607 -399.57548,124.06007 C -400.66618,123.45407 -396.68768,128.2392 -390.73438,134.69368 C -384.78108,141.14817 -380.07838,146.59733 -380.28398,146.80293 C -380.48958,147.00852 -386.04308,146.11585 -392.62518,144.81922 C -408.11648,141.76748 -412.09248,141.10285 -412.09248,141.56504 C -412.09248,141.77272 -405.56748,144.77821 -397.59248,148.2439 C -389.61748,151.7096 -383.09248,154.83542 -383.09248,155.19018 C -383.09248,155.54493 -390.85498,157.39733 -400.34248,159.30662 L -417.59248,162.77806 L -410.09248,163.39736 C -405.96748,163.73797 -397.95338,164.07547 -392.28348,164.14736 C -386.61348,164.21926 -382.20448,164.65028 -382.48568,165.10522 C -382.76678,165.56016 -388.53088,169.6791 -395.29468,174.25841 C -402.05848,178.83773 -408.01208,182.95765 -408.52498,183.4138 C -410.09028,184.80586 -404.21838,182.81245 -390.72418,177.37069 C -383.64658,174.51656 -377.69818,172.33917 -377.50528,172.53205 C -377.31238,172.72493 -380.99868,178.63855 -385.69708,185.67341 C -390.39558,192.70827 -394.08048,198.62339 -393.88578,198.81811 C -393.69098,199.01284 -388.70848,194.39539 -382.81338,188.55713 C -376.91848,182.71887 -371.81758,178.21969 -371.47838,178.55897 C -370.98717,179.05015 -373.63657,194.63448 -376.65828,209.02806 C -376.91808,210.26556 -376.94748,211.27806 -376.72328,211.27806 C -376.49937,211.27806 -373.23788,204.331 -369.47557,195.84014 C -365.71318,187.34928 -362.55767,180.48678 -362.46337,180.59014 C -362.36937,180.6935 -360.80267,188.08619 -358.98237,197.01836 C -357.16217,205.95052 -355.32887,212.91465 -354.90848,212.49421 C -354.48807,212.07377 -354.01988,204.35402 -353.86818,195.33922 L -353.86838,195.33922 L -353.86838,195.33922 z M -314.53527,64.711132 C -305.74068,59.372472 -299.32288,56.330872 -296.78768,56.300022 C -295.79497,56.287922 -292.41997,58.009702 -289.28768,60.126162 C -286.15537,62.242612 -282.58007,64.508442 -281.34258,65.161342 L -279.09258,66.348432 L -279.09258,50.813242 L -279.09258,35.278062 L -352.84258,35.292962 L -426.59248,35.307862 L -422.59248,38.770842 C -414.82568,45.494862 -399.09048,54.034042 -389.31578,56.829372 C -380.83218,59.255492 -378.99418,59.434962 -367.81588,58.928592 C -361.09308,58.624052 -353.97397,58.086922 -351.99558,57.734962 C -348.86308,57.177652 -347.44948,57.703462 -341.04628,61.807762 C -334.10268,66.258502 -327.79878,68.956932 -323.82557,69.179242 C -322.85368,69.233642 -318.67307,67.222992 -314.53527,64.711182 L -314.53527,64.711132 L -314.53527,64.711132 z M -562.07368,11.901262 C -562.57278,11.399612 -564.32928,12.514822 -566.29808,13.731622 C -570.93448,16.597052 -572.50688,15.841112 -575.45178,12.078192 L -577.95608,8.8783115 L -579.77428,12.071862 C -582.01868,16.014022 -585.36818,16.313062 -587.68438,12.778062 C -588.58538,11.403062 -589.93538,10.278062 -590.68438,10.278062 C -591.43348,10.278062 -592.78348,11.403062 -593.68438,12.778062 C -595.53208,15.597962 -597.68338,15.902072 -600.53358,13.746262 C -603.29248,11.659542 -605.61448,11.926082 -607.34438,14.528062 C -608.46718,16.216762 -609.80678,16.778062 -612.71428,16.778062 L -617.34588,16.714962 L -616.09378,30.334652 L -614.37888,31.458162 C -585.90848,24.440692 -562.18078,41.834612 -562.07368,11.901262 L -562.07368,11.901262 z M -279.93417,31.018162 L -279.09258,3.1874315 L -279.09258,-84.376928 L -279.09258,-168.72194 L -363.59258,-168.72194 L -448.09248,-168.72194 L -448.09248,-85.082178 L -448.09248,1.4014615 L -448.09248,16.279402 L -448.09248,31.157332 L -444.34248,31.467692 C -440.07108,31.821212 -280.94317,31.386092 -279.93417,31.018162 z M -395.10728,5.4125915 C -397.25298,4.2641015 -399.79608,3.7245315 -401.72408,4.0087115 C -403.44638,4.2625815 -405.16048,3.9770115 -405.53308,3.3741815 C -416.03098,10.402482 -412.68408,3.7396815 -403.19958,3.1307215 C -402.64478,2.9367815 -404.53128,0.82591151 -407.39168,-1.5600885 C -410.25208,-3.9460985 -414.96908,-8.1689985 -417.87388,-10.944318 C -420.77868,-13.719638 -424.74548,-17.254088 -426.68908,-18.798648 C -428.63258,-20.343208 -432.01198,-23.223328 -434.19868,-25.198918 L -438.17458,-28.790888 L -432.28378,-38.506388 C -413.54518,-69.411438 -395.60068,-105.80596 -387.06318,-130.22192 C -383.91378,-139.22866 -379.09258,-157.1965 -379.09258,-159.92677 C -379.09258,-160.9141 -377.84938,-161.21687 -377.02438,-161.21687 C -375.70348,-161.21687 -376.09258,-152.12781 -376.09258,-81.374748 L -376.09258,-1.0275685 L -373.84258,0.098671513 C -371.67288,1.1846915 -371.68627,1.2052515 -374.21787,0.67437151 C -376.44008,0.20837151 -376.99988,0.57326151 -377.86348,3.0507215 C -378.74328,5.5746115 -379.53688,6.0671215 -383.62768,6.6278315 C -390.45698,7.5638915 -391.24368,7.4806115 -395.10728,5.4125915 L -395.10728,5.4125915 z M -381.45288,4.2780615 C -380.39208,4.2780615 -385.09248,1.2516715 -385.09248,-6.9362285 C -385.09248,-15.721998 -380.38568,-17.007648 -381.88828,-18.471938 L -421.13548,-50.195338 C -421.24698,-48.069418 -429.09998,-27.126828 -432.48208,-28.856678 C -433.05018,-29.147228 -428.44248,-25.408588 -424.59248,-22.104318 C -420.74248,-18.800048 -411.78498,-11.235688 -404.68698,-5.2946285 L -391.78148,5.5072915 L -387.29738,4.8926715 C -384.83118,4.5546415 -382.20108,4.2780615 -381.45288,4.2780615 L -381.45288,4.2780615 z M -380.09248,-32.503238 L -380.09248,-42.284548 L -385.84248,-47.798148 C -389.00498,-50.830628 -395.71538,-57.006348 -400.75448,-61.521958 L -409.91658,-69.732168 L -414.49688,-61.477048 L -419.07708,-53.221938 L -414.49858,-49.221938 C -407.78788,-43.359198 -381.71808,-22.893998 -380.84248,-22.801318 C -380.42998,-22.757618 -380.09248,-27.123528 -380.09248,-32.503238 L -380.09248,-32.503238 z M -380.09248,-73.046968 C -380.09248,-96.117528 -380.19628,-97.471278 -382.10488,-99.296958 C -388.97538,-99.499318 -391.08648,-109.54841 -395.57948,-99.721928 C -396.60618,-97.246938 -398.22008,-93.421938 -399.16578,-91.221938 C -404.26308,-79.364368 -406.09248,-74.636468 -406.09248,-73.320398 C -384.50368,-61.784648 -380.24548,-32.781578 -380.09248,-73.046968 L -380.09248,-73.046968 z M -335.09258,4.1196115 C -337.01757,3.0672615 -339.60508,2.3850015 -340.84258,2.6034815 C -342.08007,2.8219615 -343.09258,2.6361815 -343.09258,2.1907315 C -343.09258,1.7452315 -348.71758,-3.6509885 -355.59258,-9.8008785 C -362.46758,-15.950768 -368.09258,-21.542308 -368.09258,-22.226518 C -368.09258,-22.910738 -366.48917,-25.214618 -364.52957,-27.346248 C -361.20917,-30.957978 -351.82178,-48.448298 -347.68947,-58.721938 C -337.10428,-85.038998 -321.89788,-128.84941 -316.01708,-149.97193 C -313.03928,-160.66769 -312.53697,-161.72193 -310.41917,-161.72193 L -308.09258,-161.72193 L -308.09258,-79.390918 L -308.09258,2.9401015 L -310.64417,4.3056615 C -312.82747,5.4741315 -313.80167,5.4487615 -317.39417,4.1299015 C -321.29258,2.6987015 -321.80687,2.7200015 -324.59258,4.4280615 C -328.25717,6.6750515 -330.54077,6.6079715 -335.09258,4.1196115 z M -314.05347,-45.221938 L -336.93578,-68.032968 C -339.90648,-56.466208 -343.84727,-45.546238 -351.07358,-36.816558 L -315.59258,-8.1419085 L -314.05347,-45.221938 L -314.05347,-45.221938 z M -314.09248,-67.191468 L -314.28187,-82.282178 L -329.67507,-92.575798 C -330.05777,-92.108968 -331.94977,-87.226278 -333.49367,-82.342698 L -336.30068,-73.463468 L -325.46367,-62.592698 C -319.50328,-56.613778 -314.50637,-51.721938 -314.35948,-51.721938 C -314.21267,-51.721938 -314.09248,-58.683228 -314.09248,-67.191468 z M -315.26577,-113.16836 C -315.28877,-134.89578 -313.32858,-139.71204 -314.20997,-138.19196 L -327.61048,-95.293368 C -324.20548,-92.625818 -317.62988,-89.856838 -314.27888,-85.945148 L -315.26577,-113.16836 z M -608.09248,11.278062 C -605.75728,8.9428915 -602.26958,8.6968215 -599.56258,10.676252 C -597.89538,11.895332 -597.45458,11.851392 -596.12148,10.333222 C -595.28048,9.3755615 -593.55118,8.0401515 -592.27858,7.3656415 C -589.85168,6.0794115 -588.22158,6.7381015 -585.34418,10.167732 C -584.26058,11.459382 -583.72588,11.301032 -581.28948,8.9668115 C -577.71988,5.5469115 -576.71848,5.5902215 -574.09248,9.2780615 C -571.56718,12.824552 -571.11538,12.899842 -568.09248,10.278062 C -566.82418,9.1780615 -564.73028,8.2780615 -563.43948,8.2780615 C -561.15068,8.2780615 -561.09248,8.0549315 -561.09248,-0.72193849 C -561.09248,-5.6719385 -561.42998,-9.7170685 -561.84248,-9.7111185 C -562.25498,-9.7051185 -564.65628,-9.0738785 -567.17858,-8.3082585 C -580.18338,-4.3609385 -591.28538,-5.6580485 -592.69888,-11.289938 C -593.29658,-13.671358 -592.69888,-14.582928 -587.64158,-19.020118 C -580.87808,-24.952838 -568.85308,-39.525578 -569.65308,-40.819958 C -569.95968,-41.316048 -573.02728,-41.721938 -576.46998,-41.721938 C -583.42678,-41.721938 -592.17378,-43.946138 -594.54598,-46.318298 C -597.33488,-49.107228 -596.30348,-51.756688 -590.35488,-57.083778 C -587.19928,-59.909768 -581.91178,-64.800938 -578.60488,-67.953038 L -572.59248,-73.684138 L -575.77738,-73.703038 C -589.53668,-73.784638 -588.79498,-83.764198 -574.08648,-96.453598 C -569.77158,-100.17618 -566.20778,-103.51541 -566.16688,-103.8741 C -566.12588,-104.2328 -567.55498,-105.0356 -569.34248,-105.65811 C -571.12998,-106.28061 -574.27998,-107.90602 -576.34248,-109.27012 C -579.27518,-111.20978 -580.09248,-112.3966 -580.09248,-114.71579 C -580.09248,-117.14702 -579.40218,-118.03344 -576.26098,-119.63597 C -571.20948,-122.21303 -562.58128,-131.6372 -557.36108,-140.27929 C -553.19448,-147.17705 -545.69748,-167.27388 -546.69118,-168.8816 C -546.97678,-169.34379 -563.13858,-169.72194 -582.60618,-169.72194 L -618.00188,-169.72194 L -618.58158,-166.47194 C -618.90048,-164.68443 -619.03338,-124.08519 -618.87698,-76.251418 L -618.59248,10.719112 L -616.09248,11.983842 C -612.55748,13.772192 -610.39588,13.581492 -608.09248,11.278062 L -608.09248,11.278062 z M -625.53928,-190.47194 C -623.52998,-194.32387 -623.49088,-221.65818 -625.48928,-225.5216 L -626.88608,-228.22194 L -616.73928,-228.00951 C -611.15858,-227.89266 -605.16228,-227.78016 -603.41398,-227.75951 C -601.66578,-227.73881 -599.52828,-227.01479 -598.66398,-226.1505 C -596.19488,-223.68133 -596.67578,-218.04785 -599.60588,-215.11771 C -601.77628,-212.94733 -610.85958,-208.19919 -616.34258,-206.36888 C -617.76248,-205.8949 -618.09148,-204.59981 -618.08648,-199.50332 C -618.08648,-196.00396 -617.44488,-192.00396 -616.64578,-190.47194 L -615.21118,-187.72194 L -621.09258,-187.72194 L -626.97398,-187.72194 L -625.53948,-190.47194 L -625.53928,-190.47194 L -625.53928,-190.47194 z M -608.43938,-213.27089 C -602.04018,-218.15184 -601.95758,-222.43346 -608.22058,-224.61676 C -615.76068,-227.24522 -618.09248,-225.2159 -618.09248,-216.02551 L -618.09248,-209.47194 L -614.92598,-210.10524 C -613.18438,-210.45355 -610.26548,-211.87809 -608.43938,-213.27089 L -608.43938,-213.27089 z M -585.64918,-189.94445 C -583.56028,-192.92671 -583.39768,-220.12659 -585.43958,-225.00405 L -586.78668,-228.22194 L -580.94488,-227.88338 C -575.20328,-227.55064 -575.12868,-227.50825 -576.59778,-225.41087 C -578.81318,-222.24797 -578.76228,-193.12318 -576.53578,-189.94445 L -574.97908,-187.72194 L -581.09248,-187.72194 L -587.20588,-187.72194 L -585.64918,-189.94445 L -585.64918,-189.94445 z M -550.07448,-189.79889 C -555.65838,-192.33172 -557.81208,-194.25561 -560.11538,-198.76845 C -565.97368,-210.24652 -561.62628,-223.96759 -551.28998,-226.62303 C -549.25638,-227.14547 -543.90558,-227.72112 -539.39948,-227.90225 L -531.20638,-228.23158 L -530.10438,-223.85513 C -529.49828,-221.44807 -529.24768,-219.2334 -529.54748,-218.93363 C -529.84718,-218.63387 -530.09248,-218.90443 -530.09248,-219.53495 C -530.09248,-221.46609 -537.76278,-224.72216 -542.30258,-224.71819 C -555.49858,-224.70669 -560.99728,-207.98036 -551.46578,-196.84492 C -544.85108,-189.11721 -535.40288,-187.87643 -528.60728,-193.84303 L -525.16498,-196.86547 L -526.72268,-192.29371 L -528.28048,-187.72194 L -536.93648,-187.74394 C -543.46768,-187.76053 -546.69268,-188.26493 -550.07448,-189.79892 L -550.07448,-189.79889 L -550.07448,-189.79889 z M -511.06768,-190.28703 C -510.53128,-191.69783 -510.09248,-199.69772 -510.09248,-208.06453 C -510.09248,-220.21447 -510.40588,-223.72435 -511.64918,-225.49943 C -513.20158,-227.71586 -513.19078,-227.72194 -507.67388,-227.72194 C -502.14898,-227.72194 -502.14318,-227.71894 -503.11718,-225.15684 C -503.65358,-223.74603 -504.09248,-221.27104 -504.09248,-219.65684 L -504.09248,-216.72194 L -495.09248,-216.72194 L -486.09248,-216.72194 L -486.09248,-219.65684 C -486.09248,-221.27104 -486.53128,-223.74603 -487.06768,-225.15684 C -488.03528,-227.70175 -488.00298,-227.72194 -482.96068,-227.72194 C -478.46068,-227.72194 -477.97668,-227.52146 -478.73548,-225.97194 C -479.20678,-225.00943 -479.59248,-216.79694 -479.59248,-207.72194 C -479.59248,-198.64694 -479.20678,-190.43443 -478.73548,-189.47194 C -477.97668,-187.92241 -478.46068,-187.72194 -482.96068,-187.72194 C -488.00298,-187.72194 -488.03528,-187.74214 -487.06768,-190.28703 C -486.53128,-191.69783 -486.09248,-197.54784 -486.09248,-203.28704 L -486.09248,-213.72194 L -495.09248,-213.72194 L -504.09248,-213.72194 L -504.09248,-202.94445 C -504.09248,-194.80844 -503.71088,-191.62223 -502.53578,-189.94445 C -500.98328,-187.728 -500.99418,-187.72194 -506.51098,-187.72194 C -512.03598,-187.72194 -512.04178,-187.72494 -511.06768,-190.28703 z M -462.84248,-188.80204 C -461.27978,-189.71219 -461.09248,-191.72154 -461.09248,-207.57163 C -461.09248,-220.04409 -461.44928,-225.67874 -462.29248,-226.52194 C -463.22578,-227.45527 -462.18138,-227.72194 -457.59248,-227.72194 C -453.00358,-227.72194 -451.95918,-227.45527 -452.89248,-226.52194 C -454.42738,-224.98707 -454.57268,-192.48765 -453.05728,-189.6562 C -452.08418,-187.83796 -452.39908,-187.72376 -458.30728,-187.75234 C -463.06478,-187.77535 -464.16708,-188.0305 -462.84248,-188.80204 z M -436.58608,-190.0914 C -435.26418,-192.10885 -435.04668,-195.20044 -435.30008,-208.37072 C -435.46778,-217.0889 -435.98788,-225.00943 -436.45568,-225.97194 C -437.20928,-227.52201 -436.71898,-227.72194 -432.16428,-227.72194 C -427.39028,-227.72194 -427.09618,-227.58346 -428.05728,-225.78767 C -428.64238,-224.69436 -429.09248,-217.15335 -429.09248,-208.44266 C -429.09248,-194.62281 -428.89818,-192.85604 -427.21008,-191.32836 C -423.75428,-188.20094 -414.53038,-191.75432 -410.05028,-197.93894 C -408.42348,-200.18462 -407.09998,-201.842 -407.10908,-201.62197 C -407.11908,-201.40196 -408.19258,-198.29694 -409.49658,-194.72194 L -411.86738,-188.22194 L -425.02218,-187.94262 L -438.17698,-187.66329 L -436.58608,-190.0914 L -436.58608,-190.0914 z M -396.53928,-190.47194 C -395.47718,-192.50815 -395.10318,-197.1802 -395.09858,-208.47194 C -395.08858,-222.39325 -395.26668,-223.89619 -397.09248,-225.72194 C -399.09248,-227.72194 -399.09248,-227.72194 -384.70378,-227.72194 L -370.31518,-227.72194 L -369.64528,-224.15093 C -369.27677,-222.18687 -368.69027,-219.82437 -368.34187,-218.90093 C -367.99347,-217.97748 -369.13137,-218.63632 -370.87048,-220.365 C -374.27918,-223.75325 -382.44518,-226.37953 -386.03208,-225.2411 C -388.18018,-224.55932 -389.53018,-221.17758 -388.90228,-218.05103 C -388.60518,-216.57186 -387.61668,-216.2349 -383.73538,-216.28969 C -380.82558,-216.33079 -378.60418,-216.89415 -378.09348,-217.7205 C -377.51278,-218.66006 -377.04398,-217.86224 -376.58448,-215.15275 C -376.21787,-212.99081 -375.72987,-210.32194 -375.49998,-209.22194 C -375.11667,-207.3877 -375.17378,-207.39897 -376.18918,-209.35786 C -377.58738,-212.05522 -381.19658,-213.72194 -385.63948,-213.72194 L -389.09248,-213.72194 L -389.09248,-203.34438 C -389.09248,-196.24236 -388.69788,-192.65116 -387.84248,-191.96676 C -382.13548,-187.40089 -371.59848,-191.12733 -365.91357,-199.72194 C -364.81717,-201.37946 -365.11908,-199.77874 -366.80947,-194.97194 L -369.35888,-187.72194 L -383.66628,-187.72194 L -397.97388,-187.72194 L -396.53928,-190.47194 L -396.53928,-190.47194 z M -353.29258,-188.92194 C -351.68707,-190.52744 -351.59707,-224.82639 -353.19457,-226.4235 C -353.99667,-227.22557 -352.77867,-227.61978 -348.71447,-227.87349 L -343.13288,-228.22194 L -339.51038,-221.22194 C -334.04577,-210.66244 -334.11658,-210.68261 -329.60387,-218.3969 C -327.45368,-222.07265 -325.74857,-225.787 -325.81478,-226.65101 C -325.91477,-227.95305 -324.90357,-228.16303 -319.90818,-227.87778 C -315.50567,-227.62637 -314.17937,-227.23556 -314.98718,-226.42777 C -316.43398,-224.98097 -316.49668,-192.34475 -315.05818,-189.6562 C -314.09068,-187.84836 -314.39788,-187.72194 -319.75817,-187.72194 C -324.21888,-187.72194 -325.22668,-187.9886 -324.29338,-188.92194 C -323.45517,-189.76013 -323.09867,-195.11191 -323.11108,-206.67193 L -323.12908,-223.22194 L -328.21937,-215.28179 C -331.01907,-210.91471 -333.78338,-206.30221 -334.36218,-205.03179 C -334.94098,-203.76137 -335.67987,-202.72336 -336.00408,-202.72509 C -336.32827,-202.72709 -339.06858,-207.30362 -342.09357,-212.89573 L -347.59357,-223.0632 L -347.86888,-206.77556 C -348.05757,-195.61412 -347.78287,-190.05265 -346.99648,-189.10492 C -346.04948,-187.96388 -346.60487,-187.72194 -350.17118,-187.72194 C -353.53307,-187.72194 -354.22688,-187.9886 -353.29358,-188.92194 L -353.29258,-188.92194 L -353.29258,-188.92194 z M -291.58017,-188.93504 C -297.29127,-192.24583 -297.96818,-194.74806 -298.33247,-213.89376 L -298.59258,-227.56554 L -293.93978,-227.89373 C -289.83667,-228.18317 -289.39368,-228.02298 -290.18978,-226.53767 C -290.68638,-225.61133 -291.80687,-219.02493 -291.80687,-211.24647 C -291.36718,-204.515 -292.99208,-198.46755 -288.16948,-193.64501 C -283.20398,-188.6795 -274.59177,-190.04287 -271.64077,-196.26162 C -269.84977,-200.03586 -269.43678,-220.86674 -271.06777,-225.15684 C -271.99787,-227.60312 -271.88328,-227.72194 -268.59258,-227.72194 C -265.30187,-227.72194 -265.18728,-227.60312 -266.11728,-225.15684 C -266.65367,-223.74603 -267.09258,-216.95154 -267.09258,-210.05797 C -267.09258,-195.60586 -268.27668,-191.81149 -273.57098,-189.29921 C -277.46537,-187.4512 -288.63117,-187.22539 -291.58017,-188.93502 L -291.58017,-188.93504 L -291.58017,-188.93504 z M -626.33678,-298.47194 C -639.33198,-318.68444 -650.24768,-335.96053 -650.59378,-336.86326 C -652.31948,-341.36446 -606.48548,-368.68794 -579.00108,-379.54254 C -570.99278,-382.7053 -544.70768,-390.82338 -536.59248,-392.6403 C -525.76718,-395.06397 -509.94938,-397.68708 -502.32518,-398.32291 L -494.30958,-398.99139 L -486.47818,-410.07438 C -473.24968,-428.79521 -456.33128,-449.20892 -451.32658,-452.48812 C -448.97308,-454.0302 -448.77938,-453.95571 -445.24408,-450.14944 C -429.22668,-432.90433 -407.05178,-403.39245 -405.51718,-397.27813 C -405.01628,-395.28207 -403.94968,-394.92155 -395.27528,-393.81608 C -373.98638,-391.10302 -343.72258,-383.08091 -322.81277,-374.60822 C -304.03977,-367.00136 -278.71998,-354.08988 -266.34258,-345.81196 C -259.60508,-341.30598 -254.09258,-337.27394 -254.09258,-336.85187 C -254.09258,-336.42981 -255.78008,-333.35855 -257.84258,-330.02684 C -259.90508,-326.69514 -269.91758,-310.42203 -280.09258,-293.86437 C -290.26757,-277.30673 -298.92247,-263.7511 -299.32567,-263.74074 C -299.72897,-263.73044 -301.25078,-266.07408 -302.70757,-268.94891 C -306.40418,-276.24387 -312.50717,-283.17014 -316.88848,-285.04286 C -324.05847,-288.10757 -335.94498,-290.02134 -343.98868,-289.40605 C -353.40037,-288.68613 -371.39038,-283.65978 -379.50748,-279.48212 C -393.09828,-272.48747 -396.82668,-270.87889 -401.89168,-269.82479 C -409.17858,-268.30827 -423.52468,-268.46138 -429.76268,-270.12225 C -435.01308,-271.52017 -447.09248,-277.61678 -447.09248,-278.8688 C -447.09248,-279.24567 -442.91348,-284.69812 -437.80578,-290.98536 L -428.51898,-302.41669 L -423.05578,-297.50799 C -415.02338,-290.29097 -408.52358,-287.61587 -397.48788,-286.98506 C -387.23778,-286.39915 -381.78868,-287.7151 -371.95448,-293.15136 L -366.31627,-296.26801 L -368.24417,-300.02589 C -369.90828,-303.26958 -369.99558,-304.15582 -368.88227,-306.50284 C -368.17298,-307.99835 -366.08538,-309.88483 -364.24338,-310.69504 C -360.95708,-312.14044 -360.90607,-312.2584 -361.53068,-316.96653 C -362.44598,-323.86709 -359.60877,-329.86803 -353.72457,-333.47673 C -349.47338,-336.08394 -349.24918,-336.45097 -349.26497,-340.77792 C -349.28598,-346.63213 -346.75168,-352.73681 -344.00117,-353.45609 C -342.14548,-353.94136 -341.96167,-354.50168 -342.51747,-357.97774 C -342.88577,-360.28063 -342.70648,-362.48223 -342.09027,-363.22472 C -341.28277,-364.19771 -341.79018,-364.76948 -344.20978,-365.61296 C -349.03727,-367.29584 -350.45868,-366.99614 -353.65547,-363.6213 C -355.27087,-361.91595 -357.60508,-360.12709 -358.84258,-359.64605 C -360.59578,-358.96457 -361.09258,-357.97861 -361.09258,-355.18095 C -361.09258,-351.51438 -362.35627,-348.31536 -364.75047,-345.92115 C -365.61188,-345.05979 -366.09258,-342.12707 -366.09258,-337.73342 C -366.09258,-330.12742 -368.55038,-322.97446 -372.63647,-318.68849 C -374.42647,-316.81102 -375.36288,-314.15408 -376.25328,-308.42714 L -377.45468,-300.69925 L -381.02348,-301.3444 C -389.16998,-302.817 -391.57618,-304.07953 -391.91738,-307.06036 C -392.10428,-308.69292 -391.54508,-310.66929 -390.60108,-311.71241 C -389.69838,-312.70989 -389.04298,-314.1326 -389.14458,-314.87398 C -389.76158,-319.37385 -388.98878,-321.70986 -386.69248,-322.2862 C -384.49098,-322.83874 -384.29248,-323.38745 -384.29248,-328.92029 C -384.29248,-336.2602 -382.00818,-341.74978 -377.95878,-344.14192 C -375.38547,-345.662 -375.06358,-346.3135 -375.62437,-348.86683 C -376.51907,-352.94025 -376.55617,-360.16286 -375.68937,-361.565 C -375.29608,-362.20132 -373.82707,-362.72194 -372.42497,-362.72194 C -370.12097,-362.72194 -369.95077,-362.98661 -370.65738,-365.47194 C -371.08747,-366.98444 -371.51637,-369.55112 -371.61048,-371.17567 C -371.78047,-374.10746 -371.86267,-374.14602 -382.68698,-376.36774 C -388.68488,-377.59883 -394.12798,-378.63215 -394.78268,-378.66401 C -395.57938,-378.70281 -395.16598,-376.34896 -393.53268,-371.54679 C -392.19048,-367.60046 -391.09228,-363.13337 -391.09228,-361.61994 C -391.09228,-360.10651 -396.57858,-347.55807 -403.28418,-333.73453 L -415.47608,-308.60082 L -429.53418,-309.41138 C -451.47218,-310.67628 -480.20368,-310.44445 -482.75788,-308.98193 C -484.83968,-307.78986 -485.48848,-308.74912 -499.54048,-333.79936 C -515.99438,-363.13125 -515.60278,-361.65619 -509.94068,-372.97194 C -508.35818,-376.13444 -507.50248,-378.72194 -508.03918,-378.72194 C -510.00908,-378.72194 -526.32008,-374.67039 -528.02628,-373.75725 C -528.99478,-373.23894 -530.49188,-370.3377 -531.35308,-367.31004 C -532.83008,-362.11832 -532.81028,-361.59172 -531.00568,-358.05213 C -528.87918,-353.88107 -528.50768,-347.68271 -530.19528,-344.52941 C -531.11418,-342.81238 -530.88498,-342.08501 -528.82158,-340.1718 C -527.45938,-338.9087 -525.31368,-335.74499 -524.05328,-333.14132 C -522.01728,-328.93552 -521.88928,-327.92998 -522.90618,-324.128 C -523.75318,-320.9612 -523.76298,-318.416 -522.94418,-314.33841 C -522.33548,-311.30779 -522.08538,-308.18246 -522.38818,-307.39323 C -522.69108,-306.60397 -525.24508,-305.40496 -528.06388,-304.72876 C -532.56948,-303.64787 -533.41378,-303.70291 -535.05058,-305.18421 C -537.75868,-307.63495 -538.45558,-311.51857 -536.67498,-314.23612 C -535.32748,-316.29259 -535.33048,-316.67469 -536.70198,-317.81333 C -541.39638,-321.70938 -543.57378,-332.16113 -540.58108,-336.43379 C -539.60298,-337.83022 -539.43348,-338.81503 -540.10018,-339.22706 C -541.71228,-340.22341 -545.94988,-349.13475 -546.96948,-353.67283 C -547.69798,-356.91529 -547.57328,-358.09761 -546.37668,-359.29428 C -545.02278,-360.64813 -545.03608,-361.0028 -546.50088,-362.62144 C -547.40268,-363.61792 -549.66218,-365.2527 -551.52208,-366.25428 C -554.71818,-367.97552 -555.04578,-367.98217 -557.49768,-366.37559 C -559.53198,-365.04267 -560.09188,-363.8607 -560.09188,-360.89889 C -560.09188,-358.82157 -560.56478,-356.64897 -561.14288,-356.07088 C -561.87768,-355.33614 -561.39798,-353.5455 -559.54888,-350.12088 C -557.16978,-345.71445 -556.96138,-344.50433 -557.47558,-338.08405 L -558.04738,-330.94616 L -555.14208,-329.74275 C -550.27298,-327.72589 -547.09188,-321.77917 -547.09188,-314.69372 C -547.09188,-308.60841 -545.27318,-303.3317 -542.86288,-302.4239 C -541.72038,-301.99358 -545.09458,-300.20372 -552.09188,-297.52837 C -554.55558,-296.58638 -554.56288,-296.5507 -552.59188,-295.06636 C -548.63768,-292.0885 -539.31698,-287.83503 -533.36758,-286.29338 C -517.24908,-282.11665 -502.08318,-285.88733 -488.43668,-297.46449 L -481.91118,-303.00043 L -473.00148,-294.13204 C -468.10118,-289.25441 -464.09188,-284.55808 -464.09188,-283.69574 C -464.09188,-281.55822 -470.70488,-275.37532 -475.59188,-272.94371 C -482.06168,-269.72451 -490.58058,-268.40735 -500.07258,-269.15858 C -511.18958,-270.03841 -518.37838,-271.92617 -530.59188,-277.17289 C -542.92668,-282.47174 -561.01318,-288.35474 -567.27358,-289.10437 C -570.78478,-289.5248 -573.63418,-289.05607 -578.66998,-287.22946 C -590.92198,-282.78543 -597.21708,-276.88228 -600.61578,-266.64974 C -601.51598,-263.93944 -602.35508,-261.72193 -602.48038,-261.72193 C -602.60568,-261.72193 -613.34078,-278.25943 -626.33608,-298.47194 L -626.33678,-298.47194 L -626.33678,-298.47194 z M -561.12428,-304.97194 C -561.15828,-309.53001 -562.88438,-312.72194 -565.31498,-312.72194 C -566.38798,-312.72194 -566.99908,-314.27022 -567.45408,-318.1419 C -568.09168,-323.56684 -567.56258,-326.66835 -565.79738,-327.85391 C -565.27888,-328.2021 -565.75738,-329.38643 -566.86198,-330.49142 C -571.38448,-335.01392 -574.09248,-340.18319 -574.09248,-344.29356 C -574.09248,-347.71421 -574.51428,-348.59309 -576.61528,-349.55037 C -578.17448,-350.26081 -579.36068,-351.81292 -579.72088,-353.61418 L -580.30378,-356.52854 L -584.82388,-354.98838 L -589.34398,-353.44822 L -588.80208,-348.1976 C -588.26278,-342.97238 -585.81128,-336.86334 -583.71238,-335.51423 C -582.94838,-335.0232 -583.14418,-333.90436 -584.35188,-331.85994 C -586.59228,-328.06719 -586.59348,-328.07215 -583.28608,-327.41066 C -579.42298,-326.63804 -575.29088,-318.91353 -574.45308,-310.89838 L -573.82208,-304.86069 L -569.20728,-302.87225 C -561.99358,-299.76402 -561.08708,-299.99952 -561.12428,-304.97194 L -561.12428,-304.97194 z M -596.76068,-308.72838 C -594.71198,-308.73437 -594.59248,-309.18999 -594.59248,-316.98958 C -594.59248,-324.0452 -594.92108,-325.66405 -596.85468,-328.13355 C -598.09888,-329.72262 -599.39398,-332.75508 -599.73248,-334.87235 C -600.09068,-337.11202 -600.90718,-338.72194 -601.68508,-338.72194 C -602.42048,-338.72194 -603.55528,-339.73444 -604.20698,-340.97194 C -606.09338,-344.55408 -607.16998,-344.71634 -612.18598,-342.17453 C -616.89038,-339.79064 -616.90788,-339.76291 -616.38408,-335.50132 C -616.09488,-333.14766 -615.12338,-330.67479 -614.22528,-330.00605 C -610.67828,-327.36478 -610.15948,-326.59514 -609.48628,-322.97546 C -609.10228,-320.91102 -607.99418,-318.66019 -607.02368,-317.97361 C -606.05318,-317.28704 -604.47728,-314.67801 -603.52168,-312.17577 C -602.31978,-309.02862 -601.34418,-307.79511 -600.35658,-308.1741 C -599.57138,-308.47541 -597.95318,-308.72484 -596.76068,-308.72838 L -596.76068,-308.72838 z M -335.84258,-310.22861 C -331.37297,-310.80813 -331.09258,-311.02088 -331.09258,-313.83287 C -331.09258,-318.80656 -328.05787,-323.74302 -322.94487,-327.08652 C -321.24177,-328.20018 -320.05628,-330.10171 -319.62207,-332.41613 C -319.25088,-334.39514 -318.20018,-337.15426 -317.28727,-338.54751 C -316.37437,-339.94075 -315.73937,-342.01246 -315.87607,-343.15131 C -316.01278,-344.29016 -315.24097,-346.54702 -314.16098,-348.16656 L -312.19727,-351.11118 L -317.10547,-354.41656 C -319.80497,-356.23452 -322.40607,-357.72194 -322.88577,-357.72194 C -323.36538,-357.72194 -325.18318,-355.94833 -326.92517,-353.78058 C -329.14878,-351.01366 -330.09258,-348.77977 -330.09258,-346.28378 C -330.09258,-343.34852 -330.94108,-341.89922 -334.95708,-337.97514 C -339.76577,-333.27653 -339.82878,-333.13272 -340.44588,-325.45415 C -340.82457,-320.74128 -341.86108,-316.13591 -343.08128,-313.74399 C -345.60227,-308.80244 -345.59078,-308.58098 -342.84258,-309.14829 C -341.60508,-309.40374 -338.45507,-309.88988 -335.84258,-310.22861 L -335.84258,-310.22861 z M -298.16068,-315.62631 C -297.02318,-317.22371 -296.09258,-319.2783 -296.09258,-320.19205 C -296.09258,-322.30086 -294.44328,-325.44314 -291.44397,-329.04867 C -290.15068,-330.60336 -289.09258,-332.54801 -289.09258,-333.37009 C -289.09258,-334.19218 -288.41758,-335.5398 -287.59258,-336.3648 C -285.24097,-338.71639 -285.69467,-339.28796 -292.12758,-342.07783 C -298.70038,-344.92838 -299.96808,-344.70404 -303.42538,-340.07842 C -304.79407,-338.24716 -304.97958,-337.29071 -304.15807,-336.30087 C -302.54538,-334.35769 -303.75408,-332.21917 -307.65128,-330.1204 C -311.00287,-328.31545 -311.09258,-328.10573 -311.09258,-322.07632 C -311.09258,-318.67138 -311.36568,-315.17371 -311.69958,-314.30373 C -312.21177,-312.96895 -311.36347,-312.72194 -306.26767,-312.72194 C -300.74337,-312.72194 -300.05257,-312.96942 -298.16068,-315.62631 L -298.16068,-315.62631 z M -401.86568,-346.22194 C -395.26028,-360.89876 -395.18618,-362.00259 -400.14548,-371.827 C -408.10788,-387.60045 -433.33518,-427.72195 -435.29068,-427.72195 C -435.75118,-427.72195 -436.10298,-407.02195 -436.07248,-381.72194 C -436.02148,-339.02078 -435.89428,-335.71577 -434.30478,-335.63597 C -433.36298,-335.58867 -428.54248,-334.96005 -423.59248,-334.23901 C -407.36618,-331.87539 -408.63818,-331.17385 -401.86568,-346.22194 z M -472.84248,-337.34881 L -464.09248,-338.01699 L -464.09248,-350.70622 C -464.09248,-357.6853 -463.83858,-378.43142 -463.52818,-396.8087 L -462.96398,-430.22195 L -466.14688,-426.72195 C -470.83548,-421.56632 -488.06058,-398.15452 -492.26588,-391.22194 C -496.91438,-383.55866 -507.09248,-362.85233 -507.09248,-361.0586 C -507.09248,-360.30652 -504.35818,-354.23667 -501.01628,-347.57004 L -494.94018,-335.44889 L -488.26628,-336.06476 C -484.59568,-336.40348 -477.65498,-336.98131 -472.84248,-337.34881 z"
         id="path2848" />
      <path
         id="path2933"
         d="M -447.10058,242.124 C -447.21168,237.83561 -447.26368,87.924402 -447.16298,62.531332 L -447.05278,34.781332 L -440.49948,34.781332 C -434.03298,34.781332 -433.85158,34.856732 -426.82728,40.461292 C -418.55348,47.062782 -403.25448,56.465002 -399.29058,57.384322 C -397.78478,57.733542 -395.65278,58.562212 -394.55278,59.225802 C -387.92888,63.221802 -362.36018,64.917302 -353.78807,61.928962 C -350.10317,60.644352 -349.87027,60.714582 -342.78807,65.245912 C -334.29407,70.680592 -322.60868,74.670862 -320.14497,72.977962 C -314.05587,68.793992 -304.82807,63.595232 -300.93558,62.155792 L -296.31838,60.448392 L -288.43558,65.001842 L -280.55277,69.555292 L -280.27707,140.41831 C -280.12558,179.39297 -280.23208,212.23444 -280.51307,213.39936 C -280.79438,214.56427 -283.05388,217.98232 -285.53408,220.99502 C -288.93017,225.12018 -291.95827,227.43666 -297.79817,230.37699 L -305.55277,234.28133 L -371.23247,234.56539 L -436.91228,234.84944 L -441.98258,239.40806 C -445.97318,242.99595 -447.06298,243.57429 -447.10058,242.124 L -447.10058,242.124 z"
         style="fill:#295d29" />
      <path
         id="path2960-4"
         d="M -365.42927,91.959162 L -356.85788,135.17344 L -339.35788,92.316302 L -347.57217,136.95916 L -317.21498,107.3163 L -339.71497,142.3163 L -299.00068,128.03059 L -336.85788,151.24487 L -291.50068,152.3163 L -335.42927,162.67344 L -296.85788,178.03059 L -340.07217,170.53059 L -309.71498,202.3163 L -344.00068,178.38773 L -328.28637,218.74487 L -352.57217,183.03059 L -353.28637,225.53059 L -362.92927,181.95916 L -380.07218,224.10201 L -371.50068,178.38773 L -401.50068,209.45916 L -377.57218,172.67344 L -420.07218,191.60201 L -380.42928,165.17344 L -424.35788,164.45916 L -382.57218,156.24487 L -421.50068,139.8163 L -380.07218,148.03059 L -411.50068,115.88773 L -375.78637,138.74487 L -390.42928,100.17344 L -367.21497,136.60201 L -365.42927,91.959162 L -365.42927,91.959162 z"
         style="fill:#fcf90b;fill-opacity:1;stroke:#66697a;stroke-width:2.20000005;stroke-linecap:round;stroke-linejoin:round;marker:none;stroke-miterlimit:4;stroke-dasharray:none;stroke-dashoffset:0;stroke-opacity:1;visibility:visible;display:inline;overflow:visible;enable-background:accumulate" />
      <path
         id="path2931"
         d="M -454.48848,132.4882 C -454.11298,131.50198 -453.55388,130.94698 -453.24598,131.25487 C -452.93808,131.56276 -453.24528,132.36966 -453.92868,133.048 C -454.91638,134.02826 -455.03118,133.9134 -454.48848,132.4882 z"
         style="fill:#295d29" />
      <path
         sodipodi:nodetypes="csssssssssssssssssssscccccc"
         id="path2929"
         d="M -511.05278,4.2813315 C -511.05278,-10.293668 -511.30878,-22.218668 -511.62158,-22.218668 C -511.93438,-22.218668 -516.54688,-21.141768 -521.87158,-19.825558 C -538.37968,-15.744918 -544.06808,-15.730338 -540.20368,-19.778558 C -539.18498,-20.845618 -536.61008,-23.068658 -534.48168,-24.718658 C -532.35318,-26.368658 -526.64448,-31.576518 -521.79568,-36.291668 C -515.37448,-42.535928 -513.15458,-45.320218 -513.62328,-46.541668 C -514.47588,-48.763518 -514.80568,-48.724078 -525.94938,-45.067458 C -535.05838,-42.078498 -545.91158,-40.751638 -547.58738,-42.422088 C -549.55658,-44.385028 -546.38068,-48.558818 -537.36228,-55.859998 C -532.02348,-60.182258 -525.15728,-66.059768 -522.10408,-68.921118 C -517.09838,-73.612298 -516.70418,-74.276098 -518.09298,-75.675598 C -519.48428,-77.077588 -520.63918,-76.888838 -530.03948,-73.723138 C -541.85688,-69.743438 -541.05278,-69.934038 -541.05278,-71.112718 C -541.05278,-71.986698 -531.66568,-86.258668 -527.82838,-91.218668 C -522.11158,-98.608288 -511.08268,-113.79787 -511.06888,-114.30092 C -511.05988,-114.62117 -513.52778,-114.67796 -516.55278,-114.4271 C -522.72708,-113.91507 -523.43898,-114.88966 -520.05278,-119.21866 C -518.97728,-120.59366 -518.08728,-122.05969 -518.07508,-122.47654 C -518.06288,-122.89336 -515.81248,-127.17463 -513.07438,-131.99044 C -506.75198,-143.1102 -502.94398,-153.87062 -502.29568,-162.44828 C -501.79668,-169.04966 -501.85388,-168.0525 -501.06898,-169.12399 L -452.55278,-169.71867 L -452.04318,30.781332 L -481.54798,30.781332 L -511.05278,30.781332 L -511.05278,4.2813315 L -511.05278,4.2813315 z"
         style="fill:#295d29" />
      <path
         sodipodi:nodetypes="cccsssssssssssssssssscccccccssscssssssscccccc"
         id="path2927"
         d="M -538.80278,29.008772 L -557.05278,28.736212 L -557.05278,6.7587715 C -557.05278,-18.373178 -556.23478,-16.662728 -566.67258,-13.355478 C -569.90668,-12.330728 -574.71248,-11.174828 -577.35198,-10.786828 C -582.18638,-10.076198 -588.05278,-10.781828 -588.05278,-12.074848 C -588.05278,-12.458338 -584.55498,-16.360088 -580.27988,-20.745388 C -572.65948,-28.562108 -561.05278,-43.187968 -561.05278,-44.973818 C -561.05278,-45.471148 -565.66528,-45.970248 -571.30278,-46.082908 C -581.85018,-46.293708 -591.15088,-48.012938 -591.76858,-49.865998 C -591.96128,-50.444018 -589.74978,-52.897338 -586.85418,-55.317808 C -579.40648,-61.543518 -564.05278,-76.365648 -564.05278,-77.329818 C -564.05278,-77.774198 -567.76528,-78.268478 -572.30278,-78.428228 C -580.50698,-78.717058 -580.55458,-78.734158 -580.87298,-81.507868 C -581.22708,-84.592278 -576.55788,-89.712908 -563.82088,-100.2085 C -556.41848,-106.30821 -556.36468,-106.05749 -565.76868,-109.29293 C -571.69098,-111.33048 -576.05408,-113.74866 -576.05098,-114.99171 C -576.05008,-115.39152 -574.02588,-116.99693 -571.55288,-118.55929 C -565.81048,-122.18715 -557.25228,-131.68394 -554.12678,-137.89646 C -552.79248,-140.54867 -550.77938,-144.28457 -549.65318,-146.19845 C -548.52708,-148.11232 -547.47628,-150.52633 -547.31808,-151.5629 C -546.74548,-155.31468 -541.75668,-168.73648 -540.66828,-169.45336 L -505.83468,-168.91095 C -506.68358,-150.09814 -516.48838,-133.49948 -526.10998,-117.87844 L -530.16718,-112.21265 L -527.54488,-111.21565 C -526.10268,-110.66731 -521.31118,-110.34493 -519.98378,-110.34493 C -518.98828,-109.83925 -522.28298,-105.40641 -523.54118,-103.63746 C -525.46228,-101.58432 -537.04918,-85.697488 -541.60118,-78.875248 C -544.29108,-74.843978 -546.04118,-71.153888 -545.86008,-69.895368 C -545.34358,-66.304628 -541.24678,-65.655288 -533.97218,-68.011168 C -530.45738,-69.149438 -527.45648,-69.955658 -527.30358,-69.802758 C -535.49918,-60.955148 -550.89918,-53.403668 -552.17658,-44.235738 C -552.94468,-38.722268 -550.66548,-38.218668 -541.14338,-38.218668 C -535.96228,-38.218668 -530.59688,-38.821078 -528.17858,-39.674308 C -525.90938,-40.474908 -524.05278,-40.933008 -524.05278,-40.692298 C -524.05278,-40.001978 -534.00158,-30.884688 -540.05278,-26.029568 C -546.31058,-21.008678 -547.83378,-16.579508 -544.18218,-14.021848 C -541.88428,-12.412338 -527.93608,-13.195968 -523.08008,-15.207378 C -521.51948,-15.853778 -519.18748,-16.233258 -517.89778,-16.050658 L -515.55278,-15.718668 L -515.55278,6.2093815 L -515.55278,28.137442 L -518.05278,28.709382 C -519.42778,29.023952 -528.76528,29.158682 -538.80278,29.008772 L -538.80278,29.008772 z"
         style="fill:#295d29" />
      <path
         id="path2925"
         d="M -576.46868,7.1398915 C -576.99538,5.7674115 -576.84908,5.7055515 -575.57568,6.7623315 C -573.84048,8.2024615 -573.65988,8.7813315 -574.94578,8.7813315 C -575.43698,8.7813315 -576.12228,8.0426815 -576.46868,7.1398915 L -576.46868,7.1398915 z"
         style="fill:#295d29" />
      <path
         id="path2911"
         d="M -591.05278,-56.473798 C -591.05278,-56.748798 -590.37778,-57.533998 -589.55278,-58.218688 C -588.72778,-58.903378 -588.05278,-59.238578 -588.05278,-58.963578 C -588.05278,-58.688578 -588.72778,-57.903378 -589.55278,-57.218688 C -590.37778,-56.533998 -591.05278,-56.198798 -591.05278,-56.473798 z"
         style="fill:#295d29" />
      <path
         id="path3739"
         d="M -407.52528,-73.960938 L -379.99868,-47.570708 L -379.11478,-97.320718 L -392.37308,-107.1697 L -407.52528,-73.960938 z"
         style="fill:#1b3f89;fill-opacity:1;stroke:none;stroke-width:1px;marker:none;visibility:visible;display:inline;overflow:visible;enable-background:accumulate" />
      <path
         sodipodi:nodetypes="csssssssssssscccccccccccsssssssssssssssssssssssssssscccsccsssccccccsssssssssssssssccsssssssssssccccssscccccccccccc"
         style="fill:#f1f018"
         d="M -355.56977,211.7663 C -355.70968,210.23357 -361.50287,183.22283 -362.11087,181.26875 C -362.24118,180.84973 -365.26648,187.14143 -368.83378,195.2503 C -372.40107,203.35917 -375.47278,209.1986 -375.65998,208.2268 C -375.84707,207.255 -374.78717,200.3778 -373.30458,192.94413 C -371.82198,185.51045 -370.88178,179.1555 -371.21527,178.822 C -371.54878,178.4885 -376.13078,182.449 -381.39768,187.62312 C -386.66448,192.79723 -391.20618,197.25559 -391.49018,197.53059 C -393.63788,199.60987 -390.14868,193.24965 -384.12068,184.0971 C -380.15008,178.06841 -377.05978,172.97748 -377.25338,172.78391 C -377.44688,172.59034 -383.62058,174.86639 -390.97258,177.84179 C -398.32468,180.8172 -404.51068,182.80234 -404.71928,182.25322 C -404.92788,181.70409 -404.47788,180.9011 -403.71928,180.46879 C -402.96068,180.03648 -397.61498,176.38603 -391.83998,172.35668 L -381.33998,165.03059 C -390.92908,162.78723 -403.16818,167.13366 -411.83998,162.4236 C -402.41038,159.2269 -392.19658,158.78775 -382.83998,155.44646 C -389.58138,150.25444 -400.14278,149.69718 -405.86278,143.45773 C -397.25038,142.99227 -388.66448,146.20424 -380.04918,147.07317 C -384.96408,139.79708 -392.40308,134.30213 -396.80248,126.70803 C -389.10198,128.75735 -383.58988,137.15811 -375.69688,138.44046 C -374.71427,130.47789 -382.04848,121.59709 -382.95738,113.10315 L -366.33997,136.82056 C -365.04608,128.54549 -367.03418,90.268682 -360.33177,120.39655 C -358.75608,128.17027 -357.16848,134.53059 -356.80368,134.53059 C -356.43898,134.53059 -353.72357,128.91495 -350.76948,122.05139 C -347.80697,115.16833 -345.01598,109.95461 -344.54557,110.42497 C -344.07528,110.89532 -344.83548,117.25029 -346.24087,124.59636 C -347.64227,131.92161 -348.58198,138.12191 -348.32907,138.37481 C -348.07618,138.6277 -343.36267,134.40698 -337.85458,128.99542 C -332.34658,123.58386 -327.83998,119.73172 -327.83998,120.43511 C -327.83998,121.1385 -330.76497,126.06561 -334.33998,131.38425 C -340.10888,139.96688 -341.87697,143.53059 -340.36597,143.53059 C -340.10528,143.53059 -336.39278,142.13511 -332.11597,140.42953 C -327.83918,138.72394 -322.22057,136.48764 -319.63018,135.45997 C -317.03977,134.43229 -314.70597,133.93831 -314.44408,134.36222 C -314.18208,134.78614 -319.29368,138.70994 -325.80337,143.08178 C -332.31297,147.45363 -337.43267,151.36809 -337.18048,151.78059 C -336.92827,152.19309 -329.32348,152.53059 -320.28097,152.53059 C -311.23837,152.53059 -303.83998,152.91127 -303.83998,153.37656 C -303.83998,154.06517 -313.76407,156.68543 -333.58998,161.23148 C -334.82747,161.51524 -335.83997,162.09986 -335.83997,162.53063 C -335.83997,162.96141 -329.90318,165.69621 -322.64718,168.60796 C -315.39118,171.51971 -309.99327,174.0817 -310.65197,174.30127 C -311.31078,174.52085 -317.95968,173.49946 -325.42747,172.03152 C -332.89528,170.56358 -339.16387,169.52112 -339.35768,169.71494 C -339.55147,169.90875 -335.20008,174.89656 -329.68797,180.79896 C -324.17577,186.70136 -320.17718,191.53059 -320.80228,191.53059 C -321.42728,191.53059 -326.93777,188.15191 -333.04778,184.02241 C -339.15787,179.89292 -344.35987,176.71715 -344.60788,176.96515 C -345.01798,177.37523 -342.56508,184.21346 -336.97647,198.24039 C -335.83488,201.10577 -335.27998,203.68448 -335.74327,203.97083 C -336.20657,204.25719 -340.35548,198.79922 -344.96287,191.84199 L -353.33997,179.1925 L -353.61577,195.5874 C -353.76757,204.60459 -354.23358,212.32424 -354.65157,212.74216 C -355.06948,213.16008 -355.48268,212.72096 -355.56977,211.7663 L -355.56977,211.7663 z M -344.83997,107.53059 C -344.83997,106.98059 -344.64157,106.53059 -344.39898,106.53059 C -344.15648,106.53059 -343.67987,106.98059 -343.33997,107.53059 C -343.00007,108.08059 -343.19848,108.53059 -343.78098,108.53059 C -344.36337,108.53059 -344.83997,108.08059 -344.83997,107.53059 z M -615.83998,12.247382 L -618.33998,10.971642 L -618.62448,-75.998888 C -619.00708,-107.54528 -619.54798,-139.13123 -618.63348,-170.35329 L -546.31258,-169.82864 C -545.31898,-168.22091 -552.94228,-146.92453 -557.10878,-140.02675 C -562.32898,-131.38467 -570.95728,-121.9605 -576.00868,-119.38345 C -579.14988,-117.7809 -579.84018,-116.89448 -579.84018,-114.46325 C -579.84018,-112.14407 -578.77038,-111.14665 -575.83768,-109.20699 C -573.77518,-107.84289 -570.49888,-106.34375 -568.71138,-105.72125 C -566.92388,-105.09874 -565.87368,-103.98027 -565.91458,-103.62157 C -565.95548,-103.26288 -569.51938,-99.923648 -573.83428,-96.201068 C -583.38828,-87.958528 -587.04078,-81.707288 -584.72558,-77.560628 C -583.75478,-75.822088 -581.92548,-74.640348 -579.16628,-73.969408 C -576.90448,-73.419408 -572.39898,-74.034608 -572.24078,-73.484638 C -572.08248,-72.934638 -578.94728,-66.971478 -584.40928,-62.085108 C -595.60058,-52.073248 -596.25118,-51.243018 -595.43958,-48.009198 C -594.60728,-44.693038 -587.69738,-42.839568 -577.83768,-42.266398 C -571.50908,-41.898508 -569.39828,-41.764038 -569.39828,-40.649278 C -569.39828,-38.547948 -580.85988,-24.494998 -587.46998,-18.696838 C -592.45168,-14.327108 -593.04358,-13.416078 -592.44658,-11.037408 C -586.20028,-1.7847085 -572.20758,-8.8738885 -561.50088,-9.9942985 C -561.08838,-10.000298 -560.84018,-5.4194085 -560.84018,-0.46940849 C -560.84018,8.3933415 -560.87718,8.5305915 -563.26878,8.5305915 C -564.60448,8.5305915 -566.32038,9.0906515 -567.01878,9.8365415 C -569.69078,12.690272 -571.74848,12.949652 -574.22948,9.7532415 C -576.94218,6.2583915 -577.22528,5.8353615 -581.06158,9.0633915 C -583.51648,11.129012 -584.28088,11.350532 -585.20598,10.264302 C -588.00218,6.9808115 -589.63118,6.3487615 -592.02628,7.6181315 C -593.29898,8.2926415 -595.08398,9.6923715 -595.99318,10.728652 C -596.91418,11.778522 -597.37748,11.596312 -598.00098,11.548092 C -599.22298,11.453592 -599.98918,10.218352 -601.98548,9.8944015 C -604.73818,9.4477015 -606.07018,9.7554015 -607.49898,11.167982 C -609.87788,13.519972 -612.64468,13.878002 -615.84018,12.247342 L -615.84018,12.247382 L -615.83998,12.247382 L -615.83998,12.247382 z M -432.54528,-28.856688 L -421.00068,-50.479558 C -420.44788,-51.514978 -405.05248,-38.830738 -401.83998,-35.486508 C -401.56498,-35.200228 -399.71748,-33.616778 -397.73438,-31.967708 C -388.82188,-24.556208 -383.29498,-19.836218 -381.63578,-18.219408 L -381.20038,4.5305915 L -391.52898,5.7598215 L -432.54528,-28.856688 L -432.54528,-28.856688 z M -328.83998,-18.108968 C -335.71497,-23.864508 -343.44688,-30.348728 -346.02187,-32.518338 L -351.14567,-36.841888 C -345.66008,-47.247768 -341.24517,-57.822818 -336.95417,-68.738498 C -336.39487,-68.740498 -330.46548,-61.614008 -324.54958,-55.679638 L -313.79327,-44.889858 L -315.33998,-7.8893385 C -315.88997,-7.7545885 -321.96498,-12.353418 -328.83998,-18.108968 L -328.83998,-18.108968 z"
         id="path2850" />
      <path
         sodipodi:nodetypes="cccc"
         id="path3737"
         d="M -390.92098,-112.50456 L -378.42028,-102.40304 L -378.42028,-147.48109 L -390.92098,-112.50456 z"
         style="fill:#a33e3c;fill-opacity:1;stroke:none;stroke-width:1px;marker:none;visibility:visible;display:inline;overflow:visible;enable-background:accumulate" />
      <path
         sodipodi:nodetypes="ccccssscc"
         style="fill:#a33e3c"
         d="M -335.39087,-0.096028487 L -361.29108,-22.903708 L -352.88387,-34.075278 L -318.66117,-6.8654785 C -312.03348,-1.9056185 -311.31398,-0.32006849 -313.82798,1.2336515 C -314.43038,1.6059815 -316.03017,1.3182515 -317.38307,0.59422151 C -319.41467,-0.49309849 -320.39878,-0.49371849 -323.03768,0.59022151 C -328.66217,2.9013315 -331.02347,2.7700815 -335.39087,-0.096428487 L -335.39087,-0.096028487 z"
         id="path2885" />
      <path
         sodipodi:nodetypes="ccccccccc"
         id="path3741"
         d="M -488.68258,-319.01885 C -464.48758,-322.10752 -440.06778,-324.233 -413.55248,-317.37735 C -413.33358,-319.34996 -412.61718,-321.40548 -414.31008,-323.05946 L -446.00358,-326.46872 L -446.76118,-446.55061 C -448.27558,-448.24595 -449.83858,-449.2604 -451.68568,-446.29807 L -451.43318,-326.21618 L -488.93508,-323.94334 C -489.61238,-322.14954 -489.68568,-320.47655 -488.68258,-319.01885 L -488.68258,-319.01885 z"
         style="fill:#8f2620;fill-opacity:1;stroke:none;stroke-width:1px;marker:none;visibility:visible;display:inline;overflow:visible;enable-background:accumulate" />
      <path
         sodipodi:nodetypes="cscssssssscccssssssscsccc"
         id="path2846-1-7"
         d="M -464.41298,60.002922 C -474.88118,60.050022 -485.42158,62.920712 -494.56928,67.909172 C -533.95828,89.389182 -541.51738,111.69044 -563.97548,147.09667 C -563.97548,151.10887 -579.57768,154.07841 -584.31928,150.97167 C -586.26688,149.69553 -587.92708,149.43621 -590.69428,149.94042 C -592.76078,150.31697 -597.49198,150.8491 -601.19428,151.12792 C -606.97398,151.5632 -608.35248,151.31719 -610.94428,149.47167 C -612.60448,148.28948 -613.97548,146.76773 -613.97548,146.06542 C -613.97548,145.36312 -614.85568,143.95678 -615.94428,142.97167 C -617.52758,141.5387 -618.90618,141.51896 -619.25668,142.62792 C -619.49778,143.39029 -619.06238,157.24666 -619.38168,173.47167 C -619.72378,182.99437 -620.80598,193.89511 -619.60048,203.78417 C -619.99398,195.44339 -619.19608,186.67719 -618.91298,178.87792 C -618.59028,162.65292 -619.03168,148.82779 -618.78798,148.06542 C -618.43368,146.95646 -617.04468,146.9762 -615.44428,148.40917 C -614.34398,149.39428 -613.44428,150.76937 -613.44428,151.47167 C -613.44428,152.17398 -612.09098,153.72698 -610.41298,154.90917 C -607.79338,156.75469 -606.37958,156.96945 -600.53798,156.53417 C -596.79598,156.25535 -592.03298,155.72322 -589.94428,155.34667 C -587.14748,154.84246 -585.44398,155.13303 -583.47548,156.40917 C -578.68318,159.51591 -562.91298,156.54637 -562.91298,152.53417 C -540.21438,117.12794 -532.59888,94.795432 -492.78798,73.315422 C -481.01698,66.964352 -465.85658,64.236342 -452.55788,66.191692 C -452.64698,63.033142 -452.69268,61.219862 -452.83838,61.129822 C -456.26408,60.497142 -460.92358,59.987222 -464.41298,60.002922 z"
         style="fill:#666a76;fill-opacity:1" />
      <path
         sodipodi:nodetypes="ccccssssssscscssssssssccscccssscccssssssssssssssscccsssscccccssssssssssssccsssccssssssssssssscccssssssssscccsssssssccsssscccssssccsscccccsssssssssssssssssssscccccccccc"
         style="fill:#1b3f89"
         d="M -456.56498,241.99495 C -457.68668,240.87325 -460.90208,238.62098 -462.97728,237.6458 L -599.21368,235.4094 C -623.19478,226.69422 -618.87798,199.12754 -618.12918,178.27805 C -617.80988,162.05305 -618.23518,148.21743 -617.99418,147.45506 C -617.64348,146.3461 -616.27628,146.36395 -614.69288,147.79692 C -613.60428,148.78203 -612.71368,150.16264 -612.71368,150.86494 C -612.71368,151.56725 -611.35538,153.1091 -609.69508,154.29129 C -607.10328,156.13681 -605.72478,156.36904 -599.94508,155.93376 C -596.24288,155.65494 -591.52298,155.11873 -589.45648,154.74218 C -586.68938,154.23797 -585.00228,154.5142 -583.05458,155.79034 C -578.31308,158.89708 -562.71368,155.91814 -562.71368,151.90594 C -540.25558,116.49971 -532.70098,94.193342 -493.31188,72.713332 C -481.11508,66.062052 -466.48128,63.207032 -452.77878,65.737742 C -451.64278,66.439842 -451.27118,174.50206 -452.40088,175.63179 C -452.73918,175.97008 -453.51048,175.57429 -454.11478,174.75229 C -455.04758,173.48373 -456.42348,174.07349 -463.21368,178.65241 C -472.19268,184.70727 -477.26268,189.58069 -476.26388,191.19669 C -475.26108,192.81928 -471.14098,192.49766 -469.63158,190.67896 C -467.65318,188.29528 -457.02198,180.27805 -455.83938,180.27805 C -455.27488,180.27805 -454.37098,179.49055 -453.83068,178.52805 C -451.95818,175.19263 -451.71698,179.41976 -451.96678,211.19493 C -452.22708,244.31818 -452.35758,246.2024 -456.56498,241.99495 L -456.56498,241.99495 z M -588.47988,220.2812 C -584.38088,218.72371 -582.56338,218.50086 -580.21918,219.26835 C -578.56618,219.80954 -572.12718,220.14562 -565.91038,220.01519 L -554.60708,219.77805 L -550.73828,211.08583 C -531.77698,168.48512 -499.03578,141.00048 -462.21368,136.77399 C -458.91368,136.39521 -455.65118,135.62357 -454.96368,135.05923 C -453.20378,133.61461 -453.34358,128.27805 -455.14138,128.27805 C -460.38508,128.27805 -473.13988,130.84508 -478.19308,132.91741 L -484.21368,135.38654 L -488.37268,130.83613 C -494.80018,123.80353 -497.20838,118.06616 -497.21128,109.77805 C -497.21428,102.35201 -495.79778,98.959622 -490.21908,93.028052 C -486.94098,89.542492 -485.11558,89.540782 -484.24168,93.022052 C -483.26398,96.917632 -481.85938,98.277642 -478.81378,98.277642 C -475.00368,98.277642 -471.94028,95.757632 -470.82058,91.702402 C -469.32778,86.295912 -471.02188,82.790972 -476.38208,80.196112 C -480.32818,78.285842 -481.37298,78.158572 -484.76508,79.174892 C -489.71998,80.659412 -498.20518,88.873772 -500.76768,94.666672 C -506.00768,106.51256 -503.89958,120.26333 -494.95578,132.57806 C -491.61328,137.18034 -491.54658,137.4372 -493.34148,138.80135 C -494.37118,139.58394 -496.02768,140.49998 -497.02258,140.83701 C -501.78638,142.45081 -519.46298,155.66669 -526.21808,162.66505 C -539.21438,176.12922 -550.43128,193.81945 -555.13988,208.27764 C -557.04988,214.14227 -557.49908,214.74965 -559.73528,214.49134 C -563.51658,214.05454 -564.82508,214.09936 -569.89738,214.83942 C -573.71848,215.39695 -575.21638,215.13007 -578.03168,213.39014 L -581.48238,211.25749 L -588.34808,214.35577 C -593.82688,216.8282 -596.17528,217.36469 -599.97388,217.01166 C -602.59188,216.76835 -605.51688,215.88738 -606.47388,215.05395 C -610.12168,211.87685 -612.18788,215.72798 -609.15698,220.05513 C -607.80288,221.98838 -606.69798,222.27764 -600.66768,222.27764 C -596.15998,222.27764 -591.89698,221.57919 -588.47988,220.28079 L -588.47988,220.2812 L -588.47988,220.2812 z M -515.52698,219.1451 L -512.53158,217.01215 L -508.73648,219.1451 C -504.05888,221.77404 -499.51478,221.82474 -493.97448,219.3098 C -491.02278,217.96995 -489.90878,216.93333 -490.30648,215.89682 C -490.76578,214.70002 -492.20628,214.51955 -497.65438,214.9763 C -502.36968,215.37161 -504.65558,215.18111 -505.16918,214.35006 C -505.57518,213.69316 -504.93688,210.89975 -503.75068,208.14248 C -500.66858,200.97779 -501.20688,199.24334 -506.96428,197.78786 C -511.53198,196.63315 -515.71368,193.91504 -515.71368,192.10072 C -515.71368,191.62367 -513.91368,189.28059 -511.71368,186.89388 C -507.54338,182.36958 -506.60858,178.91611 -509.27708,177.89212 C -513.70098,176.19448 -522.03228,185.37949 -522.20188,192.14151 C -522.26848,194.79814 -523.43228,197.31843 -526.42738,201.29294 C -533.02178,210.0438 -533.33908,215.70658 -527.43688,219.30533 C -523.25478,221.85526 -519.25758,221.80149 -515.52698,219.1451 L -515.52698,219.1451 z M -523.24888,213.22121 C -524.16288,211.74233 -523.01288,207.72004 -521.14078,205.84798 C -519.16798,203.87517 -512.84858,203.76308 -512.10998,205.68779 C -511.40468,207.52578 -514.18148,212.85983 -516.25848,213.65687 C -518.77608,214.62297 -522.52698,214.38921 -523.24888,213.22121 z M -455.67568,211.25082 C -454.52208,209.42662 -454.49898,208.16501 -455.58788,206.4474 C -456.28388,205.3495 -457.36248,205.39324 -461.75408,206.6974 C -469.20068,208.90879 -473.52338,208.67552 -479.40438,205.74494 C -484.87518,203.01869 -488.68048,198.36357 -490.72898,191.89118 C -492.50938,186.26606 -491.53938,173.86087 -489.05948,170.53935 C -485.45768,165.7151 -484.12678,165.48534 -480.44658,169.05237 C -476.57998,172.80003 -474.01888,173.09249 -470.34858,170.20547 C -466.18878,166.9334 -466.90458,159.77796 -471.67348,156.96093 C -475.10058,154.93648 -482.44328,155.94764 -486.58188,159.01393 C -491.02278,162.30423 -495.61548,169.13236 -497.31138,174.96583 C -498.66158,179.6103 -498.73768,181.52519 -497.77578,186.64939 C -496.35448,194.22094 -491.22148,204.78504 -487.78358,207.2143 C -479.84408,212.82436 -477.72218,213.41892 -466.91038,213.06288 C -459.20408,212.8091 -456.37238,212.35237 -455.67578,211.25082 L -455.67568,211.25082 L -455.67568,211.25082 z M -512.43158,145.91064 C -508.35368,144.17776 -503.40858,139.58073 -504.21648,138.27363 C -505.17628,136.72055 -509.32438,137.104 -510.80018,138.88223 C -512.83678,141.33614 -516.55148,142.43524 -518.77918,141.24301 C -521.26248,139.91401 -521.22498,138.19779 -518.64108,134.91291 C -517.03068,132.8655 -515.69288,132.27805 -512.64108,132.27805 C -507.98618,132.27805 -504.71368,129.54796 -504.71368,125.66455 C -504.71368,123.36569 -505.04478,123.10788 -507.46368,123.52312 C -508.97618,123.78276 -510.91928,124.30054 -511.78168,124.67375 C -512.71418,125.07732 -514.43678,124.49714 -516.03238,123.24205 C -519.05238,120.86647 -518.93678,118.243 -515.56458,112.62653 L -513.67228,109.47501 L -516.42948,107.46656 C -519.15138,105.4838 -519.16248,105.43138 -517.29518,103.36808 C -516.25488,102.21856 -515.85368,101.27805 -516.40368,101.27805 C -519.21098,101.27805 -524.65568,111.6575 -524.69178,117.07771 C -524.70388,118.89252 -524.01908,121.72055 -523.17018,123.36222 C -521.74488,126.11839 -521.77148,126.5551 -523.51718,129.06256 C -526.96938,134.02097 -527.85488,138.10429 -526.18038,141.34245 C -524.61598,144.3677 -520.45738,147.17003 -517.43158,147.23801 C -516.45138,147.26001 -514.20138,146.66272 -512.43158,145.91064 L -512.43158,145.91064 z M -457.93408,100.89199 C -454.99598,99.372662 -453.75128,96.573762 -455.31738,95.007742 C -456.19538,94.129702 -466.45478,101.36678 -472.26538,106.96312 C -478.81478,113.27097 -482.39018,118.08016 -483.27938,121.77805 C -483.89668,124.34498 -482.35178,123.1742 -472.57758,113.66767 C -466.29478,107.55696 -459.70518,101.8079 -457.93408,100.89199 L -457.93408,100.89199 z M -616.96708,16.841182 L -612.33548,16.778082 C -609.42798,16.778082 -608.08838,16.216782 -606.96568,14.528082 C -605.23578,11.926102 -602.91368,11.659562 -600.15488,13.746282 C -597.30458,15.902092 -595.15338,15.597982 -593.30568,12.778082 C -592.40468,11.403082 -591.05468,10.278082 -590.30568,10.278082 C -589.55658,10.278082 -588.20658,11.403082 -587.30568,12.778082 C -581.30008,21.584082 -579.21538,1.7199115 -575.07298,12.078212 C -572.12808,15.841132 -570.64488,16.016712 -566.00858,13.151282 C -564.03968,11.934472 -562.19408,11.399632 -561.69488,11.901282 C -560.79968,12.801032 -560.06848,30.399122 -560.52218,31.456232 L -616.79728,31.999082 L -616.96708,16.841212 L -616.96708,16.841182 L -616.96708,16.841182 z M -448.21878,1.6318415 C -448.21878,1.6318415 -444.02278,1.5347415 -442.17738,1.4861815 C -437.79078,1.3707715 -436.29088,1.7494315 -434.95508,3.3095015 C -432.94078,5.6620515 -429.02338,5.8686815 -426.67788,3.7461015 C -425.23808,2.4430315 -424.30068,2.3966415 -420.41398,3.4361615 C -416.86668,4.3849415 -415.25868,4.3922015 -413.23148,3.4685615 C -409.96228,1.9790315 -406.04498,1.9334715 -405.15428,3.3746615 C -404.78168,3.9775315 -403.07428,4.2649315 -401.35998,4.0133315 C -399.42828,3.7298115 -396.81348,4.3011015 -394.48278,5.5159015 C -391.37558,7.1354915 -389.66388,7.3530715 -384.62818,6.7686115 C -379.04398,6.1205015 -378.44798,5.8148115 -377.50718,3.1160715 C -376.56727,0.41976151 -376.21568,0.23878151 -373.34707,0.97469151 C -371.62367,1.4168115 -366.06158,1.6462215 -360.98677,1.4844915 C -354.52208,1.2784615 -350.96007,1.6095015 -349.08798,2.5903915 C -347.08177,3.6415515 -345.46758,3.7495815 -342.60888,3.0239615 C -339.46197,2.2251915 -338.04538,2.4236515 -334.44188,4.1680615 C -329.12308,6.7428315 -328.03338,6.7706115 -324.21367,4.4285415 C -321.43038,2.7219415 -320.91137,2.7000315 -317.02767,4.1257615 C -313.13817,5.5536315 -312.59478,5.5294615 -309.35407,3.7842115 C -305.93998,1.9455715 -305.77787,1.9458615 -301.67278,3.7970115 C -297.49027,5.6830615 -297.46888,5.6821315 -293.60197,3.4566315 C -289.96148,1.3614415 -289.57417,1.3238415 -287.25987,2.8402515 C -285.59048,3.9340915 -284.19307,4.3068515 -282.13378,3.8544415 C -281.12017,3.6317715 -278.64667,3.4539615 -278.64667,3.4539615 L -278.73067,31.984322 L -448.47128,31.536612 L -448.21878,1.6318415 L -448.21878,1.6318415 z M -328.57098,-94.891588 L -313.42937,-140.78126 L -313.94467,-85.543378 L -328.57098,-94.891588 z"
         id="path2846" />
      <path
         id="path3845"
         d="M -418.91138,-53.040838 L -409.98278,-69.826548 L -380.33998,-43.040838 L -380.33998,-21.612268 L -418.91138,-53.040838 L -418.91138,-53.040838 z"
         style="fill:#ffffff;stroke:none;stroke-width:1px;marker:none;visibility:visible;display:inline;overflow:visible;enable-background:accumulate" />
      <path
         sodipodi:nodetypes="ccccc"
         id="path3847"
         d="M -336.41137,-72.683698 L -329.18558,-92.030688 L -314.75197,-81.190128 L -314.26858,-52.326548 L -336.41137,-72.683698 z"
         style="fill:#ffffff;stroke:none;stroke-width:1px;marker:none;visibility:visible;display:inline;overflow:visible;enable-background:accumulate" />
      <path
         sodipodi:nodetypes="cssssscc"
         id="rect3958"
         d="M -452.18258,175.72289 C -452.52088,176.06118 -453.29698,175.66989 -453.90138,174.84789 C -454.83408,173.57933 -456.20488,174.17522 -462.99518,178.75414 C -471.97418,184.809 -477.05638,189.66939 -476.05758,191.28539 C -475.05488,192.90798 -470.94198,192.60409 -469.43258,190.78539 C -467.45428,188.40171 -456.80288,180.37914 -455.62018,180.37914 C -455.05578,180.37914 -454.16048,179.59164 -453.62018,178.62914 L -452.18258,175.72289 z"
         style="fill:#ffffff;fill-opacity:1;stroke:none" />
      <g
         transform="translate(-1831.6441,-366.02998)"
         style="fill:#ffffff"
         id="g3938">
        <path
           style="fill:#ffffff"
           d="M 1243.1537,586.22115 C 1247.2527,584.66366 1249.0702,584.44081 1251.4144,585.2083 C 1253.0674,585.74949 1259.5063,586.08557 1265.7232,585.95514 L 1277.0265,585.718 L 1280.8953,577.02578 C 1299.8565,534.42507 1332.5978,506.94043 1369.4198,502.71394 C 1372.7198,502.33516 1375.9823,501.56352 1376.6698,500.99918 C 1378.4297,499.55456 1378.2899,494.218 1376.4922,494.218 C 1371.2485,494.218 1358.4936,496.78503 1353.4405,498.85736 L 1347.4198,501.32649 L 1343.2609,496.77608 C 1336.8333,489.74348 1334.4252,484.00611 1334.4223,475.718 C 1334.4223,468.29196 1335.8358,464.89957 1341.4144,458.968 C 1344.6926,455.48244 1346.518,455.48073 1347.3918,458.962 C 1348.3696,462.85758 1349.7742,464.21759 1352.8198,464.21759 C 1356.6298,464.21759 1359.6933,461.69758 1360.813,457.64235 C 1362.3058,452.23586 1360.6117,448.73092 1355.2514,446.13606 C 1351.3053,444.22579 1350.2606,444.09852 1346.8684,445.11484 C 1341.9136,446.59936 1333.4284,454.81372 1330.8659,460.60662 C 1325.6259,472.45251 1327.7339,486.20328 1336.6778,498.51801 C 1340.0203,503.12029 1340.0869,503.37715 1338.292,504.7413 C 1337.2623,505.52389 1335.6058,506.43993 1334.611,506.77696 C 1329.8471,508.39076 1312.1706,521.60664 1305.4154,528.605 C 1292.4191,542.06917 1281.2022,559.7594 1276.4936,574.21759 C 1274.5837,580.08222 1274.1345,580.6896 1271.8983,580.43129 C 1268.117,579.99449 1266.8085,580.03931 1261.7362,580.77937 C 1257.915,581.3369 1256.4171,581.07002 1253.6019,579.33009 L 1250.1512,577.19744 L 1243.2855,580.29572 C 1237.8067,582.76815 1235.4583,583.30464 1231.6597,582.95161 C 1229.0416,582.7083 1226.1166,581.82733 1225.1597,580.9939 C 1221.5118,577.8168 1219.4457,581.66793 1222.4765,585.99508 C 1223.8306,587.92833 1224.9355,588.21759 1230.9658,588.21759 C 1235.4736,588.21759 1239.7366,587.51914 1243.1537,586.22074 L 1243.1537,586.22115 L 1243.1537,586.22115 z"
           id="path3933" />
        <path
           style="fill:#ffffff"
           d="M 1321.0312,543.625 C 1316.4542,543.82973 1309.5913,551.96567 1309.4375,558.09375 C 1309.3705,560.75038 1308.2139,563.24424 1305.2188,567.21875 C 1298.6244,575.96961 1298.2852,581.65125 1304.1875,585.25 C 1308.3696,587.79993 1312.3633,587.75014 1316.0938,585.09375 L 1319.0938,582.9375 L 1322.9062,585.09375 C 1327.5838,587.72269 1332.1159,587.76494 1337.6562,585.25 C 1340.6079,583.91015 1341.7103,582.88026 1341.3125,581.84375 C 1340.8533,580.64695 1339.4169,580.4495 1333.9688,580.90625 C 1329.2535,581.30156 1326.9824,581.1123 1326.4688,580.28125 C 1326.0629,579.62435 1326.6889,576.85102 1327.875,574.09375 C 1330.9572,566.92906 1330.4137,565.17423 1324.6562,563.71875 C 1320.0885,562.56404 1315.9062,559.84557 1315.9062,558.03125 C 1315.9062,557.5542 1317.7062,555.23046 1319.9062,552.84375 C 1324.0766,548.31945 1325.0122,544.86774 1322.3438,543.84375 C 1321.929,543.6846 1321.5047,543.60382 1321.0312,543.625 L 1321.0312,543.625 z M 1315.4688,570.25 C 1317.3875,570.216 1319.162,570.66264 1319.5312,571.625 C 1320.2366,573.46299 1317.4521,578.79671 1315.375,579.59375 C 1312.8574,580.55985 1309.0969,580.32425 1308.375,579.15625 C 1307.461,577.67737 1308.6279,573.65331 1310.5,571.78125 C 1311.4864,570.79485 1313.55,570.28404 1315.4688,570.25 L 1315.4688,570.25 z"
           id="path3931" />
        <path
           style="fill:#ffffff"
           d="M 1375.9578,577.19077 C 1377.1115,575.36657 1377.1345,574.10496 1376.0458,572.38735 C 1375.3498,571.28945 1374.2712,571.33319 1369.8796,572.63735 C 1362.4331,574.84874 1358.1103,574.61547 1352.2294,571.68489 C 1346.7585,568.95864 1342.9532,564.30352 1340.9047,557.83113 C 1339.1244,552.20601 1340.0944,539.80082 1342.5742,536.4793 C 1346.1761,531.65505 1347.5069,531.42529 1351.1872,534.99232 C 1355.0538,538.73998 1357.6149,539.03244 1361.2851,536.14542 C 1365.4449,532.87335 1364.7292,525.71791 1359.9603,522.90088 C 1356.5332,520.87643 1349.1904,521.88759 1345.0518,524.95388 C 1340.6109,528.24418 1336.0182,535.07231 1334.3224,540.90578 C 1332.9722,545.55025 1332.8961,547.46514 1333.858,552.58934 C 1335.2793,560.16089 1340.4122,570.72499 1343.8502,573.15425 C 1351.7896,578.76431 1353.9116,579.35887 1364.7233,579.00283 C 1372.4297,578.74905 1375.2614,578.29232 1375.958,577.19077 L 1375.958,577.19077 L 1375.9578,577.19077 z"
           id="path3927" />
        <path
           style="fill:#ffffff"
           d="M 1319.202,511.85059 C 1323.2799,510.11771 1328.2249,505.52068 1327.4171,504.21358 C 1326.4572,502.6605 1322.3092,503.04395 1320.8334,504.82218 C 1318.7968,507.27609 1315.0821,508.37519 1312.8544,507.18296 C 1310.3711,505.85396 1310.4085,504.13774 1312.9924,500.85286 C 1314.6029,498.80545 1315.9406,498.218 1318.9924,498.218 C 1323.6473,498.218 1326.9198,495.48791 1326.9198,491.6045 C 1326.9198,489.30564 1326.5888,489.04783 1324.1698,489.46307 C 1322.6573,489.72271 1320.7143,490.24049 1319.8519,490.6137 C 1318.9193,491.01727 1317.1968,490.43709 1315.6012,489.182 C 1312.5811,486.80642 1312.6968,484.18295 1316.069,478.56648 L 1317.9612,475.41496 L 1315.2041,473.40651 C 1312.4822,471.42375 1312.4711,471.37133 1314.3384,469.30803 C 1315.3787,468.15851 1315.7798,467.218 1315.2298,467.218 C 1312.4226,467.218 1306.9779,477.59745 1306.9418,483.01766 C 1306.9298,484.83247 1307.6144,487.6605 1308.4634,489.30217 C 1309.8886,492.05834 1309.8621,492.49505 1308.1163,495.00251 C 1304.6642,499.96092 1303.7786,504.04424 1305.4531,507.2824 C 1307.0176,510.30765 1311.1761,513.10998 1314.202,513.17796 C 1315.1821,513.19996 1317.4321,512.60267 1319.202,511.85059 L 1319.202,511.85059 z"
           id="path3925" />
        <path
           style="fill:#ffffff"
           d="M 1373.6995,466.83194 C 1376.6376,465.31261 1377.8822,462.51371 1376.3162,460.94769 C 1375.4382,460.06965 1365.1788,467.30673 1359.3681,472.90307 C 1352.8187,479.21092 1349.2434,484.02011 1348.3541,487.718 C 1347.7369,490.28493 1349.2817,489.11415 1359.0559,479.60762 C 1365.3387,473.49691 1371.9283,467.74785 1373.6995,466.83194 L 1373.6995,466.83194 z"
           id="path3923" />
      </g>
      <rect
         style="fill:#fcf90b;fill-opacity:1;fill-rule:nonzero;stroke:#66697a;stroke-width:3;stroke-miterlimit:4;stroke-opacity:1;stroke-dasharray:none"
         id="rect3803"
         width="65.572998"
         height="7.4361134"
         x="-445.79587"
         y="151.27142"
         ry="0" />
      <path
         inkscape:connector-curvature="0"
         id="path2960"
         d="m -365.98585,91.128407 8.57139,43.214283 17.5,-42.857143 -8.21429,44.642863 30.35719,-29.64286 -22.49999,35 40.71429,-14.28571 -37.8572,23.21428 45.3572,1.07143 -43.92859,10.35714 38.57139,15.35715 -43.21429,-7.5 30.35719,31.78571 -34.2857,-23.92857 15.71431,40.35714 -24.2858,-35.71428 -0.7142,42.5 -9.6429,-43.57143 -17.14291,42.14285 8.5715,-45.71428 -30,31.07143 23.9285,-36.78572 -42.4999,18.92857 39.6428,-26.42857 -43.9285,-0.71428 41.7856,-8.21429 -38.9285,-16.42857 41.4285,8.21429 -31.4285,-32.14286 35.71431,22.85714 -14.64291,-38.571434 23.21431,36.428574 1.7857,-44.642853 0,0 z"
         style="fill:#fcf90b;fill-opacity:1;stroke:#66697a;stroke-width:2.20000005;stroke-linecap:butt;stroke-linejoin:miter;stroke-miterlimit:4;stroke-opacity:1;stroke-dasharray:none;stroke-dashoffset:0;marker:none;visibility:visible;display:inline;overflow:visible;enable-background:accumulate" />
      <g
         transform="matrix(1.6934746,0,0,1.6914087,-736.46264,-944.40244)"
         style="font-size:20px;font-style:normal;font-variant:normal;font-weight:bold;font-stretch:normal;line-height:125%;letter-spacing:0px;word-spacing:0px;fill:#666a76;fill-opacity:1;stroke:none;font-family:Sitka Heading;-inkscape-font-specification:Sitka Heading Bold"
         id="flowRoot3830">
        <path
           d="m 90.835083,719.17163 c 0.918374,-0.61035 1.71834,-1.14522 2.399902,-1.60461 0.681556,-0.45939 1.244503,-0.88908 1.688843,-1.28907 0.444331,-0.39997 0.774734,-0.79548 0.991211,-1.18652 0.216465,-0.39103 0.324701,-0.82071 0.324707,-1.28906 -6e-6,-0.24861 -0.02818,-0.48258 -0.08453,-0.70191 -0.05636,-0.21931 -0.145269,-0.40892 -0.266723,-0.56884 -0.121466,-0.15991 -0.271104,-0.28879 -0.448914,-0.38666 -0.177821,-0.0978 -0.388189,-0.14678 -0.631103,-0.14679 -0.183924,1e-5 -0.373642,0.0252 -0.569153,0.0757 -0.19552,0.0505 -0.392562,0.12015 -0.591126,0.20905 -0.198571,0.0889 -0.397037,0.19115 -0.595398,0.3067 -0.198367,0.11557 -0.390933,0.23703 -0.577697,0.36438 -0.18677,0.12737 -0.366112,0.25768 -0.538025,0.39093 -0.171918,0.13327 -0.331932,0.2591 -0.480042,0.3775 l -0.39978,0 -0.257568,-1.97326 c 0.165607,-0.083 0.380349,-0.18524 0.644226,-0.30671 0.263873,-0.12145 0.566099,-0.23548 0.906677,-0.3421 0.340573,-0.1066 0.716855,-0.19988 1.128845,-0.27984 0.411983,-0.08 0.849096,-0.11993 1.31134,-0.11994 0.557043,10e-6 1.090388,0.0548 1.600037,0.16449 0.509637,0.10967 0.959974,0.27853 1.351013,0.50659 0.391024,0.22808 0.702099,0.51545 0.933228,0.86212 0.231111,0.34669 0.34667,0.754 0.34668,1.22193 -10e-6,0.40324 -0.05484,0.76925 -0.16449,1.09802 -0.109669,0.32878 -0.272633,0.63538 -0.488892,0.9198 -0.216276,0.28443 -0.482898,0.54963 -0.799866,0.79559 -0.316983,0.24598 -0.681464,0.489 -1.093444,0.72907 -0.411994,0.24007 -0.871283,0.4831 -1.377869,0.72906 -0.506597,0.24598 -1.056116,0.50812 -1.64856,0.78644 l 0,0.0537 1.386109,-0.0714 3.191528,0 c 0.177808,0 0.309643,-0.0445 0.395508,-0.13336 0.08585,-0.0889 0.152579,-0.19256 0.200195,-0.31097 l 0.36438,-1.0669 0.773316,0 -0.159913,3.60901 -8.764648,0 z"
           style=""
           id="path3879" />
        <path
           d="m 101.61633,719.17163 c 0.91838,-0.61035 1.71834,-1.14522 2.39991,-1.60461 0.68155,-0.45939 1.2445,-0.88908 1.68884,-1.28907 0.44433,-0.39997 0.77473,-0.79548 0.99121,-1.18652 0.21646,-0.39103 0.3247,-0.82071 0.32471,-1.28906 -1e-5,-0.24861 -0.0282,-0.48258 -0.0845,-0.70191 -0.0564,-0.21931 -0.14527,-0.40892 -0.26672,-0.56884 -0.12147,-0.15991 -0.2711,-0.28879 -0.44891,-0.38666 -0.17783,-0.0978 -0.38819,-0.14678 -0.63111,-0.14679 -0.18392,1e-5 -0.37364,0.0252 -0.56915,0.0757 -0.19552,0.0505 -0.39256,0.12015 -0.59113,0.20905 -0.19857,0.0889 -0.39703,0.19115 -0.59539,0.3067 -0.19837,0.11557 -0.39094,0.23703 -0.5777,0.36438 -0.18677,0.12737 -0.36611,0.25768 -0.53803,0.39093 -0.17191,0.13327 -0.33193,0.2591 -0.48004,0.3775 l -0.39978,0 -0.25757,-1.97326 c 0.16561,-0.083 0.38035,-0.18524 0.64423,-0.30671 0.26387,-0.12145 0.5661,-0.23548 0.90668,-0.3421 0.34057,-0.1066 0.71685,-0.19988 1.12884,-0.27984 0.41198,-0.08 0.8491,-0.11993 1.31134,-0.11994 0.55704,10e-6 1.09039,0.0548 1.60004,0.16449 0.50963,0.10967 0.95997,0.27853 1.35101,0.50659 0.39102,0.22808 0.7021,0.51545 0.93323,0.86212 0.23111,0.34669 0.34667,0.754 0.34668,1.22193 -1e-5,0.40324 -0.0548,0.76925 -0.16449,1.09802 -0.10967,0.32878 -0.27263,0.63538 -0.48889,0.9198 -0.21628,0.28443 -0.4829,0.54963 -0.79987,0.79559 -0.31698,0.24598 -0.68146,0.489 -1.09344,0.72907 -0.412,0.24007 -0.87129,0.4831 -1.37787,0.72906 -0.5066,0.24598 -1.05612,0.50812 -1.64856,0.78644 l 0,0.0537 1.38611,-0.0714 3.19153,0 c 0.1778,0 0.30964,-0.0445 0.3955,-0.13336 0.0858,-0.0889 0.15258,-0.19256 0.2002,-0.31097 l 0.36438,-1.0669 0.77331,0 -0.15991,3.60901 -8.76465,0 z"
           style=""
           id="path3881" />
        <path
           d="m 117.25537,714.73621 5.19104,0 0,1.88415 -5.19104,0 z"
           style=""
           id="path3883" />
        <path
           d="m 128.19897,719.96265 0.92408,-0.38208 c 0.13631,-0.0651 0.26224,-0.14954 0.3778,-0.2533 0.11556,-0.10376 0.21485,-0.21199 0.29786,-0.32471 l 3.39538,-4.32861 -3.36853,-5.05798 c -0.0651,-0.0948 -0.15106,-0.19408 -0.25787,-0.29785 -0.10681,-0.10375 -0.21047,-0.17333 -0.31098,-0.20875 l -0.93322,-0.32897 0,-0.63111 5.70617,0 0,0.63111 -1.39526,0.43579 1.81335,2.76428 0.59571,1.04004 0.0177,0 2.72888,-3.69812 -1.29761,-0.54199 0,-0.63111 4.10645,0 0,0.63111 -0.88013,0.38208 c -0.11842,0.0533 -0.23835,0.13479 -0.3598,0.24444 -0.12147,0.10967 -0.22371,0.21781 -0.3067,0.3244 l -3.28003,4.22242 3.44909,5.16418 c 0.0708,0.10702 0.15655,0.20793 0.25727,0.30273 0.10069,0.0948 0.20455,0.16297 0.31158,0.20447 l 0.93323,0.33753 0,0.6311 -5.69763,0 0,-0.6311 1.39526,-0.43579 -1.90247,-2.89734 -0.58654,-1.0315 -0.0177,0 -2.8534,3.83118 1.27137,0.53345 0,0.6311 -4.13331,0 z"
           style=""
           id="path3885" />
        <path
           d="m 141.2196,719.96265 1.25367,-0.39978 c 0.1184,-0.0415 0.21168,-0.10234 0.27984,-0.1825 0.0682,-0.0802 0.10223,-0.18534 0.10224,-0.31555 l 0,-9.39575 c -10e-6,-0.1302 -0.0386,-0.23681 -0.11566,-0.31983 -0.0771,-0.083 -0.16592,-0.13935 -0.26642,-0.16906 l -1.25367,-0.39978 0,-0.63111 5.96436,0 0,0.63111 -1.24451,0.39978 c -0.10661,0.0297 -0.19989,0.0876 -0.27984,0.17364 -0.08,0.0861 -0.11994,0.19115 -0.11994,0.31525 l 0,9.39575 c 0,0.13631 0.0385,0.24445 0.11566,0.3244 0.0771,0.08 0.17181,0.13784 0.28412,0.17365 l 1.24451,0.39978 0,0.6311 -5.96436,0 z"
           style=""
           id="path3887" />
        <path
           d="m 148.25085,719.96265 1.25367,-0.39978 c 0.1184,-0.0415 0.21168,-0.10234 0.27984,-0.1825 0.0682,-0.0802 0.10223,-0.18534 0.10224,-0.31555 l 0,-9.39575 c -10e-6,-0.1302 -0.0386,-0.23681 -0.11566,-0.31983 -0.0771,-0.083 -0.16592,-0.13935 -0.26642,-0.16906 l -1.25367,-0.39978 0,-0.63111 5.96436,0 0,0.63111 -1.24451,0.39978 c -0.10661,0.0297 -0.19989,0.0876 -0.27984,0.17364 -0.08,0.0861 -0.11994,0.19115 -0.11994,0.31525 l 0,9.39575 c 0,0.13631 0.0385,0.24445 0.11566,0.3244 0.0771,0.08 0.17181,0.13784 0.28412,0.17365 l 1.24451,0.39978 0,0.6311 -5.96436,0 z"
           style=""
           id="path3889" />
      </g>
      <text
         xml:space="preserve"
         style="font-size:20px;font-style:normal;font-variant:normal;font-weight:normal;font-stretch:normal;line-height:125%;letter-spacing:0px;word-spacing:0px;fill:#000000;fill-opacity:1;stroke:none;font-family:Sitka Subheading;-inkscape-font-specification:Sans"
         x="277.24664"
         y="721.68262"
         id="text3838"
         sodipodi:linespacing="125%"
         transform="translate(-672.53935,-456.69391)"><tspan
           sodipodi:role="line"
           id="tspan3840"></tspan></text>
      <g
         transform="matrix(1.8361713,0,0,1.6914087,-563.09372,-946.17358)"
         style="font-size:20px;font-style:normal;font-variant:normal;font-weight:bold;font-stretch:normal;line-height:125%;letter-spacing:0px;word-spacing:0px;fill:#666a76;fill-opacity:1;stroke:none;font-family:Sitka Heading;-inkscape-font-specification:Sitka Heading Bold"
         id="flowRoot3830-1">
        <path
           d="m 90.98584,719.98035 1.689453,-0.42664 c 0.118405,-0.0297 0.210161,-0.0845 0.275269,-0.16449 0.0651,-0.08 0.09765,-0.18504 0.09766,-0.31525 l 0,-5.11108 0.04455,-1.21826 -0.0531,0 -2.346802,0.45349 0,-0.6488 3.404541,-1.60889 1.617432,0 c -0.01181,0.19573 -0.02218,0.4121 -0.03113,0.64911 -0.009,0.23703 -0.01638,0.48147 -0.02228,0.73334 -0.0059,0.25188 -0.01028,0.50365 -0.01312,0.75531 -0.0029,0.25167 -0.0043,0.48127 -0.0043,0.68878 l 0,5.307 c -6e-6,0.13021 0.03255,0.2353 0.09766,0.31525 0.0651,0.08 0.154006,0.13479 0.266724,0.16449 l 1.582031,0.42664 0,0.6134 -6.604614,0 z"
           style=""
           id="path3870" />
        <path
           d="m 103.71045,720.87817 c -0.75277,0 -1.41948,-0.0859 -2.00012,-0.25787 -0.58065,-0.17192 -1.07107,-0.40751 -1.47126,-0.70679 -0.400184,-0.29927 -0.703936,-0.6489 -0.91125,-1.04889 -0.207317,-0.39998 -0.310975,-0.83109 -0.310974,-1.29333 -10e-7,-0.37923 0.06663,-0.72581 0.19989,-1.03973 0.133259,-0.31392 0.328774,-0.59835 0.586548,-0.85328 0.257766,-0.25491 0.576376,-0.48166 0.955806,-0.68023 0.37944,-0.19857 0.81492,-0.37475 1.30646,-0.52857 -0.43823,-0.20751 -0.81889,-0.42978 -1.14197,-0.66681 -0.32308,-0.23701 -0.58828,-0.48888 -0.79559,-0.75561 -0.207317,-0.26672 -0.361329,-0.54972 -0.462035,-0.849 -0.10071,-0.29927 -0.151064,-0.61472 -0.151062,-0.94635 -2e-6,-0.48624 0.112506,-0.9441 0.337524,-1.3736 0.225013,-0.42947 0.539043,-0.80423 0.942073,-1.12426 0.40304,-0.32002 0.8846,-0.57484 1.44471,-0.76447 0.56009,-0.1896 1.18072,-0.28441 1.86187,-0.28442 0.65185,10e-6 1.24003,0.0785 1.76453,0.23559 0.52449,0.15708 0.96892,0.3704 1.33331,0.63996 0.36437,0.26958 0.64585,0.5895 0.84442,0.95977 0.19856,0.37029 0.29785,0.76885 0.29786,1.19568 -1e-5,0.33204 -0.0474,0.63874 -0.14222,0.92011 -0.0948,0.28138 -0.24445,0.54352 -0.44891,0.78643 -0.20448,0.24293 -0.46225,0.46663 -0.77331,0.67109 -0.31109,0.20447 -0.68289,0.39276 -1.11542,0.56488 0.50373,0.18962 0.93932,0.39999 1.30676,0.6311 0.36742,0.23113 0.66812,0.48737 0.9021,0.76874 0.23396,0.28138 0.4073,0.58798 0.52002,0.9198 0.1127,0.33183 0.16906,0.69041 0.16907,1.07574 -1e-5,0.50945 -0.11852,0.99386 -0.35553,1.45325 -0.23703,0.45939 -0.57629,0.86385 -1.01776,1.21338 -0.4415,0.34953 -0.9719,0.62652 -1.59119,0.83099 -0.61931,0.20447 -1.31409,0.3067 -2.08435,0.3067 z m 1.39526,-7.53784 c 0.11271,-0.16601 0.20752,-0.3305 0.28443,-0.49347 0.0769,-0.16295 0.14057,-0.33477 0.19104,-0.51544 0.0504,-0.18065 0.0861,-0.38065 0.10681,-0.59997 0.0207,-0.21932 0.0311,-0.47404 0.0311,-0.76416 -1e-5,-0.29052 -0.037,-0.5662 -0.11109,-0.82703 -0.0741,-0.26081 -0.18515,-0.48898 -0.33325,-0.68451 -0.14812,-0.19551 -0.33336,-0.34952 -0.55572,-0.46204 -0.22238,-0.11249 -0.48758,-0.16875 -0.7956,-0.16876 -0.27263,1e-5 -0.51707,0.0488 -0.73334,0.14649 -0.21627,0.0977 -0.40141,0.23103 -0.55542,0.40008 -0.15401,0.16908 -0.27405,0.36917 -0.3601,0.60028 -0.0861,0.23113 -0.1291,0.47995 -0.12909,0.74646 -1e-5,0.31414 0.0534,0.58676 0.16022,0.81787 0.1068,0.23113 0.27719,0.44587 0.51116,0.64423 0.23397,0.19837 0.54057,0.38941 0.9198,0.57312 0.37923,0.18372 0.83557,0.37934 1.36902,0.58685 z m -1.18225,6.43555 c 0.35563,0 0.66975,-0.0562 0.94238,-0.16876 0.27262,-0.11251 0.50222,-0.26652 0.68879,-0.46204 0.18655,-0.19551 0.33019,-0.42663 0.4309,-0.69336 0.1007,-0.26672 0.15106,-0.55715 0.15107,-0.87128 -1e-5,-0.34382 -0.0682,-0.64167 -0.20447,-0.89355 -0.13632,-0.25187 -0.34374,-0.48004 -0.62225,-0.68451 -0.27854,-0.20446 -0.62816,-0.4015 -1.04889,-0.59113 -0.42075,-0.18961 -0.91248,-0.39387 -1.47522,-0.61279 -0.35564,0.31373 -0.62979,0.66916 -0.82245,1.06629 -0.19267,0.39714 -0.28901,0.86243 -0.289,1.39587 -10e-6,0.37313 0.0519,0.71228 0.15564,1.01746 0.10375,0.30517 0.25492,0.56885 0.45349,0.79101 0.19856,0.22217 0.43558,0.39551 0.71106,0.52002 0.27546,0.12451 0.58511,0.18677 0.92895,0.18677 z"
           style=""
           id="path3872" />
        <path
           d="m 113.69214,724.05139 c -0.32024,0 -0.61219,-0.0147 -0.87586,-0.0442 -0.26367,-0.0295 -0.50211,-0.0679 -0.71533,-0.11536 -0.21322,-0.0474 -0.40873,-0.0963 -0.58655,-0.14678 -0.17781,-0.0505 -0.33793,-0.0995 -0.48034,-0.1471 l 0.25818,-2.03552 0.41748,0 c 0.14811,0.083 0.33182,0.18381 0.55114,0.30243 0.21932,0.11861 0.46082,0.23274 0.72449,0.3424 0.26367,0.10966 0.54372,0.20294 0.84015,0.27985 0.29642,0.0769 0.5956,0.11535 0.89752,0.11536 0.31412,-1e-5 0.57932,-0.0607 0.7956,-0.18219 0.21626,-0.12146 0.3956,-0.26805 0.53802,-0.43976 0.083,-0.10091 0.17486,-0.23723 0.27557,-0.40894 0.10071,-0.17171 0.20436,-0.40283 0.31098,-0.69336 0.1066,-0.29052 0.20588,-0.65205 0.29785,-1.08459 0.0919,-0.43254 0.16743,-0.95093 0.22644,-1.55518 0.006,-0.0358 0.0136,-0.0833 0.0226,-0.14251 0.009,-0.0592 0.0164,-0.12136 0.0223,-0.18647 0.006,-0.0651 0.0147,-0.12878 0.0266,-0.19104 0.0118,-0.0623 0.0177,-0.11128 0.0177,-0.14709 l -0.0354,-0.0177 c -0.26693,0.36174 -0.53366,0.65511 -0.80017,0.88013 -0.26653,0.22501 -0.53315,0.39835 -0.79987,0.52002 -0.26672,0.12166 -0.5305,0.20314 -0.79132,0.24444 -0.26082,0.0413 -0.5186,0.062 -0.77331,0.062 -0.48015,0 -0.93944,-0.0918 -1.37787,-0.27527 -0.43844,-0.18351 -0.82357,-0.44718 -1.1554,-0.79101 -0.33182,-0.34383 -0.59702,-0.76019 -0.79559,-1.24909 -0.19857,-0.48888 -0.29785,-1.03545 -0.29785,-1.63971 0,-0.61645 0.12003,-1.19282 0.36011,-1.72912 0.24007,-0.53629 0.57342,-1.00443 1.00006,-1.40442 0.42663,-0.39998 0.9318,-0.714 1.5155,-0.94208 0.5837,-0.22806 1.22223,-0.34209 1.91559,-0.3421 0.78206,10e-6 1.46941,0.13479 2.06207,0.40436 0.59265,0.26958 1.08601,0.65176 1.4801,1.14654 0.39408,0.4948 0.69183,1.0903 0.89325,1.7865 0.20141,0.69621 0.30212,1.46811 0.30213,2.31568 -1e-5,0.74666 -0.0637,1.42669 -0.19104,2.0401 -0.12737,0.6134 -0.30214,1.17045 -0.52429,1.67114 -0.22218,0.50069 -0.4888,0.94808 -0.79987,1.34216 -0.31108,0.39408 -0.65644,0.74229 -1.03607,1.04462 -0.24293,0.20711 -0.50212,0.3951 -0.77759,0.56396 -0.27548,0.16886 -0.56875,0.31708 -0.87982,0.44464 -0.31108,0.12756 -0.63701,0.22685 -0.97778,0.29786 -0.34079,0.071 -0.70079,0.1065 -1.08002,0.1065 z m 1.52893,-6.33789 c 0.17171,0 0.348,-0.0163 0.52887,-0.0488 0.18086,-0.0326 0.35868,-0.0859 0.53345,-0.15991 0.17475,-0.0741 0.34362,-0.16886 0.50659,-0.28442 0.16295,-0.11556 0.31259,-0.2592 0.44891,-0.43091 0.006,-0.083 0.0115,-0.16449 0.0174,-0.24445 0.006,-0.08 0.0104,-0.16001 0.0134,-0.24017 0.003,-0.0802 0.005,-0.16316 0.005,-0.24902 -10e-6,-0.0859 -10e-6,-0.17314 0,-0.26184 -10e-6,-0.64616 -0.0607,-1.20768 -0.18219,-1.68458 -0.12147,-0.47688 -0.2829,-0.87096 -0.48431,-1.18225 -0.20142,-0.31127 -0.43549,-0.54391 -0.70221,-0.69793 -0.26673,-0.15401 -0.54536,-0.23101 -0.83588,-0.23102 -0.61605,1e-5 -1.08856,0.24893 -1.41754,0.74676 -0.32898,0.49785 -0.49347,1.21186 -0.49347,2.14203 0,0.94239 0.17629,1.64908 0.52887,2.12006 0.35258,0.47099 0.86375,0.70648 1.53351,0.70648 z"
           style=""
           id="path3874" />
        <path
           d="m 121.92334,719.98035 1.68945,-0.42664 c 0.11841,-0.0297 0.21016,-0.0845 0.27527,-0.16449 0.0651,-0.08 0.0977,-0.18504 0.0977,-0.31525 l 0,-5.11108 0.0446,-1.21826 -0.0531,0 -2.3468,0.45349 0,-0.6488 3.40454,-1.60889 1.61743,0 c -0.0118,0.19573 -0.0222,0.4121 -0.0311,0.64911 -0.009,0.23703 -0.0164,0.48147 -0.0223,0.73334 -0.006,0.25188 -0.0103,0.50365 -0.0131,0.75531 -0.003,0.25167 -0.004,0.48127 -0.004,0.68878 l 0,5.307 c 0,0.13021 0.0326,0.2353 0.0977,0.31525 0.0651,0.08 0.15401,0.13479 0.26672,0.16449 l 1.58203,0.42664 0,0.6134 -6.60461,0 z"
           style=""
           id="path3876" />
      </g>
    </g>
  </g>
</svg>
