<?xml version="1.0" encoding="UTF-8" standalone="no"?>
<!-- Created with Inkscape (http://www.inkscape.org/) -->
<svg
   xmlns:dc="http://purl.org/dc/elements/1.1/"
   xmlns:cc="http://creativecommons.org/ns#"
   xmlns:rdf="http://www.w3.org/1999/02/22-rdf-syntax-ns#"
   xmlns:svg="http://www.w3.org/2000/svg"
   xmlns="http://www.w3.org/2000/svg"
   xmlns:sodipodi="http://sodipodi.sourceforge.net/DTD/sodipodi-0.dtd"
   xmlns:inkscape="http://www.inkscape.org/namespaces/inkscape"
   width="164"
   height="238.36"
   id="svg3650"
   sodipodi:version="0.32"
   inkscape:version="0.46"
   version="1.0"
   sodipodi:docname="Escudo de Lolol.svg"
   inkscape:output_extension="org.inkscape.output.svg.inkscape">
  <defs
     id="defs3652">
    <inkscape:perspective
       sodipodi:type="inkscape:persp3d"
       inkscape:vp_x="0 : 526.18109 : 1"
       inkscape:vp_y="0 : 1000 : 0"
       inkscape:vp_z="744.09448 : 526.18109 : 1"
       inkscape:persp3d-origin="372.04724 : 350.78739 : 1"
       id="perspective3658" />
  </defs>
  <sodipodi:namedview
     id="base"
     pagecolor="#ffffff"
     bordercolor="#666666"
     borderopacity="1.0"
     inkscape:pageopacity="0.0"
     inkscape:pageshadow="2"
     inkscape:zoom="2.3058495"
     inkscape:cx="82"
     inkscape:cy="80.062224"
     inkscape:document-units="px"
     inkscape:current-layer="layer1"
     showgrid="false"
     inkscape:window-width="640"
     inkscape:window-height="667"
     inkscape:window-x="44"
     inkscape:window-y="58" />
  <metadata
     id="metadata3655">
    <rdf:RDF>
      <cc:Work
         rdf:about="">
        <dc:format>image/svg+xml</dc:format>
        <dc:type
           rdf:resource="http://purl.org/dc/dcmitype/StillImage" />
      </cc:Work>
    </rdf:RDF>
  </metadata>
  <g
     inkscape:label="Capa 1"
     inkscape:groupmode="layer"
     id="layer1">
    <path
       style="fill:#ff0000;fill-rule:evenodd;stroke:#000000;stroke-width:1.04942513px;stroke-linecap:butt;stroke-linejoin:miter;stroke-opacity:1"
       d="M 34.271848,90.489003 L 36.30897,101.53699 L 31.895204,110.91103 L 26.462876,114.92848 L 26.123351,221.72564 L 31.216166,226.41266 L 78.40954,228.75617 L 86.218513,234.44756 L 93.008925,229.76053 L 136.46757,229.09097 L 141.8999,223.39958 L 141.8999,106.22401 L 134.09093,94.171666 L 113.71968,93.836876 L 98.441253,98.858682 L 85.199952,104.55006 L 73.995762,103.21093 L 66.865837,96.515168 L 54.643085,100.53263 L 52.605964,92.162934 L 32.234727,91.493364"
       id="path3535" />
    <path
       style="fill:#000000"
       d="M 83.074502,233.88211 L 79.904049,230.53491 L 55.597244,229.81145 C 42.228501,229.41355 30.452974,228.8523 29.429415,228.56424 C 24.582669,227.20019 24.421124,225.29064 24.421124,169.36217 C 24.421124,127.91252 24.702682,116.68628 25.742147,116.69036 C 26.744549,116.69429 27.102302,121.2813 27.225422,135.7084 C 27.31467,146.16547 27.68388,169.72725 28.045882,188.06794 L 28.704089,221.41464 L 31.339602,224.01985 C 33.952457,226.60266 34.172645,226.62954 56.939583,227.1461 C 78.656751,227.63885 80.086107,227.7952 83.256063,230.02477 C 86.601705,232.37791 86.614767,232.3786 90.125378,230.3841 C 93.191744,228.64201 96.408274,228.32757 115.21457,227.93155 C 136.15358,227.4906 136.84396,227.40726 138.74645,225.09053 C 140.60953,222.8218 140.6925,219.90126 140.42455,166.02073 C 140.17627,116.09731 140.3317,109.3736 141.72788,109.63895 C 143.10946,109.90154 143.34479,117.03373 143.55972,165.15641 C 143.71999,201.03779 143.42351,221.52931 142.71305,223.67597 C 140.77125,229.54321 140.11664,229.70675 116.31119,230.27236 L 94.38133,230.7934 L 90.313143,234.01135 L 86.244955,237.22931 L 83.074502,233.88211 z"
       id="path3533" />
    <path
       style="fill:#ff8c00;fill-rule:evenodd;stroke:#000000;stroke-width:1.04942513px;stroke-linecap:butt;stroke-linejoin:miter;stroke-opacity:1"
       d="M 58.263119,9.8438586 L 50.225219,12.485803 L 42.985405,22.322851 L 44.638584,30.248694 L 50.909296,34.18351 L 56.210886,34.633201 L 62.595606,31.878827 L 65.046885,30.642175 L 71.203576,34.295931 L 73.882873,37.218937 L 76.733194,35.307743 L 74.509946,25.021004 L 65.502932,12.260953 L 58.719168,9.8438586 L 53.018525,11.361571 L 48.115979,14.621847"
       id="path2522" />
    <path
       style="fill:#000000"
       d="M 70.809806,38.159679 C 71.645971,36.825592 66.668983,31.898439 64.485228,31.898439 C 63.566484,31.898439 61.666094,32.64059 60.262143,33.547673 C 56.548085,35.947301 52.333475,36.208333 47.861044,34.315741 C 42.852764,32.196391 39.663404,25.343321 41.818277,21.331464 C 46.477278,12.657497 51.614606,8.9725823 59.04844,8.9725823 C 63.52978,8.9725823 64.068652,9.3111139 69.757258,15.700196 C 74.332432,20.838735 76.116447,23.821774 77.310207,28.329446 C 78.827553,34.058993 78.804198,34.303423 76.509413,36.712056 C 74.245827,39.087936 69.467299,40.301621 70.809806,38.159679 z M 72.672373,26.788881 C 71.57247,25.300533 70.36291,23.262164 69.984463,22.259157 C 69.38641,20.674086 67.116419,19.604301 67.116419,20.907512 C 67.116419,22.237045 69.688278,26.688017 70.456513,26.688017 C 70.944455,26.688017 71.343689,27.625892 71.343689,28.772185 C 71.343689,31.873084 69.472023,31.297917 67.104837,27.46958 L 65.010689,24.082806 L 65.006736,26.878312 C 65.004189,28.680836 65.694185,29.890207 66.949261,30.282999 C 68.019829,30.61804 70.040993,32.100374 71.440737,33.577048 L 73.985733,36.261927 L 74.328977,32.878435 C 74.543924,30.759565 73.924755,28.483528 72.672373,26.788881 z M 58.535852,32.15896 C 61.450544,29.766542 61.864774,25.762291 59.356048,24.230261 C 57.746325,23.247221 57.127685,23.447759 55.792491,25.385411 C 53.873733,28.169924 52.786501,28.345233 51.880152,26.016268 C 50.83086,23.319979 54.258552,20.439897 58.56147,20.402361 C 62.136789,20.371182 62.239417,20.27875 60.302544,18.834348 C 57.979512,17.101986 55.349738,17.622008 50.939098,20.685902 C 47.340709,23.185582 45.783509,22.272904 48.981091,19.538328 C 50.236769,18.46445 51.264154,17.060189 51.264154,16.417743 C 51.264154,15.775298 52.334182,15.361362 53.641994,15.497896 C 55.078167,15.647821 55.915208,15.230278 55.755629,14.443525 C 55.389231,12.637093 57.070078,12.812789 58.701794,14.751472 C 59.447336,15.637275 60.687237,16.123668 61.457118,15.832353 C 62.226999,15.541049 63.356462,16.223114 63.967028,17.348064 C 64.577593,18.473005 65.548196,19.393425 66.123919,19.393425 C 66.699652,19.393425 66.467564,18.052659 65.608171,16.41395 C 61.917732,9.3769215 52.559793,9.9567685 46.967567,17.568976 C 43.013547,22.951258 43.003836,26.599147 46.932481,30.746143 C 50.470062,34.480337 55.031107,35.035685 58.535852,32.15896 z"
       id="path2520" />
    <path
       style="fill:#d3d3d3;fill-rule:evenodd;stroke:#000000;stroke-width:1.04942513px;stroke-linecap:butt;stroke-linejoin:miter;stroke-opacity:1"
       d="M 46.496291,84.387864 L 51.391956,78.594979 L 69.016334,76.939868 L 69.016334,73.767565 L 61.463025,63.423116 L 62.302286,47.975404 L 76.849392,35.975844 L 81.325426,33.769032 L 92.655388,41.354959 L 98.110543,50.182216 L 97.690923,61.216305 L 93.77439,72.250383 L 95.173151,76.801937 L 100.34856,75.836457 L 105.10436,77.353638 L 112.37791,73.629634 L 114.33617,84.387864 L 113.49692,78.181198 L 110.1399,78.870829 L 107.90188,86.042975 L 110.55953,94.594381 L 85.801462,105.62845 L 71.673976,103.14579 L 65.379561,97.904602 L 57.686383,99.008013 L 52.790718,99.559713 L 55.028729,85.629205 L 51.112206,82.732752 L 49.293814,87.698075 L 46.21654,83.560313"
       id="path2529" />
    <path
       style="fill:#000000"
       d="M 69.494523,103.37916 C 64.646752,99.639527 62.602729,98.539356 62.589371,99.662567 C 62.582735,100.21994 59.475078,101.44788 58.071085,101.44788 C 57.448873,101.44788 56.939783,101.66625 56.939783,101.93314 C 56.939783,102.20002 56.445023,102.57098 55.840312,102.75747 C 55.235591,102.94396 54.402871,103.23609 53.989814,103.40664 C 53.53793,103.59322 52.719371,102.71976 51.934621,101.21359 C 50.515125,98.489169 50.661463,96.979265 52.645552,93.877927 C 54.566562,90.875224 54.016837,84.968106 51.816395,84.968106 C 51.555614,84.968106 51.156603,85.833297 50.929714,86.890742 C 50.571326,88.561078 50.279032,88.813377 48.702292,88.813377 C 47.704084,88.813377 46.887377,88.566184 46.887377,88.264053 C 46.887377,87.961921 46.180566,87.714727 45.316691,87.714727 C 43.524646,87.714727 43.402236,87.334326 44.708398,85.82444 C 45.215734,85.237964 45.63083,84.43111 45.63083,84.031429 C 45.63083,82.825955 48.266375,79.69739 50.316654,78.469064 C 51.995357,77.463338 53.15292,77.316456 59.361395,77.321395 C 66.076626,77.326742 68.248756,76.90353 68.248756,75.589847 C 68.248756,75.03104 64.6134,70.273716 63.886033,69.880664 C 63.596613,69.724278 62.587871,68.30551 61.644365,66.727837 C 60.05731,64.074033 59.923666,63.343928 59.858692,56.972636 C 59.791478,50.381255 59.862898,49.976362 61.524057,47.531623 C 62.478617,46.126768 64.495617,44.025592 66.006263,42.862355 C 71.389058,38.717444 74.440534,36.627418 75.109384,36.627418 C 75.482663,36.627418 75.788062,36.440572 75.788062,36.212188 C 75.788062,35.983816 76.706912,35.447424 77.82996,35.020211 C 78.952998,34.593009 80.059021,33.997071 80.28779,33.695909 C 80.516538,33.394757 81.616262,33.148356 82.731607,33.148356 C 84.246618,33.148356 85.174272,33.589554 86.399461,34.892837 C 87.301445,35.852304 88.392841,36.635099 88.824784,36.632369 C 89.256716,36.629649 89.610126,36.823518 89.610126,37.063186 C 89.610126,37.302867 91.043805,38.971441 92.796082,40.771142 C 94.54836,42.570843 96.952693,45.843102 98.139024,48.042828 C 100.17231,51.812996 100.27267,52.269719 99.889316,56.008052 C 99.665654,58.189206 98.818284,61.704157 98.006288,63.819057 C 97.194283,65.933967 96.527937,68.294694 96.525539,69.065117 C 96.523129,69.835552 96.216336,70.732421 95.843765,71.058177 C 95.471194,71.383922 95.259154,72.360354 95.37255,73.228016 C 95.561551,74.674084 95.814395,74.819914 98.405987,74.977592 C 99.960957,75.072203 101.50182,75.38119 101.83009,75.664242 C 102.86829,76.559434 104.55428,76.229249 107.61719,74.530912 C 109.25181,73.624528 111.39557,72.882939 112.38109,72.882939 C 114.4073,72.882939 117.25428,75.176244 117.25428,76.808429 C 117.25428,77.368571 117.53699,77.826869 117.88254,77.826869 C 118.98894,77.826869 118.59779,81.766594 117.41135,82.572918 C 116.36747,83.282337 116.37066,83.359952 117.47427,84.107574 C 119.45603,85.450081 118.09194,86.216221 114.43179,85.816385 C 111.79145,85.527945 111.05957,85.623119 110.76551,86.293117 C 110.56345,86.75353 110.6685,87.276324 110.99895,87.454885 C 111.32942,87.633466 111.5998,88.862772 111.5998,90.186688 C 111.5998,91.510614 111.88252,92.746599 112.22807,92.93332 C 112.57363,93.120051 112.85634,93.859389 112.85634,94.576313 C 112.85634,96.052101 109.96171,98.151921 107.9273,98.151921 C 107.22354,98.151921 106.47302,98.399113 106.25945,98.701244 C 106.04588,99.003376 105.05635,99.250569 104.06047,99.250569 C 103.06461,99.250569 102.07508,99.497762 101.86149,99.799893 C 101.64794,100.10202 100.78308,100.34922 99.9396,100.34922 C 99.096111,100.34922 98.405987,100.59642 98.405987,100.89855 C 98.405987,101.20067 98.052576,101.45793 97.620634,101.4702 C 97.188702,101.48248 95.856436,102.22407 94.660055,103.11817 C 93.463685,104.01229 92.24324,104.74383 91.947976,104.74383 C 91.652701,104.74383 90.484431,105.36182 89.351829,106.11714 C 87.475006,107.36878 86.740169,107.49046 81.058326,107.49046 L 74.824095,107.49046 L 69.494523,103.37916 z M 88.130402,103.27021 C 90.996121,102.11856 94.935113,99.016954 96.17718,96.93407 C 96.76867,95.942182 97.703267,94.389039 98.254058,93.482644 C 99.706871,91.091873 101.54737,86.525115 101.54737,85.311088 C 101.54737,84.735867 102.04214,83.946645 102.64685,83.557249 C 103.69121,82.884772 103.68961,82.830042 102.61489,82.465874 C 101.24101,82.000344 98.811161,83.831349 97.107338,86.61609 C 96.460344,87.673524 93.843495,90.506972 91.292126,92.912624 L 86.653245,97.286544 L 82.948414,96.225265 C 77.885379,94.774923 74.508202,92.722684 68.337212,87.346362 C 65.448676,84.829811 62.974845,82.770809 62.839806,82.770809 C 62.052455,82.770809 62.829861,86.190409 64.151053,88.538715 C 65.000976,90.049361 65.705197,91.814539 65.715998,92.46135 C 65.743834,94.127445 69.361776,98.513316 72.826182,101.08069 C 77.509966,104.55172 82.990443,105.3358 88.130402,103.27021 z M 57.415287,98.014584 C 58.409678,96.929672 60.081174,91.319725 60.081174,89.067229 C 60.081174,82.05472 54.605728,77.100797 50.845062,80.710827 C 48.957946,82.522356 48.026266,84.290356 48.752088,84.682575 C 49.088442,84.864326 49.545811,84.378422 49.768472,83.602768 C 50.341595,81.606216 52.244279,80.825988 54.036335,81.852639 C 56.814835,83.444412 57.788396,90.038211 56.004171,95.180648 C 55.489597,96.663784 55.065507,98.062655 55.061755,98.289246 C 55.050742,98.956617 56.731674,98.760445 57.415287,98.014584 z M 63.469298,96.599268 C 63.900152,95.989743 63.20352,93.757307 62.582448,93.757307 C 62.311006,93.757307 61.79325,94.498906 61.43186,95.405289 C 60.852861,96.857508 60.915784,97.053263 61.961601,97.053263 C 62.614323,97.053263 63.292799,96.848962 63.469298,96.599268 z M 104.30517,93.80198 C 104.38324,90.737908 103.18209,90.280028 101.78514,92.841335 C 100.53102,95.140778 101.00043,96.651477 102.89253,96.405139 C 104.02904,96.257173 104.25311,95.844236 104.30517,93.80198 z M 108.19982,92.798766 C 107.51349,92.198682 107.04286,93.153012 107.53563,94.145609 C 108.00285,95.086808 108.03673,95.085953 108.29705,94.126308 C 108.44689,93.573931 108.40315,92.976546 108.19982,92.798766 z M 87.905194,92.521332 C 90.483269,90.245972 94.008052,86.036775 94.008052,85.233431 C 94.008052,84.894139 94.926902,83.641679 96.04995,82.45018 C 98.553478,79.794053 99.705472,78.04752 99.228806,77.63076 C 98.524436,77.014898 96.137,78.55813 91.12388,82.869765 C 85.799189,87.449361 83.189822,88.578773 80.181781,87.605861 C 78.377117,87.022169 74.173402,84.395815 70.464554,81.534823 C 66.162905,78.216567 64.005169,79.159591 67.418711,82.865992 C 71.192405,86.963416 73.730194,88.985977 76.35442,89.987545 C 77.875339,90.568028 80.07629,91.777284 81.245415,92.6748 C 83.968083,94.76494 85.400473,94.731927 87.905194,92.521332 z M 86.315392,83.840947 C 87.749398,82.918889 89.972953,80.913523 91.256595,79.384588 L 93.590493,76.604701 L 92.147757,74.295527 L 90.70502,71.98634 L 92.25886,69.825339 C 94.707199,66.420286 96.543303,61.40935 96.87506,57.227144 C 97.101061,54.378231 97.017235,53.705284 96.551579,54.63002 C 95.683699,56.353555 94.463604,56.633875 91.07607,55.888076 C 86.806505,54.948085 86.480192,55.873696 90.205442,58.357617 C 91.951327,59.521729 93.379784,60.627506 93.379784,60.814883 C 93.379784,62.295268 87.263949,65.16595 84.071409,65.184103 C 83.271196,65.188657 82.134263,65.41802 81.544875,65.693808 C 80.861251,66.013706 79.340819,65.932028 77.345325,65.468217 C 68.534689,63.420386 66.970578,62.332826 69.478775,59.998462 C 70.304932,59.229561 71.466808,58.600464 72.060697,58.600464 C 72.654598,58.600464 73.319082,58.193603 73.537336,57.69633 C 73.891317,56.88978 73.454777,56.831163 69.492546,57.153136 C 66.690743,57.380809 64.57789,57.292701 63.769604,56.914477 C 62.52555,56.332348 62.498685,56.420101 62.847002,59.929705 C 63.306095,64.555706 64.123237,66.193351 68.488009,71.234956 C 71.660311,74.899164 72.014927,75.567589 71.693802,77.277576 C 71.363694,79.035447 71.569246,79.373103 74.091933,81.216821 C 77.82141,83.942539 80.863206,85.512908 82.418239,85.515377 C 83.12767,85.516514 84.881385,84.763014 86.315392,83.840947 z M 113.37662,83.116427 C 113.93681,78.830479 111.57042,77.570517 109.89031,81.260183 C 108.67956,83.919061 109.18418,85.094344 111.43915,84.867566 C 112.82039,84.728656 113.21217,84.374557 113.37662,83.116427 z M 110.34324,76.695801 C 110.34324,76.37584 110.06052,76.266827 109.71496,76.453559 C 109.36941,76.640278 109.08669,76.902071 109.08669,77.035301 C 109.08669,77.168533 109.36941,77.277544 109.71496,77.277544 C 110.06052,77.277544 110.34324,77.015752 110.34324,76.695801 z M 82.370407,60.485178 C 80.548084,59.937417 79.651987,59.912949 78.662986,60.38396 C 77.378043,60.995904 77.381331,61.009889 78.884779,61.328975 C 79.724116,61.507109 81.39245,61.552658 82.592201,61.430193 L 84.77358,61.207531 L 82.370407,60.485178 z M 69.217003,53.61998 C 69.444767,53.297747 69.50192,52.921138 69.344001,52.783061 C 68.905791,52.399918 66.9922,53.158451 66.9922,53.715299 C 66.9922,54.402939 68.715753,54.329097 69.217003,53.61998 z M 89.610126,50.635231 C 89.610126,49.024262 87.856643,47.637956 87.12614,48.671392 C 86.666001,49.322361 86.774621,50.510962 87.474456,52.482409 C 87.886785,53.643978 89.610126,52.153433 89.610126,50.635231 z M 73.413561,51.596554 C 73.788055,50.334089 73.319061,49.173249 72.593027,49.565584 C 71.856024,49.963827 71.839019,52.557877 72.573401,52.557877 C 72.878654,52.557877 73.25673,52.125276 73.413561,51.596554 z M 79.548092,50.223243 C 79.542798,48.939187 79.27185,47.519878 78.945981,47.069207 C 78.011236,45.776492 76.82445,47.228761 76.923972,49.543512 C 77.02382,51.865621 77.42075,52.557877 78.652376,52.557877 C 79.30013,52.557877 79.554971,51.893652 79.548092,50.223243 z M 84.269784,48.666817 C 84.269784,46.057521 84.115129,45.691301 83.013228,45.691301 C 81.450596,45.691301 80.994092,48.087794 82.108592,50.44032 C 83.258822,52.868272 84.269784,52.038658 84.269784,48.666817 z M 68.727822,49.26192 C 70.463804,48.053404 72.153264,47.064612 72.482188,47.064612 C 72.811091,47.064612 73.551762,46.609023 74.128108,46.052196 C 74.704454,45.495369 76.727952,44.353244 78.62475,43.514148 L 82.073495,41.988505 L 85.533716,44.114566 C 90.530075,47.184484 94.743301,49.351497 95.103443,49.036611 C 95.810052,48.418791 94.507282,45.975165 92.080934,43.367235 C 89.573318,40.671966 82.025927,34.979445 80.960043,34.979445 C 80.669365,34.979445 79.316067,35.878441 77.952731,36.977225 C 76.589394,38.075999 73.918942,39.991777 72.018404,41.234505 C 70.117876,42.477221 68.445546,43.741197 68.302136,44.043318 C 68.158715,44.345449 67.284368,45.211671 66.359134,45.968256 C 64.415119,47.557915 63.224012,51.459228 64.682695,51.459228 C 65.171536,51.459228 66.991862,50.470436 68.727822,49.26192 z"
       id="path2505" />
    <path
       style="fill:#ff0000;fill-rule:evenodd;stroke:#000000;stroke-width:1.69567323;stroke-linecap:butt;stroke-linejoin:miter;stroke-miterlimit:4;stroke-dasharray:none;stroke-opacity:1"
       d="M 64.515453,9.729813 L 77.189159,28.932655 L 79.153582,32.824268 L 86.314239,29.634437 L 94.298676,13.238647 L 91.763931,3.6691128 L 87.138029,2.3293782 L 76.111902,2.0103859 L 70.091878,3.2863243 L 64.135242,9.9212022"
       id="path2562" />
    <path
       style="fill:#000000"
       d="M 82.592213,34.527721 C 82.208483,33.907546 81.231,33.654465 80.42002,33.965319 C 79.467098,34.33058 78.161991,32.996452 76.730606,30.19386 C 75.512401,27.808706 74.066073,25.330368 73.516538,24.686453 C 72.966992,24.042539 70.364875,20.512605 67.734055,16.842142 L 62.95074,10.168594 L 65.680363,6.593931 C 68.687769,2.6554985 74.938009,0.22235663 77.781621,1.8830744 C 79.133376,2.6725262 78.923142,2.8732941 76.717744,2.8990441 C 72.159827,2.9522842 67.442299,5.083388 66.698151,7.4253267 C 65.504052,11.183312 68.409773,12.158776 80.189644,11.954517 C 92.516258,11.740765 94.489792,10.602933 91.208933,5.6014081 C 89.707998,3.3132935 88.62366,2.8139267 85.469166,2.9580364 C 79.73127,3.2201625 78.872141,2.7284965 83.693554,1.9418583 C 88.387071,1.1760827 93.078537,2.8532342 94.611801,5.8450266 C 96.642086,9.8066458 96.807192,15.358653 94.944794,17.042182 C 93.956585,17.935488 91.282245,22.488886 89.001811,27.160842 C 84.884017,35.597046 83.931338,36.692017 82.592213,34.527721 z M 82.448115,28.529879 C 82.799465,26.789933 82.494594,25.204037 81.687123,24.571314 C 79.769167,23.068452 77.587874,18.706401 78.365757,17.929392 C 78.726533,17.569038 79.296093,18.322257 79.631453,19.603229 C 79.966824,20.884201 80.661312,21.932277 81.174767,21.932277 C 82.826139,21.932277 82.101744,18.314056 79.928441,15.707178 C 78.107713,13.523198 77.463361,13.338541 75.222242,14.358512 L 72.625588,15.540288 L 76.307435,21.639222 C 78.332435,24.99365 79.990475,28.569469 79.991976,29.5855 C 79.996277,32.50888 81.801291,31.733101 82.448115,28.529879 z M 84.86046,26.440636 C 84.50928,26.089871 84.259511,26.71335 84.305398,27.826139 C 84.356105,29.055883 84.606528,29.306004 84.943885,28.463906 C 85.249169,27.701881 85.21163,26.791413 84.86046,26.440636 z M 89.973936,19.482733 C 91.46035,17.294877 92.676504,15.275077 92.676504,14.994298 C 92.676504,13.657085 84.902078,15.477763 84.039736,17.016922 C 82.904808,19.042619 84.264045,19.356755 86.124234,17.498677 C 88.097862,15.527293 87.615213,17.825454 85.585004,20.066268 C 84.047429,21.763345 84.003424,22.200572 85.290194,22.994942 C 86.122121,23.508513 86.908224,23.8234 87.037082,23.694692 C 87.16595,23.565973 88.487533,21.670598 89.973936,19.482733 z"
       id="path2560" />
    <path
       style="fill:#556b2f;fill-rule:evenodd;stroke:#000000;stroke-width:1.04942513px;stroke-linecap:butt;stroke-linejoin:miter;stroke-opacity:1"
       d="M 87.752474,31.199377 L 94.848898,15.670684 L 103.16048,13.465998 L 113.41629,16.245821 L 117.49916,22.045114 L 118.37406,29.090542 L 113.31906,33.97921 L 105.63938,34.075061 L 104.57003,29.282254 L 110.45133,26.262784 L 108.06965,23.099536 L 102.23697,23.578812 L 98.056878,32.014152 L 95.091935,34.027136 L 88.530164,33.739563 L 89.84252,25.208371"
       id="path3447" />
    <path
       style="fill:#000000"
       d="M 88.750712,37.651662 C 84.73955,33.69643 84.637926,32.249933 87.888189,25.37546 C 89.588768,21.778663 92.09574,17.531263 93.459235,15.93679 C 95.734691,13.275869 96.561926,13.032752 103.53003,12.977115 C 110.8216,12.918894 111.24934,13.054114 114.34908,16.397215 C 118.12655,20.471233 120.27525,26.807867 118.7965,29.512847 C 116.59091,33.547401 112.29542,36.442625 108.66569,36.341177 C 106.68506,36.285811 104.55672,35.931055 103.93609,35.55283 C 101.41581,34.016944 103.5735,26.651471 106.54369,26.651471 C 108.5247,26.651471 108.55706,24.966347 106.59034,24.222174 C 104.43628,23.407108 99.709619,28.118028 98.956631,31.830454 C 98.486274,34.149476 97.719711,34.992387 96.07043,35.0041 C 93.37803,35.023233 91.666767,36.038077 91.029728,37.993446 C 90.651873,39.153243 90.205654,39.08632 88.750712,37.651662 z M 93.56049,32.268629 C 93.996427,32.18821 94.782149,32.063797 95.306531,31.992154 C 96.636991,31.810382 98.737457,25.609386 97.468579,25.609386 C 96.917565,25.609386 96.466738,26.104762 96.466738,26.710212 C 96.466738,27.315675 94.921143,29.253524 93.03208,31.016553 C 91.143018,32.779583 90.310776,33.815436 91.18265,33.318456 C 92.054524,32.821475 93.124551,32.349056 93.56049,32.268629 z M 114.39149,31.665397 C 117.28993,28.597658 117.28938,22.17379 114.39045,19.31527 C 110.27312,15.255341 101.15215,13.69607 98.682799,16.629974 C 97.165379,18.432853 99.572884,19.653686 101.84666,18.234337 C 104.0831,16.838297 107.67575,17.085949 109.06086,18.73163 C 110.07431,19.935748 109.63048,20.190548 106.51962,20.190548 C 104.44659,20.190548 102.04999,20.763798 101.19384,21.464443 C 99.259736,23.047224 99.032352,25.294021 100.95821,23.792658 C 101.68477,23.226244 103.65826,22.517022 105.34374,22.21661 C 107.69718,21.79714 108.97995,22.278708 110.87223,24.292035 C 113.51179,27.100463 113.26016,29.15164 110.38064,28.299329 C 109.41238,28.012735 107.71735,28.447941 106.61391,29.266456 C 104.95493,30.497053 104.84013,31.030883 105.95069,32.350359 C 107.87889,34.64132 111.8871,34.316053 114.39149,31.665397 z M 94.985893,25.44284 C 96.050985,23.743513 96.429813,19.356881 95.511459,19.356881 C 94.737468,19.356881 90.125832,26.871413 90.125832,28.132627 C 90.125832,29.081069 94.075709,26.895017 94.985893,25.44284 z"
       id="path3445" />
    <path
       style="fill:#556b2f;fill-rule:evenodd;stroke:#000000;stroke-width:1.09552014px;stroke-linecap:butt;stroke-linejoin:miter;stroke-opacity:1"
       d="M 13.814608,78.314825 C 12.119905,78.800229 10.777483,80.607526 9.4031864,81.295311 C 9.1540522,81.419997 9.1831782,81.588939 9.0723286,81.736863 L 3.9991814,88.029031 L 5.7637602,100.39255 L 12.270608,109.11325 L 17.123176,113.19763 L 21.534607,114.85346 L 27.490039,113.63919 L 34.107175,107.34702 L 34.217454,89.905627 L 51.532311,89.243299 L 49.106028,84.275808 L 37.636312,84.827748 L 24.843186,84.165421 L 22.52718,79.970656 L 25.835749,75.113541 L 31.791181,75.334328 L 35.430606,69.262946 L 32.232318,60.983795 L 27.269449,61.977297 L 23.519755,64.62663 L 17.564334,77.652486 C 12.949053,77.751026 9.8603764,82.607993 6.2049077,83.834245"
       id="path3493"
       sodipodi:nodetypes="cscccccccccccccccccccccc" />
    <path
       style="fill:#000000"
       d="M 23.982842,118.00837 C 23.982842,116.31115 23.503173,115.88328 22.173211,116.39411 C 17.251748,118.28443 10.756875,113.06714 5.0156286,102.61157 C 0.58897889,94.550061 0.58078855,91.855367 4.961625,84.84513 C 8.3846151,79.367643 9.2307455,78.668509 12.436803,78.668509 C 16.165498,78.668509 16.997668,77.576363 19.117739,69.900254 C 20.442186,65.104895 25.898016,61.644122 33.290414,60.910161 C 36.144107,60.626808 36.530468,60.907786 36.232858,63.05006 C 36.044439,64.406396 36.414008,65.516132 37.054112,65.516132 C 39.291373,65.516132 38.193772,69.760199 35.384487,71.972043 C 33.070437,73.793971 32.680736,74.794018 33.258582,77.427407 C 34.261883,81.999667 31.965957,82.939877 28.972742,79.182516 L 26.540203,76.128959 L 24.736172,78.706983 C 23.086301,81.064698 23.080879,81.449509 24.672753,83.210153 C 26.118321,84.80897 28.25063,85.124252 37.252592,85.070137 C 43.214152,85.0343 48.39555,84.513049 48.766799,83.911798 C 49.179486,83.243436 49.814127,83.396497 50.399931,84.305664 C 51.194965,85.539565 51.559545,85.512846 52.541635,84.148673 C 53.459344,82.873943 53.576218,83.187382 53.06195,85.543963 C 52.531046,87.976729 52.860382,88.754249 54.712159,89.439909 C 56.811717,90.217315 56.861842,90.432579 55.254265,91.767988 C 54.038977,92.777539 50.743143,93.166976 44.755427,93.008548 C 36.450034,92.788793 34.791285,93.368224 37.016668,95.711798 C 40.269141,99.136992 37.298457,107.08958 29.70908,115.27446 C 27.137104,118.04824 24.796518,120.3177 24.507784,120.3177 C 24.219071,120.3177 23.982842,119.27851 23.982842,118.00837 z M 27.815368,112.65582 C 29.622136,111.4638 30.887528,110.35731 30.62734,110.19695 C 30.367171,110.03661 30.544675,108.67237 31.021786,107.16532 C 33.084863,100.64893 32.905161,98.683915 30.039854,96.42796 C 27.469674,94.404357 25.692106,94.271836 20.902166,95.746708 C 20.091988,95.996162 19.820544,96.766982 20.280535,97.511966 C 21.391947,99.311917 21.520804,103.87722 20.460225,103.87722 C 19.988641,103.87722 19.602808,102.9199 19.602808,101.74985 C 19.602808,100.5798 19.108238,99.316522 18.50377,98.942602 C 17.899303,98.568671 17.706349,97.059921 18.074988,95.589823 C 18.812742,92.64758 16.698906,91.877813 14.346757,94.232153 C 11.908563,96.67262 12.866134,101.26201 16.569773,104.88639 C 20.982769,109.20494 24.626496,109.11647 24.324204,104.69815 C 24.091017,101.29012 25.689402,100.62593 26.671407,103.72281 C 27.655166,106.82527 26.332644,109.08719 22.81789,110.3136 C 20.089018,111.26576 19.403195,111.08675 17.978131,109.05026 C 17.064934,107.74529 16.317775,107.07176 16.317775,107.55355 C 16.317775,108.03535 15.085885,106.96415 13.580248,105.17315 C 10.30221,101.27375 9.9019727,95.179564 12.758994,92.668412 C 15.915084,89.894415 19.332833,89.357178 33.389839,89.425466 C 44.07902,89.477404 46.919101,89.171344 47.400503,87.915662 C 47.882117,86.659462 46.735585,86.340741 41.735137,86.340741 C 38.287101,86.340741 33.990967,86.755791 32.188174,87.263089 C 28.194936,88.386768 22.42041,86.274359 20.702511,83.061416 C 19.053728,79.977763 23.967189,74.912357 27.880755,75.661189 C 29.564878,75.983422 30.552897,75.664148 30.552897,74.797676 C 30.552897,74.041539 31.292025,73.13899 32.195403,72.791997 C 34.385182,71.950921 34.297054,69.900254 32.07112,69.900254 C 30.730875,69.900254 30.420731,69.106425 30.786464,66.612165 C 31.195896,63.819912 30.909985,63.324066 28.890448,63.324066 C 25.537537,63.324066 23.324105,66.203231 21.087256,73.474239 C 20.022924,76.933907 18.755399,79.764542 18.27051,79.764542 C 17.785642,79.764542 15.223219,80.783492 12.57625,82.028875 C 6.3648359,84.951318 4.7093417,88.560838 6.8113836,94.598227 C 7.6437859,96.989008 8.1111741,99.5616 7.8500239,100.31513 C 7.5888738,101.06865 7.8307053,101.68517 8.3874473,101.68517 C 8.9441684,101.68517 10.734936,104.14078 12.366916,107.14206 C 16.783726,115.26478 21.376338,116.90395 27.815368,112.65582 z"
       id="path3491" />
    <path
       style="fill:#556b2f;fill-rule:evenodd;stroke:#000000;stroke-width:1.04942513px;stroke-linecap:butt;stroke-linejoin:miter;stroke-opacity:1"
       d="M 126.08877,65.421511 L 131.12634,67.261269 L 133.27198,63.581753 L 136.91022,64.869581 L 148.2914,78.943722 L 154.16858,81.059446 L 160.88535,87.13065 L 161.91151,95.409541 L 159.01957,106.26412 L 153.79543,108.93176 L 147.54511,109.94363 L 138.12297,104.79231 L 132.61896,94.673642 L 111.90892,93.661767 L 109.85658,87.590585 L 129.26057,85.198897 L 139.14915,83.635104 L 141.48136,78.575773 L 132.15251,73.976377 L 127.76796,71.40072 L 126.08877,65.421511 z"
       id="path3513" />
    <path
       style="fill:#000000"
       d="M 136.80781,108.08284 C 135.20509,106.02544 133.40339,102.54631 132.80401,100.35143 C 132.08521,97.719194 131.09854,96.351794 129.90555,96.334485 C 128.91076,96.320041 124.78979,96.107509 120.74782,95.862192 C 116.67138,95.61478 112.83122,95.880668 112.12415,96.459286 C 111.187,97.226218 110.66902,96.592454 110.16798,94.065846 C 108.28045,84.547678 108.25643,85.018335 110.59894,85.62238 C 111.80087,85.932306 113.45272,85.638833 114.26977,84.970211 C 115.31703,84.11317 115.96297,84.085899 116.45929,84.877789 C 117.53294,86.590778 135.03385,85.064333 137.344,83.056195 C 140.13352,80.631357 139.74042,78.284 136.67198,79.043387 C 134.73772,79.52209 134.02246,79.184392 133.60048,77.593234 C 133.28598,76.407342 132.15827,75.519059 130.96722,75.519059 C 128.42883,75.519059 127.20459,74.096113 125.38634,69.032219 C 123.6922,64.314005 124.51815,63.21127 128.04133,65.487558 C 130.61238,67.148703 130.71423,67.121046 131.35933,64.586635 C 131.72535,63.148569 132.38191,61.971961 132.8183,61.971961 C 134.6341,61.971961 143.4272,70.657505 146.00859,75.000913 C 148.23567,78.748155 149.37482,79.687396 151.6925,79.687396 C 153.80135,79.687396 155.58885,80.868485 158.25306,84.022279 C 160.26715,86.406464 162.28802,89.304417 162.74388,90.462183 C 163.88489,93.359929 162.57324,101.29432 160.17807,105.98334 C 158.01505,110.21787 157.18573,110.54363 146.59116,111.3201 C 139.72767,111.82314 139.71937,111.82039 136.80781,108.08284 z M 157.85007,105.12272 C 159.71531,102.68862 161.49627,91.215329 160.33965,89.084309 C 159.7974,88.085241 157.61255,85.760341 155.48441,83.917872 C 152.48737,81.323114 151.01184,80.717215 148.93917,81.230171 C 146.03006,81.950136 144.55361,80.587204 144.44574,77.082185 C 144.41044,75.935892 142.07022,72.496201 139.2452,69.438433 C 134.52297,64.327083 134.05081,64.059101 133.38918,66.114643 C 132.79559,67.958831 132.13026,68.233638 129.59058,67.683615 C 126.04648,66.916047 125.86821,67.329516 128.21839,70.866339 C 129.37962,72.613904 130.89968,73.434891 132.97407,73.434891 C 134.97966,73.434891 136.02297,73.969782 136.02297,74.998016 C 136.02297,76.0401 137.07979,76.561143 139.19343,76.561143 C 141.87069,76.561143 142.36388,76.966399 142.36388,79.166354 C 142.36388,82.152822 139.01474,85.914966 136.28718,85.992413 C 132.79938,86.091452 121.75477,86.948931 116.42889,87.534167 C 112.19099,87.999843 111.07102,88.523209 110.95102,90.094036 C 110.81237,91.908962 111.78113,92.09463 122.93592,92.390997 L 135.07168,92.71344 L 138.31659,89.408157 C 142.72761,84.915065 145.88101,84.295066 150.37939,87.036457 C 158.96268,92.267251 157.86264,99.683733 148.24061,101.45626 C 142.65621,102.485 141.59027,101.59297 143.31556,97.334793 C 144.07267,95.466157 144.3612,95.286752 144.41053,96.653968 C 144.50472,99.264178 146.92613,99.883521 151.3757,98.435513 C 154.05041,97.565081 155.011,96.732582 154.58972,95.650076 C 154.25927,94.800892 153.98517,93.558288 153.98063,92.88873 C 153.96699,90.874203 148.60783,88.890293 146.91712,90.2739 C 145.71869,91.254637 145.77489,91.769354 147.25669,93.383897 C 148.23331,94.448011 148.52276,95.318651 147.8999,95.318651 C 147.27705,95.318651 145.8831,94.121578 144.80224,92.658481 L 142.83705,89.99831 L 140.58255,92.39796 C 139.28579,93.7782 138.17515,96.557325 137.96811,98.939923 C 137.61885,102.9596 137.77665,103.18194 143.29843,106.45053 C 148.81776,109.71767 149.10344,109.77221 152.80979,108.26625 C 154.91141,107.41233 157.17955,105.99773 157.85007,105.12272 z"
       id="path3511" />
    <path
       style="fill:#ffd700;fill-rule:evenodd;stroke:#000000;stroke-width:1.04942513px;stroke-linecap:butt;stroke-linejoin:miter;stroke-opacity:1"
       d="M 39.845356,112.31291 L 39.20966,164.23538 L 86.568774,165.17563 L 86.250926,110.95477 L 39.103714,112.83527 L 38.573973,126.20766"
       id="path3573" />
    <path
       style="fill:#000000"
       d="M 50.528049,159.06911 C 50.532054,157.96433 52.671709,157.5318 59.381084,157.27957 C 64.247349,157.09662 71.854058,156.60548 76.284882,156.18817 C 82.240831,155.62718 84.340929,155.75274 84.340929,156.66983 C 84.340929,158.73973 81.356804,159.25523 65.619743,159.90382 C 53.091647,160.42016 50.523664,160.27813 50.528049,159.06911 z M 46.559699,153.18085 C 42.615497,152.51241 43.887959,150.83866 48.340331,150.83866 C 55.753844,150.83866 60.781653,147.64706 56.071058,145.93126 C 53.155287,144.86922 49.642828,141.17583 50.196219,139.75383 C 50.473095,139.04233 49.708709,137.85 48.497565,137.10418 C 45.769611,135.42429 45.666233,134.16531 48.256251,134.16531 C 49.56178,134.16531 50.546174,133.03356 51.202056,130.77854 C 51.743823,128.91581 52.644866,127.62624 53.204366,127.91281 C 53.763856,128.19938 54.152417,128.66832 54.067829,128.95489 C 53.147952,132.07124 52.93268,138.39119 53.729847,138.87701 C 54.290955,139.21896 54.750035,138.76367 54.750035,137.86526 C 54.750035,136.50477 55.095551,136.44458 56.817773,137.50513 C 58.637381,138.62566 59.378834,138.25156 62.996341,134.38773 C 67.865629,129.18687 70.089363,128.60174 67.80185,133.12323 C 66.931951,134.84267 65.556629,136.24947 64.745564,136.24947 C 63.93451,136.24947 63.511022,136.86647 63.8045,137.6206 C 64.097978,138.37471 63.644868,140.30928 62.797596,141.91963 C 60.78868,145.73784 62.038304,149.27553 65.395951,149.27553 C 67.368861,149.27553 68.038472,148.5325 68.682877,145.62824 C 69.127986,143.62222 69.212373,139.98795 68.87042,137.55208 C 68.459654,134.62613 68.648023,133.12323 69.42548,133.12323 C 70.072728,133.12323 70.60879,134.17834 70.616725,135.46791 C 70.643959,139.89184 71.867142,142.50198 73.913108,142.50198 C 75.174801,142.50198 76.589785,143.88575 77.721933,146.2268 C 79.161582,149.20369 80.006973,149.86044 81.932114,149.49755 C 83.66746,149.17044 84.340929,149.53379 84.340929,150.79712 C 84.340929,152.31136 82.934315,152.56932 74.036957,152.68679 C 68.369773,152.76161 60.40401,152.99407 56.335261,153.20333 C 52.266515,153.4126 47.867511,153.40249 46.559699,153.18085 z M 73.586035,148.05928 C 73.07184,145.44493 70.6023,145.08595 70.6023,147.62557 C 70.6023,148.90559 71.284676,149.79657 72.265012,149.79657 C 73.249163,149.79657 73.788289,149.08757 73.586035,148.05928 z M 57.889883,142.54268 C 58.744923,142.00948 59.09028,141.22392 58.657333,140.79703 C 58.224387,140.37012 57.066231,140.81355 56.083634,141.78245 C 54.173564,143.66589 55.316987,144.14715 57.889883,142.54268 z M 56.731569,131.6216 C 56.658913,130.72806 56.521441,129.4108 56.426064,128.69437 C 56.330696,127.97794 57.217969,126.36612 58.39779,125.11256 C 60.362223,123.02535 60.697658,122.97148 62.380311,124.47304 C 64.065121,125.97652 64.380889,125.91402 66.182044,123.7207 C 67.296554,122.36352 68.677602,121.65245 69.374331,122.07704 C 70.876819,122.99269 71.006206,125.82863 69.545483,125.82863 C 68.964232,125.82863 68.488664,125.30776 68.488664,124.67111 C 68.488664,124.03446 67.568505,124.62063 66.44386,125.97372 C 64.653177,128.12812 64.122476,128.26757 62.173598,127.09594 C 59.296751,125.36643 57.592918,126.45207 58.207648,129.62295 C 58.475054,131.00232 58.282058,132.38185 57.778758,132.68856 C 57.275459,132.99529 56.804225,132.51515 56.731569,131.6216 z"
       id="path3350" />
    <path
       style="fill:#000000"
       d="M 36.677873,137.56158 L 36.959336,109.68581 L 62.058754,109.40643 L 87.158171,109.12705 L 87.158171,137.28219 L 87.158171,165.43733 L 61.777292,165.43733 L 36.396401,165.43733 L 36.677873,137.56158 z M 83.758125,140.30088 C 83.922483,128.04776 83.794533,116.96738 83.473788,115.6778 C 82.893257,113.34369 82.795375,113.33311 61.774417,113.33311 L 40.658197,113.33311 L 40.658197,137.79749 L 40.658197,162.26186 L 58.888301,162.547 C 68.914858,162.70381 78.545109,162.77521 80.288858,162.70569 L 83.45931,162.57927 L 83.758125,140.30088 z"
       id="path3571" />
    <path
       style="fill:#556b2f;fill-rule:evenodd;stroke:#000000;stroke-width:1.04942513px;stroke-linecap:butt;stroke-linejoin:miter;stroke-opacity:1"
       d="M 85.225125,221.29212 L 84.723201,163.75615 L 39.047512,164.37482 L 37.41624,211.76467 L 41.306195,218.69372 L 84.723201,222.52947 L 85.727061,213.12574"
       id="path3596" />
    <path
       style="fill:#000000"
       d="M 86.153181,224.90626 C 84.695058,221.15945 78.080395,222.473 60.511985,222.473 C 42.94662,222.473 38.352887,221.56884 36.895821,217.82473 C 36.553561,216.94523 36.284356,204.01633 36.297609,189.09384 L 36.321694,161.96202 L 62.683882,162.11972 C 83.767109,162.24585 89.04606,162.55357 89.04606,163.65641 C 89.04606,164.41484 88.633416,165.28684 88.129071,165.5942 C 87.624724,165.90156 87.422006,178.47331 87.678591,193.53145 C 88.048838,215.26063 88.443737,221.07499 89.592382,221.7101 C 90.792018,222.3734 90.733481,223.04094 89.250249,225.61133 C 87.297767,228.99493 87.132924,227.42383 86.153181,224.90626 z M 84.81879,213.26182 C 84.81879,209.34196 84.505327,196.90563 84.1222,185.62553 L 83.42562,165.11626 L 62.193234,165.39784 L 40.960859,165.6794 L 40.676576,190.14898 C 40.320755,220.77593 38.392919,218.24259 62.097211,218.29746 C 71.397205,218.31898 79.553418,219.34615 80.59152,219.34676 C 87.126488,219.35053 84.81879,220.55727 84.81879,213.26182 z"
       id="path3594"
       sodipodi:nodetypes="csscccssssscccccccssc" />
    <path
       style="fill:#ffd700;fill-rule:evenodd;stroke:#000000;stroke-width:1.04942513px;stroke-linecap:butt;stroke-linejoin:miter;stroke-opacity:1"
       d="M 80.030128,169.53181 L 70.040981,177.08029 L 64.532965,183.98442 L 61.078777,198.43705 L 56.130885,193.83429 L 52.583337,193.55815 L 48.382298,197.42444 L 48.569015,202.76363 L 53.983684,198.98938 L 55.664098,199.90993 L 55.290671,208.01076 L 61.918979,214.54666 L 66.120019,200.46227 L 72.935024,196.04364 L 79.936768,176.89619 L 80.030128,169.53181 z"
       id="path3406" />
    <path
       style="fill:#000000"
       d="M 57.849766,214.42354 C 57.324888,211.66472 56.752145,210.99026 55.260849,211.37481 C 53.541099,211.81825 53.388326,211.24989 53.762112,205.79908 L 54.178318,199.7296 L 51.956138,202.5437 C 47.388001,208.32866 44.372171,201.14019 48.79676,195.01307 C 50.473401,192.69127 51.547836,192.162 53.816643,192.54026 C 55.404301,192.80498 57.475188,193.92315 58.418609,195.0251 C 60.050896,196.93166 60.200087,196.72128 61.500416,190.67926 C 62.607739,185.53408 63.920233,183.10555 68.42068,177.87463 C 74.525872,170.7785 78.840404,167.50188 81.002072,168.31982 C 82.129739,168.74651 81.921407,170.7397 79.951046,178.37551 C 76.115263,193.24037 73.442729,198.96524 69.990065,199.71302 C 66.438312,200.48223 63.572603,205.84049 63.572603,211.71225 C 63.572603,214.69564 63.017224,216.10165 61.528443,216.88732 C 58.654015,218.40422 58.600255,218.36822 57.849766,214.42354 z M 62.964287,205.18152 C 63.98436,202.44861 65.536899,199.50468 66.414354,198.63944 C 67.686434,197.3851 67.748088,196.75539 66.718591,195.5322 C 64.703745,193.1383 63.998796,193.63914 61.954742,198.91681 L 60.049722,203.83547 L 58.221438,199.59064 C 57.215887,197.25598 55.685298,195.07795 54.820124,194.75058 C 52.641209,193.9261 48.777157,196.81445 48.777157,199.26764 C 48.777157,201.70674 49.605595,201.81955 51.977074,199.70331 C 53.574802,198.27753 53.900735,198.28325 55.142665,199.75884 C 55.904134,200.66355 56.527149,202.86375 56.527149,204.64819 C 56.527149,207.80936 59.255598,212.0264 60.491683,210.77569 C 60.831546,210.4318 61.944216,207.91443 62.964287,205.18152 z M 72.762044,192.44809 C 74.518908,188.81526 74.222144,186.92897 72.097443,188.22381 C 71.477524,188.60159 70.970315,189.777 70.970315,190.83581 C 70.970315,192.24789 70.407021,192.61568 68.856681,192.21591 C 67.460719,191.85594 66.743045,192.18393 66.743045,193.18186 C 66.743045,197.42455 70.581692,196.95658 72.762044,192.44809 z M 65.686237,189.82978 C 65.686237,188.68349 65.21067,187.74561 64.62942,187.74561 C 64.048171,187.74561 63.572603,188.68349 63.572603,189.82978 C 63.572603,190.97608 64.048171,191.91397 64.62942,191.91397 C 65.21067,191.91397 65.686237,190.97608 65.686237,189.82978 z M 69.913498,188.7262 C 69.913498,188.11922 69.437929,187.91243 68.856681,188.26666 C 68.275431,188.62089 67.799863,189.1175 67.799863,189.37024 C 67.799863,189.623 68.275431,189.82978 68.856681,189.82978 C 69.437929,189.82978 69.913498,189.33317 69.913498,188.7262 z M 67.364876,183.84307 C 66.210419,182.70471 65.418778,184.51507 66.247641,186.39805 C 67.033564,188.18354 67.090537,188.1819 67.528429,186.36144 C 67.780481,185.31357 67.706884,184.18031 67.364876,183.84307 z M 75.197586,184.61936 C 75.197586,182.23044 72.54416,181.78772 71.671165,184.03099 C 71.14767,185.37616 72.222718,186.39474 74.404973,186.62125 C 74.840909,186.6665 75.197586,185.76565 75.197586,184.61936 z M 71.863855,181.02622 C 72.097412,179.83822 71.716567,179.33715 70.807037,179.6358 C 70.02497,179.89259 69.220775,180.93847 69.019959,181.95999 C 68.786402,183.14799 69.167247,183.64905 70.076776,183.35042 C 70.858842,183.09362 71.663038,182.04773 71.863855,181.02622 z M 77.311221,179.34744 C 77.311221,178.16731 76.835653,177.49159 76.254404,177.8458 C 75.673154,178.20003 75.197586,179.1656 75.197586,179.99148 C 75.197586,180.81738 75.673154,181.4931 76.254404,181.4931 C 76.835653,181.4931 77.311221,180.52755 77.311221,179.34744 z M 75.197586,176.22117 C 75.197586,175.04106 74.722019,174.36533 74.140768,174.71956 C 73.559518,175.07378 73.083951,176.03933 73.083951,176.86524 C 73.083951,177.69112 73.559518,178.36685 74.140768,178.36685 C 74.722019,178.36685 75.197586,177.40131 75.197586,176.22117 z"
       id="path3404"
       inkscape:transform-center-x="26.204763"
       inkscape:transform-center-y="-10.962189" />
    <path
       style="fill:#556b2f;fill-rule:evenodd;stroke:#000000;stroke-width:1.04942513px;stroke-linecap:butt;stroke-linejoin:miter;stroke-opacity:1"
       d="M 84.98099,110.3847 L 86.055869,163.59112 L 130.77062,164.12106 L 131.09309,111.02064 L 84.98099,110.3847 z"
       id="path3617" />
    <path
       style="fill:#000000"
       d="M 84.08948,137.41563 C 83.852647,121.94068 83.684593,109.21296 83.716023,109.13182 C 83.860077,108.75996 129.43435,108.18289 131.10537,108.53178 C 132.86726,108.89964 132.98573,110.83194 132.86559,137.23905 L 132.73677,165.55192 L 108.62842,165.55192 L 84.52008,165.55192 L 84.08948,137.41563 z M 129.21796,138.92876 C 129.64567,125.71889 129.06786,113.79274 128.85356,113.59208 C 128.63926,113.39142 120.1327,113.84174 109.03044,113.42693 L 87.877178,113.83859 L 88.158302,116.05619 C 87.780859,117.91712 87.472036,128.97731 87.472036,140.63442 L 87.472036,161.82915 L 97.776007,162.16983 C 103.44319,162.3572 112.66105,162.60866 118.26014,162.72861 L 128.4403,162.9467 L 129.21796,138.92876 z"
       id="path3615"
       sodipodi:nodetypes="cssccccccsccccccccc" />
    <path
       style="fill:#ffd700;fill-rule:evenodd;stroke:#000000;stroke-width:1.04942513px;stroke-linecap:butt;stroke-linejoin:miter;stroke-opacity:1"
       d="M 96.094579,131.41524 L 91.43004,147.51354 L 92.712794,148.49093 L 129.50437,147.34106 L 127.46363,138.08453 L 123.732,129.9204 L 118.5427,129.11549 L 111.77912,119.68649 L 103.84938,129.69043 L 96.327808,131.53023 L 92.421261,142.62654"
       id="path3386" />
    <path
       style="fill:#000000"
       d="M 90.668117,147.72856 C 90.365941,146.95208 91.297579,142.53161 92.738433,137.90525 C 95.335319,129.56705 95.38908,129.49374 98.907563,129.49374 C 102.46178,129.49374 105.78095,126.75051 110.09881,120.24443 L 111.70919,117.81793 L 115.3829,123.13279 C 118.51754,127.66775 119.55462,128.44793 122.45053,128.44965 C 125.55437,128.45148 125.94468,128.8302 127.01698,132.88052 C 127.66186,135.31639 128.8675,139.61657 129.69617,142.4365 C 130.52483,145.25641 131.08556,147.65476 130.94222,147.76613 C 130.79887,147.87752 121.80218,148.23228 110.94957,148.55449 C 94.913998,149.03059 91.114601,148.87585 90.668117,147.72856 z M 105.63176,146.61804 C 106.38559,146.38536 106.92369,145.60255 106.82755,144.87843 C 106.46374,142.13816 106.96745,140.99609 109.01685,139.91459 C 111.78955,138.45137 114.90477,140.07727 115.75904,143.43345 C 116.31894,145.6332 117.11044,146.0126 121.79473,146.32667 C 124.75995,146.52548 127.60453,146.4329 128.11603,146.12093 C 129.86682,145.05314 125.15729,132.13373 122.34381,130.28625 C 121.69835,129.86241 120.55979,129.73652 119.81368,130.00648 C 119.05991,130.2792 116.96135,128.40483 115.09098,125.7883 L 111.72482,121.0793 L 108.29687,125.02601 C 106.4115,127.19669 104.85106,129.26448 104.82924,129.62108 C 104.80743,129.97769 102.96291,130.55747 100.73032,130.90951 C 96.742915,131.53823 96.630968,131.68111 94.404876,138.9825 C 93.158476,143.07063 92.404806,146.84006 92.730064,147.359 C 93.259836,148.20425 102.14622,147.69389 105.63176,146.61804 z M 98.938518,139.85308 C 98.520166,139.18561 98.833258,138.23016 99.634288,137.72987 C 101.8682,136.33466 102.86547,136.61263 102.48922,138.52562 C 102.06391,140.68804 99.955818,141.47617 98.938518,139.85308 z M 119.0911,138.92751 C 118.1619,137.445 119.34682,135.74625 121.31011,135.74625 C 122.23604,135.74625 122.76646,136.47838 122.56875,137.48354 C 122.15711,139.57653 120.04701,140.45267 119.0911,138.92751 z M 110.07367,135.2252 C 110.07367,133.60418 109.4748,132.62 108.48844,132.62 C 107.61656,132.62 106.9032,132.15106 106.9032,131.57791 C 106.9032,131.00476 107.57693,130.53582 108.40037,130.53582 C 109.2238,130.53582 110.13873,129.94965 110.43354,129.23323 C 111.18057,127.41787 113.40554,130.5642 112.70461,132.44471 C 112.42009,133.20801 112.1873,134.73206 112.1873,135.83148 C 112.1873,136.93089 111.71174,137.83041 111.13049,137.83041 C 110.54923,137.83041 110.07367,136.65807 110.07367,135.2252 z M 98.950882,133.70385 C 99.324522,133.10773 100.87032,132.62 102.38602,132.62 C 105.6987,132.62 105.31546,133.11914 101.26636,134.0783 C 99.302064,134.54361 98.505317,134.41476 98.950882,133.70385 z M 118.81442,131.9904 C 119.16559,131.64412 120.0771,131.60711 120.84,131.90814 C 121.68305,132.2408 121.43263,132.48772 120.2015,132.53772 C 119.08744,132.58297 118.46325,132.33669 118.81442,131.9904 z M 114.09975,144.34344 C 113.87507,143.19302 112.77892,142.5198 111.13049,142.5198 C 109.48204,142.5198 108.38589,143.19302 108.16121,144.34344 C 107.88293,145.76829 108.53227,146.16709 111.13049,146.16709 C 113.7287,146.16709 114.37802,145.76829 114.09975,144.34344 z"
       id="path3380" />
    <path
       style="fill:#ffd700;fill-rule:evenodd;stroke:#000000;stroke-width:1.04942513px;stroke-linecap:butt;stroke-linejoin:miter;stroke-opacity:1"
       d="M 87.404082,162.25058 L 87.787654,218.9838 L 130.10807,216.71447 L 131.25879,161.49414 L 87.404082,162.25058 z"
       id="path3641" />
    <path
       style="fill:#000000"
       d="M 85.662637,225.5684 C 84.978105,224.30717 84.568641,211.82616 84.568641,192.22171 L 84.568641,160.89067 L 91.79758,160.89067 C 95.773498,160.89067 106.83045,160.58677 116.36859,160.21534 L 132.81566,160.42251 L 133.44915,184.96485 C 133.30531,198.9485 132.93541,212.27801 132.62714,214.58597 C 131.80153,220.76728 129.52953,221.75593 116.80158,221.47238 C 110.98908,221.34287 102.98959,221.54362 99.024923,221.91846 C 92.788896,222.50808 91.661114,222.93619 90.664957,225.09204 C 89.273318,228.10378 87.148533,228.30612 85.662637,225.5684 z M 127.55065,215.73649 C 128.40991,214.91835 128.88811,206.91087 129.11465,189.54799 L 129.44096,164.53796 L 109.98844,164.25323 C 99.289575,164.09662 90.184232,164.33108 89.75435,164.77427 C 89.324479,165.21745 89.240991,177.38214 89.568836,191.80692 L 90.164903,218.03377 L 108.23892,217.47435 C 119.49656,217.12591 126.77972,216.47049 127.55065,215.73649 z"
       id="path3639"
       sodipodi:nodetypes="cccccccsssscccccscccc" />
    <path
       style="fill:#ff0000;fill-rule:evenodd;stroke:#000000;stroke-width:1.04942513px;stroke-linecap:butt;stroke-linejoin:miter;stroke-opacity:1"
       d="M 112.56199,176.40944 C 112.56199,174.60944 113.54908,172.80946 112.56199,171.00947 C 112.79314,168.77543 111.57752,169.23001 110.71458,168.5372 L 106.95372,169.05768 L 104.1166,171.66007 L 106.68981,174.71788 L 103.65474,176.73473 L 99.629973,177.58051 L 96.858828,180.24797 L 106.95372,185.58287 L 111.77024,189.81176 L 112.95787,191.3732 L 107.41559,198.07436 L 107.28363,200.22133 L 114.73933,193.71535 L 118.63212,194.36594 L 117.37851,187.53467 L 110.25271,180.24797 L 109.13105,176.21425 L 112.69395,174.26247 C 112.82328,173.20364 113.36695,172.22653 112.69395,171.00947 C 111.9398,177.66688 114.76348,173.06648 112.10013,168.8625"
       id="path3426"
       sodipodi:nodetypes="cccccccccccccccccccccc" />
    <path
       style="fill:#000000"
       d="M 116.22984,199.84508 C 117.20253,194.58382 115.23124,193.77055 111.24668,197.78924 C 109.4803,199.57074 107.61594,201.02834 107.10367,201.02834 C 105.30294,201.02834 106.20018,197.64918 108.81428,194.58579 C 110.2674,192.88293 111.45633,191.11903 111.45633,190.66603 C 111.45633,189.71221 103.51153,184.35499 102.09704,184.35499 C 101.57449,184.35499 100.55492,185.0584 99.831325,185.91812 C 97.798433,188.33346 95.261416,187.97554 96.623696,185.46559 C 98.12723,182.69538 97.995995,181.94254 96.132467,182.64767 C 95.260592,182.97757 94.54724,182.79018 94.54724,182.23123 C 94.54724,180.54031 99.780347,176.57379 102.74404,176.01832 C 104.27302,175.73174 105.31318,175.02834 105.05552,174.4552 C 104.79784,173.88205 104.23034,173.53034 103.7944,173.67363 C 103.35847,173.81692 103.00179,173.24155 103.00179,172.39505 C 103.00179,170.24182 107.6778,167.45299 110.60262,167.8618 C 112.7558,168.16274 113.07955,168.85942 113.36571,173.80781 C 113.63878,178.52944 113.43055,179.3148 112.04469,178.79041 C 111.13985,178.44804 110.39952,178.41913 110.39952,178.72622 C 110.39952,179.80078 118.12768,186.46071 118.70919,185.88728 C 119.03213,185.56884 119.20165,183.33529 119.0859,180.92383 L 118.87543,176.53936 L 121.20667,181.00913 C 123.26853,184.96242 123.36761,185.74511 122.06409,187.78268 C 121.2535,189.04975 120.21452,192.39971 119.75529,195.227 C 119.29605,198.05429 118.15736,201.10239 117.22486,202.00055 C 115.67398,203.49433 115.58915,203.31055 116.22984,199.84508 z M 110.92792,195.81792 C 111.97997,194.67162 112.60295,193.73375 112.31233,193.73375 C 112.02171,193.73375 110.92315,194.67162 109.8711,195.81792 C 108.81906,196.96421 108.19608,197.90209 108.4867,197.90209 C 108.77733,197.90209 109.87588,196.96421 110.92792,195.81792 z M 115.66053,187.15567 C 114.42631,185.09298 112.49938,183.1183 111.37848,182.76751 C 109.02888,182.03217 106.82993,178.54028 107.77098,177.03886 C 108.12278,176.47757 107.90699,176.01832 107.29143,176.01832 C 106.67588,176.01832 106.17225,176.4089 106.17225,176.88626 C 106.17225,177.36361 105.10222,177.66773 103.7944,177.56208 C 102.48659,177.45642 100.82209,177.58496 100.09553,177.84772 C 98.220294,178.52591 98.455742,180.18666 100.42714,180.18666 C 102.06259,180.18666 104.33121,181.99143 112.87131,190.08646 C 117.97144,194.92079 119.40531,193.41412 115.66053,187.15567 z M 111.22878,170.13691 C 110.14694,169.07015 108.78846,168.71423 107.57522,169.17969 C 105.79095,169.8642 105.83785,170.07668 108.19085,171.969 C 111.34056,174.50205 114.01807,172.88731 111.22878,170.13691 z"
       id="path3424" />
  </g>
</svg>
