<?xml version="1.0" encoding="UTF-8" standalone="no"?>
<!-- Created with Inkscape (http://www.inkscape.org/) -->
<svg
   xmlns:svg="http://www.w3.org/2000/svg"
   xmlns="http://www.w3.org/2000/svg"
   version="1.0"
   width="900"
   height="1100"
   id="svg3334">
  <defs
     id="defs3336" />
  <path
     d="M 418.75839,174.69507 L 418.75839,174.69507"
     style="fill:none;fill-rule:evenodd;stroke:#000000;stroke-width:0.69793391px;stroke-linecap:butt;stroke-linejoin:miter;stroke-opacity:1;display:inline"
     id="path2973" />
  <path
     d="M 418.75839,174.69507 L 418.75839,174.69507"
     style="fill:none;fill-rule:evenodd;stroke:#000000;stroke-width:0.69793391px;stroke-linecap:butt;stroke-linejoin:miter;stroke-opacity:1;display:inline"
     id="path2975" />
  <path
     d="M 422.54643,71.77542 C 420.45186,73.787031 420.95217,76.301319 422.05554,77.796484"
     style="fill:#e3e4e5;fill-opacity:1;fill-rule:evenodd;stroke:#000000;stroke-width:1.00364387;stroke-linecap:round;stroke-linejoin:miter;stroke-miterlimit:4;stroke-dasharray:none;stroke-opacity:1"
     id="path2408" />
  <path
     d="M 424.3302,71.457649 C 424.77165,73.910109 422.55632,73.66082 423.15142,75.894725"
     style="fill:#e3e4e5;fill-opacity:1;fill-rule:evenodd;stroke:#000000;stroke-width:0.66909593;stroke-linecap:round;stroke-linejoin:miter;stroke-miterlimit:4;stroke-dasharray:none;stroke-opacity:1"
     id="path2412" />
  <path
     d="M 428.85918,65.735597 C 428.33482,66.361444 427.81045,66.9873 427.28609,67.613147"
     style="fill:#e3e4e5;fill-opacity:1;fill-rule:evenodd;stroke:#000000;stroke-width:0.66909593;stroke-linecap:round;stroke-linejoin:miter;stroke-miterlimit:4;stroke-dasharray:none;stroke-opacity:1"
     id="path2414" />
  <path
     d="M 430.62564,68.503632 C 430.14996,71.300509 428.00909,71.425379 427.72725,73.586501"
     style="fill:#e3e4e5;fill-opacity:1;fill-rule:evenodd;stroke:#000000;stroke-width:0.83636993;stroke-linecap:round;stroke-linejoin:miter;stroke-miterlimit:4;stroke-dasharray:none;stroke-opacity:1"
     id="path2416" />
  <path
     d="M 428.42484,81.715433 C 427.04151,82.923001 428.1649,86.325725 429.4597,85.88414"
     style="fill:#e3e4e5;fill-opacity:1;fill-rule:evenodd;stroke:#000000;stroke-width:0.66909593;stroke-linecap:round;stroke-linejoin:miter;stroke-miterlimit:4;stroke-dasharray:none;stroke-opacity:1"
     id="path2418" />
  <path
     d="M 435.00114,81.122261 C 433.80639,81.90158 433.24354,83.462296 433.73688,84.840817"
     style="fill:#e3e4e5;fill-opacity:1;fill-rule:evenodd;stroke:#000000;stroke-width:0.66909593;stroke-linecap:butt;stroke-linejoin:miter;stroke-miterlimit:4;stroke-dasharray:none;stroke-opacity:1"
     id="path2420" />
  <path
     d="M 441.62428,83.942933 C 441.81085,86.517919 440.4894,85.477206 440.63934,87.744255"
     style="fill:#e3e4e5;fill-opacity:1;fill-rule:evenodd;stroke:#000000;stroke-width:0.47208434px;stroke-linecap:round;stroke-linejoin:miter;stroke-opacity:1"
     id="path2424" />
  <path
     d="M 470.35088,68.216366 C 472.8831,69.883505 472.98455,72.427489 472.25316,74.059243"
     style="fill:#e3e4e5;fill-opacity:1;fill-rule:evenodd;stroke:#000000;stroke-width:1.00364387;stroke-linecap:round;stroke-linejoin:miter;stroke-miterlimit:4;stroke-dasharray:none;stroke-opacity:1"
     id="path2441" />
  <path
     d="M 468.52348,68.167442 C 468.66818,70.641997 470.78582,70.070111 470.72801,72.352628"
     style="fill:#e3e4e5;fill-opacity:1;fill-rule:evenodd;stroke:#000000;stroke-width:0.66909593;stroke-linecap:round;stroke-linejoin:miter;stroke-miterlimit:4;stroke-dasharray:none;stroke-opacity:1"
     id="path2444" />
  <path
     d="M 462.72453,63.214306 C 463.38729,63.75178 464.05004,64.289246 464.7128,64.826721"
     style="fill:#e3e4e5;fill-opacity:1;fill-rule:evenodd;stroke:#000000;stroke-width:0.66909593;stroke-linecap:round;stroke-linejoin:miter;stroke-miterlimit:4;stroke-dasharray:none;stroke-opacity:1"
     id="path2446" />
  <path
     d="M 461.6419,66.194452 C 462.76885,68.872029 464.90159,68.678722 465.68817,70.760304"
     style="fill:#e3e4e5;fill-opacity:1;fill-rule:evenodd;stroke:#000000;stroke-width:0.83636993;stroke-linecap:round;stroke-linejoin:miter;stroke-miterlimit:4;stroke-dasharray:none;stroke-opacity:1"
     id="path2448" />
  <path
     d="M 466.91995,78.849449 C 468.56378,79.831661 468.26262,83.340431 466.88641,83.097705"
     style="fill:#e3e4e5;fill-opacity:1;fill-rule:evenodd;stroke:#000000;stroke-width:0.66909593;stroke-linecap:round;stroke-linejoin:miter;stroke-miterlimit:4;stroke-dasharray:none;stroke-opacity:1"
     id="path2450" />
  <path
     d="M 460.31923,79.237321 C 461.67679,79.826615 462.59784,81.276854 462.43827,82.703987"
     style="fill:#e3e4e5;fill-opacity:1;fill-rule:evenodd;stroke:#000000;stroke-width:0.66909593;stroke-linecap:butt;stroke-linejoin:miter;stroke-miterlimit:4;stroke-dasharray:none;stroke-opacity:1"
     id="path2452" />
  <path
     d="M 454.47761,82.985996 C 454.90161,85.543308 455.9544,84.325823 456.34177,86.575198"
     style="fill:#e3e4e5;fill-opacity:1;fill-rule:evenodd;stroke:#000000;stroke-width:0.47208434px;stroke-linecap:round;stroke-linejoin:miter;stroke-opacity:1"
     id="path2456" />
  <path
     d="M 431.15412,94.265303 C 438.36514,95.767169 440.58111,100.91238 443.01787,103.76535"
     style="fill:#e3e4e5;fill-opacity:1;fill-rule:evenodd;stroke:#000000;stroke-width:0.59010547;stroke-linecap:butt;stroke-linejoin:miter;stroke-miterlimit:4;stroke-dasharray:none;stroke-opacity:1"
     id="path2538" />
  <path
     d="M 466.98554,91.597644 C 460.25532,94.137437 459.29171,99.519364 457.57058,102.68189"
     style="fill:#e3e4e5;fill-opacity:1;fill-rule:evenodd;stroke:#000000;stroke-width:0.59010547;stroke-linecap:butt;stroke-linejoin:miter;stroke-miterlimit:4;stroke-dasharray:none;stroke-opacity:1"
     id="path2540" />
  <g
     transform="matrix(0.4566194,0.1360192,-0.152514,0.4330326,348.66262,-10.788024)"
     style="fill:#e3e4e5;fill-opacity:1;display:inline"
     id="g5377">
    <path
       d="M 335.19302,343.61936 C 340.34831,357.98134 369.00985,359.74203 369.31849,332.66516 C 362.60193,277.54307 362.91302,239.86891 346.0185,185.23148 C 342.792,174.40403 335.68817,172.7852 334.15799,156.3841 C 333.61464,160.36864 333.0713,164.35318 332.52795,168.33772 C 327.38028,156.43771 328.53327,147.93036 330.89791,138.45367 C 328.90564,143.70602 326.18637,146.05038 324.9211,154.21072 C 322.5666,146.9661 321.18143,139.72148 317.8576,132.47686 C 313.97267,126.67356 320.99271,124.98992 324.37775,121.60994 C 313.97013,124.85227 311.31716,128.0946 313.51083,146.60387 C 313.16128,130.88523 305.54175,127.76786 301.55721,118.34986 C 300.26911,112.7226 305.03933,110.00334 315.14086,112.37305 C 303.04453,105.02665 295.79483,111.97785 297.75378,125.95671 C 297.09561,119.91869 296.67977,113.39599 290.69028,108.56963 C 287.79243,104.7662 283.92526,103.3861 281.99674,97.159354 C 280.96112,105.25594 285.25682,109.4752 286.88686,115.63313 C 279.56291,99.756548 240.24559,99.097863 228.29829,120.48338 C 213.8911,114.24621 186.24782,133.79187 187.99783,162.36091 C 189.91874,153.18017 196.20163,144.24176 203.21152,138.45367 C 192.25802,151.32047 188.57449,161.03696 192.88794,170.51111 C 197.43357,178.06181 198.10189,187.30884 191.2579,189.52823 C 201.4844,187.91594 199.35195,178.06434 201.09682,169.42441 C 202.18098,161.14164 203.99213,158.43252 207.01495,154.75406 C 198.41088,168.22289 202.89276,182.17639 208.10164,190.07157 C 212.81571,195.74736 216.56045,199.72684 217.88187,206.37196 C 219.99911,202.50985 220.66236,197.92075 219.62928,193.08932 C 225.58326,204.87957 238.5649,214.9735 258.0895,213.43547 C 245.21762,208.49681 234.28442,201.37717 232.55983,188.19921 C 237.55717,199.74459 246.43182,207.41265 256.76048,209.50707 C 264.0127,210.48147 268.11461,209.03254 272.21651,206.37196 C 268.77532,205.10415 265.33412,203.83635 261.89293,202.56854 C 289.27396,209.50925 291.69475,176.70743 264.06631,173.22784 C 278.52222,175.55952 283.28483,178.86053 285.62411,191.12784 C 287.13426,185.20972 286.70574,184.13823 284.82323,178.9471 C 291.06266,182.86789 289.54744,192.11999 288.5169,198.22177 C 290.50917,193.51277 293.22843,192.19642 293.03971,186.51809 C 292.81005,182.41112 289.67241,178.06181 283.62678,173.22784 C 290.27444,176.54407 292.31778,178.40629 294.84579,181.72252 C 293.0676,165.39677 286.92743,161.42998 264.06631,159.64418 C 277.65757,156.77205 297.06482,162.86623 296.35847,180.59236 C 295.1747,196.43851 284.29763,202.34902 274.38989,203.65523 C 280.1269,205.52253 286.10624,208.11683 290.14693,212.89212 C 285.61905,212.711 281.09116,212.52989 276.56328,212.34877 C 287.37152,215.96094 300.11843,222.48109 307.53402,231.90924 C 302.82502,230.09809 301.99333,226.34827 294.61867,226.47578 C 301.32502,229.54968 303.42705,237.22788 309.16406,240.05944 C 305.36063,240.24055 301.55721,240.42167 297.75378,240.60278 C 305.42438,247.96476 315.51831,253.63041 317.8576,265.59671 C 314.27876,265.94626 313.6079,265.56882 321.66102,277.55033 C 315.84504,275.48163 321.66102,282.62156 321.66102,285.15718 C 335.21877,307.14868 335.93289,333.50215 335.19302,343.61936 z "
       style="fill:#e3e4e5;fill-opacity:1;fill-rule:evenodd;stroke:#000000;stroke-width:2.48031497;stroke-linecap:butt;stroke-linejoin:miter;stroke-miterlimit:4;stroke-dasharray:none;stroke-opacity:1"
       id="path5379" />
    <path
       d="M 226.00344,119.72531 C 224.87707,126.01975 223.94946,131.91664 225.00958,136.81968 C 218.58263,136.95219 208.77655,134.50067 205.72872,152.72141 C 208.57778,146.09569 211.0293,143.04786 216.06485,140.59634 C 219.64274,139.20494 222.82309,139.60248 225.60589,140.59634 C 226.13595,143.11411 226.66601,145.63189 227.19607,148.14966 C 215.9986,156.2993 215.93234,160.07597 216.26363,174.98384 C 216.73337,174.05926 217.95724,175.43012 217.87164,174.39659 C 217.00435,163.92493 221.50389,150.86923 228.18993,150.93247 C 229.71385,153.78153 231.23776,156.63059 232.76168,159.47965 C 225.53964,162.99128 226.26847,172.86361 233.35799,176.57402 C 230.04513,169.55075 230.31016,165.9066 234.55062,163.25631 C 236.47208,165.17777 238.39354,167.09923 240.315,169.02069 C 239.45366,174.1225 240.58003,179.02554 243.69412,182.53717 C 242.634,178.09793 241.57389,174.25501 243.49535,172.20104 C 244.42295,170.4121 246.94072,171.00841 248.66341,170.4121 C 246.27815,169.68327 243.29658,168.5569 240.91132,165.84035 C 240.18249,164.64772 240.04997,163.25631 241.11009,161.06982 C 243.23032,159.01585 246.74195,157.95573 252.2413,157.88948 C 248.39838,156.49808 244.35669,156.10053 239.91745,160.07597 C 238.52605,160.27474 237.33343,161.66614 235.74325,159.47965 C 233.75554,156.56433 232.16536,153.0527 230.57519,149.73984 C 230.04513,145.43312 233.88805,142.5178 239.12237,141.39143 C 244.68798,140.33131 252.04253,140.86137 257.60814,143.18037 C 254.22902,140.00002 248.26587,139.00616 242.10395,138.60862 C 237.00214,138.14482 232.89419,141.06014 229.7801,143.57791 C 228.98501,140.39756 228.18993,137.21722 227.39484,134.03687 C 232.49665,129.20009 244.95301,125.55595 254.03025,125.48969 C 245.88061,122.8394 236.53834,125.35718 227.79238,130.06144 C 227.06355,126.68232 228.32244,123.3032 228.58747,119.92408 C 227.72613,119.85782 226.86478,119.79157 226.00344,119.72531 z "
       style="fill:#000000;fill-opacity:1;fill-rule:evenodd;stroke:none;stroke-width:0.29055119;stroke-linecap:butt;stroke-linejoin:miter;stroke-miterlimit:4;stroke-dasharray:none;stroke-opacity:1"
       id="path5381" />
    <path
       d="M 215.46853,148.54721 C 213.48081,148.67972 211.89064,151.1975 210.69801,153.11896"
       style="fill:#e3e4e5;fill-opacity:1;fill-rule:evenodd;stroke:#000000;stroke-width:2.06220484;stroke-linecap:round;stroke-linejoin:miter;stroke-miterlimit:4;stroke-dasharray:none;stroke-opacity:1"
       id="path5383" />
    <path
       d="M 238.9236,133.63933 C 241.90517,137.28348 243.89289,136.75342 245.48306,134.43442"
       style="fill:#e3e4e5;fill-opacity:1;fill-rule:evenodd;stroke:#000000;stroke-width:1.70787406;stroke-linecap:round;stroke-linejoin:miter;stroke-miterlimit:4;stroke-dasharray:none;stroke-opacity:1"
       id="path5385" />
    <path
       d="M 214.47468,182.73594 L 218.25134,190.28927"
       style="fill:#e3e4e5;fill-opacity:1;fill-rule:evenodd;stroke:#000000;stroke-width:2.06220484;stroke-linecap:round;stroke-linejoin:miter;stroke-miterlimit:4;stroke-dasharray:none;stroke-opacity:1"
       id="path5387" />
    <path
       d="M 244.68798,192.27698 C 246.80821,195.72236 248.92844,198.57142 251.64499,200.22785"
       style="fill:#e3e4e5;fill-opacity:1;fill-rule:evenodd;stroke:#000000;stroke-width:2.41653538;stroke-linecap:round;stroke-linejoin:miter;stroke-miterlimit:4;stroke-dasharray:none;stroke-opacity:1"
       id="path5389" />
    <path
       d="M 259.9934,187.70523 C 261.71609,191.54815 263.63754,193.60213 266.35409,194.46347"
       style="fill:#e3e4e5;fill-opacity:1;fill-rule:evenodd;stroke:#000000;stroke-width:1.70787406;stroke-linecap:round;stroke-linejoin:miter;stroke-miterlimit:4;stroke-dasharray:none;stroke-opacity:1"
       id="path5391" />
    <path
       d="M 268.54058,186.31383 C 268.60684,189.82546 269.86572,191.9457 271.72093,193.27084"
       style="fill:#e3e4e5;fill-opacity:1;fill-rule:evenodd;stroke:#000000;stroke-width:2.06220484;stroke-linecap:round;stroke-linejoin:miter;stroke-miterlimit:4;stroke-dasharray:none;stroke-opacity:1"
       id="path5393" />
    <path
       d="M 256.41551,115.5511 L 260.39094,115.5511"
       style="fill:#e3e4e5;fill-opacity:1;fill-rule:evenodd;stroke:#000000;stroke-width:1.70787406;stroke-linecap:round;stroke-linejoin:miter;stroke-miterlimit:4;stroke-dasharray:none;stroke-opacity:1"
       id="path5395" />
    <path
       d="M 259.39708,127.07986 C 262.64369,126.88109 263.90257,128.27249 263.77006,129.46512"
       style="fill:#e3e4e5;fill-opacity:1;fill-rule:evenodd;stroke:#000000;stroke-width:1.70787406;stroke-linecap:round;stroke-linejoin:miter;stroke-miterlimit:4;stroke-dasharray:none;stroke-opacity:1"
       id="path5397" />
    <path
       d="M 257.80691,134.23564 L 262.57743,134.23564"
       style="fill:#e3e4e5;fill-opacity:1;fill-rule:evenodd;stroke:#000000;stroke-width:1.70787406;stroke-linecap:round;stroke-linejoin:miter;stroke-miterlimit:4;stroke-dasharray:none;stroke-opacity:1"
       id="path5399" />
    <path
       d="M 257.60814,147.55335 C 259.86089,146.89078 264.10135,148.61346 264.36638,145.56563"
       style="fill:#e3e4e5;fill-opacity:1;fill-rule:evenodd;stroke:#000000;stroke-width:1.70787406;stroke-linecap:round;stroke-linejoin:miter;stroke-miterlimit:4;stroke-dasharray:none;stroke-opacity:1"
       id="path5401" />
    <path
       d="M 320.02246,167.03298 C 315.23808,171.3439 307.41248,182.15197 311.47527,194.06593 C 307.27576,190.3751 304.04392,185.99309 305.51212,176.77279 C 304.65078,179.15805 304.89533,180.29918 303.06633,182.26973 C 300.71299,182.12818 300.29497,182.26311 299.324,178.94211 C 299.22913,175.98101 299.2725,175.36994 301.52766,174.34416 C 304.50923,175.53679 307.62905,177.69709 309.50472,175.98674 C 307.17999,174.29267 303.61114,173.28976 302.53055,170.21332 C 303.78703,161.62939 308.36118,158.02199 311.2765,151.92633 C 306.97881,153.91735 303.78703,157.56723 302.53055,162.46123 C 300.68768,153.62854 301.05662,143.55172 305.71089,132.64547 C 300.78255,136.58988 297.92777,143.43726 297.56125,151.52878 C 291.81011,145.0675 289.23842,140.40329 298.55511,134.63319 C 295.80996,133.71462 294.44716,135.56079 292.39319,136.02459 C 289.7429,132.38044 287.09261,128.73629 284.44232,125.09214 C 282.48411,122.39276 282.87593,119.55514 286.03249,115.74987 C 283.57525,116.80758 279.18269,117.5888 279.35195,125.00541 C 275.95567,123.4333 271.72996,123.24357 270.13076,127.47741 C 276.17403,127.23285 280.00549,127.40302 282.4546,130.06144 C 284.90612,132.84424 287.35764,135.62705 289.80916,138.40985 C 288.49305,142.23801 289.94167,143.57792 290.00793,146.16195 C 282.27059,146.82362 273.84206,143.33819 270.5283,138.60862 C 270.22501,147.70455 285.54249,146.70917 292.56576,149.58443 C 300.53531,155.06089 302.00772,164.68447 299.6095,169.88445 C 297.21521,158.02562 293.30031,162.28757 288.41775,155.10667 C 291.78784,161.34299 296.26383,163.01748 294.38091,168.42438 C 296.1036,173.72496 294.78507,173.91077 299.54897,184.32612 C 303.78943,189.09664 308.0299,193.86716 312.27036,198.63768 C 307.1538,194.81282 299.96368,195.41155 293.18828,195.45733 C 316.2398,200.10857 318.55577,205.31277 329.16596,227.65835 C 319.68214,218.90999 309.23066,211.68222 296.56739,206.38978 C 309.53334,215.27155 323.60517,225.121 332.14753,237.59693 C 323.76719,231.11848 316.21629,224.22531 304.51826,221.89397 C 329.69093,235.23524 335.7869,238.4852 340.22402,266.8943 C 328.59243,257.94692 316.96084,248.99954 305.32925,240.05216 C 306.9817,241.48974 303.88346,240.1532 305.49994,241.49422 C 334.22929,265.3278 342.49163,268.90938 344.58587,286.69037 C 335.91496,277.20884 328.34996,271.4597 317.74374,264.88114 C 327.80328,274.15018 344.91289,285.631 346.2635,296.42064 C 338.09902,290.15748 330.07278,282.51194 321.77006,277.63115 C 330.27007,286.69037 348.72313,296.30254 347.27008,304.80881 C 341.03197,298.66868 339.21744,299.44038 335.19112,296.75617 C 346.55652,306.18492 348.7983,306.90473 350.62535,319.23645 C 345.81613,315.6575 342.11282,311.66384 336.1977,308.4996 C 341.46815,314.44736 347.98274,316.10979 348.27666,324.26935 C 345.92797,323.37461 343.57929,322.47988 341.2306,321.58514 C 342.79639,323.26277 344.36219,324.94041 345.92798,326.61804 C 348.38851,329.86146 350.84903,333.10489 353.30956,336.34831 C 353.75693,342.16411 354.2043,347.9799 354.65167,353.7957 C 355.65825,353.34833 356.66483,352.90096 357.67141,352.45359 C 357.44773,347.08516 357.22404,341.71674 357.00036,336.34831 C 356.21746,329.52594 355.43457,322.70356 354.65167,315.88119 C 355.21088,311.74303 355.77009,307.60486 356.3293,303.4667 C 355.21088,304.36144 354.09246,305.25617 352.97404,306.15091 C 352.28912,300.66438 352.84833,295.73079 354.65167,288.03247 C 353.42141,290.15747 352.19114,292.28248 350.96088,294.40748 C 348.92625,285.73524 352.28286,281.07186 353.98062,274.61141 C 351.96746,277.85483 349.9543,281.09826 347.94114,284.34168 C 349.1714,274.38772 344.45748,260.97785 351.63193,254.47981 C 346.68313,256.78823 346.71087,261.8614 344.25034,265.55219 C 344.45256,258.45334 347.97245,250.11036 353.98062,245.08506 C 350.17798,249.22322 346.37535,253.36139 342.57271,257.49955 C 344.572,251.29544 347.81543,244.81486 352.30298,239.71664 C 348.97411,241.31375 344.12464,245.81383 341.90166,252.80218 C 335.33787,243.22267 343.15071,234.47257 346.2635,226.96662 C 342.2761,228.48454 340.22402,236.36137 337.20428,241.05874 C 329.58111,227.25562 331.35807,225.61736 339.21744,202.13765 C 334.15054,207.14281 332.95428,217.12451 329.8227,224.61794 C 321.67924,211.78248 326.94477,198.94702 333.17796,185.69685 C 327.13714,192.39352 324.27576,201.02549 322.10558,209.51924 C 316.80605,199.11791 319.93897,190.09896 324.45427,178.31526 C 320.60511,182.79387 318.27655,190.45193 315.39505,200.46002 C 312.09923,190.28533 314.19464,178.86651 320.02246,167.03298 z "
       style="fill:#000000;fill-opacity:1;fill-rule:evenodd;stroke:none;stroke-width:0.6448819;stroke-linecap:butt;stroke-linejoin:miter;stroke-miterlimit:4;stroke-dasharray:none;stroke-opacity:1"
       id="path5403" />
    <path
       d="M 272.15943,148.9567 C 272.51341,152.24365 282.42483,150.37262 283.23393,154.72151"
       style="fill:#e3e4e5;fill-opacity:1;fill-rule:evenodd;stroke:#000000;stroke-width:2.06220484;stroke-linecap:round;stroke-linejoin:miter;stroke-miterlimit:4;stroke-dasharray:none;stroke-opacity:1"
       id="path5405" />
    <path
       d="M 260.02301,109.05819 C 268.56908,111.18207 275.9015,111.33377 276.55889,119.98098 C 276.91287,119.72814 277.26685,119.47529 277.62083,119.22245 C 278.27822,110.82808 273.32251,107.5917 261.38835,108.60307 C 260.93324,108.75478 260.47812,108.90648 260.02301,109.05819 z "
       style="fill:#e3e4e5;fill-opacity:1;fill-rule:evenodd;stroke:#000000;stroke-width:1px;stroke-linecap:butt;stroke-linejoin:miter;stroke-opacity:1"
       id="path5407" />
  </g>
  <g
     transform="matrix(0.4159375,-0.1915088,0.1800737,0.4423506,246.61166,110.20064)"
     style="fill:#e3e4e5;fill-opacity:1;display:inline"
     id="g2711">
    <path
       d="M 335.19302,343.61936 C 340.34831,357.98134 369.00985,359.74203 369.31849,332.66516 C 362.60193,277.54307 362.91302,239.86891 346.0185,185.23148 C 342.792,174.40403 335.68817,172.7852 334.15799,156.3841 C 333.61464,160.36864 333.0713,164.35318 332.52795,168.33772 C 327.38028,156.43771 328.53327,147.93036 330.89791,138.45367 C 328.90564,143.70602 326.18637,146.05038 324.9211,154.21072 C 322.5666,146.9661 321.18143,139.72148 317.8576,132.47686 C 313.97267,126.67356 320.99271,124.98992 324.37775,121.60994 C 313.97013,124.85227 311.31716,128.0946 313.51083,146.60387 C 313.16128,130.88523 305.54175,127.76786 301.55721,118.34986 C 300.26911,112.7226 305.03933,110.00334 315.14086,112.37305 C 303.04453,105.02665 295.79483,111.97785 297.75378,125.95671 C 297.09561,119.91869 296.67977,113.39599 290.69028,108.56963 C 287.79243,104.7662 283.92526,103.3861 281.99674,97.159354 C 280.96112,105.25594 285.25682,109.4752 286.88686,115.63313 C 279.56291,99.756548 240.24559,99.097863 228.29829,120.48338 C 213.8911,114.24621 186.24782,133.79187 187.99783,162.36091 C 189.91874,153.18017 196.20163,144.24176 203.21152,138.45367 C 192.25802,151.32047 188.57449,161.03696 192.88794,170.51111 C 197.43357,178.06181 198.10189,187.30884 191.2579,189.52823 C 201.4844,187.91594 199.35195,178.06434 201.09682,169.42441 C 202.18098,161.14164 203.99213,158.43252 207.01495,154.75406 C 198.41088,168.22289 202.89276,182.17639 208.10164,190.07157 C 212.81571,195.74736 216.56045,199.72684 217.88187,206.37196 C 219.99911,202.50985 220.66236,197.92075 219.62928,193.08932 C 225.58326,204.87957 238.5649,214.9735 258.0895,213.43547 C 245.21762,208.49681 234.28442,201.37717 232.55983,188.19921 C 237.55717,199.74459 246.43182,207.41265 256.76048,209.50707 C 264.0127,210.48147 268.11461,209.03254 272.21651,206.37196 C 268.77532,205.10415 265.33412,203.83635 261.89293,202.56854 C 289.27396,209.50925 291.69475,176.70743 264.06631,173.22784 C 278.52222,175.55952 283.28483,178.86053 285.62411,191.12784 C 287.13426,185.20972 286.70574,184.13823 284.82323,178.9471 C 291.06266,182.86789 289.54744,192.11999 288.5169,198.22177 C 290.50917,193.51277 293.22843,192.19642 293.03971,186.51809 C 292.81005,182.41112 289.67241,178.06181 283.62678,173.22784 C 290.27444,176.54407 292.31778,178.40629 294.84579,181.72252 C 293.0676,165.39677 286.92743,161.42998 264.06631,159.64418 C 277.65757,156.77205 297.06482,162.86623 296.35847,180.59236 C 295.1747,196.43851 284.29763,202.34902 274.38989,203.65523 C 280.1269,205.52253 286.10624,208.11683 290.14693,212.89212 C 285.61905,212.711 281.09116,212.52989 276.56328,212.34877 C 287.37152,215.96094 300.11843,222.48109 307.53402,231.90924 C 302.82502,230.09809 301.99333,226.34827 294.61867,226.47578 C 301.32502,229.54968 303.42705,237.22788 309.16406,240.05944 C 305.36063,240.24055 301.55721,240.42167 297.75378,240.60278 C 305.42438,247.96476 315.51831,253.63041 317.8576,265.59671 C 314.27876,265.94626 313.6079,265.56882 321.66102,277.55033 C 315.84504,275.48163 321.66102,282.62156 321.66102,285.15718 C 335.21877,307.14868 335.93289,333.50215 335.19302,343.61936 z "
       style="fill:#0071bc;fill-opacity:1;fill-rule:evenodd;stroke:#000000;stroke-width:2.48031497;stroke-linecap:butt;stroke-linejoin:miter;stroke-miterlimit:4;stroke-dasharray:none;stroke-opacity:1"
       id="path2713" />
    <path
       d="M 226.00344,119.72531 C 224.87707,126.01975 223.94946,131.91664 225.00958,136.81968 C 218.58263,136.95219 208.77655,134.50067 205.72872,152.72141 C 208.57778,146.09569 211.0293,143.04786 216.06485,140.59634 C 219.64274,139.20494 222.82309,139.60248 225.60589,140.59634 C 226.13595,143.11411 226.66601,145.63189 227.19607,148.14966 C 215.9986,156.2993 215.93234,160.07597 216.26363,174.98384 C 216.73337,174.05926 217.95724,175.43012 217.87164,174.39659 C 217.00435,163.92493 221.50389,150.86923 228.18993,150.93247 C 229.71385,153.78153 231.23776,156.63059 232.76168,159.47965 C 225.53964,162.99128 226.26847,172.86361 233.35799,176.57402 C 230.04513,169.55075 230.31016,165.9066 234.55062,163.25631 C 236.47208,165.17777 238.39354,167.09923 240.315,169.02069 C 239.45366,174.1225 240.58003,179.02554 243.69412,182.53717 C 242.634,178.09793 241.57389,174.25501 243.49535,172.20104 C 244.42295,170.4121 246.94072,171.00841 248.66341,170.4121 C 246.27815,169.68327 243.29658,168.5569 240.91132,165.84035 C 240.18249,164.64772 240.04997,163.25631 241.11009,161.06982 C 243.23032,159.01585 246.74195,157.95573 252.2413,157.88948 C 248.39838,156.49808 244.35669,156.10053 239.91745,160.07597 C 238.52605,160.27474 237.33343,161.66614 235.74325,159.47965 C 233.75554,156.56433 232.16536,153.0527 230.57519,149.73984 C 230.04513,145.43312 233.88805,142.5178 239.12237,141.39143 C 244.68798,140.33131 252.04253,140.86137 257.60814,143.18037 C 254.22902,140.00002 248.26587,139.00616 242.10395,138.60862 C 237.00214,138.14482 232.89419,141.06014 229.7801,143.57791 C 228.98501,140.39756 228.18993,137.21722 227.39484,134.03687 C 232.49665,129.20009 244.95301,125.55595 254.03025,125.48969 C 245.88061,122.8394 236.53834,125.35718 227.79238,130.06144 C 227.06355,126.68232 228.32244,123.3032 228.58747,119.92408 C 227.72613,119.85782 226.86478,119.79157 226.00344,119.72531 z "
       style="fill:#000000;fill-opacity:1;fill-rule:evenodd;stroke:none;stroke-width:0.29055119;stroke-linecap:butt;stroke-linejoin:miter;stroke-miterlimit:4;stroke-dasharray:none;stroke-opacity:1"
       id="path2715" />
    <path
       d="M 215.46853,148.54721 C 213.48081,148.67972 211.89064,151.1975 210.69801,153.11896"
       style="fill:#e3e4e5;fill-opacity:1;fill-rule:evenodd;stroke:#000000;stroke-width:2.06220484;stroke-linecap:round;stroke-linejoin:miter;stroke-miterlimit:4;stroke-dasharray:none;stroke-opacity:1"
       id="path2717" />
    <path
       d="M 238.9236,133.63933 C 241.90517,137.28348 243.89289,136.75342 245.48306,134.43442"
       style="fill:#e3e4e5;fill-opacity:1;fill-rule:evenodd;stroke:#000000;stroke-width:1.70787406;stroke-linecap:round;stroke-linejoin:miter;stroke-miterlimit:4;stroke-dasharray:none;stroke-opacity:1"
       id="path2719" />
    <path
       d="M 214.47468,182.73594 L 218.25134,190.28927"
       style="fill:#e3e4e5;fill-opacity:1;fill-rule:evenodd;stroke:#000000;stroke-width:2.06220484;stroke-linecap:round;stroke-linejoin:miter;stroke-miterlimit:4;stroke-dasharray:none;stroke-opacity:1"
       id="path2721" />
    <path
       d="M 244.68798,192.27698 C 246.80821,195.72236 248.92844,198.57142 251.64499,200.22785"
       style="fill:#e3e4e5;fill-opacity:1;fill-rule:evenodd;stroke:#000000;stroke-width:2.41653538;stroke-linecap:round;stroke-linejoin:miter;stroke-miterlimit:4;stroke-dasharray:none;stroke-opacity:1"
       id="path2723" />
    <path
       d="M 259.9934,187.70523 C 261.71609,191.54815 263.63754,193.60213 266.35409,194.46347"
       style="fill:#e3e4e5;fill-opacity:1;fill-rule:evenodd;stroke:#000000;stroke-width:1.70787406;stroke-linecap:round;stroke-linejoin:miter;stroke-miterlimit:4;stroke-dasharray:none;stroke-opacity:1"
       id="path2725" />
    <path
       d="M 268.54058,186.31383 C 268.60684,189.82546 269.86572,191.9457 271.72093,193.27084"
       style="fill:#e3e4e5;fill-opacity:1;fill-rule:evenodd;stroke:#000000;stroke-width:2.06220484;stroke-linecap:round;stroke-linejoin:miter;stroke-miterlimit:4;stroke-dasharray:none;stroke-opacity:1"
       id="path2727" />
    <path
       d="M 256.41551,115.5511 L 260.39094,115.5511"
       style="fill:#e3e4e5;fill-opacity:1;fill-rule:evenodd;stroke:#000000;stroke-width:1.70787406;stroke-linecap:round;stroke-linejoin:miter;stroke-miterlimit:4;stroke-dasharray:none;stroke-opacity:1"
       id="path2729" />
    <path
       d="M 259.39708,127.07986 C 262.64369,126.88109 263.90257,128.27249 263.77006,129.46512"
       style="fill:#e3e4e5;fill-opacity:1;fill-rule:evenodd;stroke:#000000;stroke-width:1.70787406;stroke-linecap:round;stroke-linejoin:miter;stroke-miterlimit:4;stroke-dasharray:none;stroke-opacity:1"
       id="path2731" />
    <path
       d="M 257.80691,134.23564 L 262.57743,134.23564"
       style="fill:#e3e4e5;fill-opacity:1;fill-rule:evenodd;stroke:#000000;stroke-width:1.70787406;stroke-linecap:round;stroke-linejoin:miter;stroke-miterlimit:4;stroke-dasharray:none;stroke-opacity:1"
       id="path2733" />
    <path
       d="M 257.60814,147.55335 C 259.86089,146.89078 264.10135,148.61346 264.36638,145.56563"
       style="fill:#e3e4e5;fill-opacity:1;fill-rule:evenodd;stroke:#000000;stroke-width:1.70787406;stroke-linecap:round;stroke-linejoin:miter;stroke-miterlimit:4;stroke-dasharray:none;stroke-opacity:1"
       id="path2735" />
    <path
       d="M 320.02246,167.03298 C 315.23808,171.3439 307.41248,182.15197 311.47527,194.06593 C 307.27576,190.3751 304.04392,185.99309 305.51212,176.77279 C 304.65078,179.15805 304.89533,180.29918 303.06633,182.26973 C 300.71299,182.12818 300.29497,182.26311 299.324,178.94211 C 299.22913,175.98101 299.2725,175.36994 301.52766,174.34416 C 304.50923,175.53679 307.62905,177.69709 309.50472,175.98674 C 307.17999,174.29267 303.61114,173.28976 302.53055,170.21332 C 303.78703,161.62939 308.36118,158.02199 311.2765,151.92633 C 306.97881,153.91735 303.78703,157.56723 302.53055,162.46123 C 300.68768,153.62854 301.05662,143.55172 305.71089,132.64547 C 300.78255,136.58988 297.92777,143.43726 297.56125,151.52878 C 291.81011,145.0675 289.23842,140.40329 298.55511,134.63319 C 295.80996,133.71462 294.44716,135.56079 292.39319,136.02459 C 289.7429,132.38044 287.09261,128.73629 284.44232,125.09214 C 282.48411,122.39276 282.87593,119.55514 286.03249,115.74987 C 283.57525,116.80758 279.18269,117.5888 279.35195,125.00541 C 275.95567,123.4333 271.72996,123.24357 270.13076,127.47741 C 276.17403,127.23285 280.00549,127.40302 282.4546,130.06144 C 284.90612,132.84424 287.35764,135.62705 289.80916,138.40985 C 288.49305,142.23801 289.94167,143.57792 290.00793,146.16195 C 282.27059,146.82362 273.84206,143.33819 270.5283,138.60862 C 270.22501,147.70455 285.54249,146.70917 292.56576,149.58443 C 300.53531,155.06089 302.00772,164.68447 299.6095,169.88445 C 297.21521,158.02562 293.30031,162.28757 288.41775,155.10667 C 291.78784,161.34299 296.26383,163.01748 294.38091,168.42438 C 296.1036,173.72496 294.78507,173.91077 299.54897,184.32612 C 303.78943,189.09664 308.0299,193.86716 312.27036,198.63768 C 307.1538,194.81282 299.96368,195.41155 293.18828,195.45733 C 316.2398,200.10857 318.55577,205.31277 329.16596,227.65835 C 319.68214,218.90999 309.23066,211.68222 296.56739,206.38978 C 309.53334,215.27155 323.60517,225.121 332.14753,237.59693 C 323.76719,231.11848 316.21629,224.22531 304.51826,221.89397 C 329.69093,235.23524 335.7869,238.4852 340.22402,266.8943 C 328.59243,257.94692 316.96084,248.99954 305.32925,240.05216 C 306.9817,241.48974 303.88346,240.1532 305.49994,241.49422 C 334.22929,265.3278 342.49163,268.90938 344.58587,286.69037 C 335.91496,277.20884 328.34996,271.4597 317.74374,264.88114 C 327.80328,274.15018 344.91289,285.631 346.2635,296.42064 C 338.09902,290.15748 330.07278,282.51194 321.77006,277.63115 C 330.27007,286.69037 348.72313,296.30254 347.27008,304.80881 C 341.03197,298.66868 339.21744,299.44038 335.19112,296.75617 C 346.55652,306.18492 348.7983,306.90473 350.62535,319.23645 C 345.81613,315.6575 342.11282,311.66384 336.1977,308.4996 C 341.46815,314.44736 347.98274,316.10979 348.27666,324.26935 C 345.92797,323.37461 343.57929,322.47988 341.2306,321.58514 C 342.79639,323.26277 344.36219,324.94041 345.92798,326.61804 C 348.38851,329.86146 350.84903,333.10489 353.30956,336.34831 C 353.75693,342.16411 354.2043,347.9799 354.65167,353.7957 C 355.65825,353.34833 356.66483,352.90096 357.67141,352.45359 C 357.44773,347.08516 357.22404,341.71674 357.00036,336.34831 C 356.21746,329.52594 355.43457,322.70356 354.65167,315.88119 C 355.21088,311.74303 355.77009,307.60486 356.3293,303.4667 C 355.21088,304.36144 354.09246,305.25617 352.97404,306.15091 C 352.28912,300.66438 352.84833,295.73079 354.65167,288.03247 C 353.42141,290.15747 352.19114,292.28248 350.96088,294.40748 C 348.92625,285.73524 352.28286,281.07186 353.98062,274.61141 C 351.96746,277.85483 349.9543,281.09826 347.94114,284.34168 C 349.1714,274.38772 344.45748,260.97785 351.63193,254.47981 C 346.68313,256.78823 346.71087,261.8614 344.25034,265.55219 C 344.45256,258.45334 347.97245,250.11036 353.98062,245.08506 C 350.17798,249.22322 346.37535,253.36139 342.57271,257.49955 C 344.572,251.29544 347.81543,244.81486 352.30298,239.71664 C 348.97411,241.31375 344.12464,245.81383 341.90166,252.80218 C 335.33787,243.22267 343.15071,234.47257 346.2635,226.96662 C 342.2761,228.48454 340.22402,236.36137 337.20428,241.05874 C 329.58111,227.25562 331.35807,225.61736 339.21744,202.13765 C 334.15054,207.14281 332.95428,217.12451 329.8227,224.61794 C 321.67924,211.78248 326.94477,198.94702 333.17796,185.69685 C 327.13714,192.39352 324.27576,201.02549 322.10558,209.51924 C 316.80605,199.11791 319.93897,190.09896 324.45427,178.31526 C 320.60511,182.79387 318.27655,190.45193 315.39505,200.46002 C 312.09923,190.28533 314.19464,178.86651 320.02246,167.03298 z "
       style="fill:#000000;fill-opacity:1;fill-rule:evenodd;stroke:none;stroke-width:0.6448819;stroke-linecap:butt;stroke-linejoin:miter;stroke-miterlimit:4;stroke-dasharray:none;stroke-opacity:1"
       id="path2737" />
    <path
       d="M 272.15943,148.9567 C 272.51341,152.24365 282.42483,150.37262 283.23393,154.72151"
       style="fill:#e3e4e5;fill-opacity:1;fill-rule:evenodd;stroke:#000000;stroke-width:2.06220484;stroke-linecap:round;stroke-linejoin:miter;stroke-miterlimit:4;stroke-dasharray:none;stroke-opacity:1"
       id="path2739" />
    <path
       d="M 260.02301,109.05819 C 268.56908,111.18207 275.9015,111.33377 276.55889,119.98098 C 276.91287,119.72814 277.26685,119.47529 277.62083,119.22245 C 278.27822,110.82808 273.32251,107.5917 261.38835,108.60307 C 260.93324,108.75478 260.47812,108.90648 260.02301,109.05819 z "
       style="fill:#e3e4e5;fill-opacity:1;fill-rule:evenodd;stroke:#000000;stroke-width:1px;stroke-linecap:butt;stroke-linejoin:miter;stroke-opacity:1"
       id="path2741" />
  </g>
  <g
     transform="matrix(-0.4378141,-0.1247043,-0.1172582,0.4656164,661.7835,81.580224)"
     style="fill:#000000;fill-opacity:1"
     id="g3012">
    <path
       d="M 335.19302,343.61936 C 340.34831,357.98134 369.00985,359.74203 369.31849,332.66516 C 362.60193,277.54307 362.91302,239.86891 346.0185,185.23148 C 342.792,174.40403 335.68817,172.7852 334.15799,156.3841 C 333.61464,160.36864 333.0713,164.35318 332.52795,168.33772 C 327.38028,156.43771 328.53327,147.93036 330.89791,138.45367 C 328.90564,143.70602 326.18637,146.05038 324.9211,154.21072 C 322.5666,146.9661 321.18143,139.72148 317.8576,132.47686 C 313.97267,126.67356 320.99271,124.98992 324.37775,121.60994 C 313.97013,124.85227 311.31716,128.0946 313.51083,146.60387 C 313.16128,130.88523 305.54175,127.76786 301.55721,118.34986 C 300.26911,112.7226 305.03933,110.00334 315.14086,112.37305 C 303.04453,105.02665 295.79483,111.97785 297.75378,125.95671 C 297.09561,119.91869 296.67977,113.39599 290.69028,108.56963 C 287.79243,104.7662 283.92526,103.3861 281.99674,97.159354 C 280.96112,105.25594 285.25682,109.4752 286.88686,115.63313 C 279.56291,99.756548 240.24559,99.097863 228.29829,120.48338 C 213.8911,114.24621 186.24782,133.79187 187.99783,162.36091 C 189.91874,153.18017 196.20163,144.24176 203.21152,138.45367 C 192.25802,151.32047 188.57449,161.03696 192.88794,170.51111 C 197.43357,178.06181 198.10189,187.30884 191.2579,189.52823 C 201.4844,187.91594 199.35195,178.06434 201.09682,169.42441 C 202.18098,161.14164 203.99213,158.43252 207.01495,154.75406 C 198.41088,168.22289 202.89276,182.17639 208.10164,190.07157 C 212.81571,195.74736 216.56045,199.72684 217.88187,206.37196 C 219.99911,202.50985 220.66236,197.92075 219.62928,193.08932 C 225.58326,204.87957 238.5649,214.9735 258.0895,213.43547 C 245.21762,208.49681 234.28442,201.37717 232.55983,188.19921 C 237.55717,199.74459 246.43182,207.41265 256.76048,209.50707 C 264.0127,210.48147 268.11461,209.03254 272.21651,206.37196 C 268.77532,205.10415 265.33412,203.83635 261.89293,202.56854 C 289.27396,209.50925 291.69475,176.70743 264.06631,173.22784 C 278.52222,175.55952 283.28483,178.86053 285.62411,191.12784 C 287.13426,185.20972 286.70574,184.13823 284.82323,178.9471 C 291.06266,182.86789 289.54744,192.11999 288.5169,198.22177 C 290.50917,193.51277 293.22843,192.19642 293.03971,186.51809 C 292.81005,182.41112 289.67241,178.06181 283.62678,173.22784 C 290.27444,176.54407 292.31778,178.40629 294.84579,181.72252 C 293.0676,165.39677 286.92743,161.42998 264.06631,159.64418 C 277.65757,156.77205 297.06482,162.86623 296.35847,180.59236 C 295.1747,196.43851 284.29763,202.34902 274.38989,203.65523 C 280.1269,205.52253 286.10624,208.11683 290.14693,212.89212 C 285.61905,212.711 281.09116,212.52989 276.56328,212.34877 C 287.37152,215.96094 300.11843,222.48109 307.53402,231.90924 C 302.82502,230.09809 301.99333,226.34827 294.61867,226.47578 C 301.32502,229.54968 303.42705,237.22788 309.16406,240.05944 C 305.36063,240.24055 301.55721,240.42167 297.75378,240.60278 C 305.42438,247.96476 315.51831,253.63041 317.8576,265.59671 C 314.27876,265.94626 313.6079,265.56882 321.66102,277.55033 C 315.84504,275.48163 321.66102,282.62156 321.66102,285.15718 C 335.21877,307.14868 335.93289,333.50215 335.19302,343.61936 z "
       style="fill:#ed1c24;fill-opacity:1;fill-rule:evenodd;stroke:#000000;stroke-width:2.48031497;stroke-linecap:butt;stroke-linejoin:miter;stroke-miterlimit:4;stroke-dasharray:none;stroke-opacity:1"
       id="path3014" />
    <path
       d="M 226.00344,119.72531 C 224.87707,126.01975 223.94946,131.91664 225.00958,136.81968 C 218.58263,136.95219 208.77655,134.50067 205.72872,152.72141 C 208.57778,146.09569 211.0293,143.04786 216.06485,140.59634 C 219.64274,139.20494 222.82309,139.60248 225.60589,140.59634 C 226.13595,143.11411 226.66601,145.63189 227.19607,148.14966 C 215.9986,156.2993 215.93234,160.07597 216.26363,174.98384 C 216.73337,174.05926 217.95724,175.43012 217.87164,174.39659 C 217.00435,163.92493 221.50389,150.86923 228.18993,150.93247 C 229.71385,153.78153 231.23776,156.63059 232.76168,159.47965 C 225.53964,162.99128 226.26847,172.86361 233.35799,176.57402 C 230.04513,169.55075 230.31016,165.9066 234.55062,163.25631 C 236.47208,165.17777 238.39354,167.09923 240.315,169.02069 C 239.45366,174.1225 240.58003,179.02554 243.69412,182.53717 C 242.634,178.09793 241.57389,174.25501 243.49535,172.20104 C 244.42295,170.4121 246.94072,171.00841 248.66341,170.4121 C 246.27815,169.68327 243.29658,168.5569 240.91132,165.84035 C 240.18249,164.64772 240.04997,163.25631 241.11009,161.06982 C 243.23032,159.01585 246.74195,157.95573 252.2413,157.88948 C 248.39838,156.49808 244.35669,156.10053 239.91745,160.07597 C 238.52605,160.27474 237.33343,161.66614 235.74325,159.47965 C 233.75554,156.56433 232.16536,153.0527 230.57519,149.73984 C 230.04513,145.43312 233.88805,142.5178 239.12237,141.39143 C 244.68798,140.33131 252.04253,140.86137 257.60814,143.18037 C 254.22902,140.00002 248.26587,139.00616 242.10395,138.60862 C 237.00214,138.14482 232.89419,141.06014 229.7801,143.57791 C 228.98501,140.39756 228.18993,137.21722 227.39484,134.03687 C 232.49665,129.20009 244.95301,125.55595 254.03025,125.48969 C 245.88061,122.8394 236.53834,125.35718 227.79238,130.06144 C 227.06355,126.68232 228.32244,123.3032 228.58747,119.92408 C 227.72613,119.85782 226.86478,119.79157 226.00344,119.72531 z "
       style="fill:#000000;fill-opacity:1;fill-rule:evenodd;stroke:none;stroke-width:0.29055119;stroke-linecap:butt;stroke-linejoin:miter;stroke-miterlimit:4;stroke-dasharray:none;stroke-opacity:1"
       id="path3016" />
    <path
       d="M 215.46853,148.54721 C 213.48081,148.67972 211.89064,151.1975 210.69801,153.11896"
       style="fill:#000000;fill-opacity:1;fill-rule:evenodd;stroke:#000000;stroke-width:2.06220484;stroke-linecap:round;stroke-linejoin:miter;stroke-miterlimit:4;stroke-dasharray:none;stroke-opacity:1"
       id="path3018" />
    <path
       d="M 238.9236,133.63933 C 241.90517,137.28348 243.89289,136.75342 245.48306,134.43442"
       style="fill:#000000;fill-opacity:1;fill-rule:evenodd;stroke:#000000;stroke-width:1.70787406;stroke-linecap:round;stroke-linejoin:miter;stroke-miterlimit:4;stroke-dasharray:none;stroke-opacity:1"
       id="path3020" />
    <path
       d="M 214.47468,182.73594 L 218.25134,190.28927"
       style="fill:#000000;fill-opacity:1;fill-rule:evenodd;stroke:#000000;stroke-width:2.06220484;stroke-linecap:round;stroke-linejoin:miter;stroke-miterlimit:4;stroke-dasharray:none;stroke-opacity:1"
       id="path3022" />
    <path
       d="M 244.68798,192.27698 C 246.80821,195.72236 248.92844,198.57142 251.64499,200.22785"
       style="fill:#000000;fill-opacity:1;fill-rule:evenodd;stroke:#000000;stroke-width:2.41653538;stroke-linecap:round;stroke-linejoin:miter;stroke-miterlimit:4;stroke-dasharray:none;stroke-opacity:1"
       id="path3024" />
    <path
       d="M 259.9934,187.70523 C 261.71609,191.54815 263.63754,193.60213 266.35409,194.46347"
       style="fill:#000000;fill-opacity:1;fill-rule:evenodd;stroke:#000000;stroke-width:1.70787406;stroke-linecap:round;stroke-linejoin:miter;stroke-miterlimit:4;stroke-dasharray:none;stroke-opacity:1"
       id="path3026" />
    <path
       d="M 268.54058,186.31383 C 268.60684,189.82546 269.86572,191.9457 271.72093,193.27084"
       style="fill:#000000;fill-opacity:1;fill-rule:evenodd;stroke:#000000;stroke-width:2.06220484;stroke-linecap:round;stroke-linejoin:miter;stroke-miterlimit:4;stroke-dasharray:none;stroke-opacity:1"
       id="path3028" />
    <path
       d="M 256.41551,115.5511 L 260.39094,115.5511"
       style="fill:#000000;fill-opacity:1;fill-rule:evenodd;stroke:#000000;stroke-width:1.70787406;stroke-linecap:round;stroke-linejoin:miter;stroke-miterlimit:4;stroke-dasharray:none;stroke-opacity:1"
       id="path3030" />
    <path
       d="M 259.39708,127.07986 C 262.64369,126.88109 263.90257,128.27249 263.77006,129.46512"
       style="fill:#000000;fill-opacity:1;fill-rule:evenodd;stroke:#000000;stroke-width:1.70787406;stroke-linecap:round;stroke-linejoin:miter;stroke-miterlimit:4;stroke-dasharray:none;stroke-opacity:1"
       id="path3032" />
    <path
       d="M 257.80691,134.23564 L 262.57743,134.23564"
       style="fill:#000000;fill-opacity:1;fill-rule:evenodd;stroke:#000000;stroke-width:1.70787406;stroke-linecap:round;stroke-linejoin:miter;stroke-miterlimit:4;stroke-dasharray:none;stroke-opacity:1"
       id="path3034" />
    <path
       d="M 257.60814,147.55335 C 259.86089,146.89078 264.10135,148.61346 264.36638,145.56563"
       style="fill:#000000;fill-opacity:1;fill-rule:evenodd;stroke:#000000;stroke-width:1.70787406;stroke-linecap:round;stroke-linejoin:miter;stroke-miterlimit:4;stroke-dasharray:none;stroke-opacity:1"
       id="path3036" />
    <path
       d="M 320.02246,167.03298 C 315.23808,171.3439 307.41248,182.15197 311.47527,194.06593 C 307.27576,190.3751 304.04392,185.99309 305.51212,176.77279 C 304.65078,179.15805 304.89533,180.29918 303.06633,182.26973 C 300.71299,182.12818 300.29497,182.26311 299.324,178.94211 C 299.22913,175.98101 299.2725,175.36994 301.52766,174.34416 C 304.50923,175.53679 307.62905,177.69709 309.50472,175.98674 C 307.17999,174.29267 303.61114,173.28976 302.53055,170.21332 C 303.78703,161.62939 308.36118,158.02199 311.2765,151.92633 C 306.97881,153.91735 303.78703,157.56723 302.53055,162.46123 C 300.68768,153.62854 301.05662,143.55172 305.71089,132.64547 C 300.78255,136.58988 297.92777,143.43726 297.56125,151.52878 C 291.81011,145.0675 289.23842,140.40329 298.55511,134.63319 C 295.80996,133.71462 294.44716,135.56079 292.39319,136.02459 C 289.7429,132.38044 287.09261,128.73629 284.44232,125.09214 C 282.48411,122.39276 282.87593,119.55514 286.03249,115.74987 C 283.57525,116.80758 279.18269,117.5888 279.35195,125.00541 C 275.95567,123.4333 271.72996,123.24357 270.13076,127.47741 C 276.17403,127.23285 280.00549,127.40302 282.4546,130.06144 C 284.90612,132.84424 287.35764,135.62705 289.80916,138.40985 C 288.49305,142.23801 289.94167,143.57792 290.00793,146.16195 C 282.27059,146.82362 273.84206,143.33819 270.5283,138.60862 C 270.22501,147.70455 285.54249,146.70917 292.56576,149.58443 C 300.53531,155.06089 302.00772,164.68447 299.6095,169.88445 C 297.21521,158.02562 293.30031,162.28757 288.41775,155.10667 C 291.78784,161.34299 296.26383,163.01748 294.38091,168.42438 C 296.1036,173.72496 294.78507,173.91077 299.54897,184.32612 C 303.78943,189.09664 308.0299,193.86716 312.27036,198.63768 C 307.1538,194.81282 299.96368,195.41155 293.18828,195.45733 C 316.2398,200.10857 318.55577,205.31277 329.16596,227.65835 C 319.68214,218.90999 309.23066,211.68222 296.56739,206.38978 C 309.53334,215.27155 323.60517,225.121 332.14753,237.59693 C 323.76719,231.11848 316.21629,224.22531 304.51826,221.89397 C 329.69093,235.23524 335.7869,238.4852 340.22402,266.8943 C 328.59243,257.94692 316.96084,248.99954 305.32925,240.05216 C 306.9817,241.48974 303.88346,240.1532 305.49994,241.49422 C 334.22929,265.3278 342.49163,268.90938 344.58587,286.69037 C 335.91496,277.20884 328.34996,271.4597 317.74374,264.88114 C 327.80328,274.15018 344.91289,285.631 346.2635,296.42064 C 338.09902,290.15748 330.07278,282.51194 321.77006,277.63115 C 330.27007,286.69037 348.72313,296.30254 347.27008,304.80881 C 341.03197,298.66868 339.21744,299.44038 335.19112,296.75617 C 346.55652,306.18492 348.7983,306.90473 350.62535,319.23645 C 345.81613,315.6575 342.11282,311.66384 336.1977,308.4996 C 341.46815,314.44736 347.98274,316.10979 348.27666,324.26935 C 345.92797,323.37461 343.57929,322.47988 341.2306,321.58514 C 342.79639,323.26277 344.36219,324.94041 345.92798,326.61804 C 348.38851,329.86146 350.84903,333.10489 353.30956,336.34831 C 353.75693,342.16411 354.2043,347.9799 354.65167,353.7957 C 355.65825,353.34833 356.66483,352.90096 357.67141,352.45359 C 357.44773,347.08516 357.22404,341.71674 357.00036,336.34831 C 356.21746,329.52594 355.43457,322.70356 354.65167,315.88119 C 355.21088,311.74303 355.77009,307.60486 356.3293,303.4667 C 355.21088,304.36144 354.09246,305.25617 352.97404,306.15091 C 352.28912,300.66438 352.84833,295.73079 354.65167,288.03247 C 353.42141,290.15747 352.19114,292.28248 350.96088,294.40748 C 348.92625,285.73524 352.28286,281.07186 353.98062,274.61141 C 351.96746,277.85483 349.9543,281.09826 347.94114,284.34168 C 349.1714,274.38772 344.45748,260.97785 351.63193,254.47981 C 346.68313,256.78823 346.71087,261.8614 344.25034,265.55219 C 344.45256,258.45334 347.97245,250.11036 353.98062,245.08506 C 350.17798,249.22322 346.37535,253.36139 342.57271,257.49955 C 344.572,251.29544 347.81543,244.81486 352.30298,239.71664 C 348.97411,241.31375 344.12464,245.81383 341.90166,252.80218 C 335.33787,243.22267 343.15071,234.47257 346.2635,226.96662 C 342.2761,228.48454 340.22402,236.36137 337.20428,241.05874 C 329.58111,227.25562 331.35807,225.61736 339.21744,202.13765 C 334.15054,207.14281 332.95428,217.12451 329.8227,224.61794 C 321.67924,211.78248 326.94477,198.94702 333.17796,185.69685 C 327.13714,192.39352 324.27576,201.02549 322.10558,209.51924 C 316.80605,199.11791 319.93897,190.09896 324.45427,178.31526 C 320.60511,182.79387 318.27655,190.45193 315.39505,200.46002 C 312.09923,190.28533 314.19464,178.86651 320.02246,167.03298 z "
       style="fill:#000000;fill-opacity:1;fill-rule:evenodd;stroke:none;stroke-width:0.6448819;stroke-linecap:butt;stroke-linejoin:miter;stroke-miterlimit:4;stroke-dasharray:none;stroke-opacity:1"
       id="path3038" />
    <path
       d="M 272.15943,148.9567 C 272.51341,152.24365 282.42483,150.37262 283.23393,154.72151"
       style="fill:#000000;fill-opacity:1;fill-rule:evenodd;stroke:#000000;stroke-width:2.06220484;stroke-linecap:round;stroke-linejoin:miter;stroke-miterlimit:4;stroke-dasharray:none;stroke-opacity:1"
       id="path3040" />
    <path
       d="M 260.02301,109.05819 C 268.56908,111.18207 275.9015,111.33377 276.55889,119.98098 C 276.91287,119.72814 277.26685,119.47529 277.62083,119.22245 C 278.27822,110.82808 273.32251,107.5917 261.38835,108.60307 C 260.93324,108.75478 260.47812,108.90648 260.02301,109.05819 z "
       style="fill:#000000;fill-opacity:1;fill-rule:evenodd;stroke:#000000;stroke-width:1px;stroke-linecap:butt;stroke-linejoin:miter;stroke-opacity:1"
       id="path3042" />
  </g>
  <g
     transform="matrix(0.6762423,2.8582576e-2,-2.6875888e-2,0.7191854,154.91052,-69.489355)"
     style="fill:#767676;fill-opacity:1"
     id="g10554">
    <rect
       width="56.391781"
       height="17.704397"
       x="368.73233"
       y="73.54393"
       transform="translate(71.603403,270.91906)"
       style="opacity:1;fill:#767676;fill-opacity:1;fill-rule:evenodd;stroke:#0c0909;stroke-width:1;stroke-miterlimit:4;stroke-dasharray:none;stroke-opacity:1"
       id="rect2745" />
    <rect
       width="24.480154"
       height="15.518669"
       x="454.76151"
       y="362.38596"
       style="opacity:1;fill:#767676;fill-opacity:1;fill-rule:evenodd;stroke:#0c0909;stroke-width:1;stroke-miterlimit:4;stroke-dasharray:none;stroke-opacity:1"
       id="rect2747" />
  </g>
  <g
     transform="translate(81.043245,153.87542)"
     style="fill:#008f4c"
     id="g16194">
    <path
       d="M 631.01675,91.887469 L 615.95941,89.727581 C 591.35077,68.915338 573.46386,52.331234 569.99495,22.051501 C 578.56978,-10.267907 594.16969,-14.211611 608.82701,-22.585929 C 610.41619,-48.742506 647.09425,-58.960398 667.47133,-76.582817 C 663.01458,-58.088428 665.8937,-50.300996 655.58396,-39.864935 C 670.93883,-51.593932 699.64287,-46.875774 704.7184,-74.422932 C 725.50174,-53.204846 732.75912,-7.051139 668.26382,-3.147057 C 686.48739,0.949576 693.13899,20.172639 708.68085,17.731747 C 677.75556,37.121138 655.91737,20.800283 627.84678,19.891613 C 607.66133,18.554038 584.33661,21.277985 595.35465,53.729658 C 600.60017,66.757524 618.72919,85.175002 631.01675,91.887469 z "
       style="fill:#008f4c;fill-opacity:1;fill-rule:evenodd;stroke:#000000;stroke-width:0.91515064;stroke-linecap:butt;stroke-linejoin:miter;stroke-miterlimit:4;stroke-dasharray:none;stroke-opacity:1"
       id="path2267" />
    <path
       d="M 628.63927,19.891613 C 630.68635,53.054827 640.8884,76.701833 668.26382,92.607425 C 658.78107,63.569096 679.75733,52.52974 677.77371,31.410954 C 729.95551,80.833325 670.43135,96.877003 717.39825,127.88538 C 724.63191,113.98469 693.08516,100.88807 726.11565,60.929245 C 729.81394,71.61808 733.51223,77.90689 737.21052,95.487256 C 738.65449,74.443061 761.6727,66.465305 774.45759,52.289748 C 764.13824,78.3631 782.01043,101.9342 760.98525,119.24588 C 779.10623,111.54494 790.14414,128.87315 772.87262,146.60429 C 761.07874,125.64464 751.75071,140.52719 741.96547,148.76417 C 735.81248,184.08644 718.72273,209.37697 691.24606,228.67956 C 730.44875,196.52356 707.95352,151.19131 668.26382,158.12364 C 658.66965,164.75133 651.16845,171.10741 670.6413,173.96272 C 664.26091,183.04658 643.78525,194.36563 631.80924,176.1226 C 615.83135,188.89038 590.93578,182.75466 569.20246,183.32218 C 588.89241,169.72888 589.78325,151.94948 615.95941,145.88434 C 603.66478,145.0611 593.40337,141.15927 587.42975,130.76521 C 604.10861,133.60352 633.87624,120.67839 653.2065,130.04525 C 662.59179,132.91008 665.80012,127.01383 657.16895,122.84567 C 644.95676,116.99031 600.46615,124.58765 574.7499,85.407837 C 616.03564,83.095317 618.02987,91.38694 632.38927,92.572677 C 582.37897,58.980402 578.29971,13.42215 628.63927,19.891613 z "
       style="fill:#008f4c;fill-opacity:1;fill-rule:evenodd;stroke:#000000;stroke-width:0.91515064;stroke-linecap:butt;stroke-linejoin:miter;stroke-miterlimit:4;stroke-dasharray:none;stroke-opacity:1"
       id="path2269" />
    <path
       d="M 467.41522,156.578 C 507.80555,188.90568 565.55934,209.34938 617.40498,206.24755 C 664.67177,203.41966 692.83854,175.26315 675.52546,157.07963 C 732.12574,157.03006 725.76061,237.74727 649.90128,239.97538 C 656.448,248.03438 662.13628,249.02717 671.16117,261.13687 C 656.15886,257.38712 619.15381,278.57527 602.26536,263.06222 C 617.72165,279.23119 640.7009,287.06613 668.08913,280.32609 C 690.51384,273.64826 694.85276,257.09429 680.52531,242.81427 C 697.40495,240.90751 724.06509,240.25351 721.48263,265.1551 C 754.96431,240.58864 763.73617,250.24028 808.02123,268.9321 C 784.61428,275.25228 756.03826,305.19439 726.28628,299.13963 C 741.91079,297.97564 751.38064,314.41872 765.78689,317.90516 C 734.73192,336.33831 703.17093,332.34802 663.05635,312.16014 C 678.6239,333.81098 702.39453,332.8128 722.01969,354.55606 C 739.62276,374.05899 745.91729,400.14438 751.99504,407.46056 C 729.9177,396.50272 721.10401,403.15934 697.42091,389.77298 C 725.53473,429.12004 657.99159,474.42462 630.36846,445.00407 C 649.43323,433.83845 665.19579,423.79485 661.7759,396.68237 C 655.20048,408.04167 639.09215,413.51983 627.5183,414.28353 C 645.76667,392.07481 647.63447,373.6605 629.27694,352.9634 C 637.64645,378.47874 616.51145,404.01854 608.24962,413.08073 C 606.48492,400.98897 598.89358,407.3751 599.40475,390.18708 C 593.10007,417.70936 573.3179,416.53048 557.50995,434.65634 C 558.58293,418.18023 543.22932,382.45795 564.96743,374.3565 C 545.84819,374.98346 537.40292,354.80878 546.77957,338.76891 C 558.59222,345.12998 571.78531,352.80678 580.52849,341.04004 C 583.97882,335.40325 579.6197,324.04842 567.81343,309.82349 L 568.06231,282.43652 L 543.60025,282.52328 C 512.86261,250.26721 472.63589,214.87151 464.25048,193.82089 C 439.99635,192.31987 433.01909,184.41943 427.81824,164.22029 C 422.61738,144.02115 425.58814,170.78424 423.78812,157.27179 C 416.91388,129.50641 386.52659,122.11518 431.65786,137.51599 C 442.94814,136.90487 443.31553,140.57027 445.58164,141.01482 C 447.84774,141.45936 450.7335,134.03513 454.2701,148.42807 C 457.34982,161.38992 456.8957,147.6248 467.41522,156.578 z "
       style="fill:#008f4c;fill-opacity:1;fill-rule:evenodd;stroke:#000000;stroke-width:0.91515064;stroke-linecap:butt;stroke-linejoin:miter;stroke-miterlimit:4;stroke-dasharray:none;stroke-opacity:1"
       id="path2277" />
    <path
       d="M 461.16914,190.33253 C 466.53488,200.52702 479.84539,219.0535 490.84908,221.21566 C 514.37706,229.56868 526.00241,213.76953 527.39135,199.04008 C 538.04121,207.36208 540.75204,218.74515 538.19196,233.15513 C 559.12879,229.18443 576.85473,239.36295 588.88494,240.0466 C 565.03771,252.45517 561.76222,257.34247 541.16128,257.58573 C 544.86846,267.22807 543.46963,271.89467 542.72241,280.04401 C 521.76322,264.24937 462.60649,236.40207 461.16914,190.33253 z "
       style="fill:#008f4c;fill-opacity:1;fill-rule:evenodd;stroke:#000000;stroke-width:0.91515064;stroke-linecap:butt;stroke-linejoin:miter;stroke-miterlimit:4;stroke-dasharray:none;stroke-opacity:1"
       id="path2275" />
    <path
       d="M 430.66298,172.77334 C 493.19366,220.52542 547.8138,125.45418 468.07387,130.55198 C 479.86161,104.57841 498.45239,107.1238 510.74366,113.57107 C 501.17048,75.798556 544.77571,72.162355 561.81301,64.78979 C 537.32777,87.474741 568.86093,114.48999 548.79216,139.0585 C 557.93662,115.77998 567.22946,117.68975 576.97382,106.61121 C 576.05053,112.73901 589.40749,159.7894 550.04212,164.60856 C 534.2215,193.04906 468.67532,225.98853 430.66298,172.77334 z "
       style="fill:#008f4c;fill-opacity:1;fill-rule:evenodd;stroke:#000000;stroke-width:0.91515064;stroke-linecap:butt;stroke-linejoin:miter;stroke-miterlimit:4;stroke-dasharray:none;stroke-opacity:1"
       id="path2285" />
    <path
       d="M 104.6791,91.887469 L 119.73643,89.727581 C 144.34508,68.915338 162.23198,52.331234 165.70089,22.051501 C 157.12606,-10.267907 141.52617,-14.211611 126.86884,-22.585929 C 125.27965,-48.742506 88.601585,-58.960398 68.224516,-76.582817 C 72.68127,-58.088428 69.802148,-50.300996 80.111879,-39.864935 C 64.757008,-51.593932 36.052964,-46.875774 30.977446,-74.422932 C 10.194099,-53.204846 2.9367197,-7.051139 67.432027,-3.147057 C 49.208449,0.949576 42.556847,20.172639 27.014991,17.731747 C 57.94029,37.121138 79.778476,20.800283 107.84906,19.891613 C 128.03452,18.554038 151.35923,21.277985 140.34119,53.729658 C 135.09567,66.757524 116.96665,85.175002 104.6791,91.887469 z "
       style="fill:#008f4c;fill-opacity:1;fill-rule:evenodd;stroke:#000000;stroke-width:0.91515064;stroke-linecap:butt;stroke-linejoin:miter;stroke-miterlimit:4;stroke-dasharray:none;stroke-opacity:1"
       id="path2835" />
    <path
       d="M 107.05657,19.891613 C 105.00949,53.054827 94.807444,76.701833 67.432027,92.607425 C 76.914767,63.569096 55.938514,52.52974 57.922135,31.410954 C 5.7403352,80.833325 65.264493,96.877003 18.297593,127.88538 C 11.06394,113.98469 42.610681,100.88807 9.5801928,60.929245 C 5.881902,71.61808 2.1836122,77.90689 -1.5146787,95.487256 C -2.9586467,74.443061 -25.976851,66.465305 -38.76175,52.289748 C -28.442388,78.3631 -46.314586,101.9342 -25.289406,119.24588 C -43.410386,111.54494 -54.448297,128.87315 -37.176768,146.60429 C -25.382903,125.64464 -16.05486,140.52719 -6.2696239,148.76417 C -0.11663639,184.08644 16.973108,209.37697 44.449791,228.67956 C 5.2470974,196.52356 27.742324,151.19131 67.432027,158.12364 C 77.0262,164.75133 84.527394,171.10741 65.054553,173.96272 C 71.43493,183.04658 91.910589,194.36563 103.88661,176.1226 C 119.86449,188.89038 144.76006,182.75466 166.49338,183.32218 C 146.80343,169.72888 145.91259,151.94948 119.73643,145.88434 C 132.03108,145.0611 142.29248,141.15927 148.26609,130.76521 C 131.58723,133.60352 101.81961,120.67839 82.489352,130.04525 C 73.104059,132.91008 69.895732,127.01383 78.526898,122.84567 C 90.739083,116.99031 135.22969,124.58765 160.94595,85.407837 C 119.6602,83.095317 117.66597,91.38694 103.30658,92.572677 C 153.31688,58.980402 157.39613,13.42215 107.05657,19.891613 z "
       style="fill:#008f4c;fill-opacity:1;fill-rule:evenodd;stroke:#000000;stroke-width:0.91515064;stroke-linecap:butt;stroke-linejoin:miter;stroke-miterlimit:4;stroke-dasharray:none;stroke-opacity:1"
       id="path2837" />
    <path
       d="M 323.62971,199.36454 L 330.50449,219.80458 C 309.33759,230.88146 289.31449,243.34383 278.00618,266.36246 C 269.29424,278.80166 257.48879,279.99929 245.50722,280.55694 C 254.57873,276.30704 255.46892,261.78573 265.50657,252.73577 C 258.42348,256.0828 251.34036,254.953 244.25725,253.87133 C 256.96517,246.60207 265.92324,230.03085 276.75621,218.10124 L 323.62971,199.36454 z "
       style="fill:#008f4c;fill-opacity:1;fill-rule:evenodd;stroke:#000000;stroke-width:0.91515064;stroke-linecap:butt;stroke-linejoin:miter;stroke-miterlimit:4;stroke-dasharray:none;stroke-opacity:1"
       id="path1368" />
    <path
       d="M 197.38375,183.46672 C 170.95905,200.32856 143.8461,206.97149 120.50853,207.08459 C 73.140024,207.31411 45.07497,176.10019 62.388056,157.91668 C 5.7877656,157.86709 12.152902,238.5843 88.012238,240.81241 C 75.321427,246.63871 67.175539,256.00412 66.137937,270.9047 C 84.826694,253.75875 118.75971,279.97047 143.63546,252.73577 C 119.57746,282.30092 93.526171,290.13587 66.137937,283.39583 C 43.713237,276.718 43.060755,257.93133 57.388215,243.65131 C 40.508556,241.74454 22.450135,236.62515 15.202061,260.96857 C -18.279608,236.40212 -44.869305,249.4028 -70.107719,269.76913 C -39.942279,269.39121 -18.739148,301.00786 3.6399309,306.67476 C -11.984571,305.51077 -26.984092,330.88465 -43.233574,327.11481 C -13.407422,332.15178 8.3230518,347.69759 36.763873,317.46257 C 59.674638,318.7498 82.370825,318.47755 103.63674,307.81033 C 84.596381,321.32442 71.013053,332.05486 44.263634,340.17372 C -5.0650389,353.03946 -17.760809,393.72572 -26.984093,407.73943 C -4.9067545,396.78158 15.580686,398.41463 39.263794,385.02826 C 12.471135,430.55863 61.212652,469.21135 103.01176,449.18729 C 85.646978,436.99208 72.717727,424.63188 76.137617,397.51941 C 82.713036,408.87871 92.06287,414.35686 103.63674,415.12056 C 85.388347,392.91184 90.27904,374.49753 108.63658,353.80043 C 100.26706,379.31578 111.57154,391.45939 116.76133,410.01054 C 122.21248,399.59331 131.64704,393.6996 131.13586,376.51158 C 137.44055,404.03385 154.76509,419.04204 174.25949,431.58614 C 192.84756,413.43552 190.99775,372.68966 169.25964,364.58822 C 188.37888,365.21518 194.98092,352.29676 191.13394,339.60595 C 179.3213,343.17615 166.12821,353.64382 157.38503,341.87707 C 150.40182,332.90675 156.68334,315.84203 172.85385,297.07707 L 173.23912,282.26322 L 188.77167,281.87507 C 216.51464,254.00404 254.54037,226.97668 275.50625,218.10124 C 255.23914,190.88139 223.56075,193.23742 197.38375,183.46672 z "
       style="fill:#008f4c;fill-opacity:1;fill-rule:evenodd;stroke:#000000;stroke-width:0.91515064;stroke-linecap:butt;stroke-linejoin:miter;stroke-miterlimit:4;stroke-dasharray:none;stroke-opacity:1"
       id="path2250" />
    <path
       d="M 198.00873,274.31137 C 232.56322,241.59128 272.08229,214.20143 324.87968,201.06788 C 316.37567,194.05395 307.07943,187.27992 293.63068,181.76338 C 224.87936,193.05817 209.3463,137.47934 254.88191,132.93439 C 242.59064,119.76926 230.29936,120.24155 218.00809,126.68882 C 223.45022,71.683142 197.20688,69.168575 175.50945,59.123132 C 194.45586,76.318747 166.44741,109.73822 185.50913,132.93439 C 175.86112,117.43242 162.02583,115.24467 149.26028,109.65546 C 165.55901,126.75829 146.19802,154.59627 184.25916,158.48445 C 188.26095,179.8962 202.21995,197.13293 249.2571,200.50011 C 256.93177,205.79937 257.20687,211.09864 249.88207,216.39791 C 225.34703,220.17648 213.21815,209.86665 201.75861,198.79676 C 200.17229,207.11877 195.95087,214.84229 207.07095,226.05015 C 186.13411,222.07945 173.94701,240.94942 157.38503,237.97351 C 173.17578,249.00974 189.54303,256.64172 208.63339,248.19353 C 197.87681,257.83586 197.26151,266.16202 198.00873,274.31137 z "
       style="fill:#008f4c;fill-opacity:1;fill-rule:evenodd;stroke:#000000;stroke-width:0.91515064;stroke-linecap:butt;stroke-linejoin:miter;stroke-miterlimit:4;stroke-dasharray:none;stroke-opacity:1"
       id="path2243" />
  </g>
  <path
     d="M 205.77076,459.88299 C 205.97037,580.22693 205.36908,700.59519 206.07625,820.93064 C 209.83682,928.9276 290.90378,1027.5466 394.43951,1050.3542 C 490.2235,1074.1447 597.4734,1031.3865 651.5373,947.07307 C 683.916,899.91941 695.8451,841.57301 693.17521,784.76987 C 693.1751,676.47202 693.17521,568.18065 693.17521,459.88299 C 530.712,459.88299 368.2339,459.88299 205.77076,459.88299 z "
     style="fill:#eac102;fill-opacity:1;fill-rule:evenodd;stroke:#000000;stroke-width:0.98707867;stroke-linecap:butt;stroke-linejoin:miter;marker:none;marker-start:none;marker-mid:none;marker-end:none;stroke-miterlimit:4;stroke-dasharray:none;stroke-dashoffset:0;stroke-opacity:1;visibility:visible;display:inline;overflow:visible;enable-background:accumulate"
     id="path24268" />
  <path
     d="M 206.14199,458.86909 C 206.34168,579.21072 205.74008,699.5657 206.44722,819.89891 C 210.20788,927.89372 291.28945,1026.5329 394.82828,1049.34 C 490.61513,1073.1303 597.8462,1030.3764 651.9118,946.06472 C 684.29161,898.91193 696.2162,840.55797 693.5462,783.75594 C 693.5462,675.46033 693.5462,567.16471 693.5462,458.86909 C 531.0781,458.86909 368.61013,458.86909 206.14199,458.86909 z "
     style="fill:none;fill-opacity:1;fill-rule:evenodd;stroke:#000000;stroke-width:2.99980426;stroke-linecap:butt;stroke-linejoin:miter;marker:none;marker-start:none;marker-mid:none;marker-end:none;stroke-miterlimit:4;stroke-dasharray:none;stroke-dashoffset:0;stroke-opacity:1;visibility:visible;display:inline;overflow:visible;enable-background:accumulate"
     id="path24276" />
  <path
     d="M 474,512.40625 C 474,676.77084 474,841.13535 474,1005.5 C 543.65251,997.47258 607.8538,948.69356 632.0625,882.53125 C 650.32946,832.23544 644.02165,777.70044 644.25,725.25 C 644.97525,654.30974 644.36217,583.35307 644.5625,512.40625 C 587.70833,512.40625 530.85417,512.40625 474,512.40625 z "
     style="fill:#ed1c24;fill-opacity:1;fill-rule:evenodd;stroke:#000000;stroke-width:1.03810692;stroke-linecap:butt;stroke-linejoin:miter;marker:none;marker-start:none;marker-mid:none;marker-end:none;stroke-miterlimit:4;stroke-dasharray:none;stroke-dashoffset:0;stroke-opacity:1;visibility:visible;display:inline;overflow:visible;enable-background:accumulate"
     id="path9031" />
  <path
     d="M 217.69378,395.17457 C 217.8943,513.70143 217.29021,632.24141 218.00027,750.75996 C 221.77648,857.1262 303.19345,954.27788 407.16057,976.74105 C 503.34362,1000.1726 611.01827,958.06344 665.3075,875.02317 C 697.82119,828.58146 709.79514,771.10749 707.11415,715.16204 C 707.11415,608.49955 707.11415,501.83706 707.11415,395.17457 C 543.97407,395.17457 380.83397,395.17457 217.69378,395.17457 z "
     style="fill:none;fill-opacity:1;fill-rule:evenodd;stroke:none;stroke-width:1;stroke-linecap:butt;stroke-linejoin:miter;marker:none;marker-start:none;marker-mid:none;marker-end:none;stroke-miterlimit:4;stroke-dasharray:none;stroke-dashoffset:0;stroke-opacity:1;visibility:visible;display:inline;overflow:visible;enable-background:accumulate"
     id="path4560" />
  <g
     transform="matrix(0.9322749,0,0,0.9322749,106.03087,137.43262)"
     style="fill:#767676"
     id="g14087">
    <path
       d="M 471.09632,254.16534 C 467.00649,254.32885 462.83081,255.54121 459.36801,257.60853 C 455.93238,260.23265 451.47469,262.70653 447.5581,265.2667 C 437.28135,271.4768 427.86657,279.65842 421.67312,290.05115 C 419.22442,294.74414 403.6832,322.12534 398.30408,329.54582 C 410.07455,315.00819 417.40223,303.61705 418.79905,302.71412 C 420.57806,300.782 421.55679,298.094 422.965,295.83486 C 425.89814,290.19378 429.36429,284.66964 434.44699,280.71363 C 440.56446,275.46214 447.18974,270.84941 453.81875,266.28536 C 457.7102,262.85962 459.78675,262.20526 461.72376,260.83464 C 464.25507,259.08646 474.10181,256.03057 476.79517,259.28759 C 478.00466,261.74745 480.43118,263.54637 480.72333,267.22393 C 481.87095,274.58667 480.84565,282.04566 481.08819,289.4432 C 481.52296,290.37474 481.81259,286.30435 482.16098,285.18715 C 483.13894,278.91449 484.50003,272.44577 483.25502,266.11757 C 482.01114,263.25393 481.08867,260.26785 480.10352,257.30711 C 477.5311,254.27046 474.17801,254.19994 471.09632,254.16534 z "
       style="fill:#767676;fill-opacity:1;fill-rule:evenodd;stroke:#000000;stroke-width:1.14772487;stroke-linecap:butt;stroke-linejoin:miter;stroke-opacity:1;display:inline"
       id="path3655" />
    <g
       transform="matrix(0.7222462,3.0527011e-2,-2.8704219e-2,0.7681107,53.992886,-220.65778)"
       style="fill:#767676;fill-opacity:1"
       id="g2749" />
    <path
       d="M 454.73281,294.34048 C 457.53,290.4244 458.08944,285.38947 458.64887,282.59228 C 459.20832,279.79507 459.76775,275.87901 459.20832,273.08182 C 458.64887,270.28463 455.85168,267.48742 455.85168,267.48742"
       style="fill:#767676;fill-opacity:1;fill-rule:evenodd;stroke:#000000;stroke-width:1.14772487;stroke-linecap:butt;stroke-linejoin:miter;stroke-opacity:1;display:inline"
       id="path3665" />
    <path
       d="M 462.00551,265.24967 C 465.36213,268.04686 465.92158,269.16575 465.92158,271.96294 C 465.92158,274.76013 467.59989,274.20069 467.04046,277.55732 C 466.48102,280.91395 466.48102,284.27059 465.36213,288.74609 C 464.24327,293.22161 461.44606,297.13768 461.44606,297.13768"
       style="fill:#767676;fill-opacity:1;fill-rule:evenodd;stroke:#000000;stroke-width:1.14772487;stroke-linecap:butt;stroke-linejoin:miter;stroke-opacity:1;display:inline"
       id="path3663" />
    <path
       d="M 471.09632,254.16534 C 464.58466,254.39249 459.72668,257.39332 459.72668,257.39332 L 459.43974,257.46506 C 458.72325,258.8623 453.1096,261.91787 446.63544,265.82193 C 436.64631,271.84561 425.66275,281.89316 420.66816,291.93267 C 419.19763,294.88855 416.89486,299.27301 414.24807,304.09138 L 416.22073,304.09138 C 422.55006,300.9267 428.07567,302.34197 434.405,304.29177 C 441.96599,306.62099 459.72668,315.96315 459.72668,315.96315 C 459.72666,315.96314 479.48696,300.91399 480.27812,295.37584 C 481.06928,289.83768 485.84583,270.86007 482.68117,264.53074 C 479.51653,258.20141 481.87729,255.02825 473.96564,254.23708 C 472.97667,254.13818 472.02656,254.1329 471.09632,254.16534 z "
       style="fill:#767676;fill-opacity:1;fill-rule:evenodd;stroke:#000000;stroke-width:1.14772487;stroke-linecap:butt;stroke-linejoin:miter;stroke-opacity:1;display:inline"
       id="path3653" />
    <path
       d="M 437.09496,254.81629 C 445.88544,261.44236 459.11528,255.25363 469.00456,254.14929 C 478.89382,253.04495 464.7738,268.79924 465.33194,267.97653 C 465.70369,267.42856 438.8703,282.32388 433.37626,293.36735 C 427.88222,304.41078 409.66897,332.55776 400.87852,339.18383 C 392.08805,345.80989 389.89044,348.01858 382.19881,348.01858 C 374.50714,348.01858 362.42027,340.28816 362.42027,340.28816 C 362.42027,340.28816 344.33975,362.94104 333.35166,367.35841 C 322.36357,371.7758 303.56787,376.76829 295.87622,375.66393 C 288.18456,374.5596 281.10857,355.74899 278.91093,351.33162 C 276.71333,346.91425 276.71333,332.55776 276.71333,325.93168 C 276.71333,319.30562 277.81213,314.88824 277.81213,314.88824 C 277.81213,314.88824 270.12049,315.99259 267.9229,311.57521 C 265.72527,307.15783 264.62645,297.21874 265.72527,291.697 C 266.82407,286.17528 275.61452,272.92315 280.00978,270.71446 C 284.40499,268.50577 289.899,274.02748 295.39305,271.81879 C 300.8871,269.6101 304.19824,266.30626 309.69229,262.99324 C 313.06767,260.95779 316.43747,261.00309 319.29895,258.77977 C 321.09503,257.38423 322.69085,255.09492 323.96205,250.83625 C 323.96205,250.83625 428.30455,248.19022 437.09496,254.81629 z "
       style="fill:#767676;fill-opacity:1;fill-rule:evenodd;stroke:#000000;stroke-width:1.26249743;stroke-linecap:butt;stroke-linejoin:miter;stroke-opacity:1;display:inline"
       id="path2322" />
    <path
       d="M 303.27171,119.37714 C 302.25406,119.41917 301.40595,119.61037 301.12439,119.92931 C 301.05574,120.00708 300.97885,120.09016 300.90966,120.17472 L 299.52924,119.6839 C 284.52112,154.52747 287.22683,173.17813 311.67693,204.07355 L 312.996,203.39868 C 315.8846,205.98536 318.58727,207.60812 320.69567,207.81602 C 322.62642,208.00641 321.43673,204.97749 318.94714,200.36176 L 332.10714,193.70507 C 336.13157,197.13741 339.61988,198.60545 341.12588,196.68064 C 342.49609,194.92939 341.82165,192.53936 340.11358,189.65584 L 352.13857,183.55131 C 354.81667,186.0754 357.11649,187.07106 358.27376,185.79066 C 359.28602,184.67069 359.25994,182.72141 358.67255,180.23831 L 403.95031,157.29267 L 354.00194,127.63279 C 353.94179,126.66939 353.66423,125.90577 353.02031,125.42412 C 350.74417,123.72159 342.17213,119.42031 340.78059,122.87801 L 329.92129,118.98216 C 329.88335,118.5184 329.8131,118.09164 329.70655,117.7858 C 328.9644,115.65549 321.78783,113.30463 320.53443,114.87158 C 320.39947,115.04031 320.26074,115.24322 320.13564,115.45442 L 313.04949,112.90832 C 313.38155,109.92106 305.81583,119.27209 303.27171,119.37714 z "
       style="fill:#000000;fill-opacity:1;fill-rule:evenodd;stroke:#0c0909;stroke-width:0.9816317;stroke-miterlimit:4;stroke-opacity:1;display:inline"
       id="rect3688" />
    <path
       d="M 369.34687,77.411229 C 365.62142,77.452408 362.63056,77.709625 360.7576,78.086101 C 350.76844,80.094019 338.61352,87.753858 327.65439,90.330651 C 322.15609,91.62346 298.1086,108.13249 290.75499,125.66456 L 347.42974,127.2914 L 347.42974,139.5618 L 287.10454,137.93496 C 284.63574,151.17576 288.92855,181.27341 296.7695,202.94548 C 295.5169,210.49801 406.36337,155.92675 405.78995,156.77002 C 405.78995,156.77002 313.2098,205.26873 313.20981,205.26876 L 323.79303,232.69309 L 323.79303,253.7675 C 320.79625,263.807 317.59088,265.84823 312.59629,268.86009 C 307.60172,271.87193 300.5657,275.31874 295.57112,277.32666 C 290.57652,279.33456 287.81785,274.2758 283.82221,276.28368 C 279.82654,278.29157 274.6367,285.89637 273.63778,290.91612 C 272.63885,295.93587 273.63388,302.72914 275.63172,306.74493 C 277.62954,310.76073 287.41129,310.33404 287.4113,310.33403 C 287.4113,310.33403 284.15965,315.4457 284.15965,321.46941 C 284.15965,327.49312 283.63427,340.55265 285.63209,344.56843 C 287.62995,348.58423 292.50524,363.22783 299.49764,364.23174 C 306.49005,365.2357 320.79798,363.18599 330.78715,359.1702 C 340.77632,355.15441 361.5245,327.20581 361.5245,327.20582 C 361.5245,327.20582 368.02952,338.15718 375.02193,338.15715 C 382.01433,338.15715 385.6816,340.07024 393.67293,334.04657 C 401.66424,328.02287 417.32974,301.9679 422.32431,291.92843 C 427.31889,281.88892 466.28516,259.1135 457.29494,260.11743 C 448.30468,261.12137 437.6472,250.74179 429.65587,244.71808 C 421.66458,238.69438 423.69133,224.66444 422.69242,214.62493 C 421.69352,204.58543 439.65234,184.50957 441.65018,174.47006 C 443.64802,164.43057 448.64432,143.34239 448.64431,133.30288 C 448.64431,123.26339 440.66512,106.19098 426.6803,92.135704 C 415.31765,80.715764 385.49048,77.232798 369.34687,77.411229 z "
       style="fill:#767676;fill-opacity:1;fill-rule:evenodd;stroke:#000000;stroke-width:1.14772487;stroke-linecap:butt;stroke-linejoin:miter;stroke-opacity:1;display:inline"
       id="path3631" />
    <path
       d="M 313.55369,216.34401 L 419.12713,153.20702 L 417.88096,150.12356 L 307.46422,205.14764 L 313.55369,216.34401 z "
       style="fill:#767676;fill-opacity:1;fill-rule:evenodd;stroke:#0c0909;stroke-width:0.9816317;stroke-miterlimit:4;stroke-opacity:1;display:inline"
       id="rect3686" />
    <path
       d="M 331.04728,83.031492 L 420.58874,154.92137 L 417.70313,161.05036 L 318.78466,91.65762 C 321.17176,89.97475 327.94613,84.357333 331.04728,83.031492 z "
       style="fill:#767676;fill-opacity:1;fill-rule:evenodd;stroke:#0c0909;stroke-width:0.9816317;stroke-miterlimit:4;stroke-opacity:1;display:inline"
       id="rect2753" />
    <rect
       width="30.918509"
       height="11.431716"
       x="415.57718"
       y="149.63979"
       style="fill:#767676;fill-opacity:1;fill-rule:evenodd;stroke:#0c0909;stroke-width:0.68522525;stroke-miterlimit:4;stroke-dasharray:none;stroke-opacity:1;display:inline"
       id="rect2880" />
    <path
       d="M 406.81711,160.92329 L 419.06595,160.92329 C 402.32559,195.27195 400.63878,211.40408 405.50284,246.61692 C 408.8363,270.74912 432.31228,283.26001 432.42832,282.85492 L 424.63361,292.87669 C 419.71005,282.18753 397.70159,269.81677 395.13402,244.9358 C 391.81178,212.74146 390.48377,201.99202 406.81711,160.92329 z "
       style="fill:#767676;fill-opacity:1;fill-rule:evenodd;stroke:#0c0909;stroke-width:0.9816317;stroke-miterlimit:4;stroke-opacity:1;display:inline"
       id="rect2882" />
    <path
       d="M 323.25412,234.02315 L 415.63018,165.81397 L 412.99483,159.57326 L 311.35046,224.90807 C 313.66754,226.68612 320.20915,232.57295 323.25412,234.02315 z "
       style="fill:#767676;fill-opacity:1;fill-rule:evenodd;stroke:#0c0909;stroke-width:0.9816317;stroke-miterlimit:4;stroke-opacity:1;display:inline"
       id="path2876" />
    <path
       d="M 68.062038,97.556473 C 68.062038,103.35154 63.23724,108.04937 57.285549,108.04937 C 51.333858,108.04937 46.50906,103.35154 46.50906,97.556473 C 46.50906,91.761406 51.333858,87.063576 57.285549,87.063576 C 63.23724,87.063576 68.062038,91.761406 68.062038,97.556473 L 68.062038,97.556473 z "
       transform="matrix(0.9816317,0,0,0.9816317,356.70824,61.335606)"
       style="fill:#767676;fill-opacity:1;fill-rule:evenodd;stroke:#0c0909;stroke-width:1;stroke-miterlimit:4;stroke-dasharray:none;stroke-opacity:1;display:inline"
       id="path3682" />
    <path
       d="M 68.062038,97.556473 C 68.062038,103.35154 63.23724,108.04937 57.285549,108.04937 C 51.333858,108.04937 46.50906,103.35154 46.50906,97.556473 C 46.50906,91.761406 51.333858,87.063576 57.285549,87.063576 C 63.23724,87.063576 68.062038,91.761406 68.062038,97.556473 L 68.062038,97.556473 z "
       transform="matrix(0.4908158,0,0,0.4908158,385.14223,108.53974)"
       style="fill:#767676;fill-opacity:1;fill-rule:evenodd;stroke:#0c0909;stroke-width:1;stroke-miterlimit:4;stroke-dasharray:none;stroke-opacity:1;display:inline"
       id="path2757" />
    <path
       d="M 68.062038,97.556473 C 68.062038,103.35154 63.23724,108.04937 57.285549,108.04937 C 51.333858,108.04937 46.50906,103.35154 46.50906,97.556473 C 46.50906,91.761406 51.333858,87.063576 57.285549,87.063576 C 63.23724,87.063576 68.062038,91.761406 68.062038,97.556473 L 68.062038,97.556473 z "
       transform="matrix(0.2907865,0,0,0.2584101,300.50137,181.84603)"
       style="fill:#767676;fill-opacity:1;fill-rule:evenodd;stroke:#0c0909;stroke-width:1;stroke-miterlimit:4;stroke-dasharray:none;stroke-opacity:1;display:inline"
       id="path2904" />
    <path
       d="M 68.062038,97.556473 C 68.062038,103.35154 63.23724,108.04937 57.285549,108.04937 C 51.333858,108.04937 46.50906,103.35154 46.50906,97.556473 C 46.50906,91.761406 51.333858,87.063576 57.285549,87.063576 C 63.23724,87.063576 68.062038,91.761406 68.062038,97.556473 L 68.062038,97.556473 z "
       transform="matrix(0.2907865,0,0,0.2584101,321.44301,170.80922)"
       style="fill:#767676;fill-opacity:1;fill-rule:evenodd;stroke:#0c0909;stroke-width:1;stroke-miterlimit:4;stroke-dasharray:none;stroke-opacity:1;display:inline"
       id="path2906" />
    <path
       d="M 68.062038,97.556473 C 68.062038,103.35154 63.23724,108.04937 57.285549,108.04937 C 51.333858,108.04937 46.50906,103.35154 46.50906,97.556473 C 46.50906,91.761406 51.333858,87.063576 57.285549,87.063576 C 63.23724,87.063576 68.062038,91.761406 68.062038,97.556473 L 68.062038,97.556473 z "
       transform="matrix(0.2907865,0,0,0.2584101,340.68668,160.6214)"
       style="fill:#767676;fill-opacity:1;fill-rule:evenodd;stroke:#0c0909;stroke-width:1;stroke-miterlimit:4;stroke-dasharray:none;stroke-opacity:1;display:inline"
       id="path2908" />
    <path
       d="M 68.062038,97.556473 C 68.062038,103.35154 63.23724,108.04937 57.285549,108.04937 C 51.333858,108.04937 46.50906,103.35154 46.50906,97.556473 C 46.50906,91.761406 51.333858,87.063576 57.285549,87.063576 C 63.23724,87.063576 68.062038,91.761406 68.062038,97.556473 L 68.062038,97.556473 z "
       transform="matrix(0.2907865,0,0,0.2584101,360.49635,149.3016)"
       style="fill:#767676;fill-opacity:1;fill-rule:evenodd;stroke:#0c0909;stroke-width:1;stroke-miterlimit:4;stroke-dasharray:none;stroke-opacity:1;display:inline"
       id="path2910" />
  </g>
  <path
     d="M 112.59659,568.44186 C 120.90549,611.32927 194.22539,629.45614 193.2675,575.39616 C 231.60483,574.07092 241.18403,622.59397 202.6889,629.9606 C 221.7428,653.72163 204.57544,669.74004 199.15587,688.26965 C 195.31806,689.3207 191.01459,689.5257 185.61259,687.7347 C 174.86854,630.59163 117.11888,623.78946 112.59659,568.44186 z "
     style="fill:#008f4c;fill-opacity:1;fill-rule:evenodd;stroke:#000000;stroke-width:0.91515064;stroke-linecap:butt;stroke-linejoin:miter;stroke-miterlimit:4;stroke-dasharray:none;stroke-opacity:1"
     id="path2839" />
  <path
     d="M 785.18573,568.44186 C 776.87683,611.32927 703.55695,629.45614 704.51483,575.39616 C 666.17749,574.07092 656.5983,622.59397 695.09344,629.9606 C 676.03954,653.72163 693.20689,669.74004 698.62645,688.26965 C 700.01525,692.66985 706.23289,696.32807 712.16974,687.7347 C 728.51453,632.49968 780.71021,623.80538 785.18573,568.44186 z "
     style="fill:#008f4c;fill-opacity:1;fill-rule:evenodd;stroke:#000000;stroke-width:0.91515064;stroke-linecap:butt;stroke-linejoin:miter;stroke-miterlimit:4;stroke-dasharray:none;stroke-opacity:1"
     id="path2271" />
  <path
     d="M 425.9522,512.40625 C 425.9522,676.77084 425.9522,841.13535 425.9522,1005.5 C 356.29969,997.47258 292.0984,948.69356 267.8897,882.53125 C 249.62274,832.23544 255.93055,777.70044 255.7022,725.25 C 254.97695,654.30974 255.59003,583.35307 255.3897,512.40625 C 312.24387,512.40625 369.09803,512.40625 425.9522,512.40625 z "
     style="fill:#e3e4e5;fill-opacity:1;fill-rule:evenodd;stroke:#000000;stroke-width:1;stroke-linecap:butt;stroke-linejoin:miter;marker:none;marker-start:none;marker-mid:none;marker-end:none;stroke-miterlimit:4;stroke-dasharray:none;stroke-dashoffset:0;stroke-opacity:1;visibility:visible;display:inline;overflow:visible;enable-background:accumulate"
     id="path3613" />
  <g
     transform="translate(2.1107993e-5,5.6625e-2)"
     id="g4614">
    <path
       d="M 548.8125,679.65625 L 548.8125,718.1875 L 505.0625,718.1875 L 505.0625,739.78125 L 548.8125,739.78125 L 548.8125,838.25 L 570.3125,838.25 L 570.3125,739.78125 L 614.0625,739.78125 L 614.0625,718.1875 L 570.3125,718.1875 L 570.3125,679.65625 L 548.8125,679.65625 z "
       style="fill:#eac102;fill-opacity:1;stroke:#000000;stroke-width:1.00240552;stroke-linecap:round;stroke-miterlimit:4;stroke-dasharray:none;stroke-opacity:1"
       id="rect12641" />
    <path
       d="M 553.08887,695.73151 A 16.489332,16.489332 0 1 1 553.1158,695.74023"
       transform="translate(1.3796925,-10)"
       style="opacity:1;fill:#eac102;fill-opacity:1;stroke:#000000;stroke-width:1;stroke-linecap:round;stroke-miterlimit:4;stroke-dasharray:none;stroke-opacity:1"
       id="path3616" />
    <path
       d="M 553.08887,695.73151 A 16.489332,16.489332 0 1 1 553.1158,695.74023"
       transform="matrix(1,0,0,-1,1.3796925,1527.793)"
       style="opacity:1;fill:#eac102;fill-opacity:1;stroke:#000000;stroke-width:1;stroke-linecap:round;stroke-miterlimit:4;stroke-dasharray:none;stroke-opacity:1"
       id="path3622" />
    <path
       d="M 553.08887,695.73151 A 16.489332,16.489332 0 1 1 553.1158,695.74023"
       transform="translate(-57.911739,48.940595)"
       style="opacity:1;fill:#eac102;fill-opacity:1;stroke:#000000;stroke-width:1;stroke-linecap:round;stroke-miterlimit:4;stroke-dasharray:none;stroke-opacity:1"
       id="path3626" />
    <path
       d="M 553.08887,695.73151 A 16.489332,16.489332 0 1 1 553.1158,695.74023"
       transform="matrix(-1,0,0,1,1177.034,48.940595)"
       style="fill:#eac102;fill-opacity:1;stroke:#000000;stroke-width:1;stroke-linecap:round;stroke-miterlimit:4;stroke-dasharray:none;stroke-opacity:1"
       id="path3632" />
  </g>
  <path
     d="M 255.4375,550.375 C 255.43378,562.70382 255.39337,575.046 255.375,587.375 L 425.9375,587.375 C 425.9375,575.04167 425.9375,562.70833 425.9375,550.375 L 255.4375,550.375 z M 255.34375,626.34375 C 255.33437,638.67244 255.35266,650.98421 255.375,663.3125 L 425.9375,663.3125 C 425.9375,650.98958 425.9375,638.66667 425.9375,626.34375 L 255.34375,626.34375 z M 255.53125,702.3125 C 255.58103,709.96121 255.60931,717.60164 255.6875,725.25 C 255.7078,729.91385 255.68618,734.58888 255.625,739.28125 L 425.9375,739.28125 C 425.9375,726.95833 425.9375,714.63541 425.9375,702.3125 L 255.53125,702.3125 z M 254.90625,778.25 C 254.87875,780.4363 254.85604,782.62673 254.84375,784.8125 C 254.82508,788.13279 254.81475,791.4335 254.84375,794.75 C 254.90359,801.59273 255.07566,808.44351 255.4375,815.25 L 425.9375,815.25 C 425.9375,802.91667 425.9375,790.58333 425.9375,778.25 L 254.90625,778.25 z M 260.0625,854.21875 C 261.95701,863.77809 264.49406,873.22226 267.875,882.53125 C 268.94375,885.45214 270.12208,888.33638 271.34375,891.1875 L 425.9375,891.1875 C 425.9375,878.86458 425.9375,866.54167 425.9375,854.21875 L 260.0625,854.21875 z M 294.28125,930.1875 C 304.96805,944.09884 317.59016,956.55513 331.625,967.15625 L 425.9375,967.15625 C 425.9375,954.83333 425.9375,942.51042 425.9375,930.1875 L 294.28125,930.1875 z "
     style="fill:#0071bc;fill-opacity:1;fill-rule:evenodd;stroke:#000000;stroke-width:0.99997902;stroke-linecap:butt;stroke-linejoin:miter;marker:none;marker-start:none;marker-mid:none;marker-end:none;stroke-miterlimit:4;stroke-dasharray:none;stroke-dashoffset:0;stroke-opacity:1;visibility:visible;display:inline;overflow:visible;enable-background:accumulate"
     id="use9522" />
</svg>
