<?xml version="1.0" encoding="UTF-8" standalone="no"?>
<!-- Created with Inkscape (http://www.inkscape.org/) -->
<svg
   xmlns:dc="http://purl.org/dc/elements/1.1/"
   xmlns:cc="http://creativecommons.org/ns#"
   xmlns:rdf="http://www.w3.org/1999/02/22-rdf-syntax-ns#"
   xmlns:svg="http://www.w3.org/2000/svg"
   xmlns="http://www.w3.org/2000/svg"
   xmlns:xlink="http://www.w3.org/1999/xlink"
   xmlns:sodipodi="http://sodipodi.sourceforge.net/DTD/sodipodi-0.dtd"
   xmlns:inkscape="http://www.inkscape.org/namespaces/inkscape"
   version="1.0"
   width="581.48883"
   height="910.8512"
   id="svg2"
   sodipodi:version="0.32"
   inkscape:version="0.46"
   sodipodi:docname="Escudo_de_Placilla.svg"
   inkscape:output_extension="org.inkscape.output.svg.inkscape"
   sodipodi:docbase="C:\Documents and Settings\B1mbo\Escritorio">
  <metadata
     id="metadata377">
    <rdf:RDF>
      <cc:Work
         rdf:about="">
        <dc:format>image/svg+xml</dc:format>
        <dc:type
           rdf:resource="http://purl.org/dc/dcmitype/StillImage" />
      </cc:Work>
      <cc:Work
         rdf:about="">
        <dc:format>image/svg+xml</dc:format>
        <dc:type
           rdf:resource="http://purl.org/dc/dcmitype/StillImage" />
      </cc:Work>
    </rdf:RDF>
  </metadata>
  <sodipodi:namedview
     inkscape:window-height="750"
     inkscape:window-width="1280"
     inkscape:pageshadow="2"
     inkscape:pageopacity="0.0"
     guidetolerance="10.0"
     gridtolerance="10.0"
     objecttolerance="10.0"
     borderopacity="1.0"
     bordercolor="#666666"
     pagecolor="#ffffff"
     id="base"
     inkscape:zoom="0.3586572"
     inkscape:cx="254.73545"
     inkscape:cy="550.52463"
     inkscape:window-x="-8"
     inkscape:window-y="-8"
     inkscape:current-layer="svg2"
     showgrid="false" />
  <defs
     id="defs4">
    <inkscape:perspective
       sodipodi:type="inkscape:persp3d"
       inkscape:vp_x="0 : 455.4256 : 1"
       inkscape:vp_y="0 : 1000 : 0"
       inkscape:vp_z="581.48883 : 455.4256 : 1"
       inkscape:persp3d-origin="290.74442 : 303.61707 : 1"
       id="perspective377" />
    <inkscape:perspective
       id="perspective8556"
       inkscape:persp3d-origin="51.397141 : 33.923149 : 1"
       inkscape:vp_z="102.79428 : 50.884724 : 1"
       inkscape:vp_y="0 : 1000 : 0"
       inkscape:vp_x="0 : 50.884724 : 1"
       sodipodi:type="inkscape:persp3d" />
  </defs>
  <g
     id="g8944">
    <path
       d="M 292.57194,165.30759 C 259.09462,165.30759 230.8621,166.16304 207.06714,167.6502 C 202.30803,167.94766 197.71371,168.27892 193.30231,168.62263 C 140.38967,172.74752 112.01773,180.03959 96.812828,186.70061 C 95.545558,187.25582 94.343898,187.79183 93.252918,188.33603 C 87.815808,191.05119 84.472028,193.65065 82.437718,195.76171 C 82.037568,196.177 81.693068,196.57588 81.386698,196.95512 C 81.068878,197.34844 80.803558,197.71016 80.572998,198.06012 C 79.213378,200.12233 79.250768,201.37515 79.250768,201.37515 L 90.811878,256.13954 L 128.61431,256.13954 L 456.52952,256.13954 L 494.33201,256.13954 L 505.89306,201.37515 C 505.89306,201.37515 505.93039,200.12233 504.57077,198.06012 C 504.34026,197.71016 504.07489,197.34844 503.75713,196.95512 C 501.89693,194.64542 498.41746,191.59525 491.89097,188.33603 C 491.88163,188.33141 491.86623,188.34065 491.85701,188.33603 C 477.67565,181.26297 449.16459,173.09132 391.84152,168.62263 C 391.8307,168.62178 391.81839,168.62348 391.80769,168.62263 C 387.39629,168.27892 382.83568,167.94766 378.07669,167.6502 C 354.28093,166.16303 326.05115,165.30759 292.57194,165.30759 z"
       style="fill:#eac102;fill-opacity:1;fill-rule:evenodd;stroke:#000000;stroke-width:1;stroke-linecap:butt;stroke-linejoin:miter;stroke-opacity:1"
       id="path9279" />
    <g
       transform="translate(-79.804602,-50.165676)"
       style="stroke-width:1"
       id="g10129">
      <g
         transform="matrix(5.7254473,0,0,5.9379995,110.1684,49.184161)"
         style="stroke-width:0.17150438"
         id="g8962">
        <path
           d="M 29.521708,2.5219118 L 30.416305,1.499515 L 35.144891,0.9883166 L 36.295087,10.573287 L 34.122494,10.445488 L 33.611296,2.9053106 L 29.521708,2.5219118 z"
           style="fill:#eac102;fill-opacity:1;fill-rule:evenodd;stroke:#000000;stroke-width:0.17150438;stroke-linecap:butt;stroke-linejoin:miter;stroke-opacity:1"
           id="path8964" />
        <path
           d="M 33.227896,3.1609098 L 35.27269,1.2439158"
           style="fill:#eac102;fill-opacity:1;fill-rule:evenodd;stroke:#000000;stroke-width:0.17150438;stroke-linecap:butt;stroke-linejoin:miter;stroke-opacity:1"
           id="path8966" />
      </g>
      <path
         d="M 275.23618,201.16131 C 271.665,201.27034 268.0931,201.35254 264.52151,201.44621 L 262.88021,257.63455 C 262.88099,257.65538 262.89709,257.67171 262.91632,257.67115 L 277.32515,257.25593 C 277.34438,257.25538 277.35923,257.23815 277.35845,257.21732 L 275.27229,201.19793 C 275.27151,201.17709 275.25541,201.16076 275.23618,201.16131 z"
         style="fill:#eac102;fill-opacity:1;stroke:#000000;stroke-width:1;stroke-miterlimit:4;stroke-opacity:1"
         id="path8950" />
      <g
         transform="matrix(5.7254473,0,0,5.9379995,62.241401,54.875716)"
         style="stroke-width:0.17150438"
         id="g8976">
        <path
           d="M 46.902454,0.86051697 L 47.98592,-0.41790329 L 52.014438,-0.67307826 L 52.054022,15.045424 L 48.381756,17.1757 L 51.092695,33.108334 L 46.78143,33.236134 L 45.856298,15.768208 L 46.902454,0.86051697 z"
           style="fill:#eac102;fill-opacity:1;fill-rule:evenodd;stroke:#000000;stroke-width:0.17150438;stroke-linecap:butt;stroke-linejoin:miter;stroke-opacity:1"
           id="path8968" />
        <path
           d="M 52.142238,-0.67307826 L 49.930061,1.1165404"
           style="fill:#eac102;fill-opacity:1;fill-rule:evenodd;stroke:#000000;stroke-width:0.17150438;stroke-linecap:butt;stroke-linejoin:miter;stroke-opacity:1"
           id="path8970" />
        <path
           d="M 52.069943,15.061847 L 50.416943,14.982373"
           style="fill:#eac102;fill-opacity:1;fill-rule:evenodd;stroke:#000000;stroke-width:0.17150438;stroke-linecap:butt;stroke-linejoin:miter;stroke-opacity:1"
           id="path8972" />
      </g>
      <path
         d="M 338.46217,195.24994 C 342.01631,194.87236 345.56776,194.46805 349.12035,194.07517 L 357.85184,249.5551 C 357.8537,249.57587 357.8398,249.59424 357.82066,249.59631 L 343.48377,251.14428 C 343.46464,251.14634 343.44773,251.1313 343.44587,251.11053 L 338.43101,195.29115 C 338.42914,195.27039 338.44304,195.25201 338.46217,195.24994 z"
         style="fill:#eac102;fill-opacity:1;stroke:#000000;stroke-width:1;stroke-miterlimit:4;stroke-opacity:1"
         id="path8952" />
      <g
         transform="matrix(5.7254473,0,0,5.9379995,62.241401,54.875716)"
         style="stroke-width:0.17150438"
         id="g8958">
        <path
           d="M 29.521708,2.5219118 L 30.416305,1.499515 L 33.866895,1.1161162 L 36.295087,10.573287 L 34.122494,10.956686 L 32.2055,3.1609098 L 29.521708,2.5219118 z"
           style="fill:#eac102;fill-opacity:1;fill-rule:evenodd;stroke:#000000;stroke-width:0.17150438;stroke-linecap:butt;stroke-linejoin:miter;stroke-opacity:1"
           id="path8954" />
        <path
           d="M 32.333299,3.5443086 L 34.122494,1.1161162"
           style="fill:#eac102;fill-opacity:1;fill-rule:evenodd;stroke:#000000;stroke-width:0.17150438;stroke-linecap:butt;stroke-linejoin:miter;stroke-opacity:1"
           id="path8956" />
      </g>
      <path
         d="M 230.81399,68.548403 L 241.35947,155.45751 L 267.93653,161.31127 L 275.0982,257.57222 L 340.43737,252.99113 L 330.47724,154.47508 L 351.11025,143.45625 L 352.16877,57.549728 L 330.25384,59.475383 L 325.28584,108.52543 L 310.72285,110.40548 L 306.17139,60.798148 L 279.87053,63.878458 L 281.03446,112.67431 L 263.98501,115.48179 L 253.68537,66.295258 L 230.81399,68.548403 z"
         style="fill:#eac102;fill-opacity:1;fill-rule:evenodd;stroke:#000000;stroke-width:1;stroke-linecap:butt;stroke-linejoin:miter;stroke-opacity:1"
         id="path2467" />
      <path
         d="M 236.62343,119.41659 L 264.21016,115.50972"
         style="fill:#eac102;fill-opacity:1;fill-rule:evenodd;stroke:#000000;stroke-width:1;stroke-linecap:butt;stroke-linejoin:miter;stroke-opacity:1"
         id="path2469" />
      <path
         d="M 280.94479,113.05806 L 311.54725,110.47319"
         style="fill:#eac102;fill-opacity:1;fill-rule:evenodd;stroke:#000000;stroke-width:1;stroke-linecap:butt;stroke-linejoin:miter;stroke-opacity:1"
         id="path2471" />
      <path
         d="M 324.6699,108.10653 L 352.19565,105.63965"
         style="fill:#eac102;fill-opacity:1;fill-rule:evenodd;stroke:#000000;stroke-width:1;stroke-linecap:butt;stroke-linejoin:miter;stroke-opacity:1"
         id="path2473" />
      <path
         d="M 267.74664,160.33273 L 330.49151,154.61404"
         style="fill:#eac102;fill-opacity:1;fill-rule:evenodd;stroke:#000000;stroke-width:1;stroke-linecap:butt;stroke-linejoin:miter;stroke-opacity:1"
         id="path2475" />
      <path
         d="M 272.48288,114.55882 L 275.19682,151.37691"
         style="fill:#eac102;fill-opacity:1;fill-rule:evenodd;stroke:#000000;stroke-width:1;stroke-linecap:butt;stroke-linejoin:miter;stroke-opacity:1"
         id="path2477" />
      <path
         d="M 319.62096,109.21462 L 321.53222,146.74895"
         style="fill:#eac102;fill-opacity:1;fill-rule:evenodd;stroke:#000000;stroke-width:1;stroke-linecap:butt;stroke-linejoin:miter;stroke-opacity:1"
         id="path2479" />
      <path
         d="M 297.54536,158.70366 L 299.45509,191.27588"
         style="fill:#eac102;fill-opacity:1;fill-rule:evenodd;stroke:#000000;stroke-width:1;stroke-linecap:butt;stroke-linejoin:miter;stroke-opacity:1"
         id="path2483" />
      <g
         transform="matrix(2.1163127,-0.2771355,5.1712818e-2,2.7359127,30.035714,234.85925)"
         style="stroke-width:0.41507077"
         id="g8749">
        <path
           d="M 120.7316,20.061688 L 120.7316,2.349567 C 121.24595,-0.90199269 122.59517,-2.9435171 125.79221,-3.7954546 C 131.665,-4.8381229 137.38914,-2.1495773 137.17857,2.349567 C 137.57352,2.5335791 137.90983,14.445437 137.90152,20.242424 L 120.7316,20.061688 z"
           style="fill:#eac102;fill-opacity:1;fill-rule:evenodd;stroke:#000000;stroke-width:0.41507077;stroke-linecap:butt;stroke-linejoin:miter;stroke-opacity:1"
           id="path8729" />
        <path
           d="M 123.76219,19.937587 L 123.76219,4.7924303 C 124.08952,2.0121085 124.94813,0.26645551 126.98266,-0.4620128 C 130.71997,-1.3535714 134.11165,-0.36144676 134.22869,4.7924303 C 134.70801,5.307075 134.69405,15.135283 134.68876,20.09213 L 123.76219,19.937587 z"
           style="fill:#eac102;fill-opacity:1;fill-rule:evenodd;stroke:#000000;stroke-width:0.41507077;stroke-linecap:butt;stroke-linejoin:miter;stroke-opacity:1"
           id="path8731" />
        <path
           d="M 124.52706,-3.4339828 L 126.15368,-0.36147195"
           style="fill:#eac102;fill-opacity:1;fill-rule:evenodd;stroke:#000000;stroke-width:0.41507077;stroke-linecap:butt;stroke-linejoin:miter;stroke-opacity:1"
           id="path8733" />
        <path
           d="M 120.59808,1.8593713 L 124.1449,3.2134997"
           style="fill:#eac102;fill-opacity:1;fill-rule:evenodd;stroke:#000000;stroke-width:0.41507077;stroke-linecap:butt;stroke-linejoin:miter;stroke-opacity:1"
           id="path8735" />
        <path
           d="M 120.7316,8.4945887 L 123.80411,8.4945887"
           style="fill:#eac102;fill-opacity:1;fill-rule:evenodd;stroke:#000000;stroke-width:0.41507077;stroke-linecap:butt;stroke-linejoin:miter;stroke-opacity:1"
           id="path8737" />
        <path
           d="M 120.92462,14.49935 L 123.62338,14.458874"
           style="fill:#eac102;fill-opacity:1;fill-rule:evenodd;stroke:#000000;stroke-width:0.41507077;stroke-linecap:butt;stroke-linejoin:miter;stroke-opacity:1"
           id="path8739" />
        <path
           d="M 134.7805,14.796302 L 137.90152,15.001082"
           style="fill:#eac102;fill-opacity:1;fill-rule:evenodd;stroke:#000000;stroke-width:0.41507077;stroke-linecap:butt;stroke-linejoin:miter;stroke-opacity:1"
           id="path8741" />
        <path
           d="M 134.64827,8.4945887 L 137.54004,8.6753246"
           style="fill:#eac102;fill-opacity:1;fill-rule:evenodd;stroke:#000000;stroke-width:0.41507077;stroke-linecap:butt;stroke-linejoin:miter;stroke-opacity:1"
           id="path8743" />
        <path
           d="M 133.95507,3.5705948 L 136.99784,1.8073592"
           style="fill:#eac102;fill-opacity:1;fill-rule:evenodd;stroke:#000000;stroke-width:0.41507077;stroke-linecap:butt;stroke-linejoin:miter;stroke-opacity:1"
           id="path8745" />
        <path
           d="M 131.75649,-0.18073602 L 133.20238,-3.0725109"
           style="fill:#eac102;fill-opacity:1;fill-rule:evenodd;stroke:#000000;stroke-width:0.41507077;stroke-linecap:butt;stroke-linejoin:miter;stroke-opacity:1"
           id="path6354" />
      </g>
      <path
         d="M 269.59233,192.00079 L 288.30643,197.69688"
         style="fill:none;fill-rule:evenodd;stroke:#000000;stroke-width:1;stroke-linecap:butt;stroke-linejoin:miter;stroke-opacity:1"
         id="path8761" />
      <path
         d="M 271.69406,217.72425 L 286.64995,217.86879"
         style="fill:none;fill-rule:evenodd;stroke:#000000;stroke-width:1;stroke-linecap:butt;stroke-linejoin:miter;stroke-opacity:1"
         id="path8763" />
      <path
         d="M 273.27074,235.77139 L 285.2691,234.46273"
         style="fill:none;fill-rule:evenodd;stroke:#000000;stroke-width:1;stroke-linecap:butt;stroke-linejoin:miter;stroke-opacity:1"
         id="path8765" />
      <path
         d="M 333.64893,185.2668 L 318.80681,196.16136"
         style="fill:none;fill-rule:evenodd;stroke:#000000;stroke-width:1;stroke-linecap:butt;stroke-linejoin:miter;stroke-opacity:1"
         id="path8767" />
      <path
         d="M 336.27641,213.89065 L 322.60002,215.06808"
         style="fill:none;fill-rule:evenodd;stroke:#000000;stroke-width:1;stroke-linecap:butt;stroke-linejoin:miter;stroke-opacity:1"
         id="path8769" />
      <path
         d="M 337.97578,231.73456 L 322.42196,232.62246"
         style="fill:none;fill-rule:evenodd;stroke:#000000;stroke-width:1;stroke-linecap:butt;stroke-linejoin:miter;stroke-opacity:1"
         id="path8771" />
      <path
         d="M 241.34375,155.20183 L 351.02949,143.9595"
         style="fill:#eac102;fill-opacity:1;fill-rule:evenodd;stroke:#000000;stroke-width:1;stroke-linecap:butt;stroke-linejoin:miter;stroke-opacity:1"
         id="path8853" />
      <path
         d="M 349.01449,193.90467 L 363.32009,216.16209 L 357.83213,215.40513 L 359.47923,242.66061 L 357.15808,243.48745 L 349.01449,193.90467 z"
         style="fill:#eac102;fill-opacity:1;fill-rule:evenodd;stroke:#000000;stroke-width:1;stroke-linecap:butt;stroke-linejoin:miter;stroke-opacity:1"
         id="path9283" />
      <path
         d="M 330.41179,154.69371 L 339.41126,157.36703"
         style="fill:none;fill-rule:evenodd;stroke:#000000;stroke-width:1;stroke-linecap:butt;stroke-linejoin:miter;stroke-opacity:1"
         id="path9810" />
    </g>
    <g
       transform="matrix(0.981873,-0.1895396,0.1895396,0.981873,-239.12266,37.630823)"
       style="stroke-width:1.00000012"
       id="g10171">
      <g
         transform="matrix(5.7254473,0,0,5.9379995,110.1684,49.184161)"
         style="stroke-width:0.17150439"
         id="g10173">
        <path
           d="M 29.521708,2.5219118 L 30.416305,1.499515 L 35.144891,0.9883166 L 36.295087,10.573287 L 34.122494,10.445488 L 33.611296,2.9053106 L 29.521708,2.5219118 z"
           style="fill:#eac102;fill-opacity:1;fill-rule:evenodd;stroke:#000000;stroke-width:0.17150439;stroke-linecap:butt;stroke-linejoin:miter;stroke-opacity:1"
           id="path10175" />
        <path
           d="M 33.227896,3.1609098 L 35.27269,1.2439158"
           style="fill:#eac102;fill-opacity:1;fill-rule:evenodd;stroke:#000000;stroke-width:0.17150439;stroke-linecap:butt;stroke-linejoin:miter;stroke-opacity:1"
           id="path10177" />
      </g>
      <g
         transform="matrix(5.7254473,0,0,5.9379995,62.241401,54.875716)"
         style="stroke-width:0.17150439"
         id="g10181">
        <path
           d="M 46.902454,0.86051697 L 47.98592,-0.41790329 L 52.014438,-0.67307826 L 52.054022,15.045424 L 48.381756,17.1757 L 51.092695,33.108334 L 46.78143,33.236134 L 45.856298,15.768208 L 46.902454,0.86051697 z"
           style="fill:#eac102;fill-opacity:1;fill-rule:evenodd;stroke:#000000;stroke-width:0.17150439;stroke-linecap:butt;stroke-linejoin:miter;stroke-opacity:1"
           id="path10183" />
        <path
           d="M 52.142238,-0.67307826 L 49.930061,1.1165404"
           style="fill:#eac102;fill-opacity:1;fill-rule:evenodd;stroke:#000000;stroke-width:0.17150439;stroke-linecap:butt;stroke-linejoin:miter;stroke-opacity:1"
           id="path10185" />
        <path
           d="M 52.069943,15.061847 L 50.416943,14.982373"
           style="fill:#eac102;fill-opacity:1;fill-rule:evenodd;stroke:#000000;stroke-width:0.17150439;stroke-linecap:butt;stroke-linejoin:miter;stroke-opacity:1"
           id="path10187" />
      </g>
      <path
         d="M 338.46217,195.24994 C 342.01631,194.87236 345.56776,194.46805 349.12035,194.07517 L 357.85184,249.5551 C 357.8537,249.57587 357.8398,249.59424 357.82066,249.59631 L 343.48377,251.14428 C 343.46464,251.14634 343.44773,251.1313 343.44587,251.11053 L 338.43101,195.29115 C 338.42914,195.27039 338.44304,195.25201 338.46217,195.24994 z"
         style="fill:#eac102;fill-opacity:1;stroke:#000000;stroke-width:1.00000012;stroke-miterlimit:4;stroke-opacity:1"
         id="path10189" />
      <g
         transform="matrix(5.7254473,0,0,5.9379995,62.241401,54.875716)"
         style="stroke-width:0.17150439"
         id="g10191">
        <path
           d="M 29.521708,2.5219118 L 30.416305,1.499515 L 33.866895,1.1161162 L 36.295087,10.573287 L 34.122494,10.956686 L 32.2055,3.1609098 L 29.521708,2.5219118 z"
           style="fill:#eac102;fill-opacity:1;fill-rule:evenodd;stroke:#000000;stroke-width:0.17150439;stroke-linecap:butt;stroke-linejoin:miter;stroke-opacity:1"
           id="path10193" />
        <path
           d="M 32.333299,3.5443086 L 34.122494,1.1161162"
           style="fill:#eac102;fill-opacity:1;fill-rule:evenodd;stroke:#000000;stroke-width:0.17150439;stroke-linecap:butt;stroke-linejoin:miter;stroke-opacity:1"
           id="path10195" />
      </g>
      <path
         d="M 230.81399,68.548403 L 241.35947,155.45751 L 267.93653,161.31127 L 275.0982,257.57222 L 340.43737,252.99113 L 330.47724,154.47508 L 351.11025,143.45625 L 352.16877,57.549728 L 330.25384,59.475383 L 325.28584,108.52543 L 310.72285,110.40548 L 306.17139,60.798148 L 279.87053,63.878458 L 281.03446,112.67431 L 263.98501,115.48179 L 253.68537,66.295258 L 230.81399,68.548403 z"
         style="fill:#eac102;fill-opacity:1;fill-rule:evenodd;stroke:#000000;stroke-width:1.00000012;stroke-linecap:butt;stroke-linejoin:miter;stroke-opacity:1"
         id="path10197" />
      <path
         d="M 236.62343,119.41659 L 264.21016,115.50972"
         style="fill:#eac102;fill-opacity:1;fill-rule:evenodd;stroke:#000000;stroke-width:1.00000012;stroke-linecap:butt;stroke-linejoin:miter;stroke-opacity:1"
         id="path10199" />
      <path
         d="M 280.94479,113.05806 L 311.54725,110.47319"
         style="fill:#eac102;fill-opacity:1;fill-rule:evenodd;stroke:#000000;stroke-width:1.00000012;stroke-linecap:butt;stroke-linejoin:miter;stroke-opacity:1"
         id="path10201" />
      <path
         d="M 324.6699,108.10653 L 352.19565,105.63965"
         style="fill:#eac102;fill-opacity:1;fill-rule:evenodd;stroke:#000000;stroke-width:1.00000012;stroke-linecap:butt;stroke-linejoin:miter;stroke-opacity:1"
         id="path10203" />
      <path
         d="M 267.74664,160.33273 L 330.49151,154.61404"
         style="fill:#eac102;fill-opacity:1;fill-rule:evenodd;stroke:#000000;stroke-width:1.00000012;stroke-linecap:butt;stroke-linejoin:miter;stroke-opacity:1"
         id="path10205" />
      <path
         d="M 272.48288,114.55882 L 275.19682,151.37691"
         style="fill:#eac102;fill-opacity:1;fill-rule:evenodd;stroke:#000000;stroke-width:1.00000012;stroke-linecap:butt;stroke-linejoin:miter;stroke-opacity:1"
         id="path10207" />
      <path
         d="M 319.62096,109.21462 L 321.53222,146.74895"
         style="fill:#eac102;fill-opacity:1;fill-rule:evenodd;stroke:#000000;stroke-width:1.00000012;stroke-linecap:butt;stroke-linejoin:miter;stroke-opacity:1"
         id="path10209" />
      <path
         d="M 297.54536,158.70366 L 299.45509,191.27588"
         style="fill:#eac102;fill-opacity:1;fill-rule:evenodd;stroke:#000000;stroke-width:1.00000012;stroke-linecap:butt;stroke-linejoin:miter;stroke-opacity:1"
         id="path10211" />
      <g
         transform="matrix(2.1163127,-0.2771355,5.1712818e-2,2.7359127,30.035714,234.85925)"
         style="stroke-width:0.4150708"
         id="g10213">
        <path
           d="M 120.7316,20.061688 L 120.7316,2.349567 C 121.24595,-0.90199269 122.59517,-2.9435171 125.79221,-3.7954546 C 131.665,-4.8381229 137.38914,-2.1495773 137.17857,2.349567 C 137.57352,2.5335791 137.90983,14.445437 137.90152,20.242424 L 120.7316,20.061688 z"
           style="fill:#eac102;fill-opacity:1;fill-rule:evenodd;stroke:#000000;stroke-width:0.4150708;stroke-linecap:butt;stroke-linejoin:miter;stroke-opacity:1"
           id="path10215" />
        <path
           d="M 123.76219,19.937587 L 123.76219,4.7924303 C 124.08952,2.0121085 124.94813,0.26645551 126.98266,-0.4620128 C 130.71997,-1.3535714 134.11165,-0.36144676 134.22869,4.7924303 C 134.70801,5.307075 134.69405,15.135283 134.68876,20.09213 L 123.76219,19.937587 z"
           style="fill:#eac102;fill-opacity:1;fill-rule:evenodd;stroke:#000000;stroke-width:0.4150708;stroke-linecap:butt;stroke-linejoin:miter;stroke-opacity:1"
           id="path10217" />
        <path
           d="M 124.52706,-3.4339828 L 126.15368,-0.36147195"
           style="fill:#eac102;fill-opacity:1;fill-rule:evenodd;stroke:#000000;stroke-width:0.4150708;stroke-linecap:butt;stroke-linejoin:miter;stroke-opacity:1"
           id="path10219" />
        <path
           d="M 120.59808,1.8593713 L 124.1449,3.2134997"
           style="fill:#eac102;fill-opacity:1;fill-rule:evenodd;stroke:#000000;stroke-width:0.4150708;stroke-linecap:butt;stroke-linejoin:miter;stroke-opacity:1"
           id="path10221" />
        <path
           d="M 120.7316,8.4945887 L 123.80411,8.4945887"
           style="fill:#eac102;fill-opacity:1;fill-rule:evenodd;stroke:#000000;stroke-width:0.4150708;stroke-linecap:butt;stroke-linejoin:miter;stroke-opacity:1"
           id="path10223" />
        <path
           d="M 120.92462,14.49935 L 123.62338,14.458874"
           style="fill:#eac102;fill-opacity:1;fill-rule:evenodd;stroke:#000000;stroke-width:0.4150708;stroke-linecap:butt;stroke-linejoin:miter;stroke-opacity:1"
           id="path10225" />
        <path
           d="M 134.7805,14.796302 L 137.90152,15.001082"
           style="fill:#eac102;fill-opacity:1;fill-rule:evenodd;stroke:#000000;stroke-width:0.4150708;stroke-linecap:butt;stroke-linejoin:miter;stroke-opacity:1"
           id="path10227" />
        <path
           d="M 134.64827,8.4945887 L 137.54004,8.6753246"
           style="fill:#eac102;fill-opacity:1;fill-rule:evenodd;stroke:#000000;stroke-width:0.4150708;stroke-linecap:butt;stroke-linejoin:miter;stroke-opacity:1"
           id="path10229" />
        <path
           d="M 133.95507,3.5705948 L 136.99784,1.8073592"
           style="fill:#eac102;fill-opacity:1;fill-rule:evenodd;stroke:#000000;stroke-width:0.4150708;stroke-linecap:butt;stroke-linejoin:miter;stroke-opacity:1"
           id="path10231" />
        <path
           d="M 131.75649,-0.18073602 L 133.20238,-3.0725109"
           style="fill:#eac102;fill-opacity:1;fill-rule:evenodd;stroke:#000000;stroke-width:0.4150708;stroke-linecap:butt;stroke-linejoin:miter;stroke-opacity:1"
           id="path10233" />
      </g>
      <path
         d="M 269.59233,192.00079 L 288.30643,197.69688"
         style="fill:none;fill-rule:evenodd;stroke:#000000;stroke-width:1.00000012;stroke-linecap:butt;stroke-linejoin:miter;stroke-opacity:1"
         id="path10235" />
      <path
         d="M 271.69406,217.72425 L 286.64995,217.86879"
         style="fill:none;fill-rule:evenodd;stroke:#000000;stroke-width:1.00000012;stroke-linecap:butt;stroke-linejoin:miter;stroke-opacity:1"
         id="path10237" />
      <path
         d="M 273.27074,235.77139 L 285.2691,234.46273"
         style="fill:none;fill-rule:evenodd;stroke:#000000;stroke-width:1.00000012;stroke-linecap:butt;stroke-linejoin:miter;stroke-opacity:1"
         id="path10239" />
      <path
         d="M 333.64893,185.2668 L 318.80681,196.16136"
         style="fill:none;fill-rule:evenodd;stroke:#000000;stroke-width:1.00000012;stroke-linecap:butt;stroke-linejoin:miter;stroke-opacity:1"
         id="path10241" />
      <path
         d="M 336.27641,213.89065 L 322.60002,215.06808"
         style="fill:none;fill-rule:evenodd;stroke:#000000;stroke-width:1.00000012;stroke-linecap:butt;stroke-linejoin:miter;stroke-opacity:1"
         id="path10243" />
      <path
         d="M 337.97578,231.73456 L 322.42196,232.62246"
         style="fill:none;fill-rule:evenodd;stroke:#000000;stroke-width:1.00000012;stroke-linecap:butt;stroke-linejoin:miter;stroke-opacity:1"
         id="path10245" />
      <path
         d="M 241.34375,155.20183 L 351.02949,143.9595"
         style="fill:#eac102;fill-opacity:1;fill-rule:evenodd;stroke:#000000;stroke-width:1.00000012;stroke-linecap:butt;stroke-linejoin:miter;stroke-opacity:1"
         id="path10247" />
      <path
         d="M 349.01449,193.90467 L 363.54204,207.47526 L 355.97448,209.95422 L 359.47923,242.66061 L 357.15808,243.48745 L 349.01449,193.90467 z"
         style="fill:#eac102;fill-opacity:1;fill-rule:evenodd;stroke:#000000;stroke-width:1.00000012;stroke-linecap:butt;stroke-linejoin:miter;stroke-opacity:1"
         id="path10249" />
      <path
         d="M 330.41179,154.69371 L 339.41126,157.36703"
         style="fill:none;fill-rule:evenodd;stroke:#000000;stroke-width:1.00000012;stroke-linecap:butt;stroke-linejoin:miter;stroke-opacity:1"
         id="path10251" />
    </g>
    <g
       transform="matrix(-0.981873,-0.1895396,-0.1895396,0.981873,820.61152,36.703235)"
       style="stroke-width:1.00000012"
       id="g10335">
      <g
         transform="matrix(5.7254473,0,0,5.9379995,110.1684,49.184161)"
         style="stroke-width:0.17150439"
         id="g10337">
        <path
           d="M 29.521708,2.5219118 L 30.416305,1.499515 L 35.144891,0.9883166 L 36.295087,10.573287 L 34.122494,10.445488 L 33.611296,2.9053106 L 29.521708,2.5219118 z"
           style="fill:#eac102;fill-opacity:1;fill-rule:evenodd;stroke:#000000;stroke-width:0.17150439;stroke-linecap:butt;stroke-linejoin:miter;stroke-opacity:1"
           id="path10339" />
        <path
           d="M 33.227896,3.1609098 L 35.27269,1.2439158"
           style="fill:#eac102;fill-opacity:1;fill-rule:evenodd;stroke:#000000;stroke-width:0.17150439;stroke-linecap:butt;stroke-linejoin:miter;stroke-opacity:1"
           id="path10341" />
      </g>
      <g
         transform="matrix(5.7254473,0,0,5.9379995,62.241401,54.875716)"
         style="stroke-width:0.17150439"
         id="g10343">
        <path
           d="M 46.902454,0.86051697 L 47.98592,-0.41790329 L 52.014438,-0.67307826 L 52.054022,15.045424 L 48.381756,17.1757 L 51.092695,33.108334 L 46.78143,33.236134 L 45.856298,15.768208 L 46.902454,0.86051697 z"
           style="fill:#eac102;fill-opacity:1;fill-rule:evenodd;stroke:#000000;stroke-width:0.17150439;stroke-linecap:butt;stroke-linejoin:miter;stroke-opacity:1"
           id="path10345" />
        <path
           d="M 52.142238,-0.67307826 L 49.930061,1.1165404"
           style="fill:#eac102;fill-opacity:1;fill-rule:evenodd;stroke:#000000;stroke-width:0.17150439;stroke-linecap:butt;stroke-linejoin:miter;stroke-opacity:1"
           id="path10347" />
        <path
           d="M 52.069943,15.061847 L 50.416943,14.982373"
           style="fill:#eac102;fill-opacity:1;fill-rule:evenodd;stroke:#000000;stroke-width:0.17150439;stroke-linecap:butt;stroke-linejoin:miter;stroke-opacity:1"
           id="path10349" />
      </g>
      <path
         d="M 338.46217,195.24994 C 342.01631,194.87236 345.56776,194.46805 349.12035,194.07517 L 357.85184,249.5551 C 357.8537,249.57587 357.8398,249.59424 357.82066,249.59631 L 343.48377,251.14428 C 343.46464,251.14634 343.44773,251.1313 343.44587,251.11053 L 338.43101,195.29115 C 338.42914,195.27039 338.44304,195.25201 338.46217,195.24994 z"
         style="fill:#eac102;fill-opacity:1;stroke:#000000;stroke-width:1.00000012;stroke-miterlimit:4;stroke-opacity:1"
         id="path10351" />
      <g
         transform="matrix(5.7254473,0,0,5.9379995,62.241401,54.875716)"
         style="stroke-width:0.17150439"
         id="g10353">
        <path
           d="M 29.521708,2.5219118 L 30.416305,1.499515 L 33.866895,1.1161162 L 36.295087,10.573287 L 34.122494,10.956686 L 32.2055,3.1609098 L 29.521708,2.5219118 z"
           style="fill:#eac102;fill-opacity:1;fill-rule:evenodd;stroke:#000000;stroke-width:0.17150439;stroke-linecap:butt;stroke-linejoin:miter;stroke-opacity:1"
           id="path10355" />
        <path
           d="M 32.333299,3.5443086 L 34.122494,1.1161162"
           style="fill:#eac102;fill-opacity:1;fill-rule:evenodd;stroke:#000000;stroke-width:0.17150439;stroke-linecap:butt;stroke-linejoin:miter;stroke-opacity:1"
           id="path10357" />
      </g>
      <path
         d="M 230.81399,68.548403 L 241.35947,155.45751 L 267.93653,161.31127 L 275.0982,257.57222 L 340.43737,252.99113 L 330.47724,154.47508 L 351.11025,143.45625 L 352.16877,57.549728 L 330.25384,59.475383 L 325.28584,108.52543 L 310.72285,110.40548 L 306.17139,60.798148 L 279.87053,63.878458 L 281.03446,112.67431 L 263.98501,115.48179 L 253.68537,66.295258 L 230.81399,68.548403 z"
         style="fill:#eac102;fill-opacity:1;fill-rule:evenodd;stroke:#000000;stroke-width:1.00000012;stroke-linecap:butt;stroke-linejoin:miter;stroke-opacity:1"
         id="path10359" />
      <path
         d="M 236.62343,119.41659 L 264.21016,115.50972"
         style="fill:#eac102;fill-opacity:1;fill-rule:evenodd;stroke:#000000;stroke-width:1.00000012;stroke-linecap:butt;stroke-linejoin:miter;stroke-opacity:1"
         id="path10361" />
      <path
         d="M 280.94479,113.05806 L 311.54725,110.47319"
         style="fill:#eac102;fill-opacity:1;fill-rule:evenodd;stroke:#000000;stroke-width:1.00000012;stroke-linecap:butt;stroke-linejoin:miter;stroke-opacity:1"
         id="path10363" />
      <path
         d="M 324.6699,108.10653 L 352.19565,105.63965"
         style="fill:#eac102;fill-opacity:1;fill-rule:evenodd;stroke:#000000;stroke-width:1.00000012;stroke-linecap:butt;stroke-linejoin:miter;stroke-opacity:1"
         id="path10365" />
      <path
         d="M 267.74664,160.33273 L 330.49151,154.61404"
         style="fill:#eac102;fill-opacity:1;fill-rule:evenodd;stroke:#000000;stroke-width:1.00000012;stroke-linecap:butt;stroke-linejoin:miter;stroke-opacity:1"
         id="path10367" />
      <path
         d="M 272.48288,114.55882 L 275.19682,151.37691"
         style="fill:#eac102;fill-opacity:1;fill-rule:evenodd;stroke:#000000;stroke-width:1.00000012;stroke-linecap:butt;stroke-linejoin:miter;stroke-opacity:1"
         id="path10369" />
      <path
         d="M 319.62096,109.21462 L 321.53222,146.74895"
         style="fill:#eac102;fill-opacity:1;fill-rule:evenodd;stroke:#000000;stroke-width:1.00000012;stroke-linecap:butt;stroke-linejoin:miter;stroke-opacity:1"
         id="path10371" />
      <path
         d="M 297.54536,158.70366 L 299.45509,191.27588"
         style="fill:#eac102;fill-opacity:1;fill-rule:evenodd;stroke:#000000;stroke-width:1.00000012;stroke-linecap:butt;stroke-linejoin:miter;stroke-opacity:1"
         id="path10373" />
      <g
         transform="matrix(2.1163127,-0.2771355,5.1712818e-2,2.7359127,30.035714,234.85925)"
         style="stroke-width:0.4150708"
         id="g10375">
        <path
           d="M 120.7316,20.061688 L 120.7316,2.349567 C 121.24595,-0.90199269 122.59517,-2.9435171 125.79221,-3.7954546 C 131.665,-4.8381229 137.38914,-2.1495773 137.17857,2.349567 C 137.57352,2.5335791 137.90983,14.445437 137.90152,20.242424 L 120.7316,20.061688 z"
           style="fill:#eac102;fill-opacity:1;fill-rule:evenodd;stroke:#000000;stroke-width:0.4150708;stroke-linecap:butt;stroke-linejoin:miter;stroke-opacity:1"
           id="path10377" />
        <path
           d="M 123.76219,19.937587 L 123.76219,4.7924303 C 124.08952,2.0121085 124.94813,0.26645551 126.98266,-0.4620128 C 130.71997,-1.3535714 134.11165,-0.36144676 134.22869,4.7924303 C 134.70801,5.307075 134.69405,15.135283 134.68876,20.09213 L 123.76219,19.937587 z"
           style="fill:#eac102;fill-opacity:1;fill-rule:evenodd;stroke:#000000;stroke-width:0.4150708;stroke-linecap:butt;stroke-linejoin:miter;stroke-opacity:1"
           id="path10379" />
        <path
           d="M 124.52706,-3.4339828 L 126.15368,-0.36147195"
           style="fill:#eac102;fill-opacity:1;fill-rule:evenodd;stroke:#000000;stroke-width:0.4150708;stroke-linecap:butt;stroke-linejoin:miter;stroke-opacity:1"
           id="path10381" />
        <path
           d="M 120.59808,1.8593713 L 124.1449,3.2134997"
           style="fill:#eac102;fill-opacity:1;fill-rule:evenodd;stroke:#000000;stroke-width:0.4150708;stroke-linecap:butt;stroke-linejoin:miter;stroke-opacity:1"
           id="path10383" />
        <path
           d="M 120.7316,8.4945887 L 123.80411,8.4945887"
           style="fill:#eac102;fill-opacity:1;fill-rule:evenodd;stroke:#000000;stroke-width:0.4150708;stroke-linecap:butt;stroke-linejoin:miter;stroke-opacity:1"
           id="path10385" />
        <path
           d="M 120.92462,14.49935 L 123.62338,14.458874"
           style="fill:#eac102;fill-opacity:1;fill-rule:evenodd;stroke:#000000;stroke-width:0.4150708;stroke-linecap:butt;stroke-linejoin:miter;stroke-opacity:1"
           id="path10387" />
        <path
           d="M 134.7805,14.796302 L 137.90152,15.001082"
           style="fill:#eac102;fill-opacity:1;fill-rule:evenodd;stroke:#000000;stroke-width:0.4150708;stroke-linecap:butt;stroke-linejoin:miter;stroke-opacity:1"
           id="path10389" />
        <path
           d="M 134.64827,8.4945887 L 137.54004,8.6753246"
           style="fill:#eac102;fill-opacity:1;fill-rule:evenodd;stroke:#000000;stroke-width:0.4150708;stroke-linecap:butt;stroke-linejoin:miter;stroke-opacity:1"
           id="path10391" />
        <path
           d="M 133.95507,3.5705948 L 136.99784,1.8073592"
           style="fill:#eac102;fill-opacity:1;fill-rule:evenodd;stroke:#000000;stroke-width:0.4150708;stroke-linecap:butt;stroke-linejoin:miter;stroke-opacity:1"
           id="path10393" />
        <path
           d="M 131.75649,-0.18073602 L 133.20238,-3.0725109"
           style="fill:#eac102;fill-opacity:1;fill-rule:evenodd;stroke:#000000;stroke-width:0.4150708;stroke-linecap:butt;stroke-linejoin:miter;stroke-opacity:1"
           id="path10395" />
      </g>
      <path
         d="M 269.59233,192.00079 L 288.30643,197.69688"
         style="fill:none;fill-rule:evenodd;stroke:#000000;stroke-width:1.00000012;stroke-linecap:butt;stroke-linejoin:miter;stroke-opacity:1"
         id="path10397" />
      <path
         d="M 271.69406,217.72425 L 286.64995,217.86879"
         style="fill:none;fill-rule:evenodd;stroke:#000000;stroke-width:1.00000012;stroke-linecap:butt;stroke-linejoin:miter;stroke-opacity:1"
         id="path10399" />
      <path
         d="M 273.27074,235.77139 L 285.2691,234.46273"
         style="fill:none;fill-rule:evenodd;stroke:#000000;stroke-width:1.00000012;stroke-linecap:butt;stroke-linejoin:miter;stroke-opacity:1"
         id="path10401" />
      <path
         d="M 333.64893,185.2668 L 318.80681,196.16136"
         style="fill:none;fill-rule:evenodd;stroke:#000000;stroke-width:1.00000012;stroke-linecap:butt;stroke-linejoin:miter;stroke-opacity:1"
         id="path10403" />
      <path
         d="M 336.27641,213.89065 L 322.60002,215.06808"
         style="fill:none;fill-rule:evenodd;stroke:#000000;stroke-width:1.00000012;stroke-linecap:butt;stroke-linejoin:miter;stroke-opacity:1"
         id="path10405" />
      <path
         d="M 337.97578,231.73456 L 322.42196,232.62246"
         style="fill:none;fill-rule:evenodd;stroke:#000000;stroke-width:1.00000012;stroke-linecap:butt;stroke-linejoin:miter;stroke-opacity:1"
         id="path10407" />
      <path
         d="M 241.34375,155.20183 L 351.02949,143.9595"
         style="fill:#eac102;fill-opacity:1;fill-rule:evenodd;stroke:#000000;stroke-width:1.00000012;stroke-linecap:butt;stroke-linejoin:miter;stroke-opacity:1"
         id="path10409" />
      <path
         d="M 349.01449,193.90467 L 363.54204,207.47526 L 355.97448,209.95422 L 359.47923,242.66061 L 357.15808,243.48745 L 349.01449,193.90467 z"
         style="fill:#eac102;fill-opacity:1;fill-rule:evenodd;stroke:#000000;stroke-width:1.00000012;stroke-linecap:butt;stroke-linejoin:miter;stroke-opacity:1"
         id="path10411" />
      <path
         d="M 330.41179,154.69371 L 339.41126,157.36703"
         style="fill:none;fill-rule:evenodd;stroke:#000000;stroke-width:1.00000012;stroke-linecap:butt;stroke-linejoin:miter;stroke-opacity:1"
         id="path10413" />
    </g>
    <g
       transform="matrix(-1,0,0,1,659.86489,-50.378978)"
       style="stroke-width:1"
       id="g10253">
      <g
         transform="matrix(5.7254473,0,0,5.9379995,110.1684,49.184161)"
         style="stroke-width:0.17150438"
         id="g10255">
        <path
           d="M 29.521708,2.5219118 L 30.416305,1.499515 L 35.144891,0.9883166 L 36.295087,10.573287 L 34.122494,10.445488 L 33.611296,2.9053106 L 29.521708,2.5219118 z"
           style="fill:#eac102;fill-opacity:1;fill-rule:evenodd;stroke:#000000;stroke-width:0.17150438;stroke-linecap:butt;stroke-linejoin:miter;stroke-opacity:1"
           id="path10257" />
        <path
           d="M 33.227896,3.1609098 L 35.27269,1.2439158"
           style="fill:#eac102;fill-opacity:1;fill-rule:evenodd;stroke:#000000;stroke-width:0.17150438;stroke-linecap:butt;stroke-linejoin:miter;stroke-opacity:1"
           id="path10259" />
      </g>
      <path
         d="M 275.23618,201.16131 C 271.665,201.27034 268.0931,201.35254 264.52151,201.44621 L 262.88021,257.63455 C 262.88099,257.65538 262.89709,257.67171 262.91632,257.67115 L 277.32515,257.25593 C 277.34438,257.25538 277.35923,257.23815 277.35845,257.21732 L 275.27229,201.19793 C 275.27151,201.17709 275.25541,201.16076 275.23618,201.16131 z"
         style="fill:#eac102;fill-opacity:1;stroke:#000000;stroke-width:1;stroke-miterlimit:4;stroke-opacity:1"
         id="path10261" />
      <g
         transform="matrix(5.7254473,0,0,5.9379995,62.241401,54.875716)"
         style="stroke-width:0.17150438"
         id="g10263">
        <path
           d="M 46.902454,0.86051697 L 47.98592,-0.41790329 L 52.014438,-0.67307826 L 52.054022,15.045424 L 48.381756,17.1757 L 51.092695,33.108334 L 46.78143,33.236134 L 45.856298,15.768208 L 46.902454,0.86051697 z"
           style="fill:#eac102;fill-opacity:1;fill-rule:evenodd;stroke:#000000;stroke-width:0.17150438;stroke-linecap:butt;stroke-linejoin:miter;stroke-opacity:1"
           id="path10265" />
        <path
           d="M 52.142238,-0.67307826 L 49.930061,1.1165404"
           style="fill:#eac102;fill-opacity:1;fill-rule:evenodd;stroke:#000000;stroke-width:0.17150438;stroke-linecap:butt;stroke-linejoin:miter;stroke-opacity:1"
           id="path10267" />
        <path
           d="M 52.069943,15.061847 L 50.416943,14.982373"
           style="fill:#eac102;fill-opacity:1;fill-rule:evenodd;stroke:#000000;stroke-width:0.17150438;stroke-linecap:butt;stroke-linejoin:miter;stroke-opacity:1"
           id="path10269" />
      </g>
      <path
         d="M 338.46217,195.24994 C 342.01631,194.87236 345.56776,194.46805 349.12035,194.07517 L 357.85184,249.5551 C 357.8537,249.57587 357.8398,249.59424 357.82066,249.59631 L 343.48377,251.14428 C 343.46464,251.14634 343.44773,251.1313 343.44587,251.11053 L 338.43101,195.29115 C 338.42914,195.27039 338.44304,195.25201 338.46217,195.24994 z"
         style="fill:#eac102;fill-opacity:1;stroke:#000000;stroke-width:1;stroke-miterlimit:4;stroke-opacity:1"
         id="path10271" />
      <g
         transform="matrix(5.7254473,0,0,5.9379995,62.241401,54.875716)"
         style="stroke-width:0.17150438"
         id="g10273">
        <path
           d="M 29.521708,2.5219118 L 30.416305,1.499515 L 33.866895,1.1161162 L 36.295087,10.573287 L 34.122494,10.956686 L 32.2055,3.1609098 L 29.521708,2.5219118 z"
           style="fill:#eac102;fill-opacity:1;fill-rule:evenodd;stroke:#000000;stroke-width:0.17150438;stroke-linecap:butt;stroke-linejoin:miter;stroke-opacity:1"
           id="path10275" />
        <path
           d="M 32.333299,3.5443086 L 34.122494,1.1161162"
           style="fill:#eac102;fill-opacity:1;fill-rule:evenodd;stroke:#000000;stroke-width:0.17150438;stroke-linecap:butt;stroke-linejoin:miter;stroke-opacity:1"
           id="path10277" />
      </g>
      <path
         d="M 230.81399,68.548403 L 241.35947,155.45751 L 267.93653,161.31127 L 275.0982,257.57222 L 340.43737,252.99113 L 330.47724,154.47508 L 351.11025,143.45625 L 352.16877,57.549728 L 330.25384,59.475383 L 325.28584,108.52543 L 310.72285,110.40548 L 306.17139,60.798148 L 279.87053,63.878458 L 281.03446,112.67431 L 263.98501,115.48179 L 253.68537,66.295258 L 230.81399,68.548403 z"
         style="fill:#eac102;fill-opacity:1;fill-rule:evenodd;stroke:#000000;stroke-width:1;stroke-linecap:butt;stroke-linejoin:miter;stroke-opacity:1"
         id="path10279" />
      <path
         d="M 236.62343,119.41659 L 264.21016,115.50972"
         style="fill:#eac102;fill-opacity:1;fill-rule:evenodd;stroke:#000000;stroke-width:1;stroke-linecap:butt;stroke-linejoin:miter;stroke-opacity:1"
         id="path10281" />
      <path
         d="M 280.94479,113.05806 L 311.54725,110.47319"
         style="fill:#eac102;fill-opacity:1;fill-rule:evenodd;stroke:#000000;stroke-width:1;stroke-linecap:butt;stroke-linejoin:miter;stroke-opacity:1"
         id="path10283" />
      <path
         d="M 324.6699,108.10653 L 352.19565,105.63965"
         style="fill:#eac102;fill-opacity:1;fill-rule:evenodd;stroke:#000000;stroke-width:1;stroke-linecap:butt;stroke-linejoin:miter;stroke-opacity:1"
         id="path10285" />
      <path
         d="M 267.74664,160.33273 L 330.49151,154.61404"
         style="fill:#eac102;fill-opacity:1;fill-rule:evenodd;stroke:#000000;stroke-width:1;stroke-linecap:butt;stroke-linejoin:miter;stroke-opacity:1"
         id="path10287" />
      <path
         d="M 272.48288,114.55882 L 275.19682,151.37691"
         style="fill:#eac102;fill-opacity:1;fill-rule:evenodd;stroke:#000000;stroke-width:1;stroke-linecap:butt;stroke-linejoin:miter;stroke-opacity:1"
         id="path10289" />
      <path
         d="M 319.62096,109.21462 L 321.53222,146.74895"
         style="fill:#eac102;fill-opacity:1;fill-rule:evenodd;stroke:#000000;stroke-width:1;stroke-linecap:butt;stroke-linejoin:miter;stroke-opacity:1"
         id="path10291" />
      <path
         d="M 297.54536,158.70366 L 299.45509,191.27588"
         style="fill:#eac102;fill-opacity:1;fill-rule:evenodd;stroke:#000000;stroke-width:1;stroke-linecap:butt;stroke-linejoin:miter;stroke-opacity:1"
         id="path10293" />
      <g
         transform="matrix(2.1163127,-0.2771355,5.1712818e-2,2.7359127,30.035714,234.85925)"
         style="stroke-width:0.41507077"
         id="g10295">
        <path
           d="M 120.7316,20.061688 L 120.7316,2.349567 C 121.24595,-0.90199269 122.59517,-2.9435171 125.79221,-3.7954546 C 131.665,-4.8381229 137.38914,-2.1495773 137.17857,2.349567 C 137.57352,2.5335791 137.90983,14.445437 137.90152,20.242424 L 120.7316,20.061688 z"
           style="fill:#eac102;fill-opacity:1;fill-rule:evenodd;stroke:#000000;stroke-width:0.41507077;stroke-linecap:butt;stroke-linejoin:miter;stroke-opacity:1"
           id="path10297" />
        <path
           d="M 123.76219,19.937587 L 123.76219,4.7924303 C 124.08952,2.0121085 124.94813,0.26645551 126.98266,-0.4620128 C 130.71997,-1.3535714 134.11165,-0.36144676 134.22869,4.7924303 C 134.70801,5.307075 134.69405,15.135283 134.68876,20.09213 L 123.76219,19.937587 z"
           style="fill:#eac102;fill-opacity:1;fill-rule:evenodd;stroke:#000000;stroke-width:0.41507077;stroke-linecap:butt;stroke-linejoin:miter;stroke-opacity:1"
           id="path10299" />
        <path
           d="M 124.52706,-3.4339828 L 126.15368,-0.36147195"
           style="fill:#eac102;fill-opacity:1;fill-rule:evenodd;stroke:#000000;stroke-width:0.41507077;stroke-linecap:butt;stroke-linejoin:miter;stroke-opacity:1"
           id="path10301" />
        <path
           d="M 120.59808,1.8593713 L 124.1449,3.2134997"
           style="fill:#eac102;fill-opacity:1;fill-rule:evenodd;stroke:#000000;stroke-width:0.41507077;stroke-linecap:butt;stroke-linejoin:miter;stroke-opacity:1"
           id="path10303" />
        <path
           d="M 120.7316,8.4945887 L 123.80411,8.4945887"
           style="fill:#eac102;fill-opacity:1;fill-rule:evenodd;stroke:#000000;stroke-width:0.41507077;stroke-linecap:butt;stroke-linejoin:miter;stroke-opacity:1"
           id="path10305" />
        <path
           d="M 120.92462,14.49935 L 123.62338,14.458874"
           style="fill:#eac102;fill-opacity:1;fill-rule:evenodd;stroke:#000000;stroke-width:0.41507077;stroke-linecap:butt;stroke-linejoin:miter;stroke-opacity:1"
           id="path10307" />
        <path
           d="M 134.7805,14.796302 L 137.90152,15.001082"
           style="fill:#eac102;fill-opacity:1;fill-rule:evenodd;stroke:#000000;stroke-width:0.41507077;stroke-linecap:butt;stroke-linejoin:miter;stroke-opacity:1"
           id="path10309" />
        <path
           d="M 134.64827,8.4945887 L 137.54004,8.6753246"
           style="fill:#eac102;fill-opacity:1;fill-rule:evenodd;stroke:#000000;stroke-width:0.41507077;stroke-linecap:butt;stroke-linejoin:miter;stroke-opacity:1"
           id="path10311" />
        <path
           d="M 133.95507,3.5705948 L 136.99784,1.8073592"
           style="fill:#eac102;fill-opacity:1;fill-rule:evenodd;stroke:#000000;stroke-width:0.41507077;stroke-linecap:butt;stroke-linejoin:miter;stroke-opacity:1"
           id="path10313" />
        <path
           d="M 131.75649,-0.18073602 L 133.20238,-3.0725109"
           style="fill:#eac102;fill-opacity:1;fill-rule:evenodd;stroke:#000000;stroke-width:0.41507077;stroke-linecap:butt;stroke-linejoin:miter;stroke-opacity:1"
           id="path10315" />
      </g>
      <path
         d="M 269.59233,192.00079 L 288.30643,197.69688"
         style="fill:none;fill-rule:evenodd;stroke:#000000;stroke-width:1;stroke-linecap:butt;stroke-linejoin:miter;stroke-opacity:1"
         id="path10317" />
      <path
         d="M 271.69406,217.72425 L 286.64995,217.86879"
         style="fill:none;fill-rule:evenodd;stroke:#000000;stroke-width:1;stroke-linecap:butt;stroke-linejoin:miter;stroke-opacity:1"
         id="path10319" />
      <path
         d="M 273.27074,235.77139 L 285.2691,234.46273"
         style="fill:none;fill-rule:evenodd;stroke:#000000;stroke-width:1;stroke-linecap:butt;stroke-linejoin:miter;stroke-opacity:1"
         id="path10321" />
      <path
         d="M 333.64893,185.2668 L 318.80681,196.16136"
         style="fill:none;fill-rule:evenodd;stroke:#000000;stroke-width:1;stroke-linecap:butt;stroke-linejoin:miter;stroke-opacity:1"
         id="path10323" />
      <path
         d="M 336.27641,213.89065 L 322.60002,215.06808"
         style="fill:none;fill-rule:evenodd;stroke:#000000;stroke-width:1;stroke-linecap:butt;stroke-linejoin:miter;stroke-opacity:1"
         id="path10325" />
      <path
         d="M 337.97578,231.73456 L 322.42196,232.62246"
         style="fill:none;fill-rule:evenodd;stroke:#000000;stroke-width:1;stroke-linecap:butt;stroke-linejoin:miter;stroke-opacity:1"
         id="path10327" />
      <path
         d="M 241.34375,155.20183 L 351.02949,143.9595"
         style="fill:#eac102;fill-opacity:1;fill-rule:evenodd;stroke:#000000;stroke-width:1;stroke-linecap:butt;stroke-linejoin:miter;stroke-opacity:1"
         id="path10329" />
      <path
         d="M 349.01449,193.90467 L 363.32009,216.16209 L 357.83213,215.40513 L 359.47923,242.66061 L 357.15808,243.48745 L 349.01449,193.90467 z"
         style="fill:#eac102;fill-opacity:1;fill-rule:evenodd;stroke:#000000;stroke-width:1;stroke-linecap:butt;stroke-linejoin:miter;stroke-opacity:1"
         id="path10331" />
      <path
         d="M 330.41179,154.69371 L 339.41126,157.36703"
         style="fill:none;fill-rule:evenodd;stroke:#000000;stroke-width:1;stroke-linecap:butt;stroke-linejoin:miter;stroke-opacity:1"
         id="path10333" />
    </g>
    <path
       id="path20921"
       style="fill:#eac102;fill-rule:evenodd;stroke:#000000;stroke-width:0.96578258;stroke-linecap:butt;stroke-linejoin:miter;stroke-opacity:1"
       d="M 291.62488,193.11962 C 230.2051,193.96116 168.07945,194.0396 107.75916,210.92137 C 94.298041,216.49547 75.053221,219.60806 70.000222,239.35196 C 68.342573,255.84299 83.562312,262.83211 93.069171,267.36428 C 138.35825,285.20013 186.21227,286.71009 233.13729,289.49837 C 306.14169,291.41963 379.61661,292.19956 452.07972,278.88075 C 471.87626,273.86367 493.67467,270.76718 509.95391,253.86434 C 519.6743,241.37256 508.91467,223.90561 498.16914,220.31288 C 461.30682,201.75638 421.10132,199.76516 382.11385,195.98707 C 351.98221,193.82978 321.79818,193.14701 291.62488,193.11962 z" />
    <path
       id="path9054"
       style="fill:#eac102;fill-opacity:1;fill-rule:evenodd;stroke:#000000;stroke-width:0.96578258;stroke-linecap:butt;stroke-linejoin:miter;stroke-opacity:1"
       d="M 291.81432,213.39122 C 258.337,213.39122 230.10451,214.24667 206.30956,215.73383 C 201.55041,216.03129 196.95612,216.36256 192.54472,216.70627 C 139.63209,220.83116 111.26011,228.12322 96.055238,234.78424 C 94.787973,235.33945 93.586322,235.87546 92.495309,236.41966 C 87.058224,239.13482 83.714454,241.73428 81.680111,243.84534 C 81.279983,244.26063 80.935465,244.65952 80.629091,245.03875 C 80.311288,245.43207 80.045988,245.79379 79.815385,246.14376 C 78.455803,248.20596 78.493184,249.45878 78.493184,249.45878 L 90.054288,304.22317 L 127.85674,304.22317 L 455.77191,304.22317 L 493.57442,304.22317 L 505.13548,249.45878 C 505.13548,249.45878 505.17281,248.20596 503.81318,246.14376 C 503.58264,245.79379 503.31728,245.43207 502.9995,245.03875 C 501.13931,242.72905 497.65987,239.67888 491.13337,236.41966 C 491.12404,236.41504 491.10863,236.42428 491.0994,236.41966 C 476.91807,229.3466 448.40697,221.17495 391.08392,216.70627 C 391.07307,216.70541 391.06081,216.70711 391.05008,216.70627 C 386.6387,216.36256 382.07807,216.03129 377.31908,215.73383 C 353.52334,214.24666 325.29356,213.39122 291.81432,213.39122 z" />
    <path
       d="M 104.73453,305.93054 C 104.73453,305.93054 144.92702,278.99935 290.74943,278.99935 C 436.08869,278.99935 476.76423,305.93054 476.76423,305.93054 C 476.76423,305.93054 442.76865,332.86175 290.74943,332.86175 C 138.24676,332.86175 104.73453,305.93054 104.73453,305.93054 z"
       style="fill:#ed1c24;fill-rule:evenodd;stroke:#000000;stroke-width:1.27850533000000000px;stroke-linecap:butt;stroke-linejoin:miter;stroke-opacity:1;display:inline;fill-opacity:1"
       id="path38873" />
    <path
       d="M 243.40372,337.16184 L 243.40372,274.8514"
       style="font-size:12px;fill:none;stroke:#000000;stroke-width:0.66492712;display:inline"
       id="path4071" />
    <path
       d="M 234.85594,337.16184 L 234.85594,274.8514"
       style="font-size:12px;fill:none;stroke:#000000;stroke-width:0.97892296;display:inline"
       id="path10238" />
    <path
       d="M 226.78693,337.16184 L 226.78693,274.8514"
       style="font-size:12px;fill:none;stroke:#000000;stroke-width:1.31138957;display:inline"
       id="path4075" />
    <path
       d="M 218.78786,337.16184 L 218.78786,274.8514"
       style="font-size:12px;fill:none;stroke:#000000;stroke-width:1.64385557;display:inline"
       id="path38878" />
    <path
       d="M 211.66034,337.16184 L 211.66034,274.8514"
       style="font-size:12px;fill:none;stroke:#000000;stroke-width:1.97631645;display:inline"
       id="path4079" />
    <path
       d="M 198.06684,333.80224 L 197.87855,277.08944 M 204.51123,334.54834 L 204.51123,275.2268"
       style="font-size:12px;fill:none;stroke:#000000;stroke-width:2.30878282;display:inline"
       id="path10244" />
    <path
       d="M 185.51679,331.25212 L 185.51679,279.00084 M 191.87523,332.74416 L 191.68693,277.1382"
       style="font-size:12px;fill:none;stroke:#000000;stroke-width:2.62277913;display:inline"
       id="path4083" />
    <path
       d="M 168.67962,328.26805 L 168.67962,282.36043 M 174.20409,329.01407 L 174.20409,280.8683 M 179.89547,330.50611 L 179.89547,280.49288"
       style="font-size:12px;fill:none;stroke:#000000;stroke-width:2.95524502;display:inline"
       id="path38883" />
    <path
       d="M 162.77845,327.89262 L 162.77845,283.48188"
       style="font-size:12px;fill:none;stroke:#000000;stroke-width:3.28771114;display:inline"
       id="path4087" />
    <path
       d="M 157.27547,325.65447 L 157.27547,284.2279"
       style="font-size:12px;fill:none;stroke:#000000;stroke-width:3.62017226;display:inline"
       id="path10250" />
    <path
       d="M 151.37439,324.53294 L 151.37439,286.09053"
       style="font-size:12px;fill:none;stroke:#000000;stroke-width:3.95263839;display:inline"
       id="path4091" />
    <path
       d="M 139.29243,321.17827 L 139.10405,290.57167 M 145.48391,322.67041 L 145.48391,288.33352"
       style="font-size:12px;fill:none;stroke:#000000;stroke-width:4.26663494;display:inline"
       id="path38888" />
    <path
       d="M 133.10081,318.56467 L 133.10081,291.68818"
       style="font-size:12px;fill:none;stroke:#000000;stroke-width:4.50674915;display:inline"
       id="path4095" />
    <path
       d="M 127.43102,316.38517 L 127.43102,294.00423"
       style="font-size:12px;fill:none;stroke:#000000;stroke-width:4.83921099;display:inline"
       id="path10256" />
    <path
       d="M 121.2394,313.4011 L 121.2394,295.87179"
       style="font-size:12px;fill:none;stroke:#000000;stroke-width:5.15320587;display:inline"
       id="path4099" />
    <path
       d="M 114.87568,311.90906 L 114.87568,298.85596"
       style="font-size:12px;fill:none;stroke:#000000;stroke-width:5.46722317;display:inline"
       id="path38893" />
    <path
       d="M 108.14039,308.92782 L 108.14039,302.58453"
       style="font-size:12px;fill:none;stroke:#000000;stroke-width:6.44612455;display:inline"
       id="path4103" />
    <path
       d="M 277.41169,333.80224 L 277.41169,276.71893 M 262.93066,335.66979 L 263.11886,275.2268 M 252.37635,336.4158 L 252.37635,274.8514"
       style="font-size:12px;fill:none;stroke:#000000;stroke-width:0.33246464;display:inline"
       id="path10262" />
    <path
       d="M 338.09522,337.16184 L 338.09522,274.8514"
       style="font-size:12px;fill:none;stroke:#000000;stroke-width:0.66492712;display:inline"
       id="path4107" />
    <path
       d="M 346.64289,337.16184 L 346.64289,274.8514"
       style="font-size:12px;fill:none;stroke:#000000;stroke-width:0.97892296;display:inline"
       id="path38898" />
    <path
       d="M 354.71191,337.16184 L 354.71191,274.8514"
       style="font-size:12px;fill:none;stroke:#000000;stroke-width:1.31138957;display:inline"
       id="path4111" />
    <path
       d="M 362.71097,337.16184 L 362.71097,274.8514"
       style="font-size:12px;fill:none;stroke:#000000;stroke-width:1.64385557;display:inline"
       id="path10268" />
    <path
       d="M 369.8385,337.16184 L 369.8385,274.8514"
       style="font-size:12px;fill:none;stroke:#000000;stroke-width:1.97631645;display:inline"
       id="path4115" />
    <path
       d="M 383.43209,333.80224 L 383.62039,277.08944 M 376.9876,334.54834 L 376.9876,275.2268"
       style="font-size:12px;fill:none;stroke:#000000;stroke-width:2.30878282;display:inline"
       id="path38903" />
    <path
       d="M 395.98204,331.25212 L 395.98204,279.00084 M 389.6237,332.74416 L 389.81191,277.1382"
       style="font-size:12px;fill:none;stroke:#000000;stroke-width:2.62277913;display:inline"
       id="path4119" />
    <path
       d="M 412.81932,328.26805 L 412.81932,282.36043 M 407.29474,329.01407 L 407.29474,280.8683 M 401.60336,330.50611 L 401.60336,280.49288"
       style="font-size:12px;fill:none;stroke:#000000;stroke-width:2.95524502;display:inline"
       id="path10274" />
    <path
       d="M 418.72048,327.89262 L 418.72048,283.48188"
       style="font-size:12px;fill:none;stroke:#000000;stroke-width:3.28771114;display:inline"
       id="path4123" />
    <path
       d="M 424.22346,325.65447 L 424.22346,284.2279"
       style="font-size:12px;fill:none;stroke:#000000;stroke-width:3.62017226;display:inline"
       id="path38908" />
    <path
       d="M 430.12454,324.53294 L 430.12454,286.09053"
       style="font-size:12px;fill:none;stroke:#000000;stroke-width:3.95263839;display:inline"
       id="path4127" />
    <path
       d="M 442.20644,321.17827 L 442.39484,290.57167 M 436.01492,322.67041 L 436.01492,288.33352"
       style="font-size:12px;fill:none;stroke:#000000;stroke-width:4.26663494;display:inline"
       id="path10280" />
    <path
       d="M 448.39806,318.56467 L 448.39806,291.68818"
       style="font-size:12px;fill:none;stroke:#000000;stroke-width:4.50674915;display:inline"
       id="path4131" />
    <path
       d="M 454.06785,316.38517 L 454.06785,294.00423"
       style="font-size:12px;fill:none;stroke:#000000;stroke-width:4.83921099;display:inline"
       id="path38913" />
    <path
       d="M 460.25946,313.4011 L 460.25946,295.87179"
       style="font-size:12px;fill:none;stroke:#000000;stroke-width:5.15320587;display:inline"
       id="path4135" />
    <path
       d="M 466.62319,311.90906 L 466.62319,298.85596"
       style="font-size:12px;fill:none;stroke:#000000;stroke-width:5.46722317;display:inline"
       id="path10286" />
    <path
       d="M 473.35842,308.92782 L 473.35842,302.58453"
       style="font-size:12px;fill:none;stroke:#000000;stroke-width:6.44612455;display:inline"
       id="path4139" />
    <path
       d="M 304.08715,333.80224 L 304.08715,276.71893 M 318.56827,335.66979 L 318.38007,275.2268 M 329.12248,336.4158 L 329.12248,274.8514"
       style="font-size:12px;fill:none;stroke:#000000;stroke-width:0.33246464;display:inline"
       id="path38918" />
    <path
       d="M 290.58301,260.5115 C 234.0005,261.29558 176.77384,261.37898 121.20409,277.10839 C 108.80307,282.30198 91.065068,285.1931 86.410038,303.58931 C 84.882852,318.95464 98.890518,325.47673 107.64878,329.69955 C 149.37097,346.31792 193.47589,347.73449 236.70527,350.33242 C 303.96012,352.12253 371.62346,352.81692 438.37967,340.40723 C 456.61711,335.7326 476.69796,332.84653 491.69511,317.09745 C 500.64996,305.45834 490.75641,289.18677 480.85716,285.83927 C 446.89796,268.54945 409.86199,266.7086 373.94513,263.18841 C 346.18655,261.17839 318.37998,260.53703 290.58301,260.5115 z M 290.73923,279.00283 C 436.07839,279.00286 476.76563,305.93675 476.76563,305.93675 C 476.76553,305.93674 442.75835,332.87067 290.73923,332.87067 C 138.23647,332.87067 104.74402,305.93675 104.74402,305.93675 C 104.74402,305.93674 144.91673,279.00283 290.73923,279.00283 z"
       style="fill:#eac102;fill-rule:evenodd;stroke:#000000;stroke-width:1.27850533px;stroke-linecap:butt;stroke-linejoin:miter;stroke-opacity:1;display:inline"
       id="path4143" />
    <path
       d="M 499.3459,276.7001 C 499.3459,276.7001 499.3822,275.4471 498.05985,273.38459 C 497.83564,273.03457 497.5776,272.6728 497.26854,272.27942 C 495.45929,269.96937 492.07527,266.91875 485.72758,263.65904 C 485.71853,263.65443 485.70359,263.66367 485.6946,263.65904 C 471.90194,256.58493 444.1724,248.41208 388.42051,243.94273 C 388.41003,243.94187 388.39807,243.94357 388.38759,243.94273 C 384.09711,243.59896 379.66155,243.26765 375.03298,242.97015 C 351.88947,241.48276 324.43348,240.62719 291.87195,240.62719 C 259.31225,240.62719 231.85363,241.48277 208.71086,242.97015 C 204.08224,243.26765 199.61381,243.59896 195.32327,243.94273 C 143.86101,248.06823 116.26676,255.36137 101.47867,262.02338 C 100.2461,262.57867 99.077358,263.11477 98.016318,263.65904 C 92.728238,266.3746 89.476068,268.97445 87.497588,271.08583 C 87.108368,271.50118 86.773258,271.90012 86.475358,272.27942 C 86.166248,272.6728 85.908198,273.03457 85.683938,273.38459 C 84.361588,275.4471 84.397998,276.7001 84.397998,276.7001"
       style="fill:none;fill-opacity:1;fill-rule:evenodd;stroke:#000000;stroke-width:1;stroke-linecap:butt;stroke-linejoin:miter;stroke-opacity:1"
       id="path8673" />
    <path
       d="M 126.48777,254.14851 C 129.43826,273.93662 130.91354,273.93662 130.91354,273.93662"
       style="fill:none;fill-rule:evenodd;stroke:#000000;stroke-width:1;stroke-linecap:butt;stroke-linejoin:miter;stroke-opacity:1"
       id="path8675" />
    <path
       d="M 189.40723,243.51213 L 192.01889,264.46285"
       style="fill:none;fill-rule:evenodd;stroke:#000000;stroke-width:1;stroke-linecap:butt;stroke-linejoin:miter;stroke-opacity:1"
       id="path8677" />
    <path
       d="M 253.82303,240.51747 L 255.28646,261.38651"
       style="fill:none;fill-rule:evenodd;stroke:#000000;stroke-width:1;stroke-linecap:butt;stroke-linejoin:miter;stroke-opacity:1"
       id="path8679" />
    <path
       d="M 321.87203,240.51747 L 321.14032,260.2482"
       style="fill:none;fill-rule:evenodd;stroke:#000000;stroke-width:1;stroke-linecap:butt;stroke-linejoin:miter;stroke-opacity:1"
       id="path8681" />
    <path
       d="M 384.0674,243.55297 L 382.60397,264.80144"
       style="fill:none;fill-rule:evenodd;stroke:#000000;stroke-width:1;stroke-linecap:butt;stroke-linejoin:miter;stroke-opacity:1"
       id="path8683" />
    <path
       d="M 446.15335,251.52114 L 440.66556,272.39018"
       style="fill:none;fill-rule:evenodd;stroke:#000000;stroke-width:1;stroke-linecap:butt;stroke-linejoin:miter;stroke-opacity:1"
       id="path8685" />
    <path
       d="M 84.066318,241.27635 L 95.407858,262.14538 L 118.09088,254.17721 L 115.16403,228.37549 L 94.676148,235.58479 L 84.066318,241.27635 z"
       style="fill:none;fill-rule:evenodd;stroke:#000000;stroke-width:1;stroke-linecap:butt;stroke-linejoin:miter;stroke-opacity:1"
       id="path8781" />
    <path
       d="M 109.31034,230.27267 L 115.16403,254.93608"
       style="fill:none;fill-rule:evenodd;stroke:#000000;stroke-width:1;stroke-linecap:butt;stroke-linejoin:miter;stroke-opacity:1"
       id="path8783" />
    <path
       d="M 86.993168,245.8296 L 110.77376,235.96423"
       style="fill:none;fill-rule:evenodd;stroke:#000000;stroke-width:1;stroke-linecap:butt;stroke-linejoin:miter;stroke-opacity:1"
       id="path8785" />
    <path
       d="M 89.920018,252.65946 L 112.60304,244.31185"
       style="fill:none;fill-rule:evenodd;stroke:#000000;stroke-width:1;stroke-linecap:butt;stroke-linejoin:miter;stroke-opacity:1"
       id="path8787" />
    <path
       d="M 93.944438,258.73045 L 114.06647,251.90058"
       style="fill:none;fill-rule:evenodd;stroke:#000000;stroke-width:1;stroke-linecap:butt;stroke-linejoin:miter;stroke-opacity:1"
       id="path8789" />
    <path
       d="M 140.72758,223.70352 L 147.44645,246.62333 L 171.25452,243.93428 L 173.78013,218.08699 L 152.27352,220.52777 L 140.72758,223.70352 z"
       style="fill:none;fill-rule:evenodd;stroke:#000000;stroke-width:1;stroke-linecap:butt;stroke-linejoin:miter;stroke-opacity:1"
       id="path8791" />
    <path
       d="M 167.66931,218.62559 L 168.2387,244.01835"
       style="fill:none;fill-rule:evenodd;stroke:#000000;stroke-width:1;stroke-linecap:butt;stroke-linejoin:miter;stroke-opacity:1"
       id="path8793" />
    <path
       d="M 142.63513,228.80572 L 167.91063,224.51073"
       style="fill:none;fill-rule:evenodd;stroke:#000000;stroke-width:1;stroke-linecap:butt;stroke-linejoin:miter;stroke-opacity:1"
       id="path8795" />
    <path
       d="M 144.0677,236.1306 L 167.95495,233.0711"
       style="fill:none;fill-rule:evenodd;stroke:#000000;stroke-width:1;stroke-linecap:butt;stroke-linejoin:miter;stroke-opacity:1"
       id="path8797" />
    <path
       d="M 146.7302,242.96089 L 167.80042,240.80846"
       style="fill:none;fill-rule:evenodd;stroke:#000000;stroke-width:1;stroke-linecap:butt;stroke-linejoin:miter;stroke-opacity:1"
       id="path8799" />
    <path
       d="M 201.6077,217.34522 L 206.83973,240.67826 L 230.76763,239.63974 L 234.94755,214.02432 L 213.33192,214.97408 L 201.6077,217.34522 z"
       style="fill:none;fill-rule:evenodd;stroke:#000000;stroke-width:1;stroke-linecap:butt;stroke-linejoin:miter;stroke-opacity:1"
       id="path8801" />
    <path
       d="M 229.21649,215.26519 L 228.8618,239.85812"
       style="fill:none;fill-rule:evenodd;stroke:#000000;stroke-width:1;stroke-linecap:butt;stroke-linejoin:miter;stroke-opacity:1"
       id="path8803" />
    <path
       d="M 203.18334,222.56786 L 228.67847,220.02834"
       style="fill:none;fill-rule:evenodd;stroke:#000000;stroke-width:1;stroke-linecap:butt;stroke-linejoin:miter;stroke-opacity:1"
       id="path8805" />
    <path
       d="M 204.14235,229.97542 L 228.17297,228.57277"
       style="fill:none;fill-rule:evenodd;stroke:#000000;stroke-width:1;stroke-linecap:butt;stroke-linejoin:miter;stroke-opacity:1"
       id="path8807" />
    <path
       d="M 206.36022,236.97446 L 229.35029,236.22155"
       style="fill:none;fill-rule:evenodd;stroke:#000000;stroke-width:1;stroke-linecap:butt;stroke-linejoin:miter;stroke-opacity:1"
       id="path8809" />
    <path
       d="M 268.18766,214.21525 L 273.92737,238.64606 L 301.15622,239.07633 L 307.16113,213.85418 L 285.53726,213.13429 L 268.18766,214.21525 z"
       style="fill:none;fill-rule:evenodd;stroke:#000000;stroke-width:1;stroke-linecap:butt;stroke-linejoin:miter;stroke-opacity:1"
       id="path8811" />
    <path
       d="M 301.03799,213.49626 L 298.15889,238.71975"
       style="fill:none;fill-rule:evenodd;stroke:#000000;stroke-width:1;stroke-linecap:butt;stroke-linejoin:miter;stroke-opacity:1"
       id="path8813" />
    <path
       d="M 274.87235,219.92438 L 300.47896,219.3581"
       style="fill:none;fill-rule:evenodd;stroke:#000000;stroke-width:1;stroke-linecap:butt;stroke-linejoin:miter;stroke-opacity:1"
       id="path8815" />
    <path
       d="M 275.29752,227.3854 L 299.36221,227.83989"
       style="fill:none;fill-rule:evenodd;stroke:#000000;stroke-width:1;stroke-linecap:butt;stroke-linejoin:miter;stroke-opacity:1"
       id="path8817" />
    <path
       d="M 277.00749,234.5361 L 298.16027,235.47785"
       style="fill:none;fill-rule:evenodd;stroke:#000000;stroke-width:1;stroke-linecap:butt;stroke-linejoin:miter;stroke-opacity:1"
       id="path8819" />
    <path
       d="M 273.96893,213.48712 L 276.84803,238.71061"
       style="fill:none;fill-rule:evenodd;stroke:#000000;stroke-width:1;stroke-linecap:butt;stroke-linejoin:miter;stroke-opacity:1"
       id="path8821" />
    <path
       d="M 493.89837,239.9146 L 482.55683,260.78363 L 459.87381,252.81546 L 462.80066,227.01374 L 483.28854,234.22305 L 493.89837,239.9146 z"
       style="fill:none;fill-rule:evenodd;stroke:#000000;stroke-width:1;stroke-linecap:butt;stroke-linejoin:miter;stroke-opacity:1"
       id="path8823" />
    <path
       d="M 468.65435,228.91092 L 462.80066,253.57433"
       style="fill:none;fill-rule:evenodd;stroke:#000000;stroke-width:1;stroke-linecap:butt;stroke-linejoin:miter;stroke-opacity:1"
       id="path8825" />
    <path
       d="M 490.97152,244.46785 L 467.19093,234.60248"
       style="fill:none;fill-rule:evenodd;stroke:#000000;stroke-width:1;stroke-linecap:butt;stroke-linejoin:miter;stroke-opacity:1"
       id="path8827" />
    <path
       d="M 488.04467,251.29771 L 465.36165,242.9501"
       style="fill:none;fill-rule:evenodd;stroke:#000000;stroke-width:1;stroke-linecap:butt;stroke-linejoin:miter;stroke-opacity:1"
       id="path8829" />
    <path
       d="M 484.02025,257.3687 L 463.89822,250.53883"
       style="fill:none;fill-rule:evenodd;stroke:#000000;stroke-width:1;stroke-linecap:butt;stroke-linejoin:miter;stroke-opacity:1"
       id="path8831" />
    <path
       d="M 437.23711,222.34177 L 430.51824,245.26158 L 406.71017,242.57253 L 404.18456,216.72525 L 425.69117,219.16602 L 437.23711,222.34177 z"
       style="fill:none;fill-rule:evenodd;stroke:#000000;stroke-width:1;stroke-linecap:butt;stroke-linejoin:miter;stroke-opacity:1"
       id="path8833" />
    <path
       d="M 410.29538,217.26384 L 409.72599,242.6566"
       style="fill:none;fill-rule:evenodd;stroke:#000000;stroke-width:1;stroke-linecap:butt;stroke-linejoin:miter;stroke-opacity:1"
       id="path8835" />
    <path
       d="M 435.32956,227.44397 L 410.05406,223.14898"
       style="fill:none;fill-rule:evenodd;stroke:#000000;stroke-width:1;stroke-linecap:butt;stroke-linejoin:miter;stroke-opacity:1"
       id="path8837" />
    <path
       d="M 433.89699,234.76885 L 410.00974,231.70935"
       style="fill:none;fill-rule:evenodd;stroke:#000000;stroke-width:1;stroke-linecap:butt;stroke-linejoin:miter;stroke-opacity:1"
       id="path8839" />
    <path
       d="M 431.23449,241.59914 L 410.16427,239.44671"
       style="fill:none;fill-rule:evenodd;stroke:#000000;stroke-width:1;stroke-linecap:butt;stroke-linejoin:miter;stroke-opacity:1"
       id="path8841" />
    <path
       d="M 376.35699,215.98347 L 371.12497,239.31651 L 347.19706,238.27799 L 343.01714,212.66257 L 364.63277,213.61233 L 376.35699,215.98347 z"
       style="fill:none;fill-rule:evenodd;stroke:#000000;stroke-width:1;stroke-linecap:butt;stroke-linejoin:miter;stroke-opacity:1"
       id="path8843" />
    <path
       d="M 348.7482,213.90344 L 349.10289,238.49637"
       style="fill:none;fill-rule:evenodd;stroke:#000000;stroke-width:1;stroke-linecap:butt;stroke-linejoin:miter;stroke-opacity:1"
       id="path8845" />
    <path
       d="M 374.78135,221.20611 L 349.28622,218.66659"
       style="fill:none;fill-rule:evenodd;stroke:#000000;stroke-width:1;stroke-linecap:butt;stroke-linejoin:miter;stroke-opacity:1"
       id="path8847" />
    <path
       d="M 373.82234,228.61367 L 349.79172,227.21102"
       style="fill:none;fill-rule:evenodd;stroke:#000000;stroke-width:1;stroke-linecap:butt;stroke-linejoin:miter;stroke-opacity:1"
       id="path8849" />
    <path
       d="M 371.60447,235.61272 L 348.6144,234.8598"
       style="fill:none;fill-rule:evenodd;stroke:#000000;stroke-width:1;stroke-linecap:butt;stroke-linejoin:miter;stroke-opacity:1"
       id="path8851" />
  </g>
  <g
     id="g2454">
    <rect
       style="opacity:1;fill:#000000;fill-opacity:1;stroke:none;stroke-width:1;stroke-linecap:round;stroke-linejoin:round;stroke-miterlimit:4;stroke-dasharray:none;stroke-opacity:1"
       id="rect5186"
       width="111.111"
       height="434.33301"
       x="235.04782"
       y="394.96875" />
    <g
       transform="matrix(0.8340016,0,0,0.8340016,45.620021,73.044326)"
       id="g5204">
      <path
         id="path3133"
         style="fill:#e3e4e5;fill-opacity:1;stroke:#000000;stroke-width:1.19903851;stroke-miterlimit:4;stroke-dasharray:none;stroke-opacity:1"
         d="M 264.81249,411.51793 L 268.87777,425.2444 L 283.20594,425.0101 L 271.39337,433.11392 L 276.04409,446.65365 L 264.67824,437.93563 L 253.22438,446.53794 L 258.01247,433.04608 L 246.28286,424.82288 L 260.60792,425.20247 L 264.81249,411.51793 z" />
      <use
         x="0"
         y="0"
         xlink:href="#path3133"
         id="use5196"
         transform="translate(58,0)"
         width="581.48883"
         height="910.8512" />
      <use
         x="0"
         y="0"
         xlink:href="#use5196"
         id="use5198"
         transform="translate(-29,42)"
         width="581.48883"
         height="910.8512" />
      <use
         x="0"
         y="0"
         xlink:href="#use5198"
         id="use5200"
         transform="translate(-29,42)"
         width="581.48883"
         height="910.8512" />
      <use
         x="0"
         y="0"
         xlink:href="#use5200"
         id="use5202"
         transform="translate(58,0)"
         width="581.48883"
         height="910.8512" />
    </g>
  </g>
  <g
     id="g2450">
    <rect
       y="394.96875"
       x="123.51916"
       height="434.33301"
       width="111.611"
       id="rect5184"
       style="opacity:1;fill:#0071bc;fill-opacity:1;stroke:none;stroke-width:1;stroke-linecap:round;stroke-linejoin:round;stroke-miterlimit:4;stroke-dasharray:none;stroke-opacity:1" />
    <path
       id="path5211"
       d="M 189.01686,426.43063 C 167.27047,426.43063 149.61826,444.11996 149.61826,465.92528 C 149.61826,487.73059 167.27047,505.43063 189.01686,505.43063 C 196.31902,505.43063 203.15525,503.42692 209.02037,499.95061 C 191.28158,498.80242 177.23251,484.00061 177.23251,465.92528 C 177.2325,447.84621 191.28705,433.04272 209.03105,431.89994 C 203.16468,428.42162 196.3213,426.43063 189.01686,426.43063 z"
       style="opacity:1;fill:#e3e4e5;fill-opacity:1;stroke:#000000;stroke-width:0.99999982;stroke-linecap:round;stroke-linejoin:round;stroke-miterlimit:4;stroke-dasharray:none;stroke-opacity:1" />
  </g>
  <rect
     style="fill:#eac102;fill-opacity:1;stroke:none;stroke-width:1;stroke-linecap:round;stroke-linejoin:round;stroke-miterlimit:4;stroke-dasharray:none;stroke-opacity:1"
     id="rect5188"
     width="111.611"
     height="434.33301"
     x="346.07648"
     y="394.96875" />
  <path
     sodipodi:type="star"
     style="fill:#ed1c24;fill-opacity:1;stroke:#000000;stroke-width:3.31235789999999990;stroke-linecap:round;stroke-linejoin:round;stroke-miterlimit:4;stroke-dasharray:none;stroke-opacity:1"
     id="path5218"
     sodipodi:sides="24"
     sodipodi:cx="-147.86545"
     sodipodi:cy="329.24707"
     sodipodi:r1="130.85141"
     sodipodi:r2="65.425705"
     sodipodi:arg1="1.0329608"
     sodipodi:arg2="1.1638605"
     inkscape:flatsided="false"
     inkscape:rounded="0"
     inkscape:randomized="0"
     d="M -80.83311,441.62481 L -121.97013,389.32998 L -112.20268,455.14488 L -138.4031,393.9849 L -146.00261,460.08522 L -155.4809,394.22805 L -179.92949,456.10916 L -172.03973,390.04285 L -211.67126,443.48765 L -186.95111,381.71452 L -239.06477,423.08084 L -199.19888,369.81062 L -260.24319,396.27941 L -207.94835,355.14238 L -273.76326,364.90984 L -212.60328,338.70942 L -278.7036,331.10991 L -212.84643,321.63162 L -274.72753,297.18303 L -208.66123,305.07279 L -262.10603,265.44126 L -200.3329,290.1614 L -241.69921,238.04775 L -188.429,277.91364 L -214.89779,216.86933 L -173.76076,269.16416 L -183.52821,203.34926 L -157.3278,264.50924 L -149.72828,198.40892 L -140.24999,264.26609 L -115.8014,202.38499 L -123.69117,268.45129 L -84.059637,215.00649 L -108.77978,276.77962 L -56.666129,235.4133 L -96.532018,288.68352 L -35.487705,262.21473 L -87.782542,303.35176 L -21.967638,293.5843 L -83.127617,319.78472 L -17.027299,327.38423 L -82.884468,336.86252 L -21.003363,361.31111 L -87.069666,353.42135 L -33.624869,393.05288 L -95.397995,368.33274 L -54.031681,420.44639 L -107.3019,380.5805 L -80.83311,441.62481 z"
     transform="matrix(0.3018997,0,0,-0.3018997,446.52251,565.33022)" />
  <g
     transform="translate(-5.6031968,263.83087)"
     id="g3475"
     style="fill:#e3e4e5;fill-opacity:1;stroke:#000000">
    <path
       d="M 104.16015,351.54779 L 104.16015,431.82904 C 107.14695,431.82902 109.98475,432.17733 112.75385,432.76654 C 115.52295,433.35582 118.23405,434.19391 120.84765,435.20404 C 123.46115,436.21412 125.98355,437.41013 128.50385,438.67279 C 131.02415,439.9354 133.51465,441.26346 136.00385,442.61029 C 138.49315,443.95714 140.98355,445.37889 143.50385,446.64154 C 146.02415,447.9042 148.57775,449.06896 151.19135,450.07904 C 153.80495,451.08917 156.45345,451.92732 159.22265,452.51654 C 161.99165,453.10575 164.89205,453.45404 167.87886,453.45404 C 170.86568,453.45406 173.70349,453.10578 176.47261,452.51654 C 179.24174,451.92729 181.95275,451.08916 184.56636,450.07904 C 187.17998,449.06897 189.70231,447.90418 192.22261,446.64154 C 193.69118,445.90582 195.14228,445.07404 196.59761,444.29779 C 196.72447,444.52409 196.84526,444.75934 196.97261,444.98529 C 198.3258,444.19634 199.7232,443.41729 201.06636,442.61029 C 203.30807,441.26346 205.52816,439.93543 207.81636,438.67279 C 209.53256,437.72575 211.27756,436.83331 213.06636,436.01654 C 213.66268,435.74424 214.30312,435.45655 214.91011,435.20404 C 214.92053,435.19969 214.93099,435.20834 214.94136,435.20404 C 217.55496,434.19387 220.2035,433.35582 222.97261,432.76654 C 225.63529,432.19998 228.3911,431.85384 231.25386,431.82904 C 234.12732,431.85175 236.86328,432.19803 239.53511,432.76654 C 242.30424,433.35582 245.01528,434.19391 247.62886,435.20404 C 250.24246,436.21412 252.76482,437.41013 255.28511,438.67279 C 257.8054,439.9354 260.29591,441.26346 262.78511,442.61029 C 265.27435,443.95709 267.79605,445.31637 270.31636,446.57904 C 272.83668,447.84166 275.35901,449.03768 277.97261,450.04779 C 280.58617,451.05781 283.29728,451.89606 286.06636,452.48529 C 288.34552,452.97025 290.67512,453.26438 293.09761,453.36029 C 293.6184,453.38087 294.16289,453.42279 294.69136,453.42279 C 294.90839,453.42632 295.12921,453.45404 295.34761,453.45404 C 298.33436,453.45406 301.17223,453.10578 303.94136,452.51654 C 306.71044,451.92729 309.39026,451.08916 312.00386,450.07904 C 314.61747,449.06897 317.13981,447.90418 319.66011,446.64154 C 322.18043,445.37891 324.70215,443.95714 327.19136,442.61029 C 329.68047,441.26346 332.17106,439.93543 334.69136,438.67279 C 337.2117,437.41011 339.73402,436.21414 342.34761,435.20404 C 344.96124,434.19387 347.64101,433.35582 350.41011,432.76654 C 353.07286,432.19998 355.8286,431.85384 358.69136,431.82904 C 361.55413,431.8538 364.30988,432.19998 366.97261,432.76654 C 369.74165,433.35582 372.45275,434.19391 375.06636,435.20404 C 377.67995,436.21412 380.20229,437.41013 382.72261,438.67279 C 385.24289,439.9354 387.76465,441.26346 390.25386,442.61029 C 391.22263,443.13445 392.18841,443.65363 393.16011,444.17279 C 394.42163,444.98778 395.69446,445.87017 396.97261,446.64154 C 397.87135,447.18392 398.77295,447.54314 399.69136,448.04779 C 399.76494,447.91546 399.86568,447.80316 399.94136,447.67279 C 401.73959,448.52745 403.55847,449.33215 405.41011,450.04779 C 408.02367,451.05781 410.73477,451.89606 413.50386,452.48529 C 416.27296,453.07452 419.11081,453.42279 422.09761,453.42279 C 425.08441,453.42274 427.95349,453.07454 430.72261,452.48529 C 433.49166,451.89605 436.17151,451.05788 438.78511,450.04779 C 441.39872,449.03762 443.95231,447.84166 446.47261,446.57904 C 448.9929,445.31634 451.45216,443.9571 453.94136,442.61029 C 456.43051,441.26346 458.95229,439.93543 461.47261,438.67279 C 463.99291,437.41011 466.51527,436.21414 469.12886,435.20404 C 471.74247,434.19387 474.42223,433.35582 477.19136,432.76654 C 479.96048,432.17733 482.79829,431.82904 485.78511,431.82904 L 485.78511,351.54779 C 482.7983,351.54776 479.96045,351.89606 477.19136,352.48529 C 474.42226,353.07452 471.74248,353.91267 469.12886,354.92279 C 466.51526,355.93285 463.99292,357.1289 461.47261,358.39154 C 458.95228,359.65416 456.43055,360.98224 453.94136,362.32904 C 451.45212,363.67588 448.99291,365.03514 446.47261,366.29779 C 443.9523,367.5604 441.39872,368.75642 438.78511,369.76654 C 436.1715,370.77662 433.49169,371.61482 430.72261,372.20404 C 427.95346,372.79325 425.08441,373.14154 422.09761,373.14154 C 419.30993,373.1415 416.60156,372.79327 413.94136,372.20404 C 411.28116,371.61479 408.64264,370.77666 406.06636,369.76654 C 400.91384,367.7463 395.92559,365.02268 390.84761,362.32904 C 388.30858,360.98226 385.71452,359.6542 383.12886,358.39154 C 380.54325,357.12887 377.96092,355.93286 375.28511,354.92279 C 374.61614,354.67025 373.92852,354.4342 373.25386,354.20404 C 371.396,353.51349 369.4682,352.92721 367.47261,352.48529 C 364.81181,351.89607 362.0219,351.54779 359.03511,351.54779 C 358.92037,351.54776 358.80576,351.54682 358.69136,351.54779 C 358.57687,351.54679 358.46238,351.54779 358.34761,351.54779 C 355.36086,351.54776 352.52296,351.89606 349.75386,352.48529 C 346.98471,353.07452 344.30496,353.91267 341.69136,354.92279 C 339.07776,355.93285 336.55543,357.1289 334.03511,358.39154 C 331.51479,359.65416 329.02431,360.98224 326.53511,362.32904 C 324.04593,363.67588 321.52415,365.03514 319.00386,366.29779 C 316.48352,367.5604 313.96119,368.75642 311.34761,369.76654 C 308.73403,370.77662 306.05424,371.61482 303.28511,372.20404 C 301.20824,372.64593 299.07332,372.95673 296.87886,373.07904 C 296.36443,373.10772 295.86943,373.13283 295.34761,373.14154 C 294.60088,373.1415 293.82909,373.1198 293.09761,373.07904 C 290.90317,372.95674 288.79943,372.64597 286.72261,372.20404 C 283.9535,371.61479 281.27372,370.77666 278.66011,369.76654 C 276.04648,368.75639 273.46168,367.56044 270.94136,366.29779 C 268.42108,365.0351 265.96181,363.67587 263.47261,362.32904 C 260.9834,360.98226 258.46168,359.6542 255.94136,358.39154 C 253.42107,357.12887 250.89869,355.93286 248.28511,354.92279 C 245.6715,353.91266 242.96048,353.07451 240.19136,352.48529 C 237.42223,351.89607 234.58441,351.54779 231.59761,351.54779 C 231.48283,351.54776 231.36824,351.54682 231.25386,351.54779 C 231.14929,351.54695 231.04628,351.54779 230.94136,351.54779 C 227.95462,351.54776 225.16465,351.89606 222.50386,352.48529 C 219.85444,353.072 217.3597,353.91844 214.94136,354.92279 C 214.931,354.92708 214.9205,354.91845 214.91011,354.92279 C 214.30316,355.1753 213.66265,355.46301 213.06636,355.73529 C 211.10175,356.56116 209.1707,357.43123 207.25386,358.39154 C 204.73355,359.65416 202.24307,360.98224 199.75386,362.32904 C 197.26464,363.67588 194.74292,365.03514 192.22261,366.29779 C 189.70232,367.5604 187.17997,368.75642 184.56636,369.76654 C 181.95276,370.77662 179.2417,371.61482 176.47261,372.20404 C 173.70354,372.79325 170.86567,373.14154 167.87886,373.14154 C 165.09115,373.1415 162.35155,372.79327 159.69135,372.20404 C 157.03115,371.61479 154.42385,370.77666 151.84765,369.76654 C 146.69505,367.7463 141.67565,365.02268 136.59765,362.32904 C 134.05865,360.98226 131.49575,359.6542 128.91015,358.39154 C 126.32445,357.12887 123.71095,355.93286 121.03515,354.92279 C 118.35925,353.91266 115.62595,353.07451 112.81635,352.48529 C 110.00685,351.89607 107.14695,351.54779 104.16015,351.54779 z"
       style="fill:#e3e4e5;fill-opacity:1;fill-rule:evenodd;stroke:#000000;stroke-width:1;stroke-linecap:butt;stroke-linejoin:miter;marker:none;stroke-miterlimit:4;stroke-dasharray:none;stroke-dashoffset:0;stroke-opacity:1;visibility:visible;display:inline;overflow:visible"
       id="path27552"
       sodipodi:nodetypes="ccsssssssssssccsssssscssssssssssssssssscsssscsccssssssssssccssssssssssssscssssssssssssssssssssssssssscssssssssssssc" />
  </g>
  <path
     style="fill:#ed1c24;fill-opacity:1;fill-rule:evenodd;stroke:#000000;stroke-width:1;stroke-linecap:butt;stroke-linejoin:miter;marker:none;stroke-miterlimit:4;stroke-dasharray:none;stroke-dashoffset:0;stroke-opacity:1;visibility:visible;display:inline;overflow:visible"
     d="M 42.5625,674.6875 C 46.394101,782.6828 128.97723,881.31777 234.46875,904.125 C 251.06508,908.17067 268.02069,910.27417 284.96875,910.59375 C 305.85687,911.47035 326.59143,908.49909 347,904.125 C 452.49153,881.31777 535.10588,782.6828 538.9375,674.6875 C 538.57956,554.50498 539.96511,433.14113 538.875,313.625 C 373.46737,313.62498 208.03258,313.625 42.625,313.625 L 42.5625,674.6875 z M 124.34375,395.46875 C 235.28098,395.46875 346.21899,395.46874 457.15625,395.46875 L 457.1875,657.5625 C 454.61767,735.95104 399.22088,807.50782 328.46875,824.0625 C 314.81182,827.66545 300.84409,829.15669 286.90625,828.71875 C 275.49019,828.78577 264.11975,826.70911 253,824.0625 C 182.24788,807.50784 126.85107,735.95105 124.28125,657.5625 C 124.55476,570.32702 123.52119,482.20429 124.34375,395.46875 z"
     id="path5042"
     sodipodi:nodetypes="cccccccccccccccc" />
  <g
     id="g2436">
    <path
       sodipodi:nodetypes="cscscsscccccccccccsscscssccccscccccccccccccc"
       id="path5190"
       d="M 71.0625,336.71875 C 68.343464,336.74477 65.565176,337.88545 63.4375,340.03125 C 61.00587,342.48359 59.365819,346.11071 58.65625,350.78125 C 58.371478,352.69699 59.709262,354.49647 61.625,354.78125 C 63.540738,355.06603 65.308978,353.72824 65.59375,351.8125 C 66.142099,348.20315 67.311255,346.07307 68.40625,344.96875 C 69.501245,343.86443 70.457673,343.63986 71.46875,343.75 C 73.490904,343.97029 76.230899,346.23213 76.28125,351.125 L 76.34375,666.25 L 76.34375,666.3125 L 76.34375,666.375 C 79.658612,761.46826 150.83801,848.02387 242.1875,868.125 C 256.55645,871.69006 271.12612,873.53124 285.78125,873.8125 C 303.97163,874.58843 321.83846,871.94491 339.34375,868.125 C 430.69326,848.02389 501.87262,761.46826 505.1875,666.375 L 505.1875,666.3125 L 505.1875,666.25 L 505.65625,351.125 C 505.7066,346.23213 508.44659,343.97029 510.46875,343.75 C 511.47982,343.63986 512.43628,343.86443 513.53125,344.96875 C 514.62624,346.07307 515.79543,348.20315 516.34375,351.8125 C 516.62852,353.72824 518.42803,355.06603 520.34375,354.78125 C 522.25949,354.49647 523.56605,352.69699 523.28125,350.78125 C 522.57168,346.11071 520.93166,342.48359 518.5,340.03125 C 516.06837,337.57891 512.79165,336.4465 509.71875,336.78125 C 503.57293,337.45075 498.73521,343.35824 498.65625,351.03125 L 498.53125,358.4375 C 360.16146,358.4375 221.77604,358.4375 83.40625,358.4375 L 83.28125,351.03125 C 83.202289,343.35824 78.364563,337.45075 72.21875,336.78125 C 71.834637,336.73941 71.450934,336.71503 71.0625,336.71875 z M 83.375,365.4375 C 221.7341,365.4375 360.10964,365.4375 498.46875,365.4375 L 498.1875,666.25 C 494.98948,757.99086 425.8063,841.92543 337.84375,861.28125 C 320.65704,865.03164 303.31811,867.55122 286,866.8125 L 285.96875,866.8125 L 285.9375,866.8125 C 271.78471,866.54088 257.62234,864.74659 243.78125,861.3125 L 243.75,861.3125 L 243.71875,861.28125 C 155.7961,841.93418 86.600125,757.94227 83.34375,666.25 L 83.34375,666.125 L 83.375,365.4375 z"
       style="fill:#e3e4e5;fill-opacity:1;fill-rule:evenodd;stroke:#000000;stroke-width:1;stroke-linecap:butt;stroke-linejoin:miter;marker:none;stroke-miterlimit:4;stroke-dasharray:none;stroke-dashoffset:0;stroke-opacity:1;visibility:visible;display:inline;overflow:visible" />
    <g
       transform="translate(10.139535,-4)"
       id="g5263">
      <path
         style="fill:#e3e4e5;fill-opacity:1;fill-rule:evenodd;stroke:#000000;stroke-width:1;stroke-linecap:round;stroke-linejoin:miter;stroke-miterlimit:4;stroke-dasharray:none;stroke-opacity:1"
         d="M 299.77948,348.31714 C 297.29209,348.34407 295.31166,349.59268 295.35622,351.10586 L 295.35622,380.99898 C 295.33325,381.98705 296.18658,382.90609 297.58947,383.40421 C 298.99236,383.90232 300.72744,383.90232 302.13033,383.40421 C 303.53321,382.90609 304.38654,381.98705 304.36358,380.99898 L 304.36358,351.10586 C 304.38548,350.36224 303.90955,349.64515 303.04507,349.11925 C 302.18059,348.59334 301.00184,348.30382 299.77948,348.31714 z"
         id="path5237" />
      <use
         x="0"
         y="0"
         xlink:href="#path5237"
         id="use5241"
         transform="translate(-9.6275024,0)"
         width="581.48883"
         height="910.8512"
         style="fill:#e3e4e5;fill-opacity:1;stroke:#000000;stroke-width:0.99638093;stroke-miterlimit:4;stroke-dasharray:none;stroke-opacity:1" />
      <use
         x="0"
         y="0"
         xlink:href="#use5241"
         id="use5243"
         transform="translate(-9.6275029,0)"
         width="581.48883"
         height="910.8512"
         style="fill:#e3e4e5;fill-opacity:1;stroke:#000000;stroke-width:0.99638093;stroke-miterlimit:4;stroke-dasharray:none;stroke-opacity:1" />
      <use
         x="0"
         y="0"
         xlink:href="#use5243"
         id="use5245"
         transform="translate(-9.6275025,0)"
         width="581.48883"
         height="910.8512"
         style="fill:#e3e4e5;fill-opacity:1;stroke:#000000;stroke-width:0.99638093;stroke-miterlimit:4;stroke-dasharray:none;stroke-opacity:1" />
      <use
         x="0"
         y="0"
         xlink:href="#use5245"
         id="use5247"
         transform="translate(-9.627502,0)"
         width="581.48883"
         height="910.8512"
         style="fill:#e3e4e5;fill-opacity:1;stroke:#000000;stroke-width:0.99638093;stroke-miterlimit:4;stroke-dasharray:none;stroke-opacity:1" />
      <path
         style="fill:#e3e4e5;fill-opacity:1;fill-rule:evenodd;stroke:#000000;stroke-width:1;stroke-linecap:round;stroke-linejoin:miter;stroke-miterlimit:4;stroke-dasharray:none;stroke-opacity:1"
         d="M 251.1998,351.05693 C 248.90322,351.22015 247.18285,352.41474 247.21888,353.82119 L 247.21888,378.28364 C 247.19591,379.27172 248.04924,380.19076 249.45212,380.68888 C 250.85502,381.18699 252.59009,381.18699 253.99298,380.68888 C 255.39587,380.19076 256.2492,379.27172 256.22623,378.28364 L 256.22623,353.82119 C 256.24646,353.03173 255.70591,352.27533 254.74313,351.74585 C 253.78035,351.21637 252.48891,350.96528 251.1998,351.05693 z"
         id="use5249" />
      <use
         x="0"
         y="0"
         xlink:href="#use5249"
         id="use5253"
         transform="translate(57.764659,0)"
         width="581.48883"
         height="910.8512"
         style="fill:#e3e4e5;fill-opacity:1;stroke:#000000;stroke-width:0.99638093;stroke-miterlimit:4;stroke-dasharray:none;stroke-opacity:1" />
    </g>
    <g
       transform="translate(1.7253753,0)"
       id="g5276">
      <use
         x="0"
         y="0"
         xlink:href="#g5263"
         id="use5272"
         transform="matrix(0.7071068,0.7071068,-0.7071068,0.7071068,183.43998,334.24941)"
         width="581.48883"
         height="910.8512" />
      <use
         height="910.8512"
         width="581.48883"
         transform="matrix(-0.7071068,0.7071068,0.7071068,0.7071068,394.5981,334.24941)"
         id="use5274"
         xlink:href="#g5263"
         y="0"
         x="0" />
    </g>
  </g>
  <path
     id="path5040"
     d="M 42.244406,313.63393 L 42.555672,674.7002 C 46.387273,782.6955 128.99138,881.30849 234.4829,904.11572 C 251.07922,908.16139 268.02235,910.27434 284.97041,910.59392 L 285.00153,910.53163 C 305.78288,911.13498 326.64342,909.07947 347.00592,904.11572 C 452.49745,881.30849 535.10153,782.6955 538.93315,674.7002 L 539.24442,313.63393 C 539.11992,313.63393 538.9954,313.63393 538.8709,313.63393 C 373.46328,313.63392 208.02551,313.63393 42.617926,313.63393 C 42.493427,313.63393 42.368904,313.63393 42.244406,313.63393 z"
     style="fill:none;fill-opacity:1;fill-rule:evenodd;stroke:#000000;stroke-width:3.00000024;stroke-linecap:butt;stroke-linejoin:miter;marker:none;stroke-miterlimit:4;stroke-dasharray:none;stroke-dashoffset:0;stroke-opacity:1;visibility:visible;display:inline;overflow:visible" />
</svg>
