<?xml version="1.0" encoding="UTF-8" standalone="no"?>
<!-- Created with Inkscape (http://www.inkscape.org/) -->

<svg
   xmlns:svg="http://www.w3.org/2000/svg"
   xmlns="http://www.w3.org/2000/svg"
   xmlns:xlink="http://www.w3.org/1999/xlink"
   version="1.0"
   width="425.51788"
   height="500"
   id="svg2">
  <defs
     id="defs5" />
  <g
     id="g4034">
    <g
       transform="matrix(1.7311082,0,0,1.7311082,-14.956827,-11.522624)"
       id="g9358">
      <path
         d="m 19.64599,190.97731 a 6.396369,6.396369 0 1 1 -12.7927376,0 6.396369,6.396369 0 1 1 12.7927376,0 z"
         transform="translate(8,8)"
         id="path3197"
         style="fill:#008f4c;fill-opacity:1;stroke:#000000;stroke-width:0.57766461;stroke-miterlimit:4;stroke-opacity:1;stroke-dasharray:none" />
      <path
         d="m 19.64599,190.97731 a 6.396369,6.396369 0 1 1 -12.7927376,0 6.396369,6.396369 0 1 1 12.7927376,0 z"
         transform="translate(229.13162,8)"
         id="path3199"
         style="fill:#008f4c;fill-opacity:1;stroke:#000000;stroke-width:0.57766461;stroke-miterlimit:4;stroke-opacity:1;stroke-dasharray:none" />
    </g>
    <path
       d="m 59.959251,488.26092 4.331151,-0.37868 c 0.205111,1.73562 0.682405,3.15961 1.431883,4.27197 0.749462,1.11238 1.913113,2.01174 3.490956,2.69809 1.577819,0.68637 3.35288,1.02954 5.325185,1.02954 1.751378,0 3.297652,-0.26034 4.63883,-0.78102 1.341134,-0.52068 2.339113,-1.23466 2.993938,-2.14192 0.654776,-0.90724 0.982175,-1.89733 0.982201,-2.97027 -2.6e-5,-1.08869 -0.315591,-2.03933 -0.9467,-2.85193 -0.631157,-0.81257 -1.672526,-1.49499 -3.12411,-2.04724 -0.930942,-0.36288 -2.990012,-0.92696 -6.177216,-1.69221 -3.187235,-0.76524 -5.419866,-1.4871 -6.697901,-2.16559 -1.656731,-0.86778 -2.891384,-1.94465 -3.703962,-3.23061 -0.812588,-1.28592 -1.218881,-2.72568 -1.218877,-4.31932 -4e-6,-1.75136 0.497015,-3.38837 1.491054,-4.911 0.994028,-1.52258 2.445633,-2.67833 4.354819,-3.46729 1.909166,-0.78888 4.031349,-1.18335 6.366555,-1.18338 2.57185,3e-5 4.839983,0.41422 6.804405,1.24255 1.964378,0.82839 3.475151,2.04726 4.532325,3.65662 1.05712,1.60943 1.62514,3.43182 1.70406,5.46719 l -4.402155,0.33135 c -0.236698,-2.19316 -1.037448,-3.84988 -2.40225,-4.97017 -1.364846,-1.12023 -3.380526,-1.68037 -6.047045,-1.6804 -2.776999,3e-5 -4.800567,0.50889 -6.070713,1.52656 -1.270164,1.01773 -1.90524,2.24448 -1.905233,3.6803 -7e-6,1.2465 0.449674,2.2721 1.349047,3.07677 0.883577,0.80472 3.191155,1.62913 6.922742,2.47325 3.731556,0.84416 6.291588,1.5818 7.680103,2.21291 2.019601,0.93094 3.510651,2.11038 4.473156,3.5383 0.962449,1.42794 1.443687,3.07284 1.443718,4.93466 -3.1e-5,1.84607 -0.528604,3.58563 -1.585723,5.21869 -1.057175,1.63305 -2.575838,2.90322 -4.555992,3.81046 -1.980203,0.90726 -4.208889,1.36089 -6.686068,1.36089 -3.139902,0 -5.770935,-0.45758 -7.893109,-1.37271 -2.122192,-0.91515 -3.786805,-2.2918 -4.993842,-4.12999 -1.207045,-1.83816 -1.842121,-3.91697 -1.905232,-6.23637 l 0,0 z m 30.128719,11.14738 13.3248,-34.69655 4.94651,0 14.20049,34.69655 -5.23051,0 -4.04714,-10.50836 -14.508179,0 -3.810465,10.50836 -4.875506,0 z m 10.01135,-14.24783 11.76275,0 -3.62113,-9.609 c -1.1045,-2.91896 -1.92497,-5.31728 -2.46142,-7.19492 -0.44181,2.22477 -1.06505,4.43373 -1.86973,6.62689 l -3.81047,10.17703 z m 26.12892,14.24783 0,-34.69655 4.70983,0 18.22397,27.24129 0,-27.24129 4.40215,0 0,34.69655 -4.70983,0 -18.22397,-27.26495 0,27.26495 -4.40215,0 z m 43.90321,0 0,-30.60208 -11.43141,0 0,-4.09447 27.50163,0 0,4.09447 -11.47874,0 0,30.60208 -4.59148,0 z m 16.99325,0 13.3248,-34.69655 4.94651,0 14.20049,34.69655 -5.23051,0 -4.04714,-10.50836 -14.50818,0 -3.81046,10.50836 -4.87551,0 z m 10.01134,-14.24783 11.76276,0 -3.62113,-9.609 c -1.1045,-2.91896 -1.92498,-5.31728 -2.46141,-7.19492 -0.44182,2.22477 -1.06507,4.43373 -1.86974,6.62689 l -3.81048,10.17703 z m 64.37559,2.08273 4.5915,1.15972 c -0.96251,3.77103 -2.69417,6.64662 -5.19502,8.6268 -2.50088,1.98018 -5.55793,2.97027 -9.17115,2.97027 -3.73947,0 -6.78075,-0.7613 -9.12382,-2.28392 -2.34309,-1.52261 -4.12603,-3.72763 -5.34885,-6.61506 -1.22282,-2.88742 -1.83423,-5.98787 -1.83423,-9.30133 0,-3.61321 0.6903,-6.76493 2.07091,-9.45516 1.38059,-2.69018 3.34498,-4.73347 5.89319,-6.12989 2.54819,-1.39635 5.3528,-2.09454 8.41381,-2.09457 3.4712,3e-5 6.3902,0.88362 8.75697,2.65076 2.36672,1.7672 4.01554,4.25229 4.9465,7.45526 l -4.52049,1.06504 c -0.80473,-2.52451 -1.97231,-4.36268 -3.50278,-5.51453 -1.53053,-1.15179 -3.45548,-1.7277 -5.77487,-1.72773 -2.66657,3e-5 -4.89525,0.63906 -6.68608,1.91708 -1.79085,1.27806 -3.04916,2.99395 -3.77496,5.14768 -0.72582,2.15375 -1.08871,4.37456 -1.08871,6.66239 0,2.95057 0.42996,5.52637 1.28988,7.72744 0.85991,2.20109 2.19713,3.84597 4.01164,4.93467 1.81449,1.08871 3.7789,1.63307 5.89321,1.63305 2.57186,2e-5 4.74926,-0.74157 6.53223,-2.22473 1.78292,-1.48316 2.98997,-3.68423 3.62112,-6.60324 l 0,0 z m 10.34269,12.1651 0,-34.69655 15.38388,0 c 3.09254,4e-5 5.4435,0.31165 7.05291,0.93487 1.60936,0.62327 2.8953,1.72382 3.85781,3.30162 0.96245,1.57785 1.44368,3.32136 1.44371,5.23051 -3e-5,2.46144 -0.79683,4.53628 -2.39042,6.22454 -1.59364,1.6883 -4.05505,2.76123 -7.38425,3.21879 1.21491,0.58382 2.13794,1.15972 2.7691,1.72772 1.34113,1.23073 2.61128,2.76911 3.81047,4.61517 l 6.03521,9.44333 -5.77487,0 -4.59149,-7.21858 c -1.34119,-2.08273 -2.44567,-3.67634 -3.31346,-4.78084 -0.86782,-1.10448 -1.6449,-1.87761 -2.33125,-2.31942 -0.68637,-0.44178 -1.38456,-0.74945 -2.09457,-0.92303 -0.5207,-0.11045 -1.37272,-0.16567 -2.55609,-0.16567 l -5.32518,0 0,15.40754 -4.59151,0 z m 4.59151,-19.38369 9.86934,0 c 2.0985,2e-5 3.73944,-0.21692 4.92284,-0.65084 1.18335,-0.43389 2.08271,-1.12813 2.69809,-2.08275 0.61534,-0.95457 0.92301,-1.99198 0.92304,-3.11227 -3e-5,-1.64092 -0.59565,-2.98997 -1.7869,-4.04714 -1.19128,-1.05712 -3.07285,-1.5857 -5.64469,-1.58573 l -10.98172,0 0,11.47873 z m 53.13353,-15.31286 4.59148,0 0,20.04637 c -3e-5,3.48703 -0.39448,6.25612 -1.18336,8.3073 -0.78896,2.05117 -2.21295,3.71973 -4.272,5.00567 -2.05908,1.28594 -4.76112,1.9289 -8.1061,1.9289 -3.25037,0 -5.909,-0.56013 -7.97595,-1.6804 -2.06697,-1.12025 -3.54224,-2.74147 -4.42583,-4.86367 -0.88358,-2.12217 -1.32537,-5.02144 -1.32537,-8.6978 l 0,-20.04637 4.59148,0 0,20.02271 c 0,3.01367 0.28006,5.23445 0.8402,6.66239 0.56013,1.42794 1.52261,2.52848 2.88743,3.30162 1.36483,0.77313 3.03337,1.15971 5.00569,1.15971 3.37653,0 5.78274,-0.76526 7.21859,-2.29575 1.43579,-1.53049 2.1537,-4.47314 2.15374,-8.82797 l 0,-20.02271 z m 9.49066,34.69655 0,-4.26015 17.77429,-22.22378 c 1.26224,-1.5778 2.46139,-2.95052 3.59745,-4.11815 l -19.36,0 0,-4.09447 24.85087,0 0,4.09447 -19.47836,24.06985 -2.1064,2.43774 22.15277,0 0,4.09449 -27.43062,0 z"
       id="text9345"
       style="font-size:28px;font-style:normal;font-variant:normal;font-weight:normal;font-stretch:normal;text-align:center;line-height:125%;writing-mode:lr-tb;text-anchor:middle;fill:#777777;fill-opacity:1;stroke:none;font-family:Arial;-inkscape-font-specification:Arial" />
    <path
       d="M 34.50641,230.46705 -1.2872066e-7,226.83964 0.48002544,222.2733 34.986435,225.90072 34.50641,230.46705 z m 1.301747,-12.4108 -34.229576,-5.67332 0.7507659,-4.52969 30.1902061,5.0038 2.794087,-16.85794 4.039371,0.6695 -3.544854,21.38765 z m -22.920413,-57.89785 1.207737,-4.42981 19.340447,5.27295 c 3.36422,0.91725 5.932045,2.02619 7.703481,3.32683 1.771435,1.3007 3.00667,3.11345 3.705711,5.43824 0.699032,2.32483 0.60862,5.10083 -0.271237,8.32803 -0.854967,3.13589 -2.094695,5.55359 -3.719192,7.25307 -1.624502,1.69951 -3.576685,2.69639 -5.856558,2.99064 -2.279864,0.29426 -5.193241,-0.0421 -8.74014,-1.00915 l -19.3404479,-5.27293 1.2077371,-4.42982 19.3176128,5.26672 c 2.907545,0.79273 5.123807,1.10668 6.64879,0.94186 1.524994,-0.1648 2.839944,-0.80389 3.944855,-1.91731 1.104913,-1.11337 1.916763,-2.6215 2.43555,-4.52435 0.88816,-3.25763 0.782779,-5.7804 -0.316144,-7.56827 -1.098925,-1.7878 -3.749118,-3.25446 -7.950589,-4.39997 L 12.887744,160.1584 z m 26.27462,-5.43978 1.317227,-4.14334 c 1.680895,0.47861 3.178901,0.58606 4.494019,0.32237 1.315126,-0.26367 2.593034,-0.99161 3.833724,-2.18382 1.240692,-1.19218 2.240534,-2.69847 2.999526,-4.51889 0.673981,-1.6165 1.028735,-3.14388 1.064268,-4.58215 0.03552,-1.43822 -0.239414,-2.6341 -0.824811,-3.58763 -0.585402,-0.95349 -1.373252,-1.63669 -2.363548,-2.0496 -1.004863,-0.41894 -2.003733,-0.49351 -2.996617,-0.22371 -0.992881,0.26985 -2.023486,0.96841 -3.09182,2.09568 -0.693193,0.7196 -2.006212,2.40303 -3.939064,5.05029 -1.932836,2.6473 -3.458278,4.4302 -4.576335,5.34872 -1.438515,1.19519 -2.907582,1.92035 -4.407204,2.17549 -1.499588,0.25515 -2.984832,0.0761 -4.455739,-0.53719 -1.616494,-0.67397 -2.936161,-1.76267 -3.959005,-3.26611 -1.022793,-1.5034 -1.53093,-3.28799 -1.524416,-5.35375 0.0066,-2.06573 0.459163,-4.17627 1.357779,-6.33166 0.989751,-2.37377 2.244874,-4.30784 3.765374,-5.80222 1.520545,-1.49431 3.226938,-2.41968 5.119186,-2.77612 1.892283,-0.35636 3.792924,-0.17933 5.701924,0.5311 l -1.388239,4.19065 c -2.115351,-0.62552 -3.952638,-0.52399 -5.511866,0.30459 -1.55919,0.82864 -2.851871,2.47354 -3.878048,4.93469 -1.068635,2.56316 -1.377695,4.62671 -0.927183,6.19066 0.450561,1.564 1.338456,2.62226 2.663687,3.17479 1.150514,0.4797 2.270172,0.45932 3.358977,-0.0611 1.08277,-0.50585 2.731714,-2.31846 4.946842,-5.43784 2.215154,-3.11932 3.881153,-5.19834 4.998002,-6.23706 1.636444,-1.50581 3.29884,-2.42816 4.987195,-2.76704 1.68836,-0.33881 3.391767,-0.15 5.110228,0.56646 1.703893,0.71045 3.106077,1.86774 4.206556,3.4719 1.100468,1.6042 1.688383,3.4947 1.76375,5.6715 0.07536,2.17683 -0.363617,4.40846 -1.3169,6.69486 -1.208321,2.8981 -2.643146,5.15043 -4.304482,6.757 -1.661343,1.60659 -3.57257,2.61323 -5.733689,3.01993 -2.161112,0.40671 -4.324209,0.19291 -6.489298,-0.64142 l 0,0 z m 28.346539,-34.43736 -26.329226,-15.59674 -5.826164,9.83528 -3.522781,-2.08681 14.016566,-23.661686 3.522781,2.086804 -5.850289,9.876002 26.329228,15.59675 -2.340115,3.9504 z M 78.450943,102.44111 52.046667,79.931904 62.026876,68.224687 c 2.00629,-2.353412 3.768614,-3.94035 5.286981,-4.760819 1.518383,-0.820386 3.19014,-1.085021 5.015279,-0.793904 1.825143,0.291202 3.464162,1.056066 4.917057,2.294595 1.873152,1.596871 2.935199,3.549292 3.186149,5.857266 0.25094,2.308046 -0.52939,4.877252 -2.340991,7.707632 1.232452,-0.545807 2.269533,-0.87462 3.111248,-0.986445 1.80664,-0.222184 3.801366,-0.190759 5.984186,0.09428 l 11.101743,1.533484 -3.746416,4.394709 -8.472096,-1.188868 c -2.455054,-0.330514 -4.384327,-0.523844 -5.787827,-0.579987 -1.403506,-0.05611 -2.495996,0.0337 -3.277472,0.269384 -0.78148,0.235734 -1.46857,0.567458 -2.061277,0.995171 -0.421842,0.324612 -1.016618,0.937186 -1.784328,1.837719 l -3.454688,4.052498 11.725227,9.995564 -2.978708,3.494154 z M 66.678558,86.371896 73.081247,78.861267 c 1.361404,-1.596956 2.260856,-2.986472 2.698361,-4.16855 0.437505,-1.182017 0.492637,-2.316825 0.165407,-3.404432 -0.32724,-1.087538 -0.917122,-1.994706 -1.769647,-2.721507 -1.248766,-1.064517 -2.661811,-1.486424 -4.239138,-1.265724 -1.577315,0.220777 -3.200219,1.30975 -4.868714,3.266918 l -7.124335,8.357152 8.735385,7.446772 z M 101.83947,76.278498 80.515539,48.908071 100.30589,33.489674 l 2.5164,3.229934 -16.168345,12.596541 6.531,8.382893 15.141485,-11.796529 2.50185,3.211264 -15.141482,11.796528 7.258282,9.3164 16.80313,-13.091092 2.5164,3.229935 -20.42514,15.91295 z m 37.60708,-25.884868 -11.63604,-32.687195 6.51068,-2.317685 15.9759,20.389906 c 1.48076,1.901383 2.57515,3.328985 3.28317,4.282808 -0.0517,-1.321439 -0.0937,-3.274394 -0.12611,-5.858868 l -0.26982,-25.5287822 5.81948,-2.0716293 11.63604,32.6871965 -4.16951,1.484272 -9.73904,-27.358247 0.24058,30.739527 -3.90195,1.389022 -19.35959,-24.461076 9.90572,27.826482 -4.16951,1.484269 z m 57.17876,-49.53318003 4.55947,-0.54144668 2.36394,19.90649771 c 0.41118,3.462695 0.34602,6.258984 -0.19549,8.388875 -0.54156,2.129911 -1.75886,3.954748 -3.65188,5.474518 -1.89308,1.519778 -4.50044,2.476893 -7.8221,2.871347 -3.22766,0.383294 -5.93382,0.140583 -8.11846,-0.728113 -2.18464,-0.868697 -3.84081,-2.304638 -4.96847,-4.307824 -1.12768,-2.003175 -1.90829,-4.830112 -2.34181,-8.480824 l -2.36395,-19.906497 4.55946,-0.5414468 2.36115,19.8829948 c 0.35538,2.992647 0.89538,5.164922 1.61999,6.516835 0.7246,1.351931 1.81015,2.33129 3.25663,2.938082 1.44646,0.606803 3.14895,0.793912 5.10751,0.561327 3.35298,-0.398172 5.65214,-1.441828 6.8975,-3.130972 1.24529,-1.689127 1.61119,-4.69591 1.09768,-9.020358 L 196.62531,0.86044997 z M 212.95931,34.641036 214.92122,-1.3341832e-7 219.62352,0.26631598 236.27797,28.494489 l 1.54036,-27.1977037 4.39511,0.2489185 -1.9619,34.6410352 -4.70231,-0.266316 -16.65312,-28.2518015 -1.54169,27.2213315 -4.39511,-0.248917 z m 35.69453,3.163863 6.14851,-34.1474167 4.51884,0.8136517 -6.14854,34.147417 -4.51881,-0.813652 z m 39.91477,-1.714846 3.98584,2.557321 c -2.10988,3.270408 -4.66485,5.447526 -7.66493,6.531364 -3.00015,1.083824 -6.21338,1.052216 -9.6397,-0.09483 -3.54605,-1.187127 -6.18831,-2.874523 -7.92683,-5.062197 -1.73851,-2.187676 -2.72924,-4.844645 -2.97215,-7.970917 -0.24295,-3.126258 0.16151,-6.260416 1.21342,-9.402481 1.14703,-3.426315 2.80216,-6.195861 4.96539,-8.308648 2.16319,-2.11274 4.67465,-3.426723 7.53433,-3.941957 2.85967,-0.5151774 5.74082,-0.286912 8.64351,0.684796 3.29165,1.101994 5.77915,2.866528 7.4625,5.293607 1.68328,2.427125 2.45791,5.307097 2.32391,8.639925 l -4.62476,-0.425119 c 0.0383,-2.649385 -0.48534,-4.763135 -1.57097,-6.341258 -1.08571,-1.578084 -2.72827,-2.735293 -4.92768,-3.471632 -2.52863,-0.846488 -4.84489,-0.948035 -6.94879,-0.304639 -2.10396,0.643443 -3.8419,1.871112 -5.21387,3.683012 -1.37199,1.811943 -2.42113,3.802658 -3.14742,5.972154 -0.93668,2.797935 -1.34668,5.376999 -1.22997,7.737197 0.11668,2.360213 0.86253,4.344524 2.23758,5.95294 1.37502,1.608417 3.065,2.748224 5.06993,3.419425 2.43882,0.816455 4.73901,0.804468 6.9006,-0.03596 2.16155,-0.840432 4.0049,-2.544468 5.53006,-5.112108 l 0,0 z m 6.06578,16.473554 16.09318,-30.738578 4.06772,2.129656 -16.09317,30.738578 -4.06773,-2.129656 z m 11.34196,5.764954 20.74483,-27.811913 10.49112,7.8253 c 1.8465,1.377346 3.19067,2.517741 4.03249,3.421189 1.19608,1.246515 2.01757,2.533446 2.46448,3.860799 0.44683,1.327374 0.52243,2.776417 0.22682,4.347136 -0.2957,1.570733 -0.95766,3.045385 -1.98591,4.423963 -1.76415,2.365087 -4.00957,3.805248 -6.73626,4.320488 -2.72675,0.515235 -6.0568,-0.694095 -9.99015,-3.627991 l -7.13321,-5.320637 -8.43378,11.306889 -3.68043,-2.745223 z m 14.56226,-11.8437 7.19012,5.363091 c 2.37771,1.773548 4.39634,2.59029 6.05589,2.450228 1.65947,-0.140064 3.08828,-1.013206 4.28639,-2.619444 0.86788,-1.163568 1.31674,-2.378894 1.34656,-3.645984 0.0298,-1.267073 -0.33687,-2.391895 -1.09994,-3.374468 -0.49713,-0.62666 -1.5804,-1.562623 -3.24985,-2.807892 l -7.11423,-5.306488 -7.41494,9.940957 z m 8.37915,29.058131 34.93351,-12.690579 3.24349,3.734665 -16.88485,33.472482 -3.42971,-3.949098 5.28018,-9.946102 -9.51319,-10.953831 -10.4325,4.013521 -3.19693,-3.681058 z m 17.32183,-1.783798 7.71297,8.881001 4.8805,-9.03473 c 1.47961,-2.747911 2.75236,-4.939974 3.81825,-6.576195 -1.96943,1.125241 -4.04589,2.103129 -6.22939,2.93367 l -10.18233,3.796254 z m 5.5571,29.581146 29.70291,-17.932884 2.37311,3.93067 -26.19771,15.816664 8.83187,14.62857 -3.50518,2.11623 -11.205,-18.55925 z m 13.72421,24.33645 31.3493,-14.8685 1.96758,4.14855 -31.3493,14.86849 -1.96758,-4.14854 z m 5.5355,11.41638 32.68443,-11.64383 4.01099,11.25896 c 0.90542,2.54162 1.44035,4.53688 1.60483,5.98578 0.2361,2.02632 0.0249,3.90212 -0.63331,5.62739 -0.84243,2.24304 -2.24471,4.19564 -4.20685,5.85779 -1.96223,1.66212 -4.39993,3.0121 -7.31311,4.04996 -2.4822,0.88425 -4.78521,1.37807 -6.90907,1.4815 -2.12388,0.10335 -3.9753,-0.0746 -5.55423,-0.53376 -1.57896,-0.45925 -2.92081,-1.09925 -4.02557,-1.92001 -1.10478,-0.8208 -2.11431,-1.92675 -3.02863,-3.31784 -0.91433,-1.39113 -1.72363,-3.0751 -2.42786,-5.0519 l -4.20162,-11.79404 z m 5.39789,2.95116 2.48602,6.97832 c 0.76779,2.15517 1.57074,3.77438 2.40891,4.85766 0.83813,1.08324 1.7511,1.85929 2.73887,2.32815 1.39091,0.66019 3.05409,0.96797 4.98954,0.92336 1.93542,-0.0447 4.1368,-0.50647 6.60413,-1.38543 3.41852,-1.21788 5.84573,-2.71487 7.28159,-4.49097 1.43582,-1.77613 2.17994,-3.57801 2.23235,-5.40563 0.0329,-1.31819 -0.40873,-3.26296 -1.32473,-5.83431 l -2.44631,-6.86685 -24.97037,8.8957 z m 4.91261,26.5435 36.8028,5.19175 1.11096,4.82013 -30.62078,21.63035 -1.17475,-5.09688 9.33094,-6.30387 -3.25845,-14.13753 -11.09571,-1.35299 -1.09501,-4.75096 z m 16.13233,6.55562 2.64185,11.46222 8.55022,-5.68674 c 2.59633,-1.73186 4.74908,-3.07002 6.45829,-4.01446 -2.26716,0.0691 -4.55967,-0.0421 -6.87753,-0.3336 l -10.77283,-1.42742 z m -8.36016,28.79729 34.38318,-4.65269 1.60273,11.84413 c 0.36177,2.67372 0.47372,4.7364 0.33582,6.18808 -0.18687,2.03145 -0.78031,3.82337 -1.78029,5.3758 -1.2869,2.02108 -3.06174,3.64249 -5.32452,4.86424 -2.26282,1.22169 -4.92653,2.0399 -7.99113,2.45464 -2.6112,0.3533 -4.96657,0.36154 -7.06609,0.0248 -2.09954,-0.33689 -3.87446,-0.89282 -5.32475,-1.66778 -1.45029,-0.77502 -2.6313,-1.67802 -3.54302,-2.70896 -0.91174,-1.03101 -1.67151,-2.32138 -2.27927,-3.87114 -0.60777,-1.54979 -1.05235,-3.36446 -1.33375,-5.444 l -1.67891,-12.40703 z m 4.67321,4.00098 0.99338,7.341 c 0.30679,2.26718 0.75854,4.0172 1.35527,5.25004 0.59671,1.23281 1.32999,2.18047 2.19982,2.84296 1.22486,0.93286 2.7888,1.57704 4.69186,1.93256 1.90301,0.35545 4.1523,0.35758 6.74786,0.007 3.59622,-0.48667 6.27997,-1.4509 8.05128,-2.89269 1.77125,-1.44182 2.87099,-3.05149 3.29921,-4.82901 0.304,-1.28308 0.27302,-3.27711 -0.093,-5.9821 l -0.9775,-7.22374 -26.26818,3.55458 z"
       id="text9351"
       style="font-size:28px;font-style:normal;font-variant:normal;font-weight:normal;font-stretch:normal;text-align:center;line-height:125%;writing-mode:lr-tb;text-anchor:middle;fill:#777777;fill-opacity:1;stroke:none;font-family:Arial;-inkscape-font-specification:Arial" />
    <g
       id="g3973">
      <g
         transform="matrix(1.7311082,0,0,1.7311082,-12.679673,-11.522624)"
         id="g3223">
        <path
           d="M 130.5,34.28125 111.71875,53.125 c -1.1354,1.435052 -1.78125,2.931271 -1.78125,4.625 0,4.412278 3.58772,7.968748 8,7.96875 3.8809,2e-6 7.03589,-2.7683 7.75,-6.4375 0.27073,-0.444115 0.4375,-0.94218 0.4375,-1.5 0,-1.618822 -1.31868,-2.937498 -2.9375,-2.9375 -1.61882,0 -2.9375,1.318677 -2.9375,2.9375 0,0.914098 0.43756,1.712033 1.09375,2.25 -0.72685,1.124542 -1.96224,1.875 -3.40625,1.875 -2.29466,0 -4.15625,-1.861592 -4.15625,-4.15625 0.0117,-0.223149 -0.30209,-0.715907 1.25,-2.40625 l 11.8125,-11.65625 0,200.75 3.65625,15.53125 3.65625,-15.53125 0,-200.75 11.8125,11.65625 c 1.55209,1.690343 1.23827,2.183101 1.25,2.40625 0,2.294658 -1.86159,4.15625 -4.15625,4.15625 -1.44401,0 -2.6794,-0.750458 -3.40625,-1.875 0.65619,-0.537967 1.09375,-1.335902 1.09375,-2.25 0,-1.618823 -1.31868,-2.9375 -2.9375,-2.9375 -1.61882,2e-6 -2.9375,1.318678 -2.9375,2.9375 0,0.55782 0.16677,1.055885 0.4375,1.5 0.71411,3.6692 3.8691,6.437502 7.75,6.4375 4.41228,-2e-6 8,-3.556472 8,-7.96875 0,-1.693729 -0.64585,-3.189948 -1.78125,-4.625 L 130.5,34.28125 z"
           id="path2392"
           style="fill:#000000;fill-rule:evenodd;stroke:none" />
        <g
           transform="translate(2.56619,0)"
           id="g3219">
          <path
             d="m 108.75,132.87935 0,6.5625 -53.3125,0 c -4.523324,0.80128 -7.968749,4.74824 -7.96875,9.5 0,5.32919 4.327063,9.65625 9.65625,9.65625 8.038005,-10e-5 8.809185,-10.80923 -0.34375,-10.40625 0.762887,-1.14242 3.859881,-3.34873 7.25,-1.59375 3.40795,1.88087 4.022778,4.5041 3.53125,8.09375 -0.864749,3.69937 -3.99538,6.49556 -10.4375,6.96875 -7.017596,0 -12.71875,-5.70115 -12.71875,-12.71875 10e-7,-4.16995 2.018929,-7.86715 5.125,-10.1875 L 39.75,136.1606 l 9.78125,-2.59375 c -3.106071,-2.32035 -5.124999,-6.01755 -5.125,-10.1875 0,-7.0176 5.701154,-12.71875 12.71875,-12.71875 6.44212,0.47319 9.572751,3.26938 10.4375,6.96875 0.491528,3.58965 -0.1233,6.21288 -3.53125,8.09375 -3.390119,1.75498 -6.487113,-0.45133 -7.25,-1.59375 9.152935,0.40298 8.381755,-10.40615 0.34375,-10.40625 -5.329187,0 -9.65625,4.32706 -9.65625,9.65625 10e-7,4.75176 3.445426,8.69872 7.96875,9.5 l 53.3125,0 z"
             id="path3201"
             style="fill:#000000;fill-opacity:1;fill-rule:evenodd;stroke:none" />
          <path
             d="m 147.11762,132.87935 0,6.5625 53.3125,0 c 4.52333,0.80128 7.96875,4.74824 7.96875,9.5 0,5.32919 -4.32706,9.65625 -9.65625,9.65625 -8.038,-10e-5 -8.80918,-10.80923 0.34375,-10.40625 -0.76288,-1.14242 -3.85988,-3.34873 -7.25,-1.59375 -3.40795,1.88087 -4.02277,4.5041 -3.53125,8.09375 0.86475,3.69937 3.99538,6.49556 10.4375,6.96875 7.0176,0 12.71875,-5.70115 12.71875,-12.71875 0,-4.16995 -2.01893,-7.86715 -5.125,-10.1875 l 9.78125,-2.59375 -9.78125,-2.59375 c 3.10607,-2.32035 5.125,-6.01755 5.125,-10.1875 0,-7.0176 -5.70115,-12.71875 -12.71875,-12.71875 -6.44212,0.47319 -9.57275,3.26938 -10.4375,6.96875 -0.49152,3.58965 0.1233,6.21288 3.53125,8.09375 3.39012,1.75498 6.48712,-0.45133 7.25,-1.59375 -9.15293,0.40298 -8.38175,-10.40615 -0.34375,-10.40625 5.32919,0 9.65625,4.32706 9.65625,9.65625 0,4.75176 -3.44542,8.69872 -7.96875,9.5 l -53.3125,0 z"
             id="path3217"
             style="fill:#000000;fill-opacity:1;fill-rule:evenodd;stroke:none" />
        </g>
        <path
           d="m 186.04708,80.46875 -111.093742,0 c -0.582834,32.40668 1.389645,109.96292 55.531242,127.375 54.14161,-17.41208 56.14533,-94.96832 55.5625,-127.375 z"
           id="path2384"
           style="fill:#008f4c;fill-rule:evenodd;stroke:#000000;stroke-width:1.15532935;stroke-linecap:butt;stroke-linejoin:miter;stroke-miterlimit:4;stroke-opacity:1;stroke-dasharray:none" />
      </g>
      <g
         transform="matrix(0.87477158,0,0,0.87477158,22.981605,16.488631)"
         id="g3897"
         style="stroke:#000000;stroke-width:0.28578889;stroke-miterlimit:4;stroke-opacity:1;stroke-dasharray:none">
        <path
           d="m 237.00426,191.53677 0.64287,2.75613 c 2.84834,0.94557 2.02588,-2.21205 2.46338,-3.41355 -0.96904,0.32684 -0.72161,2.53526 -1.43065,2.1776 -1.12739,-0.29181 -0.51787,-1.10862 -0.77645,-1.66305 0.44445,0.80709 1.59166,-0.23597 2.54218,-0.76121 -1.14261,0.29702 -2.23265,0.54341 -2.55303,0.0484 l -4.97333,-4.25233 -0.77664,0.63241 4.86167,4.47563 0,-3e-5 z"
           id="path16072"
           style="fill:#ed1c24;fill-opacity:1;fill-rule:evenodd;stroke:#000000;stroke-width:0.28578889;stroke-linecap:butt;stroke-linejoin:miter;stroke-miterlimit:4;stroke-opacity:1;stroke-dasharray:none" />
        <g
           transform="matrix(0.25843436,0,0,0.25843436,126.52365,42.146776)"
           id="g3613"
           style="stroke:#000000;stroke-width:1.10584712;stroke-miterlimit:4;stroke-opacity:1;stroke-dasharray:none;display:inline">
          <g
             transform="matrix(0.7509426,-0.66177585,0.64293139,0.72955905,-346.89305,-491.61814)"
             id="g5842"
             style="stroke:#000000;stroke-width:1.12089324;stroke-miterlimit:4;stroke-opacity:1;stroke-dasharray:none">
            <path
               d="m -150.87615,1291.9486 c 6.81552,-30.8882 -7.3662,-58.8971 -18.99157,-74.0009 -38.88818,-50.5237 -12.64376,-82.1099 -1.85966,-94.1417 21.92853,-24.4656 40.77266,-39.4223 47.97842,-46.5262 6.3728,-6.2826 0.71852,16.645 -7.18882,32.335 18.57182,-6.7762 3.46725,23.5463 -1.64872,28.1119 12.9997,-8.9983 12.53107,8.691 6.24413,17.3576 4.16576,0.6343 16.06453,2.2519 2.44277,18.4775 8.3117,0.3864 16.02616,3.3469 6.43796,16.8282 19.314845,8.6406 14.37393,12.6115 7.49778,17.7483 24.918052,13.1661 10.123243,11.4094 7.95186,15.5834 15.66341,11.8827 7.512068,14.1232 -1.98842,15.8174 16.425453,11.228 14.614682,15.0205 2.74594,14.7121 6.963583,8.2793 17.018583,18.1976 -7.08488,10.0064 6.04548,4.4021 8.519241,10.7029 7.42122,18.902 -3.79087,-3.0863 -7.58156,-6.1726 -11.37232,-9.2589 4.59932,10.7296 0.79242,15.2293 -2.46872,19.4916 1.34609,-2.315 -9.06463,-23.2406 -8.43203,-19.3415 1.20111,7.403 -0.0949,29.0978 -4.3726,25.2791 0.67374,-6.5728 1.91044,-13.2108 -1.43176,-19.3179"
               id="path4999"
               style="fill:#e3e4e5;fill-opacity:1;fill-rule:nonzero;stroke:#000000;stroke-width:1.12089324;stroke-linecap:butt;stroke-linejoin:miter;stroke-miterlimit:4;stroke-opacity:1;stroke-dasharray:none" />
            <path
               d="m -130.97063,1109.6224 c -8.88399,14.1101 -19.43692,18.8133 -29.88565,28.7969"
               id="path5001"
               style="fill:#e3e4e5;fill-opacity:1;fill-rule:nonzero;stroke:#000000;stroke-width:1.12089324;stroke-linecap:butt;stroke-linejoin:miter;stroke-miterlimit:4;stroke-opacity:1;stroke-dasharray:none" />
            <path
               d="m -131.97652,1137.2169 c -7.15953,7.7612 -13.65918,10.9795 -19.48019,14.7866"
               id="path5003"
               style="fill:#e3e4e5;fill-opacity:1;fill-rule:nonzero;stroke:#000000;stroke-width:1.12089324;stroke-linecap:butt;stroke-linejoin:miter;stroke-miterlimit:4;stroke-opacity:1;stroke-dasharray:none" />
            <path
               d="m -126.25636,1155.0653 c -5.97138,6.6131 -10.11362,8.2704 -19.5817,12.151"
               id="path5005"
               style="fill:#e3e4e5;fill-opacity:1;fill-rule:nonzero;stroke:#000000;stroke-width:1.12089324;stroke-linecap:butt;stroke-linejoin:miter;stroke-miterlimit:4;stroke-opacity:1;stroke-dasharray:none" />
            <path
               d="m -123.81825,1173.5569 c -4.63161,5.1572 -7.76955,8.2223 -13.27489,10.3922"
               id="path5007"
               style="fill:#e3e4e5;fill-opacity:1;fill-rule:nonzero;stroke:#000000;stroke-width:1.12089324;stroke-linecap:butt;stroke-linejoin:miter;stroke-miterlimit:4;stroke-opacity:1;stroke-dasharray:none" />
            <path
               d="m -117.43649,1190.2401 c -4.89382,5.0729 -11.99665,4.705 -17.47505,4.8681"
               id="path5009"
               style="fill:#e3e4e5;fill-opacity:1;fill-rule:nonzero;stroke:#000000;stroke-width:1.12089324;stroke-linecap:butt;stroke-linejoin:miter;stroke-miterlimit:4;stroke-opacity:1;stroke-dasharray:none" />
            <path
               d="m -110.08226,1208.2564 c -3.84163,2.9918 -12.64703,0.06 -22.64776,-1.9891"
               id="path5011"
               style="fill:#e3e4e5;fill-opacity:1;fill-rule:nonzero;stroke:#000000;stroke-width:1.12089324;stroke-linecap:butt;stroke-linejoin:miter;stroke-miterlimit:4;stroke-opacity:1;stroke-dasharray:none" />
            <path
               d="m -102.1158,1223.491 c -5.44531,1.7102 -15.4014,-3.3499 -25.72294,-7.8927"
               id="path5013"
               style="fill:#e3e4e5;fill-opacity:1;fill-rule:nonzero;stroke:#000000;stroke-width:1.12089324;stroke-linecap:butt;stroke-linejoin:miter;stroke-miterlimit:4;stroke-opacity:1;stroke-dasharray:none" />
            <path
               d="m -102.84305,1240.0054 c -6.70424,-2.1149 -15.30539,-6.8446 -25.16746,-13.3124"
               id="path5015"
               style="fill:#e3e4e5;fill-opacity:1;fill-rule:nonzero;stroke:#000000;stroke-width:1.12089324;stroke-linecap:butt;stroke-linejoin:miter;stroke-miterlimit:4;stroke-opacity:1;stroke-dasharray:none" />
            <path
               d="m -100.89352,1254.3206 c -6.97446,-4.5179 -12.78298,-6.6531 -23.02976,-15.534"
               id="path5017"
               style="fill:#e3e4e5;fill-opacity:1;fill-rule:nonzero;stroke:#000000;stroke-width:1.12089324;stroke-linecap:butt;stroke-linejoin:miter;stroke-miterlimit:4;stroke-opacity:1;stroke-dasharray:none" />
          </g>
          <path
             d="m 212.75,475.59375 c -2.34809,0 -4.78753,0.31942 -7.71875,1.15625 -10.17462,-2.18422 -29.57508,12.93714 -22.25,14.15625 4.63,0.7707 4.79008,1.45317 7.90625,3.96875 l -61.34375,22.21875 68.84375,-17.6875 c 19.94091,-2.23783 28.67551,2.07583 37.3125,9.4375 14.21259,10.20974 20.98963,25.38577 37.46875,32.96875 10.72085,4.32756 23.97273,8.81762 39.28125,12.78125 19.41365,5.02667 39.86047,6.30078 55.96875,23.15625 l -10,-13.75 c 6.63883,2.9218 13.03469,6.1014 16.125,12.40625 1.15599,-3.10331 -0.333,-6.51116 -2.34375,-10 5.12609,3.95328 9.77808,8.16323 12.65625,13.40625 -0.83774,-4.31821 -1.2849,-8.55673 -5.65625,-13.65625 6.6701,3.42983 12.94181,7.23932 16.9375,13.21875 -1.38748,-5.8627 -5.5627,-11.19317 -11.5,-16.15625 l 14.65625,9.59375 -3.53125,-8.28125 c 18.43677,0.64378 35.90401,-3.21145 53.375,-7.59375 23.62915,-8.59881 45.5204,-1.92411 67.5625,7.21875 0.0169,-1.72621 0.16053,-3.28896 -1.625,-7.46875 -15.63129,-18.77524 -38.30958,-28.50098 -60.90625,-38.28125 21.94457,9.37494 44.87657,16.82813 61.5625,36.6875 1.50224,1.48349 2.79316,1.36764 4.125,1.5625 -12.59936,-22.97991 -88.34845,-68.02697 -127,-66.3125 -4.56826,-0.50644 -9.22514,-0.75716 -13.875,-0.71875 -10.22968,0.0846 -20.36012,1.63637 -29,5.375 -16.81543,7.27644 -23.40051,11.77555 -35.5,24.5625 -4.47415,4.72832 -7.25544,7.32179 -15.0625,6.3125 -33.5196,-9.27508 -43.78647,-32.04639 -77.21875,-49.1875 -3.3864,-0.57688 -6.23103,-1.09107 -9.25,-1.09375 z"
             id="path5175"
             style="fill:#e3e4e5;fill-opacity:1;fill-rule:nonzero;stroke:#000000;stroke-width:1.10584712;stroke-linecap:butt;stroke-linejoin:miter;stroke-miterlimit:4;stroke-opacity:1;stroke-dasharray:none" />
          <g
             transform="matrix(0.89768076,0.44275424,-0.43014655,0.87211876,1012.131,-538.21623)"
             id="g5803"
             style="stroke:#000000;stroke-width:1.12089324;stroke-miterlimit:4;stroke-opacity:1;stroke-dasharray:none">
            <path
               d="m -143.87191,1262.559 c 27.28566,-24.8972 29.58405,-60.7376 26.43886,-82.6559 -10.52114,-73.3187 38.626626,-86.2223 58.215601,-90.6249 39.832375,-8.9522 70.177799,-10.8823 82.667864,-12.9354 11.046265,-1.8158 -9.863403,16.2771 -28.623258,26.0281 24.808464,5.6621 -11.251566,24.6223 -19.813292,25.626 20.0891058,-0.078 8.248685,16.4174 -4.22908,20.5534 4.185651,3.3161 16.265463,12.6035 -9.135924,19.1407 8.914161,5.7814 15.522175,13.6186 -3.676485,20.1768 15.758302,20.7888 7.770217,21.3416 -3.097283,21.7411 19.0373,28.7371 3.854445,17.4309 -1.210949,19.9808 9.658079,21.4894 -0.760963,18.3074 -12.317362,13.7277 10.917144,21.364 6.493466,23.7864 -6.391357,15.762 2.37553,12.3996 7.109334,28.3698 -14.214878,4.8885 3.845538,8.1192 2.538754,15.715 -3.920283,22.7871 -2.202698,-5.4008 -4.405292,-10.8014 -6.607897,-16.2021 -1.799103,13.1869 -8.875687,14.9807 -15.198777,16.9045 2.96567,-1.3219 4.88617,-27.9782 3.08743,-23.8628 -3.41519,7.8136 -18.73172,27.5746 -21.00223,21.161 4.9502,-5.8038 10.56268,-11.3027 10.7883,-19.2803"
               id="path5061"
               style="fill:#e3e4e5;fill-opacity:1;fill-rule:nonzero;stroke:#000000;stroke-width:1.12089324;stroke-linecap:butt;stroke-linejoin:miter;stroke-miterlimit:4;stroke-opacity:1;stroke-dasharray:none" />
            <path
               d="m -112.06831,1232.7196 c 25.104747,-52.8928 -9.56446,-76.6472 25.300534,-111.9591"
               id="path5063"
               style="fill:#e3e4e5;fill-opacity:1;fill-rule:nonzero;stroke:#000000;stroke-width:1.12089324;stroke-linecap:butt;stroke-linejoin:miter;stroke-miterlimit:4;stroke-opacity:1;stroke-dasharray:none" />
            <path
               d="m -5.2139172,1102.3567 c -18.8249578,7.6142 -33.4676348,5.2068 -51.3757628,7.8825"
               id="path5065"
               style="fill:#e3e4e5;fill-opacity:1;fill-rule:nonzero;stroke:#000000;stroke-width:1.12089324;stroke-linecap:butt;stroke-linejoin:miter;stroke-miterlimit:4;stroke-opacity:1;stroke-dasharray:none" />
            <path
               d="m -23.987413,1127.91 c -12.859954,2.7076 -22.084346,1.5302 -30.937695,1.3543"
               id="path5067"
               style="fill:#e3e4e5;fill-opacity:1;fill-rule:nonzero;stroke:#000000;stroke-width:1.12089324;stroke-linecap:butt;stroke-linejoin:miter;stroke-miterlimit:4;stroke-opacity:1;stroke-dasharray:none" />
            <path
               d="m -29.108198,1148.5882 c -10.815326,2.3911 -16.442037,1.2669 -29.362302,-1.2152"
               id="path5069"
               style="fill:#e3e4e5;fill-opacity:1;fill-rule:nonzero;stroke:#000000;stroke-width:1.12089324;stroke-linecap:butt;stroke-linejoin:miter;stroke-miterlimit:4;stroke-opacity:1;stroke-dasharray:none" />
            <path
               d="m -38.258288,1167.7393 c -8.406616,1.8811 -13.827535,2.7482 -21.28484,1.2228"
               id="path5071"
               style="fill:#e3e4e5;fill-opacity:1;fill-rule:nonzero;stroke:#000000;stroke-width:1.12089324;stroke-linecap:butt;stroke-linejoin:miter;stroke-miterlimit:4;stroke-opacity:1;stroke-dasharray:none" />
            <path
               d="m -41.903947,1187.7419 c -8.64167,1.6302 -16.235138,-3.3462 -22.378079,-6.76"
               id="path5073"
               style="fill:#e3e4e5;fill-opacity:1;fill-rule:nonzero;stroke:#000000;stroke-width:1.12089324;stroke-linecap:butt;stroke-linejoin:miter;stroke-miterlimit:4;stroke-opacity:1;stroke-dasharray:none" />
            <path
               d="m -45.331013,1209.6439 c -6.149657,0.3391 -13.978704,-8.1812 -23.690006,-16.6423"
               id="path5075"
               style="fill:#e3e4e5;fill-opacity:1;fill-rule:nonzero;stroke:#000000;stroke-width:1.12089324;stroke-linecap:butt;stroke-linejoin:miter;stroke-miterlimit:4;stroke-opacity:1;stroke-dasharray:none" />
            <path
               d="m -46.302605,1229.303 c -7.096847,-1.9229 -14.831597,-13.2145 -23.300366,-24.2527"
               id="path5077"
               style="fill:#e3e4e5;fill-opacity:1;fill-rule:nonzero;stroke:#000000;stroke-width:1.12089324;stroke-linecap:butt;stroke-linejoin:miter;stroke-miterlimit:4;stroke-opacity:1;stroke-dasharray:none" />
            <path
               d="m -57.675971,1244.5142 c -6.035843,-6.376 -12.488713,-16.471 -19.218678,-29.0383"
               id="path5079"
               style="fill:#e3e4e5;fill-opacity:1;fill-rule:nonzero;stroke:#000000;stroke-width:1.12089324;stroke-linecap:butt;stroke-linejoin:miter;stroke-miterlimit:4;stroke-opacity:1;stroke-dasharray:none" />
            <path
               d="m -64.691101,1259.3804 c -4.795445,-8.8342 -9.830922,-14.646 -15.440167,-29.7559"
               id="path5081"
               style="fill:#e3e4e5;fill-opacity:1;fill-rule:nonzero;stroke:#000000;stroke-width:1.12089324;stroke-linecap:butt;stroke-linejoin:miter;stroke-miterlimit:4;stroke-opacity:1;stroke-dasharray:none" />
            <path
               d="m -76.798976,1106.2985 10.828256,-1.5981"
               id="path5083"
               style="fill:#e3e4e5;fill-opacity:1;fill-rule:nonzero;stroke:#000000;stroke-width:1.12089324;stroke-linecap:butt;stroke-linejoin:miter;stroke-miterlimit:4;stroke-opacity:1;stroke-dasharray:none" />
            <path
               d="m -74.935668,1115.9878 9.169223,-0.8028"
               id="path5085"
               style="fill:#e3e4e5;fill-opacity:1;fill-rule:nonzero;stroke:#000000;stroke-width:1.12089324;stroke-linecap:butt;stroke-linejoin:miter;stroke-miterlimit:4;stroke-opacity:1;stroke-dasharray:none" />
            <path
               d="m -72.928966,1125.2237 9.606068,0.7834"
               id="path5087"
               style="fill:#e3e4e5;fill-opacity:1;fill-rule:nonzero;stroke:#000000;stroke-width:1.12089324;stroke-linecap:butt;stroke-linejoin:miter;stroke-miterlimit:4;stroke-opacity:1;stroke-dasharray:none" />
            <path
               d="m -73.448404,1135.0288 10.042845,2.3698"
               id="path5089"
               style="fill:#e3e4e5;fill-opacity:1;fill-rule:nonzero;stroke:#000000;stroke-width:1.12089324;stroke-linecap:butt;stroke-linejoin:miter;stroke-miterlimit:4;stroke-opacity:1;stroke-dasharray:none" />
            <path
               d="m -75.087629,1144.6649 10.008754,3.2201"
               id="path5091"
               style="fill:#e3e4e5;fill-opacity:1;fill-rule:nonzero;stroke:#000000;stroke-width:1.12089324;stroke-linecap:butt;stroke-linejoin:miter;stroke-miterlimit:4;stroke-opacity:1;stroke-dasharray:none" />
            <path
               d="m -75.859691,1154.527 10.766557,3.0493"
               id="path5093"
               style="fill:#e3e4e5;fill-opacity:1;fill-rule:nonzero;stroke:#000000;stroke-width:1.12089324;stroke-linecap:butt;stroke-linejoin:miter;stroke-miterlimit:4;stroke-opacity:1;stroke-dasharray:none" />
            <path
               d="m -76.918573,1165.2962 9.865292,3.6737"
               id="path5095"
               style="fill:#e3e4e5;fill-opacity:1;fill-rule:nonzero;stroke:#000000;stroke-width:1.12089324;stroke-linecap:butt;stroke-linejoin:miter;stroke-miterlimit:4;stroke-opacity:1;stroke-dasharray:none" />
            <path
               d="m -78.120929,1176.5187 7.810241,4.9794"
               id="path5097"
               style="fill:#e3e4e5;fill-opacity:1;fill-rule:nonzero;stroke:#000000;stroke-width:1.12089324;stroke-linecap:butt;stroke-linejoin:miter;stroke-miterlimit:4;stroke-opacity:1;stroke-dasharray:none" />
            <path
               d="m -80.770477,1186.3828 8.206235,4.4688"
               id="path5099"
               style="fill:#e3e4e5;fill-opacity:1;fill-rule:nonzero;stroke:#000000;stroke-width:1.12089324;stroke-linecap:butt;stroke-linejoin:miter;stroke-miterlimit:4;stroke-opacity:1;stroke-dasharray:none" />
            <path
               d="m -82.088664,1194.2619 6.94316,4.7534"
               id="path5101"
               style="fill:#e3e4e5;fill-opacity:1;fill-rule:nonzero;stroke:#000000;stroke-width:1.12089324;stroke-linecap:butt;stroke-linejoin:miter;stroke-miterlimit:4;stroke-opacity:1;stroke-dasharray:none" />
            <path
               d="m -83.768578,1201.8013 6.874698,6.4537"
               id="path5103"
               style="fill:#e3e4e5;fill-opacity:1;fill-rule:nonzero;stroke:#000000;stroke-width:1.12089324;stroke-linecap:butt;stroke-linejoin:miter;stroke-miterlimit:4;stroke-opacity:1;stroke-dasharray:none" />
            <path
               d="m -86.568258,1209.1719 5.147239,8.949"
               id="path5105"
               style="fill:#e3e4e5;fill-opacity:1;fill-rule:nonzero;stroke:#000000;stroke-width:1.12089324;stroke-linecap:butt;stroke-linejoin:miter;stroke-miterlimit:4;stroke-opacity:1;stroke-dasharray:none" />
            <path
               d="m -100.05017,1253.9457 c 0.79093,-5.8543 -0.0612,-13.7778 -0.39302,-23.7093"
               id="path5107"
               style="fill:#e3e4e5;fill-opacity:1;fill-rule:nonzero;stroke:#000000;stroke-width:1.12089324;stroke-linecap:butt;stroke-linejoin:miter;stroke-miterlimit:4;stroke-opacity:1;stroke-dasharray:none" />
            <path
               d="m -91.254517,1259.7073 c -0.296555,-7.2609 -2.826751,-18.7361 -4.807499,-32.1132"
               id="path5109"
               style="fill:#e3e4e5;fill-opacity:1;fill-rule:nonzero;stroke:#000000;stroke-width:1.12089324;stroke-linecap:butt;stroke-linejoin:miter;stroke-miterlimit:4;stroke-opacity:1;stroke-dasharray:none" />
            <path
               d="m -84.688323,1250.4835 -8.09614,-28.4959"
               id="path5111"
               style="fill:#e3e4e5;fill-opacity:1;fill-rule:nonzero;stroke:#000000;stroke-width:1.12089324;stroke-linecap:butt;stroke-linejoin:miter;stroke-miterlimit:4;stroke-opacity:1;stroke-dasharray:none" />
            <path
               d="m -84.899209,1224.9162 -4.636674,-8.1672"
               id="path5113"
               style="fill:#e3e4e5;fill-opacity:1;fill-rule:nonzero;stroke:#000000;stroke-width:1.12089324;stroke-linecap:butt;stroke-linejoin:miter;stroke-miterlimit:4;stroke-opacity:1;stroke-dasharray:none" />
          </g>
          <g
             transform="translate(-5.4929577,-173.94366)"
             id="g3551"
             style="stroke:#000000;stroke-width:1.10584712;stroke-miterlimit:4;stroke-opacity:1;stroke-dasharray:none">
            <path
               d="m 207.92708,650.33101 c 7.17878,-5.23214 30.02669,-4.63099 40.08634,-1.47995 8.35385,2.61681 29.46076,3.84228 39.30296,0.84001 -2.46043,4.42624 -20.33065,7.22026 -36.8281,5.09829 5.96346,4.98959 6.18135,7.30399 32.25434,14.55707 -7.06908,-0.43578 -14.75512,-2.47431 -25.21023,-4.91004 -9.10651,-2.12147 -18.80766,-9.27441 -27.99002,-8.58664 -9.50794,2.51747 -16.20299,-0.2871 -21.61529,-5.51874 z"
               id="path5151"
               style="fill:#e3e4e5;fill-opacity:1;fill-rule:nonzero;stroke:#000000;stroke-width:1.10584712;stroke-linecap:butt;stroke-linejoin:miter;stroke-miterlimit:4;stroke-opacity:1;stroke-dasharray:none" />
            <path
               d="m 210.50181,661.97441 c 0,1.34421 -1.28942,2.43513 -2.87819,2.43513 -1.58876,0 -2.87819,-1.09092 -2.87819,-2.43513 0,-1.3441 1.28943,-2.43502 2.87819,-2.43502 1.58877,0 2.87819,1.09092 2.87819,2.43502 z"
               id="path5153"
               style="fill:#e3e4e5;fill-opacity:1;fill-rule:nonzero;stroke:#000000;stroke-width:1.10584712;stroke-linecap:butt;stroke-linejoin:miter;stroke-miterlimit:4;stroke-opacity:1;stroke-dasharray:none;stroke-dashoffset:0" />
            <path
               d="m 208.18536,661.86194 c 0,0.49743 -0.43358,0.90118 -0.96781,0.90118 -0.53424,0 -0.96782,-0.40375 -0.96782,-0.90118 0,-0.49743 0.43358,-0.90118 0.96782,-0.90118 0.53423,0 0.96781,0.40375 0.96781,0.90118 z"
               id="path5155"
               style="fill:#000000;fill-opacity:1;fill-rule:nonzero;stroke:#000000;stroke-width:1.10584712;stroke-linecap:butt;stroke-linejoin:miter;stroke-miterlimit:4;stroke-opacity:1;stroke-dasharray:none;stroke-dashoffset:0" />
            <g
               transform="matrix(1.0000138,0,0,0.9944574,505.08871,-765.82466)"
               id="g5690"
               style="stroke:#000000;stroke-width:1.10891688;stroke-miterlimit:4;stroke-opacity:1;stroke-dasharray:none">
              <path
                 d="m -317.90482,1438.5516 c -1.05111,0.582 -54.53118,26.8572 -54.53118,26.8572 l 64.70413,-23.8154 c 0.0926,-3.8029 -6.15374,-2.508 -10.17295,-3.0418 z"
                 id="path5149"
                 style="fill:#ed1c24;fill-opacity:1;fill-rule:nonzero;stroke:#000000;stroke-width:1.10891688;stroke-linecap:butt;stroke-linejoin:miter;stroke-miterlimit:4;stroke-opacity:1;stroke-dasharray:none" />
              <path
                 d="m -372.4741,1465.581 60.06517,-15.7903 c -0.29177,-2.1494 1.36033,-4.7987 4.83706,-8.0524 l -64.90223,23.8427 z"
                 id="path5157"
                 style="fill:#ed1c24;fill-opacity:1;fill-rule:nonzero;stroke:#000000;stroke-width:1.10891688;stroke-linecap:butt;stroke-linejoin:miter;stroke-miterlimit:4;stroke-opacity:1;stroke-dasharray:none" />
            </g>
          </g>
        </g>
        <path
           d="m 240.85807,189.39345 1.2552,0.54662 -4e-5,-2e-5 1.21811,2.40735 c 1.68348,1.56237 2.82809,-1.98359 2.6169,-3.02781 -0.64494,0.71748 -0.43206,2.40336 -1.21682,2.26791 -1.5104,-0.34278 -1.20507,-1.34271 -1.74715,-2.03593 0.61335,0.6325 1.54535,-0.67181 2.38816,-1.43406 -1.08279,0.60218 -2.12345,1.14191 -2.54751,0.76747 l -1.25521,-0.54662 -4.08253,-1.21152 -2.85071,-2.81056 -0.96362,0.72272 3.01131,3.01131 4.17391,1.34314 z"
           id="path15101"
           style="fill:#ed1c24;fill-opacity:1;fill-rule:evenodd;stroke:#000000;stroke-width:0.28578889;stroke-linecap:butt;stroke-linejoin:miter;stroke-miterlimit:4;stroke-opacity:1;stroke-dasharray:none" />
      </g>
      <use
         transform="translate(0,64.163978)"
         id="use3949"
         x="0"
         y="0"
         width="425.51788"
         height="500"
         xlink:href="#g3897" />
      <use
         transform="translate(0,128.32796)"
         id="use3949-1"
         x="0"
         y="0"
         width="425.51788"
         height="500"
         xlink:href="#g3897" />
    </g>
  </g>
</svg>
