<?xml version="1.0" encoding="UTF-8" standalone="no"?>
<!-- Created with Inkscape (http://www.inkscape.org/) -->

<svg
   xmlns:dc="http://purl.org/dc/elements/1.1/"
   xmlns:cc="http://creativecommons.org/ns#"
   xmlns:rdf="http://www.w3.org/1999/02/22-rdf-syntax-ns#"
   xmlns:svg="http://www.w3.org/2000/svg"
   xmlns="http://www.w3.org/2000/svg"
   xmlns:xlink="http://www.w3.org/1999/xlink"
   version="1.0"
   width="700"
   height="1100"
   id="svg3194">
  <defs
     id="defs3196">
    <linearGradient
       id="linearGradient9210">
      <stop
         id="stop9212"
         style="stop-color:#eac102;stop-opacity:1"
         offset="0" />
      <stop
         id="stop9214"
         style="stop-color:#e2a602;stop-opacity:1"
         offset="1" />
    </linearGradient>
    <radialGradient
       cx="364.90109"
       cy="470.32138"
       r="49.743042"
       fx="364.90109"
       fy="470.32138"
       id="radialGradient4751"
       xlink:href="#linearGradient9210"
       gradientUnits="userSpaceOnUse"
       gradientTransform="matrix(1,0,0,6.4207023,0,-2549.4722)" />
  </defs>
  <metadata
     id="metadata3199">
    <rdf:RDF>
      <cc:Work
         rdf:about="">
        <dc:format>image/svg+xml</dc:format>
        <dc:type
           rdf:resource="http://purl.org/dc/dcmitype/StillImage" />
        <dc:title></dc:title>
      </cc:Work>
      <cc:Work
         rdf:about="">
        <dc:format>image/svg+xml</dc:format>
        <dc:type
           rdf:resource="http://purl.org/dc/dcmitype/StillImage" />
      </cc:Work>
    </rdf:RDF>
  </metadata>
  <path
     d="m 132.86647,806.88151 c 0.20428,120.74473 -0.41112,241.50279 0.31223,362.23909 3.84688,108.3566 86.78731,207.3262 192.69986,230.2097 97.98283,23.8699 207.6723,-19.0271 262.97739,-103.6213 33.12209,-47.3107 45.3201,-105.8601 42.58894,-162.8524 0,-108.6584 0,-217.31673 0,-325.97509 -166.19277,0 -332.38555,0 -498.57842,0 z"
     id="path4560"
     style="fill:none;stroke:none;stroke-width:1;marker:none;visibility:visible;display:inline;overflow:visible;enable-background:accumulate" />
  <g
     transform="translate(39.9579,460.66189)"
     id="layer3"
     style="display:inline" />
  <g
     transform="translate(39.9579,460.66189)"
     id="layer1"
     style="display:inline" />
  <g
     transform="translate(96.3867,384.02189)"
     id="layer4"
     style="display:inline" />
  <g
     transform="translate(96.3867,384.02189)"
     id="layer5"
     style="display:inline">
    <rect
       width="0"
       height="21.555748"
       x="-1189.8395"
       y="647.45184"
       id="rect2743"
       style="fill:#e3e4e5;fill-opacity:1;fill-rule:evenodd;stroke:#0c0909;stroke-width:1;stroke-miterlimit:4;stroke-opacity:1;stroke-dasharray:none" />
  </g>
  <g
     transform="translate(96.3867,384.02189)"
     id="layer2" />
  <g
     transform="translate(4.8996612,81.000009)"
     id="g4544">
    <path
       d="m 634.79256,470.40612 c -18.44835,-0.63856 -39.81052,-5.80334 -54.90401,-14.07763 10.61572,-2.5155 22.42685,-8.01221 29.66136,-15.01264"
       id="path5945"
       style="fill:#eac102;fill-opacity:1;fill-rule:evenodd;stroke:#000000;stroke-width:1;stroke-linecap:butt;stroke-linejoin:miter;stroke-miterlimit:4;stroke-opacity:1;stroke-dasharray:none" />
    <path
       d="m 532.93981,418.83832 c 0,16.90709 0,33.81418 0,50.72127 18.76604,20.9006 35.8979,40.57558 62.42616,56.57372 20.00859,10.93735 40.83426,28.81985 52.67209,53.64748 20.10176,-23.30947 22.6364,-52.74702 -0.56687,-79.73332 -13.88052,-9.85442 -34.29766,-15.21495 -53.08062,-19.75838 -12.01441,-1.29207 -12.58976,-10.34638 1.95082,-8.77868 18.09034,8.1877 55.79052,8.20465 75.10648,-9.7541 -42.90105,21.23681 -106.63754,-1.64848 -138.50806,-42.91799 z"
       id="path5941"
       style="fill:#e3e4e5;fill-opacity:1;fill-rule:evenodd;stroke:#000000;stroke-width:1;stroke-linecap:butt;stroke-linejoin:miter;stroke-miterlimit:4;stroke-opacity:1;stroke-dasharray:none" />
    <path
       d="m 526.59134,352.68002 c 18.15389,17.04507 51.69059,15.45095 80.29456,3.76166 18.96044,-9.65962 33.45569,-21.63335 49.60032,-43.15781 1.02335,-1.36435 2.05072,-0.95851 0.84586,0.74214 -13.45798,18.59656 -38.82812,43.21927 -65.45955,48.36211 10.37908,5.86476 27.48503,5.70339 42.76911,-4.268 10.68485,-7.00291 31.03957,-13.58539 35.27784,0.29302 0.10617,6.96469 -5.95396,8.04337 -10.19223,8.28119 13.19468,6.47207 28.93743,3.51631 25.85003,-20.60103 -2.31449,-9.04984 -9.71234,-22.92826 -29.67211,-13.16071 46.92669,-20.59678 41.61824,-98.52484 -5.73313,-132.49891 -24.84354,-22.29549 -48.95628,-43.02189 -38.12705,-68.50244 1.86151,-2.5449 7.33014,-12.51899 19.74744,-1.56909 -2.04066,-12.97738 -28.73729,-26.98062 -44.04775,-5.09611 -15.45379,26.13971 -4.88377,55.63255 18.4734,77.7157 28.02862,22.50782 47.13903,38.64552 42.04292,59.87931 3.39741,-33.33707 -35.2481,-41.83058 -45.22799,-33.76174 -19.11041,14.01431 -10.19222,46.50201 13.3773,54.14618 -11.04158,-16.56236 -4.25609,-28.15707 10.1829,-23.06097 38.97038,24.65475 -41.3265,139.77629 -98.8302,93.32981 -3.3725,-2.72401 -2.85346,-2.47319 -1.17167,-0.83431 z"
       id="path5977"
       style="fill:#ed1c24;fill-opacity:1;fill-rule:evenodd;stroke:#000000;stroke-width:1;stroke-linecap:butt;stroke-linejoin:miter;stroke-miterlimit:4;stroke-opacity:1;stroke-dasharray:none" />
    <path
       d="m 593.77742,742.297 c 5.83748,14.7206 20.81187,24.87272 47.20741,22.8423 19.96586,-9.89833 26.22634,-25.63414 25.38032,-43.40036 -0.423,-14.2976 -11.25194,-24.28052 -28.42596,-26.14174 -13.19776,-1.26901 -18.27383,14.97439 -6.34508,15.22819 -1.60742,-4.31466 -1.94582,-7.10648 2.28423,-9.89832 7.19109,0.76141 11.08274,7.61409 8.37551,17.51242 -3.21485,6.93729 -8.20631,11.08274 -17.00482,15.482 2.36882,-9.30612 -2.62264,-16.32801 -11.16735,-16.49722 10.49055,11.08275 -3.38404,28.51057 -20.30426,24.87273 z"
       id="path5943"
       style="fill:#e3e4e5;fill-opacity:1;fill-rule:evenodd;stroke:#000000;stroke-width:1;stroke-linecap:butt;stroke-linejoin:miter;stroke-miterlimit:4;stroke-opacity:1;stroke-dasharray:none" />
    <path
       d="m 593.24572,119.53065 c 12.65386,-3.90932 22.22141,-4.73234 34.25801,4.0122 14.60852,19.03224 -0.41151,28.49691 -11.72797,14.50566 5.04097,24.99909 19.03223,26.54224 29.01129,19.44373 -4.52658,24.69047 18.41497,41.66515 31.78898,41.66515 -7.09851,-3.70356 -10.49345,-10.80207 -9.25893,-24.0732 1.74891,-12.75673 -1.7489,-18.10634 -5.86398,-24.38182 12.96249,13.88838 33.33212,-0.61726 20.36963,-17.59195 0.10287,11.21357 -5.65823,12.55098 -10.80208,7.71576 -2.46905,-4.21796 -4.93809,-8.43591 -7.40714,-12.65387 -5.96686,-14.91715 -21.80991,-22.11853 -29.01129,-13.27111 11.83084,10.49344 18.10634,17.28332 21.60415,36.10979 -5.24672,-19.85524 -9.25892,-25.82211 -22.83868,-36.72706 -11.41933,-6.37837 -28.0854,-5.3496 -40.12199,5.24672 z"
       id="path5937"
       style="fill:#eac102;fill-opacity:1;fill-rule:evenodd;stroke:#000000;stroke-width:1;stroke-linecap:butt;stroke-linejoin:miter;stroke-miterlimit:4;stroke-opacity:1;stroke-dasharray:none" />
    <path
       d="m 55.408118,470.40612 c 18.44835,-0.63856 39.81052,-5.80334 54.904012,-14.07763 -10.615722,-2.5155 -22.426852,-8.01221 -29.661362,-15.01264"
       id="path4433"
       style="fill:#eac102;fill-opacity:1;fill-rule:evenodd;stroke:#000000;stroke-width:1;stroke-linecap:butt;stroke-linejoin:miter;stroke-miterlimit:4;stroke-opacity:1;stroke-dasharray:none" />
    <path
       d="m 157.26087,418.83832 c 0,16.90709 0,33.81418 0,50.72127 -18.76604,20.9006 -35.8979,40.57558 -62.426162,56.57372 -20.00859,10.93735 -40.83426,28.81985 -52.67209,53.64748 -20.10176,-23.30947 -22.6364,-52.74702 0.56687,-79.73332 13.88052,-9.85442 34.29766,-15.21495 53.08062,-19.75838 12.014412,-1.29207 12.589762,-10.34638 -1.95082,-8.77868 -18.09034,8.1877 -55.79052,8.20465 -75.10648,-9.7541 42.90105,21.23681 106.637542,-1.64848 138.508062,-42.91799 z"
       id="path4435"
       style="fill:#e3e4e5;fill-opacity:1;fill-rule:evenodd;stroke:#000000;stroke-width:1;stroke-linecap:butt;stroke-linejoin:miter;stroke-miterlimit:4;stroke-opacity:1;stroke-dasharray:none" />
    <path
       d="m 163.60934,352.68002 c -18.15389,17.04507 -51.69059,15.45095 -80.294562,3.76166 -18.96044,-9.65962 -33.45569,-21.63335 -49.60032,-43.15781 -1.02335,-1.36435 -2.05072,-0.95851 -0.84586,0.74214 13.45798,18.59656 38.82812,43.21927 65.45955,48.36211 -10.37908,5.86476 -27.48503,5.70339 -42.76911,-4.268 -10.68485,-7.00291 -31.03957,-13.58539 -35.27784,0.29302 -0.10617,6.96469 5.95396,8.04337 10.19223,8.28119 -13.19468,6.47207 -28.9374304,3.51631 -25.8500304,-20.60103 2.31449,-9.04984 9.7123404,-22.92826 29.6721104,-13.16071 -46.92669,-20.59678 -41.6182404,-98.52484 5.73313,-132.49891 24.84354,-22.29549 48.95628,-43.02189 38.12705,-68.50244 -1.86151,-2.5449 -7.33014,-12.51899 -19.74744,-1.56909 2.04066,-12.97738 28.73729,-26.98062 44.047752,-5.09611 15.45379,26.13971 4.88377,55.63255 -18.473402,77.7157 -28.02862,22.50782 -47.13903,38.64552 -42.04292,59.87931 -3.39741,-33.33707 35.2481,-41.83058 45.22799,-33.76174 19.110412,14.01431 10.19222,46.50201 -13.3773,54.14618 11.04158,-16.56236 4.25609,-28.15707 -10.1829,-23.06097 -38.97038,24.65475 41.326502,139.77629 98.830202,93.32981 3.3725,-2.72401 2.85346,-2.47319 1.17167,-0.83431 z"
       id="path4437"
       style="fill:#ed1c24;fill-opacity:1;fill-rule:evenodd;stroke:#000000;stroke-width:1;stroke-linecap:butt;stroke-linejoin:miter;stroke-miterlimit:4;stroke-opacity:1;stroke-dasharray:none" />
    <path
       d="m 96.423258,742.297 c -5.83748,14.7206 -20.81187,24.87272 -47.20741,22.8423 -19.96586,-9.89833 -26.22634,-25.63414 -25.38032,-43.40036 0.423,-14.2976 11.25194,-24.28052 28.42596,-26.14174 13.19776,-1.26901 18.27383,14.97439 6.34508,15.22819 1.60742,-4.31466 1.94582,-7.10648 -2.28423,-9.89832 -7.19109,0.76141 -11.08274,7.61409 -8.37551,17.51242 3.21485,6.93729 8.20631,11.08274 17.00482,15.482 -2.36882,-9.30612 2.62264,-16.32801 11.16735,-16.49722 -10.49055,11.08275 3.38404,28.51057 20.30426,24.87273 z"
       id="path4439"
       style="fill:#e3e4e5;fill-opacity:1;fill-rule:evenodd;stroke:#000000;stroke-width:1;stroke-linecap:butt;stroke-linejoin:miter;stroke-miterlimit:4;stroke-opacity:1;stroke-dasharray:none" />
    <path
       d="m 96.954958,119.53065 c -12.65386,-3.90932 -22.22141,-4.73234 -34.25801,4.0122 -14.60852,19.03224 0.41151,28.49691 11.72797,14.50566 -5.04097,24.99909 -19.03223,26.54224 -29.01129,19.44373 4.52658,24.69047 -18.41497,41.66515 -31.78898,41.66515 7.09851,-3.70356 10.49345,-10.80207 9.25893,-24.0732 -1.74891,-12.75673 1.7489,-18.10634 5.86398,-24.38182 -12.96249,13.88838 -33.3321204,-0.61726 -20.3696304,-17.59195 -0.10287,11.21357 5.6582304,12.55098 10.8020804,7.71576 2.46905,-4.21796 4.93809,-8.43591 7.40714,-12.65387 5.96686,-14.91715 21.80991,-22.11853 29.01129,-13.27111 -11.83084,10.49344 -18.10634,17.28332 -21.60415,36.10979 5.24672,-19.85524 9.25892,-25.82211 22.83868,-36.72706 11.41933,-6.37837 28.0854,-5.3496 40.12199,5.24672 z"
       id="path4441"
       style="fill:#eac102;fill-opacity:1;fill-rule:evenodd;stroke:#000000;stroke-width:1;stroke-linecap:butt;stroke-linejoin:miter;stroke-miterlimit:4;stroke-opacity:1;stroke-dasharray:none" />
    <path
       d="m 91.712894,171.36271 498.992376,0 0,458.13624 c 0,171.96267 -191.91988,58.03698 -249.49682,154.76675 C 283.63273,687.53593 91.712894,790.71362 91.712894,629.49895 l 0,-458.13624 z"
       id="svg_252"
       style="fill:#eac102;fill-opacity:1;stroke:#000000;stroke-width:1;stroke-miterlimit:4" />
    <path
       d="m 93.142817,171.8953 c 0.156728,94.32589 -0.133366,188.66276 0.03162,282.98863 l 496.787443,0 c 0,-94.32302 0,-188.66559 0,-282.98865 -165.60128,0 -331.21633,0 -496.819054,0 l 0,0 0,0 z"
       id="svg_251"
       style="fill:#ed1c24;fill-rule:evenodd;stroke-width:3" />
    <path
       d="m 291.58066,215.68371 0,23.89903 29.87378,0 0,50.34198 -50.78542,0 0,-29.87377 -23.89903,0 0,97.08978 23.89903,0 0,-29.87378 50.78542,0 0,50.78542 -29.87378,0 0,23.89903 97.08979,0 0,-23.89903 -29.87378,0 0,-50.78542 50.34198,0 0,29.87378 23.89903,0 0,-97.08978 -23.89903,0 0,29.87377 -50.34198,0 0,-50.34198 29.87378,0 0,-23.89902 z"
       id="rect6017"
       style="fill:#e3e4e5;fill-opacity:1;stroke:#000000;stroke-width:0.74684447" />
    <path
       d="m 321.45444,289.92472 -50.78542,0 0,-29.87377 -23.89903,0 0,48.54489 186.26769,0 0,48.54489 -23.89903,0 0,-29.87378 -50.34198,0 z m 37.34223,0 0,-50.34198 29.87378,0 0,-23.89903 -48.5449,0 0,186.26769 -48.54489,0 0,-23.89903 29.87378,0 0,-50.78542 z"
       id="path6039"
       style="fill:#000000;fill-opacity:1;stroke:#000000;stroke-width:1;stroke-miterlimit:4;stroke-dasharray:none" />
    <g
       transform="translate(87.238855,188.18521)"
       id="g7378">
      <path
         d="m 249.60465,312.90006 c 5.28673,53.16459 4.38337,114.33733 2.21313,153.82619 -0.0842,1.53174 0.20467,5.88815 -0.25799,4.4956 -8.3926,-38.0367 -15.77775,-51.22396 -17.19377,-51.26097 -2.88771,-0.0755 13.60138,52.81046 13.02889,88.15726 0.0901,7.88399 7.83554,6.00565 9.10086,1.39425 8.72338,-47.17072 21.11277,-76.85661 21.00395,-82.1578 -0.0864,-4.20969 -6.90506,7.80725 -18.52218,42.8832 -0.35091,1.05953 0.0884,-2.23026 0.12965,-3.34492 2.70761,-73.1799 -3.03321,-144.73068 -9.50254,-153.99281 z"
         id="path3210"
         style="fill:#008f4c;fill-rule:evenodd;stroke:#000000;stroke-width:0.5;stroke-linecap:butt;stroke-linejoin:miter;stroke-miterlimit:4;stroke-opacity:1;stroke-dasharray:none" />
      <path
         d="m 263.09715,340.04293 c -12.50085,-1.91512 -12.50085,-1.91512 -12.50085,-1.91512 -18.5894,-35.96623 10.45108,-26.69113 12.76186,-41.54531 -2.32264,14.92628 28.36923,14.76041 -0.26101,43.46043 z"
         id="path3180"
         style="fill:#0071bc;fill-rule:evenodd;stroke:#000000;stroke-width:0.5;stroke-linecap:butt;stroke-linejoin:miter;stroke-miterlimit:4;stroke-opacity:1;stroke-dasharray:none" />
      <path
         d="m 250.50276,338.35626 c -5.68438,11.29721 -5.68438,11.29721 -5.68438,11.29721 -39.95035,6.56539 -22.1552,-18.18759 -35.56829,-24.97546 13.478,6.82143 22.80455,-22.41952 41.25267,13.67825 z"
         id="path3182"
         style="fill:#0071bc;fill-rule:evenodd;stroke:#000000;stroke-width:0.5;stroke-linecap:butt;stroke-linejoin:miter;stroke-miterlimit:4;stroke-opacity:1;stroke-dasharray:none" />
      <path
         d="m 244.97648,349.2686 c 8.98771,8.89718 8.98771,8.89718 8.98771,8.89718 -6.10128,40.02388 -24.14374,15.4506 -34.74428,26.10964 10.65251,-10.71039 -14.27523,-28.61642 25.75657,-35.00682 z"
         id="path3184"
         style="fill:#0071bc;fill-rule:evenodd;stroke:#000000;stroke-width:0.5;stroke-linecap:butt;stroke-linejoin:miter;stroke-miterlimit:4;stroke-opacity:1;stroke-dasharray:none" />
      <path
         d="m 253.7632,358.26922 c 11.23908,-5.79844 11.23908,-5.79844 11.23908,-5.79844 36.17957,18.17071 7.23355,27.73656 14.09516,41.11208 -6.8944,-13.44083 -31.62713,4.7336 -25.33424,-35.31364 z"
         id="path3186"
         style="fill:#0071bc;fill-rule:evenodd;stroke:#000000;stroke-width:0.5;stroke-linecap:butt;stroke-linejoin:miter;stroke-miterlimit:4;stroke-opacity:1;stroke-dasharray:none" />
      <path
         d="m 265.38846,352.75263 c -2.04157,-12.48081 -2.04157,-12.48081 -2.04157,-12.48081 28.46149,-28.79377 28.61432,1.69155 43.45557,-0.70097 -14.91346,2.40352 -5.2714,31.54196 -41.414,13.18178 z"
         id="path3188"
         style="fill:#0071bc;fill-rule:evenodd;stroke:#000000;stroke-width:0.5;stroke-linecap:butt;stroke-linejoin:miter;stroke-miterlimit:4;stroke-opacity:1;stroke-dasharray:none" />
      <path
         d="m 266.03875,349.12969 a 10.319963,10.280386 8.7099878 1 1 -20.40189,-3.12557 10.319963,10.280386 8.7099878 0 1 20.40189,3.12557 z"
         id="path3178"
         style="fill:#eac102;fill-opacity:1;stroke:#000000;stroke-width:0.5;stroke-linejoin:round;stroke-miterlimit:4;stroke-opacity:1;stroke-dasharray:none" />
      <path
         d="m 250.89849,515.07711 c 1.76335,0.23365 9.33932,-1.28159 10.56758,-2.78957 27.03045,-39.6299 50.35334,-61.78372 52.3947,-66.67733 1.62104,-3.886 -9.46991,4.35362 -34.2631,31.75029 -0.74891,0.82757 0.98157,-2.0046 1.46947,-3.00767 32.03102,-65.85317 55.67532,-133.62794 53.49756,-144.71383 -16.63434,50.77129 -42.16565,106.36869 -60.0988,141.61755 -0.69561,1.36727 -2.19071,5.46927 -2.05158,4.0085 7.68354,-38.18625 6.25319,-53.2328 4.97273,-53.83852 -2.34733,-1.1104 -7.65409,43.25374 -19.45253,75.55397"
         id="path6156"
         style="fill:#008f4c;fill-rule:evenodd;stroke:#000000;stroke-width:0.5;stroke-linecap:butt;stroke-linejoin:miter;stroke-miterlimit:4;stroke-opacity:1;stroke-dasharray:none" />
      <path
         d="M 338.60763,351.78047 C 327.945,344.97994 327.945,344.97994 327.945,344.97994 c -2.48089,-40.41016 20.34022,-20.19694 28.45311,-32.85267 -8.15286,12.7169 19.99177,24.9602 -17.79048,39.6532 z"
         id="path6160"
         style="fill:#0071bc;fill-rule:evenodd;stroke:#000000;stroke-width:0.5;stroke-linecap:butt;stroke-linejoin:miter;stroke-miterlimit:4;stroke-opacity:1;stroke-dasharray:none" />
      <path
         d="m 327.76716,345.15116 c -9.76262,8.03929 -9.76262,8.03929 -9.76262,8.03929 -39.19899,-10.12797 -12.92295,-25.58591 -22.45225,-37.21256 9.57512,11.68356 29.91636,-11.30017 32.21487,29.17327 z"
         id="path6162"
         style="fill:#0071bc;fill-rule:evenodd;stroke:#000000;stroke-width:0.5;stroke-linecap:butt;stroke-linejoin:miter;stroke-miterlimit:4;stroke-opacity:1;stroke-dasharray:none" />
      <path
         d="m 318.30459,352.90221 c 4.629,11.76908 4.629,11.76908 4.629,11.76908 -21.74542,34.15074 -28.32705,4.38399 -42.32937,9.85406 14.0706,-5.49606 -1.50243,-31.94409 37.70037,-21.62314 z"
         id="path6164"
         style="fill:#0071bc;fill-rule:evenodd;stroke:#000000;stroke-width:0.5;stroke-linecap:butt;stroke-linejoin:miter;stroke-miterlimit:4;stroke-opacity:1;stroke-dasharray:none" />
      <path
         d="m 322.70796,364.68474 c 12.62349,-0.7656 12.62349,-0.7656 12.62349,-0.7656 25.75958,31.23428 -4.58412,28.29536 -3.70873,43.30269 -0.87902,-15.08032 -30.84493,-8.44236 -8.91476,-42.53709 z"
         id="path6166"
         style="fill:#0071bc;fill-rule:evenodd;stroke:#000000;stroke-width:0.5;stroke-linecap:butt;stroke-linejoin:miter;stroke-miterlimit:4;stroke-opacity:1;stroke-dasharray:none" />
      <path
         d="m 335.5709,364.33295 c 3.17277,-12.24224 3.17277,-12.24224 3.17277,-12.24224 37.66571,-14.8469 25.4939,13.1035 40.03725,16.90848 -14.61387,-3.82407 -17.56078,26.72643 -43.21002,-4.66624 z"
         id="path6168"
         style="fill:#0071bc;fill-rule:evenodd;stroke:#000000;stroke-width:0.5;stroke-linecap:butt;stroke-linejoin:miter;stroke-miterlimit:4;stroke-opacity:1;stroke-dasharray:none" />
      <path
         d="m 337.62894,361.28123 a 10.319958,10.280381 32.529298 1 1 -17.40184,-11.09874 10.319958,10.280381 32.529298 1 1 17.40184,11.09874 z"
         id="path6170"
         style="fill:#eac102;fill-opacity:1;stroke:#000000;stroke-width:0.5;stroke-linejoin:round;stroke-miterlimit:4;stroke-opacity:1;stroke-dasharray:none" />
      <path
         d="m 251.97244,515.25572 c -1.46535,-0.0642 -3.83049,-1.12337 -4.84097,-2.31051 -27.88226,-39.03529 -51.67939,-60.67889 -53.82623,-65.52715 -1.70481,-3.84999 9.56194,4.14754 34.94256,31.00092 0.76666,0.81116 -1.02474,-1.98286 -1.53424,-2.97515 -33.4495,-65.14414 -58.55583,-132.39101 -56.61865,-143.52146 17.72984,50.39918 44.45907,105.4307 63.15129,140.28297 0.72506,1.35189 2.30863,5.42055 2.1379,3.96313 -8.50862,-38.01091 -7.40442,-53.0849 -6.13738,-53.71821 2.16611,-1.0827 7.7618,37.31831 18.64067,68.48555"
         id="path6156-6"
         style="fill:#008f4c;fill-rule:evenodd;stroke:#000000;stroke-width:0.5;stroke-linecap:butt;stroke-linejoin:miter;stroke-miterlimit:4;stroke-opacity:1;stroke-dasharray:none" />
      <path
         d="m 166.53238,354.14619 c 10.51287,-7.02982 10.51287,-7.02982 10.51287,-7.02982 1.60528,-40.45441 -20.77279,-19.75176 -29.15782,-32.22885 8.42631,12.53738 -19.4466,25.38725 18.64495,39.25867 z"
         id="path6160-5"
         style="fill:#0071bc;fill-rule:evenodd;stroke:#000000;stroke-width:0.5;stroke-linecap:butt;stroke-linejoin:miter;stroke-miterlimit:4;stroke-opacity:1;stroke-dasharray:none" />
      <path
         d="m 177.22676,347.28369 c 9.93442,7.82601 9.93442,7.82601 9.93442,7.82601 38.97048,-10.9744 12.36588,-25.85974 21.64118,-37.69001 -9.31988,11.88816 -30.15403,-10.64971 -31.5756,29.864 z"
         id="path6162-2"
         style="fill:#0071bc;fill-rule:evenodd;stroke:#000000;stroke-width:0.5;stroke-linecap:butt;stroke-linejoin:miter;stroke-miterlimit:4;stroke-opacity:1;stroke-dasharray:none" />
      <path
         d="m 186.85495,354.82803 c -4.37306,11.86655 -4.37306,11.86655 -4.37306,11.86655 22.47981,33.67186 28.41533,3.76957 42.53281,8.93515 -14.18631,-5.19008 0.81037,-31.96913 -38.15975,-20.8017 z"
         id="path6164-0"
         style="fill:#0071bc;fill-rule:evenodd;stroke:#000000;stroke-width:0.5;stroke-linecap:butt;stroke-linejoin:miter;stroke-miterlimit:4;stroke-opacity:1;stroke-dasharray:none" />
      <path
         d="m 182.70776,366.70315 c -12.63711,-0.49208 -12.63711,-0.49208 -12.63711,-0.49208 -25.07721,31.78475 5.19575,28.18946 4.64553,43.21223 0.55226,-15.09582 30.65488,-9.1083 7.99158,-42.72015 z"
         id="path6166-0"
         style="fill:#0071bc;fill-rule:evenodd;stroke:#000000;stroke-width:0.5;stroke-linecap:butt;stroke-linejoin:miter;stroke-miterlimit:4;stroke-opacity:1;stroke-dasharray:none" />
      <path
         d="m 169.84021,366.62997 c -3.43712,-12.17066 -3.43712,-12.17066 -3.43712,-12.17066 -37.97837,-14.02781 -25.20418,13.65247 -39.66172,17.77147 14.52763,-4.13962 18.13538,26.33991 43.09884,-5.60081 z"
         id="path6168-8"
         style="fill:#0071bc;fill-rule:evenodd;stroke:#000000;stroke-width:0.5;stroke-linecap:butt;stroke-linejoin:miter;stroke-miterlimit:4;stroke-opacity:1;stroke-dasharray:none" />
      <path
         d="M 167.71657,363.62354 A 10.280382,10.319959 56.229853 1 0 184.874,352.15058 10.280382,10.319959 56.229853 1 0 167.71657,363.62354 z"
         id="path6170-8"
         style="fill:#eac102;fill-opacity:1;stroke:#000000;stroke-width:0.5;stroke-linejoin:round;stroke-miterlimit:4;stroke-opacity:1;stroke-dasharray:none" />
      <path
         d="m 240.59845,394.38442 c -12.50084,-1.91512 -12.50084,-1.91512 -12.50084,-1.91512 -18.58941,-35.96623 10.45107,-26.69113 12.76185,-41.54531 -2.32263,14.92628 28.36923,14.76041 -0.26101,43.46043 z"
         id="path6224"
         style="fill:#0071bc;fill-rule:evenodd;stroke:#000000;stroke-width:0.5;stroke-linecap:butt;stroke-linejoin:miter;stroke-miterlimit:4;stroke-opacity:1;stroke-dasharray:none" />
      <path
         d="m 228.00406,392.69775 c -5.68437,11.29721 -5.68437,11.29721 -5.68437,11.29721 -39.95036,6.56539 -22.1552,-18.18759 -35.5683,-24.97546 13.478,6.82143 22.80455,-22.41952 41.25267,13.67825 z"
         id="path6226"
         style="fill:#0071bc;fill-rule:evenodd;stroke:#000000;stroke-width:0.5;stroke-linecap:butt;stroke-linejoin:miter;stroke-miterlimit:4;stroke-opacity:1;stroke-dasharray:none" />
      <path
         d="m 222.47778,403.61009 c 8.98771,8.89718 8.98771,8.89718 8.98771,8.89718 -6.10128,40.02388 -24.14374,15.45059 -34.74428,26.10964 10.65252,-10.7104 -14.27523,-28.61643 25.75657,-35.00682 z"
         id="path6228"
         style="fill:#0071bc;fill-rule:evenodd;stroke:#000000;stroke-width:0.5;stroke-linecap:butt;stroke-linejoin:miter;stroke-miterlimit:4;stroke-opacity:1;stroke-dasharray:none" />
      <path
         d="m 231.26451,412.61071 c 11.23907,-5.79844 11.23907,-5.79844 11.23907,-5.79844 36.17957,18.1707 7.23355,27.73656 14.09516,41.11208 -6.8944,-13.44083 -31.62713,4.7336 -25.33423,-35.31364 z"
         id="path6230"
         style="fill:#0071bc;fill-rule:evenodd;stroke:#000000;stroke-width:0.5;stroke-linecap:butt;stroke-linejoin:miter;stroke-miterlimit:4;stroke-opacity:1;stroke-dasharray:none" />
      <path
         d="M 242.88976,407.09412 C 240.8482,394.6133 240.8482,394.6133 240.8482,394.6133 c 28.46148,-28.79376 28.61431,1.69155 43.45556,-0.70096 -14.91346,2.40352 -5.2714,31.54196 -41.414,13.18178 z"
         id="path6232"
         style="fill:#0071bc;fill-rule:evenodd;stroke:#000000;stroke-width:0.5;stroke-linecap:butt;stroke-linejoin:miter;stroke-miterlimit:4;stroke-opacity:1;stroke-dasharray:none" />
      <path
         d="m 243.54006,403.47118 a 10.319965,10.280388 8.7099878 1 1 -20.4019,-3.12557 10.319965,10.280388 8.7099878 0 1 20.4019,3.12557 z"
         id="path6234"
         style="fill:#eac102;fill-opacity:1;stroke:#000000;stroke-width:0.5;stroke-linejoin:round;stroke-miterlimit:4;stroke-opacity:1;stroke-dasharray:none" />
      <path
         d="m 311.40989,410.40449 c -12.50084,-1.91513 -12.50084,-1.91513 -12.50084,-1.91513 -18.58941,-35.96623 10.45107,-26.69112 12.76185,-41.54531 -2.32263,14.92629 28.36923,14.76041 -0.26101,43.46044 z"
         id="path6238"
         style="fill:#0071bc;fill-rule:evenodd;stroke:#000000;stroke-width:0.5;stroke-linecap:butt;stroke-linejoin:miter;stroke-miterlimit:4;stroke-opacity:1;stroke-dasharray:none" />
      <path
         d="m 298.8155,408.71782 c -5.68437,11.2972 -5.68437,11.2972 -5.68437,11.2972 -39.95036,6.5654 -22.1552,-18.18758 -35.5683,-24.97545 13.478,6.82143 22.80455,-22.41952 41.25267,13.67825 z"
         id="path6240"
         style="fill:#0071bc;fill-rule:evenodd;stroke:#000000;stroke-width:0.5;stroke-linecap:butt;stroke-linejoin:miter;stroke-miterlimit:4;stroke-opacity:1;stroke-dasharray:none" />
      <path
         d="m 293.28922,419.63015 c 8.98771,8.89719 8.98771,8.89719 8.98771,8.89719 -6.10128,40.02388 -24.14374,15.45059 -34.74428,26.10964 10.65252,-10.7104 -14.27523,-28.61643 25.75657,-35.00683 z"
         id="path6242"
         style="fill:#0071bc;fill-rule:evenodd;stroke:#000000;stroke-width:0.5;stroke-linecap:butt;stroke-linejoin:miter;stroke-miterlimit:4;stroke-opacity:1;stroke-dasharray:none" />
      <path
         d="m 302.07595,428.63077 c 11.23907,-5.79844 11.23907,-5.79844 11.23907,-5.79844 36.17957,18.17071 7.23355,27.73656 14.09516,41.11209 -6.8944,-13.44084 -31.62713,4.7336 -25.33423,-35.31365 z"
         id="path6244"
         style="fill:#0071bc;fill-rule:evenodd;stroke:#000000;stroke-width:0.5;stroke-linecap:butt;stroke-linejoin:miter;stroke-miterlimit:4;stroke-opacity:1;stroke-dasharray:none" />
      <path
         d="m 313.7012,423.11418 c -2.04156,-12.48081 -2.04156,-12.48081 -2.04156,-12.48081 28.46148,-28.79376 28.61431,1.69155 43.45556,-0.70097 -14.91346,2.40353 -5.2714,31.54197 -41.414,13.18178 z"
         id="path6246"
         style="fill:#0071bc;fill-rule:evenodd;stroke:#000000;stroke-width:0.5;stroke-linecap:butt;stroke-linejoin:miter;stroke-miterlimit:4;stroke-opacity:1;stroke-dasharray:none" />
      <path
         d="m 314.3515,419.49125 a 10.319965,10.280388 8.7099878 1 1 -20.4019,-3.12557 10.319965,10.280388 8.7099878 0 1 20.4019,3.12557 z"
         id="path6248"
         style="fill:#eac102;fill-opacity:1;stroke:#000000;stroke-width:0.5;stroke-linejoin:round;stroke-miterlimit:4;stroke-opacity:1;stroke-dasharray:none" />
      <path
         d="m 255.51329,511.25167 c 31.69724,18.54455 57.10613,-19.2244 56.92929,-29.54661 -22.93704,-0.89249 -43.56755,8.44523 -56.92929,29.54661 z"
         id="path3236"
         style="fill:#008f4c;fill-rule:evenodd;stroke:#000000;stroke-width:0.5;stroke-linecap:butt;stroke-linejoin:miter;stroke-miterlimit:4;stroke-opacity:1;stroke-dasharray:none" />
      <path
         d="m 312.58172,481.86122 c -42.43942,33.93484 -57.42881,29.42827 -57.39777,29.32127"
         id="path3238"
         style="fill:#008f4c;stroke:#000000;stroke-width:0.5;stroke-linecap:butt;stroke-linejoin:miter;stroke-miterlimit:4;stroke-opacity:1;stroke-dasharray:none" />
    </g>
    <g
       transform="matrix(0.31214643,-0.6563164,-0.66675261,-0.28770912,553.75545,1256.1027)"
       id="g3633"
       style="fill:#784421;fill-opacity:1;stroke:#000000;stroke-width:1.37697685;stroke-miterlimit:4;stroke-opacity:1;stroke-dasharray:none">
      <path
         d="m 339.33864,788.84767 -0.32841,-33.23455 c -11.54728,-8.64895 -6.1913,-18.49246 -1.09492,-22.44578 l -9.85422,-313.69309 c -4.49767,-4.14971 -1.92124,-9.57414 0,-9.85423 l -3.8322,-123.72537 c -5.04262,-4.76696 -5.78918,-11.48209 -1.3217,-16.45124 l -2.15487,-37.00035 -4.7353,-4.83319 0,-16.49013 32.84745,-19.38777 c 0,0 9.083,-7.10588 7.6644,-12.04406 -9.88361,-14.1538 -6.1834,-27.85744 5.02799,-27.89281 12.50661,0.0345 15.43218,13.61954 7.01608,27.89281 -1.66423,5.35879 6.50305,11.59053 6.50305,11.59053 l 38.38845,21.25691 0.3207,13.97962 -4.70035,5.72885 -1.09492,37.77456 c 2.91977,5.1096 2.91979,10.21921 0,15.32881 l -3.28476,122.083 c 2.10842,4.68792 5.48622,7.58908 0.54746,13.68643 l -12.59151,313.69311 c 6.45796,6.94175 6.02159,14.73459 -0.80009,20.34024 l -1.05609,33.67947 -51.46624,0.0182 z"
         id="path3635"
         style="fill:url(#radialGradient4751);fill-opacity:1;fill-rule:evenodd;stroke:#000000;stroke-width:1.37697685;stroke-linecap:butt;stroke-linejoin:miter;stroke-miterlimit:4;stroke-opacity:1;stroke-dasharray:none;stroke-dashoffset:0;marker:none;visibility:visible;display:inline;overflow:visible" />
      <path
         d="m 328.12158,409.23486 75.87372,-0.38711"
         id="path3637"
         style="fill:#784421;fill-opacity:1;fill-rule:evenodd;stroke:#000000;stroke-width:1.37697685;stroke-linecap:butt;stroke-linejoin:miter;stroke-miterlimit:4;stroke-opacity:1;stroke-dasharray:none;stroke-dashoffset:0;marker:none;visibility:visible;display:inline;overflow:visible" />
      <path
         d="m 323.08914,269.48785 84.77728,-0.38711"
         id="path3639"
         style="fill:#784421;fill-opacity:1;fill-rule:evenodd;stroke:#000000;stroke-width:1.37697685;stroke-linecap:butt;stroke-linejoin:miter;stroke-miterlimit:4;stroke-opacity:1;stroke-dasharray:none;stroke-dashoffset:0;marker:none;visibility:visible;display:inline;overflow:visible" />
      <path
         d="m 337.41223,734.40798 54.96974,0.77422"
         id="path3641"
         style="fill:#784421;fill-opacity:1;fill-rule:evenodd;stroke:#000000;stroke-width:1.37697685;stroke-linecap:butt;stroke-linejoin:miter;stroke-miterlimit:4;stroke-opacity:1;stroke-dasharray:none;stroke-dashoffset:0;marker:none;visibility:visible;display:inline;overflow:visible" />
      <path
         d="m 316.50826,211.42122 96.39059,0.38711"
         id="path3643"
         style="fill:#784421;fill-opacity:1;fill-rule:evenodd;stroke:#000000;stroke-width:1.37697685;stroke-linecap:butt;stroke-linejoin:miter;stroke-miterlimit:4;stroke-opacity:1;stroke-dasharray:none;stroke-dashoffset:0;marker:none;visibility:visible;display:inline;overflow:visible" />
      <path
         d="m 349.02556,191.67857 25.93644,0"
         id="path3645"
         style="fill:#784421;fill-opacity:1;fill-rule:evenodd;stroke:#000000;stroke-width:1.37697685;stroke-linecap:butt;stroke-linejoin:miter;stroke-miterlimit:4;stroke-opacity:1;stroke-dasharray:none;stroke-dashoffset:0;marker:none;visibility:visible;display:inline;overflow:visible" />
      <path
         d="m 327.8696,420.00288 78.15749,0.27373"
         id="path3647"
         style="fill:#784421;fill-opacity:1;fill-rule:evenodd;stroke:#000000;stroke-width:1.37697685;stroke-linecap:butt;stroke-linejoin:miter;stroke-miterlimit:4;stroke-opacity:1;stroke-dasharray:none;stroke-dashoffset:0;marker:none;visibility:visible;display:inline;overflow:visible" />
      <path
         d="m 324.95251,285.97666 81.9897,-0.27373"
         id="path3649"
         style="fill:#784421;fill-opacity:1;fill-rule:evenodd;stroke:#000000;stroke-width:1.37697685;stroke-linecap:butt;stroke-linejoin:miter;stroke-miterlimit:4;stroke-opacity:1;stroke-dasharray:none;stroke-dashoffset:0;marker:none;visibility:visible;display:inline;overflow:visible" />
      <path
         d="m 321.75712,232.45399 86.6007,-0.12539"
         id="path3651"
         style="fill:#784421;fill-opacity:1;fill-rule:evenodd;stroke:#000000;stroke-width:1.37697685;stroke-linecap:butt;stroke-linejoin:miter;stroke-miterlimit:4;stroke-opacity:1;stroke-dasharray:none;stroke-dashoffset:0;marker:none;visibility:visible;display:inline;overflow:visible" />
      <path
         d="m 339.94821,754.63174 53.79561,0.82118"
         id="path3653"
         style="fill:#784421;fill-opacity:1;fill-rule:evenodd;stroke:#000000;stroke-width:1.37697685;stroke-linecap:butt;stroke-linejoin:miter;stroke-miterlimit:4;stroke-opacity:1;stroke-dasharray:none;stroke-dashoffset:0;marker:none;visibility:visible;display:inline;overflow:visible" />
    </g>
    <use
       transform="matrix(-1,0,0,1,700.09302,3.0000001e-7)"
       id="use3976"
       x="0"
       y="0"
       width="581.48883"
       height="910.8512"
       xlink:href="#g3633" />
    <g
       transform="translate(495.88834,-779.89975)"
       id="g3107">
      <path
         d="m 33.911427,811.98627 c 2.1863,-4.7552 7.8086,-6.8359 12.5639,-4.6495 4.7508,2.1843 6.8315,7.8067 4.6452,12.5619 -2.1854,4.7531 -7.8076,6.8337 -12.5586,4.6494 -4.7552,-2.1864 -6.836,-7.8086 -4.6505,-12.5618 z"
         id="path3446"
         style="fill:#e3e4e5;fill-opacity:1;stroke:#010101;stroke-width:0.99999994;stroke-miterlimit:4;stroke-dasharray:none" />
      <path
         d="m -155.15896,769.16481 c -56.61261,0.56447 -113.87581,0.61709 -169.47501,11.94058 -12.4075,3.73883 -30.1461,5.82662 -34.8036,19.0699 -1.5279,11.06141 12.5006,15.74938 21.2634,18.78935 41.7444,11.96344 85.853,12.97626 129.1053,14.8465 67.29051,1.28869 135.01471,1.81183 201.80631,-7.1218 18.2471,-3.36522 38.3394,-5.44219 53.3445,-16.77983 8.9596,-8.3789 -0.9579,-20.0949 -10.8624,-22.50474 -33.9772,-12.44682 -71.0359,-13.78245 -106.9719,-16.31661 -27.7733,-1.44701 -55.5949,-1.90497 -83.4066,-1.92335 z"
         id="path9052"
         style="fill:#eac102;fill-rule:evenodd;stroke:#000000;stroke-width:1.00000012px;stroke-linecap:butt;stroke-linejoin:miter;stroke-opacity:1" />
      <path
         d="m -154.98436,782.76205 c -30.85712,0 -56.87992,0.5738 -78.81249,1.57132 -4.38667,0.19951 -8.62137,0.42171 -12.6875,0.65225 -48.77128,2.76678 -74.92265,7.65796 -88.9375,12.12586 -1.16805,0.37241 -2.27567,0.73194 -3.28125,1.09696 -5.01152,1.8212 -8.09361,3.5648 -9.96875,4.9808 -0.36877,0.27856 -0.68636,0.54611 -0.96875,0.80048 -0.29289,0.26383 -0.53742,0.50645 -0.75,0.74119 -1.25317,1.38323 -1.21876,2.22357 -1.21875,2.22357 l 10.65625,36.73337 34.84375,0 302.24999,0 34.8438,0 10.6562,-36.73337 c 0,0 0.0344,-0.84034 -1.2188,-2.22357 -0.2125,-0.23474 -0.4571,-0.47736 -0.75,-0.74119 -1.7146,-1.54923 -4.9217,-3.59514 -10.9374,-5.78128 -0.0086,-0.003 -0.0228,0.003 -0.0313,0 -13.0714,-4.74427 -39.351,-10.22543 -92.1875,-13.22282 -0.01,-5.7e-4 -0.0213,5.7e-4 -0.0312,0 -4.0661,-0.23054 -8.2698,-0.45274 -12.6563,-0.65225 -21.9333,-0.99753 -47.9536,-1.57132 -78.8125,-1.57132 z"
         id="path9054"
         style="fill:#eac102;fill-opacity:1;fill-rule:evenodd;stroke:#000000;stroke-width:1px;stroke-linecap:butt;stroke-linejoin:miter;stroke-opacity:1" />
      <path
         d="m 1796.3478,707.07074 a 23.0657,23.0657 0 1 1 -46.1314,0 23.0657,23.0657 0 1 1 46.1314,0 z"
         transform="matrix(0.5526395,0,0,0.5685945,-1059.5823,398.75738)"
         id="path9058"
         style="fill:#eac102;fill-opacity:1;fill-rule:evenodd;stroke:#000000;stroke-width:1.78393018px;stroke-linecap:round;stroke-linejoin:round;stroke-miterlimit:4;stroke-opacity:1;stroke-dasharray:none;stroke-dashoffset:0;marker:none;visibility:visible;display:inline;overflow:visible;enable-background:accumulate" />
      <path
         d="m 1796.3478,707.07074 a 23.0657,23.0657 0 1 1 -46.1314,0 23.0657,23.0657 0 1 1 46.1314,0 z"
         transform="matrix(0.5401856,0,0,0.5685945,-1036.1337,398.75738)"
         id="path9060"
         style="fill:#eac102;fill-opacity:1;fill-rule:evenodd;stroke:#000000;stroke-width:1.80437696px;stroke-linecap:round;stroke-linejoin:round;stroke-miterlimit:4;stroke-opacity:1;stroke-dasharray:none;stroke-dashoffset:0;marker:none;visibility:visible;display:inline;overflow:visible;enable-background:accumulate" />
      <path
         d="m 1796.3478,707.07074 a 23.0657,23.0657 0 1 1 -46.1314,0 23.0657,23.0657 0 1 1 46.1314,0 z"
         transform="matrix(0.4779164,0,0,0.4918098,-925.42551,453.04956)"
         id="path9062"
         style="fill:#e3e4e5;fill-opacity:1;fill-rule:evenodd;stroke:#000000;stroke-width:2.06264997px;stroke-linecap:round;stroke-linejoin:round;stroke-miterlimit:4;stroke-opacity:1;stroke-dasharray:none;stroke-dashoffset:0;marker:none;visibility:visible;display:inline;overflow:visible;enable-background:accumulate" />
      <path
         d="m 1796.3478,707.07074 a 23.0657,23.0657 0 1 1 -46.1314,0 23.0657,23.0657 0 1 1 46.1314,0 z"
         transform="matrix(-0.5526395,0,0,0.5685945,749.61341,398.75738)"
         id="path9066"
         style="fill:#eac102;fill-opacity:1;fill-rule:evenodd;stroke:#000000;stroke-width:1.78393018px;stroke-linecap:round;stroke-linejoin:round;stroke-miterlimit:4;stroke-opacity:1;stroke-dasharray:none;stroke-dashoffset:0;marker:none;visibility:visible;display:inline;overflow:visible;enable-background:accumulate" />
      <path
         d="m 1796.3478,707.07074 a 23.0657,23.0657 0 1 1 -46.1314,0 23.0657,23.0657 0 1 1 46.1314,0 z"
         transform="matrix(-0.5401856,0,0,0.5685945,726.16481,398.75738)"
         id="path9068"
         style="fill:#eac102;fill-opacity:1;fill-rule:evenodd;stroke:#000000;stroke-width:1.80437696px;stroke-linecap:round;stroke-linejoin:round;stroke-miterlimit:4;stroke-opacity:1;stroke-dasharray:none;stroke-dashoffset:0;marker:none;visibility:visible;display:inline;overflow:visible;enable-background:accumulate" />
      <path
         d="m 1796.3478,707.07074 a 23.0657,23.0657 0 1 1 -46.1314,0 23.0657,23.0657 0 1 1 46.1314,0 z"
         transform="matrix(-0.4779164,0,0,0.4918098,615.45661,453.04956)"
         id="path9070"
         style="fill:#e3e4e5;fill-opacity:1;fill-rule:evenodd;stroke:#000000;stroke-width:2.06264997px;stroke-linecap:round;stroke-linejoin:round;stroke-miterlimit:4;stroke-opacity:1;stroke-dasharray:none;stroke-dashoffset:0;marker:none;visibility:visible;display:inline;overflow:visible;enable-background:accumulate" />
      <path
         d="m -270.5138,802.24799 -20.41562,-9.84209 -1.30779,0.23765 19.47118,10.01371 2.25223,-0.40927 z"
         id="path9074"
         style="fill:none;stroke:#000000;stroke-width:0.99999982px;stroke-linecap:round;stroke-linejoin:round;stroke-opacity:1" />
      <path
         d="m -270.5138,802.24799 -20.41562,17.26181 -1.30779,0.23764 19.47118,-17.09018 2.25223,-0.40927 z"
         id="path9076"
         style="fill:none;stroke:#000000;stroke-width:0.99999982px;stroke-linecap:round;stroke-linejoin:round;stroke-opacity:1" />
      <path
         d="m -292.26702,819.70619 -18.33504,-9.82602 18.29339,-17.15415"
         id="path9078"
         style="fill:none;stroke:#000000;stroke-width:0.99999982px;stroke-linecap:round;stroke-linejoin:round;stroke-miterlimit:4;stroke-opacity:1;stroke-dasharray:none;stroke-dashoffset:0;marker:none;visibility:visible;display:inline;overflow:visible;enable-background:accumulate" />
      <path
         d="m -277.8267,803.71585 -14.64903,13.15604 -14.43461,-7.94056 14.50607,-12.92157 14.57757,7.70609 z"
         id="path9082"
         style="fill:#008f4c;fill-rule:evenodd;stroke:#000000;stroke-width:0.99999982px;stroke-linecap:round;stroke-linejoin:round;stroke-opacity:1" />
      <path
         d="m -287.67752,805.53879 -7.74896,6.93499 -7.63553,-4.17597 7.67333,-6.81144 7.71116,4.05242 z"
         id="path9084"
         style="fill:none;stroke:#000000;stroke-width:0.5999999;stroke-linecap:round;stroke-linejoin:round;stroke-miterlimit:4;stroke-opacity:1;stroke-dasharray:none" />
      <path
         d="m -292.40427,816.78941 -3.03708,-4.31306"
         id="path9086"
         style="fill:none;stroke:#000000;stroke-width:0.5999999;stroke-linecap:round;stroke-linejoin:round;stroke-miterlimit:4;stroke-opacity:1;stroke-dasharray:none" />
      <path
         d="m -306.696,808.89239 3.66247,-0.6133"
         id="path9088"
         style="fill:none;stroke:#000000;stroke-width:0.5999999;stroke-linecap:round;stroke-linejoin:round;stroke-miterlimit:4;stroke-opacity:1;stroke-dasharray:none" />
      <path
         d="m -287.68801,805.50782 9.57547,-1.74003"
         id="path9090"
         style="fill:none;stroke:#000000;stroke-width:0.5999999;stroke-linecap:round;stroke-linejoin:round;stroke-miterlimit:4;stroke-opacity:1;stroke-dasharray:none" />
      <path
         d="m -295.42328,801.54505 3.01901,-5.53529"
         id="path9092"
         style="fill:none;stroke:#000000;stroke-width:0.5999999;stroke-linecap:round;stroke-linejoin:round;stroke-miterlimit:4;stroke-opacity:1;stroke-dasharray:none" />
      <path
         d="m -39.4554,802.24799 20.41562,-9.84209 1.30779,0.23765 -19.47118,10.01371 -2.25223,-0.40927 z"
         id="path9096"
         style="fill:none;stroke:#000000;stroke-width:0.99999982px;stroke-linecap:round;stroke-linejoin:round;stroke-opacity:1" />
      <path
         d="m -39.4554,802.24799 20.41562,17.26181 1.30779,0.23764 -19.47118,-17.09018 -2.25223,-0.40927 z"
         id="path9098"
         style="fill:none;stroke:#000000;stroke-width:0.99999982px;stroke-linecap:round;stroke-linejoin:round;stroke-opacity:1" />
      <path
         d="M -17.70218,819.70619 0.63286,809.88017 -17.66053,792.72602"
         id="path9100"
         style="fill:none;stroke:#000000;stroke-width:0.99999982px;stroke-linecap:round;stroke-linejoin:round;stroke-miterlimit:4;stroke-opacity:1;stroke-dasharray:none;stroke-dashoffset:0;marker:none;visibility:visible;display:inline;overflow:visible;enable-background:accumulate" />
      <path
         d="m -32.1425,803.71585 14.64903,13.15604 14.43461,-7.94056 -14.50607,-12.92157 -14.57757,7.70609 z"
         id="path9104"
         style="fill:#008f4c;fill-rule:evenodd;stroke:#000000;stroke-width:0.99999982px;stroke-linecap:round;stroke-linejoin:round;stroke-opacity:1" />
      <path
         d="m -22.29168,805.53879 7.74896,6.93499 7.63553,-4.17597 -7.67333,-6.81144 -7.71116,4.05242 z"
         id="path9106"
         style="fill:none;stroke:#000000;stroke-width:0.49999985;stroke-linecap:round;stroke-linejoin:round;stroke-miterlimit:4;stroke-opacity:1;stroke-dasharray:none" />
      <path
         d="m -17.56493,816.78941 3.03708,-4.31306"
         id="path9108"
         style="fill:none;stroke:#000000;stroke-width:0.49999985;stroke-linecap:round;stroke-linejoin:round;stroke-miterlimit:4;stroke-opacity:1;stroke-dasharray:none" />
      <path
         d="m -3.2732,808.89239 -3.66247,-0.6133"
         id="path9110"
         style="fill:none;stroke:#000000;stroke-width:0.49999985;stroke-linecap:round;stroke-linejoin:round;stroke-miterlimit:4;stroke-opacity:1;stroke-dasharray:none" />
      <path
         d="m -22.28119,805.50782 -9.57547,-1.74003"
         id="path9112"
         style="fill:none;stroke:#000000;stroke-width:0.49999985;stroke-linecap:round;stroke-linejoin:round;stroke-miterlimit:4;stroke-opacity:1;stroke-dasharray:none" />
      <path
         d="m -14.54592,801.54505 -3.01901,-5.53529"
         id="path9114"
         style="fill:none;stroke:#000000;stroke-width:0.49999985;stroke-linecap:round;stroke-linejoin:round;stroke-miterlimit:4;stroke-opacity:1;stroke-dasharray:none" />
      <rect
         width="52.713264"
         height="26.649967"
         rx="13.479209"
         ry="13.324984"
         x="-181.34109"
         y="785.9574"
         id="rect9118"
         style="fill:#eac102;fill-opacity:1;fill-rule:nonzero;stroke:#000000;stroke-width:1.00000024;stroke-linecap:butt;stroke-linejoin:miter;stroke-miterlimit:4;stroke-opacity:1;stroke-dasharray:none;stroke-dashoffset:0;marker:none;visibility:visible;display:inline;overflow:visible;enable-background:accumulate" />
      <rect
         width="47.431377"
         height="23.013342"
         rx="12.128588"
         ry="11.506671"
         x="-178.7002"
         y="787.7757"
         id="rect9120"
         style="fill:#ed1c24;fill-opacity:1;fill-rule:nonzero;stroke:#000000;stroke-width:1.00000024;stroke-linecap:butt;stroke-linejoin:miter;stroke-miterlimit:4;stroke-opacity:1;stroke-dasharray:none;stroke-dashoffset:0;marker:none;visibility:visible;display:inline;overflow:visible;enable-background:accumulate" />
      <path
         d="m -341.59526,837.04565 c -0.0992,0.0337 -0.1798,0.0984 -0.28087,0.12895 -5.72081,1.73159 -12.18124,-2.29636 -14.43201,-8.98955 -2.25082,-6.69317 0.55713,-13.52649 6.2779,-15.25807 0.10106,-0.0306 0.2062,-0.0222 0.30768,-0.0492 l 8.1273,24.16786 z"
         id="path9172"
         style="fill:#ed1c24;fill-opacity:1;fill-rule:nonzero;stroke:#000000;stroke-width:1.00000048;stroke-linecap:butt;stroke-linejoin:miter;stroke-miterlimit:4;stroke-opacity:1;stroke-dasharray:none;stroke-dashoffset:0;marker:none;visibility:visible;display:inline;overflow:visible;enable-background:accumulate" />
      <path
         d="m -349.21345,810.31296 -3.11644,0.94329 9.51734,28.30138 3.11644,-0.94329 c -2.57267,-11.26199 -5.88715,-21.71151 -9.51734,-28.30138 z"
         id="path9174"
         style="fill:#eac102;fill-opacity:1;fill-rule:nonzero;stroke:#000000;stroke-width:1.00000048;stroke-linecap:butt;stroke-linejoin:miter;stroke-miterlimit:4;stroke-opacity:1;stroke-dashoffset:0;marker:none;visibility:visible;display:inline;overflow:visible;enable-background:accumulate" />
      <path
         d="m -332.34589,799.94588 c 2.94594,0.0624 6.73261,5.39966 8.74534,12.52628 2.01264,7.12609 1.54209,13.53099 -0.97585,14.98304 l -0.10604,0.0558 c -0.14987,0.0765 -0.30418,0.13511 -0.46785,0.17672 l -4.93261,1.24306 -2.23548,-7.91515 c -0.84249,-1.70925 -1.59509,-3.65299 -2.19302,-5.76988 -0.59788,-2.1169 -0.97427,-4.17072 -1.14547,-6.05063 l -2.21441,-7.84055 5.52539,-1.40874 z"
         id="path9178"
         style="fill:#eac102;fill-opacity:1;fill-rule:evenodd;stroke:#000000;stroke-width:1.00000024px;stroke-linecap:round;stroke-linejoin:round;stroke-miterlimit:4;stroke-opacity:1;stroke-dasharray:none;stroke-dashoffset:0;marker:none;visibility:visible;display:inline;overflow:visible;enable-background:accumulate" />
      <path
         d="m 2048.3786,702.48627 a 6.0690784,32.088638 0 1 1 -12.1381,0 6.0690784,32.088638 0 1 1 12.1381,0 z"
         transform="matrix(-0.8995649,0.2286779,0.1210959,0.4287623,1418.3935,46.897205)"
         id="path9180"
         style="fill:#eac102;fill-opacity:1;fill-rule:evenodd;stroke:#000000;stroke-width:1.55531836px;stroke-linecap:round;stroke-linejoin:round;stroke-miterlimit:4;stroke-opacity:1;stroke-dasharray:none;stroke-dashoffset:0;marker:none;visibility:visible;display:inline;overflow:visible;enable-background:accumulate" />
      <path
         d="m -337.70078,803.06697 c -10.48699,6.26273 -4.66007,24.14277 7.06271,25.00679 7.00839,-3.3866 -0.63591,-26.52019 -7.06271,-25.00679 z"
         id="path9182"
         style="fill:#e3e4e5;fill-opacity:1;fill-rule:evenodd;stroke:#000000;stroke-width:1.00000024px;stroke-linecap:round;stroke-linejoin:round;stroke-miterlimit:4;stroke-opacity:1;stroke-dashoffset:0;marker:none;visibility:visible;display:inline;overflow:visible;enable-background:accumulate" />
      <path
         d="m 31.62628,837.04565 c 0.09922,0.0337 0.1798,0.0984 0.280867,0.12895 5.720813,1.73159 12.181244,-2.29636 14.432015,-8.98955 2.250815,-6.69317 -0.55713,-13.52649 -6.277898,-15.25807 -0.101066,-0.0306 -0.206207,-0.0222 -0.307688,-0.0492 l -8.127296,24.16786 z"
         id="path9188"
         style="fill:#ed1c24;fill-opacity:1;fill-rule:nonzero;stroke:#000000;stroke-width:1.00000048;stroke-linecap:butt;stroke-linejoin:miter;stroke-miterlimit:4;stroke-opacity:1;stroke-dasharray:none;stroke-dashoffset:0;marker:none;visibility:visible;display:inline;overflow:visible;enable-background:accumulate" />
      <path
         d="m 39.244469,810.31296 3.116437,0.94329 -9.517339,28.30138 -3.116437,-0.94329 c 2.57267,-11.26199 5.887153,-21.71151 9.517339,-28.30138 z"
         id="path9190"
         style="fill:#eac102;fill-opacity:1;fill-rule:nonzero;stroke:#000000;stroke-width:1.00000048;stroke-linecap:butt;stroke-linejoin:miter;stroke-miterlimit:4;stroke-opacity:1;stroke-dashoffset:0;marker:none;visibility:visible;display:inline;overflow:visible;enable-background:accumulate" />
      <path
         d="m 49.666502,812.66967 c -5.2333,-0.0689 -9.4162,-4.3635 -9.3473,-9.5968 0.0689,-5.2286 4.3635,-9.4115 9.5968,-9.3425 5.231,0.0689 9.4138,4.3634 9.3449,9.592 -0.069,5.2333 -4.3634,9.4163 -9.5944,9.3473 z"
         id="path10153"
         style="fill:#e3e4e5;fill-opacity:1;stroke:#010101;stroke-width:1.00000012;stroke-miterlimit:4;stroke-dasharray:none" />
      <path
         d="m 22.376909,799.94588 c -2.945939,0.0624 -6.732612,5.39966 -8.745343,12.52628 -2.012632,7.12609 -1.542082,13.53099 0.975849,14.98304 l 0.106041,0.0558 c 0.149871,0.0765 0.304189,0.13511 0.467852,0.17672 l 4.932611,1.24306 2.235484,-7.91515 c 0.84249,-1.70925 1.59509,-3.65299 2.193014,-5.76988 0.597879,-2.1169 0.974268,-4.17072 1.14547,-6.05063 l 2.214415,-7.84055 -5.525393,-1.40874 z"
         id="path9194"
         style="fill:#eac102;fill-opacity:1;fill-rule:evenodd;stroke:#000000;stroke-width:1.00000024px;stroke-linecap:round;stroke-linejoin:round;stroke-miterlimit:4;stroke-opacity:1;stroke-dasharray:none;stroke-dashoffset:0;marker:none;visibility:visible;display:inline;overflow:visible;enable-background:accumulate" />
      <path
         d="m 2048.3786,702.48627 a 6.0690784,32.088638 0 1 1 -12.1381,0 6.0690784,32.088638 0 1 1 12.1381,0 z"
         transform="matrix(0.8995649,0.2286779,-0.1210959,0.4287623,-1728.3625,46.897205)"
         id="path9196"
         style="fill:#eac102;fill-opacity:1;fill-rule:evenodd;stroke:#000000;stroke-width:1.55531836px;stroke-linecap:round;stroke-linejoin:round;stroke-miterlimit:4;stroke-opacity:1;stroke-dasharray:none;stroke-dashoffset:0;marker:none;visibility:visible;display:inline;overflow:visible;enable-background:accumulate" />
      <path
         d="m 27.731796,803.06697 c 10.486989,6.26273 4.660072,24.14277 -7.062703,25.00679 -7.008398,-3.3866 0.63591,-26.52019 7.062703,-25.00679 z"
         id="path9198"
         style="fill:#e3e4e5;fill-opacity:1;fill-rule:evenodd;stroke:#000000;stroke-width:1.00000024px;stroke-linecap:round;stroke-linejoin:round;stroke-miterlimit:4;stroke-opacity:1;stroke-dashoffset:0;marker:none;visibility:visible;display:inline;overflow:visible;enable-background:accumulate" />
      <path
         d="m -156.74138,878.9593 c -5.23329,-0.069 -9.41618,-4.36354 -9.34724,-9.59683 0.0689,-5.22861 4.36344,-9.41143 9.59675,-9.34248 5.231,0.0688 9.41378,4.36342 9.34491,9.59203 -0.0689,5.23329 -4.36339,9.41623 -9.59442,9.34728 z"
         id="path10145"
         style="fill:#e3e4e5;fill-opacity:1;stroke:#010101;stroke-width:1.00000012;stroke-miterlimit:4;stroke-dasharray:none" />
      <path
         d="m -74.715108,877.39292 c -5.233292,-0.0689 -9.416181,-4.36353 -9.347242,-9.59682 0.06887,-5.22861 4.36344,-9.41143 9.596743,-9.34248 5.231009,0.0688 9.413784,4.36341 9.344913,9.59203 -0.06894,5.23329 -4.363394,9.41622 -9.594414,9.34727 z"
         id="path10143"
         style="fill:#e3e4e5;fill-opacity:1;stroke:#010101;stroke-width:1.00000012;stroke-miterlimit:4;stroke-dasharray:none" />
      <path
         d="m -252.334,876.71811 c -5.2333,-0.0689 -9.41619,-4.36353 -9.34725,-9.59682 0.0689,-5.22861 4.36344,-9.41143 9.59675,-9.34248 5.23101,0.0688 9.41378,4.36341 9.34491,9.59203 -0.0689,5.23329 -4.36339,9.41622 -9.59441,9.34727 z"
         id="path10147"
         style="fill:#e3e4e5;fill-opacity:1;stroke:#010101;stroke-width:1.00000012;stroke-miterlimit:4;stroke-dasharray:none" />
      <path
         d="m -332.11915,864.23586 c -5.23329,-0.0689 -9.41618,-4.36353 -9.34724,-9.59682 0.0689,-5.22861 4.36344,-9.41143 9.59674,-9.34248 5.23101,0.0688 9.41379,4.36341 9.34492,9.59203 -0.0689,5.23329 -4.3634,9.41622 -9.59442,9.34727 z"
         id="path10149"
         style="fill:#e3e4e5;fill-opacity:1;stroke:#010101;stroke-width:1.00000012;stroke-miterlimit:4;stroke-dasharray:none" />
      <path
         d="m -326.50935,845.30177 c 0,0 37.06156,-17.86783 171.52462,-17.86783 134.01755,0 171.52453,17.86783 171.52453,17.86783 0,0 -31.34738,17.86784 -171.52453,17.86784 -140.62294,0 -171.52462,-17.86784 -171.52462,-17.86784 z"
         id="path9202"
         style="fill:#eac102;fill-rule:evenodd;stroke:#000000;stroke-width:1px;stroke-linecap:butt;stroke-linejoin:miter;stroke-opacity:1" />
      <path
         d="m -198.64228,866.02256 0,-41.34063"
         id="path9206"
         style="font-size:12px;fill:none;stroke:#000000;stroke-width:0.52008164" />
      <path
         d="m -206.5242,866.02256 0,-41.34063"
         id="path9208"
         style="font-size:12px;fill:none;stroke:#000000;stroke-width:0.76567769" />
      <path
         d="m -213.96465,866.02256 0,-41.34063"
         id="path9210"
         style="font-size:12px;fill:none;stroke:#000000;stroke-width:1.02572083" />
      <path
         d="m -221.3406,866.02256 0,-41.34063"
         id="path9212"
         style="font-size:12px;fill:none;stroke:#000000;stroke-width:1.28576362" />
      <path
         d="m -227.9129,866.02256 0,-41.34063"
         id="path9214"
         style="font-size:12px;fill:none;stroke:#000000;stroke-width:1.54580235" />
      <path
         d="m -240.44748,863.79359 -0.17363,-37.6268 m 6.11601,38.12181 0,-39.3576"
         id="path9216"
         style="font-size:12px;fill:none;stroke:#000000;stroke-width:1.80584526" />
      <path
         d="m -252.0199,862.10168 0,-34.66675 m 5.86312,35.65666 -0.17363,-36.89245"
         id="path9218"
         style="font-size:12px;fill:none;stroke:#000000;stroke-width:2.05144167" />
      <path
         d="m -267.54548,860.12186 0,-30.45797 m 5.09412,30.95293 0,-31.9429 m 5.24803,32.93281 0,-33.18189"
         id="path9220"
         style="font-size:12px;fill:none;stroke:#000000;stroke-width:2.31148434" />
      <path
         d="m -272.98696,859.87278 0,-29.46485"
         id="path9222"
         style="font-size:12px;fill:none;stroke:#000000;stroke-width:2.57152724" />
      <path
         d="m -278.06127,858.38785 0,-27.48496"
         id="path9224"
         style="font-size:12px;fill:none;stroke:#000000;stroke-width:2.8315661" />
      <path
         d="m -283.50266,857.64376 0,-25.50509"
         id="path9226"
         style="font-size:12px;fill:none;stroke:#000000;stroke-width:3.091609" />
      <path
         d="m -294.64346,855.41806 -0.1737,-20.30632 m 5.88288,21.2963 0,-22.78123"
         id="path9228"
         style="font-size:12px;fill:none;stroke:#000000;stroke-width:3.33720565" />
      <path
         d="m -300.35276,853.68404 0,-17.83154"
         id="path9230"
         style="font-size:12px;fill:none;stroke:#000000;stroke-width:3.52501416" />
      <path
         d="m -305.58088,852.23802 0,-14.84891"
         id="path9232"
         style="font-size:12px;fill:none;stroke:#000000;stroke-width:3.78505349" />
      <path
         d="m -311.29018,850.2582 0,-11.63003"
         id="path9234"
         style="font-size:12px;fill:none;stroke:#000000;stroke-width:4.03064871" />
      <path
         d="m -317.15818,849.26829 0,-8.66024"
         id="path9236"
         style="font-size:12px;fill:none;stroke:#000000;stroke-width:4.27626181" />
      <path
         d="m -323.3688,847.29035 0,-4.20853"
         id="path9238"
         style="font-size:12px;fill:none;stroke:#000000;stroke-width:5.04192257" />
      <path
         d="m -167.28348,863.79359 0,-37.87262 m -13.35298,39.11167 0.17354,-40.10164 m -9.90568,40.59659 0,-40.84566"
         id="path9240"
         style="font-size:12px;fill:none;stroke:#000000;stroke-width:0.26004165" />
      <path
         d="m -111.3271,866.02256 0,-41.34063"
         id="path9242"
         style="font-size:12px;fill:none;stroke:#000000;stroke-width:0.52008164" />
      <path
         d="m -103.44528,866.02256 0,-41.34063"
         id="path9244"
         style="font-size:12px;fill:none;stroke:#000000;stroke-width:0.76567769" />
      <path
         d="m -96.00483,866.02256 0,-41.34063"
         id="path9246"
         style="font-size:12px;fill:none;stroke:#000000;stroke-width:1.02572083" />
      <path
         d="m -88.62888,866.02256 0,-41.34063"
         id="path9248"
         style="font-size:12px;fill:none;stroke:#000000;stroke-width:1.28576362" />
      <path
         d="m -82.05658,866.02256 0,-41.34063"
         id="path9250"
         style="font-size:12px;fill:none;stroke:#000000;stroke-width:1.54580235" />
      <path
         d="m -69.52191,863.79359 0.17363,-37.6268 m -6.1161,38.12181 0,-39.3576"
         id="path9252"
         style="font-size:12px;fill:none;stroke:#000000;stroke-width:1.80584526" />
      <path
         d="m -57.94958,862.10168 0,-34.66675 m -5.86303,35.65666 0.17354,-36.89245"
         id="path9254"
         style="font-size:12px;fill:none;stroke:#000000;stroke-width:2.05144167" />
      <path
         d="m -42.4239,860.12186 0,-30.45797 m -5.09422,30.95293 0,-31.9429 m -5.24803,32.93281 0,-33.18189"
         id="path9256"
         style="font-size:12px;fill:none;stroke:#000000;stroke-width:2.31148434" />
      <path
         d="m -36.98243,859.87278 0,-29.46485"
         id="path9258"
         style="font-size:12px;fill:none;stroke:#000000;stroke-width:2.57152724" />
      <path
         d="m -31.90812,858.38785 0,-27.48496"
         id="path9260"
         style="font-size:12px;fill:none;stroke:#000000;stroke-width:2.8315661" />
      <path
         d="m -26.46673,857.64376 0,-25.50509"
         id="path9262"
         style="font-size:12px;fill:none;stroke:#000000;stroke-width:3.091609" />
      <path
         d="m -15.32599,855.41806 0.17372,-20.30632 m -5.88293,21.2963 0,-22.78123"
         id="path9264"
         style="font-size:12px;fill:none;stroke:#000000;stroke-width:3.33720565" />
      <path
         d="m -9.61669,853.68404 0,-17.83154"
         id="path9266"
         style="font-size:12px;fill:none;stroke:#000000;stroke-width:3.52501416" />
      <path
         d="m -4.38857,852.23802 0,-14.84891"
         id="path9268"
         style="font-size:12px;fill:none;stroke:#000000;stroke-width:3.78505349" />
      <path
         d="m 1.32073,850.2582 0,-11.63003"
         id="path9270"
         style="font-size:12px;fill:none;stroke:#000000;stroke-width:4.03064871" />
      <path
         d="m 7.18873,849.26829 0,-8.66024"
         id="path9272"
         style="font-size:12px;fill:none;stroke:#000000;stroke-width:4.27626181" />
      <path
         d="m 13.3993,847.29035 0,-4.20853"
         id="path9274"
         style="font-size:12px;fill:none;stroke:#000000;stroke-width:5.04192257" />
      <path
         d="m -142.686,863.79359 0,-37.87262 m 13.35307,39.11167 -0.17354,-40.10164 m 9.90559,40.59659 0,-40.84566"
         id="path9276"
         style="font-size:12px;fill:none;stroke:#000000;stroke-width:0.26004165" />
      <path
         d="m 11.496502,850.26797 c 2.1863,-4.7552 7.8086,-6.8359 12.5639,-4.6495 4.7508,2.1843 6.8315,7.8067 4.6452,12.5619 -2.1854,4.7531 -7.8076,6.8337 -12.5586,4.6494 -4.7552,-2.1864 -6.836,-7.8086 -4.6505,-12.5618 z"
         id="path11736"
         style="fill:#e3e4e5;fill-opacity:1;stroke:#010101;stroke-width:0.99999994;stroke-miterlimit:4;stroke-dasharray:none" />
      <path
         d="m -155.13818,815.16795 c -52.17482,0.52021 -104.94361,0.57554 -156.18456,11.01141 -11.435,3.44575 -27.79124,5.3639 -32.08365,17.56909 -1.40822,10.19432 11.50827,14.52148 19.58428,17.32316 38.47209,11.02566 79.1413,11.9655 119.00318,13.68913 62.0158,1.18767 124.40827,1.64837 185.96427,-6.58499 16.81677,-3.10144 35.33335,-5.01624 49.16225,-15.46516 8.25728,-7.72211 -0.86558,-18.51768 -9.99369,-20.73862 -31.31383,-11.47114 -65.46476,-12.69248 -98.58375,-15.02799 -25.59623,-1.33357 -51.23671,-1.75909 -76.86833,-1.77603 z m 0.14405,12.2683 c 134.01746,2e-5 171.53522,17.86964 171.53522,17.86964 -9e-5,-10e-6 -31.35816,17.86964 -171.53522,17.86964 -140.62303,0 -171.50647,-17.86964 -171.50647,-17.86964 0,-10e-6 37.04332,-17.86964 171.50647,-17.86964 z"
         id="path9278"
         style="fill:#eac102;fill-rule:evenodd;stroke:#000000;stroke-width:1px;stroke-linecap:butt;stroke-linejoin:miter;stroke-opacity:1" />
      <path
         d="m -4.578098,839.19855 c -0.4011,0.5337 -0.8038,0.38083 -1.0938,1.01153 -2.1853,4.7531 -0.0991,10.3762 4.6563,12.5625 4.7509,2.1843 10.377,0.0968 12.5625,-4.6562 0.9127,-1.9853 0.9294,-2.52278 0.4687,-4.49708 -7.128572,-2.16395 -13.0278934,-3.94986 -16.5937,-4.42075 z"
         id="path11795"
         style="fill:#e3e4e5;fill-opacity:1;stroke:#010101;stroke-width:1;stroke-miterlimit:4;stroke-dasharray:none" />
      <path
         d="m 12.39527,866.01911 c -5.233292,-0.069 -9.416181,-4.36354 -9.347242,-9.59683 0.068871,-5.22861 4.36344,-9.41143 9.596743,-9.34248 5.231009,0.0688 9.413785,4.36342 9.344914,9.59203 -0.06894,5.23329 -4.363394,9.41623 -9.594415,9.34728 z"
         id="path10141"
         style="fill:#e3e4e5;fill-opacity:1;stroke:#010101;stroke-width:1.00000012;stroke-miterlimit:4;stroke-dasharray:none" />
      <path
         d="m 48.974802,799.39097 c -5.2333,-0.069 -9.4162,-4.3636 -9.3473,-9.5968 0.0689,-5.2287 4.3635,-9.4115 9.5968,-9.3425 5.231,0.0688 9.4137,4.3634 9.3449,9.592 -0.069,5.2333 -4.3634,9.4162 -9.5944,9.3473 z"
         id="path10261"
         style="fill:#e3e4e5;fill-opacity:1;stroke:#010101;stroke-width:1.00000012;stroke-miterlimit:4;stroke-dasharray:none" />
      <path
         d="m 63.015319,769.31548 c 0,12.39811 -10.05264,22.44791 -22.457219,22.44791 -12.406885,0 -22.461842,-10.0474 -22.461842,-22.44791 0,-12.39572 10.052651,-22.44541 22.461842,-22.44541 12.404579,0 22.457219,10.0474 22.457219,22.44541 z"
         id="path10211"
         style="fill:#e3e4e5;fill-opacity:1;stroke:#010101;stroke-width:1.00000012;stroke-miterlimit:4;stroke-dasharray:none" />
      <path
         d="m -330.06528,771.3153 c 0,12.39812 -10.05725,22.44792 -22.46183,22.44792 -12.40227,0 -22.45723,-10.04752 -22.45723,-22.44792 0,-12.39572 10.05266,-22.44551 22.45723,-22.44551 12.40458,0 22.46183,10.04751 22.46183,22.44551 z"
         id="path10213"
         style="fill:#e3e4e5;fill-opacity:1;stroke:#010101;stroke-width:1.00000012;stroke-miterlimit:4;stroke-dasharray:none" />
      <path
         d="m -205.35312,752.39272 c 0,12.39823 -10.05495,22.44792 -22.45722,22.44792 -12.40227,0 -22.46184,-10.0474 -22.46184,-22.44792 0,-12.39572 10.05726,-22.4454 22.46184,-22.4454 12.40227,0 22.45722,10.04968 22.45722,22.4454 z"
         id="path10217"
         style="fill:#e3e4e5;fill-opacity:1;stroke:#010101;stroke-width:1.00000012;stroke-miterlimit:4;stroke-dasharray:none" />
      <path
         d="m -59.696823,752.39295 c 0,12.39583 -10.052651,22.44792 -22.45723,22.44792 -12.402273,0 -22.457217,-10.04969 -22.457217,-22.44792 0,-12.398 10.054944,-22.44769 22.457217,-22.44769 12.404579,0.002 22.45723,10.05197 22.45723,22.44769 z"
         id="path10219"
         style="fill:#e3e4e5;fill-opacity:1;stroke:#010101;stroke-width:1.00000012;stroke-miterlimit:4;stroke-dasharray:none" />
      <path
         d="m -197.61802,762.82594 c 0,5.23375 -4.23907,9.47285 -9.47288,9.47285 -5.229,0 -9.46808,-4.2391 -9.46808,-9.47285 0,-5.23146 4.23908,-9.47045 9.46808,-9.47045 5.23381,0 9.47288,4.23899 9.47288,9.47045 z"
         id="path10223"
         style="fill:#e3e4e5;fill-opacity:1;stroke:#010101;stroke-width:0.99999994;stroke-miterlimit:4;stroke-dasharray:none" />
      <path
         d="m -184.24417,767.95869 c 0,5.23375 -4.23907,9.47285 -9.47288,9.47285 -5.229,0 -9.46808,-4.2391 -9.46808,-9.47285 0,-5.23146 4.23908,-9.47045 9.46808,-9.47045 5.23381,0 9.47288,4.23899 9.47288,9.47045 z"
         id="path10225"
         style="fill:#e3e4e5;fill-opacity:1;stroke:#010101;stroke-width:0.99999994;stroke-miterlimit:4;stroke-dasharray:none" />
      <path
         d="m -173.04513,779.15771 c 0,5.23374 -4.23908,9.47284 -9.47288,9.47284 -5.229,0 -9.46808,-4.2391 -9.46808,-9.47284 0,-5.23147 4.23908,-9.47046 9.46808,-9.47046 5.2338,0 9.47288,4.23899 9.47288,9.47046 z"
         id="path10227"
         style="fill:#e3e4e5;fill-opacity:1;stroke:#010101;stroke-width:0.99999994;stroke-miterlimit:4;stroke-dasharray:none" />
      <path
         d="m -164.62919,791.63996 c 0,5.23375 -4.23908,9.47285 -9.47288,9.47285 -5.229,0 -9.46808,-4.2391 -9.46808,-9.47285 0,-5.23147 4.23908,-9.47045 9.46808,-9.47045 5.2338,0 9.47288,4.23898 9.47288,9.47045 z"
         id="path10229"
         style="fill:#e3e4e5;fill-opacity:1;stroke:#010101;stroke-width:0.99999994;stroke-miterlimit:4;stroke-dasharray:none" />
      <path
         d="m -158.38806,805.90545 c 0,5.23375 -4.23908,9.47285 -9.47289,9.47285 -5.229,0 -9.46807,-4.2391 -9.46807,-9.47285 0,-5.23146 4.23907,-9.47045 9.46807,-9.47045 5.23381,0 9.47289,4.23899 9.47289,9.47045 z"
         id="path10231"
         style="fill:#e3e4e5;fill-opacity:1;stroke:#010101;stroke-width:0.99999994;stroke-miterlimit:4;stroke-dasharray:none" />
      <path
         d="m -153.93011,821.0624 c 0,5.23375 -4.23908,9.47285 -9.47289,9.47285 -5.229,0 -9.46807,-4.2391 -9.46807,-9.47285 0,-5.23147 4.23907,-9.47045 9.46807,-9.47045 5.23381,0 9.47289,4.23898 9.47289,9.47045 z"
         id="path10233"
         style="fill:#e3e4e5;fill-opacity:1;stroke:#010101;stroke-width:0.99999994;stroke-miterlimit:4;stroke-dasharray:none" />
      <path
         d="m -319.3137,777.99307 c 1.1831,5.0983 -1.9881,10.1858 -7.0864,11.3689 -5.0937,1.182 -10.1813,-1.9891 -11.3643,-7.0875 -1.1825,-5.096 1.9886,-10.1835 7.0823,-11.3655 5.0983,-1.1831 10.1859,1.988 11.3684,7.0841 z"
         id="path10235"
         style="fill:#e3e4e5;fill-opacity:1;stroke:#010101;stroke-width:0.99999994;stroke-miterlimit:4;stroke-dasharray:none" />
      <path
         d="m -304.6737,781.91817 c 1.1831,5.0983 -1.9881,10.1859 -7.0864,11.3689 -5.0937,1.182 -10.1813,-1.9892 -11.3643,-7.0874 -1.1825,-5.0961 1.9886,-10.1836 7.0823,-11.3656 5.0983,-1.183 10.1859,1.988 11.3684,7.0841 z"
         id="path10237"
         style="fill:#e3e4e5;fill-opacity:1;stroke:#010101;stroke-width:0.99999994;stroke-miterlimit:4;stroke-dasharray:none" />
      <path
         d="m -291.2331,790.29577 c 1.1831,5.0984 -1.988,10.1859 -7.0864,11.369 -5.0937,1.182 -10.1812,-1.9891 -11.3643,-7.0875 -1.1825,-5.0961 1.9887,-10.1835 7.0823,-11.3655 5.0984,-1.1831 10.1859,1.988 11.3684,7.084 z"
         id="path10239"
         style="fill:#e3e4e5;fill-opacity:1;stroke:#010101;stroke-width:0.99999994;stroke-miterlimit:4;stroke-dasharray:none" />
      <path
         d="m -279.3218,800.55267 c 1.183,5.0983 -1.9881,10.1859 -7.0865,11.3689 -5.0936,1.182 -10.1812,-1.9892 -11.3643,-7.0874 -1.1825,-5.0961 1.9887,-10.1836 7.0823,-11.3656 5.0984,-1.183 10.1859,1.988 11.3685,7.0841 z"
         id="path10241"
         style="fill:#e3e4e5;fill-opacity:1;stroke:#010101;stroke-width:0.99999994;stroke-miterlimit:4;stroke-dasharray:none" />
      <path
         d="m -269.8008,811.92967 c 1.183,5.0984 -1.9881,10.1859 -7.0865,11.369 -5.0936,1.182 -10.1812,-1.9892 -11.3643,-7.0875 -1.1825,-5.0961 1.9887,-10.1835 7.0823,-11.3655 5.0984,-1.1831 10.1859,1.988 11.3685,7.084 z"
         id="path10243"
         style="fill:#e3e4e5;fill-opacity:1;stroke:#010101;stroke-width:0.99999994;stroke-miterlimit:4;stroke-dasharray:none" />
      <path
         d="m -54.178068,765.28327 c -1.166867,5.10202 -6.244356,8.28931 -11.346426,7.12243 -5.097385,-1.16581 -8.284654,-6.24331 -7.117786,-11.34533 1.166359,-5.09979 6.243822,-8.28697 11.341207,-7.12116 5.10207,1.16688 8.289364,6.24427 7.123005,11.34406 z"
         id="path10249"
         style="fill:#e3e4e5;fill-opacity:1;stroke:#010101;stroke-width:1;stroke-miterlimit:4;stroke-dasharray:none" />
      <path
         d="m -42.73109,773.21819 c -1.166868,5.10202 -6.244357,8.28932 -11.346427,7.12243 -5.097384,-1.1658 -8.284653,-6.24331 -7.117786,-11.34532 1.166359,-5.09979 6.243822,-8.28698 11.341207,-7.12117 5.10207,1.16688 8.289364,6.24428 7.123006,11.34406 z"
         id="path10251"
         style="fill:#e3e4e5;fill-opacity:1;stroke:#010101;stroke-width:1;stroke-miterlimit:4;stroke-dasharray:none" />
      <path
         d="m -34.310762,786.63216 c -1.166868,5.10201 -6.244357,8.28931 -11.346427,7.12243 -5.097385,-1.16581 -8.284653,-6.24331 -7.117786,-11.34533 1.166359,-5.09979 6.243822,-8.28697 11.341207,-7.12116 5.10207,1.16688 8.289364,6.24427 7.123006,11.34406 z"
         id="path10253"
         style="fill:#e3e4e5;fill-opacity:1;stroke:#010101;stroke-width:1;stroke-miterlimit:4;stroke-dasharray:none" />
      <path
         d="m -28.88958,800.67657 c -1.166868,5.10201 -6.244357,8.28931 -11.346426,7.12243 -5.097385,-1.16581 -8.284654,-6.24331 -7.117786,-11.34533 1.166358,-5.09979 6.243822,-8.28697 11.341206,-7.12116 5.10207,1.16688 8.289364,6.24427 7.123006,11.34406 z"
         id="path10255"
         style="fill:#e3e4e5;fill-opacity:1;stroke:#010101;stroke-width:1;stroke-miterlimit:4;stroke-dasharray:none" />
      <path
         d="m -25.986046,815.97446 c -1.166868,5.10202 -6.244357,8.28931 -11.346426,7.12243 -5.097385,-1.16581 -8.284654,-6.24331 -7.117786,-11.34533 1.166358,-5.09978 6.243822,-8.28697 11.341206,-7.12116 5.10207,1.16688 8.289365,6.24427 7.123006,11.34406 z"
         id="path10257"
         style="fill:#e3e4e5;fill-opacity:1;stroke:#010101;stroke-width:1;stroke-miterlimit:4;stroke-dasharray:none" />
      <path
         d="m -25.019554,831.74381 c -1.166868,5.10201 -6.244357,8.28931 -11.346426,7.12243 -5.097385,-1.16581 -8.284654,-6.24332 -7.117786,-11.34533 1.166358,-5.09979 6.243822,-8.28697 11.341206,-7.12117 5.10207,1.16689 8.289364,6.24428 7.123006,11.34407 z"
         id="path10259"
         style="fill:#e3e4e5;fill-opacity:1;stroke:#010101;stroke-width:1;stroke-miterlimit:4;stroke-dasharray:none" />
      <path
         d="m -94.121498,868.74437 c -0.4496,-5.2144 3.4096,-9.802 8.6241,-10.2516 5.2096,-0.4492 9.7972,3.4101 10.2468,8.6245 0.4494,5.2121 -3.4098,9.7996 -8.6195,10.2488 -5.2144,0.4496 -9.802,-3.4095 -10.2514,-8.6217 z"
         id="path11675"
         style="fill:#e3e4e5;fill-opacity:1;stroke:#010101;stroke-width:1;stroke-miterlimit:4;stroke-dasharray:none" />
      <path
         d="m -106.0587,860.78697 c -0.4496,-5.2144 3.4096,-9.802 8.624102,-10.2516 5.2097,-0.4493 9.7972,3.41 10.2469,8.6244 0.4494,5.2121 -3.4099,9.7996 -8.6195,10.2488 -5.214502,0.4497 -9.802102,-3.4095 -10.251502,-8.6216 z"
         id="path11677"
         style="fill:#e3e4e5;fill-opacity:1;stroke:#010101;stroke-width:1;stroke-miterlimit:4;stroke-dasharray:none" />
      <path
         d="m -118.1784,850.59147 c -0.4496,-5.2144 3.4096,-9.802 8.6241,-10.2517 5.2096,-0.4492 9.797202,3.4101 10.246802,8.6245 0.4495,5.2121 -3.409802,9.7996 -8.619502,10.2488 -5.2144,0.4496 -9.802,-3.4095 -10.2514,-8.6216 z"
         id="path11679"
         style="fill:#e3e4e5;fill-opacity:1;stroke:#010101;stroke-width:1;stroke-miterlimit:4;stroke-dasharray:none" />
      <path
         d="m -127.6356,838.87827 c -0.4496,-5.2144 3.4097,-9.802 8.6241,-10.2516 5.2097,-0.4492 9.7973,3.4101 10.2469,8.6245 0.4494,5.2121 -3.4098,9.7996 -8.6195,10.2488 -5.2145,0.4496 -9.802,-3.4095 -10.2515,-8.6217 z"
         id="path11681"
         style="fill:#e3e4e5;fill-opacity:1;stroke:#010101;stroke-width:1;stroke-miterlimit:4;stroke-dasharray:none" />
      <path
         d="m -136.46814,827.96615 c 1.5909,3.83221 5.4318,6.36579 9.75269,5.83232 3.49498,-0.43149 6.17652,-2.77713 7.44732,-5.80938 -5.58809,-0.0708 -11.32002,-0.0801 -17.20001,-0.0229 z"
         id="path11791"
         style="fill:#e3e4e5;fill-opacity:1;stroke:#010101;stroke-width:1;stroke-miterlimit:4;stroke-dasharray:none" />
      <path
         d="m -291.9219,836.73704 c -1.4023,1.8137 -2.2126,4.0966 -2,6.5625 0.4494,5.2121 5.0355,9.0744 10.25,8.625 5.2097,-0.4492 9.0745,-5.038 8.625,-10.25 -0.2632,-3.0523 -2.0429,-5.5008 -4.4375,-7.0313 -4.16794,0.56515 -8.30134,1.33714 -12.4375,2.0938 z"
         id="path11783"
         style="fill:#e3e4e5;fill-opacity:1;stroke:#010101;stroke-width:1;stroke-miterlimit:4;stroke-dasharray:none" />
      <path
         d="m -263.8153,826.57827 c 1.183,5.0983 -1.9881,10.1859 -7.0865,11.3689 -5.0936,1.182 -10.1812,-1.9892 -11.3642,-7.0874 -1.1826,-5.0961 1.9886,-10.1836 7.0823,-11.3656 5.0983,-1.183 10.1858,1.9881 11.3684,7.0841 z"
         id="path10245"
         style="fill:#e3e4e5;fill-opacity:1;stroke:#010101;stroke-width:0.99999994;stroke-miterlimit:4;stroke-dasharray:none" />
      <path
         d="m -176.7592,870.18157 c -0.4496,-5.2144 3.4096,-9.802 8.6241,-10.2516 5.2096,-0.4492 9.7972,3.4101 10.2468,8.6245 0.4494,5.2121 -3.4098,9.7996 -8.6195,10.2488 -5.2144,0.4496 -9.802,-3.4095 -10.2514,-8.6217 z"
         id="path11702"
         style="fill:#e3e4e5;fill-opacity:1;stroke:#010101;stroke-width:1;stroke-miterlimit:4;stroke-dasharray:none" />
      <path
         d="m -188.6964,862.22417 c -0.4496,-5.2144 3.4096,-9.802 8.6241,-10.2516 5.2097,-0.4493 9.7972,3.41 10.2469,8.6244 0.4494,5.2121 -3.4099,9.7996 -8.6195,10.2488 -5.2145,0.4497 -9.8021,-3.4095 -10.2515,-8.6216 z"
         id="path11704"
         style="fill:#e3e4e5;fill-opacity:1;stroke:#010101;stroke-width:1;stroke-miterlimit:4;stroke-dasharray:none" />
      <path
         d="m -200.8161,852.02867 c -0.4496,-5.2144 3.4096,-9.802 8.6241,-10.2517 5.2096,-0.4492 9.7972,3.4101 10.2468,8.6245 0.4495,5.2121 -3.4098,9.7996 -8.6195,10.2488 -5.2144,0.4496 -9.802,-3.4095 -10.2514,-8.6216 z"
         id="path11706"
         style="fill:#e3e4e5;fill-opacity:1;stroke:#010101;stroke-width:1;stroke-miterlimit:4;stroke-dasharray:none" />
      <path
         d="m -210.2733,840.31547 c -0.4496,-5.2144 3.4097,-9.802 8.6241,-10.2516 5.2097,-0.4492 9.7973,3.4101 10.2469,8.6245 0.4494,5.2121 -3.4098,9.7996 -8.6195,10.2488 -5.2145,0.4496 -9.802,-3.4095 -10.2515,-8.6217 z"
         id="path11708"
         style="fill:#e3e4e5;fill-opacity:1;stroke:#010101;stroke-width:1;stroke-miterlimit:4;stroke-dasharray:none" />
      <path
         d="m -217.15089,829.03329 c 1.6013,3.5757 5.57199,6.59499 9.69779,6.23929 4.0049,-0.3453 7.161,-3.46339 8.2187,-7.10399 -5.86959,0.32398 -11.67969,0.29981 -17.91649,0.8647 z"
         id="path11787"
         style="fill:#e3e4e5;fill-opacity:1;stroke:#010101;stroke-width:1;stroke-miterlimit:4;stroke-dasharray:none" />
      <path
         d="m -285.8015,855.75687 c -0.4496,-5.2144 3.4096,-9.802 8.6241,-10.2516 5.2097,-0.4493 9.7972,3.41 10.2469,8.6244 0.4494,5.2121 -3.4099,9.7996 -8.6195,10.2488 -5.2145,0.4497 -9.8021,-3.4095 -10.2515,-8.6216 z"
         id="path11716"
         style="fill:#e3e4e5;fill-opacity:1;stroke:#010101;stroke-width:1;stroke-miterlimit:4;stroke-dasharray:none" />
      <path
         d="m -273.8643,867.71427 c -0.4496,-5.2144 3.4096,-9.802 8.6241,-10.2516 5.2096,-0.4492 9.7972,3.4101 10.2468,8.6245 0.4494,5.2121 -3.4098,9.7996 -8.6195,10.2488 -5.2144,0.4496 -9.802,-3.4095 -10.2514,-8.6217 z"
         id="path11714"
         style="fill:#e3e4e5;fill-opacity:1;stroke:#010101;stroke-width:1;stroke-miterlimit:4;stroke-dasharray:none" />
    </g>
    <path
       d="m 91.712894,171.36271 498.992376,0 0,458.13624 c 0,171.96267 -191.91988,58.03698 -249.49682,154.76675 C 283.63273,687.53593 91.712894,790.71362 91.712894,629.49895 l 0,-458.13624 z"
       id="path3662"
       style="fill:none;stroke:#000000;stroke-width:3;stroke-miterlimit:4;stroke-dasharray:none" />
    <path
       d="m 688.25781,282.85039 c 2.30701,-29.22364 -11.02254,-62.99915 -38.08577,-82.41671 -24.84354,-22.29549 -48.95628,-43.02189 -38.12705,-68.50244 1.86151,-2.5449 7.33014,-12.51899 19.74744,-1.56909 -2.04066,-12.97738 -28.73729,-26.98062 -44.04775,-5.09611 -15.45379,26.13971 -4.88377,55.63255 18.4734,77.7157 28.02862,22.50782 47.13903,38.64552 42.04292,59.87931 3.39741,-33.33707 -35.2481,-41.83058 -45.22799,-33.76174 -19.11041,14.01431 -10.19222,46.50201 13.3773,54.14618 -11.04158,-16.56236 -4.25609,-28.15707 10.1829,-23.06097 11.21036,7.09227 12.55131,21.6707 7.4045,37.73579"
       id="path5939"
       style="fill:#ed1c24;fill-opacity:1;fill-rule:evenodd;stroke:#000000;stroke-width:1;stroke-linecap:butt;stroke-linejoin:miter;stroke-miterlimit:4;stroke-opacity:1;stroke-dasharray:none" />
    <path
       d="m 1.9428676,282.85039 c -2.30701003,-29.22364 11.0225404,-62.99915 38.0857704,-82.41671 24.84354,-22.29549 48.95628,-43.02189 38.12705,-68.50244 -1.86151,-2.5449 -7.33014,-12.51899 -19.74744,-1.56909 2.04066,-12.97738 28.73729,-26.98062 44.047752,-5.09611 15.45379,26.13971 4.88377,55.63255 -18.473402,77.7157 -28.02862,22.50782 -47.13903,38.64552 -42.04292,59.87931 -3.39741,-33.33707 35.2481,-41.83058 45.22799,-33.76174 19.110412,14.01431 10.19222,46.50201 -13.3773,54.14618 11.04158,-16.56236 4.25609,-28.15707 -10.1829,-23.06097 -11.21036,7.09227 -12.55131,21.6707 -7.4045,37.73579"
       id="path4445"
       style="fill:#ed1c24;fill-opacity:1;fill-rule:evenodd;stroke:#000000;stroke-width:1;stroke-linecap:butt;stroke-linejoin:miter;stroke-miterlimit:4;stroke-opacity:1;stroke-dasharray:none" />
    <path
       d="m 60.309898,630.97325 c -2.00089,-4.12391 -11.0867,0.82088 -6.85285,5.48228 10.25851,14.47526 25.33477,26.39994 45.22878,32.65667 28.176062,8.13059 22.871472,14.84417 34.043682,32.04346 3.27006,6.95426 9.09071,15.60886 16.89513,15.47817 12.17752,0.35912 9.33501,-14.30181 -3.42642,-15.07628 28.33973,-6.09424 28.33973,34.28866 0,33.57896 6.64518,2.75823 7.33902,7.21686 6.04907,15.07625 -0.71459,7.23764 3.67195,13.05827 8.3419,15.76155 -17.3813,0.1136 -33.06222,-9.40832 -38.25745,-23.74798 -14.69636,23.51831 -47.246762,30.03279 -74.129212,22.3774 26.19227,3.74279 41.89885,-8.95145 47.96992,-21.92909 12.696682,-27.08523 1.34435,-51.61988 -31.86933,-66.51902 -25.87467,-16.64228 -45.23121,-33.85137 -35.39782,-80.53376 5.7107,8.9087 17.65615,28.5865 18.5491,25.30911 -19.59954,-30.8459 -26.43971,-37.14724 -25.84342,-61.74933 -0.44623,-15.48921 3.84562,-30.30922 11.28753,-46.76261 -11.62294,34.14084 -5.95865,58.92959 21.24382,76.06658 23.75529,11.90634 36.4581,-13.31236 22.52155,-23.79438 -27.20247,-10.87661 -37.11771,-43.00802 -17.55964,-62.10316 -4.61009,19.60207 -2.41865,32.96939 14.22606,40.66876 14.21262,3.38857 16.52257,4.79334 17.13211,17.8174 -0.0379,9.35212 9.27638,5.38456 7.25474,-1.70038 -8.70329,-30.63869 -5.50389,-48.52449 19.233712,-79.16319 -5.14042,13.07538 -4.3295,26.71754 -1.8182,38.37593 4.378,8.62531 6.20542,14.98343 4.0653,25.30912 0.29771,3.70928 2.60156,2.33978 3.50515,-0.71336 1.58452,-23.86571 23.28532,-12.15855 25.60661,-2.90363 7.68485,21.0879 -3.90129,30.5565 -13.78707,20.4707 8.75442,5.24305 7.87331,-5.95094 5.57524,-11.76038 -5.30341,-8.73806 -14.29098,-5.57344 -12.22606,10.62746 2.02987,28.88184 -20.31242,47.27799 -41.521122,46.68651 -7.88016,-2.14013 -8.95878,5.92203 -0.68529,5.48228 16.082812,1.49271 31.315432,-1.54892 39.746502,-15.07626 3.55853,9.6121 1.4491,20.92455 -8.02866,22.88492 13.42456,3.8273 21.18117,11.05538 22.41965,25.08499 -0.87095,12.20808 9.59398,21.01539 14.39097,31.52309 -7.85574,-7.2926 -19.39563,-15.43538 -36.32008,-15.07625 -16.45904,1.27284 -28.383722,-1.98868 -31.523092,-12.33513 -0.70172,-5.32241 -6.50457,-6.67725 -5.5059,-1.51397 4.13782,6.63125 2.32432,4.1938 -3.74015,3.74013 -8.43223,-4.6974 -12.0467,-11.94538 -16.79476,-20.04356 z"
       id="path4447"
       style="fill:#eac102;fill-opacity:1;fill-rule:evenodd;stroke:#000000;stroke-width:1;stroke-linecap:butt;stroke-linejoin:miter;stroke-miterlimit:4;stroke-opacity:1;stroke-dasharray:none" />
    <path
       d="m 629.89078,630.97325 c 2.00089,-4.12391 11.0867,0.82088 6.85285,5.48228 -10.25851,14.47526 -25.33477,26.39994 -45.22878,32.65667 -28.17606,8.13059 -22.87147,14.84417 -34.04368,32.04346 -3.27006,6.95426 -9.09071,15.60886 -16.89513,15.47817 -12.17752,0.35912 -9.33501,-14.30181 3.42642,-15.07628 -28.33973,-6.09424 -28.33973,34.28866 0,33.57896 -6.64518,2.75823 -7.33902,7.21686 -6.04907,15.07625 0.71459,7.23764 -3.67195,13.05827 -8.3419,15.76155 17.3813,0.1136 33.06222,-9.40832 38.25745,-23.74798 14.69636,23.51831 47.24676,30.03279 74.12921,22.3774 -26.19227,3.74279 -41.89885,-8.95145 -47.96992,-21.92909 -12.69668,-27.08523 -1.34435,-51.61988 31.86933,-66.51902 25.87467,-16.64228 45.23121,-33.85137 35.39782,-80.53376 -5.7107,8.9087 -17.65615,28.5865 -18.5491,25.30911 19.59954,-30.8459 26.43971,-37.14724 25.84342,-61.74933 0.44623,-15.48921 -3.84562,-30.30922 -11.28753,-46.76261 11.62294,34.14084 5.95865,58.92959 -21.24382,76.06658 -23.75529,11.90634 -36.4581,-13.31236 -22.52155,-23.79438 27.20247,-10.87661 37.11771,-43.00802 17.55964,-62.10316 4.61009,19.60207 2.41865,32.96939 -14.22606,40.66876 -14.21262,3.38857 -16.52257,4.79334 -17.13211,17.8174 0.0379,9.35212 -9.27638,5.38456 -7.25474,-1.70038 8.70329,-30.63869 5.50389,-48.52449 -19.23371,-79.16319 5.14042,13.07538 4.3295,26.71754 1.8182,38.37593 -4.378,8.62531 -6.20542,14.98343 -4.0653,25.30912 -0.29771,3.70928 -2.60156,2.33978 -3.50515,-0.71336 -1.58452,-23.86571 -23.28532,-12.15855 -25.60661,-2.90363 -7.68485,21.0879 3.90129,30.5565 13.78707,20.4707 -8.75442,5.24305 -7.87331,-5.95094 -5.57524,-11.76038 5.30341,-8.73806 14.29098,-5.57344 12.22606,10.62746 -2.02987,28.88184 20.31242,47.27799 41.52112,46.68651 7.88016,-2.14013 8.95878,5.92203 0.68529,5.48228 -16.08281,1.49271 -31.31543,-1.54892 -39.7465,-15.07626 -3.55853,9.6121 -1.4491,20.92455 8.02866,22.88492 -13.42456,3.8273 -21.18117,11.05538 -22.41965,25.08499 0.87095,12.20808 -9.59398,21.01539 -14.39097,31.52309 7.85574,-7.2926 19.39563,-15.43538 36.32008,-15.07625 16.45904,1.27284 28.38372,-1.98868 31.52309,-12.33513 0.70172,-5.32241 6.50457,-6.67725 5.5059,-1.51397 -4.13782,6.63125 -2.32432,4.1938 3.74015,3.74013 8.43223,-4.6974 12.0467,-11.94538 16.79476,-20.04356 z"
       id="path5951"
       style="fill:#eac102;fill-opacity:1;fill-rule:evenodd;stroke:#000000;stroke-width:1;stroke-linecap:butt;stroke-linejoin:miter;stroke-miterlimit:4;stroke-opacity:1;stroke-dasharray:none" />
    <path
       d="m 609.39844,441.79567 c 3.05603,-4.31167 7.85048,-13.3278 7.66876,-19.36201 -3.92638,-17.28749 -10.33616,-22.13607 -27.2415,-17.73267 -6.79392,2.16381 -10.22163,1.30207 -12.39289,-3.1125 4.22156,2.68586 9.16536,-0.85138 11.96456,-3.85493 18.15737,-13.69033 38.2549,-2.85357 41.83312,18.30378 3.63912,-4.33119 3.89828,-11.50074 -0.28555,-20.98795 -3.61643,-7.98536 -4.18383,-20.75933 4.11193,-29.81146 -4.25962,10.75816 2.84706,21.51278 13.87774,31.38198 15.08986,12.72508 15.22944,39.13898 -3.28382,53.99757 6.35881,-3.10573 10.45168,-3.1006 19.6173,0.79954 6.461,4.41085 12.35391,2.13802 15.13417,-4.88291 -1.75253,17.84476 -23.7789,24.70419 -47.82115,23.87201 -6.4907,-0.25866 -12.85591,-0.4336 -19.24966,-2.58756"
       id="path5953"
       style="fill:#eac102;fill-opacity:1;fill-rule:evenodd;stroke:#000000;stroke-width:1;stroke-linecap:butt;stroke-linejoin:miter;stroke-miterlimit:4;stroke-opacity:1;stroke-dasharray:none" />
    <path
       d="m 80.802238,441.79567 c -3.05603,-4.31167 -7.85048,-13.3278 -7.66876,-19.36201 3.92638,-17.28749 10.33616,-22.13607 27.241502,-17.73267 6.79392,2.16381 10.22163,1.30207 12.39289,-3.1125 -4.22156,2.68586 -9.16536,-0.85138 -11.96456,-3.85493 -18.157372,-13.69033 -38.254902,-2.85357 -41.833122,18.30378 -3.63912,-4.33119 -3.89828,-11.50074 0.28555,-20.98795 3.61643,-7.98536 4.18383,-20.75933 -4.11193,-29.81146 4.25962,10.75816 -2.84706,21.51278 -13.87774,31.38198 -15.08986,12.72508 -15.22944,39.13898 3.28382,53.99757 -6.35881,-3.10573 -10.45168,-3.1006 -19.6173,0.79954 -6.461,4.41085 -12.35391,2.13802 -15.1341704,-4.88291 1.7525304,17.84476 23.7789004,24.70419 47.8211504,23.87201 6.4907,-0.25866 12.85591,-0.4336 19.24966,-2.58756"
       id="path4443"
       style="fill:#eac102;fill-opacity:1;fill-rule:evenodd;stroke:#000000;stroke-width:1;stroke-linecap:butt;stroke-linejoin:miter;stroke-miterlimit:4;stroke-opacity:1;stroke-dasharray:none" />
    <g
       transform="matrix(1.5804715,0,0,1.5804715,51.417023,2.648051)"
       id="svg_417"
       style="fill:#eac102;fill-opacity:1">
      <ellipse
         cx="183.31485"
         cy="79.877464"
         rx="12.993631"
         ry="12.226945"
         id="svg_424"
         style="fill:#eac102;fill-opacity:1;stroke:#000000;stroke-width:0.63272262" />
      <g
         id="svg_421"
         style="fill:#eac102;fill-opacity:1">
        <ellipse
           cx="161.29787"
           cy="80.217102"
           rx="9.0233545"
           ry="8.4909344"
           id="svg_423"
           style="fill:#eac102;fill-opacity:1;stroke:#000000;stroke-width:0.63272262" />
        <path
           d="m 116.92568,86.385345 5.40267,2.414742 4.13141,1.270866 4.92597,0.76252 4.76709,0 6.99159,-1.143776 5.56163,-2.414703 2.86018,-2.923103 1.43013,-3.812691 -2.22456,-4.321045 -4.926,-3.177231 -5.40263,-0.635483 -3.81365,1.779266 -2.38353,2.033447 0.15889,2.160515 0.95343,2.033447 2.38353,1.270905 3.01906,-0.127083 -0.31773,1.016693 -2.38351,0.889648 -3.17812,0.381279 -4.2903,0.254166 -4.44924,-0.635445 -6.35606,-1.652176 -4.76704,-2.033424 -3.6548,-1.143822 -3.81361,0.254166 -3.33699,1.779259 -1.58898,2.160538 -0.15889,2.414749 0.63559,2.541786 1.58898,2.287598 3.17806,2.033447 2.54245,0 2.86021,-1.143799 0.9534,-1.906342 -1.11228,-1.779266 -1.11232,-1.652176 4.92597,0.762527 z"
           id="svg_422"
           style="fill:#eac102;fill-opacity:1;stroke:#000000;stroke-width:0.63272262" />
      </g>
      <g
         id="svg_418"
         style="fill:#eac102;fill-opacity:1">
        <ellipse
           cx="204.51398"
           cy="80.783165"
           rx="8.9273624"
           ry="9.0569963"
           id="svg_420"
           style="fill:#eac102;fill-opacity:1;stroke:#000000;stroke-width:0.63272262" />
        <path
           d="m 248.41412,87.362648 -5.34518,2.575668 -4.08751,1.355614 -4.87355,0.813416 -4.71632,0 -6.91729,-1.22007 -5.50242,-2.575714 -2.82977,-3.117943 -1.41492,-4.066879 2.20093,-4.609138 4.87355,-3.389061 5.34526,-0.677818 3.77299,1.897888 2.3582,2.168991 -0.15722,2.304588 -0.94326,2.168991 -2.35812,1.355637 -2.98711,-0.135559 0.31452,1.084473 2.35812,0.948952 3.14421,0.406677 4.24471,0.271141 4.40193,-0.677818 6.28847,-1.762306 4.71632,-2.169014 3.61583,-1.22007 3.77312,0.271118 3.30142,1.897934 1.57214,2.304504 0.15714,2.575729 -0.62882,2.711243 -1.57211,2.440109 -3.1442,2.169029 -2.51544,0 -2.82974,-1.220055 -0.94328,-2.033447 1.10047,-1.897896 1.10048,-1.762291 -4.87355,0.813377 z"
           id="svg_419"
           style="fill:#eac102;fill-opacity:1;stroke:#000000;stroke-width:0.63272262" />
      </g>
    </g>
  </g>
</svg>
