<?xml version="1.0" encoding="utf-8"?>
<!-- Generator: Adobe Illustrator 16.0.0, SVG Export Plug-In . SVG Version: 6.00 Build 0)  -->
<!DOCTYPE svg PUBLIC "-//W3C//DTD SVG 1.1//EN" "http://www.w3.org/Graphics/SVG/1.1/DTD/svg11.dtd">
<svg version="1.1" id="Capa_1" xmlns="http://www.w3.org/2000/svg" xmlns:xlink="http://www.w3.org/1999/xlink" x="0px" y="0px"
	 width="623.622px" height="737.007px" viewBox="0 0 623.622 737.007" enable-background="new 0 0 623.622 737.007"
	 xml:space="preserve">
<g>
	<path fill="#21386D" d="M19.285,426.759V17.719h585.053v409.04c0,161.565-130.963,292.527-292.53,292.527
		C150.253,719.287,19.285,588.325,19.285,426.759z"/>
	<g>
		<path fill="#FCEA10" d="M300.74,69.524c-1.558-1.251-3.833-2.734-5.864-2.734c-3.009,0-3.643,4.195-7.284,3.801
			c-3.906-0.428-3.563-3.325-6.491-4.275c-3.216-1.046-3.954,1.899-6.013,2.059c-2.997,0.227-4.75-3.802-4.75-3.802
			s2.348,1.822,3.721,1.426c2.455-0.712,3.33-4.307,7.279-4.037c3.483,0.237,4.518,4.017,6.254,3.245
			c2.139-0.949,1.979-3.642,5.858-5.225c2.033-0.829,4.714-0.423,7.032,0.265c-0.217-1.985-0.776-4.646-2.217-6.082
			c-2.122-2.127-5.537,0.392-7.834-2.464c-2.46-3.062-0.169-4.867-1.568-7.612c-1.536-3.013-4.143-1.456-5.705-2.797
			c-2.286-1.958-0.67-6.044-0.67-6.044s0.369,2.951,1.62,3.638c2.238,1.23,5.399-0.687,8.002,2.296
			c2.296,2.628,0.354,6.032,2.127,6.714c2.185,0.84,3.976-1.171,7.838,0.449c2.021,0.85,3.631,3.034,4.788,5.161
			c1.25-1.562,2.729-3.836,2.729-5.869c0-3.009-4.191-3.643-3.795-7.284c0.422-3.906,3.324-3.559,4.275-6.486
			c1.039-3.221-1.9-3.959-2.059-6.018c-0.233-2.999,3.795-4.751,3.795-4.751s-1.82,2.355-1.425,3.722
			c0.713,2.453,4.308,3.336,4.039,7.284c-0.24,3.483-4.018,4.518-3.242,6.249c0.944,2.139,3.638,1.979,5.22,5.858
			c0.828,2.032,0.422,4.719-0.266,7.036c1.992-0.217,4.648-0.78,6.092-2.216c2.113-2.127-0.4-5.543,2.449-7.832
			c3.061-2.467,4.879-0.17,7.621-1.568c3.01-1.543,1.457-4.145,2.787-5.712c1.963-2.28,6.049-0.671,6.049-0.671
			s-2.945,0.375-3.641,1.621c-1.225,2.238,0.695,5.404-2.291,8.007c-2.627,2.291-6.027,0.354-6.713,2.128
			c-0.836,2.179,1.17,3.969-0.455,7.832c-0.844,2.027-3.029,3.637-5.152,4.788c1.563,1.25,3.834,2.733,5.871,2.733
			c2.998,0,3.633-4.197,7.283-3.8c3.906,0.427,3.559,3.325,6.48,4.274c3.221,1.046,3.961-1.9,6.018-2.057
			c3-0.228,4.75,3.798,4.75,3.798s-2.354-1.819-3.717-1.424c-2.457,0.713-3.334,4.308-7.283,4.039
			c-3.482-0.238-4.518-4.018-6.248-3.248c-2.143,0.951-1.984,3.642-5.869,5.227c-2.025,0.827-4.707,0.421-7.031-0.265
			c0.223,1.985,0.779,4.646,2.217,6.08c2.135,2.127,5.543-0.39,7.836,2.466c2.467,3.062,0.166,4.867,1.572,7.61
			c1.529,3.015,4.137,1.457,5.711,2.798c2.277,1.958,0.662,6.043,0.662,6.043s-0.369-2.949-1.613-3.636
			c-2.24-1.23-5.404,0.687-8.002-2.296c-2.301-2.629-0.357-6.032-2.133-6.715c-2.186-0.839-3.969,1.179-7.838-0.448
			c-2.021-0.85-3.635-3.034-4.787-5.162c-1.252,1.563-2.734,3.838-2.734,5.869c0,3.009,4.195,3.642,3.799,7.283
			c-0.422,3.906-3.322,3.558-4.273,6.488c-1.046,3.219,1.898,3.959,2.059,6.017c0.232,2.998-3.801,4.75-3.801,4.75
			s1.827-2.354,1.424-3.721c-0.711-2.454-4.3-3.335-4.031-7.283c0.236-3.483,4.017-4.519,3.239-6.251
			c-0.949-2.136-3.636-1.979-5.22-5.858c-0.833-2.031-0.427-4.718,0.259-7.034c-1.984,0.215-4.646,0.78-6.081,2.216
			c-2.127,2.128,0.392,5.542-2.459,7.833c-3.062,2.465-4.871,0.169-7.611,1.567c-3.014,1.541-1.457,4.144-2.798,5.711
			c-1.958,2.286-6.043,0.67-6.043,0.67s2.945-0.375,3.636-1.619c1.23-2.238-0.69-5.406,2.292-8.008
			c2.633-2.29,6.032-0.354,6.719-2.127c0.839-2.181-1.177-3.968,0.442-7.833C296.434,72.285,298.618,70.674,300.74,69.524z"/>
		<g>
			<g>
				<path fill="#0F7366" d="M554.661,319.2c-1.311-1.236-4.467-4.46-6.674-8.631c-0.441-0.839-0.854-1.752-1.244-2.713
					c-2.037-0.332-5.574-1.23-7.305-3.621c-2.533-3.482-4.182-7.15-6.969-8.545c-4.434-2.217-3.482-6.65-5.385-8.866
					c-1.898-2.217-9.182-5.385-7.6-17.414c0,0,2.705,7.469,7.283,8.552c5.387,1.266,8.551,5.378,8.869,9.178
					c0.293,3.475,2.344,5.516,3.801,6.65c2.848,2.218,2.531,6.651,3.799,8.229c0.592,0.739,1.395,1.341,2.068,1.774
					c-1.424-4.376-2.816-9.253-5.232-13.486c-3.803-6.651-6.021-24.696-6.021-24.696l2.219-0.95c0,0,2.217,18.047,6.016,24.697
					c3.803,6.65,5.07,14.878,7.918,20.263c1.373,2.607,3.127,4.851,4.574,6.46c0.598-15.729,1.549-32.872,1.762-48.254l0.104-6.967
					c-1.561-1.252-4.854-4.175-5.805-7.278c-1.266-4.118-5.385-6.651-5.385-11.712c0-5.067,0.635-7.6-1.582-11.719
					c-2.217-4.111-1.586-10.445-0.635-12.663c0,0,3.168,9.502,5.068,11.718c1.898,2.213,4.432,5.696,3.484,10.764
					c-0.951,5.066,2.85,6.328,3.484,9.494c0.58,2.931-0.191,4.234,1.443,7.919c0.518-24.38,1.711-56.356,1.711-56.356h3.168
					c0,0-1.09,29.041-1.637,52.872c0.59-1.631,1.479-3.631,2.588-5.067c2.213-2.85-0.496-6.799,2.848-10.444
					c3.484-3.801,3.811-7.036,4.436-9.813c0.631-2.85,4.42-4.117,4.42-4.117s-1.887,3.168-1.256,6.329
					c0.625,3.167,0.625,9.501-1.898,11.085c-2.533,1.582-4.119,5.694-4.119,8.861c0,3.126-3.387,7.174-7.125,8.192l-0.158,8.903
					c-0.166,12.991-0.875,27.236-1.445,40.828c2.531-3.706,5.617-9.068,6.512-14.23c1.586-9.185,4.436-37.359,14.561-50.654
					l1.898,1.582c-10.123,13.296-12.975,41.473-14.557,50.656c-1.16,6.734-6.072,13.807-8.605,17.102l-0.178,4.729
					c1.764-1.748,4.826-5.068,6.566-8.535c2.531-5.068,2.852-7.602,6.967-8.234c4.105-0.628,6.029-2.908,6.957-6.646
					c0.951-3.801,6.018-6.651,9.816-5.7c0,0-4.676,1.609-6.652,6.333c-1.582,3.796,0.32,6.646-3.164,9.813
					c-3.482,3.168-7.59,0.317-11.393,6.651c-2.773,4.629-7.082,7.563-9.193,8.809c-0.252,7.632-0.4,14.848-0.307,21.267
					c0.139,8.672,0.668,17.85,1.258,27.177c0.738-2.132,1.91-6.012,1.91-9.448c0-5.067,0.316-10.134,4.75-13.612
					c4.436-3.482,8.855-2.216,10.758-7.917c1.898-5.701,5.701-9.18,9.184-9.495c3.484-0.317,8.551-6.65,8.551-6.65
					s-0.635,8.867-3.484,10.763c-2.848,1.903-5.701,5.383-5.701,8.866s-2.531,8.545-8.865,11.396
					c-6.326,2.851-9.809,6.968-10.125,10.768c-0.242,2.989-4.814,7.347-6.744,9.073c0.736,11.608,1.52,23.366,1.678,34.62
					l0.094,8.467c1.266-2.872,3.273-7.803,3.707-11c0.635-4.751,6.016-8.232,9.49-10.45c3.482-2.217,2.848-9.502,7.918-14.564
					c5.066-5.066,8.549-6.333,10.451-12.027c0,0,1.582,7.594-2.533,14.557c-4.119,6.967-0.318,14.884-6.967,19.635
					c-6.652,4.751-12.65,4.022-13.926,10.134c-1.488,7.146-4.105,7.844-8.1,8.963c0.088,17.112-0.061,32.693-0.061,33.686
					c0,0,0,1.9-1.498,1.9c-1.66,0-1.67-1.9-1.67-1.9c0-1.057,0.182-18.737,0.043-37.158c-1.666-2.701-6.914-11.295-9.289-16.574
					c-2.852-6.333-9.504-9.185-11.4-15.201c-1.902-6.013-1.586-12.664-3.168-18.357c-1.582-5.701-2.85-10.134-2.533-16.468
					c0,0,3.799,8.233,8.234,11.4c4.434,3.167,6.332,9.813,6.65,14.88c0.316,5.062,3.799,6.65,6.018,9.178
					c2.217,2.533,2.533,12.035,2.533,15.835c0,2.301,1.613,6.335,2.893,9.164l-0.055-4.097c-0.223-15.222-1.549-31.399-2.426-46.84
					c-1.215-0.733-4.234-2.791-5.479-6.038c-1.586-4.116-2.852-6.65-5.07-8.545c-2.217-1.9-3.799-6.333-3.799-9.817
					c0-3.482-3.168-5.378-5.385-7.279c-2.215-1.9-4.75-9.5-2.533-18.362c0,0,1.9,9.496,6.652,12.663
					c4.75,3.167,7.283,7.283,7.602,10.451c0.316,3.161,3.799,4.428,4.115,9.495c0.297,4.825,0.887,9.073,3.674,13.295
					c-0.254-4.966-0.445-9.839-0.506-14.562C554.215,334.865,554.383,327.249,554.661,319.2z"/>
				<g>
					<path fill-rule="evenodd" clip-rule="evenodd" fill="#FFFFFF" d="M557.793,187.729c0,0-1.15-4.496-0.631-7.917
						c0.631-4.117,3.166-8.862,4.906-8.862c1.744,0,4.277,5.854,5.229,9.18c0.947,3.324,0.158,8.551,0.158,8.551
						s3.799-5.227,7.598-6.334c3.801-1.108,7.604-0.793,8.553,0.315c0.949,1.109-1.9,6.019-4.92,7.919
						c-2.998,1.898-6.008,2.375-6.008,2.375s4.889,1.668,6.811,2.844c2.045,1.273,4.582,3.484,4.434,4.909
						c-0.17,1.425-4.434,3.166-8.869,2.533c-4.434-0.633-7.918-2.533-7.918-2.533s1.744,3.484,2.695,6.651
						c0.949,3.166,1.266,6.803,0.314,7.277c-0.949,0.476-5.699-0.948-8.232-4.586c-2.533-3.643-2.691-6.967-2.691-6.967
						s-2.059,3.483-4.75,5.066c-2.682,1.583-6.969,2.212-8.066,1.583c-1.119-0.633,0.389-6.286,1.73-8.709
						c1.586-2.85,5.385-5.859,5.385-5.859s-4.898-1.419-7.918-3.795c-2.998-2.374-4.422-6.809-3.799-7.917
						c0.631-1.107,6.016-0.949,10.303,0.634C555.293,185.27,557.793,187.729,557.793,187.729z"/>
					<path fill-rule="evenodd" clip-rule="evenodd" fill="#FFFFFF" d="M584.239,225.563c0,0-2.533-5.225-4.287-4.434
						c-1.539,0.708-1.098,5.067-1.098,8.868c0,3.795-2.385,8.388-3.166,10.445c-0.801,2.059-0.801,5.854,2.363,7.12
						c3.168,1.267,6.02-0.634,7.285-4.27c1.268-3.642,2.691-8.234,5.701-11.085c3.336-3.16,5.32-4.544,4.273-6.012
						c-0.789-1.108-5.066,0.792-5.066,0.792s0.158-4.908-1.266-5.384C587.7,221.178,584.239,225.563,584.239,225.563z"/>
					<path fill-rule="evenodd" clip-rule="evenodd" fill="#FFFFFF" d="M534.213,245.035c0,0-2.059-4.907-3.484-4.75
						c-1.428,0.158-2.217,5.695-2.217,5.695s-6.809-1.578-6.957-0.159c-0.168,1.426,2.045,1.901,3.473,3.642
						c1.426,1.742,2.691,6.968,3.166,10.769c0.477,3.796,3.348,9.311,8.076,8.229c5.533-1.266,5.213-7.437,3.959-11.871
						c-1.266-4.433-2.217-6.65-1.584-9.025c0.453-1.71,2.133-4.069,1.266-4.587C538.329,242.027,534.213,245.035,534.213,245.035z"
						/>
				</g>
			</g>
			<path fill-rule="evenodd" clip-rule="evenodd" fill="#3B9480" d="M562.227,363.441c0,0,1.744-3.8,2.061-7.284
				c0.314-3.483,2.217-7.437,6.174-9.337c3.961-1.9,7.213-5.146,7.908-8.233c1.119-4.909,2.701-7.754,8.086-9.338
				c0,0-5.236,2.692-6.018,6.805c-0.781,3.996-1.117,6.491-4.285,9.341c-2.523,2.275-6.008,2.693-7.908,5.063
				c-1.898,2.375-2.691,5.384-3.322,7.6C564.288,360.275,562.227,363.441,562.227,363.441z"/>
			<path fill-rule="evenodd" clip-rule="evenodd" fill="#3B9480" d="M553.52,405.233c0,0-0.783-13.299-4.119-17.576
				c-3.313-4.27-7.115-7.437-7.115-13.137s-1.824-8.973-4.588-10.763c-2.695-1.741-4.119-5.066-4.119-5.066s0.793,3.958,3.641,6.175
				c2.854,2.217,3.326,6.804,3.326,9.178c0,2.377,0.158,6.652,3.326,9.814c3.168,3.167,5.701,6.334,7.283,11.559
				C552.737,400.643,553.52,405.233,553.52,405.233z"/>
			<path fill-rule="evenodd" clip-rule="evenodd" fill="#3B9480" d="M564.602,412.667c0,0,0.32-8.065,4.277-11.548
				c2.713-2.387,10.396-6.239,11.389-11.086c1.121-5.384,2.43-8.287,4.287-10.287c1.9-2.058,4.582-3.009,4.582-3.009
				s-1.902,1.108-3.484,3.009c-1.582,1.901-3.229,7.468-3.799,11.236c-0.635,4.277-5.711,7.876-10.441,10.452
				C565.87,404.432,564.602,412.667,564.602,412.667z"/>
			<path fill-rule="evenodd" clip-rule="evenodd" fill="#3B9480" d="M533.42,317.056c0,0,1.266,5.541,5.225,8.393
				c3.854,2.775,6.006,5.067,6.178,7.753c0.166,2.846,0.145,4.593,1.73,6.019c1.582,1.424,3.334,3.483,3.65,11.554
				c0,0-0.951-7.791-3.967-10.13c-2.852-2.217-3.168-5.225-3.168-7.277c0-2.693-3.125-5.511-4.898-6.81
				C534.051,323.549,533.42,317.056,533.42,317.056z"/>
			<path fill-rule="evenodd" clip-rule="evenodd" fill="#3B9480" d="M542.118,303.602c0,0-2.365-2.218-2.838-5.537
				c-0.117-0.786-0.719-3.341-3.01-4.75c-2.057-1.267-2.26-3.806-2.375-6.176c-0.158-3.166-2.057-5.226-5.066-6.487
				c-3.01-1.271-4.277-1.425-7.273-3.324c0,0,1.582,1.736,4.75,3.161c2.598,1.172,5.691,3.009,6.164,6.492
				c0.273,2.037,0.158,5.226,2.375,6.65c1.49,0.955,2.82,2.556,3.168,4.434C538.645,301.543,542.118,303.602,542.118,303.602z"/>
			<path fill-rule="evenodd" clip-rule="evenodd" fill="#3B9480" d="M563.336,312.945c0,0,3.961-8.076,5.543-8.867
				c2.607-1.3,6.174-1.108,7.904-3.484c1.734-2.343,1.123-4.903,4.119-8.545c0,0-1.266,2.375-2.049,5.385
				c-0.525,1.983-0.832,5.457-4.75,6.169c-3.484,0.633-5.066,1.267-6.648,3.483C565.87,309.303,563.336,312.945,563.336,312.945z"/>
			<path fill-rule="evenodd" clip-rule="evenodd" fill="#3B9480" d="M553.836,252.631c0,0-0.633-5.543-2.533-7.126
				c-1.902-1.579-1.582-3.797-1.416-6.963c0.139-2.845-0.166-5.7-1.9-7.911c-1.457-1.854-2.533-2.06-3.484-6.492
				c0,0-0.166,4.117,2.219,6.808c2.006,2.275,2.217,5.379,1.9,7.438c-0.316,2.058-0.951,5.863,1.582,8.069
				C552.737,248.671,553.836,252.631,553.836,252.631z"/>
			<path fill-rule="evenodd" clip-rule="evenodd" fill="#3B9480" d="M561.438,253.581c0,0,3.484-3.643,3.484-8.075
				c0-3.019-0.32-5.378,2.213-7.12c2.537-1.742,2.746-3.934,2.854-5.859c0.156-3.003,1.424-5.063,1.424-5.063
				s-0.951,3.32-0.793,6.487c0.105,2.053-0.631,4.275-2.533,5.225c-1.898,0.952-2.217,4.275-2.217,6.176
				C565.87,250.415,561.438,253.581,561.438,253.581z"/>
			<g>
				<path fill="#D0D0D0" d="M560.645,193.905c0-1.14,0.918-2.059,2.061-2.059c1.137,0,2.055,0.919,2.055,2.059
					c0,1.136-0.918,2.054-2.055,2.054C561.563,195.958,560.645,195.041,560.645,193.905z"/>
				<path fill="#D0D0D0" d="M562.706,193.905"/>
			</g>
			<polygon fill-rule="evenodd" clip-rule="evenodd" fill="#D0D0D0" points="584.471,226.039 585.821,229.28 589.93,227.305 
				586.213,228.012 			"/>
			<polygon fill-rule="evenodd" clip-rule="evenodd" fill="#D0D0D0" points="528.637,246.096 531.75,247.881 533.967,245.188 
				531.518,246.856 			"/>
		</g>
		<g>
			<g>
				<path fill="#0F7366" d="M68.958,319.2c1.31-1.236,4.471-4.46,6.682-8.631c0.443-0.839,0.851-1.752,1.235-2.713
					c2.038-0.332,5.574-1.23,7.312-3.621c2.533-3.482,4.174-7.15,6.967-8.545c4.429-2.217,3.483-6.65,5.378-8.866
					c1.9-2.217,9.185-5.385,7.602-17.414c0,0-2.703,7.469-7.285,8.552c-5.378,1.266-8.545,5.378-8.862,9.178
					c-0.29,3.475-2.343,5.516-3.799,6.65c-2.852,2.218-2.534,6.651-3.802,8.229c-0.59,0.739-1.387,1.341-2.073,1.774
					c1.43-4.376,2.824-9.253,5.241-13.486c3.799-6.651,6.017-24.696,6.017-24.696l-2.218-0.95c0,0-2.216,18.047-6.017,24.697
					c-3.795,6.65-5.062,14.878-7.912,20.263c-1.382,2.607-3.135,4.851-4.576,6.46c-0.602-15.729-1.557-32.872-1.757-48.254
					l-0.111-6.967c1.563-1.252,4.856-4.175,5.812-7.278c1.268-4.118,5.379-6.651,5.379-11.712c0-5.067-0.629-7.6,1.588-11.719
					c2.212-4.111,1.578-10.445,0.628-12.663c0,0-3.161,9.502-5.061,11.718c-1.901,2.213-4.435,5.696-3.484,10.764
					c0.95,5.066-2.851,6.328-3.483,9.494c-0.586,2.931,0.185,4.234-1.452,7.919c-0.522-24.38-1.715-56.356-1.715-56.356h-3.162
					c0,0,1.083,29.041,1.637,52.872c-0.596-1.631-1.473-3.631-2.586-5.067c-2.218-2.85,0.49-6.799-2.851-10.444
					c-3.483-3.801-3.816-7.036-4.433-9.813c-0.636-2.85-4.435-4.117-4.435-4.117s1.9,3.168,1.267,6.329
					c-0.633,3.167-0.633,9.501,1.9,11.085c2.532,1.582,4.116,5.694,4.116,8.861c0,3.126,3.389,7.174,7.131,8.192l0.147,8.903
					c0.169,12.991,0.877,27.236,1.457,40.828c-2.538-3.706-5.627-9.068-6.519-14.23c-1.583-9.185-4.434-37.359-14.562-50.654
					l-1.9,1.582c10.129,13.296,12.979,41.473,14.563,50.656c1.16,6.734,6.069,13.807,8.603,17.102l0.181,4.729
					c-1.764-1.748-4.835-5.068-6.566-8.535c-2.534-5.068-2.851-7.602-6.968-8.234c-4.111-0.628-6.027-2.908-6.962-6.646
					c-0.949-3.801-6.017-6.651-9.817-5.7c0,0,4.683,1.609,6.65,6.333c1.584,3.796-0.316,6.646,3.167,9.813
					c3.483,3.168,7.596,0.317,11.396,6.651c2.776,4.629,7.079,7.563,9.189,8.809c0.259,7.632,0.407,14.848,0.307,21.267
					c-0.133,8.672-0.66,17.85-1.246,27.177c-0.749-2.132-1.916-6.012-1.916-9.448c0-5.067-0.316-10.134-4.75-13.612
					c-4.433-3.482-8.867-2.216-10.763-7.917c-1.9-5.701-5.7-9.18-9.185-9.495c-3.483-0.317-8.544-6.65-8.544-6.65
					s0.633,8.867,3.479,10.763c2.849,1.903,5.699,5.383,5.699,8.866s2.533,8.545,8.868,11.396
					c6.328,2.851,9.812,6.968,10.129,10.768c0.248,2.989,4.808,7.347,6.746,9.073c-0.745,11.608-1.516,23.366-1.68,34.62l-0.1,8.467
					c-1.262-2.872-3.273-7.803-3.7-11c-0.633-4.751-6.019-8.232-9.502-10.45c-3.479-2.217-2.844-9.502-7.911-14.564
					c-5.067-5.066-8.55-6.333-10.445-12.027c0,0-1.583,7.594,2.528,14.557c4.117,6.967,0.316,14.884,6.967,19.635
					s12.658,4.022,13.93,10.134c1.489,7.146,4.101,7.844,8.097,8.963c-0.095,17.112,0.058,32.693,0.058,33.686c0,0,0,1.9,1.505,1.9
					c1.656,0,1.656-1.9,1.656-1.9c0-1.057-0.168-18.737-0.031-37.158c1.674-2.701,6.915-11.295,9.296-16.574
					c2.845-6.333,9.495-9.185,11.396-15.201c1.899-6.013,1.583-12.664,3.166-18.357c1.584-5.701,2.852-10.134,2.534-16.468
					c0,0-3.801,8.233-8.233,11.4c-4.43,3.167-6.329,9.813-6.646,14.88c-0.316,5.062-3.801,6.65-6.017,9.178
					c-2.217,2.533-2.534,12.035-2.534,15.835c0,2.301-1.62,6.335-2.902,9.164l0.053-4.097c0.227-15.222,1.558-31.399,2.428-46.84
					c1.225-0.733,4.243-2.791,5.49-6.038c1.582-4.116,2.85-6.65,5.067-8.545c2.21-1.9,3.794-6.333,3.794-9.817
					c0-3.482,3.167-5.378,5.384-7.279c2.217-1.9,4.75-9.5,2.533-18.362c0,0-1.899,9.496-6.649,12.663
					c-4.746,3.167-7.279,7.283-7.596,10.451c-0.317,3.161-3.801,4.428-4.118,9.495c-0.301,4.825-0.892,9.073-3.678,13.295
					c0.252-4.966,0.438-9.839,0.512-14.562C69.411,334.865,69.243,327.249,68.958,319.2z"/>
				<g>
					<path fill-rule="evenodd" clip-rule="evenodd" fill="#FFFFFF" d="M65.822,187.729c0,0,1.161-4.496,0.634-7.917
						c-0.634-4.117-3.161-8.862-4.903-8.862s-4.275,5.854-5.226,9.18c-0.95,3.324-0.158,8.551-0.158,8.551s-3.8-5.227-7.601-6.334
						c-3.795-1.108-7.595-0.793-8.545,0.315c-0.95,1.109,1.899,6.019,4.909,7.919c3.003,1.898,6.011,2.375,6.011,2.375
						s-4.888,1.668-6.804,2.844c-2.059,1.273-4.593,3.484-4.434,4.909s4.434,3.166,8.862,2.533c4.434-0.633,7.917-2.533,7.917-2.533
						s-1.741,3.484-2.69,6.651c-0.951,3.166-1.268,6.803-0.317,7.277c0.949,0.476,5.7-0.948,8.234-4.586
						c2.527-3.643,2.691-6.967,2.691-6.967s2.053,3.483,4.745,5.066c2.691,1.583,6.966,2.212,8.075,1.583
						c1.108-0.633-0.401-6.286-1.742-8.709c-1.583-2.85-5.384-5.859-5.384-5.859s4.909-1.419,7.918-3.795
						c3.004-2.374,4.429-6.809,3.796-7.917c-0.635-1.107-6.013-0.949-10.288,0.634C68.324,185.27,65.822,187.729,65.822,187.729z"/>
					<path fill-rule="evenodd" clip-rule="evenodd" fill="#FFFFFF" d="M39.39,225.563c0,0,2.533-5.225,4.275-4.434
						c1.552,0.708,1.108,5.067,1.108,8.868c0,3.795,2.375,8.388,3.162,10.445c0.796,2.059,0.796,5.854-2.371,7.12
						c-3.166,1.267-6.018-0.634-7.284-4.27c-1.267-3.642-2.691-8.234-5.699-11.085c-3.337-3.16-5.321-4.544-4.271-6.012
						c0.793-1.108,5.063,0.792,5.063,0.792s-0.157-4.908,1.267-5.384C35.922,221.178,39.39,225.563,39.39,225.563z"/>
					<path fill-rule="evenodd" clip-rule="evenodd" fill="#FFFFFF" d="M89.411,245.035c0,0,2.059-4.907,3.482-4.75
						c1.426,0.158,2.218,5.695,2.218,5.695s6.804-1.578,6.962-0.159c0.159,1.426-2.059,1.901-3.483,3.642
						c-1.425,1.742-2.692,6.968-3.166,10.769c-0.476,3.796-3.353,9.311-8.072,8.229c-5.54-1.266-5.225-7.437-3.958-11.871
						c1.268-4.433,2.217-6.65,1.583-9.025c-0.453-1.71-2.131-4.069-1.267-4.587C85.294,242.027,89.411,245.035,89.411,245.035z"/>
				</g>
			</g>
			<path fill-rule="evenodd" clip-rule="evenodd" fill="#3B9480" d="M61.395,363.441c0,0-1.741-3.8-2.059-7.284
				c-0.317-3.483-2.217-7.437-6.177-9.337c-3.958-1.9-7.214-5.146-7.911-8.233c-1.108-4.909-2.692-7.754-8.076-9.338
				c0,0,5.227,2.692,6.018,6.805c0.766,3.996,1.109,6.491,4.275,9.341c2.522,2.275,6.013,2.693,7.912,5.063
				c1.9,2.375,2.691,5.384,3.325,7.6C59.336,360.275,61.395,363.441,61.395,363.441z"/>
			<path fill-rule="evenodd" clip-rule="evenodd" fill="#3B9480" d="M70.098,405.233c0,0,0.792-13.299,4.118-17.576
				c3.324-4.27,7.119-7.437,7.119-13.137s1.826-8.973,4.593-10.763c2.691-1.741,4.117-5.066,4.117-5.066s-0.793,3.958-3.643,6.175
				s-3.324,6.804-3.324,9.178c0,2.377-0.159,6.652-3.321,9.814c-3.166,3.167-5.699,6.334-7.284,11.559
				C70.89,400.643,70.098,405.233,70.098,405.233z"/>
			<path fill-rule="evenodd" clip-rule="evenodd" fill="#3B9480" d="M59.019,412.667c0,0-0.316-8.065-4.274-11.548
				c-2.708-2.387-10.398-6.239-11.396-11.086c-1.108-5.384-2.429-8.287-4.275-10.287c-1.901-2.058-4.593-3.009-4.593-3.009
				s1.901,1.108,3.484,3.009c1.582,1.901,3.241,7.468,3.8,11.236c0.634,4.277,5.716,7.876,10.445,10.452
				C57.752,404.432,59.019,412.667,59.019,412.667z"/>
			<path fill-rule="evenodd" clip-rule="evenodd" fill="#3B9480" d="M90.203,317.056c0,0-1.267,5.541-5.227,8.393
				c-3.852,2.775-6.017,5.067-6.169,7.753c-0.17,2.846-0.159,4.593-1.742,6.019c-1.584,1.424-3.326,3.483-3.643,11.554
				c0,0,0.945-7.791,3.959-10.13c2.845-2.217,3.162-5.225,3.162-7.277c0-2.693,3.134-5.511,4.909-6.81
				C89.569,323.549,90.203,317.056,90.203,317.056z"/>
			<path fill-rule="evenodd" clip-rule="evenodd" fill="#3B9480" d="M81.493,303.602c0,0,2.375-2.218,2.851-5.537
				c0.111-0.786,0.718-3.341,3.008-4.75c2.06-1.267,2.255-3.806,2.376-6.176c0.158-3.166,2.059-5.226,5.062-6.487
				c3.01-1.271,4.276-1.425,7.284-3.324c0,0-1.582,1.736-4.75,3.161c-2.603,1.172-5.694,3.009-6.17,6.492
				c-0.28,2.037-0.158,5.226-2.376,6.65c-1.487,0.955-2.824,2.556-3.167,4.434C84.977,301.543,81.493,303.602,81.493,303.602z"/>
			<path fill-rule="evenodd" clip-rule="evenodd" fill="#3B9480" d="M60.286,312.945c0,0-3.959-8.076-5.542-8.867
				c-2.603-1.3-6.176-1.108-7.912-3.484c-1.726-2.343-1.108-4.903-4.117-8.545c0,0,1.267,2.375,2.059,5.385
				c0.521,1.983,0.822,5.457,4.744,6.169c3.484,0.633,5.068,1.267,6.651,3.483C57.752,309.303,60.286,312.945,60.286,312.945z"/>
			<path fill-rule="evenodd" clip-rule="evenodd" fill="#3B9480" d="M69.781,252.631c0,0,0.634-5.543,2.534-7.126
				c1.9-1.579,1.583-3.797,1.424-6.963c-0.142-2.845,0.159-5.7,1.9-7.911c1.451-1.854,2.529-2.06,3.485-6.492
				c0,0,0.152,4.117-2.218,6.808c-2.011,2.275-2.217,5.379-1.9,7.438c0.317,2.058,0.945,5.863-1.584,8.069
				C70.89,248.671,69.781,252.631,69.781,252.631z"/>
			<path fill-rule="evenodd" clip-rule="evenodd" fill="#3B9480" d="M62.181,253.581c0,0-3.479-3.643-3.479-8.075
				c0-3.019,0.316-5.378-2.217-7.12c-2.534-1.742-2.749-3.934-2.85-5.859c-0.158-3.003-1.426-5.063-1.426-5.063
				s0.949,3.32,0.792,6.487c-0.101,2.053,0.634,4.275,2.534,5.225c1.9,0.952,2.216,4.275,2.216,6.176
				C57.752,250.415,62.181,253.581,62.181,253.581z"/>
			<g>
				<circle fill="#D0D0D0" cx="60.919" cy="193.905" r="2.059"/>
				<path fill="#D0D0D0" d="M60.919,193.905"/>
			</g>
			<polygon fill-rule="evenodd" clip-rule="evenodd" fill="#D0D0D0" points="39.151,226.039 37.806,229.28 33.688,227.305 
				37.41,228.012 			"/>
			<polygon fill-rule="evenodd" clip-rule="evenodd" fill="#D0D0D0" points="94.985,246.096 91.866,247.881 89.648,245.188 
				92.103,246.856 			"/>
		</g>
		<path fill="#D0D0D0" d="M270.143,677.274c0-22.876,18.547-41.424,41.423-41.424c22.888,0,41.425,18.548,41.425,41.424
			c0,10.914-4.225,20.849-11.129,28.248c1.902-4.17,2.945-8.805,2.945-13.682c0-18.367-14.885-33.242-33.242-33.242
			c-18.357,0-33.236,14.875-33.236,33.242c0,4.877,1.05,9.512,2.935,13.682C274.365,698.123,270.143,688.188,270.143,677.274z"/>
		<g>
			<polygon fill="#FCEA10" points="557.227,27.948 560.381,57.042 583.182,38.705 564.858,61.51 593.952,64.673 564.858,67.834 
				583.182,90.642 560.381,72.311 557.227,101.4 554.069,72.311 531.254,90.642 549.592,67.834 520.497,64.673 549.592,61.51 
				531.254,38.705 554.069,57.042 			"/>
			<polygon fill="#FCEA10" points="65.907,27.948 62.746,57.042 39.943,38.705 58.275,61.51 29.187,64.673 58.275,67.834 
				39.943,90.642 62.746,72.311 65.907,101.4 69.068,72.311 91.876,90.642 73.545,67.834 102.627,64.673 73.545,61.51 
				91.876,38.705 69.068,57.042 			"/>
			<polygon fill="#FCEA10" points="509.098,536.071 512.264,565.165 535.067,546.838 516.741,569.64 545.834,572.806 
				516.741,575.962 535.067,598.777 512.264,580.428 509.098,609.522 505.954,580.428 483.141,598.777 501.477,575.962 
				472.383,572.806 501.477,569.64 483.141,546.838 505.954,565.165 			"/>
			<polygon fill="#FCEA10" points="114.028,536.071 110.868,565.165 88.06,546.838 106.396,569.64 77.303,572.806 106.396,575.962 
				88.06,598.777 110.868,580.428 114.028,609.522 117.19,580.428 139.992,598.777 121.66,575.962 150.749,572.806 121.66,569.64 
				139.992,546.838 117.19,565.165 			"/>
		</g>
	</g>
	<g>
		<g>
			<g>
				<path fill="#FCEA10" d="M112.763,426.855c0-26.667,0-315.326,0-315.326h397.603c0,0,0,288.659,0,315.326
					c0,109.807-89.004,198.818-198.8,198.818C201.769,625.673,112.763,536.662,112.763,426.855z"/>
			</g>
		</g>
		<path d="M236.716,476.606c-0.095,2.249-0.654,5.343-2.866,6.904c-4.587,3.24-8.466,0.476-9.1-0.317
			c-0.634-0.791-0.159-1.192,0.712-0.56c0.998,0.729,3.563,1.741,5.305-0.315c1.13-1.331,1.125-3.357,0.981-4.593
			c-6.733-0.464-8.565-8.413-10.64-11.865c-2.376-3.96-6.172-4.593-11.396-4.433c-5.225,0.157-9.754,0.96-11.078,5.066
			c-1.742,5.373,1.741,7.59,1.741,13.143c0,2.828-1.674,5.024-3.975,6.07c0.301,1.635,1.24,4.443,4.134,5.003
			c4.11,0.792,6.485-1.425,7.119-0.948c0.634,0.473-2.365,3.45-7.911,3.323c-5.833-0.138-8.271-3.716-9.438-7.253
			c-0.448-0.179-0.892-0.389-1.329-0.664c-6.171-3.801-2.533-12.183-0.158-16.3s2.69-8.867,2.058-9.501
			c-0.634-0.633-2.691-1.266-7.278,2.376c-4.593,3.642-5.701,7.125-6.335,13.291c-0.475,4.666-2.754,8.148-6.428,8.836
			c0.316,1.489,1.092,3.662,2.945,4.782c3.167,1.899,5.7,1.266,5.7,1.899c0,0.95-5.268,1.225-9.026-0.79
			c-3.589-1.923-5.203-4.783-5.773-7.232c-3.784-2.904-3.267-9.756,0.078-15.086c4.275-6.809,11.871-10.766,16.938-12.826
			c4.27-1.729,6.013-3.167,6.013-4.435c0-1.266-3.479-2.681-7.913-1.899c-4.434,0.803-8.861,4.275-14.879,3.167
			c-0.871-0.159-1.636-0.507-2.279-0.991c-1.373,0.813-2.862,2.164-3.263,4.317c-0.608,3.304,2.691,5.225,2.217,6.016
			c-0.476,0.793-5.543-2.215-5.385-6.968c0.134-3.882,1.748-6.29,3.981-7.904c-0.402-3.209,1.091-6.915,4.888-8.552
			c6.966-3.009,17.569-0.316,30.55,3.948c12.979,4.286,22.157,5.553,25.166,5.553c3.008,0,8.393-1.118,18.205-6.968
			c9.811-5.858,9.97-10.608,9.184-11.241c-1.409-1.131-6.968-4.594-6.176-5.385c0.792-0.79,9.337,3.484,14.246-3.325
			c3.5-4.855,3.468-11.845,6.809-18.516c2.973-5.954,8.688-10.314,10.773-12.057c-0.929-3.504-2.683-10.233-3.812-9.947
			c-1.267,0.315-4.117,5.536-7.12,10.128c-3.009,4.593-9.342,14.241-12.193,19.793c-2.844,5.53-4.902,8.54-5.536,7.906
			c-0.634-0.623,0.634-3.788,1.583-5.542c0.945-1.73,2.852-6.017,6.171-11.232c3.325-5.224,9.817-15.2,12.352-19.629
			c2.528-4.434,2.054-6.65,0-8.867c-2.059-2.217-5.542-2.217-7.442,0.792c-1.9,3.01-9.654,18.047-14.088,27.071
			c-4.434,9.016-10.92,24.534-17.571,24.375c-6.649-0.159-6.809-5.384-5.226-9.808c1.584-4.433,6.334-12.351,11.718-22.802
			c5.379-10.45,11.712-22.796,12.82-25.324c1.109-2.534-0.791-5.226-2.217-4.275s-6.017,8.704-9.97,14.879
			c-3.96,6.171-15.201,23.748-18.046,28.021c-2.655,3.981-7.126,11.55-8.393,10.452c-1.268-1.119,2.375-6.018,6.176-11.717
			c3.799-5.702,12.979-20.746,17.887-28.182c4.904-7.442,8.862-13.296,9.18-15.038c0.316-1.741-1.426-3.009-3.01-3.009
			c-1.582,0-4.75,4.117-8.228,9.026c-3.483,4.904-15.513,21.367-21.371,29.919c-5.854,8.548-11.871,11.229-15.196,9.33
			s-3.643-6.165-2.375-10.282c1.267-4.116,7.601-12.511,15.987-23.271c8.393-10.762,15.037-20.58,15.988-22.322
			c0.949-1.735-2.534-6.327-4.909-4.27c-2.371,2.053-10.763,9.971-15.983,15.513c-5.225,5.542-17.254,18.521-19.628,21.213
			c-2.377,2.688-7.285,7.754-8.394,6.486c-1.108-1.266,3.008-5.378,6.492-9.02c3.715-3.885,14.088-15.354,19.63-20.738
			c5.536-5.384,14.246-13.137,15.354-15.83c1.107-2.689-3.325-5.383-5.858-4.907c-2.534,0.475-11.713,8.392-18.364,13.929
			c-6.645,5.543-19.624,16.621-27.225,18.68c-7.602,2.057-10.445-6.013-7.918-9.972c2.534-3.958,11.561-10.292,19.473-15.354
			c7.917-5.065,21.529-13.296,22.955-17.413c1.424-4.116-0.792-8.076-4.593-6.809c-3.8,1.266-13.93,6.334-20.737,9.976
			c-6.805,3.638-19.467,9.813-24.217,11.87c-4.751,2.061-8.229,3.169-8.545,2.061c-0.322-1.108,3.636-3.009,7.437-4.75
			c3.8-1.743,14.721-6.488,23.746-11.239c9.021-4.75,18.358-9.025,20.733-11.083c2.454-2.127-0.317-9.654-6.328-8.705
			c-5.067,0.799-14.722,3.484-24.222,6.329c-9.496,2.851-18.206,6.492-24.218,6.492c-6.018,0-7.284-6.334-4.116-9.495
			c3.167-3.167,11.87-5.384,24.691-8.076c12.826-2.692,23.113-5.226,25.487-7.121c2.377-1.899,1.743-5.541-1.424-5.541
			s-16.938,0.776-26.274,0.95c-8.552,0.157-16.146,0.475-21.215,0.475c-4.591,0-8.866,0.475-8.866-0.949
			c0-1.277,4.592-1.426,8.709-1.426s11.396-0.158,20.104-0.476c9.654-0.353,25.167-0.95,27.384-1.109
			c2.216-0.156,2.375-2.689,1.425-4.75c-0.951-2.057-9.813-4.591-20.579-7.595c-10.764-3.009-23.268-6.967-30.393-9.975
			c-7.12-3.004-5.605-9.401-2.059-11.238c4.274-2.216,19.154,4.117,29.917,7.441c10.767,3.32,18.838,5.38,21.688,5.063
			c2.85-0.316,2.533-3.8,1.108-4.592c-1.427-0.786-15.561-6.692-22.164-10.128c-7.595-3.959-17.097-9.021-20.258-10.923
			c-3.167-1.898-8.076-4.75-7.442-5.858s5.226,1.584,8.393,3.484c3.162,1.9,12.631,7.021,19.308,10.604
			c6.492,3.484,20.422,9.66,22.164,10.135c1.741,0.475,3.166-1.741,2.217-3.483c-0.95-1.742-3.484-4.593-10.451-9.184
			c-6.962-4.588-16.779-11.396-26.749-22.317c-9.972-10.926-8.388-18.205-4.277-19.946c4.118-1.742,12.504,9.972,19.155,17.096
			c6.651,7.121,17.782,17.318,20.579,18.997c2.377,1.426,4.746-0.316,4.587-2.534c-0.094-1.351-11.711-14.721-16.779-21.37
			c-4.238-5.564-11.311-15.139-13.138-17.572c-2.368-3.167-4.586-6.328-3.795-6.962c0.792-0.634,3.189,2.471,5.221,5.22
			c2.692,3.642,7.785,10.271,12.979,17.254c5.066,6.811,15.829,19.947,17.729,20.106c2.212,0.184,3.009-1.108,2.851-3.009
			c-0.159-1.9-2.06-6.961-5.858-11.713c-3.797-4.75-13.931-19.945-16.934-24.538c-3.009-4.587-9.896-20.717-3.166-24.533
			c5.854-3.325,10.286,4.744,13.295,11.712c3.008,6.967,15.512,30.393,18.68,34.351c3.167,3.959,6.962,3.326,7.596,0.793
			c0.433-1.717-4.745-12.188-7.121-18.047l-14.087-34.667c-1.557-3.812-3.009-7.754-1.9-8.229c1.373-0.59,3.009,3.003,4.587,7.596
			c1.294,3.742,10.013,26.227,13.301,34.192c4.112,9.971,7.438,16.462,9.179,16.938c3.543,0.966,2.691-4.118,2.059-6.968
			c-0.634-2.846-5.066-14.88-9.183-30.076c-4.112-15.195-6.013-27.383,0-31.341c6.016-3.96,10.292,1.424,10.767,5.542
			c0.475,4.116,3.161,16.146,4.903,23.424c1.741,7.284,4.908,14.093,5.7,13.935c0.792-0.157,3.531-3.077,5.701-3.8
			c2.375-0.792,7.119-1.583,10.287,2.216c3.736,4.487,0,10.446-0.792,11.396s-1.325,0.945-1.109-0.792
			c0.317-2.533-1.108-5.225-4.269-4.908c-3.168,0.316-3.801,4.118-2.376,5.7c1.494,1.662,0.95,5.385,0,7.601
			c-0.95,2.212-1.741,6.963,1.742,16.463c3.479,9.495,4.428,16.779,2.528,24.692c-1.895,7.917-9.496,8.232-14.247,5.383
			c-4.745-2.851-10.129-2.533-11.712,1.584c-1.583,4.116,0.316,8.862,6.334,10.444c6.013,1.584,17.334,2.561,19.625,8.868
			c1.899,5.22-1.425,9.337-5.695,12.187c-3.773,2.513-8.552,6.335-6.335,8.709c1.837,1.971,5.701-2.058,11.238-6.491
			c5.199-4.158,14.721-0.95,15.037,5.701c0.317,6.645-4.587,9.337-8.386,12.979c-3.933,3.769-0.322,9.496,3.482,9.496
			c3.954,0,5.833-4.25,11.237-8.229c6.017-4.435,13.729-3.009,17.571-1.426c2.691,1.107,4.117-1.108,7.438-9.343
			c1.915-4.739,2.533-12.662-1.579-14.88c-4.116-2.216-7.917,0.475-8.551,0.318c-0.633-0.159,3.801-6.335,7.438-6.177
			c3.642,0.159,5.383,2.217,7.917,2.217c2.533,0,5.066-3.794,4.75-6.645c-0.317-2.852-2.534-5.701-8.234-4.751
			c-5.695,0.95-10.445,0.316-10.445-6.333c0,0,2.375,3.008,6.013,3.008c3.642,0,7.441-1.899,9.342-3.319
			c1.899-1.427,7.126-3.484,13.137,2.528c0,0,4.275-2.376,3.96-8.071c-0.317-5.7-4.909-7.917-6.81-9.658s-3.009-7.279-1.425-11.396
			c0,0,3.008,7.284,7.758,7.284c4.751,0,7.754-8.076,7.754-11.718s-1.899-6.169-3.167-6.328c-1.261-0.159-7.437,2.054-8.703,1.583
			c-1.267-0.476-4.117-6.018-11.237-4.75c-7.125,1.266-9.812,7.442-10.92,11.236c0,0-0.317-12.82,9.337-15.671
			c9.427-2.782,15.195,3.642,17.57,4.435c1.68,0.559,4.903,0.126,4.435-3.168c-0.317-2.216-3.31-2.56-7.285-5.542
			c-3.166-2.375-2.85-6.803-1.582-8.862c0,0,2.533,6.171,7.917,6.33c5.376,0.157,8.23-8.072,6.328-15.039
			c-1.9-6.961-10.446-14.087-14.878-13.929c-4.434,0.159-9.021,3.326-11.079,6.175c-2.059,2.851-3.167,5.543-3.801,5.696
			c-0.633,0.162-2.691-6.646,1.108-12.663c3.801-6.011,6.967-7.44,5.226-13.138c0,0-6.492,0.317-11.4,3.167
			c-4.904,2.846-6.646,6.013-7.279,6.487s-2.375-2.375-5.699-1.9c-3.326,0.48-4.509,3.658-4.746,5.701
			c-0.315,2.691,0.786,4.592,0.316,5.066c-0.476,0.476-4.909-2.85-3.643-10.921c0.919-5.863,8.229-12.192,11.08-13.934
			s5.543-3.32,5.699-4.43c0.159-1.108-2.216-3.482-0.474-5.858c1.741-2.374,5.379-3.642,8.703-3.482
			c3.325,0.156,5.859-2.692,6.176-4.909c0.316-2.218,3.008-4.587,9.653-3.796c6.651,0.792,17.254,5.696,24.065,11.079
			c6.809,5.384,14.408,6.651,20.416,6.492c6.016-0.158,11.559-8.866,10.766-15.517c-0.789-6.646-5.543-7.438-8.707-5.854
			c-3.168,1.583-3.799,3.167-4.75,3.167s1.107-7.127,6.967-8.551c5.869-1.427,14.039,4.105,14.25,13.928
			c0.148,7.442-9.658,14.568-9.658,14.568s6.078-1.299,12.191-4.117c6.166-2.85,14.873-0.475,18.357,4.909
			c3.482,5.379,1.742,13.138-0.158,15.349c-1.898,2.217-3.545,3.838-4.592,3.483c-0.475-0.158,4.117-9.178-1.74-14.403
			c-4.941-4.401-12.668-3.8-19.32-1.584c-6.639,2.217-13.291,2.85-18.199,2.534c0,0,3.643,8.392,8.076,16.305
			c4.436,7.917,9.492,11.241,15.191,10.134c5.701-1.108,5.91-6.377,4.115-8.076c-2.848-2.691-6.016,0.316-6.648,0.159
			c-0.635-0.159,0.35-5.072,5.383-6.018c5.066-0.945,10.451,4.909,9.5,11.242c-1.053,7.084-5.846,13.295-17.883,14.403
			c0,0,0.783,2.852,2.682,5.859c1.902,3.003,3.971,9.021,3.803,13.455c-0.148,4.434,1.434,10.444,0.799,11.08
			c-0.631,0.632-3.799-3.638-4.43-9.655c-0.635-6.018-5.543-9.025-6.494-8.235c-0.951,0.793,0.316,5.068,0.158,15.673
			c-0.158,10.609-1.268,16.778-1.268,18.52c0,1.742,1.586,4.91,5.85,7.285c4.285,2.375,7.77,2.533,7.918,3.325
			c0.168,0.792-4.119,2.534-8.869,1.426c-4.74-1.109-5.691-3.484-7.115-3.167c-1.424,0.315,1.266,11.236,1.586,14.72
			c0.316,3.479-0.162,15.038-1.109,19.63c-0.951,4.593-0.793,12.506-0.158,13.771c0.451,0.908,2.85,0.477,2.85,0.477
			c2.047-0.477,7.283-1.426,13.301,3.009c5.406,3.979,7.273,8.229,11.232,8.229c3.801,0,7.41-5.728,3.484-9.496
			c-3.803-3.642-8.711-6.334-8.395-12.979c0.318-6.651,9.852-9.859,15.043-5.701c5.533,4.434,9.396,8.462,11.234,6.491
			c2.217-2.374-2.557-6.196-6.336-8.709c-4.264-2.85-7.59-6.967-5.688-12.187c2.291-6.308,13.605-7.284,19.623-8.868
			c6.016-1.582,7.918-6.328,6.336-10.444c-1.586-4.117-6.969-4.435-11.719-1.584c-4.75,2.85-12.352,2.534-14.24-5.383
			c-1.902-7.913-0.951-15.197,2.523-24.692c3.482-9.5,2.699-14.251,1.75-16.463c-0.947-2.216-1.5-5.938,0-7.601
			c1.414-1.582,0.783-5.384-2.385-5.7c-3.156-0.316-4.584,2.375-4.264,4.908c0.209,1.737-0.32,1.742-1.109,0.792
			c-0.793-0.95-4.531-6.909-0.793-11.396c3.168-3.799,7.918-3.008,10.283-2.216c2.172,0.723,4.918,3.643,5.699,3.8
			c0.801,0.158,3.959-6.65,5.699-13.935c1.744-7.277,4.436-19.308,4.912-23.424c0.475-4.118,4.75-9.502,10.754-5.542
			c6.02,3.958,4.119,16.146,0,31.341c-4.105,15.196-8.539,27.23-9.172,30.076c-0.635,2.85-1.488,7.934,2.061,6.968
			c1.74-0.477,5.064-6.968,9.18-16.938c3.285-7.966,12.006-30.45,13.295-34.192c1.582-4.593,3.219-8.186,4.592-7.596
			c1.105,0.476-0.352,4.418-1.902,8.229L424.836,201.5c-2.385,5.859-7.557,16.33-7.125,18.047c0.621,2.533,4.424,3.166,7.588-0.793
			c3.168-3.958,15.68-27.384,18.686-34.351c3.01-6.968,7.432-15.037,13.303-11.712c6.723,3.816-0.17,19.946-3.168,24.533
			c-3.02,4.593-13.141,19.788-16.943,24.538c-3.791,4.752-5.689,9.813-5.859,11.713c-0.145,1.9,0.645,3.192,2.852,3.009
			c1.898-0.159,12.668-13.296,17.734-20.106c5.195-6.982,10.283-13.612,12.975-17.254c2.037-2.749,4.436-5.854,5.225-5.22
			c0.793,0.634-1.426,3.795-3.801,6.962c-1.814,2.434-8.887,12.008-13.131,17.572c-5.066,6.649-16.682,20.02-16.785,21.37
			c-0.156,2.218,2.219,3.96,4.594,2.534c2.797-1.679,13.922-11.876,20.572-18.997c6.652-7.124,15.045-18.838,19.16-17.096
			c4.107,1.741,5.689,9.021-4.273,19.946c-9.979,10.921-19.785,17.729-26.752,22.317c-6.967,4.591-9.5,7.441-10.451,9.184
			s0.477,3.958,2.217,3.483c1.744-0.475,15.666-6.65,22.17-10.135c6.67-3.583,16.141-8.703,19.297-10.604
			c3.168-1.9,7.77-4.593,8.4-3.484c0.635,1.108-4.285,3.96-7.449,5.858c-3.158,1.901-12.66,6.964-20.248,10.923
			c-6.611,3.436-20.744,9.342-22.17,10.128c-1.424,0.792-1.74,4.275,1.109,4.592c2.848,0.317,10.924-1.742,21.682-5.063
			c10.768-3.324,25.643-9.657,29.92-7.441c3.555,1.837,5.064,8.234-2.061,11.238c-7.115,3.008-19.625,6.966-30.383,9.975
			c-10.768,3.004-19.633,5.538-20.582,7.595c-0.951,2.061-0.793,4.594,1.424,4.75c2.217,0.159,17.725,0.757,27.383,1.109
			c8.711,0.317,15.994,0.476,20.109,0.476c4.109,0,8.701,0.148,8.701,1.426c0,1.424-4.268,0.949-8.869,0.949
			c-5.066,0-12.658-0.317-21.209-0.475c-9.342-0.174-23.105-0.95-26.273-0.95s-3.799,3.642-1.424,5.541
			c2.375,1.896,12.654,4.429,25.48,7.121s21.525,4.909,24.693,8.076c3.168,3.161,1.9,9.495-4.119,9.495
			c-6.018,0-14.715-3.642-24.215-6.492c-9.5-2.845-19.15-5.53-24.215-6.329c-6.021-0.949-8.785,6.578-6.336,8.705
			c2.375,2.058,11.717,6.333,20.734,11.083c9.035,4.751,19.951,9.496,23.75,11.239c3.801,1.741,7.748,3.642,7.432,4.75
			c-0.314,1.108-3.789,0-8.539-2.061c-4.75-2.058-17.41-8.232-24.229-11.87c-6.797-3.642-16.932-8.71-20.73-9.976
			c-3.801-1.268-6.018,2.692-4.584,6.809c1.416,4.117,15.035,12.348,22.953,17.413c7.914,5.062,16.932,11.396,19.465,15.354
			c2.533,3.959-0.316,12.028-7.918,9.972c-7.6-2.059-20.574-13.137-27.217-18.68c-6.648-5.537-15.832-13.454-18.365-13.929
			c-2.533-0.476-6.967,2.218-5.859,4.907c1.109,2.693,9.807,10.446,15.359,15.83c5.531,5.384,15.908,16.854,19.623,20.738
			c3.484,3.642,7.592,7.754,6.494,9.02c-1.119,1.268-6.018-3.799-8.393-6.486c-2.375-2.692-14.412-15.671-19.625-21.213
			c-5.225-5.542-13.617-13.46-15.992-15.513c-2.375-2.058-5.857,2.534-4.91,4.27c0.951,1.742,7.602,11.561,15.994,22.322
			c8.391,10.761,14.727,19.155,15.994,23.271c1.254,4.117,0.938,8.383-2.389,10.282c-3.313,1.899-9.33-0.782-15.188-9.33
			c-5.859-8.552-17.896-25.015-21.381-29.919c-3.482-4.909-6.639-9.026-8.221-9.026c-1.584,0-3.324,1.268-3.01,3.009
			c0.316,1.742,4.277,7.596,9.186,15.038c4.898,7.436,14.082,22.479,17.883,28.182c3.799,5.699,7.439,10.598,6.174,11.717
			c-1.266,1.098-5.73-6.471-8.393-10.452c-2.848-4.273-14.082-21.851-18.049-28.021c-3.951-6.175-8.541-13.929-9.969-14.879
			c-1.424-0.95-3.326,1.741-2.217,4.275c1.109,2.528,7.445,14.874,12.816,25.324c5.385,10.451,10.135,18.369,11.719,22.802
			c1.584,4.424,1.424,9.648-5.215,9.808c-6.652,0.159-13.143-15.359-17.576-24.375c-4.436-9.024-12.195-24.062-14.094-27.071
			c-1.9-3.009-5.385-3.009-7.432-0.792c-2.068,2.217-2.533,4.434,0,8.867c2.533,4.429,9.014,14.405,12.35,19.629
			c3.316,5.216,5.219,9.502,6.166,11.232c0.949,1.754,2.217,4.919,1.584,5.542c-0.635,0.634-2.693-2.376-5.543-7.906
			c-2.838-5.552-9.174-15.2-12.191-19.793c-3-4.592-5.848-9.813-7.115-10.128c-1.131-0.286-2.883,6.443-3.813,9.947
			c2.082,1.742,7.803,6.103,10.781,12.057c3.334,6.671,3.303,13.66,6.795,18.516c4.908,6.81,13.461,2.535,14.252,3.325
			c0.793,0.791-4.77,4.254-6.176,5.385c-0.793,0.633-0.631,5.383,9.186,11.241c9.807,5.85,15.191,6.968,18.197,6.968
			c3.01,0,12.195-1.267,25.18-5.553c12.975-4.265,23.584-6.957,30.551-3.948c3.789,1.637,5.279,5.343,4.875,8.552
			c2.236,1.614,3.855,4.022,3.98,7.904c0.158,4.753-4.908,7.761-5.373,6.968c-0.486-0.791,2.818-2.712,2.205-6.016
			c-0.391-2.153-1.889-3.505-3.262-4.317c-0.645,0.484-1.404,0.832-2.277,0.991c-6.02,1.108-10.441-2.364-14.877-3.167
			c-4.434-0.781-7.918,0.634-7.918,1.899c0,1.268,1.744,2.705,6.018,4.435c5.068,2.061,12.658,6.018,16.945,12.826
			c3.334,5.33,3.863,12.182,0.072,15.086c-0.57,2.449-2.184,5.31-5.773,7.232c-3.758,2.015-9.027,1.74-9.027,0.79
			c0-0.634,2.537,0,5.691-1.899c1.855-1.12,2.639-3.293,2.955-4.782c-3.674-0.688-5.953-4.17-6.43-8.836
			c-0.631-6.166-1.74-9.649-6.332-13.291s-6.643-3.009-7.273-2.376c-0.635,0.634-0.316,5.384,2.047,9.501
			c2.375,4.117,6.02,12.499-0.158,16.3c-0.432,0.275-0.877,0.485-1.318,0.664c-1.174,3.537-3.613,7.115-9.439,7.253
			c-5.553,0.127-8.549-2.851-7.914-3.323c0.631-0.477,2.996,1.74,7.111,0.948c2.895-0.56,3.832-3.368,4.139-5.003
			c-2.301-1.046-3.967-3.242-3.967-6.07c0-5.553,3.482-7.77,1.73-13.143c-1.318-4.106-5.85-4.909-11.074-5.066
			c-5.227-0.16-9.025,0.473-11.4,4.433c-2.07,3.452-3.896,11.401-10.633,11.865c-0.145,1.235-0.158,3.262,0.975,4.593
			c1.752,2.057,4.305,1.044,5.307,0.315c0.877-0.633,1.342-0.231,0.709,0.56c-0.635,0.793-4.508,3.558-9.1,0.317
			c-2.205-1.562-2.766-4.655-2.859-6.904c-4.086-2.597-3.918-8.972-1.174-12.489c3.949-5.065,10.281-5.383,10.768-8.548
			c0.287-1.933-3.484-4.435-13.777-6.968c-10.289-2.535-20.109-3.317-23.105-3.317c-3.02,0-3.484-1.117-3.02-3.65
			c0.486-2.532,2.385-10.757-6.959-18.833c-9.342-8.065-14.092-10.452-15.506-9.818c-1.436,0.634,0.129,10.579,2.535,16.942
			c3.164,8.393,6.797,12.025,6.955,12.826c0.158,0.782-3.008,0.634-5.225,0c-2.217-0.632-4.75-2.217-4.898-1.265
			c-0.17,0.949-1.438,12.815,4.898,24.056c6.332,11.245,11.398,15.361,18.199,15.508c6.818,0.172,7.77-7.916,6.65-10.598
			c-1.098-2.693-3.947-4.91-7.285-3.802c-3.365,1.121-3.346,4.351-4.264,4.119c-0.633-0.159,0.158-8.551,4.582-11.086
			c4.434-2.533,12.35-1.74,14.738,6.967c2.361,8.7-0.469,20.354-11.254,22.475c-10.441,2.061-18.201-2.689-22.318-7.124
			s-6.48-7.432-7.746-7.432c-1.27,0-0.951,12.657,5.846,23.425c6.809,10.757,13.303,14.874,16.311,15.993
			c3.01,1.098,4.908,1.098,5.055,2.047c0.172,0.952-5.055,3.485-9.805,2.703c-4.752-0.803-9.027-3.167-9.66-3.167
			c-0.635,0,6.018,19.783,12.984,30.065c6.969,10.293,17.42,16.468,30.074,14.251c12.658-2.218,15.066-15.866,13.926-21.05
			c-2.365-10.926-7.906-12.984-8.066-14.093c-0.127-0.918,4.373-0.687,9.332,3.167c4.922,3.801,5.869,12.975,6.811,13.29
			c0.949,0.317,3.799-14.398-2.84-21.83c-6.652-7.453-18.053-8.087-23.119-1.268c-5.066,6.799-0.793,14.875,2.059,17.091
			c1.773,1.384,4.57,2.725,4.277,3.643c-0.162,0.476-8.553,1.267-13.451-6.335c-5.572-8.634-0.633-21.851,6.957-25.8
			c7.6-3.958,18.949-3.883,27.225,1.732c8.869,6.017,9.816,18.843,10.293,19.001c0.539,0.181,3.518-12.984,9.344-18.198
			c6.164-5.543,14.334-7.834,22.475-1.899c7.59,5.53,7.756,15.979,4.273,21.366c-3.967,6.121-12.508,6.808-13.143,5.858
			c-0.631-0.951,7.76-4.118,7.441-14.559c-0.252-8.086-10.291-9.985-15.201-5.383c-4.896,4.58-7.113,16.616-9.182,24.691
			c-2.049,8.076-9.49,23.74-22.148,30.074c-12.67,6.334-19.953,4.909-24.545,4.435c-4.592-0.476-9.172-1.9-9.49-1.437
			c-0.316,0.484-0.484,10.77-5.383,19.002c-4.898,8.211-12.51,12.192-13.303,11.877c-0.789-0.316,7.611-4.106,5.701-21.843
			c-1.74-16.15-11.865-28.817-17.418-42.584c-5.438-13.534-11.389-43.692-12.814-56.519c-0.859-7.729-1.9-9.648-3.01-9.648
			c-1.107,0-2.217,0.632-2.375,7.114c-0.158,6.492-0.314,48.76,0.316,63.318c0.635,14.566,2.693,26.602,8.553,33.717
			c5.846,7.136,13.227,9.701,14.566,10.303c1.414,0.634,0.695,1.319-0.631,1.899c-1.123,0.464-7.604,3.314-19.32-0.484
			c0,0-5.859,15.201-6.809,15.201c-0.945,0-6.804-15.201-6.804-15.201c-11.712,3.799-18.204,0.948-19.313,0.484
			c-1.341-0.58-2.058-1.266-0.634-1.899c1.335-0.602,8.709-3.167,14.563-10.303c5.858-7.115,7.918-19.15,8.551-33.717
			c0.634-14.559,0.476-56.826,0.316-63.318c-0.159-6.482-1.267-7.114-2.375-7.114s-2.148,1.92-3.008,9.648
			c-1.426,12.826-7.38,42.984-12.821,56.519c-5.542,13.767-15.671,26.434-17.413,42.584c-1.916,17.736,6.486,21.526,5.7,21.843
			c-0.791,0.315-8.407-3.666-13.295-11.877c-4.909-8.232-5.067-18.518-5.385-19.002c-0.315-0.464-4.908,0.961-9.5,1.437
			c-4.587,0.475-11.871,1.899-24.533-4.435c-12.663-6.334-20.104-21.998-22.163-30.074c-2.053-8.075-4.271-20.111-9.18-24.691
			c-4.909-4.603-14.953-2.703-15.195,5.383c-0.317,10.44,8.07,13.607,7.437,14.559c-0.627,0.949-9.174,0.263-13.138-5.858
			c-3.479-5.387-3.319-15.836,4.275-21.366c8.14-5.935,16.305-3.644,22.48,1.899c5.816,5.214,8.793,18.379,9.337,18.198
			c0.475-0.158,1.426-12.984,10.288-19.001c8.286-5.615,19.629-5.69,27.23-1.732c7.595,3.949,12.535,17.166,6.962,25.8
			c-4.909,7.602-13.297,6.811-13.455,6.335c-0.306-0.918,2.497-2.259,4.275-3.643c2.851-2.216,7.12-10.292,2.059-17.091
			c-5.067-6.819-16.463-6.186-23.113,1.268c-6.65,7.432-3.801,22.147-2.85,21.83c0.949-0.315,1.9-9.489,6.809-13.29
			c4.967-3.854,9.469-4.085,9.337-3.167c-0.159,1.108-5.695,3.167-8.07,14.093c-1.131,5.184,1.267,18.832,13.929,21.05
			c12.662,2.217,23.109-3.958,30.076-14.251c6.967-10.282,13.612-30.065,12.979-30.065s-4.909,2.364-9.653,3.167
			c-4.752,0.782-9.977-1.751-9.817-2.703c0.157-0.949,2.058-0.949,5.065-2.047c3.011-1.119,9.496-5.236,16.306-15.993
			c6.809-10.768,7.126-23.425,5.859-23.425s-3.643,2.997-7.76,7.432s-11.871,9.185-22.316,7.124
			c-10.783-2.12-13.617-13.774-11.242-22.475c2.375-8.707,10.292-9.5,14.722-6.967c4.432,2.535,5.225,10.927,4.591,11.086
			c-0.924,0.231-0.897-2.998-4.275-4.119c-3.325-1.108-6.17,1.108-7.278,3.802c-1.109,2.682-0.158,10.77,6.645,10.598
			c6.81-0.146,11.877-4.263,18.205-15.508c6.335-11.24,5.067-23.106,4.909-24.056c-0.159-0.952-2.692,0.633-4.909,1.265
			c-2.218,0.634-5.379,0.782-5.226,0c0.164-0.801,3.8-4.434,6.968-12.826c2.401-6.363,3.959-16.309,2.534-16.942
			c-1.426-0.634-6.176,1.753-15.514,9.818c-9.343,8.076-7.442,16.301-6.968,18.833c0.476,2.533,0,3.65-3.008,3.65
			c-3.003,0-12.82,0.782-23.108,3.317c-10.287,2.533-14.062,5.035-13.771,6.968c0.475,3.165,6.81,3.482,10.763,8.548
			C240.638,467.634,240.807,474.009,236.716,476.606z M288.7,174.117c0.158,0.63-1.53,1.172-4.75,3.795
			c-4.275,3.484-6.176,12.046-8.069,17.73c-2.218,6.65-6.176,15.829-17.098,15.2c-10.92-0.633-10.134-10.609-9.5-10.925
			c0.633-0.317,2.85,3.324,7.125,3.167c2.85-0.106,4.275-2.534,5.067-2.692c0.793-0.159,0.793,1.267,2.058,1.741
			c1.263,0.476,2.793,0.713,6.487-4.591c3.643-5.22,4.118-10.763,8.394-16.622C282.684,175.062,288.542,173.484,288.7,174.117z"/>
	</g>
</g>
</svg>
