<?xml version="1.0" encoding="UTF-8" standalone="no"?>
<!-- Created with Inkscape (http://www.inkscape.org/) -->
<svg
   xmlns:ns="http://creativecommons.org/ns#"
   xmlns:dc="http://purl.org/dc/elements/1.1/"
   xmlns:cc="http://web.resource.org/cc/"
   xmlns:rdf="http://www.w3.org/1999/02/22-rdf-syntax-ns#"
   xmlns:svg="http://www.w3.org/2000/svg"
   xmlns="http://www.w3.org/2000/svg"
   xmlns:sodipodi="http://sodipodi.sourceforge.net/DTD/sodipodi-0.dtd"
   xmlns:inkscape="http://www.inkscape.org/namespaces/inkscape"
   id="svg2"
   sodipodi:version="0.32"
   inkscape:version="0.45.1"
   width="385.75"
   height="385.75"
   version="1.0"
   sodipodi:docname="Escudo de Lautaro.svg"
   inkscape:output_extension="org.inkscape.output.svg.inkscape"
   sodipodi:docbase="C:\Documents and Settings\B1mbo\Escritorio">
  <metadata
     id="metadata7">
    <rdf:RDF>
      <ns:Work
         rdf:about="">
        <dc:format>image/svg+xml</dc:format>
        <dc:type
           rdf:resource="http://purl.org/dc/dcmitype/StillImage" />
      </ns:Work>
      <cc:Work
         rdf:about="">
        <dc:format>image/svg+xml</dc:format>
        <dc:type
           rdf:resource="http://purl.org/dc/dcmitype/StillImage" />
      </cc:Work>
    </rdf:RDF>
  </metadata>
  <defs
     id="defs5">
    <inkscape:perspective
       sodipodi:type="inkscape:persp3d"
       inkscape:vp_x="0 : 526.18109 : 1"
       inkscape:vp_y="0 : 1000 : 0"
       inkscape:vp_z="744.09448 : 526.18109 : 1"
       inkscape:persp3d-origin="372.04724 : 350.78739 : 1"
       id="perspective9" />
    <inkscape:perspective
       id="perspective2394"
       inkscape:persp3d-origin="372.04724 : 350.78739 : 1"
       inkscape:vp_z="744.09448 : 526.18109 : 1"
       inkscape:vp_y="0 : 1000 : 0"
       inkscape:vp_x="0 : 526.18109 : 1"
       sodipodi:type="inkscape:persp3d" />
  </defs>
  <sodipodi:namedview
     inkscape:window-height="851"
     inkscape:window-width="1440"
     inkscape:pageshadow="2"
     inkscape:pageopacity="0.0"
     guidetolerance="10.0"
     gridtolerance="10.0"
     objecttolerance="10.0"
     borderopacity="1.0"
     bordercolor="#666666"
     pagecolor="#ffffff"
     id="base"
     showgrid="false"
     inkscape:zoom="1.6928062"
     inkscape:cx="192.875"
     inkscape:cy="192.875"
     inkscape:window-x="-4"
     inkscape:window-y="-4"
     inkscape:current-layer="svg2"
     showguides="true"
     inkscape:guide-bbox="true" />
  <g
     id="g4097"
     transform="translate(-7.125,-7.125)">
    <g
       transform="scale(4,4)"
       id="g3521">
      <path
         sodipodi:nodetypes="csssc"
         style="fill:#ffffff;fill-opacity:1;stroke:#000000;stroke-width:0.5;stroke-miterlimit:4;stroke-dasharray:none"
         d="M 50,16.875 C 68.280519,16.875 83.125,31.719481 83.125,50 C 83.125,68.280519 68.280519,83.125 50,83.125 C 31.719481,83.125 16.875,68.280519 16.875,50 C 16.875,31.719481 31.719481,16.875 50,16.875 z"
         id="path3523" />
      <path
         sodipodi:nodetypes="ccccccccccc"
         id="path3525"
         d="M 13.852814,44.588745 C 17.212205,42.9409 18.525504,40.462016 25.264382,39.783841 C 33.166559,36.904649 41.463018,29.743549 47.835498,24.025974 C 51.364283,25.458791 52.877026,21.584838 57.361974,24.447435 C 58.355553,24.658135 59.546485,24.740264 61.038961,24.242424 C 66.997223,29.888561 74.708646,30.275216 83.549784,27.272727 L 83.766234,26.623377 L 66.233766,10.38961 L 35.930736,13.203463 L 19.91342,20.562771 L 13.852814,44.588745 z"
         style="fill:#0071bc;fill-rule:evenodd;stroke:#000000;stroke-width:0.5;stroke-linecap:butt;stroke-linejoin:miter;stroke-miterlimit:4;stroke-dasharray:none;stroke-opacity:1" />
      <path
         sodipodi:nodetypes="cccccccccccccc"
         id="path3527"
         d="M 15.800866,54.329002 C 18.363034,51.91967 21.657096,50.45667 24.756833,48.876508 C 27.45778,48.660262 30.921714,46.600541 33.387028,48.071424 C 36.543696,49.392195 37.291882,46.278235 40.274713,46.027279 C 43.199034,45.23622 51.466786,43.975906 54.45816,43.928635 C 63.493935,37.20318 64.269939,44.642127 70.768833,40.901012 C 74.272526,39.240894 75.091944,43.619362 78.188936,43.316693 C 81.487195,43.203141 81.463994,39.365141 84.698531,38.911299 C 86.150114,38.484481 87.68074,38.529929 89.177489,38.528139 L 89.393939,38.311688 L 91.341991,64.935065 L 57.359307,92.640697 L 14.285714,72.294372 L 15.800866,54.329002 z"
         style="fill:#008f4c;fill-rule:evenodd;stroke:#000000;stroke-width:0.5;stroke-linecap:butt;stroke-linejoin:miter;stroke-miterlimit:4;stroke-dasharray:none;stroke-opacity:1" />
    </g>
    <g
       id="g3981">
      <g
         id="g3915">
        <path
           sodipodi:nodetypes="ccccccccccccscccscccscc"
           id="path3770"
           d="M 181.53333,209.55005 C 179.28747,219.08647 177.31013,228.91865 172.84533,237.90034 C 184.90063,273.42947 201.48228,252.37905 216.9712,244.98791 C 216.74257,238.12897 214.46058,231.27003 216.2853,224.41109 C 221.86488,223.2319 226.10266,219.46062 230.6897,215.28531 C 233.0643,212.60539 234.25023,211.74899 238.02859,212.57669 C 249.25852,213.61664 267.3878,198.44926 273.34653,198.59941 C 276.31713,198.93395 278.49298,198.96966 279.38757,196.74668 C 292.19043,172.60526 280.21448,158.70568 284.87472,153.53535 C 291.85873,139.69263 275.33682,154.22316 275.9581,145.53325 C 281.1282,145.06378 287.97788,149.24235 289.32366,144.94856 C 289.08796,144.3872 288.83805,143.89622 288.57438,143.47368 C 287.86754,141.22575 286.78153,139.65901 284.19731,141.31337 C 283.03923,142.05475 281.56395,140.8411 280.80345,140.39501 C 279.45957,140.36953 279.70149,141.05771 276.9192,141.44357 C 274.64145,139.17158 270.45102,141.97397 267.60368,143.11951 C 265.75537,149.69879 267.86149,150.60479 268.90616,152.61266 C 270.20798,155.11478 272.89385,155.26542 274.81494,156.0503 C 278.31381,164.77834 265.64826,173.09756 266.58421,187.60143 C 254.90487,183.15679 249.12884,185.08499 243.49244,186.22964 C 232.77382,181.50528 216.10729,183.28242 201.01511,181.7854 C 198.40403,181.5264 192.95407,185.36723 190.47619,184.8616 C 154.98437,189.89164 159.61232,206.25009 181.53333,209.55005 z"
           style="fill:#d8986c;fill-opacity:1;fill-rule:evenodd;stroke:#000000;stroke-width:1px;stroke-linecap:butt;stroke-linejoin:miter;stroke-opacity:1" />
        <path
           sodipodi:nodetypes="ccc"
           id="path3852"
           d="M 198.72537,214.07301 C 198.66069,211.9171 197.78279,208.94796 199.58088,208.65482 L 199.58088,208.51224"
           style="fill:none;fill-rule:evenodd;stroke:#000000;stroke-width:1px;stroke-linecap:round;stroke-linejoin:miter;stroke-opacity:1" />
        <path
           sodipodi:nodetypes="cccc"
           id="path3832"
           d="M 177.10039,245.49434 C 176.38358,241.74826 182.7639,236.87963 185.81462,236.92067 C 180.18015,236.76084 175.48853,236.20276 173.58659,239.02895 L 177.10039,245.49434 z"
           style="opacity:0.25;fill:#000000;fill-opacity:1;fill-rule:evenodd;stroke:#000000;stroke-width:1px;stroke-linecap:butt;stroke-linejoin:miter;stroke-opacity:1" />
        <path
           sodipodi:nodetypes="ccccc"
           id="path3785"
           d="M 239.00976,160.02324 C 238.83689,164.60163 238.96012,169.26461 241.74959,174.68938 C 238.19769,173.5812 237.70069,171.45473 236.59227,169.53206 C 235.48499,173.48474 235.55846,177.28982 237.8816,180.8137 C 234.52165,180.66867 233.2052,178.13954 232.40194,175.01171"
           style="fill:#000000;fill-opacity:1;fill-rule:evenodd;stroke:#000000;stroke-width:1px;stroke-linecap:butt;stroke-linejoin:miter;stroke-opacity:1" />
        <path
           sodipodi:nodetypes="cc"
           id="path3838"
           d="M 184.29986,184.65124 C 189.36673,189.91002 199.37418,187.6049 203.66982,191.63012"
           style="fill:none;fill-rule:evenodd;stroke:#000000;stroke-width:1px;stroke-linecap:round;stroke-linejoin:miter;stroke-opacity:1" />
        <path
           sodipodi:nodetypes="cccccccccc"
           id="path3772"
           d="M 219.36319,189.24629 L 221.95986,181.9756 C 226.35601,179.14743 228.95067,182.70304 233.50387,181.71324 L 233.76623,176.46596 C 236.3556,174.50169 235.23849,171.32769 237.43933,169.90686 L 239.27588,167.28322 C 239.19428,158.41557 239.60219,157.13182 240.16979,154.10693 L 203.33202,159.4123 L 199.65893,174.62941 L 201.75784,183.81215"
           style="fill:#d8986c;fill-opacity:1;fill-rule:evenodd;stroke:#000000;stroke-width:1px;stroke-linecap:round;stroke-linejoin:round;stroke-opacity:1" />
        <path
           sodipodi:nodetypes="cccsc"
           id="path3774"
           d="M 233.76623,169.6445 L 238.50753,171.32737 L 239.97302,170.64898 C 239.32255,169.34387 239.23377,168.39144 239.08999,167.36932 C 238.91211,166.10479 239.01617,165.73186 239.21591,163.71133"
           style="fill:#d8986c;fill-opacity:1;fill-rule:evenodd;stroke:#000000;stroke-width:1px;stroke-linecap:round;stroke-linejoin:miter;stroke-opacity:1" />
        <path
           id="path3778"
           d="M 225.3125,140.125 C 224.27948,140.16776 223.17425,140.2989 221.96875,140.53125 C 207.54453,140.93001 206.46031,151.19661 203.0625,154.9375 L 204.65625,158.09375 L 215.71875,158.46875 L 217.0625,164.5 C 218.8097,166.90843 219.27393,168.69085 224.125,169.9375 C 221.00298,165.71571 220.86648,162.58646 221.75,157.9375 L 237.96875,147.875 C 235.76828,143.85821 232.54365,139.82571 225.3125,140.125 z M 213.5625,162.9375 L 207.03125,164.96875 L 210.75,169.625 L 214.5,167.9375 L 213.5625,162.9375 z"
           style="fill:#000000;fill-opacity:1;fill-rule:evenodd;stroke:#000000;stroke-width:1px;stroke-linecap:butt;stroke-linejoin:miter;stroke-opacity:1" />
        <path
           sodipodi:nodetypes="cccccc"
           id="path3776"
           d="M 237.96405,147.60593 C 239.64546,149.81206 240.33322,153.38583 239.8006,155.73921 C 231.10784,152.79248 226.1481,161.01505 207.79221,166.49613 L 199.1342,162.82304 L 204.11911,153.11557 C 220.23451,158.95661 221.43797,147.15854 237.96405,147.60593 z"
           style="fill:#e3e4e5;fill-opacity:1;fill-rule:evenodd;stroke:#000000;stroke-width:1px;stroke-linecap:butt;stroke-linejoin:miter;stroke-opacity:1" />
        <path
           sodipodi:nodetypes="cccc"
           id="path3834"
           d="M 202.53556,238.9273 C 210.43666,237.82257 212.26613,241.29683 216.73133,243.28442 L 215.3258,236.53792 C 210.68514,235.90934 206.80801,236.61017 202.53556,238.9273 z"
           style="opacity:0.25;fill:#000000;fill-opacity:1;fill-rule:evenodd;stroke:#000000;stroke-width:1px;stroke-linecap:butt;stroke-linejoin:miter;stroke-opacity:1" />
        <path
           sodipodi:nodetypes="ccc"
           id="path3783"
           d="M 216.7688,165.34173 C 216.19681,160.9186 213.38384,162.78275 212.56834,165.17708 C 213.61383,168.97149 213.04894,166.17124 214.67363,170.49905"
           style="fill:#d8986c;fill-opacity:1;fill-rule:evenodd;stroke:#000000;stroke-width:1px;stroke-linecap:round;stroke-linejoin:miter;stroke-opacity:1" />
        <path
           sodipodi:nodetypes="cc"
           id="path3787"
           d="M 229.27607,160.88904 C 234.36301,160.52369 233.22212,162.78351 235.88389,163.50143"
           style="fill:none;fill-rule:evenodd;stroke:#000000;stroke-width:1px;stroke-linecap:round;stroke-linejoin:miter;stroke-opacity:1" />
        <path
           sodipodi:nodetypes="cccc"
           id="path3789"
           d="M 232.1958,161.50372 C 231.73191,162.57941 232.13201,162.11841 232.04213,163.1941 C 233.00913,163.03418 233.82465,163.95214 233.57883,162.57941 L 232.1958,161.50372 z"
           style="fill:#000000;fill-opacity:1;fill-rule:evenodd;stroke:#000000;stroke-width:1px;stroke-linecap:butt;stroke-linejoin:miter;stroke-opacity:1" />
        <path
           sodipodi:nodetypes="ccc"
           id="path3791"
           d="M 229.89074,175.18038 L 231.42745,175.18038 L 233.7325,176.56341"
           style="fill:none;fill-rule:evenodd;stroke:#000000;stroke-width:1px;stroke-linecap:butt;stroke-linejoin:miter;stroke-opacity:1" />
        <g
           id="g3823">
          <path
             style="fill:#db820f;fill-opacity:1;fill-rule:evenodd;stroke:#000000;stroke-width:1px;stroke-linecap:butt;stroke-linejoin:miter;stroke-opacity:1"
             d="M 297.33605,142.59247 L 260.7993,147.77435 C 256.68743,148.76788 258.18058,152.70623 261.66291,152.38249 L 298.65046,147.45082"
             id="path3795"
             sodipodi:nodetypes="cccc" />
          <path
             style="opacity:1;fill:#db820f;fill-opacity:1;stroke:#000000;stroke-width:1;stroke-linecap:round;stroke-linejoin:round;stroke-miterlimit:4;stroke-dasharray:none;stroke-opacity:1"
             d="M 303.14454,135.73976 C 304.03555,136.44465 304.54595,137.56177 304.38863,138.76958 C 304.1504,140.59854 302.46997,141.89166 300.641,141.65343 C 298.81204,141.41521 297.51891,139.73478 297.75714,137.90581 C 297.84128,137.25984 298.09248,136.70313 298.47899,136.23505 C 295.68306,137.36578 293.55396,139.93213 293.1369,143.13409 C 292.52099,147.86264 295.84305,152.21594 300.57159,152.83185 C 305.30014,153.44776 309.65747,150.09472 310.27339,145.36617 C 310.87471,140.74959 307.69541,136.51134 303.14454,135.73976 z"
             id="path3797" />
          <path
             sodipodi:nodetypes="ccsc"
             id="path3821"
             d="M 287.53584,141.06932 C 289.09863,146.14365 291.63676,148.31536 285.1071,151.86372 C 283.42221,153.338 281.50437,148.84306 283.21808,147.41103 C 283.73577,146.97843 285.78175,144.30764 285.78175,144.30764"
             style="fill:#d8986c;fill-opacity:1;fill-rule:evenodd;stroke:#000000;stroke-width:1px;stroke-linecap:butt;stroke-linejoin:miter;stroke-opacity:1" />
          <path
             style="fill:#d8986c;fill-opacity:1;fill-rule:evenodd;stroke:#000000;stroke-width:1px;stroke-linecap:butt;stroke-linejoin:miter;stroke-opacity:1"
             d="M 284.29752,140.93439 C 285.86031,146.00872 288.39844,148.18043 281.86878,151.72879 C 280.18389,153.20307 278.26605,148.70813 279.97976,147.2761 C 280.49745,146.8435 282.54343,144.17271 282.54343,144.17271"
             id="path3819"
             sodipodi:nodetypes="ccsc" />
          <path
             sodipodi:nodetypes="ccsc"
             id="path3817"
             d="M 281.32906,140.79946 C 282.89185,145.87379 285.42998,148.0455 278.90032,151.59386 C 277.21543,153.06814 275.29759,148.5732 277.0113,147.14117 C 277.52899,146.70857 279.57497,144.03778 279.57497,144.03778"
             style="fill:#d8986c;fill-opacity:1;fill-rule:evenodd;stroke:#000000;stroke-width:1px;stroke-linecap:butt;stroke-linejoin:miter;stroke-opacity:1" />
          <path
             style="fill:#d8986c;fill-opacity:1;fill-rule:evenodd;stroke:#000000;stroke-width:1px;stroke-linecap:butt;stroke-linejoin:miter;stroke-opacity:1"
             d="M 276.74144,140.93439 C 278.30423,146.00872 280.84236,148.18043 274.3127,151.72879 C 272.62781,153.20307 270.70997,148.70813 272.42368,147.2761 C 272.94137,146.8435 274.98735,144.17271 274.98735,144.17271"
             id="path3815"
             sodipodi:nodetypes="ccsc" />
          <path
             style="fill:#d8986c;fill-opacity:1;fill-rule:evenodd;stroke:#000000;stroke-width:1px;stroke-linecap:butt;stroke-linejoin:miter;stroke-opacity:1"
             d="M 268.63477,152.26851 C 267.77421,149.99035 267.1627,145.3135 271.87309,144.98229 C 273.80709,144.93731 275.1114,146.10671 274.1669,147.14117 C 271.34084,147.56874 271.72446,150.89183 272.8176,151.59386"
             id="path3813"
             sodipodi:nodetypes="cccc" />
        </g>
        <path
           sodipodi:nodetypes="ccccc"
           id="path3836"
           d="M 185.95041,229.65087 C 188.11164,230.24774 190.0671,231.25614 191.8536,232.60246 C 194.13572,230.71486 197.79789,230.20733 201.5517,229.79142 C 198.26428,230.08039 196.20473,229.1415 191.5725,230.77528 C 188.99932,229.93438 187.41582,229.75326 185.95041,229.65087 z"
           style="opacity:0.25;fill:#000000;fill-opacity:1;fill-rule:evenodd;stroke:#000000;stroke-width:1px;stroke-linecap:butt;stroke-linejoin:miter;stroke-opacity:1" />
        <path
           sodipodi:nodetypes="cc"
           id="path3840"
           d="M 214.63615,191.63059 C 221.94736,186.62745 225.69601,193.1078 236.63463,187.80479"
           style="fill:none;fill-rule:evenodd;stroke:#000000;stroke-width:1px;stroke-linecap:round;stroke-linejoin:miter;stroke-opacity:1" />
        <path
           sodipodi:nodetypes="csscccccccsccccsc"
           id="path3842"
           d="M 274.28125,194.125 C 274.25078,194.13182 274.20368,194.15906 274.15625,194.1875 C 267.35833,198.2638 268.92904,196.25707 267.34375,195.96875 C 265.72044,195.6735 268.14947,200.42631 259.9375,199.03125 C 258.3015,205.08628 247.01922,201.51571 240.5625,202.75 C 239.00579,201.10833 237.64435,199.87947 236.84375,199.75 C 238.77381,203.20839 237.40809,203.83591 236.84375,205.15625 C 231.90304,204.97075 231.64868,202.94717 230.15625,201.3125 C 229.6495,205.94833 234.13029,206.65703 234,207.875 C 230.91411,208.50574 227.8359,205.56181 224.75,203.75 C 225.32882,206.34602 225.98246,209.17557 228.29815,209.52569 C 231.07809,209.946 232.17594,211.20421 233.46875,212.8125 C 234.62193,212.19677 235.91722,212.09939 238.03125,212.5625 C 249.26118,213.60245 267.38502,198.4436 273.34375,198.59375 C 273.52418,198.61407 273.70055,198.63857 273.875,198.65625 C 273.86661,198.53544 273.83852,198.40475 273.8125,198.28125 C 273.38738,196.26339 274.73835,194.02264 274.28125,194.125 z"
           style="opacity:0.25;fill:#000000;fill-opacity:1;fill-rule:evenodd;stroke:#000000;stroke-width:1px;stroke-linecap:butt;stroke-linejoin:miter;stroke-opacity:1" />
        <path
           sodipodi:nodetypes="cccc"
           id="path3844"
           d="M 278.30063,182.08804 C 279.59248,178.35186 278.58421,174.04065 282.57341,170.9788 L 281.14915,169.26969 C 277.79168,172.94048 278.93643,177.73683 278.30063,182.08804 z"
           style="opacity:0.25;fill:#000000;fill-opacity:1;fill-rule:evenodd;stroke:#000000;stroke-width:1px;stroke-linecap:butt;stroke-linejoin:miter;stroke-opacity:1" />
        <path
           sodipodi:nodetypes="cc"
           id="path3854"
           d="M 191.73741,238.54688 C 192.48921,240.25693 192.44838,238.11017 191.92669,237.22194"
           style="fill:none;fill-rule:evenodd;stroke:#000000;stroke-width:1px;stroke-linecap:round;stroke-linejoin:miter;stroke-opacity:1" />
      </g>
      <g
         id="g3537"
         transform="scale(4,4)"
         style="stroke-width:0.25;stroke-miterlimit:4;stroke-dasharray:none">
        <path
           style="fill:#e3e4e5;fill-rule:evenodd;stroke:#000000;stroke-width:0.25;stroke-linecap:butt;stroke-linejoin:miter;stroke-miterlimit:4;stroke-dasharray:none;stroke-opacity:1"
           d="M 47.932947,70.582448 C 43.837773,70.8335 41.411223,62.491928 41.537827,61.507468 C 41.664431,60.523008 42.155496,58.846216 43.791346,58.279455 C 44.071049,59.773504 44.520465,61.554679 46.601144,62.95535 C 47.97034,63.995829 48.452712,63.669791 49.765696,62.815193 C 51.041469,62.000132 52.714393,60.984252 54.084444,60.28935 C 54.969345,61.125999 54.950067,61.608241 55.058939,62.299244 C 55.950458,62.671081 55.955169,64.027779 55.789809,64.735481 C 52.9885,65.246847 52.028121,70.331396 47.932947,70.582448 z"
           id="path3539"
           sodipodi:nodetypes="ccccccccc" />
        <path
           style="fill:#000000;fill-opacity:0.40217393;fill-rule:evenodd;stroke:none;stroke-width:0.25;stroke-linecap:round;stroke-linejoin:bevel;stroke-miterlimit:4;stroke-dasharray:none;stroke-opacity:1"
           d="M 54.998032,61.933809 C 51.672983,62.44246 52.019985,64.902478 48.542006,67.049905 C 51.452221,66.556744 51.918082,63.675094 55.363468,62.603774 L 54.998032,61.933809 z"
           id="path3541"
           sodipodi:nodetypes="cccc" />
        <path
           style="fill:#000000;fill-opacity:0.40217393;fill-rule:evenodd;stroke:none;stroke-width:0.25;stroke-linecap:round;stroke-linejoin:bevel;stroke-miterlimit:4;stroke-dasharray:none;stroke-opacity:1"
           d="M 44.826746,64.491857 C 45.521462,64.362052 46.582063,65.647512 47.811135,66.440846 C 46.690765,66.562329 45.421909,65.239205 44.826746,64.491857 z"
           id="path3543"
           sodipodi:nodetypes="ccc" />
        <path
           style="fill:#000000;fill-opacity:0.40217393;fill-rule:evenodd;stroke:none;stroke-width:0.25;stroke-linecap:round;stroke-linejoin:bevel;stroke-miterlimit:4;stroke-dasharray:none;stroke-opacity:1"
           d="M 48.298383,68.937988 C 50.188077,68.128261 50.897322,67.929939 53.414479,66.501752 L 52.449354,67.581661 C 51.207944,68.294617 49.947372,68.513157 48.298383,68.937988 z"
           id="path3545"
           sodipodi:nodetypes="cccc" />
        <path
           style="fill:#000000;fill-opacity:0.40217393;fill-rule:evenodd;stroke:none;stroke-width:0.25;stroke-linecap:round;stroke-linejoin:bevel;stroke-miterlimit:4;stroke-dasharray:none;stroke-opacity:1"
           d="M 42.025075,59.680291 C 41.858273,61.298548 43.276282,61.358371 43.121381,62.66468 L 40.502427,61.811997 C 40.969372,61.760101 41.55813,60.375439 42.025075,59.680291 z"
           id="path3547"
           sodipodi:nodetypes="cccc" />
      </g>
      <g
         id="g3549"
         transform="scale(4,4)"
         style="stroke-width:0.25;stroke-miterlimit:4;stroke-dasharray:none">
        <path
           style="opacity:1;fill:#803300;fill-opacity:1;fill-rule:evenodd;stroke:#000000;stroke-width:0.25;stroke-linecap:butt;stroke-linejoin:miter;stroke-miterlimit:4;stroke-dasharray:none;stroke-opacity:1"
           d="M 53.22997,42.052326 C 52.035725,40.226426 49.087696,40.527733 46.964998,39.775074 C 43.395028,38.496176 41.363802,36.185865 37.807644,37.827429 L 35.959271,35.474954 C 34.483925,37.155294 35.84547,38.835633 35.959271,40.515973 C 29.228751,48.252039 31.813586,58.137802 30.246115,67.065341 C 25.51179,70.467345 23.942183,75.451708 20.836213,79.667889 C 32.657423,81.171968 41.953379,91.631096 53.774589,83.902398 C 53.559853,82.769505 53.164719,81.750744 53.22513,80.768429 C 53.376138,78.312955 52.339397,75.948804 51.02266,73.835929 C 49.387542,71.335253 47.275408,68.983685 43.777291,66.944022 C 42.697421,60.948256 39.470245,52.450826 39.61039,46.103896 C 42.546745,47.766482 44.016165,46.661924 46.398068,46.379512 C 49.579262,47.65189 51.664729,47.908218 51.809121,45.29614 C 52.647619,45.102652 53.183955,44.420135 53.22997,42.052326 z"
           id="path3551"
           sodipodi:nodetypes="ccccccccscccccc" />
        <path
           style="fill:#000000;fill-opacity:1;fill-rule:evenodd;stroke:none;stroke-width:0.25;stroke-linecap:butt;stroke-linejoin:miter;stroke-miterlimit:4;stroke-dasharray:none;stroke-opacity:1"
           d="M 43.699784,66.855532 C 41.643937,68.264818 39.359263,69.571897 36.90625,70.0625 C 35.849354,69.976724 33.108341,69.27495 30.951093,67.160327 L 30.53125,67.90625 C 31.603514,68.957328 32.561137,69.921896 33.641306,70.296194 C 34.802625,70.698611 36.265428,71.370255 36.21875,71.90625 C 36.091542,75.092724 35.979866,78.291281 37.768815,81.625 L 39.21875,81.875 L 38.71875,81.09375 C 36.908462,78.299522 37.178448,75.075429 37.3125,72.03125 C 37.335007,71.491603 39.249486,70.464396 40.1875,70.03125 C 41.597496,69.380157 43.148151,68.287789 44.423131,67.455963 C 44.220952,67.263607 44.051449,67.077785 43.699784,66.855532 z"
           id="path3553"
           sodipodi:nodetypes="ccccscccccscc" />
        <path
           style="fill:#000000;fill-rule:evenodd;stroke:#000000;stroke-width:0.25;stroke-linecap:butt;stroke-linejoin:miter;stroke-miterlimit:4;stroke-dasharray:none;stroke-opacity:1"
           d="M 35.03125,37.125 C 34.364586,37.294882 33.604167,37.644265 32.9375,37.3125 C 32.90291,38.11021 33.287454,38.803137 34.28125,39.34375 C 31.07726,39.850066 30.285272,41.031758 29.3125,41.8125 L 32.25,41.34375 C 31.44434,43.152957 29.647394,44.066929 28.15625,45.25 L 30.90625,44.875 C 30.832134,45.329945 30.569189,45.723335 30.25,46.125 C 30.238729,46.132735 30.229897,46.148495 30.21875,46.15625 C 29.065531,46.958514 28.57361,47.840176 28.1875,49.25 C 28.74891,48.948241 30.145934,48.055776 31.4375,47.90625 C 28.695058,49.75136 27.884882,51.504377 27,54.125 C 27.939495,53.41185 28.873005,52.651272 29.8125,52.25 C 29.413625,54.3886 27.926105,56.161097 26.46875,57.71875 L 28.5625,57.5 C 28.517464,57.759714 28.448271,57.984999 28.375,58.1875 C 26.854722,59.208176 25.893585,60.655163 25.15625,62.3125 C 26.32607,61.424517 27.51768,60.497679 28.6875,60.25 C 26.923138,61.951924 25.385228,63.336275 24.625,65.5 C 25.458302,64.67522 26.588263,64.152289 27.5625,63.71875 C 27.454667,64.247878 27.201182,64.771194 26.875,65.28125 C 25.903611,66.038636 25.449792,66.918715 25.09375,68.21875 L 27.84375,66.4375 C 27.986853,67.871131 26.775737,69.28512 25.6875,70.71875 C 26.677734,70.447554 27.429718,70.13024 28.0625,69.5625 C 28.120425,69.565464 28.169177,69.572744 28.21875,69.59375 C 28.543572,71.030612 29.227101,71.827896 30.4375,72.71875 C 30.061696,71.422206 29.64044,70.090637 29.71875,68.96875 C 30.523971,69.783994 31.828805,71.214402 33.4375,71.4375 C 31.978572,69.278359 30.457265,67.128129 30.75,64.71875 L 32.59375,66.21875 C 31.267945,63.979167 30.792488,61.739583 30.75,59.5 L 32.9375,61.34375 C 31.007132,58.604167 31.585387,55.864583 31.59375,53.125 C 31.833914,54.705 32.286959,54.976009 32.78125,55.03125 C 31.67684,52.064462 32.553865,51.072493 32.59375,49.25 L 32.6875,49.25 C 32.884226,49.461927 33.098503,49.657904 33.34375,49.875 C 33.04204,47.82641 33.59336,45.697778 34.125,43.71875 C 34.161086,44.501116 34.648804,45.193156 35.96875,45.71875 C 34.045605,43.140202 35.734647,42.328216 35.875,40.4375 L 35.03125,37.125 z"
           id="path3555"
           sodipodi:nodetypes="cccccccssccccccccccccccccccccccccccccccccc" />
        <path
           style="fill:#000000;fill-opacity:1;fill-rule:evenodd;stroke:#000000;stroke-width:0.25;stroke-linecap:butt;stroke-linejoin:miter;stroke-miterlimit:4;stroke-dasharray:none;stroke-opacity:1"
           d="M 40.508021,34.34492 C 40.796107,34.960941 41.074997,35.31782 40.628342,35.828878 C 41.360515,36.979948 43.886228,36.326221 44.318181,38.475935 C 42.451026,37.947378 41.4104,37.818916 39.545455,38.355615 C 41.423388,38.935801 41.999253,40.492539 43.114973,41.644385 C 40.774004,41.855844 39.67156,39.868385 38.02139,39.959893 C 37.483677,38.628669 37.616049,37.381304 36.9603,36.730411 C 38.013152,34.824208 39.979607,36.017293 40.508021,34.34492 z"
           id="path3557"
           sodipodi:nodetypes="cccccccc" />
        <path
           style="fill:#000000;fill-rule:evenodd;stroke:#000000;stroke-width:0.25;stroke-linecap:round;stroke-linejoin:miter;stroke-miterlimit:4;stroke-dasharray:none;stroke-opacity:1"
           d="M 46.575214,39.675044 C 46.004798,41.966622 46.232329,44.098611 46.357827,46.251007 C 46.692846,44.146538 46.446394,41.848245 47.553457,40.001124 L 46.575214,39.675044 z"
           id="path3559"
           sodipodi:nodetypes="cccc" />
        <path
           style="fill:#000000;fill-opacity:0.35294118;fill-rule:evenodd;stroke:#000000;stroke-width:0.25;stroke-linecap:butt;stroke-linejoin:miter;stroke-miterlimit:4;stroke-dasharray:none;stroke-opacity:1"
           d="M 36.303667,37.294091 L 37.042971,39.502165 C 37.042971,39.502165 35.597159,37.728866 36.303667,37.294091 z"
           id="path3561"
           sodipodi:nodetypes="ccc" />
        <path
           style="fill:none;fill-rule:evenodd;stroke:#000000;stroke-width:0.25;stroke-linecap:butt;stroke-linejoin:miter;stroke-miterlimit:4;stroke-dasharray:none;stroke-opacity:1"
           d="M 37.934072,39.294616 C 37.934072,39.144915 36.528992,43.987326 39.735453,46.219259"
           id="path3563"
           sodipodi:nodetypes="cs" />
        <path
           style="fill:none;fill-rule:evenodd;stroke:#000000;stroke-width:0.25;stroke-linecap:round;stroke-linejoin:miter;stroke-miterlimit:4;stroke-dasharray:none;stroke-opacity:1"
           d="M 37.718694,42.664118 C 39.444299,44.127167 42.457888,44.653801 46.357358,44.08791"
           id="path3565"
           sodipodi:nodetypes="cc" />
        <path
           style="fill:none;fill-rule:evenodd;stroke:#000000;stroke-width:0.25;stroke-linecap:round;stroke-linejoin:miter;stroke-miterlimit:4;stroke-dasharray:none;stroke-opacity:1"
           d="M 48.914274,45.025197 C 49.587558,45.1857 50.499791,45.509701 51.817144,45.351747"
           id="path3567"
           sodipodi:nodetypes="cc" />
        <path
           style="fill:none;fill-rule:evenodd;stroke:#000000;stroke-width:0.25;stroke-linecap:round;stroke-linejoin:miter;stroke-miterlimit:4;stroke-dasharray:none;stroke-opacity:1"
           d="M 50.05341,42.011956 C 50.576232,42.228257 51.708781,42.322612 51.221493,42.740935"
           id="path3569"
           sodipodi:nodetypes="cc" />
        <path
           style="fill:none;fill-rule:evenodd;stroke:#000000;stroke-width:0.25;stroke-linecap:round;stroke-linejoin:miter;stroke-miterlimit:4;stroke-dasharray:none;stroke-opacity:1"
           d="M 50.758034,42.243447 C 51.096512,42.628382 51.321662,42.672773 51.147307,42.886763"
           id="path3571"
           sodipodi:nodetypes="cc" />
        <path
           style="fill:none;fill-rule:evenodd;stroke:#000000;stroke-width:0.25;stroke-linecap:round;stroke-linejoin:miter;stroke-miterlimit:4;stroke-dasharray:none;stroke-opacity:1"
           d="M 41.483692,39.463414 C 41.981347,39.280744 42.886337,39.309662 43.293353,39.63186 C 43.561594,39.844202 43.769226,39.882788 44.024255,39.973801 L 44.096021,39.987024"
           id="path3573"
           sodipodi:nodetypes="cscc" />
        <path
           style="fill:#000000;fill-rule:evenodd;stroke:#000000;stroke-width:0.25;stroke-linecap:round;stroke-linejoin:miter;stroke-miterlimit:4;stroke-dasharray:none;stroke-opacity:1"
           d="M 42.891344,39.532149 L 43.216487,39.628668 C 43.585919,40.483397 42.696318,40.326672 42.924268,40.328067 L 42.891344,39.532149 z"
           id="path3575"
           sodipodi:nodetypes="cccc" />
        <path
           style="opacity:0.25;fill:#000000;fill-opacity:1;fill-rule:evenodd;stroke:none;stroke-width:0.25;stroke-linecap:butt;stroke-linejoin:miter;stroke-miterlimit:4;stroke-dasharray:none;stroke-opacity:1"
           d="M 33.9109,56.364187 C 33.9109,56.364187 33.304724,63.022545 35.852491,64.336955 C 36.463244,64.652046 34.206813,67.959667 33.595156,67.541522 C 33.969643,66.497207 33.725614,64.476574 33.39897,62.935891 C 32.802988,60.12482 33.809435,57.784933 33.9109,56.364187 z"
           id="path3577"
           sodipodi:nodetypes="cscsc" />
        <path
           style="opacity:0.25;fill:#000000;fill-opacity:1;fill-rule:evenodd;stroke:none;stroke-width:0.25;stroke-linecap:butt;stroke-linejoin:miter;stroke-miterlimit:4;stroke-dasharray:none;stroke-opacity:1"
           d="M 36.942042,53.396194 C 34.396696,58.303451 39.463746,63.083335 38.836505,65.331315 C 39.644363,66.118911 40.291808,67.127721 41.930796,66.720588 C 41.91271,62.237907 35.852395,61.001025 36.942042,53.396194 z"
           id="path3579"
           sodipodi:nodetypes="cccc" />
        <path
           style="opacity:0.25;fill:#000000;fill-opacity:1;fill-rule:evenodd;stroke:none;stroke-width:0.25;stroke-linecap:butt;stroke-linejoin:miter;stroke-miterlimit:4;stroke-dasharray:none;stroke-opacity:1"
           d="M 48.252235,70.456654 C 47.08159,77.420435 50.256312,75.172115 51.07944,82.998819 L 52.142014,82.96087 C 51.611128,80.467327 51.563067,79.916712 51.724574,75.219261 C 50.420086,72.381867 49.366901,71.68056 48.252235,70.456654 z"
           id="path3581"
           sodipodi:nodetypes="ccccc" />
      </g>
      <g
         id="g3583"
         transform="scale(4,4)"
         style="stroke-width:0.25;stroke-miterlimit:4;stroke-dasharray:none">
        <path
           style="fill:#d8986c;fill-opacity:1;fill-rule:evenodd;stroke:#000000;stroke-width:0.25;stroke-linecap:butt;stroke-linejoin:miter;stroke-miterlimit:4;stroke-dasharray:none;stroke-opacity:1"
           d="M 55.78125,64.6875 C 55.777586,64.704699 55.785108,64.733487 55.78125,64.75 C 53.162429,65.228053 52.153816,69.682647 48.6875,70.46875 C 50.112862,72.767738 51.625092,76.01015 53.21875,78.15625 C 53.558981,81.835469 53.962622,81.84766 54.1875,83.375 L 62.28125,82 C 61.022217,80.8015 60.149844,79.337057 59.21875,78.03125 C 58.029483,75.147182 58.774696,72.013182 57.96875,69.03125 C 57.355675,67.300622 56.165076,66.095545 55.78125,64.6875 z"
           id="path3585" />
        <path
           style="opacity:0.25;fill:#000000;fill-opacity:1;fill-rule:evenodd;stroke:#000000;stroke-width:0.25;stroke-linecap:butt;stroke-linejoin:bevel;stroke-miterlimit:4;stroke-dasharray:none;stroke-opacity:1"
           d="M 53.627893,66.177843 C 53.033807,66.874884 52.931648,67.079998 52.743509,67.371091 C 53.800146,67.908724 53.459289,70.188754 54.528369,71.612129 C 54.045628,68.274505 53.95988,67.137653 53.627893,66.177843 z"
           id="path3587"
           sodipodi:nodetypes="cccc" />
        <path
           style="opacity:0.25;fill:#000000;fill-opacity:1;fill-rule:evenodd;stroke:#000000;stroke-width:0.25;stroke-linecap:butt;stroke-linejoin:miter;stroke-miterlimit:4;stroke-dasharray:none;stroke-opacity:1"
           d="M 52.7147,77.407986 C 53.292971,77.656966 53.871243,76.198733 54.449514,75.515461 C 53.872277,76.956224 53.040169,77.576613 53.216169,78.103789 C 52.970078,78.200154 52.856071,77.835221 52.7147,77.407986 z"
           id="path3589"
           sodipodi:nodetypes="cccc" />
        <path
           style="opacity:0.25;fill:#000000;fill-opacity:1;fill-rule:evenodd;stroke:#000000;stroke-width:0.25;stroke-linecap:butt;stroke-linejoin:miter;stroke-miterlimit:4;stroke-dasharray:none;stroke-opacity:1"
           d="M 53.401424,79.573253 C 54.068329,79.878168 54.9189,79.938195 56.026618,79.655359 C 54.229786,80.239252 55.062439,81.707985 54.764935,82.573001 C 54.756363,81.506269 54.585866,80.478947 53.401424,79.573253 z"
           id="path3591"
           sodipodi:nodetypes="cccc" />
      </g>
      <g
         id="g3722">
        <path
           style="fill:#d8986c;fill-opacity:1;fill-rule:evenodd;stroke:#000000;stroke-width:1;stroke-linecap:butt;stroke-linejoin:miter;stroke-miterlimit:4;stroke-dasharray:none;stroke-opacity:1"
           d="M 211.73579,214.25077 C 218.03124,211.89746 220.61386,207.82059 221.56692,201.74347 C 221.71829,200.77824 220.94737,199.23383 221.02487,198.16656 C 220.9221,196.73285 219.76556,196.51602 217.784,195.89247 C 215.29732,195.71225 213.67831,195.50359 210.67699,196.30712 C 190.3103,201.75977 182.47763,181.24554 163.86962,194.75741 C 162.86308,202.35257 167.19408,210.22811 173.95805,211.95148 C 180.253,212.53537 187.55359,212.87154 197.52254,210.84312 C 200.01736,210.82164 201.47892,211.39167 202.52752,211.31365 C 203.89734,211.21173 205.89381,210.89816 205.44814,211.36421 C 203.65437,213.24001 205.07268,214.56297 211.73579,214.25077 z"
           id="path3509"
           sodipodi:nodetypes="cscsscccssc" />
        <path
           style="fill:none;fill-rule:evenodd;stroke:#000000;stroke-width:1;stroke-linecap:round;stroke-linejoin:miter;stroke-miterlimit:4;stroke-dasharray:none;stroke-opacity:1"
           d="M 213.74983,209.0542 C 216.01639,210.72213 215.33501,211.58956 214.88604,212.69973"
           id="path3511"
           sodipodi:nodetypes="cc" />
        <path
           style="fill:none;fill-rule:evenodd;stroke:#000000;stroke-width:1;stroke-linecap:round;stroke-linejoin:miter;stroke-miterlimit:4;stroke-dasharray:none;stroke-opacity:1"
           d="M 218.1181,198.95202 C 221.25578,199.2824 221.00657,201.49438 221.02439,203.62104"
           id="path3513"
           sodipodi:nodetypes="cc" />
        <path
           style="fill:none;fill-rule:evenodd;stroke:#000000;stroke-width:1;stroke-linecap:round;stroke-linejoin:miter;stroke-miterlimit:4;stroke-dasharray:none;stroke-opacity:1"
           d="M 216.94684,202.355 C 218.73399,202.93079 220.45784,203.71748 220.09349,206.7254"
           id="path3515"
           sodipodi:nodetypes="cc" />
        <path
           style="fill:none;fill-rule:evenodd;stroke:#000000;stroke-width:1;stroke-linecap:round;stroke-linejoin:miter;stroke-miterlimit:4;stroke-dasharray:none;stroke-opacity:1"
           d="M 217.8893,210.1817 C 218.83369,207.52193 216.68799,206.03518 215.55842,205.69111"
           id="path3517"
           sodipodi:nodetypes="cc" />
        <path
           style="fill:#d8986c;fill-opacity:1;fill-rule:evenodd;stroke:#000000;stroke-width:1;stroke-linecap:butt;stroke-linejoin:miter;stroke-miterlimit:4;stroke-dasharray:none;stroke-opacity:1"
           d="M 204.61154,212.48348 C 205.53022,209.98427 209.25081,211.68794 211.83727,210.54486"
           id="path3519"
           sodipodi:nodetypes="cc" />
        <path
           style="opacity:0.25;fill:#000000;fill-opacity:1;fill-rule:evenodd;stroke:#000000;stroke-width:1;stroke-linecap:butt;stroke-linejoin:miter;stroke-miterlimit:4;stroke-dasharray:none;stroke-opacity:1"
           d="M 164.8676,202.32754 L 165.80461,204.94181 C 172.51639,201.91181 186.42121,206.38742 199.91005,203.63561 C 180.77734,203.44749 173.38888,201.33542 164.8676,202.32754 z"
           id="path3595"
           sodipodi:nodetypes="cccc" />
      </g>
    </g>
    <path
       style="fill:#eac102;fill-opacity:1;stroke:#000000;stroke-width:5;stroke-miterlimit:4;stroke-dasharray:none"
       d="M 200,9.625 C 94.895828,9.625 9.625,94.895828 9.625,200 C 9.625,305.10417 94.895828,390.37501 200,390.375 C 305.10417,390.375 390.37501,305.10417 390.375,200 C 390.375,94.895828 305.10417,9.625 200,9.625 z M 200,67.5 C 273.12208,67.5 332.5,126.87792 332.5,200 C 332.5,273.12208 273.12208,332.5 200,332.5 C 126.87792,332.5 67.5,273.12208 67.5,200 C 67.5,126.87792 126.87792,67.5 200,67.5 z"
       id="path3593" />
    <path
       id="text4062"
       d="M 64.342935,152.43997 L 35.390133,138.32109 L 39.656614,129.57205 L 61.967954,133.94956 L 44.751352,119.12456 L 49.027464,110.35577 L 77.980267,124.47464 L 75.331774,129.90576 L 52.540823,118.79172 L 72.529186,135.65287 L 69.784384,141.28149 L 44.200477,135.89481 L 66.991428,147.00885 L 64.342935,152.43997 z M 57.254263,98.417902 L 61.442877,93.442332 L 74.789509,104.67801 C 76.907491,106.46101 78.33214,107.55502 79.06346,107.96003 C 80.251264,108.59617 81.487794,108.77068 82.773054,108.48357 C 84.058307,108.19648 85.285832,107.35814 86.455631,105.96855 C 87.644284,104.55658 88.251935,103.24907 88.278586,102.04601 C 88.305221,100.84299 87.959629,99.814862 87.241808,98.961622 C 86.523973,98.108428 85.190118,96.861079 83.240237,95.21957 L 69.607846,83.743331 L 73.796461,78.767761 L 86.739668,89.66382 C 89.698106,92.154377 91.674862,94.048257 92.669942,95.345465 C 93.664997,96.642726 94.278524,98.006512 94.510525,99.436827 C 94.742497,100.86719 94.598403,102.39739 94.078243,104.02745 C 93.558055,105.65755 92.477227,107.44753 90.835755,109.3974 C 88.854645,111.75072 87.08056,113.30654 85.513495,114.06487 C 83.946419,114.82321 82.431478,115.18982 80.968666,115.16468 C 79.505852,115.13956 78.203843,114.83813 77.062635,114.26037 C 75.377072,113.3967 73.155924,111.8045 70.399182,109.48377 L 57.254263,98.417902 z M 103.51507,94.646869 L 83.948586,69.058586 L 88.975479,65.214694 L 112.51474,74.29453 L 99.448173,57.206584 L 104.24816,53.536201 L 123.81464,79.124484 L 118.63066,83.088498 L 95.555464,74.289993 L 108.31505,90.976486 L 103.51507,94.646869 z M 129.8382,76.049916 L 114.36734,47.79642 L 120.072,44.6727 L 135.54286,72.926197 L 129.8382,76.049916 z M 156.31444,51.591211 L 162.92583,51.356429 C 163.19601,54.992555 162.55877,57.99193 161.01409,60.354561 C 159.46936,62.717213 157.06891,64.479112 153.81274,65.640264 C 149.78389,67.076955 145.98172,66.881501 142.40624,65.053902 C 138.83076,63.226315 136.19183,59.925568 134.48945,55.151651 C 132.68868,50.101817 132.59398,45.71495 134.20535,41.991037 C 135.81673,38.267182 138.74722,35.647536 142.99683,34.132091 C 146.70832,32.808606 150.11421,32.830446 153.21449,34.19761 C 155.05671,35.002587 156.75574,36.496225 158.31158,38.678528 L 152.76423,42.289668 C 151.84458,40.844716 150.65326,39.869868 149.19026,39.365121 C 147.72723,38.860437 146.18167,38.898368 144.55359,39.478915 C 142.3046,40.280932 140.76773,41.738771 139.94295,43.852436 C 139.11817,45.966155 139.35032,48.830461 140.6394,52.445362 C 142.0072,56.281059 143.67127,58.766937 145.63159,59.903004 C 147.5919,61.039093 149.67585,61.21352 151.88345,60.426284 C 153.51153,59.845716 154.72746,58.828918 155.53125,57.375886 C 156.335,55.922881 156.59606,53.994658 156.31444,51.591211 L 156.31444,51.591211 z M 171.70973,60.066997 L 166.04676,28.356776 L 172.44937,27.213365 L 178.11234,58.923586 L 171.70973,60.066997 z M 184.22244,57.773877 L 183.48576,25.570388 L 193.92004,25.331694 C 197.87407,25.241275 200.4552,25.343404 201.66345,25.638082 C 203.5197,26.079175 205.08874,27.094581 206.37058,28.684303 C 207.65236,30.274084 208.32258,32.350362 208.38123,34.913142 C 208.42643,36.890185 208.10566,38.560554 207.41892,39.924254 C 206.73213,41.287989 205.84471,42.366915 204.75665,43.161035 C 203.66855,43.955184 202.55622,44.489795 201.41966,44.764871 C 199.87435,45.107931 197.62992,45.313123 194.68637,45.380447 L 190.44676,45.477432 L 190.72465,57.625133 L 184.22244,57.773877 z M 190.11259,30.869437 L 190.32163,40.007672 L 193.88027,39.926265 C 196.44306,39.867656 198.15263,39.660048 199.00897,39.303438 C 199.86528,38.946865 200.53053,38.404166 201.00473,37.675338 C 201.47889,36.94655 201.70509,36.106197 201.68333,35.154276 C 201.65651,33.982732 201.29025,33.024061 200.58456,32.278262 C 199.87882,31.532514 198.99658,31.076498 197.93783,30.910212 C 197.1583,30.781549 195.59698,30.744004 193.25385,30.797578 L 190.11259,30.869437 z M 242.85999,63.142916 L 235.91622,61.785579 L 234.55966,54.065031 L 221.92285,51.594848 L 217.90984,58.265779 L 211.13858,56.942165 L 229.6316,27.735529 L 236.38129,29.054927 L 242.85999,63.142916 z M 233.55222,48.338138 L 231.48933,35.755541 L 224.92641,46.652006 L 233.55222,48.338138 z M 246.26729,64.781388 L 258.55129,35.289125 L 264.55522,37.789857 L 254.35798,62.272086 L 269.28666,68.490121 L 267.1999,73.500154 L 246.26729,64.781388 z M 270.89707,76.124709 L 287.55338,48.553441 L 293.12029,51.916516 L 276.46398,79.487783 L 270.89707,76.124709 z M 302.80782,57.961487 L 311.85792,65.668714 C 313.89876,67.40677 315.32154,68.887804 316.12627,70.111817 C 317.20398,71.760792 317.79523,73.563046 317.90002,75.518584 C 318.00473,77.474132 317.65757,79.463293 316.85852,81.486072 C 316.05939,83.508849 314.68161,85.668926 312.72515,87.966307 C 311.00607,89.984866 309.27354,91.510932 307.52754,92.544508 C 305.39454,93.806502 303.28915,94.505171 301.21139,94.640519 C 299.64033,94.74562 297.92488,94.41029 296.06505,93.634527 C 294.67769,93.049481 293.06953,91.978169 291.24056,90.42059 L 281.9228,82.485423 L 302.80782,57.961487 z M 304.22638,66.32704 L 290.39326,82.570384 L 294.09025,85.718807 C 295.47312,86.896492 296.53773,87.668452 297.28409,88.034689 C 298.258,88.51776 299.21402,88.74509 300.15217,88.716681 C 301.09027,88.688255 302.19437,88.267257 303.46447,87.453688 C 304.73452,86.640104 306.17684,85.28537 307.79144,83.389482 C 309.40599,81.493587 310.47813,79.895749 311.00786,78.595963 C 311.53754,77.296181 311.74346,76.105472 311.62564,75.023835 C 311.50776,73.942208 311.07149,72.906875 310.31683,71.917833 C 309.75832,71.172864 308.4698,69.940852 306.45126,68.221793 L 304.22638,66.32704 z M 323.59458,127.49632 L 319.36547,121.82419 L 323.55023,115.19585 L 315.85379,104.87328 L 308.39869,107.11541 L 304.27466,101.5842 L 337.59814,92.388291 L 341.70904,97.901883 L 323.59458,127.49632 z M 326.6535,110.27833 L 333.58319,99.575216 L 321.39995,103.23221 L 326.6535,110.27833 z M 352.76747,116.04472 L 358.33385,126.54811 C 359.58908,128.91671 360.36476,130.81831 360.66089,132.25292 C 361.05387,134.18324 360.93816,136.07647 360.31378,137.93261 C 359.68931,139.78873 358.63247,141.5093 357.14324,143.09432 C 355.65394,144.67932 353.57616,146.17834 350.9099,147.59139 C 348.56716,148.83292 346.39369,149.61176 344.38949,149.92791 C 341.94129,150.31351 339.72669,150.18576 337.74568,149.54466 C 336.24676,149.06247 334.77621,148.11765 333.33403,146.71021 C 332.26056,145.6544 331.16137,144.06517 330.03644,141.9425 L 324.30543,131.12848 L 352.76747,116.04472 z M 350.99817,124.34318 L 332.14644,134.33385 L 334.42032,138.62452 C 335.27087,140.22946 335.97539,141.33985 336.53387,141.95571 C 337.26071,142.76414 338.06532,143.32828 338.94771,143.64814 C 339.83007,143.96797 341.0116,143.98422 342.4923,143.69688 C 343.97297,143.40952 345.81348,142.68279 348.01384,141.51672 C 350.21415,140.35061 351.80034,139.26132 352.77242,138.24883 C 353.74444,137.23632 354.37531,136.20569 354.66503,135.15694 C 354.9547,134.10818 354.93137,132.98492 354.59505,131.78718 C 354.35094,130.88866 353.60813,129.26806 352.36662,126.92534 L 350.99817,124.34318 z"
       style="font-size:45px;font-style:normal;font-variant:normal;font-weight:bold;font-stretch:normal;text-align:start;line-height:125%;writing-mode:lr-tb;text-anchor:start;fill:#000000;fill-opacity:1;stroke:none;stroke-width:1px;stroke-linecap:butt;stroke-linejoin:miter;stroke-opacity:1;font-family:Arial;-inkscape-font-specification:Arial Bold" />
    <path
       id="text4088"
       d="M 110.0579,352.1712 L 124.59202,323.72038 L 130.38394,326.67918 L 118.31882,350.29689 L 132.72034,357.65391 L 130.25134,362.48703 L 110.0579,352.1712 z M 162.31864,372.99172 L 155.56773,370.87427 L 155.07393,363.05102 L 142.78811,359.19751 L 138.06149,365.38336 L 131.4783,363.31851 L 153.08996,336.33786 L 159.65218,338.39613 L 162.31864,372.99172 z M 154.70645,357.24781 L 154.04872,344.5142 L 146.32023,354.61743 L 154.70645,357.24781 z M 169.81049,341.50954 L 176.26373,342.31979 L 174.09027,359.63017 C 173.74535,362.37717 173.60174,364.16765 173.65943,365.00164 C 173.77133,366.34441 174.29716,367.47709 175.23692,368.39969 C 176.17665,369.32229 177.54765,369.89673 179.34992,370.12302 C 181.18123,370.35296 182.60898,370.15207 183.63318,369.52034 C 184.65734,368.88862 185.33233,368.03958 185.65817,366.97323 C 185.98396,365.90689 186.30563,364.10923 186.62319,361.58025 L 188.84318,343.89925 L 195.29642,344.7095 L 193.18866,361.49664 C 192.70685,365.33371 192.1921,368.02246 191.64439,369.5629 C 191.09662,371.10334 190.28559,372.35975 189.21129,373.33211 C 188.13693,374.30448 186.77431,375.01551 185.12342,375.4652 C 183.47248,375.91488 181.38254,375.98096 178.85359,375.66343 C 175.80137,375.2802 173.53103,374.63713 172.04258,373.73421 C 170.5541,372.83129 169.42276,371.75915 168.64853,370.51777 C 167.87429,369.27639 167.41939,368.01975 167.28383,366.74783 C 167.09226,364.86359 167.22095,362.13375 167.66988,358.55829 L 169.81049,341.50954 z M 205.45242,376.48106 L 204.30489,349.74298 L 194.75558,350.15281 L 194.52193,344.7086 L 220.09653,343.61101 L 220.33018,349.05521 L 210.80282,349.4641 L 211.95034,376.20218 L 205.45242,376.48106 z M 254.08472,368.98937 L 247.1778,370.52327 L 242.8459,363.99014 L 230.27616,366.78164 L 229.267,374.50092 L 222.53168,375.9967 L 227.79615,341.83086 L 234.51002,340.33984 L 254.08472,368.98937 z M 239.63152,359.14452 L 232.70718,348.43795 L 231.05149,361.04999 L 239.63152,359.14452 z M 257.35183,367.48872 L 244.5152,337.94505 L 257.07026,332.48992 C 260.22749,331.11815 262.63681,330.38674 264.29823,330.2957 C 265.95963,330.20473 267.51505,330.65089 268.96449,331.6342 C 270.41391,332.61757 271.51806,333.98252 272.27695,335.72904 C 273.24011,337.94585 273.38387,340.0595 272.70822,342.06997 C 272.03253,344.0805 270.47994,345.83716 268.05044,347.33995 C 269.66709,347.53194 271.09082,347.89557 272.32164,348.43085 C 273.55242,348.96618 275.37898,350.07314 277.80133,351.75174 L 283.91292,355.94801 L 276.77891,359.04772 L 269.67303,354.49288 C 267.14321,352.86098 265.46629,351.86867 264.64226,351.51597 C 263.81821,351.1633 263.04231,351.0133 262.31455,351.06597 C 261.58678,351.11867 260.53771,351.44272 259.16734,352.03813 L 257.95818,352.5635 L 263.317,364.89688 L 257.35183,367.48872 z M 255.90923,347.8478 L 260.32264,345.93019 C 263.1843,344.68683 264.91862,343.78953 265.52561,343.23829 C 266.13258,342.68709 266.50917,342.02835 266.65539,341.26206 C 266.80158,340.49582 266.68204,339.66933 266.29678,338.78259 C 265.86479,337.78843 265.25066,337.10097 264.45438,336.72023 C 263.65808,336.33955 262.74125,336.27873 261.70389,336.53777 C 261.19103,336.68078 259.72546,337.27764 257.30715,338.32836 L 252.65191,340.35105 L 255.90923,347.8478 z M 277.00228,341.71498 C 275.15657,339.00207 274.01322,336.44913 273.57221,334.05613 C 273.25492,332.28771 273.25341,330.50816 273.56768,328.71749 C 273.88197,326.92688 274.48569,325.34681 275.37882,323.9773 C 276.56016,322.14603 278.23478,320.49291 280.40269,319.01795 C 284.32673,316.34829 288.29467,315.4293 292.30651,316.26098 C 296.31834,317.09274 299.79918,319.67651 302.74905,324.0123 C 305.67416,328.31182 306.79403,332.47085 306.10866,336.48942 C 305.42325,340.50802 303.1246,343.84804 299.21268,346.50949 C 295.2523,349.20391 291.28145,350.13816 287.30015,349.31225 C 283.31884,348.48634 279.88622,345.95392 277.00228,341.71498 L 277.00228,341.71498 z M 282.41958,337.7636 C 284.47129,340.77931 286.72295,342.59152 289.17456,343.20022 C 291.62616,343.80895 293.92381,343.38409 296.06751,341.92563 C 298.21119,340.4672 299.44505,338.49827 299.76912,336.01885 C 300.09316,333.53947 299.20461,330.75559 297.10347,327.6672 C 295.02703,324.6152 292.8088,322.79353 290.44878,322.20221 C 288.08875,321.61094 285.80055,322.06924 283.5842,323.57709 C 281.36784,325.08501 280.09848,327.06036 279.77612,329.50315 C 279.45376,331.94599 280.33491,334.69947 282.41958,337.7636 L 282.41958,337.7636 z"
       style="font-size:45px;font-style:normal;font-variant:normal;font-weight:bold;font-stretch:normal;text-align:start;line-height:125%;writing-mode:lr-tb;text-anchor:start;fill:#000000;fill-opacity:1;stroke:none;stroke-width:1px;stroke-linecap:butt;stroke-linejoin:miter;stroke-opacity:1;font-family:Arial;-inkscape-font-specification:Arial Bold" />
  </g>
</svg>
