<?xml version="1.0" encoding="UTF-8" standalone="no"?>
<!-- Created with Inkscape (http://www.inkscape.org/) -->
<svg
   xmlns:svg="http://www.w3.org/2000/svg"
   xmlns="http://www.w3.org/2000/svg"
   xmlns:xlink="http://www.w3.org/1999/xlink"
   version="1.0"
   width="800"
   height="850"
   id="svg2">
  <defs
     id="defs5" />
  <g
     transform="translate(5.7157919,4.7052539)"
     id="g5593">
    <g
       id="g5361">
      <path
         d="M 611.5625,21.65625 C 484.20225,21.660361 356.86028,21.66119 229.5,21.6875 C 212.04492,21.69249 194.58009,21.68251 177.125,21.6875 C 157.60022,68.910777 122.9997,109.43593 80.25,137.25 C 73.125049,141.88568 65.764674,146.16015 58.21875,150.0625 C 50.672826,153.96485 42.9341,157.4802 35.03125,160.59375 C 30.467395,162.50935 25.903695,164.39705 21.25,166.09375 C 21.245298,222.36435 21.252868,278.63532 21.25,334.90625 L 767.3125,334.90625 C 767.34487,278.58778 767.39804,222.26666 767.34375,165.96875 C 761.70747,164.73775 756.56367,161.7967 751.15625,159.75 C 745.35561,157.23011 739.61947,154.54119 733.96875,151.65625 C 728.31803,148.77131 722.74144,145.68394 717.28125,142.4375 C 684.52122,122.96044 655.56547,97.011914 634.78125,64.96875 C 625.75775,51.252187 617.98142,36.77732 611.5625,21.65625 z"
         id="path3164"
         style="fill:#eac102;fill-rule:evenodd;stroke:#000000;stroke-width:1;stroke-linecap:butt;stroke-linejoin:miter;stroke-miterlimit:4;stroke-dasharray:none;stroke-opacity:1" />
      <g
         id="g3512">
        <path
           d="M 309.03125,70.375 L 309.03125,86.21875 L 323.90625,86.21875 L 323.90625,70.375 L 309.03125,70.375 z M 328.90625,70.375 L 328.90625,86.21875 L 343.78125,86.21875 L 343.78125,70.375 L 328.90625,70.375 z M 348.78125,70.375 L 348.78125,86.21875 L 363.65625,86.21875 L 363.65625,70.375 L 348.78125,70.375 z M 368.65625,70.375 L 368.65625,86.21875 L 383.53125,86.21875 L 383.53125,70.375 L 368.65625,70.375 z M 388.53125,70.375 L 388.53125,86.21875 L 403.375,86.21875 L 403.375,70.375 L 388.53125,70.375 z M 408.375,70.375 L 408.375,86.21875 L 423.25,86.21875 L 423.25,70.375 L 408.375,70.375 z M 428.25,70.375 L 428.25,86.21875 L 443.125,86.21875 L 443.125,70.375 L 428.25,70.375 z M 309.03125,91.21875 L 309.03125,108.6875 C 313.8485,107.03249 318.80137,105.55371 323.90625,104.25 L 323.90625,91.21875 L 309.03125,91.21875 z M 328.90625,91.21875 L 328.90625,103.0625 C 333.76343,101.95266 338.71239,100.99564 343.78125,100.21875 L 343.78125,91.21875 L 328.90625,91.21875 z M 348.78125,91.21875 L 348.78125,99.5 C 353.65822,98.868598 358.62242,98.402882 363.65625,98.09375 L 363.65625,91.21875 L 348.78125,91.21875 z M 368.65625,91.21875 L 368.65625,97.84375 C 371.63303,97.72703 374.63528,97.65625 377.65625,97.65625 C 379.62211,97.65625 381.58373,97.70034 383.53125,97.75 L 383.53125,91.21875 L 368.65625,91.21875 z M 388.53125,91.21875 L 388.53125,97.90625 C 393.55544,98.144823 398.50005,98.565834 403.375,99.125 L 403.375,91.21875 L 388.53125,91.21875 z M 408.375,91.21875 L 408.375,99.75 C 413.43188,100.44876 418.39446,101.31499 423.25,102.34375 L 423.25,91.21875 L 408.375,91.21875 z M 428.25,91.21875 L 428.25,103.46875 C 433.33664,104.68103 438.31069,106.06664 443.125,107.625 L 443.125,91.21875 L 428.25,91.21875 z M 448.125,91.53125 L 448.125,109.3125 C 453.02368,111.05376 457.75833,112.97825 462.3125,115.0625 L 468,117.8125 C 473.00256,120.34093 477.76867,123.07457 482.25,126 C 482.45949,126.13675 482.6667,126.26864 482.875,126.40625 L 482.875,91.53125 L 448.125,91.53125 z M 377.65625,104.65625 C 374.63083,104.65625 371.63459,104.72226 368.65625,104.84375 L 368.65625,128.65625 L 383.53125,128.65625 L 383.53125,104.75 C 381.58662,104.69851 379.62038,104.65625 377.65625,104.65625 z M 388.53125,104.9375 L 388.53125,128.65625 L 403.375,128.65625 L 403.375,106.15625 C 398.50621,105.57638 393.56116,105.1856 388.53125,104.9375 z M 363.65625,105.09375 C 358.61797,105.41469 353.65026,105.90865 348.78125,106.5625 L 348.78125,128.65625 L 363.65625,128.65625 L 363.65625,105.09375 z M 408.375,106.84375 L 408.375,128.65625 L 423.25,128.65625 L 423.25,109.53125 C 418.40483,108.46463 413.44117,107.57049 408.375,106.84375 z M 343.78125,107.3125 C 338.71084,108.11917 333.7446,109.07067 328.90625,110.21875 L 328.90625,128.65625 L 343.78125,128.65625 L 343.78125,107.3125 z M 487.9375,110.4375 L 487.875,128.65625 L 508.1875,128.65625 L 508.1875,110.4375 L 487.9375,110.4375 z M 428.25,110.71875 L 428.25,128.65625 L 441.34375,128.65625 L 443.125,126.875 L 443.125,115.03125 C 438.32921,113.41189 433.35087,111.98288 428.25,110.71875 z M 323.90625,111.5 C 318.79225,112.85853 313.82247,114.40706 309.03125,116.125 L 309.03125,128.65625 L 323.90625,128.65625 L 323.90625,111.5 z M 194.46875,111.78125 L 194.46875,128.65625 L 209.5,128.65625 L 209.5,111.78125 L 194.46875,111.78125 z M 214.5,111.78125 L 214.5,128.65625 L 229.3125,128.65625 L 229.3125,111.78125 L 214.5,111.78125 z M 234.3125,111.78125 L 234.3125,128.65625 L 249.125,128.65625 L 249.125,111.78125 L 234.3125,111.78125 z M 448.125,116.8125 L 448.125,121.90625 L 451.8125,118.21875 C 450.59945,117.73611 449.36213,117.27217 448.125,116.8125 z M 458.75,121.15625 C 458.68689,121.2292 458.63231,121.30668 458.5625,121.375 L 451.28125,128.65625 L 463,128.65625 L 463,123.15625 C 461.60359,122.47492 460.18611,121.80493 458.75,121.15625 z M 468,125.71875 L 468,128.65625 L 473.21875,128.65625 C 471.51767,127.65306 469.77685,126.66902 468,125.71875 z M 194.46875,133.65625 L 194.46875,147.9375 L 209.5,147.9375 L 209.5,133.65625 L 194.46875,133.65625 z M 214.5,133.65625 L 214.5,147.9375 L 229.3125,147.9375 L 229.3125,133.65625 L 214.5,133.65625 z M 234.3125,133.65625 L 234.3125,147.9375 L 247.8125,147.9375 C 248.24416,147.42725 248.68028,146.91058 249.125,146.40625 L 249.125,133.65625 L 234.3125,133.65625 z M 313.6875,133.65625 L 323.90625,143.375 L 323.90625,133.65625 L 313.6875,133.65625 z M 328.90625,133.65625 L 328.90625,147.9375 L 343.78125,147.9375 L 343.78125,133.65625 L 328.90625,133.65625 z M 348.78125,133.65625 L 348.78125,147.9375 L 363.65625,147.9375 L 363.65625,133.65625 L 348.78125,133.65625 z M 368.65625,133.65625 L 368.65625,147.9375 L 383.53125,147.9375 L 383.53125,133.65625 L 368.65625,133.65625 z M 388.53125,133.65625 L 388.53125,147.9375 L 403.375,147.9375 L 403.375,133.65625 L 388.53125,133.65625 z M 408.375,133.65625 L 408.375,147.9375 L 422.0625,147.9375 L 423.25,146.75 L 423.25,133.65625 L 408.375,133.65625 z M 428.25,133.65625 L 428.25,141.75 L 436.34375,133.65625 L 428.25,133.65625 z M 448.125,133.65625 L 448.125,147.9375 L 463,147.9375 L 463,133.65625 L 448.125,133.65625 z M 468,133.65625 L 468,147.9375 L 482.875,147.9375 L 482.875,134.875 C 482.28952,134.45703 481.69132,134.06758 481.09375,133.65625 L 468,133.65625 z M 492.78125,133.65625 C 498.27989,138.09464 503.20945,142.86971 507.5,147.9375 L 545.75,147.9375 L 545.75,133.65625 L 492.78125,133.65625 z M 443.125,136.8125 L 432,147.9375 L 443.125,147.9375 L 443.125,136.8125 z M 487.875,138.65625 L 487.875,147.9375 L 498.09375,147.9375 C 494.98173,144.71825 491.58238,141.60599 487.875,138.65625 z M 309.03125,138.875 L 309.03125,147.9375 L 318.5625,147.9375 L 309.03125,138.875 z M 194.46875,152.9375 L 194.46875,167.25 L 209.5,167.25 L 209.5,152.9375 L 194.46875,152.9375 z M 214.5,152.9375 L 214.5,167.25 L 229.3125,167.25 L 229.3125,152.9375 L 214.5,152.9375 z M 234.3125,152.9375 L 234.3125,167.25 L 235.375,167.25 C 237.65196,162.29983 240.485,157.50673 243.84375,152.9375 L 234.3125,152.9375 z M 309.03125,152.9375 L 309.03125,167.25 L 323.90625,167.25 L 323.90625,153.03125 L 323.8125,152.9375 L 309.03125,152.9375 z M 333.9375,152.9375 L 343.78125,162.28125 L 343.78125,152.9375 L 333.9375,152.9375 z M 348.78125,152.9375 L 348.78125,167.03125 L 349,167.25 L 363.65625,167.25 L 363.65625,152.9375 L 348.78125,152.9375 z M 368.65625,152.9375 L 368.65625,167.25 L 383.53125,167.25 L 383.53125,152.9375 L 368.65625,152.9375 z M 388.53125,152.9375 L 388.53125,167.25 L 402.78125,167.25 L 403.375,166.65625 L 403.375,152.9375 L 388.53125,152.9375 z M 408.375,152.9375 L 408.375,161.65625 L 417.0625,152.9375 L 408.375,152.9375 z M 428.25,152.9375 L 428.25,167.25 L 443.125,167.25 L 443.125,152.9375 L 428.25,152.9375 z M 448.125,152.9375 L 448.125,167.25 L 463,167.25 L 463,152.9375 L 448.125,152.9375 z M 468,152.9375 L 468,167.25 L 482.875,167.25 L 482.875,152.9375 L 468,152.9375 z M 487.875,152.9375 L 487.875,167.25 L 512.21875,167.25 C 509.65615,162.29235 506.43241,157.49827 502.625,152.9375 L 487.875,152.9375 z M 511.46875,152.9375 C 514.83241,157.50917 517.68826,162.297 519.96875,167.25 L 545.75,167.25 L 545.75,152.9375 L 511.46875,152.9375 z M 423.25,156.6875 L 412.65625,167.25 L 423.25,167.25 L 423.25,156.6875 z M 249.125,157.5625 C 246.84925,160.70597 244.83616,163.93536 243.125,167.25 L 249.125,167.25 L 249.125,157.5625 z M 328.90625,157.78125 L 328.90625,167.25 L 338.875,167.25 L 328.90625,157.78125 z M 194.46875,172.25 L 194.46875,185.65625 L 209.5,185.6875 L 209.5,172.25 L 194.46875,172.25 z M 214.5,172.25 L 214.5,185.6875 L 229.3125,185.71875 L 229.3125,172.25 L 214.5,172.25 z M 240.8125,172.25 C 238.97992,176.62764 237.64552,181.12459 236.84375,185.71875 L 249.125,185.75 L 249.125,172.25 L 240.8125,172.25 z M 309.03125,172.25 L 309.03125,185.90625 L 323.90625,185.9375 L 323.90625,172.25 L 309.03125,172.25 z M 328.90625,172.25 L 328.90625,185.9375 L 343.78125,185.96875 L 343.78125,172.25 L 328.90625,172.25 z M 354.25,172.25 L 363.65625,181.1875 L 363.65625,172.25 L 354.25,172.25 z M 368.65625,172.25 L 368.65625,186.03125 L 383.53125,186.0625 L 383.53125,172.25 L 368.65625,172.25 z M 388.53125,172.25 L 388.53125,181.5 L 397.78125,172.25 L 388.53125,172.25 z M 408.375,172.25 L 408.375,186.125 L 423.25,186.15625 L 423.25,172.25 L 408.375,172.25 z M 428.25,172.25 L 428.25,186.15625 L 443.125,186.1875 L 443.125,172.25 L 428.25,172.25 z M 448.125,172.25 L 448.125,186.1875 L 463,186.21875 L 463,172.25 L 448.125,172.25 z M 468,172.25 L 468,186.25 L 482.875,186.28125 L 482.875,172.25 L 468,172.25 z M 487.875,172.25 L 487.875,186.28125 L 518.625,186.34375 C 517.83656,181.53287 516.44894,176.8257 514.53125,172.25 L 487.875,172.25 z M 522.0625,172.25 C 523.77708,176.83483 525.01333,181.54767 525.71875,186.375 L 545.75,186.40625 L 545.75,172.25 L 522.0625,172.25 z M 550.75,172.25 L 550.75,186.4375 L 565.125,186.46875 L 565.125,172.25 L 550.75,172.25 z M 570.125,172.25 L 570.125,186.46875 L 584.46875,186.5 L 584.46875,172.25 L 570.125,172.25 z M 589.46875,174.21875 L 589.46875,186.5 L 600.65625,186.53125 L 589.46875,174.21875 z M 403.375,176.53125 L 393.84375,186.0625 L 403.375,186.09375 L 403.375,176.53125 z M 348.78125,176.6875 L 348.78125,185.96875 L 358.5625,186 L 348.78125,176.6875 z M 194.46875,190.65625 L 194.46875,204.9375 L 209.5,204.96875 L 209.5,190.6875 L 194.46875,190.65625 z M 214.5,190.6875 L 214.5,204.96875 L 229.3125,205 L 229.3125,203.03125 C 229.06322,200.70022 228.9375,198.34513 228.9375,195.96875 C 228.9375,194.21073 228.9879,192.45233 229.125,190.71875 L 214.5,190.6875 z M 236.1875,190.71875 C 236.03316,192.4603 235.9375,194.20488 235.9375,195.96875 C 235.9375,199.01456 236.16879,202.02382 236.625,205 L 249.125,205.03125 L 249.125,190.75 L 236.1875,190.71875 z M 309.03125,190.875 L 309.03125,205.15625 L 323.90625,205.1875 L 323.90625,190.90625 L 309.03125,190.875 z M 328.90625,190.9375 L 328.90625,205.21875 L 343.78125,205.25 L 343.78125,190.96875 L 328.90625,190.9375 z M 348.78125,190.96875 L 348.78125,205.25 L 363.65625,205.28125 L 363.65625,191 L 348.78125,190.96875 z M 368.65625,191.03125 L 368.65625,205.28125 L 383.53125,205.3125 L 383.53125,191.0625 L 368.65625,191.03125 z M 388.53125,191.0625 L 388.53125,205.34375 L 403.375,205.375 L 403.375,191.09375 L 388.53125,191.0625 z M 408.375,191.09375 L 408.375,205.375 L 423.25,205.40625 L 423.25,191.125 L 408.375,191.09375 z M 428.25,191.15625 L 428.25,205.4375 L 443.125,205.46875 L 443.125,191.1875 L 428.25,191.15625 z M 448.125,191.1875 L 448.125,205.46875 L 463,205.5 L 463,191.21875 L 448.125,191.1875 z M 468,191.21875 L 468,205.5 L 482.875,205.53125 L 482.875,191.25 L 468,191.21875 z M 487.875,191.28125 L 487.875,205.5625 L 518.59375,205.625 C 519.11706,202.44386 519.40625,199.23032 519.40625,195.96875 C 519.40625,194.41372 519.3391,192.88156 519.21875,191.34375 L 487.875,191.28125 z M 526.25,191.375 C 526.35513,192.89325 526.40625,194.43193 526.40625,195.96875 C 526.40625,199.24074 526.15752,202.47217 525.6875,205.65625 L 545.75,205.6875 L 545.75,191.40625 L 526.25,191.375 z M 550.75,191.40625 L 550.75,205.6875 L 565.125,205.71875 L 565.125,191.4375 L 550.75,191.40625 z M 570.125,191.4375 L 570.125,205.71875 L 584.46875,205.75 L 584.46875,191.46875 L 570.125,191.4375 z M 589.46875,191.5 L 589.46875,205.78125 L 605.4375,205.8125 L 605.4375,191.53125 L 589.46875,191.5 z M 194.46875,209.9375 L 194.46875,225.09375 L 209.5,225.09375 L 209.5,209.96875 L 194.46875,209.9375 z M 214.5,209.96875 L 214.5,225.09375 L 229.3125,225.09375 L 229.3125,210 L 214.5,209.96875 z M 237.625,210 C 238.8709,215.17672 240.78919,220.2229 243.34375,225.09375 L 249.125,225.09375 L 249.125,210.03125 L 237.625,210 z M 309.03125,210.1875 L 309.03125,225.09375 L 323.90625,225.09375 L 323.90625,210.21875 L 309.03125,210.1875 z M 328.90625,210.21875 L 328.90625,225.09375 L 342.6875,225.09375 L 343.78125,224 L 343.78125,210.25 L 328.90625,210.21875 z M 348.78125,210.25 L 348.78125,219 L 357.5,210.28125 L 348.78125,210.25 z M 368.65625,210.3125 L 368.65625,225.09375 L 383.53125,225.09375 L 383.53125,210.34375 L 368.65625,210.3125 z M 393.375,210.34375 L 403.375,220.34375 L 403.375,210.375 L 393.375,210.34375 z M 408.375,210.375 L 408.375,225.09375 L 423.25,225.09375 L 423.25,210.40625 L 408.375,210.375 z M 428.25,210.4375 L 428.25,225.09375 L 443.125,225.09375 L 443.125,210.46875 L 428.25,210.4375 z M 448.125,210.46875 L 448.125,225.09375 L 463,225.09375 L 463,210.5 L 448.125,210.46875 z M 468,210.5 L 468,225.09375 L 482.875,225.09375 L 482.875,210.53125 L 468,210.5 z M 487.875,210.5625 L 487.875,225.09375 L 512,225.09375 C 514.45406,220.42023 516.31232,215.58159 517.5625,210.625 L 487.875,210.5625 z M 524.78125,210.65625 C 523.66073,215.616 521.9369,220.41894 519.75,225.09375 L 545.75,225.09375 L 545.75,210.6875 L 524.78125,210.65625 z M 550.75,210.6875 L 550.75,225.09375 L 565.125,225.09375 L 565.125,210.71875 L 550.75,210.6875 z M 570.125,210.71875 L 570.125,225.09375 L 584.46875,225.09375 L 584.46875,210.75 L 570.125,210.71875 z M 589.46875,210.78125 L 589.46875,225.09375 L 605.4375,225.09375 L 605.4375,210.8125 L 589.46875,210.78125 z M 363.65625,214.03125 L 352.59375,225.09375 L 363.65625,225.09375 L 363.65625,214.03125 z M 388.53125,215.375 L 388.53125,225.09375 L 398.25,225.09375 L 388.53125,215.375 z M 234.3125,222.25 L 234.3125,225.09375 L 235.5625,225.09375 C 235.12271,224.15236 234.71066,223.20386 234.3125,222.25 z M 194.46875,230.09375 L 194.46875,244.40625 L 209.5,244.40625 L 209.5,230.09375 L 194.46875,230.09375 z M 214.5,230.09375 L 214.5,244.40625 L 229.3125,244.40625 L 229.3125,230.09375 L 214.5,230.09375 z M 234.3125,230.09375 L 234.3125,244.40625 L 248.15625,244.40625 C 244.26595,239.85813 240.90518,235.07665 238.125,230.09375 L 234.3125,230.09375 z M 246.25,230.09375 C 247.15691,231.5357 248.10689,232.9687 249.125,234.375 L 249.125,230.09375 L 246.25,230.09375 z M 309.03125,230.09375 L 309.03125,244.40625 L 323.375,244.40625 L 323.90625,243.875 L 323.90625,230.09375 L 309.03125,230.09375 z M 328.90625,230.09375 L 328.90625,238.875 L 337.6875,230.09375 L 328.90625,230.09375 z M 348.78125,230.09375 L 348.78125,244.40625 L 363.65625,244.40625 L 363.65625,230.09375 L 348.78125,230.09375 z M 368.65625,230.09375 L 368.65625,244.40625 L 383.53125,244.40625 L 383.53125,230.09375 L 368.65625,230.09375 z M 388.53125,230.09375 L 388.53125,244.40625 L 403.375,244.40625 L 403.375,230.21875 L 403.25,230.09375 L 388.53125,230.09375 z M 413.125,230.09375 L 423.25,240.21875 L 423.25,230.09375 L 413.125,230.09375 z M 428.25,230.09375 L 428.25,244.40625 L 443.125,244.40625 L 443.125,230.09375 L 428.25,230.09375 z M 448.125,230.09375 L 448.125,244.40625 L 463,244.40625 L 463,230.09375 L 448.125,230.09375 z M 468,230.09375 L 468,244.40625 L 482.875,244.40625 L 482.875,230.09375 L 468,230.09375 z M 487.875,230.09375 L 487.875,244.40625 L 497.71875,244.40625 C 502.14742,239.87724 505.95238,235.08271 509.09375,230.09375 L 487.875,230.09375 z M 517.21875,230.09375 C 514.43541,235.07665 511.0495,239.85813 507.15625,244.40625 L 545.75,244.40625 L 545.75,230.09375 L 517.21875,230.09375 z M 550.75,230.09375 L 550.75,244.40625 L 565.125,244.40625 L 565.125,230.09375 L 550.75,230.09375 z M 570.125,230.09375 L 570.125,244.40625 L 584.46875,244.40625 L 584.46875,230.09375 L 570.125,230.09375 z M 589.46875,230.09375 L 589.46875,244.40625 L 605.4375,244.40625 L 605.4375,230.09375 L 589.46875,230.09375 z M 343.78125,233.90625 L 333.25,244.40625 L 343.78125,244.40625 L 343.78125,233.90625 z M 408.375,235.21875 L 408.375,244.40625 L 417.5625,244.40625 L 408.375,235.21875 z M 309.03125,249.40625 L 309.03125,258.75 L 318.375,249.40625 L 309.03125,249.40625 z M 328.90625,249.40625 L 328.90625,263.6875 L 343.78125,263.6875 L 343.78125,249.40625 L 328.90625,249.40625 z M 348.78125,249.40625 L 348.78125,263.6875 L 363.65625,263.6875 L 363.65625,249.40625 L 348.78125,249.40625 z M 368.65625,249.40625 L 368.65625,263.6875 L 383.53125,263.6875 L 383.53125,249.40625 L 368.65625,249.40625 z M 388.53125,249.40625 L 388.53125,263.6875 L 403.375,263.6875 L 403.375,249.40625 L 388.53125,249.40625 z M 408.375,249.40625 L 408.375,263.6875 L 423.25,263.6875 L 423.25,250.09375 L 422.5625,249.40625 L 408.375,249.40625 z M 432.4375,249.40625 L 443.125,260.09375 L 443.125,249.40625 L 432.4375,249.40625 z M 448.125,249.40625 L 448.125,263.6875 L 463,263.6875 L 463,249.40625 L 448.125,249.40625 z M 468,249.40625 L 468,263.6875 L 472.5625,263.6875 C 474.57548,262.51507 476.53357,261.30539 478.4375,260.0625 C 479.94897,259.07581 481.43598,258.08982 482.875,257.0625 L 482.875,249.40625 L 468,249.40625 z M 487.875,249.40625 L 487.875,253.28125 C 489.46439,252.01667 490.9865,250.7221 492.46875,249.40625 L 487.875,249.40625 z M 502.59375,249.40625 C 498.19818,253.89401 493.25587,258.14169 487.875,262.0625 L 487.875,263.6875 L 545.75,263.6875 L 545.75,249.40625 L 502.59375,249.40625 z M 550.75,249.40625 L 550.75,263.6875 L 565.125,263.6875 L 565.125,249.40625 L 550.75,249.40625 z M 570.125,249.40625 L 570.125,263.6875 L 584.46875,263.6875 L 584.46875,249.40625 L 570.125,249.40625 z M 589.46875,249.40625 L 589.46875,263.6875 L 605.4375,263.6875 L 605.4375,249.40625 L 589.46875,249.40625 z M 323.90625,253.75 L 313.96875,263.6875 L 323.90625,263.6875 L 323.90625,253.75 z M 428.25,255.09375 L 428.25,263.6875 L 436.84375,263.6875 L 428.25,255.09375 z M 309.03125,268.6875 L 309.03125,275.8125 C 313.82247,277.53044 318.79224,279.07897 323.90625,280.4375 L 323.90625,268.6875 L 309.03125,268.6875 z M 328.90625,268.6875 L 328.90625,281.71875 C 333.74461,282.86683 338.71084,283.81833 343.78125,284.625 L 343.78125,268.6875 L 328.90625,268.6875 z M 348.78125,268.6875 L 348.78125,285.375 C 353.65027,286.02885 358.61797,286.52281 363.65625,286.84375 L 363.65625,268.6875 L 348.78125,268.6875 z M 368.65625,268.6875 L 368.65625,287.09375 C 371.63459,287.21524 374.63083,287.28125 377.65625,287.28125 C 379.62765,287.28125 381.57942,287.23937 383.53125,287.1875 L 383.53125,268.6875 L 368.65625,268.6875 z M 388.53125,268.6875 L 388.53125,287 C 393.56241,286.75181 398.50468,286.33005 403.375,285.75 L 403.375,268.6875 L 388.53125,268.6875 z M 408.375,268.6875 L 408.375,285.09375 C 413.44659,284.36657 418.39968,283.47387 423.25,282.40625 L 423.25,268.6875 L 408.375,268.6875 z M 428.25,268.6875 L 428.25,281.25 C 433.35835,279.98502 438.3226,278.52726 443.125,276.90625 L 443.125,268.75 C 442.98716,268.74161 442.85398,268.71209 442.71875,268.6875 L 428.25,268.6875 z M 448.125,268.6875 L 448.125,275.15625 C 453.30673,273.23258 458.26137,271.09368 463,268.78125 L 463,268.6875 L 448.125,268.6875 z"
           id="path3302"
           style="fill:#000000;fill-rule:evenodd;stroke:none;stroke-width:1px;stroke-linecap:butt;stroke-linejoin:miter;stroke-opacity:1" />
        <g
           id="g3455">
          <path
             d="M 275.05304,317.78009 L 275.05304,43.65943 M 257.80395,43.65943 L 257.80395,317.78009"
             id="path3411"
             style="fill:none;fill-rule:evenodd;stroke:#000000;stroke-width:2;stroke-linecap:butt;stroke-linejoin:miter;stroke-miterlimit:4;stroke-dasharray:none;stroke-opacity:1" />
          <path
             d="M 252.20965,53.915533 L 280.64734,53.915533"
             id="path3413"
             style="fill:none;fill-rule:evenodd;stroke:#000000;stroke-width:1px;stroke-linecap:butt;stroke-linejoin:miter;stroke-opacity:1" />
          <use
             transform="translate(0,12.913513)"
             id="use3415"
             x="0"
             y="0"
             width="800"
             height="845.50897"
             xlink:href="#path3413" />
          <use
             transform="translate(0,25.827026)"
             id="use3417"
             x="0"
             y="0"
             width="800"
             height="845.50897"
             xlink:href="#path3413" />
          <use
             transform="translate(0,38.740539)"
             id="use3419"
             x="0"
             y="0"
             width="800"
             height="845.50897"
             xlink:href="#path3413" />
          <use
             transform="translate(0,51.654052)"
             id="use3421"
             x="0"
             y="0"
             width="800"
             height="845.50897"
             xlink:href="#path3413" />
          <use
             transform="translate(0,64.567566)"
             id="use3423"
             x="0"
             y="0"
             width="800"
             height="845.50897"
             xlink:href="#path3413" />
          <use
             transform="translate(0,77.481079)"
             id="use3425"
             x="0"
             y="0"
             width="800"
             height="845.50897"
             xlink:href="#path3413" />
          <use
             transform="translate(0,90.394592)"
             id="use3427"
             x="0"
             y="0"
             width="800"
             height="845.50897"
             xlink:href="#path3413" />
          <use
             transform="translate(0,103.3081)"
             id="use3429"
             x="0"
             y="0"
             width="800"
             height="845.50897"
             xlink:href="#path3413" />
          <use
             transform="translate(0,116.22162)"
             id="use3431"
             x="0"
             y="0"
             width="800"
             height="845.50897"
             xlink:href="#path3413" />
          <use
             transform="translate(0,129.13513)"
             id="use3433"
             x="0"
             y="0"
             width="800"
             height="845.50897"
             xlink:href="#path3413" />
          <use
             transform="translate(0,142.04864)"
             id="use3435"
             x="0"
             y="0"
             width="800"
             height="845.50897"
             xlink:href="#path3413" />
          <use
             transform="translate(0,154.96216)"
             id="use3437"
             x="0"
             y="0"
             width="800"
             height="845.50897"
             xlink:href="#path3413" />
          <use
             transform="translate(0,167.87567)"
             id="use3439"
             x="0"
             y="0"
             width="800"
             height="845.50897"
             xlink:href="#path3413" />
          <use
             transform="translate(0,180.78918)"
             id="use3441"
             x="0"
             y="0"
             width="800"
             height="845.50897"
             xlink:href="#path3413" />
          <use
             transform="translate(0,193.7027)"
             id="use3443"
             x="0"
             y="0"
             width="800"
             height="845.50897"
             xlink:href="#path3413" />
          <use
             transform="translate(0,206.61621)"
             id="use3445"
             x="0"
             y="0"
             width="800"
             height="845.50897"
             xlink:href="#path3413" />
          <use
             transform="translate(0,219.52972)"
             id="use3447"
             x="0"
             y="0"
             width="800"
             height="845.50897"
             xlink:href="#path3413" />
          <use
             transform="translate(0,232.44323)"
             id="use3449"
             x="0"
             y="0"
             width="800"
             height="845.50897"
             xlink:href="#path3413" />
          <use
             transform="translate(0,245.35675)"
             id="use3451"
             x="0"
             y="0"
             width="800"
             height="845.50897"
             xlink:href="#path3413" />
          <use
             transform="translate(0,258.27025)"
             id="use3453"
             x="0"
             y="0"
             width="800"
             height="845.50897"
             xlink:href="#path3413" />
        </g>
        <path
           d="M 307.22026,317.78042 L 307.22026,43.65943 M 282.9783,43.65943 L 282.9783,317.78042"
           id="path3479"
           style="fill:none;fill-rule:evenodd;stroke:#000000;stroke-width:2;stroke-linecap:butt;stroke-linejoin:miter;stroke-miterlimit:4;stroke-dasharray:none;stroke-opacity:1" />
        <path
           d="M 294.63309,285.26339 L 294.63309,301.347 M 294.63309,253.09617 L 294.63309,269.17978 M 294.63309,220.92895 L 294.63309,237.01256 M 294.63309,188.76173 L 294.63309,204.84534 M 294.63309,156.59451 L 294.63309,172.67812 M 294.63309,124.42729 L 294.63309,140.5109 M 294.63309,92.260072 L 294.63309,108.34368 M 294.63309,60.092852 L 294.63309,76.176462"
           id="path3481"
           style="fill:none;fill-rule:evenodd;stroke:#000000;stroke-width:1px;stroke-linecap:butt;stroke-linejoin:miter;stroke-opacity:1" />
      </g>
    </g>
    <g
       id="g5476">
      <g
         id="g4166">
        <path
           d="M 752.875,677.78125 C 750.69723,680.55233 748.33254,683.17828 745.875,685.6875 C 743.41201,688.20229 740.83061,690.58724 738.125,692.84375 C 735.41939,695.10026 732.59729,697.24702 729.6875,699.25 C 738.41785,693.24233 746.32874,686.11416 752.875,677.78125 z"
           id="path3268"
           style="fill:#eac102;fill-rule:evenodd;stroke:#000000;stroke-width:2.39520955;stroke-linecap:butt;stroke-linejoin:miter;stroke-miterlimit:4;stroke-dasharray:none;stroke-opacity:1" />
        <path
           d="M 767.9375,635.3125 C 767.86067,639.25332 767.54585,643.19171 766.9375,647.0625 C 766.63252,649.00301 766.25036,650.9452 765.78125,652.84375 C 765.31214,654.7423 764.74738,656.59716 764.09375,658.4375 C 763.44012,660.27784 762.7023,662.10914 761.84375,663.875 C 760.9852,665.64086 760.02138,667.35614 758.9375,669.03125 C 765.44075,658.98057 767.71146,647.16836 767.9375,635.3125 z"
           id="path3266"
           style="fill:#eac102;fill-rule:evenodd;stroke:#000000;stroke-width:2.39520955;stroke-linecap:butt;stroke-linejoin:miter;stroke-miterlimit:4;stroke-dasharray:none;stroke-opacity:1" />
        <path
           d="M 767.3125,354.90625 L 404.53125,354.90625 L 404.53125,797.4375 C 404.57973,797.39163 404.63896,797.3583 404.6875,797.3125 C 407.80082,794.37443 411.01438,791.55334 414.34375,788.875 C 414.68024,788.60431 415.03645,788.36182 415.375,788.09375 C 416.42758,787.2603 417.55293,786.527 418.625,785.71875 C 420.67236,784.1754 422.66694,782.57711 424.78125,781.125 C 425.39036,780.70666 426.04187,780.34833 426.65625,779.9375 C 428.08589,778.98118 429.54296,778.07218 431,777.15625 C 432.59712,776.15261 434.15324,775.08048 435.78125,774.125 C 436.74174,773.56128 437.74809,773.07832 438.71875,772.53125 C 440.33803,771.61817 441.97907,770.74213 443.625,769.875 C 444.84284,769.23377 446.01853,768.52251 447.25,767.90625 C 448.44962,767.30593 449.69446,766.79554 450.90625,766.21875 C 452.86328,765.28639 454.82634,764.37151 456.8125,763.5 C 457.58973,763.15928 458.34365,762.76898 459.125,762.4375 C 460.71886,761.76132 462.35894,761.20047 463.96875,760.5625 C 465.85399,759.81467 467.72034,759.03962 469.625,758.34375 C 470.19196,758.13678 470.74397,757.8899 471.3125,757.6875 C 473.2932,756.98237 475.31458,756.4001 477.3125,755.75 C 479.27207,755.11186 481.21418,754.42942 483.1875,753.84375 C 483.3767,753.78763 483.56069,753.71189 483.75,753.65625 C 487.92463,752.42929 492.12771,751.30967 496.34375,750.3125 C 504.35742,748.23582 512.42448,746.45934 520.53125,744.90625 C 536.74479,741.80007 553.11955,739.56649 569.53125,737.59375 C 610.5605,732.66191 651.83568,729.26756 691.5625,717.40625 C 704.93107,713.26121 718.04703,707.26023 729.6875,699.25 C 732.59729,697.24702 735.41939,695.10026 738.125,692.84375 C 740.83061,690.58724 743.41201,688.20229 745.875,685.6875 C 748.33254,683.17828 750.69723,680.55233 752.875,677.78125 C 755.05709,675.00361 757.07505,672.07684 758.9375,669.03125 C 760.02138,667.35614 760.9852,665.64086 761.84375,663.875 C 762.7023,662.10914 763.44012,660.27784 764.09375,658.4375 C 764.74738,656.59716 765.31214,654.7423 765.78125,652.84375 C 766.25036,650.9452 766.63252,649.00301 766.9375,647.0625 C 767.54585,643.19171 767.86067,639.25332 767.9375,635.3125 C 768.01285,631.36055 767.85759,627.39135 767.5625,623.5 C 767.24029,533.97839 767.26217,444.4386 767.3125,354.90625 z"
           id="path3264"
           style="fill:#e3e4e5;fill-rule:evenodd;stroke:#000000;stroke-width:1;stroke-linecap:butt;stroke-linejoin:miter;stroke-miterlimit:4;stroke-dasharray:none;stroke-opacity:1" />
        <g
           id="g4147">
          <use
             transform="translate(-75.71298,0)"
             id="use4049"
             x="0"
             y="0"
             width="800"
             height="845.50897"
             xlink:href="#path3892" />
          <use
             transform="translate(-72.71298,0)"
             id="use4051"
             x="0"
             y="0"
             width="800"
             height="845.50897"
             xlink:href="#path3892" />
          <use
             transform="translate(-69.71298,0)"
             id="use4053"
             x="0"
             y="0"
             width="800"
             height="845.50897"
             xlink:href="#path3892" />
          <use
             transform="translate(-66.71298,0)"
             id="use4055"
             x="0"
             y="0"
             width="800"
             height="845.50897"
             xlink:href="#path3892" />
          <use
             transform="translate(-63.71298,0)"
             id="use4057"
             x="0"
             y="0"
             width="800"
             height="845.50897"
             xlink:href="#path3892" />
          <use
             transform="translate(-60.71298,0)"
             id="use4059"
             x="0"
             y="0"
             width="800"
             height="845.50897"
             xlink:href="#path3892" />
          <use
             transform="translate(-57.71298,0)"
             id="use4061"
             x="0"
             y="0"
             width="800"
             height="845.50897"
             xlink:href="#path3892" />
          <use
             transform="translate(-54.71298,0)"
             id="use4063"
             x="0"
             y="0"
             width="800"
             height="845.50897"
             xlink:href="#path3892" />
          <use
             transform="translate(-51.71298,0)"
             id="use4065"
             x="0"
             y="0"
             width="800"
             height="845.50897"
             xlink:href="#path3892" />
          <use
             transform="translate(-48.71298,0)"
             id="use4067"
             x="0"
             y="0"
             width="800"
             height="845.50897"
             xlink:href="#path3892" />
          <use
             transform="translate(-45.71298,0)"
             id="use4069"
             x="0"
             y="0"
             width="800"
             height="845.50897"
             xlink:href="#path3892" />
          <use
             transform="translate(-42.71298,0)"
             id="use4071"
             x="0"
             y="0"
             width="800"
             height="845.50897"
             xlink:href="#path3892" />
          <use
             transform="translate(-39.71298,0)"
             id="use4073"
             x="0"
             y="0"
             width="800"
             height="845.50897"
             xlink:href="#path3892" />
          <use
             transform="translate(-36.71298,0)"
             id="use4075"
             x="0"
             y="0"
             width="800"
             height="845.50897"
             xlink:href="#path3892" />
          <use
             transform="translate(-33.71298,0)"
             id="use4077"
             x="0"
             y="0"
             width="800"
             height="845.50897"
             xlink:href="#path3892" />
          <use
             transform="translate(-30.71298,0)"
             id="use4079"
             x="0"
             y="0"
             width="800"
             height="845.50897"
             xlink:href="#path3892" />
          <use
             transform="translate(-27.71298,0)"
             id="use4081"
             x="0"
             y="0"
             width="800"
             height="845.50897"
             xlink:href="#path3892" />
        </g>
        <g
           id="g3998">
          <path
             d="M 481.34375,409.5 L 481.34375,652.6875 L 482.34375,652.6875 L 482.34375,409.5 L 481.34375,409.5 z"
             id="path3892"
             style="fill:#000000;fill-opacity:1;fill-rule:evenodd;stroke:none;stroke-width:1px;stroke-linecap:butt;stroke-linejoin:miter;stroke-opacity:1" />
          <use
             transform="translate(3,0)"
             id="use3900"
             x="0"
             y="0"
             width="800"
             height="845.50897"
             xlink:href="#path3892" />
          <use
             transform="translate(6,0)"
             id="use3902"
             x="0"
             y="0"
             width="800"
             height="845.50897"
             xlink:href="#path3892" />
          <use
             transform="translate(9,0)"
             id="use3904"
             x="0"
             y="0"
             width="800"
             height="845.50897"
             xlink:href="#path3892" />
          <use
             transform="translate(12,0)"
             id="use3906"
             x="0"
             y="0"
             width="800"
             height="845.50897"
             xlink:href="#path3892" />
          <use
             transform="translate(15,0)"
             id="use3908"
             x="0"
             y="0"
             width="800"
             height="845.50897"
             xlink:href="#path3892" />
          <use
             transform="translate(18,0)"
             id="use3910"
             x="0"
             y="0"
             width="800"
             height="845.50897"
             xlink:href="#path3892" />
          <use
             transform="translate(21,0)"
             id="use3912"
             x="0"
             y="0"
             width="800"
             height="845.50897"
             xlink:href="#path3892" />
          <use
             transform="translate(24,0)"
             id="use3914"
             x="0"
             y="0"
             width="800"
             height="845.50897"
             xlink:href="#path3892" />
          <use
             transform="translate(27,0)"
             id="use3916"
             x="0"
             y="0"
             width="800"
             height="845.50897"
             xlink:href="#path3892" />
          <use
             transform="translate(30,0)"
             id="use3918"
             x="0"
             y="0"
             width="800"
             height="845.50897"
             xlink:href="#path3892" />
          <use
             transform="translate(33,0)"
             id="use3920"
             x="0"
             y="0"
             width="800"
             height="845.50897"
             xlink:href="#path3892" />
          <use
             transform="translate(36,0)"
             id="use3922"
             x="0"
             y="0"
             width="800"
             height="845.50897"
             xlink:href="#path3892" />
          <use
             transform="translate(39,0)"
             id="use3924"
             x="0"
             y="0"
             width="800"
             height="845.50897"
             xlink:href="#path3892" />
          <use
             transform="translate(42,0)"
             id="use3926"
             x="0"
             y="0"
             width="800"
             height="845.50897"
             xlink:href="#path3892" />
          <use
             transform="translate(45,0)"
             id="use3928"
             x="0"
             y="0"
             width="800"
             height="845.50897"
             xlink:href="#path3892" />
          <use
             transform="translate(48,0)"
             id="use3930"
             x="0"
             y="0"
             width="800"
             height="845.50897"
             xlink:href="#path3892" />
          <use
             transform="translate(51,0)"
             id="use3932"
             x="0"
             y="0"
             width="800"
             height="845.50897"
             xlink:href="#path3892" />
          <use
             transform="translate(54,0)"
             id="use3934"
             x="0"
             y="0"
             width="800"
             height="845.50897"
             xlink:href="#path3892" />
          <use
             transform="translate(57,0)"
             id="use3936"
             x="0"
             y="0"
             width="800"
             height="845.50897"
             xlink:href="#path3892" />
          <use
             transform="translate(60,0)"
             id="use3938"
             x="0"
             y="0"
             width="800"
             height="845.50897"
             xlink:href="#path3892" />
          <use
             transform="translate(63,0)"
             id="use3940"
             x="0"
             y="0"
             width="800"
             height="845.50897"
             xlink:href="#path3892" />
          <use
             transform="translate(66,0)"
             id="use3942"
             x="0"
             y="0"
             width="800"
             height="845.50897"
             xlink:href="#path3892" />
          <use
             transform="translate(69,0)"
             id="use3944"
             x="0"
             y="0"
             width="800"
             height="845.50897"
             xlink:href="#path3892" />
          <use
             transform="translate(72,0)"
             id="use3946"
             x="0"
             y="0"
             width="800"
             height="845.50897"
             xlink:href="#path3892" />
          <use
             transform="translate(75,0)"
             id="use3948"
             x="0"
             y="0"
             width="800"
             height="845.50897"
             xlink:href="#path3892" />
        </g>
        <path
           d="M 597.52518,734.21966 L 479.6896,469.39422 L 456.4519,469.46081 L 399.20022,598.53268 L 399.20022,728.3989"
           id="path3564"
           style="fill:#e3e4e5;fill-rule:evenodd;stroke:#000000;stroke-width:1px;stroke-linecap:butt;stroke-linejoin:miter;stroke-opacity:1" />
        <path
           d="M 392.53125,352.90625 L 404.53125,462.34375 C 409.83264,452.46415 414.25089,435.42485 417.40625,407.53125 C 426.24871,442.65879 445.12059,434.96046 456.90625,415.65625 L 479.375,415.65625 C 491.16065,434.96046 510.03253,442.65879 518.875,407.53125 C 526.17511,472.06492 540.24001,478.66987 556.34375,472.3125 L 559.15625,471.09375 L 564.28125,463.9375 L 564.0625,454.46875 C 582.7212,441.65048 597.69581,428.15546 611.0625,414.375 C 623.00149,402.06644 633.67073,389.52453 644.25,376.96875 L 664.96875,375.15625 C 674.79024,388.93787 691.56247,401.18745 708.9375,410.71875 C 732.56997,423.68265 757.3097,431.50239 767.28125,430.09375 C 767.28396,405.03325 767.29841,377.96614 767.3125,352.90625 L 392.53125,352.90625 z"
           id="path3614"
           style="fill:#0071bc;fill-rule:evenodd;stroke:none;stroke-width:1;stroke-linecap:butt;stroke-linejoin:miter;stroke-miterlimit:4;stroke-dasharray:none;stroke-opacity:1" />
        <path
           d="M 708.9375,410.71875 C 708.83909,410.71967 708.75773,410.75 708.65625,410.75 C 705.87706,410.75 702.54985,411.65624 700.5625,411.65625 C 699.14196,411.65625 697.5121,411.73221 696.15625,412.15625 C 695.47832,412.36827 694.86298,412.66146 694.375,413.09375 C 693.88702,413.52604 693.52594,414.08376 693.34375,414.8125 C 693.10825,415.75448 692.68173,416.43046 692.09375,416.875 C 691.50577,417.31954 690.76421,417.52989 689.9375,417.53125 C 689.11079,417.53261 688.20168,417.32504 687.25,416.9375 C 686.29832,416.54996 685.30664,415.97217 684.34375,415.25 C 683.03621,414.26934 681.73795,413.61812 680.34375,413.1875 C 678.94955,412.75688 677.45681,412.5625 675.78125,412.5625 C 672.86536,412.4575 670.02997,412.66965 667.28125,413 C 664.53253,413.33035 661.87689,413.77367 659.3125,414.125 C 656.74811,414.47633 654.26916,414.72955 651.90625,414.6875 C 650.7248,414.66647 649.56537,414.57206 648.4375,414.375 C 647.30963,414.17794 646.22838,413.89365 645.15625,413.46875 C 642.26467,412.7007 639.53414,411.31521 636.8125,410.53125 C 635.45168,410.13927 634.10073,409.87387 632.71875,409.9375 C 632.02776,409.96932 631.32924,410.07808 630.625,410.28125 C 629.92076,410.48442 629.19153,410.80593 628.46875,411.21875 C 627.41914,411.63859 626.55536,412.14418 625.75,412.6875 C 624.94464,413.23082 624.2113,413.79799 623.46875,414.3125 C 622.7262,414.82701 621.95491,415.2916 621.09375,415.625 C 620.23259,415.9584 619.2862,416.15625 618.125,416.15625 C 617.31638,416.15625 616.44882,415.99235 615.59375,415.75 C 614.73868,415.50765 613.89615,415.19023 613.0625,414.90625 C 612.37084,414.67064 611.69669,414.51287 611.0625,414.375 C 597.69581,428.15546 582.7212,441.65048 564.0625,454.46875 L 564.96875,492.75 L 771.28125,500.40625 L 769.03125,429.6875 C 760.51528,432.4688 734.09332,424.5183 708.9375,410.71875 z"
           id="path3548"
           style="fill:#ed1c24;fill-rule:evenodd;stroke:#000000;stroke-width:1px;stroke-linecap:butt;stroke-linejoin:miter;stroke-opacity:1" />
        <path
           d="M 585.78947,482.83934 L 775.34714,482.83934 L 774.56607,631.21021 L 585.78947,482.83934 z"
           id="path3554"
           style="fill:#008f4c;fill-rule:evenodd;stroke:#000000;stroke-width:1px;stroke-linecap:butt;stroke-linejoin:miter;stroke-opacity:1" />
        <path
           d="M 664.96875,375.15625 L 644.25,376.96875 C 633.67073,389.52453 623.00149,402.06644 611.0625,414.375 C 611.69669,414.51287 612.37084,414.67064 613.0625,414.90625 C 613.89615,415.19023 614.73868,415.50765 615.59375,415.75 C 616.44882,415.99235 617.31638,416.15625 618.125,416.15625 C 619.2862,416.15625 620.23259,415.9584 621.09375,415.625 C 621.95491,415.2916 622.7262,414.82701 623.46875,414.3125 C 624.2113,413.79799 624.94464,413.23082 625.75,412.6875 C 626.55536,412.14418 627.41914,411.63859 628.46875,411.21875 C 629.19153,410.80593 629.92076,410.48442 630.625,410.28125 C 631.32924,410.07808 632.02776,409.96932 632.71875,409.9375 C 634.10073,409.87387 635.45168,410.13927 636.8125,410.53125 C 639.53414,411.31521 642.26467,412.7007 645.15625,413.46875 C 646.22838,413.89365 647.30963,414.17794 648.4375,414.375 C 649.56537,414.57206 650.7248,414.66647 651.90625,414.6875 C 654.26916,414.72955 656.74811,414.47633 659.3125,414.125 C 661.87689,413.77367 664.53253,413.33035 667.28125,413 C 670.02997,412.66965 672.86536,412.4575 675.78125,412.5625 C 677.45681,412.5625 678.94955,412.75688 680.34375,413.1875 C 681.73795,413.61812 683.03621,414.26934 684.34375,415.25 C 685.30664,415.97217 686.29832,416.54996 687.25,416.9375 C 688.20168,417.32504 689.11079,417.53261 689.9375,417.53125 C 690.76421,417.52989 691.50577,417.31954 692.09375,416.875 C 692.68173,416.43046 693.10825,415.75448 693.34375,414.8125 C 693.52594,414.08376 693.88702,413.52604 694.375,413.09375 C 694.86298,412.66146 695.47832,412.36827 696.15625,412.15625 C 697.5121,411.73221 699.14196,411.65625 700.5625,411.65625 C 702.54985,411.65624 705.87706,410.75 708.65625,410.75 C 708.75773,410.75 708.83909,410.71967 708.9375,410.71875 C 691.56247,401.18745 674.79024,388.93787 664.96875,375.15625 z"
           id="path3540"
           style="fill:#e3e4e5;fill-rule:evenodd;stroke:#000000;stroke-width:1px;stroke-linecap:butt;stroke-linejoin:miter;stroke-opacity:1" />
        <path
           d="M 570.81047,471.5763 L 771.74297,627.45667 C 778.8212,657.84481 760.62741,666.32049 751.14957,682.10033 L 564.50317,496.35497 L 570.81047,471.5763 z"
           id="path3550"
           style="fill:#e3e4e5;fill-rule:evenodd;stroke:#000000;stroke-width:1px;stroke-linecap:butt;stroke-linejoin:miter;stroke-opacity:1" />
        <path
           d="M 567.65682,483.28986 L 766.17674,662.92788"
           id="path3552"
           style="fill:none;fill-rule:evenodd;stroke:#000000;stroke-width:1;stroke-linecap:butt;stroke-linejoin:miter;stroke-miterlimit:4;stroke-dasharray:4, 8;stroke-dashoffset:0;stroke-opacity:1" />
        <path
           d="M 697.875,671.34375 C 696.83812,672.82185 695.78751,674.46548 694.71875,676.5 C 693.44913,678.91689 692.18134,681.65525 690.96875,684.65625 C 689.75616,687.65725 688.60727,690.91454 687.5625,694.28125 C 686.51773,697.64796 685.57868,701.14221 684.8125,704.65625 C 684.04632,708.17029 683.4393,711.68203 683.0625,715.125 C 682.69513,718.48177 682.54951,721.75952 682.65625,724.84375 L 711.65625,721.59375 L 722.9375,704.59375 C 717.79171,696.96791 708.31225,678.58213 697.875,671.34375 z"
           id="path3623"
           style="fill:none;fill-rule:evenodd;stroke:#000000;stroke-width:1px;stroke-linecap:butt;stroke-linejoin:miter;stroke-opacity:1" />
        <path
           d="M 662.78125,726.75 C 668.12126,725.39612 683.47811,725.11221 682.65625,724.84375 C 682.54951,721.75952 682.69513,718.48177 683.0625,715.125 C 683.4393,711.68203 684.04632,708.17029 684.8125,704.65625 C 685.57868,701.14221 686.51773,697.64796 687.5625,694.28125 C 688.60727,690.91454 689.75616,687.65725 690.96875,684.65625 C 692.18134,681.65525 693.44913,678.91689 694.71875,676.5 C 695.78751,674.46548 696.83812,672.82185 697.875,671.34375 C 685.73277,662.92294 672.28894,669.64106 662.78125,726.75 z"
           id="path3629"
           style="fill:#000000;fill-rule:evenodd;stroke:#000000;stroke-width:1px;stroke-linecap:butt;stroke-linejoin:miter;stroke-opacity:1" />
        <path
           d="M 617.78125,732.09375 L 642,727.9375 C 643.58057,707.89011 642.95489,686.4016 640.71875,666.375 C 638.44237,666.57605 636.54652,666.73261 633.4375,667.09375 C 628.4073,667.67805 622.51675,668.50041 616.53125,669.71875 C 613.5385,670.32792 610.54158,671.02625 607.59375,671.84375 C 604.64592,672.66125 601.77625,673.59721 599.0625,674.65625 C 596.34875,675.71529 593.79051,676.9162 591.5,678.25 C 590.08042,679.07664 588.97941,680.05749 587.78125,681 L 617.78125,732.09375 z"
           id="path3619"
           style="fill:none;fill-rule:evenodd;stroke:#000000;stroke-width:1px;stroke-linecap:butt;stroke-linejoin:miter;stroke-opacity:1" />
        <path
           d="M 607.09375,589.4375 C 596.16132,590.49366 583.54216,608.14784 570.375,651.34375 L 587.78125,681 C 588.97941,680.05749 590.08042,679.07664 591.5,678.25 C 593.79051,676.9162 596.34875,675.71529 599.0625,674.65625 C 601.77625,673.59721 604.64592,672.66125 607.59375,671.84375 C 610.54158,671.02625 613.5385,670.32792 616.53125,669.71875 C 622.51675,668.50041 628.4073,667.67805 633.4375,667.09375 C 636.54652,666.73261 638.44237,666.57605 640.71875,666.375 C 635.9433,623.60671 623.47462,587.85498 607.09375,589.4375 z"
           id="path3556"
           style="fill:#000000;fill-rule:evenodd;stroke:#000000;stroke-width:1px;stroke-linecap:butt;stroke-linejoin:miter;stroke-opacity:1" />
        <path
           d="M 559.24188,364.19946 L 570.15821,364.19946 L 570.15821,650.93863 L 560.58168,650.93863 L 559.24188,648.18649 L 559.24188,364.19946 z"
           id="rect3562"
           style="fill:#e3e4e5;fill-opacity:1;fill-rule:nonzero;stroke:#000000;stroke-width:1;stroke-linecap:round;stroke-linejoin:bevel;stroke-miterlimit:4;stroke-dashoffset:0;stroke-opacity:1" />
        <path
           d="M 456.32458,469.24926 L 456.52829,415.67249 L 479.74641,415.67249 L 479.95012,469.24926 L 456.32458,469.24926 z"
           id="path3568"
           style="fill:none;fill-rule:evenodd;stroke:#000000;stroke-width:1px;stroke-linecap:butt;stroke-linejoin:miter;stroke-opacity:1" />
        <path
           d="M 479.37032,415.65094 C 491.15598,434.95515 510.01702,442.65147 518.85949,407.52393 C 526.15961,472.0576 540.23912,478.66234 556.34286,472.30497 L 559.15928,471.10727"
           id="path3574"
           style="fill:none;fill-rule:evenodd;stroke:#000000;stroke-width:1px;stroke-linecap:butt;stroke-linejoin:miter;stroke-opacity:1" />
        <rect
           width="125.92935"
           height="10.596274"
           rx="6.9262753"
           ry="4.4817076"
           x="395.57843"
           y="398.00113"
           id="rect3576"
           style="opacity:1;fill:#e3e4e5;fill-opacity:1;fill-rule:nonzero;stroke:#000000;stroke-width:1;stroke-linecap:round;stroke-linejoin:bevel;stroke-miterlimit:4;stroke-dasharray:none;stroke-dashoffset:0;stroke-opacity:1" />
      </g>
      <path
         d="M 483.28125,471.59375 C 483.12208,471.58381 482.97624,471.60338 482.8125,471.625 C 482.1063,471.7123 481.46816,472.07163 481.0625,472.65625 C 480.65685,473.24088 480.52211,473.99541 480.6875,474.6875 L 480.96875,475.9375 L 466.75,475.9375 L 467.03125,474.6875 C 467.21999,473.8942 467.01011,473.04731 466.46875,472.4375 C 465.92739,471.8277 465.12257,471.53159 464.3125,471.625 C 463.22418,471.74101 462.33782,472.5514 462.125,473.625 L 461.625,475.96875 C 461.05165,476.0694 460.54971,476.39275 460.25,476.90625 C 459.88638,477.52925 459.88639,478.31451 460.25,478.9375 C 460.40539,479.20375 460.62741,479.39672 460.875,479.5625 L 455.40625,505.1875 C 455.07602,505.59545 454.875,506.12176 454.875,506.6875 C 454.875,506.91081 454.91113,507.10761 454.96875,507.3125 L 452.40625,519.25 C 452.35415,519.2497 452.30205,519.24727 452.25,519.25 C 450.76573,519.32766 449.60983,520.57823 449.6875,522.0625 C 449.74269,523.11727 450.40515,524.01255 451.3125,524.40625 L 449.09375,534.8125 L 447.78125,534.8125 C 447.68755,534.80804 447.5937,534.80805 447.5,534.8125 C 445.8604,534.89016 444.57858,536.26666 444.65625,537.90625 C 444.73392,539.54584 446.14165,540.82766 447.78125,540.75 L 447.8125,540.75 L 445.625,550.9375 L 443.03125,550.9375 C 442.92714,550.93244 442.82286,550.93245 442.71875,550.9375 C 440.99559,551.09181 439.69736,552.55323 439.78125,554.28125 C 439.86513,556.0093 441.30125,557.38831 443.03125,557.375 L 444.25,557.375 L 442.0625,567.5625 L 438.3125,567.5625 C 438.19799,567.5568 438.08326,567.55681 437.96875,567.5625 C 436.05301,567.65741 434.56132,569.27177 434.65625,571.1875 C 434.75118,573.10323 436.39676,574.59492 438.3125,574.5 L 440.59375,574.5 L 438.40625,584.6875 L 433.5625,584.6875 C 433.43758,584.68113 433.31242,584.68114 433.1875,584.6875 C 431.15095,584.79104 429.58395,586.52595 429.6875,588.5625 C 429.79105,590.59904 431.52595,592.16605 433.5625,592.0625 L 436.84375,592.0625 L 434.65625,602.25 L 428.8125,602.25 C 428.68757,602.24398 428.56243,602.24399 428.4375,602.25 C 426.36152,602.44418 424.80588,604.22988 424.90625,606.3125 C 425.00661,608.39514 426.72747,610.03759 428.8125,610.03125 L 433,610.03125 L 430.84375,620.21875 L 424.09375,620.21875 C 422.58084,620.14072 421.15488,620.88874 420.375,622.1875 C 419.59512,623.48628 419.59511,625.10749 420.375,626.40625 C 421.15489,627.70503 422.58084,628.48427 424.09375,628.40625 L 429.09375,628.40625 L 426.90625,638.59375 L 419.34375,638.59375 C 416.97065,638.59374 415.03125,640.5019 415.03125,642.875 C 415.03125,645.24809 416.97065,647.1875 419.34375,647.1875 L 425.09375,647.1875 L 422.90625,657.375 L 414.59375,657.375 C 414.448,657.36785 414.302,657.36786 414.15625,657.375 C 411.68823,657.4958 409.78544,659.59448 409.90625,662.0625 C 410.02706,664.53051 412.12573,666.43331 414.59375,666.3125 L 421,666.3125 L 418.84375,676.5 L 409.84375,676.5 C 407.27217,676.49999 405.1875,678.58467 405.1875,681.15625 C 405.1875,683.72782 407.27217,685.8125 409.84375,685.8125 L 416.84375,685.8125 L 414.6875,696 L 405.125,696 C 404.95845,695.99133 404.79155,695.99134 404.625,696 C 401.96713,696.13806 399.92443,698.40463 400.0625,701.0625 C 400.20057,703.72036 402.46713,705.76307 405.125,705.625 L 412.625,705.625 L 410.46875,715.8125 L 400.375,715.8125 C 400.20844,715.80412 400.04156,715.80413 399.875,715.8125 C 397.12221,715.95056 394.98692,718.27846 395.125,721.03125 C 395.26308,723.78404 397.62221,725.91932 400.375,725.78125 L 408.34375,725.78125 L 406.15625,735.96875 L 395.625,735.96875 C 395.45843,735.96063 395.29157,735.96064 395.125,735.96875 C 392.40938,736.24896 390.39824,738.5857 390.53125,741.3125 C 390.66427,744.03931 392.89499,746.20417 395.625,746.21875 L 403.96875,746.21875 L 403.90625,746.53125 C 403.62148,747.88606 404.48893,749.21523 405.84375,749.5 C 407.19857,749.78476 408.52773,748.91732 408.8125,747.5625 L 409.09375,746.21875 L 538.625,746.21875 L 538.90625,747.5625 C 539.19099,748.91731 540.52018,749.78477 541.875,749.5 C 543.22979,749.21522 544.09727,747.88607 543.8125,746.53125 L 543.75,746.21875 L 552.0625,746.21875 C 553.9826,746.35875 555.80971,745.39345 556.8125,743.75 C 557.81529,742.10654 557.81528,740.0497 556.8125,738.40625 C 555.80972,736.7628 553.98263,735.82874 552.0625,735.96875 L 541.5625,735.96875 L 539.375,725.78125 L 547.34375,725.78125 C 550.09651,725.78124 552.3125,723.53405 552.3125,720.78125 C 552.31248,718.02845 550.09654,715.8125 547.34375,715.8125 L 537.25,715.8125 L 535.09375,705.625 L 542.59375,705.625 C 544.36336,705.70255 546.02953,704.80218 546.9375,703.28125 C 547.84546,701.76034 547.84547,699.86469 546.9375,698.34375 C 546.02952,696.82284 544.36339,695.92244 542.59375,696 L 533.03125,696 L 530.875,685.8125 L 537.84375,685.8125 C 540.4153,685.81249 542.5,683.72783 542.5,681.15625 C 542.49997,678.58466 540.41533,676.5 537.84375,676.5 L 528.875,676.5 L 526.71875,666.3125 L 533.125,666.3125 C 534.76565,666.38046 536.31566,665.53562 537.15625,664.125 C 537.99686,662.71435 537.99684,660.94188 537.15625,659.53125 C 536.31568,658.12063 534.76568,657.30703 533.125,657.375 L 524.8125,657.375 L 522.625,647.1875 L 528.375,647.1875 C 530.74807,647.18749 532.65625,645.24809 532.65625,642.875 C 532.65623,640.5019 530.7481,638.59375 528.375,638.59375 L 520.8125,638.59375 L 518.625,628.40625 L 523.625,628.40625 C 525.13788,628.48426 526.56387,627.70501 527.34375,626.40625 C 528.12366,625.10751 528.12364,623.48626 527.34375,622.1875 C 526.56389,620.88876 525.13791,620.14073 523.625,620.21875 L 516.875,620.21875 L 514.71875,610.03125 L 518.90625,610.03125 C 520.35752,610.12713 521.74525,609.39956 522.5,608.15625 C 523.25473,606.91295 523.25476,605.33706 522.5,604.09375 C 521.74522,602.85041 520.35755,602.15411 518.90625,602.25 L 513.0625,602.25 L 510.875,592.0625 L 514.15625,592.0625 C 515.4906,592.08824 516.73151,591.37025 517.40625,590.21875 C 518.08096,589.06727 518.08098,587.65151 517.40625,586.5 C 516.73149,585.34852 515.49063,584.66175 514.15625,584.6875 L 509.3125,584.6875 L 507.125,574.5 L 509.40625,574.5 C 511.32199,574.49999 512.875,572.94699 512.875,571.03125 C 512.87497,569.1155 511.32199,567.5625 509.40625,567.5625 L 505.65625,567.5625 L 503.46875,557.375 L 504.65625,557.375 C 505.85493,557.45106 507.00262,556.83975 507.625,555.8125 C 508.24739,554.78523 508.24739,553.49601 507.625,552.46875 C 507.00262,551.4415 505.85493,550.86143 504.65625,550.9375 L 502.09375,550.9375 L 499.90625,540.75 L 499.9375,540.75 C 501.5771,540.74999 502.90625,539.42085 502.90625,537.78125 C 502.90625,536.14164 501.5771,534.8125 499.9375,534.8125 L 498.65625,534.8125 L 496.40625,524.3125 C 497.2705,523.8657 497.875,522.97752 497.875,521.9375 C 497.875,520.49673 496.7365,519.3177 495.3125,519.25 L 492.75,507.15625 C 492.78164,507.00164 492.8125,506.85146 492.8125,506.6875 C 492.8125,506.14692 492.61666,505.64917 492.3125,505.25 L 486.84375,479.5625 C 487.09134,479.39672 487.31335,479.20375 487.46875,478.9375 C 487.83237,478.31451 487.83236,477.52924 487.46875,476.90625 C 487.16905,476.39276 486.66711,476.06941 486.09375,475.96875 L 485.59375,473.625 C 485.37239,472.49027 484.39545,471.66332 483.28125,471.59375 z M 465.90625,479.9375 L 481.8125,479.9375 L 484,490.125 L 463.71875,490.125 L 465.90625,479.9375 z M 462.875,494.125 L 484.84375,494.125 L 487.03125,504.3125 L 460.6875,504.3125 L 462.875,494.125 z M 459.6875,509.0625 L 488.03125,509.0625 L 490.21875,519.25 L 457.5,519.25 L 459.6875,509.0625 z M 456.375,524.625 L 491.34375,524.625 L 493.53125,534.8125 L 454.1875,534.8125 L 456.375,524.625 z M 452.9375,540.75 L 494.78125,540.75 L 496.96875,550.9375 L 450.75,550.9375 L 452.9375,540.75 z M 449.375,557.375 L 498.34375,557.375 L 500.53125,567.5625 L 447.1875,567.5625 L 449.375,557.375 z M 445.71875,574.5 L 502,574.5 L 504.1875,584.6875 L 443.53125,584.6875 L 445.71875,574.5 z M 441.96875,592.0625 L 505.75,592.0625 L 507.9375,602.25 L 439.78125,602.25 L 441.96875,592.0625 z M 438.125,610.03125 L 509.59375,610.03125 L 511.75,620.21875 L 435.96875,620.21875 L 438.125,610.03125 z M 434.21875,628.40625 L 513.5,628.40625 L 515.6875,638.59375 L 432.03125,638.59375 L 434.21875,628.40625 z M 430.21875,647.1875 L 517.5,647.1875 L 519.6875,657.375 L 428.03125,657.375 L 430.21875,647.1875 z M 426.125,666.3125 L 521.59375,666.3125 L 523.75,676.5 L 423.96875,676.5 L 426.125,666.3125 z M 421.96875,685.8125 L 525.75,685.8125 L 527.90625,696 L 419.8125,696 L 421.96875,685.8125 z M 417.75,705.625 L 529.96875,705.625 L 532.125,715.8125 L 415.59375,715.8125 L 417.75,705.625 z M 413.46875,725.78125 L 534.25,725.78125 L 536.4375,735.96875 L 411.28125,735.96875 L 413.46875,725.78125 z M 395.09375,756.40625 C 392.50156,756.6695 390.46875,758.86961 390.46875,761.53125 C 390.46875,764.37033 392.78591,766.6875 395.625,766.6875 L 503.53125,766.6875 C 506.37034,766.68749 508.65625,764.37034 508.65625,761.53125 C 508.65626,758.69216 506.37034,756.40625 503.53125,756.40625 L 395.625,756.40625 C 395.44756,756.40625 395.26656,756.3887 395.09375,756.40625 z M 395.09375,776.875 C 392.50156,777.13825 390.46875,779.33835 390.46875,782 C 390.46875,784.83908 392.78591,787.15625 395.625,787.15625 L 447.84375,787.15625 C 450.68284,787.15624 452.96875,784.83908 452.96875,782 C 452.96876,779.16091 450.68284,776.875 447.84375,776.875 L 395.625,776.875 C 395.44756,776.875 395.26656,776.85745 395.09375,776.875 z"
         transform="translate(-5.7157919,-4.7052539)"
         id="path3566"
         style="fill:#000000;fill-opacity:1;fill-rule:evenodd;stroke:none;stroke-width:5;stroke-linecap:round;stroke-linejoin:miter;stroke-miterlimit:4;stroke-dasharray:none;stroke-opacity:1" />
      <path
         d="M 456.90438,415.65094 C 445.11872,434.95515 426.25768,442.65147 417.41521,407.52393 C 411.47548,460.03166 401.04762,474.18905 388.69304,474.21769"
         id="path3592"
         style="fill:none;fill-rule:evenodd;stroke:#000000;stroke-width:1px;stroke-linecap:butt;stroke-linejoin:miter;stroke-opacity:1" />
    </g>
    <g
       id="g5564">
      <path
         d="M 384.53125,797.78125 L 384.53125,354.90625 L 21.25,354.90625 C 21.242516,451.51061 21.208052,548.11505 21.09375,644.71875 C 21.425597,647.44652 21.955021,650.10828 22.65625,652.71875 C 24.058708,657.93969 26.175317,662.91816 28.8125,667.625 C 35.405458,679.39209 45.355882,689.47575 56.125,697.375 C 80.656999,715.24852 110.92811,722.43005 140.40625,727.40625 C 175.28896,733.29207 210.82545,735.87223 245.84375,741.125 C 259.85107,743.22611 273.76481,745.74803 287.53125,749.09375 C 294.41447,750.76661 301.26763,752.65304 308.0625,754.78125 C 311.5696,755.87178 315.06409,757.05562 318.53125,758.3125 C 318.74224,758.38899 318.94544,758.48539 319.15625,758.5625 C 320.57043,759.07989 321.96983,759.64185 323.375,760.1875 C 325.20073,760.89637 327.03572,761.55539 328.84375,762.3125 C 329.43197,762.55882 330.00759,762.84228 330.59375,763.09375 C 332.19285,763.77973 333.76135,764.5254 335.34375,765.25 C 336.5461,765.80053 337.77703,766.30196 338.96875,766.875 C 339.63763,767.19663 340.27218,767.57748 340.9375,767.90625 C 342.78728,768.82043 344.61743,769.74889 346.4375,770.71875 C 347.22382,771.13769 348.03216,771.50807 348.8125,771.9375 C 349.85296,772.51007 350.84571,773.15867 351.875,773.75 C 353.49244,774.67935 355.0996,775.61763 356.6875,776.59375 C 357.23234,776.92862 357.80258,777.22208 358.34375,777.5625 C 359.93874,778.56581 361.46977,779.66689 363.03125,780.71875 C 364.15179,781.4736 365.30407,782.18865 366.40625,782.96875 C 366.77373,783.22884 367.16588,783.45584 367.53125,783.71875 C 369.56141,785.1796 371.50713,786.76378 373.46875,788.3125 C 374.39642,789.04504 375.36988,789.71634 376.28125,790.46875 C 379.1151,792.81135 381.84978,795.26669 384.53125,797.78125 z"
         id="path3284"
         style="fill:#0071bc;fill-rule:evenodd;stroke:#000000;stroke-width:1;stroke-linecap:butt;stroke-linejoin:miter;stroke-miterlimit:4;stroke-dasharray:none;stroke-opacity:1" />
      <path
         d="M 123.1875,516.53125 C 108.22272,517.74022 90.679397,527.66838 71.59375,549.15625 L 73.84375,551.15625 C 98.891956,522.95535 120.33058,515.74791 136.3125,520.96875 C 152.29442,526.18959 163.50019,544.19684 167.34375,567.90625 C 175.02114,615.26502 153.18014,684.38523 84.40625,714.625 C 84.186853,714.625 83.969422,714.62499 83.75,714.625 L 83.75,717.625 C 84.084246,717.62498 84.4157,717.625 84.75,717.625 L 85.0625,717.625 L 85.34375,717.5 C 155.65319,686.73928 178.21734,616.16808 170.3125,567.40625 C 166.36008,543.02533 154.75657,523.84389 137.25,518.125 C 132.87336,516.69528 128.17576,516.12826 123.1875,516.53125 z"
         id="path4331"
         style="fill:#008f4c;fill-opacity:1;fill-rule:evenodd;stroke:#000000;stroke-width:1;stroke-linecap:butt;stroke-linejoin:miter;stroke-miterlimit:4;stroke-dasharray:none;stroke-opacity:1" />
      <path
         d="M 125.03125,383.8125 C 106.96848,384.58789 87.766631,388.26127 67.71875,394.78125 L 68.65625,397.625 C 121.53195,380.42874 167.89113,383.32911 202.84375,406.9375 C 237.79637,430.54589 261.5592,475.03418 268.78125,541.78125 L 271.78125,541.46875 C 264.49871,474.16256 240.41044,428.67173 204.53125,404.4375 C 182.10676,389.2911 155.13586,382.52019 125.03125,383.8125 z"
         id="path4333"
         style="fill:#008f4c;fill-opacity:1;fill-rule:evenodd;stroke:#000000;stroke-width:1;stroke-linecap:butt;stroke-linejoin:miter;stroke-miterlimit:4;stroke-dasharray:none;stroke-opacity:1" />
      <path
         d="M 77.223266,394.20417 C 60.986452,385.80453 53.513595,396.47962 41.620332,407.24186 C 52.29507,408.4924 75.344372,408.51343 77.223266,394.20417 z"
         id="path4339"
         style="fill:#008f4c;fill-rule:evenodd;stroke:#000000;stroke-width:1px;stroke-linecap:butt;stroke-linejoin:miter;stroke-opacity:1" />
      <path
         d="M 71.104012,594.70573 L 52.681609,622.82413 C 60.555972,647.86478 71.27911,641.55842 83.385614,626.70254 L 71.104012,594.70573 z"
         id="path4351"
         style="fill:#ed1c24;fill-rule:evenodd;stroke:#000000;stroke-width:1px;stroke-linecap:butt;stroke-linejoin:miter;stroke-opacity:1" />
      <path
         d="M 23.270404,629.28814 C 76.107952,643.29374 75.081661,559.90182 76.598413,546.54892 C 31.810715,545.24964 81.101626,594.99201 23.270404,629.28814 z"
         id="path4349"
         style="fill:#ed1c24;fill-rule:evenodd;stroke:#000000;stroke-width:1px;stroke-linecap:butt;stroke-linejoin:miter;stroke-opacity:1" />
      <path
         d="M 109.77293,637.81519 C 55.237068,641.5304 72.083339,559.85134 73.130317,546.45341 C 117.34954,553.68433 59.508258,593.15943 109.77293,637.81519 z"
         id="path4353"
         style="fill:#ed1c24;fill-rule:evenodd;stroke:#000000;stroke-width:1px;stroke-linecap:butt;stroke-linejoin:miter;stroke-opacity:1" />
      <path
         d="M 86.750812,538.12026 C 70.180233,537.58973 63.018592,536.62986 51.649328,550.6565 C 64.314047,551.51032 83.152695,554.11471 86.750812,538.12026 z"
         id="path4337"
         style="fill:#008f4c;fill-rule:evenodd;stroke:#000000;stroke-width:1px;stroke-linecap:butt;stroke-linejoin:miter;stroke-opacity:1" />
      <path
         d="M 246.79848,424.10452 C 198.08752,427.27104 201.76348,463.6835 218.1521,498.24804 C 191.65046,470.23009 157.83333,453.52769 138.0579,496.58537 C 136.17427,507.05663 139.72126,519.66993 151.30319,532.1904 C 135.83897,539.3849 127.7806,549.68102 125.55352,560.08464 C 128.71932,608.78432 165.13963,605.10996 199.69704,588.73102 C 171.68253,615.23185 155.01633,649.02652 198.07107,668.80059 C 208.54232,670.68421 221.12497,667.1312 233.64545,655.54927 C 240.83993,671.01348 251.16672,679.0779 261.57034,681.30497 C 310.29512,678.13753 306.5926,641.69803 290.19209,607.12475 C 316.69739,635.15826 350.49877,651.88896 370.28026,608.81808 C 372.16389,598.34683 368.6169,585.73353 357.03497,573.21305 C 372.4992,566.01857 380.55756,555.72243 382.78464,545.31882 C 379.61884,496.6191 343.19853,500.29348 308.64112,516.67244 C 336.65563,490.17159 353.35249,456.38297 310.29775,436.6089 C 299.82649,434.72526 287.21319,438.27226 274.69271,449.85419 C 267.49822,434.38995 257.2021,426.33159 246.79848,424.10452 z"
         id="path4329"
         style="fill:#008f4c;fill-rule:evenodd;stroke:#000000;stroke-width:1px;stroke-linecap:butt;stroke-linejoin:miter;stroke-opacity:1" />
      <g
         id="g5330">
        <path
           d="M 257.65832,558.5197 C 256.86048,558.94274 256.26113,559.65946 255.99456,560.50924 C 255.72801,561.359 255.81656,562.27073 256.24038,563.04006 L 351.70908,743.08257 C 352.24772,744.13508 353.32707,744.80742 354.53382,744.84214 C 355.74054,744.87685 356.88772,744.26855 357.53605,743.25019 C 358.18438,742.2318 358.23343,740.96112 357.66441,739.92472 L 262.19571,559.88221 C 261.79667,559.09974 261.09165,558.5149 260.23869,558.25876 C 259.38571,558.00263 258.45615,558.09662 257.65832,558.5197 z"
           id="path24434"
           style="fill:#eac102;fill-opacity:1;fill-rule:evenodd;stroke:#000000;stroke-width:1;stroke-linecap:round;stroke-linejoin:miter;stroke-miterlimit:4;stroke-dasharray:none;stroke-opacity:1" />
        <path
           d="M 217.14963,482.05495 L 219.11009,485.86499 C 233.31573,516.74748 215.05904,539.57484 258.22575,559.51959 C 265.93571,512.59716 236.79666,514.90169 219.2035,485.81546 L 217.14963,482.05495 z"
           id="path6006"
           style="fill:#eac102;fill-rule:evenodd;stroke:#000000;stroke-width:1;stroke-linecap:butt;stroke-linejoin:miter;stroke-miterlimit:4;stroke-dasharray:none;stroke-opacity:1" />
        <g
           transform="matrix(1.4888325,-0.7894631,0.8984863,1.6944372,-380.6603,217.72361)"
           id="g24594"
           style="stroke-width:0.556238;stroke-miterlimit:4;stroke-dasharray:none">
          <path
             d="M 221.02205,283.34699 C 229.21933,307.24237 242.67761,297.6204 238.81712,327.33182 C 235.58766,325.59019 234.54162,319.6919 232.35426,318.02472 C 217.89437,303.92874 225.39952,295.5642 221.02205,283.34699 z"
             id="path34894"
             style="fill:#eac102;fill-opacity:1;fill-rule:evenodd;stroke:#000000;stroke-width:0.556238;stroke-linecap:butt;stroke-linejoin:miter;stroke-miterlimit:4;stroke-dasharray:none;stroke-opacity:1;display:inline" />
          <path
             d="M 211.88209,301.46742 C 220.97483,313.28398 243.13345,312.52258 238.98618,339.0819 C 236.8927,335.96571 234.02662,331.39104 231.80853,330.40256 C 221.77373,324.10304 221.55241,311.1745 211.88209,301.46742 z"
             id="path34896"
             style="fill:#eac102;fill-opacity:1;fill-rule:evenodd;stroke:#000000;stroke-width:0.556238;stroke-linecap:butt;stroke-linejoin:miter;stroke-miterlimit:4;stroke-dasharray:none;stroke-opacity:1;display:inline" />
          <path
             d="M 211.88208,316.40267 C 220.97483,328.21923 243.13344,327.45783 238.98618,354.01715 C 236.89269,350.90096 234.02662,346.32628 231.80853,345.33781 C 221.77373,339.03829 221.55241,326.10975 211.88208,316.40267 z"
             id="path34898"
             style="fill:#eac102;fill-opacity:1;fill-rule:evenodd;stroke:#000000;stroke-width:0.556238;stroke-linecap:butt;stroke-linejoin:miter;stroke-miterlimit:4;stroke-dasharray:none;stroke-opacity:1;display:inline" />
          <path
             d="M 211.88209,331.33791 C 220.97483,343.15448 243.13345,342.39308 238.98619,368.95239 C 236.8927,365.8362 234.02662,361.26153 231.80853,360.27305 C 221.77374,353.97354 221.55241,341.04499 211.88209,331.33791 z"
             id="path34900"
             style="fill:#eac102;fill-opacity:1;fill-rule:evenodd;stroke:#000000;stroke-width:0.556238;stroke-linecap:butt;stroke-linejoin:miter;stroke-miterlimit:4;stroke-dasharray:none;stroke-opacity:1;display:inline" />
          <path
             d="M 211.88209,346.27315 C 220.97483,358.08972 243.13345,357.32832 238.98618,383.88763 C 236.8927,380.77144 234.02662,376.19677 231.80853,375.20829 C 221.77373,368.90878 221.55241,355.98023 211.88209,346.27315 z"
             id="path34902"
             style="fill:#eac102;fill-opacity:1;fill-rule:evenodd;stroke:#000000;stroke-width:0.556238;stroke-linecap:butt;stroke-linejoin:miter;stroke-miterlimit:4;stroke-dasharray:none;stroke-opacity:1;display:inline" />
          <path
             d="M 211.88208,361.2084 C 220.97483,373.02496 243.13345,372.26356 238.98618,398.82288 C 236.8927,395.70669 234.02662,391.13201 231.80853,390.14354 C 221.77373,383.84402 221.55241,370.91548 211.88208,361.2084 z"
             id="path34904"
             style="fill:#eac102;fill-opacity:1;fill-rule:evenodd;stroke:#000000;stroke-width:0.556238;stroke-linecap:butt;stroke-linejoin:miter;stroke-miterlimit:4;stroke-dasharray:none;stroke-opacity:1;display:inline" />
        </g>
        <use
           transform="matrix(-0.5595428,0.823353,0.823353,0.5566137,-58.73887,33.432835)"
           id="use24603"
           style="stroke-width:1.00536311;stroke-miterlimit:4;stroke-dasharray:none"
           x="0"
           y="0"
           width="479.84344"
           height="561.82318"
           xlink:href="#g24594" />
      </g>
      <g
         transform="translate(1.2869242,23.164629)"
         id="g5354">
        <path
           d="M 375.2098,756.85422 L 387.0781,774.0132 L 387.0781,769.86645 L 376.63971,754.85234 L 375.2098,756.85422 z"
           id="path5346"
           style="fill:#008f4c;fill-rule:evenodd;stroke:#000000;stroke-width:1px;stroke-linecap:butt;stroke-linejoin:miter;stroke-opacity:1" />
        <path
           d="M 374.20886,748.27473 C 367.18789,741.30579 347.04067,708.03886 378.35561,699.51461 C 366.84854,722.53369 373.6478,737.53994 375.76398,746.70337 C 376.10492,748.17971 373.98643,747.28547 374.20886,748.27473 z"
           id="path5348"
           style="fill:#e3e4e5;fill-rule:evenodd;stroke:#000000;stroke-width:1px;stroke-linecap:butt;stroke-linejoin:miter;stroke-opacity:1" />
        <path
           d="M 369.84742,751.13677 C 367.31576,741.57377 348.55488,707.50577 325.53163,730.37974 C 351.22138,731.90539 360.82716,745.28996 367.70944,751.69939 C 368.81825,752.73203 369.10143,750.45004 369.84742,751.13677 z"
           id="path5350"
           style="fill:#e3e4e5;fill-rule:evenodd;stroke:#000000;stroke-width:1px;stroke-linecap:butt;stroke-linejoin:miter;stroke-opacity:1" />
        <path
           d="M 362.94318,709.93229 C 365.539,723.52455 369.83515,736.74078 375.06681,749.70464 L 370.49108,751.27755 C 361.23268,736.60812 351.79062,729.1246 343.05048,722.25795 C 337.03207,712.26566 356.49709,703.15956 362.94318,709.93229 z"
           id="path5352"
           style="fill:#e3e4e5;fill-rule:evenodd;stroke:#000000;stroke-width:1px;stroke-linecap:butt;stroke-linejoin:miter;stroke-opacity:1" />
        <path
           d="M 367.20227,750.99156 L 375.63877,745.98686 C 381.24845,757.31374 375.25067,762.0383 367.20227,750.99156 z"
           id="path5344"
           style="fill:#008f4c;fill-rule:evenodd;stroke:#000000;stroke-width:1px;stroke-linecap:butt;stroke-linejoin:miter;stroke-opacity:1" />
      </g>
      <path
         d="M 151.93928,659.4711 C 154.71414,643.28395 179.85565,648.94066 191.55382,648.94066 C 184.28593,664.0631 165.44304,662.23521 151.93928,659.4711 z"
         id="path4335"
         style="fill:#008f4c;fill-rule:evenodd;stroke:#000000;stroke-width:1px;stroke-linecap:butt;stroke-linejoin:miter;stroke-opacity:1" />
    </g>
    <g
       id="g4323">
      <path
         d="M 166.03125,5.375 C 134.49657,87.46525 76.032668,130.2441 4.96875,154.6875 L 4.96875,629.3125 C 2.9567239,658.5064 10.394955,672.80044 29.375,695.34375 C 111.36096,784.95475 316.08602,713.58136 394.28125,835.21875 C 472.47648,713.58135 677.20151,784.95474 759.1875,695.34375 C 778.16757,672.80045 785.63702,658.50638 783.625,629.3125 L 783.625,154.6875 C 712.5611,130.2441 654.06588,87.46525 622.53125,5.375 L 166.03125,5.375 z M 611.5625,21.65625 C 617.98142,36.77732 625.75775,51.252187 634.78125,64.96875 C 662.49354,107.69297 704.7511,139.5909 751.15625,159.75 C 756.56367,161.7967 761.70747,164.73775 767.34375,165.96875 C 767.39804,222.26666 767.37659,278.58754 767.34375,334.90625 L 21.25,334.90625 C 21.252868,278.63532 21.245298,222.36435 21.25,166.09375 C 25.903695,164.39705 30.467395,162.50935 35.03125,160.59375 C 98.254051,135.68535 151.09196,84.651869 177.125,21.6875 C 194.58009,21.68251 212.04492,21.69249 229.5,21.6875 C 356.86028,21.66119 484.20225,21.660361 611.5625,21.65625 z M 21.25,354.90625 L 384.53125,354.90625 L 384.53125,797.78125 C 363.19578,777.48701 336.11927,763.50548 308.0625,754.78125 C 253.70357,737.75555 196.21859,736.82356 140.40625,727.40625 C 110.92811,722.43005 80.656999,715.24852 56.125,697.375 C 38.894412,684.7362 23.748524,666.54094 21.09375,644.71875 C 21.208052,548.11505 21.242516,451.51061 21.25,354.90625 z M 404.53125,354.90625 L 767.34375,354.90625 C 767.29263,444.43899 767.24029,533.97839 767.5625,623.5 C 768.74286,639.0654 767.6085,655.63035 758.9375,669.03125 C 744.03786,693.39595 718.29964,709.11616 691.5625,717.40625 C 627.99958,736.38435 560.4531,733.69908 496.34375,750.3125 C 462.61543,758.28989 429.79717,773.53329 404.53125,797.4375 L 404.53125,354.90625 z"
         id="path3226"
         style="fill:#e3e4e5;fill-opacity:1;fill-rule:evenodd;stroke:#000000;stroke-width:1;stroke-linecap:butt;stroke-linejoin:miter;stroke-miterlimit:4;stroke-dasharray:none;stroke-opacity:1" />
      <rect
         width="478.73569"
         height="46.329258"
         x="155.16682"
         y="320.30487"
         id="rect3224"
         style="opacity:1;fill:#e3e4e5;fill-opacity:1;fill-rule:nonzero;stroke:#000000;stroke-width:1;stroke-linecap:round;stroke-linejoin:bevel;stroke-miterlimit:4;stroke-dasharray:none;stroke-dashoffset:0;stroke-opacity:1" />
      <path
         d="M 216.16553,357.06326 L 216.16553,355.42264 C 217.715,355.30545 218.59391,355.18175 218.80225,355.05154 C 218.95849,354.97342 219.07568,354.8367 219.15381,354.64139 C 219.28401,354.31587 219.37841,352.96821 219.43701,350.59842 C 219.4956,348.22864 219.5249,345.93046 219.5249,343.70389 C 219.5249,339.55026 219.48258,336.58151 219.39795,334.79764 C 219.31331,333.01381 219.17659,332.01771 218.98779,331.80936 C 218.79899,331.60105 218.23584,331.46433 217.29834,331.3992 L 216.16553,331.30154 L 216.16553,329.66092 L 218.37256,329.73904 C 219.73974,329.77813 220.82698,329.79767 221.63428,329.79764 C 222.74104,329.79767 224.52489,329.7586 226.98584,329.68045 C 228.31395,329.62839 229.29051,329.60235 229.91553,329.60233 C 232.24624,329.60235 233.96824,329.82371 235.08154,330.26639 C 236.1948,330.70912 237.04116,331.37969 237.62061,332.27811 C 238.20001,333.17657 238.48972,334.29636 238.48975,335.63748 C 238.48972,338.05938 237.6336,340.08737 235.92139,341.72147 C 234.20913,343.35559 232.0314,344.17265 229.38818,344.17264 C 229.04963,344.17265 228.69155,344.14661 228.31396,344.09451 C 227.93635,344.04244 227.5327,343.97083 227.10303,343.87967 C 226.88166,343.41093 226.64729,342.9552 226.3999,342.51248 L 226.84912,342.0242 C 227.13557,342.08932 227.39924,342.1414 227.64014,342.18045 C 227.88101,342.21953 228.09911,342.23906 228.29443,342.23904 C 229.60952,342.23906 230.68374,341.78659 231.51709,340.88162 C 232.35041,339.97669 232.76707,338.71042 232.76709,337.08279 C 232.76707,335.27292 232.33738,333.92201 231.47803,333.03006 C 230.61864,332.13816 229.35562,331.69219 227.68896,331.69217 C 227.01187,331.69219 226.2176,331.78334 225.30615,331.96561 C 225.16291,335.97604 225.0913,339.37448 225.09131,342.16092 C 225.0913,343.09843 225.14338,346.08671 225.24756,351.12576 C 225.28661,353.11795 225.35171,354.26379 225.44287,354.56326 C 225.50796,354.78462 225.63166,354.94087 225.81396,355.03201 C 226.10041,355.17524 227.20718,355.30545 229.13428,355.42264 L 229.13428,357.06326 C 226.82958,356.97212 224.88948,356.92654 223.31396,356.92654 C 222.61083,356.92654 220.22802,356.97212 216.16553,357.06326 L 216.16553,357.06326 z M 250.50146,357.06326 L 250.50146,355.42264 C 252.29834,355.33149 253.31396,355.18175 253.54834,354.97342 C 253.78271,354.76509 253.92594,354.25077 253.97803,353.43045 C 254.06917,351.71171 254.11474,348.50858 254.11475,343.82108 C 254.11474,342.02422 254.0887,339.42005 254.03662,336.00858 C 254.01057,333.67787 253.95849,332.39857 253.88037,332.17068 C 253.80224,331.94285 253.66552,331.77683 253.47021,331.67264 C 253.18375,331.52943 252.19417,331.40574 250.50146,331.30154 L 250.50146,329.66092 C 253.18375,329.76511 255.23453,329.8172 256.65381,329.81717 C 259.10172,329.8172 261.31525,329.76511 263.29443,329.66092 L 263.29443,331.30154 C 261.52359,331.40574 260.52424,331.54571 260.29639,331.72147 C 260.06851,331.89727 259.92203,332.30417 259.85693,332.94217 C 259.73974,334.19219 259.68114,336.72474 259.68115,340.53983 C 259.68114,345.61796 259.70067,349.15637 259.73975,351.15506 C 259.7788,353.15376 259.89599,354.34191 260.09131,354.71951 C 260.16942,354.88879 260.33544,355.02225 260.58936,355.1199 C 260.84325,355.21756 261.74494,355.31847 263.29443,355.42264 L 263.29443,357.06326 L 260.98975,357.00467 C 259.5314,356.95259 258.22932,356.92654 257.0835,356.92654 L 250.50146,357.06326 z M 281.34131,357.06326 L 281.34131,355.42264 C 282.08349,355.42264 282.85823,355.35754 283.66553,355.22733 C 284.04312,355.16222 284.31005,355.0548 284.46631,354.90506 C 284.62255,354.75532 284.73974,354.47863 284.81787,354.07498 C 284.90901,353.51509 284.98713,351.4578 285.05225,347.90311 C 285.0913,345.37708 285.11083,342.79895 285.11084,340.16873 C 285.11083,334.99948 285.09455,332.36602 285.06201,332.26834 C 285.02945,332.17071 284.57047,332.12188 283.68506,332.12186 C 281.87516,332.12188 280.31917,332.17396 279.01709,332.27811 C 278.26188,332.34324 277.83545,332.40834 277.73779,332.47342 C 277.64013,332.53855 277.56526,332.65248 277.51318,332.81522 C 277.4611,332.978 277.35042,334.12058 277.18115,336.24295 L 275.50146,336.24295 C 275.52751,333.75599 275.45589,331.61407 275.28662,329.81717 L 275.50146,329.66092 C 279.60302,329.84324 283.5939,329.93438 287.47412,329.93436 C 291.34129,329.93438 295.67071,329.84324 300.4624,329.66092 L 300.67725,329.97342 C 300.42982,331.7573 300.25404,333.84714 300.1499,336.24295 L 298.52881,336.24295 C 298.4116,334.06849 298.29441,332.89011 298.17725,332.70779 C 298.08608,332.56459 297.87774,332.46693 297.55225,332.41483 C 296.51056,332.24558 294.44025,332.16094 291.34131,332.16092 C 291.08088,332.16094 290.92463,332.20001 290.87256,332.27811 C 290.82046,332.36928 290.79442,332.71433 290.79443,333.31326 L 290.67725,346.43826 C 290.67723,350.24035 290.70978,352.57434 290.7749,353.44022 C 290.83999,354.3061 290.99624,354.83019 291.24365,355.01248 C 291.41291,355.12967 292.43504,355.26639 294.31006,355.42264 L 294.31006,357.06326 C 292.39598,356.97212 290.36473,356.92654 288.21631,356.92654 C 285.39078,356.92654 283.09911,356.97212 281.34131,357.06326 L 281.34131,357.06326 z M 312.76709,357.06326 L 312.76709,355.42264 C 314.2775,355.29243 315.14339,355.16873 315.36475,355.05154 C 315.50797,354.97342 315.61214,354.84972 315.67725,354.68045 C 315.80745,354.36795 315.8986,353.31327 315.95068,351.51639 C 316.01578,348.72994 316.04834,346.53593 316.04834,344.93436 C 316.04834,342.77291 316.02229,340.02552 315.97021,336.69217 C 315.91813,334.20521 315.79443,332.68178 315.59912,332.12186 C 315.54703,331.95261 315.44287,331.8224 315.28662,331.73123 C 315.07828,331.60105 314.23844,331.45782 312.76709,331.30154 L 312.76709,329.66092 C 315.4624,329.76511 317.20068,329.8172 317.98193,329.81717 L 327.76709,329.64139 C 329.88947,329.64142 331.43569,329.84649 332.40576,330.25662 C 333.37579,330.6668 334.14402,331.32436 334.71045,332.22928 C 335.27683,333.13425 335.56003,334.1987 335.56006,335.42264 C 335.56003,336.98516 335.10756,338.3556 334.20264,339.53397 C 333.29767,340.71237 331.7254,341.75729 329.48584,342.66873 L 333.646,348.93826 L 336.88818,353.74295 C 337.50014,354.5242 337.95587,354.99621 338.25537,355.15897 C 338.55482,355.32173 339.0431,355.40962 339.72021,355.42264 L 339.72021,356.92654 L 338.56787,356.94608 C 335.26056,356.97212 333.13165,357.01118 332.18115,357.06326 C 331.04832,355.25337 329.35561,352.62967 327.10303,349.19217 L 323.07959,343.07889 C 323.19677,342.85755 323.29442,342.62317 323.37256,342.37576 C 323.89338,342.44088 324.27749,342.47343 324.5249,342.47342 C 325.73583,342.47343 326.92723,341.98515 328.09912,341.00858 C 329.27098,340.03203 329.85692,338.6388 329.85693,336.82889 C 329.85692,335.25339 329.39468,334.02943 328.47021,333.15701 C 327.54572,332.28464 326.159,331.84844 324.31006,331.84842 C 323.72411,331.84844 322.92984,331.89402 321.92725,331.98514 L 321.79053,337.74686 L 321.61475,345.05154 C 321.61474,346.7052 321.67984,348.82108 321.81006,351.3992 C 321.91421,353.33931 322.01838,354.42655 322.12256,354.66092 C 322.20067,354.83019 322.3439,354.96691 322.55225,355.07108 C 322.82567,355.22733 323.71109,355.34451 325.2085,355.42264 L 325.2085,357.06326 C 322.86473,356.97212 320.78791,356.92654 318.97803,356.92654 C 317.05094,356.92654 314.98063,356.97212 312.76709,357.06326 L 312.76709,357.06326 z M 351.38037,331.30154 L 351.38037,329.66092 C 354.03662,329.75209 356.36734,329.79767 358.37256,329.79764 C 359.64859,329.79767 361.45197,329.75209 363.78271,329.66092 L 363.78271,331.30154 C 362.58479,331.30157 361.73843,331.40574 361.24365,331.61404 C 361.07437,331.67917 360.93765,331.78985 360.8335,331.94608 C 360.69026,332.12839 360.5926,332.43438 360.54053,332.86404 C 360.46239,333.59323 360.39729,335.68959 360.34521,339.15311 C 360.30614,341.56198 360.28661,344.00989 360.28662,346.49686 C 360.28661,348.54114 360.52099,350.04179 360.98975,350.99881 C 361.45848,351.95585 362.14208,352.66874 363.04053,353.13748 C 364.3426,353.80155 365.76187,354.13358 367.29834,354.13358 C 369.39467,354.13358 370.99624,353.78853 372.10303,353.09842 C 373.20978,352.40832 373.95196,351.4578 374.32959,350.24686 C 374.70717,349.03593 374.89597,346.38619 374.896,342.29764 L 374.87646,335.07108 C 374.86342,333.44349 374.78529,332.46693 374.64209,332.14139 C 374.56394,331.95912 374.42722,331.8224 374.23193,331.73123 C 373.91941,331.54897 372.96889,331.40574 371.38037,331.30154 L 371.38037,329.66092 C 373.06004,329.75209 374.60951,329.79767 376.02881,329.79764 C 377.25274,329.79767 378.75664,329.75209 380.54053,329.66092 L 380.54053,331.30154 C 379.25144,331.30157 378.4474,331.4448 378.12842,331.73123 C 377.80938,332.01771 377.61732,332.7599 377.55225,333.95779 C 377.40899,336.87448 377.33086,340.17526 377.31787,343.86014 C 377.31784,346.21692 377.28529,347.75989 377.22021,348.48904 C 377.07696,350.28593 376.64076,351.81913 375.91162,353.08865 C 375.18243,354.35819 373.97149,355.40311 372.27881,356.22342 C 370.58608,357.04373 368.48322,357.45389 365.97021,357.45389 C 363.35301,357.45389 361.17854,357.06326 359.44678,356.28201 C 357.715,355.50076 356.48453,354.51444 355.75537,353.32303 C 355.0262,352.13163 354.66162,350.38358 354.66162,348.07889 L 354.75928,339.28983 C 354.75927,338.58672 354.72672,336.79636 354.66162,333.91873 C 354.63558,333.02032 354.53792,332.40834 354.36865,332.08279 C 354.26448,331.90053 354.10498,331.7573 353.89014,331.65311 C 353.67529,331.54897 352.8387,331.43178 351.38037,331.30154 L 351.38037,331.30154 z M 392.80615,357.06326 L 392.80615,355.42264 C 394.4598,355.40962 395.42334,355.28592 395.69678,355.05154 C 395.90511,354.8953 396.0288,354.43306 396.06787,353.66483 C 396.22412,351.12577 396.30224,348.19608 396.30225,344.87576 C 396.30224,342.41484 396.26969,339.77487 396.20459,336.95584 C 396.13948,334.13685 396.0288,332.51251 395.87256,332.08279 C 395.79443,331.88751 395.68375,331.75079 395.54053,331.67264 C 395.31917,331.52943 394.40771,331.41225 392.80615,331.32108 L 392.80615,329.68045 C 395.08479,329.74558 397.04443,329.77813 398.68506,329.77811 C 401.08088,329.77813 403.5939,329.74558 406.22412,329.68045 C 407.95588,329.62839 409.41421,329.60235 410.59912,329.60233 C 411.44546,329.60235 412.25275,329.62839 413.021,329.68045 L 413.21631,330.09061 C 412.94285,331.74428 412.77358,333.69089 412.7085,335.93045 L 411.06787,335.93045 L 410.91162,333.84061 C 410.87254,333.17657 410.78465,332.76967 410.64795,332.6199 C 410.51121,332.47019 410.02944,332.31719 409.20264,332.16092 C 408.3758,332.00469 407.19416,331.92657 405.65771,331.92654 C 404.52489,331.92657 403.32697,331.98516 402.06396,332.10233 C 401.92073,334.30287 401.84911,335.85886 401.84912,336.77029 L 401.88818,340.96951 L 401.86865,341.86795 C 402.64989,341.89401 403.5939,341.90703 404.70068,341.90701 C 406.69286,341.90703 407.89077,341.86146 408.29443,341.77029 C 408.50275,341.71823 408.65249,341.61406 408.74365,341.45779 C 408.88686,341.18437 409.00405,340.37057 409.09521,339.01639 L 410.7749,339.01639 C 410.73582,340.16224 410.71629,341.30156 410.71631,342.43436 C 410.71629,343.50208 410.73582,345.2013 410.7749,347.53201 L 409.09521,347.53201 C 408.99103,345.83932 408.86733,344.84973 408.72412,344.56326 C 408.64598,344.40703 408.48322,344.29635 408.23584,344.23123 C 407.61082,344.06197 406.34129,343.97734 404.42725,343.97733 L 401.86865,344.01639 L 401.94678,351.51639 C 401.99885,353.32629 402.09,354.37446 402.22021,354.66092 C 402.31135,354.84321 402.44807,354.97993 402.63037,355.07108 C 402.89078,355.20129 403.97801,355.31847 405.89209,355.42264 L 405.89209,357.06326 C 403.80874,356.97212 401.85562,356.92654 400.03271,356.92654 C 398.41812,356.92654 396.00927,356.97212 392.80615,357.06326 L 392.80615,357.06326 z M 433.9585,362.25858 L 433.04053,361.37967 L 434.34912,360.30545 C 435.7814,359.14659 437.35692,358.18956 439.07568,357.43436 C 434.86994,357.43436 431.50406,356.18761 428.97803,353.69412 C 426.45198,351.20064 425.18896,347.82499 425.18896,343.56717 C 425.18896,340.54635 425.80745,337.978 427.04443,335.86209 C 428.28141,333.74623 429.99365,332.12188 432.18115,330.98904 C 434.36864,329.85626 437.18765,329.28985 440.63818,329.28983 C 443.94545,329.28985 446.65379,329.83347 448.76318,330.92068 C 450.87253,332.00795 452.49688,333.51836 453.63623,335.45193 C 454.77552,337.38555 455.34518,339.75859 455.34521,342.57108 C 455.34518,345.56588 454.73971,348.16353 453.52881,350.36404 C 452.31784,352.56457 450.67396,354.24426 448.59717,355.40311 C 446.52032,356.56196 443.66551,357.23904 440.03271,357.43436 C 441.02228,357.56456 441.94676,357.75337 442.80615,358.00076 L 447.90381,359.71951 C 449.42722,360.2143 450.63816,360.55284 451.53662,360.73514 C 452.08347,360.8393 452.58477,360.89138 453.04053,360.89139 C 453.60039,360.89138 454.11797,360.82954 454.59326,360.70584 C 455.06849,360.58214 455.77487,360.30545 456.7124,359.87576 L 456.7124,361.04764 L 454.44678,362.62967 C 453.36602,363.37185 452.62383,363.8406 452.22021,364.03592 C 451.94675,364.1531 451.62774,364.21169 451.26318,364.2117 C 450.39076,364.21169 449.40443,364.09776 448.3042,363.8699 C 447.20392,363.64203 445.4103,363.10492 442.92334,362.25858 C 441.11343,361.64659 439.86343,361.26573 439.17334,361.116 C 438.48322,360.96625 437.89728,360.89138 437.41553,360.89139 C 436.85562,360.89138 436.33479,360.97927 435.85303,361.15506 C 435.37124,361.33084 434.73973,361.69867 433.9585,362.25858 L 433.9585,362.25858 z M 440.7749,355.16873 C 443.39207,355.16873 445.4754,354.20845 447.0249,352.28787 C 448.57436,350.36731 449.3491,347.44739 449.34912,343.52811 C 449.3491,339.41354 448.45717,336.2625 446.67334,334.07498 C 445.22801,332.29115 443.00796,331.39923 440.01318,331.3992 C 437.20067,331.39923 435.02619,332.3237 433.48975,334.17264 C 431.95328,336.02162 431.18505,338.86667 431.18506,342.70779 C 431.18505,345.48124 431.60823,347.82825 432.45459,349.74881 C 433.30093,351.66939 434.37515,353.05285 435.67725,353.8992 C 436.97932,354.74556 438.67853,355.16873 440.7749,355.16873 L 440.7749,355.16873 z M 468.09912,331.30154 L 468.09912,329.66092 C 470.75537,329.75209 473.08609,329.79767 475.09131,329.79764 C 476.36734,329.79767 478.17072,329.75209 480.50146,329.66092 L 480.50146,331.30154 C 479.30354,331.30157 478.45718,331.40574 477.9624,331.61404 C 477.79312,331.67917 477.6564,331.78985 477.55225,331.94608 C 477.40901,332.12839 477.31135,332.43438 477.25928,332.86404 C 477.18114,333.59323 477.11604,335.68959 477.06396,339.15311 C 477.02489,341.56198 477.00536,344.00989 477.00537,346.49686 C 477.00536,348.54114 477.23974,350.04179 477.7085,350.99881 C 478.17723,351.95585 478.86083,352.66874 479.75928,353.13748 C 481.06135,353.80155 482.48062,354.13358 484.01709,354.13358 C 486.11342,354.13358 487.71499,353.78853 488.82178,353.09842 C 489.92853,352.40832 490.67071,351.4578 491.04834,350.24686 C 491.42592,349.03593 491.61472,346.38619 491.61475,342.29764 L 491.59521,335.07108 C 491.58217,333.44349 491.50404,332.46693 491.36084,332.14139 C 491.28269,331.95912 491.14597,331.8224 490.95068,331.73123 C 490.63816,331.54897 489.68764,331.40574 488.09912,331.30154 L 488.09912,329.66092 C 489.77879,329.75209 491.32826,329.79767 492.74756,329.79764 C 493.97149,329.79767 495.47539,329.75209 497.25928,329.66092 L 497.25928,331.30154 C 495.97019,331.30157 495.16615,331.4448 494.84717,331.73123 C 494.52813,332.01771 494.33607,332.7599 494.271,333.95779 C 494.12774,336.87448 494.04961,340.17526 494.03662,343.86014 C 494.03659,346.21692 494.00404,347.75989 493.93896,348.48904 C 493.79571,350.28593 493.35951,351.81913 492.63037,353.08865 C 491.90118,354.35819 490.69024,355.40311 488.99756,356.22342 C 487.30483,357.04373 485.20197,357.45389 482.68896,357.45389 C 480.07176,357.45389 477.89729,357.06326 476.16553,356.28201 C 474.43375,355.50076 473.20328,354.51444 472.47412,353.32303 C 471.74495,352.13163 471.38037,350.38358 471.38037,348.07889 L 471.47803,339.28983 C 471.47802,338.58672 471.44547,336.79636 471.38037,333.91873 C 471.35433,333.02032 471.25667,332.40834 471.0874,332.08279 C 470.98323,331.90053 470.82373,331.7573 470.60889,331.65311 C 470.39404,331.54897 469.55745,331.43178 468.09912,331.30154 L 468.09912,331.30154 z M 510.7749,357.06326 L 510.7749,356.00858 C 511.465,355.69608 512.09651,355.33149 512.66943,354.91483 C 512.92985,352.88358 513.06005,348.61275 513.06006,342.10233 C 513.06005,337.66224 513.01448,334.71954 512.92334,333.2742 C 512.88427,332.506 512.75081,332.02097 512.52295,331.81912 C 512.29508,331.61732 511.32828,331.4448 509.62256,331.30154 L 509.62256,329.66092 C 512.69547,329.77813 515.12385,329.83673 516.90771,329.8367 L 527.66943,329.71951 C 528.80223,329.71954 529.82436,329.76511 530.73584,329.85623 L 530.87256,330.07108 C 530.58608,331.49037 530.37774,333.37839 530.24756,335.73514 L 528.70459,335.73514 C 528.63947,333.83412 528.5646,332.8185 528.47998,332.68826 C 528.39532,332.55808 528.0991,332.43438 527.59131,332.31717 C 526.51056,332.08282 524.85692,331.96563 522.63037,331.96561 C 521.53661,331.96563 520.26057,332.0112 518.80225,332.10233 C 518.63296,336.12578 518.53531,339.32891 518.50928,341.7117 C 519.90249,341.80286 521.21109,341.84843 522.43506,341.84842 C 524.24494,341.84843 525.33218,341.78984 525.69678,341.67264 C 525.91811,341.59453 526.07436,341.40573 526.16553,341.10623 C 526.24363,340.87187 526.33478,340.05156 526.43896,338.64529 L 528.11865,338.64529 C 528.05353,340.84583 528.02098,342.27812 528.021,342.94217 L 528.11865,347.3367 L 526.43896,347.3367 C 526.3478,345.63098 526.23061,344.64791 526.0874,344.38748 C 526.00926,344.23124 525.83348,344.12057 525.56006,344.05545 C 524.909,343.91223 523.44416,343.84062 521.16553,343.84061 C 520.44937,343.84062 519.60953,343.87968 518.646,343.95779 C 518.61994,344.64791 518.60692,345.35103 518.60693,346.06717 C 518.60692,349.79113 518.67203,352.65572 518.80225,354.66092 L 522.66943,354.71951 C 524.86994,354.71952 526.88165,354.60233 528.70459,354.36795 C 529.03009,353.17004 529.34259,351.80936 529.64209,350.28592 L 531.26318,350.28592 C 530.96368,352.57759 530.7879,354.77811 530.73584,356.88748 C 529.55092,357.01769 528.4116,357.08279 527.31787,357.08279 C 526.60171,357.08279 525.18895,357.05675 523.07959,357.00467 C 521.11343,356.95259 519.30354,356.92654 517.6499,356.92654 C 515.47542,356.92654 513.18375,356.97212 510.7749,357.06326 L 510.7749,357.06326 z M 519.48584,327.76639 L 517.55225,327.76639 L 522.0835,323.39139 C 523.15119,322.36278 523.87059,321.74103 524.2417,321.52615 C 524.61278,321.31135 525.00015,321.20392 525.40381,321.20389 C 525.89858,321.20392 526.29897,321.35041 526.60498,321.64334 C 526.91095,321.93634 527.06395,322.30418 527.06396,322.74686 C 527.06395,323.13752 526.93699,323.46955 526.68311,323.74295 C 526.42918,324.01642 525.63166,324.5047 524.29053,325.20779 L 519.48584,327.76639 z M 543.86084,357.06326 L 543.86084,355.42264 C 545.44938,355.35754 546.38037,355.25337 546.65381,355.11014 C 546.8361,355.00597 546.97281,354.8367 547.06396,354.60233 C 547.20719,354.28983 547.29834,353.18957 547.3374,351.30154 C 547.41552,348.17655 547.45458,345.81978 547.45459,344.23123 L 547.41553,335.96951 C 547.41552,333.78204 547.34391,332.51902 547.20068,332.18045 C 547.12255,331.98516 546.99886,331.84193 546.82959,331.75076 C 546.56917,331.59454 545.57959,331.4448 543.86084,331.30154 L 543.86084,329.66092 C 545.91813,329.72605 547.44156,329.7586 548.43115,329.75858 C 549.5249,329.7586 550.76838,329.72605 552.16162,329.66092 C 555.1564,333.48907 558.54181,337.64271 562.31787,342.12186 C 564.83087,345.11666 566.99884,347.59062 568.82178,349.54373 L 568.82178,341.80936 C 568.82175,338.87969 568.78269,336.35365 568.70459,334.23123 C 568.65248,332.96823 568.54831,332.1935 568.39209,331.90701 C 568.31394,331.75079 568.17071,331.64011 567.9624,331.57498 C 567.75404,331.5099 566.84259,331.41876 565.22803,331.30154 L 565.22803,329.66092 C 566.64727,329.72605 568.06003,329.7586 569.46631,329.75858 C 571.39336,329.7586 573.13815,329.72605 574.70068,329.66092 L 574.70068,331.30154 C 573.24232,331.39272 572.36341,331.49688 572.06396,331.61404 C 571.89466,331.67917 571.75795,331.77032 571.65381,331.88748 C 571.54961,332.00469 571.47149,332.15443 571.41943,332.3367 C 571.32826,332.64922 571.27618,333.65183 571.26318,335.34451 L 571.20459,343.15701 L 571.16553,351.02811 C 571.1655,353.13749 571.21107,355.24686 571.30225,357.35623 L 571.04834,357.62967 C 569.47279,357.34321 568.35951,357.15441 567.7085,357.06326 C 564.36212,353.35233 560.31916,348.69088 555.57959,343.07889 C 553.18375,340.24036 551.25015,337.85104 549.77881,335.91092 L 549.77881,343.50858 C 549.7788,345.5789 549.81135,348.07239 549.87646,350.98904 C 549.91552,353.13749 550.00667,354.37446 550.1499,354.69998 C 550.20198,354.84321 550.29963,354.95389 550.44287,355.03201 C 550.69026,355.17524 551.62776,355.30545 553.25537,355.42264 L 553.25537,357.06326 C 551.14599,356.97212 549.63557,356.92654 548.72412,356.92654 C 547.96891,356.92654 546.34782,356.97212 543.86084,357.06326 L 543.86084,357.06326 z"
         id="text3632"
         style="font-size:40px;font-style:normal;font-variant:normal;font-weight:bold;font-stretch:normal;text-align:start;line-height:125%;writing-mode:lr-tb;text-anchor:start;fill:#000000;fill-opacity:1;stroke:none;stroke-width:1px;stroke-linecap:butt;stroke-linejoin:miter;stroke-opacity:1;font-family:Book Antiqua;-inkscape-font-specification:Book Antiqua Bold" />
      <path
         d="M 622.52446,5.3759222 C 654.05911,87.466172 712.54798,130.24817 783.61188,154.69157 L 783.61188,629.30577 C 785.6239,658.49967 778.17456,672.81027 759.19449,695.35357 C 677.20853,784.96457 472.47945,713.57617 394.28422,835.21357 C 316.08898,713.57617 111.35989,784.96457 29.373926,695.35357 C 10.393881,672.81027 2.9445109,658.49967 4.956537,629.30577 L 4.956537,154.69157 C 76.020455,130.24817 134.50932,87.466172 166.044,5.3759222 L 622.52446,5.3759222 z"
         id="path2384"
         style="fill:none;fill-rule:evenodd;stroke:#000000;stroke-width:3;stroke-linecap:butt;stroke-linejoin:miter;stroke-miterlimit:4;stroke-dasharray:none;stroke-opacity:1" />
    </g>
  </g>
</svg>
