<?xml version="1.0" encoding="UTF-8" standalone="no"?>
<!-- Created with Inkscape (http://www.inkscape.org/) -->
<svg
   xmlns:svg="http://www.w3.org/2000/svg"
   xmlns="http://www.w3.org/2000/svg"
   xmlns:xlink="http://www.w3.org/1999/xlink"
   version="1.0"
   width="192"
   height="198"
   id="svg2">
  <defs
     id="defs4" />
  <g
     id="layer1">
    <g
       transform="translate(0.1502169,1.0362535)"
       id="g2553">
      <path
         d="M 49.40625,42.84375 C 51.038042,45.792114 51.347021,47.835503 50.90625,50.875 C 50.449367,54.025586 49.664801,55.461875 45.03125,61.5625 C 43.39439,63.717638 42.92336,64.840236 42.96875,66.5625 C 43.020003,68.507178 43.23824,68.977791 45.5625,72.46875 C 47.531825,75.366441 49.181607,78.316771 49.125,81.875 C 49.034486,84.874211 48.385499,86.52686 46.125,89.375 C 42.909487,92.494058 43.402023,96.418658 46.21875,99.125 C 48.499351,101.48234 48.902563,102.3324 48.96875,104.84375 C 49.063075,108.42269 47.761473,110.80717 43.8125,114.1875 C 42.321324,115.46396 41.452636,116.54935 41.0625,117.84375 C 39.874294,120.59445 39.480695,121.45529 41.375,123.71875 C 41.881812,125.02285 42.86962,126.16161 44.84375,128.125 C 52.350927,134.44208 51.338168,141.38427 46.65625,149.0625 C 44.724356,151.5892 43.048183,154.0641 42.8125,156.75 C 42.808362,157.3613 42.770914,158.2932 42.75,159.03125 L 43.53125,159.53125 C 55.113216,163.07167 60.969806,173.16249 66.03125,183.8125 C 66.346703,184.3204 66.590606,184.97111 66.78125,185.59375 C 105.99042,144.30417 185.1833,140.1838 180.96875,75.125 C 180.13567,75.651109 178.75993,75.66267 177.5,75.0625 C 177.03033,74.838771 175.1954,74.317708 173.4375,73.875 C 159.40705,70.504486 147.56109,62.044247 147.53125,46.8125 C 147.38425,46.714422 147.24079,46.63318 147.09375,46.53125 C 143.74974,44.213172 141.67191,43.294156 139.09375,42.96875 C 138.54051,42.904509 138.00767,42.886299 137.5,42.90625 C 133.94634,43.04591 131.41176,45.13334 128.6875,47.8125 C 124.86209,51.6373 123.38858,52.417486 119.53125,52.53125 C 116.17138,52.630348 114.86132,52.170488 112.90625,50.1875 C 111.17754,48.390103 109.47171,46.585102 107.5,45.0625 C 104.30886,42.860853 102.09303,44.230031 99.46875,46.71875 C 98.296607,47.923839 97.055354,48.738209 95.8125,49.1875 L 95.75,49.28125 L 95.625,49.25 C 92.950769,50.132807 90.163935,49.366221 87.5,47.1875 C 85.059157,44.877563 82.152277,43.820436 78.78125,44.3125 C 74.063269,45.695107 70.790372,49.962397 65.78125,50.46875 C 63.340637,50.529439 61.875848,49.882248 57.53125,46.71875 C 54.544921,44.544276 52.966909,43.534831 51.46875,43 L 49.40625,42.84375 z"
         id="path3236"
         style="fill:#eac102;fill-opacity:1;fill-rule:evenodd;stroke:none;stroke-width:1px;stroke-linecap:butt;stroke-linejoin:miter;stroke-opacity:1" />
      <g
         id="g2543">
        <g
           id="g2535">
          <path
             d="M 55.703034,101.87833 C 59.178514,139.54315 110.31702,140.20918 115.79369,102.05736"
             id="path3240"
             style="fill:#e3e4e5;fill-rule:evenodd;stroke:#633b01;stroke-width:0.52200007;stroke-linecap:butt;stroke-linejoin:miter;stroke-miterlimit:4;stroke-dasharray:none;stroke-opacity:1" />
          <path
             d="M 64.716184,101.87833 C 67.163044,139.54315 103.16623,140.20918 107.02199,102.05736"
             id="path3242"
             style="fill:none;fill-rule:evenodd;stroke:#633b01;stroke-width:0.52200007;stroke-linecap:butt;stroke-linejoin:miter;stroke-miterlimit:4;stroke-dasharray:none;stroke-opacity:1" />
          <path
             d="M 75.177834,101.87833 C 76.423864,139.54315 94.757764,140.20918 96.721244,102.05736"
             id="path3244"
             style="fill:none;fill-rule:evenodd;stroke:#633b01;stroke-width:0.52200001;stroke-linecap:butt;stroke-linejoin:miter;stroke-miterlimit:4;stroke-dasharray:none;stroke-opacity:1" />
          <path
             d="M 56.523954,107.46417 C 60.424264,104.60011 63.361064,107.1542 65.778514,109.79793 C 69.158454,106.88486 72.457894,106.94367 75.837824,110.68314 C 82.889274,106.96804 89.680294,107.76603 95.875964,110.68314 C 99.351754,107.54393 102.64702,106.93185 105.69386,109.79793 C 108.64458,106.32739 111.43437,105.36059 114.38509,108.10796 L 115.5922,102.71617 L 55.960634,102.55522 L 56.523954,107.46417 z"
             id="path3246"
             style="fill:#eac102;fill-opacity:1;fill-rule:evenodd;stroke:#633b01;stroke-width:0.10000002;stroke-linecap:butt;stroke-linejoin:miter;stroke-miterlimit:4;stroke-dasharray:none;stroke-opacity:1" />
          <path
             d="M 55.467364,101.95689 C 58.942844,139.62171 110.57233,140.20918 116.049,102.05736"
             id="path3248"
             style="fill:none;fill-rule:evenodd;stroke:#633b01;stroke-width:0.52200007;stroke-linecap:butt;stroke-linejoin:miter;stroke-miterlimit:4;stroke-dasharray:none;stroke-opacity:1" />
          <path
             d="M 227.55231,131.90662 A 19.611208,1.8068173 0 1 1 188.32989,131.90662 A 19.611208,1.8068173 0 1 1 227.55231,131.90662 z"
             transform="matrix(1.5572157,0,0,2.4565376,-238.02056,-222.04143)"
             id="path3238"
             style="fill:#633b01;fill-opacity:1;stroke:none;stroke-width:0.222;stroke-linecap:round;stroke-linejoin:miter;stroke-miterlimit:4;stroke-dasharray:none;stroke-dashoffset:0;stroke-opacity:1" />
        </g>
        <path
           d="M 136.5,70.28125 L 136.5,86.75 L 118.59375,86.6875 L 118.59375,89.84375 L 136.5,89.90625 L 136.5,134.4375 L 139.6875,134.4375 L 139.6875,89.90625 L 157.59375,89.96875 L 157.59375,86.8125 L 139.6875,86.75 L 139.6875,70.28125 L 136.5,70.28125 z"
           id="rect3250"
           style="fill:#633b01;fill-opacity:1;stroke:#633b01;stroke-width:0.09999999;stroke-linecap:round;stroke-linejoin:miter;stroke-miterlimit:4;stroke-dasharray:none;stroke-dashoffset:0;stroke-opacity:1" />
      </g>
      <g
         id="g2523">
        <g
           id="g2516">
          <path
             d="M 173.90958,21.94515 C 171.77401,22.000847 169.24471,22.857095 165.75434,24.705961 C 154.80891,30.968914 146.51004,43.400234 151.13876,56.02365 C 153.81463,62.137493 159.11095,65.856735 164.90317,68.738394 C 169.0288,70.559133 174.37631,72.09056 178.40585,72.605315 C 181.62872,73.017014 182.15357,73.329954 181.57635,74.495754 C 181.03154,75.596114 179.14831,75.863656 177.49414,75.075686 C 177.02447,74.851955 175.20191,74.30668 173.44401,73.863972 C 159.21051,70.444681 147.20504,61.805288 147.52437,46.153375 C 149.62693,31.561804 160.86447,24.874238 172.79485,19.204297 C 173.94841,18.487828 175.75571,17.995893 176.5915,18.170851 C 177.38746,18.337489 178.12458,19.796363 177.7867,20.536362 C 176.81549,21.745899 175.3755,21.832739 173.90958,21.94515 z"
             id="path3219"
             style="fill:#633b01;fill-opacity:1;stroke:#633b01;stroke-width:0.22200003;stroke-linecap:round;stroke-linejoin:miter;stroke-miterlimit:4;stroke-dasharray:none;stroke-dashoffset:0;stroke-opacity:1" />
          <path
             d="M 179.22406,27.902505 C 170.20265,29.649323 159.90121,34.865775 157.49746,44.273158 C 156.52045,47.839671 157.80032,51.488345 159.38679,54.687801 C 162.94065,61.105821 170.14859,65.108001 177.81778,65.601476 C 179.90537,65.566946 180.51307,65.665607 180.97606,66.114189 C 181.43245,66.556392 181.51462,67.545142 181.17796,68.543543 C 180.80516,69.649121 180.03533,69.625915 178.05605,68.449407 C 177.49089,68.113471 176.49354,67.798719 175.50559,67.644503 C 171.50382,67.01987 168.263,65.80706 164.92393,63.684525 C 161.22105,61.33076 158.54921,58.458381 156.72342,54.868561 C 154.13586,49.66687 154.482,44.202306 157.08975,39.16243 C 159.98054,34.134427 165.5381,29.99892 173.04475,27.289959 C 176.32275,26.107011 177.68648,25.57476 178.75952,25.059597 C 179.81042,24.555062 180.90912,24.461536 181.62485,24.81571 C 183.69691,27.168743 181.41111,27.771094 179.22406,27.902505 z"
             id="path3221"
             style="fill:#633b01;fill-opacity:1;stroke:#633b01;stroke-width:0.22200003;stroke-linecap:round;stroke-linejoin:miter;stroke-miterlimit:4;stroke-dasharray:none;stroke-dashoffset:0;stroke-opacity:1" />
          <g
             id="g2500">
            <path
               d="M 184.19196,44.431278 C 182.8995,44.286337 176.50401,44.251091 169.67826,44.351278 C 162.96658,44.449812 156.59873,44.434703 155.52747,44.31771 C 153.0855,44.051049 150.48386,42.884924 147.10449,40.542297 C 143.76048,38.224219 141.66666,37.28956 139.0885,36.964154 C 134.66255,36.450224 131.8097,38.75992 128.69626,41.821817 C 124.87085,45.646615 123.37461,46.41367 119.51728,46.527434 C 116.15741,46.626533 114.86696,46.169118 112.91189,44.18613 C 111.18318,42.388734 109.46845,40.590348 107.49674,39.067746 C 104.3056,36.866098 102.08572,38.237199 99.461439,40.725918 C 95.710585,44.582203 91.482859,44.424164 87.513141,41.177498 C 85.072295,38.867561 82.158799,37.82418 78.787772,38.316244 C 74.069792,39.698849 70.799349,43.974934 65.790227,44.481287 C 63.349617,44.541974 61.88164,43.870676 57.537042,40.707178 C 53.475913,37.750095 52.003711,36.960018 49.821695,36.566699 C 46.17354,35.909092 44.462955,36.517552 38.149385,40.718623 C 34.337802,43.254855 32.886003,43.908902 30.395005,44.212007 C 27.300649,44.588547 25.508157,43.700467 23.151161,40.6231 C 21.662736,38.679769 19.918973,37.179981 18.685032,36.781827 C 13.061732,35.462839 9.8353746,38.571387 7.3273731,43.217656 C 5.8554504,46.239709 4.3808959,46.979872 2.3425843,45.7198 C 0.72532082,44.72002 1.2965195,43.460532 3.9963899,42.073208 C 5.6499792,41.223512 6.1288063,40.804518 7.0715483,39.382259 C 9.8903735,34.96053 14.19098,33.79602 19.154933,34.797263 C 20.796278,35.264246 21.698325,36.014332 25.895235,40.402042 C 29.150966,44.463355 34.800588,40.452136 38.007081,38.273623 C 43.395538,34.491345 45.678166,33.73453 49.865786,34.341796 C 53.01637,34.798678 54.430904,35.577006 60.531529,40.210557 C 62.686667,41.847418 63.82854,42.316113 65.550804,42.270723 C 67.495483,42.219471 67.953265,42.019406 71.444224,39.695146 C 74.341913,37.725822 77.290948,36.052836 80.849177,36.109443 C 83.848386,36.199956 85.506824,36.866762 88.354964,39.127261 C 91.474024,42.342774 95.396677,41.844608 98.103019,39.027881 C 100.46036,36.747279 101.31777,36.333984 103.82912,36.267797 C 107.40806,36.173473 109.7886,37.492035 113.16893,41.441008 C 115.32521,43.959993 116.8836,44.637111 119.95055,44.38761 C 122.90851,44.146947 123.95243,43.565162 127.09386,40.406554 C 133.41094,32.899377 140.35794,33.913659 148.03617,38.595577 C 150.56286,40.52747 153.05252,42.178261 155.73842,42.413944 C 161.8347,42.455212 174.76533,43.539508 183.9239,41.501974 C 185.81152,41.018195 186.38626,40.974242 187.6977,41.213443 C 190.1014,41.651851 190.94113,42.646036 189.65887,43.535353 C 187.96029,44.614895 186.13076,44.569594 184.19196,44.431278 z"
               id="path3183"
               style="fill:#633b01;fill-opacity:1;stroke:#633b01;stroke-width:0.22000001;stroke-linecap:round;stroke-linejoin:miter;stroke-miterlimit:4;stroke-dasharray:none;stroke-dashoffset:0;stroke-opacity:1" />
            <use
               transform="translate(0,6)"
               id="use2456"
               x="0"
               y="0"
               width="192"
               height="198"
               xlink:href="#path3183" />
          </g>
        </g>
        <g
           id="g2511">
          <path
             d="M 63.29691,184.93207 C 63.241213,182.7965 62.384965,180.2672 60.536099,176.77683 C 54.273146,165.8314 41.841826,157.53253 29.21841,162.16125 C 23.104567,164.83712 19.385325,170.13344 16.503666,175.92566 C 14.682927,180.05129 13.1515,185.3988 12.636745,189.42834 C 12.225046,192.65121 11.912106,193.17606 10.746306,192.59884 C 9.645946,192.05403 9.378404,190.1708 10.166374,188.51663 C 10.390105,188.04696 10.93538,186.2244 11.378088,184.4665 C 14.797379,170.233 23.436772,158.22753 39.088685,158.54686 C 53.680256,160.64942 60.367822,171.88696 66.037763,183.81734 C 66.754232,184.9709 67.246167,186.7782 67.071209,187.61399 C 66.904571,188.40995 65.445697,189.14707 64.705698,188.80919 C 63.496161,187.83798 63.409321,186.39799 63.29691,184.93207 z"
             id="path2486"
             style="fill:#633b01;fill-opacity:1;stroke:#633b01;stroke-width:0.22200003;stroke-linecap:round;stroke-linejoin:miter;stroke-miterlimit:4;stroke-dasharray:none;stroke-dashoffset:0;stroke-opacity:1" />
          <path
             d="M 57.339555,190.24655 C 55.592737,181.22514 50.376285,170.9237 40.968902,168.51995 C 37.402389,167.54294 33.753715,168.82281 30.554259,170.40928 C 24.136239,173.96314 20.134059,181.17108 19.640584,188.84027 C 19.675114,190.92786 19.576453,191.53556 19.127871,191.99855 C 18.685668,192.45494 17.696918,192.53711 16.698517,192.20045 C 15.592939,191.82765 15.616145,191.05782 16.792653,189.07854 C 17.128589,188.51338 17.443341,187.51603 17.597557,186.52808 C 18.22219,182.52631 19.435,179.28549 21.557535,175.94642 C 23.9113,172.24354 26.783679,169.5717 30.373499,167.74591 C 35.57519,165.15835 41.039754,165.50449 46.07963,168.11224 C 51.107633,171.00303 55.24314,176.56059 57.952101,184.06724 C 59.135049,187.34524 59.6673,188.70897 60.182463,189.78201 C 60.686998,190.83291 60.780524,191.93161 60.42635,192.64734 C 58.073317,194.7194 57.470966,192.4336 57.339555,190.24655 z"
             id="path2488"
             style="fill:#633b01;fill-opacity:1;stroke:#633b01;stroke-width:0.22200003;stroke-linecap:round;stroke-linejoin:miter;stroke-miterlimit:4;stroke-dasharray:none;stroke-dashoffset:0;stroke-opacity:1" />
          <use
             transform="matrix(0,1,-1,0,85.24206,1.022491)"
             id="use2506"
             x="0"
             y="0"
             width="192"
             height="198"
             xlink:href="#g2500" />
        </g>
      </g>
    </g>
  </g>
</svg>
