<?xml version="1.0" encoding="UTF-8" standalone="no"?>
<!-- Created with Inkscape (http://www.inkscape.org/) -->
<svg
   xmlns:dc="http://purl.org/dc/elements/1.1/"
   xmlns:cc="http://creativecommons.org/ns#"
   xmlns:rdf="http://www.w3.org/1999/02/22-rdf-syntax-ns#"
   xmlns:svg="http://www.w3.org/2000/svg"
   xmlns="http://www.w3.org/2000/svg"
   xmlns:sodipodi="http://sodipodi.sourceforge.net/DTD/sodipodi-0.dtd"
   xmlns:inkscape="http://www.inkscape.org/namespaces/inkscape"
   width="250"
   height="402"
   id="svg2"
   sodipodi:version="0.32"
   inkscape:version="0.46"
   version="1.0"
   sodipodi:docname="Escudo Río Negro.svg"
   inkscape:output_extension="org.inkscape.output.svg.inkscape">
  <defs
     id="defs4">
    <inkscape:perspective
       sodipodi:type="inkscape:persp3d"
       inkscape:vp_x="0 : 526.18109 : 1"
       inkscape:vp_y="0 : 1000 : 0"
       inkscape:vp_z="744.09448 : 526.18109 : 1"
       inkscape:persp3d-origin="372.04724 : 350.78739 : 1"
       id="perspective10" />
  </defs>
  <sodipodi:namedview
     id="base"
     pagecolor="#ffffff"
     bordercolor="#666666"
     borderopacity="1.0"
     inkscape:pageopacity="0.0"
     inkscape:pageshadow="2"
     inkscape:zoom="0.57561199"
     inkscape:cx="224.82264"
     inkscape:cy="168.45035"
     inkscape:document-units="px"
     inkscape:current-layer="layer1"
     showgrid="false"
     showguides="true"
     inkscape:guide-bbox="true"
     inkscape:window-width="1280"
     inkscape:window-height="744"
     inkscape:window-x="-4"
     inkscape:window-y="-4" />
  <metadata
     id="metadata7">
    <rdf:RDF>
      <cc:Work
         rdf:about="">
        <dc:format>image/svg+xml</dc:format>
        <dc:type
           rdf:resource="http://purl.org/dc/dcmitype/StillImage" />
      </cc:Work>
    </rdf:RDF>
  </metadata>
  <g
     inkscape:label="Capa 1"
     inkscape:groupmode="layer"
     id="layer1">
    <g
       id="g3223"
       transform="translate(-69.491256,-93.813196)">
      <path
         id="path2391"
         d="M 277.93129,382.98984 C 271.40246,376.31475 263.85531,371.86716 258.0474,371.27212 C 252.74026,370.72839 248.55784,372.51542 239.97369,378.99447 L 233.76091,383.68364 L 232.36028,382.08908 C 231.58995,381.21206 230.9526,380.37834 230.94396,380.23636 C 230.89554,379.43871 224.12825,374.21133 221.30218,372.78856 C 217.15491,370.70066 214.85494,370.24129 209.78751,370.48884 C 203.80879,370.7809 199.63038,372.35048 191.15761,377.48699 C 188.59588,379.04001 186.41918,380.31067 186.32051,380.31067 C 186.22186,380.31067 188.92026,375.28901 192.31699,369.15143 C 236.27229,289.72815 255.92671,240.78702 260.18501,200.15442 C 261.08627,191.5544 260.75717,177.58181 259.48354,170.37348 C 254.40222,141.61509 237.64581,122.41046 207.21077,110.4634 C 191.58526,104.32972 174.02308,100.75417 148.75499,98.56218 C 147.94612,98.49201 176.54292,98.40678 212.30342,98.37279 C 276.16936,98.31208 277.38703,98.32413 280.95901,99.05205 C 289.67644,100.82856 296.33807,104.31642 302.78483,110.47956 C 309.55731,116.9541 313.70517,124.38883 316.0979,134.34223 C 316.72867,136.9663 316.7658,143.04142 316.86467,259.88792 L 316.96857,382.6761 L 315.40276,381.18861 C 311.79746,377.76362 307.44257,375.24844 303.68403,374.42041 C 300.28334,373.67121 295.57208,374.09213 292.43206,375.4257 C 289.12575,376.82989 285.52781,379.37146 282.34324,382.5524 L 279.8951,384.99771 L 277.93129,382.98984 z"
         style="opacity:1;fill:#44aa00;fill-opacity:1;stroke:none;stroke-width:1;stroke-linecap:round;stroke-linejoin:miter;stroke-miterlimit:4;stroke-dasharray:none;stroke-dashoffset:0;stroke-opacity:1" />
      <path
         id="path2393"
         d="M 74.884113,251.82783 L 74.816643,98.180249 L 89.56366,98.180249 L 104.31068,98.180249 L 111.74319,103.87309 C 120.27519,110.40806 136.30376,126.65153 141.01508,133.53739 C 153.90831,152.38157 159.47574,174.66485 157.01081,197.55902 C 154.06639,224.90644 146.43342,246.21352 118.39849,305.3433 C 93.109909,358.68064 89.01239,368.04805 77.100278,399.75588 L 74.95152,405.47542 L 74.884113,251.82783 z"
         style="opacity:1;fill:#44aa00;fill-opacity:1;stroke:none;stroke-width:1;stroke-linecap:round;stroke-linejoin:miter;stroke-miterlimit:4;stroke-dasharray:none;stroke-dashoffset:0;stroke-opacity:1" />
      <path
         sodipodi:nodetypes="cccccccccc"
         id="path2389"
         d="M 107.55262,100.83396 C 223.14556,183.11542 121.97355,269.97564 80.514988,398.67994 C 112.32711,379.82372 177.00302,369.27212 198.57143,406.29075 C 230.51236,382.66 243.36448,399.04725 254.28571,405.21932 C 274.24805,395.20336 291.52608,380.4802 314.03348,402.62462 L 314.03348,379.03215 C 302.76987,367.67501 292.79842,365.50864 279.63233,380.78629 C 254.57699,354.30955 243.48041,372.26007 230.99776,379.90922 C 211.7839,354.12731 205.02788,365.61245 193.66119,371.8837 C 270.70628,234.25132 337.26473,93.936193 107.55262,100.83396 z"
         style="fill:#0044aa;fill-opacity:1;fill-rule:evenodd;stroke:#ffffff;stroke-width:6;stroke-linecap:butt;stroke-linejoin:miter;stroke-miterlimit:4;stroke-dasharray:none;stroke-opacity:1" />
      <path
         id="path3179"
         d="M 75.530263,423.67772 L 75.530263,412.46701 L 77.771013,412.48737 L 80.011763,412.50772 L 83.169612,421.98977 C 84.90643,427.2049 86.345328,431.52348 86.367165,431.58663 C 86.389003,431.64977 86.637124,431.0106 86.918548,430.16624 C 87.199972,429.32188 88.680549,424.99466 90.208718,420.55019 L 92.987207,412.46933 L 94.969229,412.46933 L 96.951246,412.46933 L 96.951246,423.67888 L 96.951246,434.88843 L 95.531163,434.88843 L 94.111074,434.88843 L 94.09158,425.47821 L 94.072081,416.068 L 90.809028,425.47711 L 87.545975,434.88623 L 86.237858,434.88733 L 84.929745,434.88843 L 81.71704,425.42557 C 79.950054,420.221 78.475396,415.91089 78.440022,415.84755 C 78.404648,415.78421 78.374657,420.0425 78.373373,425.31041 L 78.371038,434.88843 L 76.95065,434.88843 L 75.530263,434.88843 L 75.530263,423.67772 z"
         style="opacity:1;fill:#000000;fill-opacity:1;stroke:none;stroke-width:6;stroke-linecap:round;stroke-linejoin:miter;stroke-miterlimit:4;stroke-dasharray:none;stroke-dashoffset:0;stroke-opacity:1" />
      <path
         id="path3181"
         d="M 109.65796,435.19262 C 107.09165,435.01909 105.31752,434.29606 103.96603,432.87295 C 102.92,431.77148 102.37337,430.4543 102.04238,428.23771 C 101.93579,427.52389 101.91307,426.31815 101.88597,419.93597 L 101.85426,412.46933 L 103.31425,412.46933 L 104.77424,412.46933 L 104.80242,419.93597 C 104.82757,426.59897 104.84502,427.48812 104.96455,428.19721 C 105.19314,429.55328 105.54829,430.36113 106.23088,431.07775 C 106.89862,431.77877 107.79322,432.23832 108.94936,432.47422 C 109.84445,432.65686 112.00392,432.59623 112.88262,432.3638 C 114.66559,431.89216 115.67839,430.93519 116.14305,429.28311 C 116.55067,427.8338 116.54915,427.86624 116.58341,419.89758 L 116.61534,412.46933 L 118.07501,412.46933 L 119.5347,412.46933 L 119.50289,419.89758 C 119.47514,426.38128 119.45449,427.43809 119.34052,428.20877 C 119.01648,430.39994 118.49827,431.65778 117.47093,432.74681 C 116.34821,433.93695 115.04917,434.64231 113.31663,435.00251 C 112.83667,435.10229 110.81404,435.29281 110.57929,435.26035 C 110.53706,435.25451 110.12246,435.22403 109.65796,435.19262 L 109.65796,435.19262 z"
         style="opacity:1;fill:#000000;fill-opacity:1;stroke:none;stroke-width:6;stroke-linecap:round;stroke-linejoin:miter;stroke-miterlimit:4;stroke-dasharray:none;stroke-dashoffset:0;stroke-opacity:1" />
      <path
         id="path3183"
         d="M 124.51445,423.67726 L 124.51445,412.46609 L 126.03081,412.4869 L 127.54717,412.50772 L 133.42066,421.28904 L 139.29416,430.07037 L 139.31367,421.26985 L 139.33319,412.46933 L 140.75326,412.46933 L 142.17332,412.46933 L 142.17332,423.6805 L 142.17332,434.89167 L 140.66263,434.87085 L 139.15195,434.85004 L 133.27278,426.04352 C 130.03923,421.19994 127.3677,417.23533 127.33603,417.23328 C 127.30436,417.23123 127.27844,421.2028 127.27844,426.05899 L 127.27844,434.88843 L 125.89644,434.88843 L 124.51445,434.88843 L 124.51445,423.67726 z"
         style="opacity:1;fill:#000000;fill-opacity:1;stroke:none;stroke-width:6;stroke-linecap:round;stroke-linejoin:miter;stroke-miterlimit:4;stroke-dasharray:none;stroke-dashoffset:0;stroke-opacity:1" />
      <path
         id="path3185"
         d="M 147.70132,423.67888 L 147.70132,412.46933 L 149.16009,412.46933 L 150.61887,412.46933 L 150.61887,423.67888 L 150.61887,434.88843 L 149.16009,434.88843 L 147.70132,434.88843 L 147.70132,423.67888 z"
         style="opacity:1;fill:#000000;fill-opacity:1;stroke:none;stroke-width:6;stroke-linecap:round;stroke-linejoin:miter;stroke-miterlimit:4;stroke-dasharray:none;stroke-dashoffset:0;stroke-opacity:1" />
      <path
         id="path3187"
         d="M 164.48886,435.18775 C 161.23688,434.97187 158.85199,433.68316 157.24896,431.27558 C 154.80169,427.60005 154.37751,421.78152 156.25983,417.70748 C 156.90478,416.31159 158.10678,414.84585 159.29011,414.01231 C 161.10352,412.73496 163.24961,412.08545 165.65676,412.08545 C 169.19693,412.08545 171.80364,413.45773 173.4709,416.19916 C 173.87578,416.86488 174.54156,418.43413 174.4556,418.52009 C 174.37282,418.60287 171.69144,419.2151 171.64482,419.16187 C 171.62013,419.13367 171.53781,418.93786 171.4619,418.72672 C 171.20966,418.0252 170.65823,417.03517 170.23175,416.51813 C 169.52423,415.66037 168.59454,415.07282 167.43957,414.75351 C 166.94411,414.61653 166.64346,414.59149 165.50911,414.59274 C 164.31335,414.59405 164.0847,414.61582 163.43123,414.79055 C 161.53142,415.29855 160.05494,416.48701 159.18378,418.20946 C 158.38026,419.79816 157.95703,422.38409 158.13097,424.64215 C 158.36966,427.74095 159.24718,429.87678 160.8152,431.17545 C 161.43675,431.69023 162.64633,432.30075 163.4745,432.51768 C 164.41175,432.7632 165.94278,432.79873 166.91557,432.59755 C 168.2841,432.31452 169.51792,431.58067 170.3886,430.53187 C 170.90075,429.91493 171.57072,428.58297 171.80814,427.70971 C 171.89998,427.37189 171.98411,427.08563 171.99509,427.07358 C 172.01463,427.05214 174.8107,427.75587 174.86532,427.79597 C 174.94209,427.85235 174.35175,429.43421 173.95197,430.24338 C 172.19395,433.80164 168.97149,435.48534 164.48886,435.18776 L 164.48886,435.18775 z"
         style="opacity:1;fill:#000000;fill-opacity:1;stroke:none;stroke-width:6;stroke-linecap:round;stroke-linejoin:miter;stroke-miterlimit:4;stroke-dasharray:none;stroke-dashoffset:0;stroke-opacity:1" />
      <path
         id="path3189"
         d="M 179.17554,423.67888 L 179.17554,412.46933 L 180.59593,412.46933 L 182.01632,412.46933 L 182.01632,423.67888 L 182.01632,434.88843 L 180.59593,434.88843 L 179.17554,434.88843 L 179.17554,423.67888 z"
         style="opacity:1;fill:#000000;fill-opacity:1;stroke:none;stroke-width:6;stroke-linecap:round;stroke-linejoin:miter;stroke-miterlimit:4;stroke-dasharray:none;stroke-dashoffset:0;stroke-opacity:1" />
      <path
         id="path3191"
         d="M 187.31398,423.67477 L 187.31398,412.46111 L 192.93795,412.48875 C 199.04253,412.51876 199.13915,412.52493 200.4428,412.96833 C 202.35942,413.62022 203.54111,414.88775 204.18006,416.97708 C 204.3686,417.59359 204.38634,417.76118 204.38569,418.91866 C 204.38484,420.39983 204.26492,420.97087 203.71659,422.10494 C 202.72281,424.16026 201.19131,425.16249 198.43093,425.56394 C 197.76414,425.66091 196.71678,425.69964 193.89767,425.73156 L 190.23153,425.77307 L 190.23153,430.33075 L 190.23153,434.88843 L 188.77276,434.88843 L 187.31398,434.88843 L 187.31398,423.67477 z M 198.21201,422.95424 C 199.19175,422.72723 199.72483,422.47057 200.26382,421.96637 C 202.11656,420.23322 201.71964,416.68135 199.54316,415.51738 C 198.74964,415.09301 198.45612,415.0661 194.16639,415.02445 L 190.23153,414.98625 L 190.23153,419.0702 L 190.23153,423.15415 L 193.93606,423.1204 C 197.08788,423.09168 197.72584,423.06689 198.21201,422.95424 z"
         style="opacity:1;fill:#000000;fill-opacity:1;stroke:none;stroke-width:6;stroke-linecap:round;stroke-linejoin:miter;stroke-miterlimit:4;stroke-dasharray:none;stroke-dashoffset:0;stroke-opacity:1" />
      <path
         id="path3193"
         d="M 205.89739,434.83084 C 205.89915,434.79917 207.82586,429.76351 210.17897,423.64049 L 214.45735,412.50772 L 216.06171,412.50772 L 217.66607,412.50772 L 222.2219,423.63696 C 224.7276,429.75804 226.77772,434.7937 226.77772,434.82731 C 226.77772,434.86093 226.04347,434.88843 225.14604,434.88843 L 223.51435,434.88843 L 222.20776,431.49101 L 220.90116,428.0936 L 216.15672,428.0936 L 211.41228,428.0936 L 210.17908,431.49101 L 208.94589,434.88843 L 207.42004,434.88843 C 206.58082,434.88843 205.89563,434.86251 205.89739,434.83084 z M 219.92312,425.54074 C 219.9015,425.46684 219.2382,423.69616 218.44912,421.60588 C 217.66003,419.51561 216.78956,417.13166 216.51473,416.30822 C 216.23991,415.48478 216.00386,414.79963 215.99017,414.78568 C 215.97649,414.77172 215.9063,415.03084 215.83419,415.36151 C 215.54058,416.70799 214.98203,418.42408 213.87677,421.37555 C 213.23633,423.08577 212.61294,424.75281 212.49146,425.08007 L 212.2706,425.6751 L 216.11651,425.6751 C 219.74307,425.6751 219.96018,425.66744 219.92312,425.54074 z"
         style="opacity:1;fill:#000000;fill-opacity:1;stroke:none;stroke-width:6;stroke-linecap:round;stroke-linejoin:miter;stroke-miterlimit:4;stroke-dasharray:none;stroke-dashoffset:0;stroke-opacity:1" />
      <path
         id="path3195"
         d="M 229.18132,423.67888 L 229.18132,412.46933 L 230.64009,412.46933 L 232.09887,412.46933 L 232.09887,422.37366 L 232.09887,432.27798 L 237.62687,432.27798 L 243.15486,432.27798 L 243.15486,433.58321 L 243.15486,434.88843 L 236.16809,434.88843 L 229.18132,434.88843 L 229.18132,423.67888 z"
         style="opacity:1;fill:#000000;fill-opacity:1;stroke:none;stroke-width:6;stroke-linecap:round;stroke-linejoin:miter;stroke-miterlimit:4;stroke-dasharray:none;stroke-dashoffset:0;stroke-opacity:1" />
      <path
         id="path3197"
         d="M 247.30086,423.67888 L 247.30086,412.46933 L 248.75964,412.46933 L 250.21841,412.46933 L 250.21841,423.67888 L 250.21841,434.88843 L 248.75964,434.88843 L 247.30086,434.88843 L 247.30086,423.67888 z"
         style="opacity:1;fill:#000000;fill-opacity:1;stroke:none;stroke-width:6;stroke-linecap:round;stroke-linejoin:miter;stroke-miterlimit:4;stroke-dasharray:none;stroke-dashoffset:0;stroke-opacity:1" />
      <path
         id="path3199"
         d="M 255.51607,423.67405 L 255.51607,412.45968 L 260.71777,412.48895 C 266.35707,412.52068 266.64695,412.54005 267.93034,412.97087 C 270.92828,413.97725 272.99978,416.58783 273.70656,420.25031 C 274.50305,424.3776 273.7434,428.80893 271.7906,431.42687 C 270.1426,433.6362 268.14083,434.58945 264.68672,434.80979 C 264.01344,434.85274 261.67461,434.88801 259.48932,434.88816 L 255.51607,434.88843 L 255.51607,423.67405 z M 264.87149,432.19583 C 267.86185,431.91571 269.46848,430.65021 270.41304,427.83089 C 271.23991,425.36284 271.2021,421.2187 270.33274,419.03023 C 269.73043,417.51399 268.55152,416.18619 267.29794,415.61214 C 266.27904,415.14555 264.81525,415.00346 261.02488,415.00318 L 258.43363,415.003 L 258.43363,423.64049 L 258.43363,432.27798 L 261.21682,432.27772 C 262.74758,432.27758 264.39218,432.24072 264.87149,432.19583 L 264.87149,432.19583 z"
         style="opacity:1;fill:#000000;fill-opacity:1;stroke:none;stroke-width:6;stroke-linecap:round;stroke-linejoin:miter;stroke-miterlimit:4;stroke-dasharray:none;stroke-dashoffset:0;stroke-opacity:1" />
      <path
         id="path3201"
         d="M 278.70096,427.15307 C 280.33509,422.89863 282.2718,417.85433 283.00477,415.94353 L 284.33744,412.46933 L 285.92669,412.46933 C 287.12637,412.46933 287.5254,412.49286 287.55448,412.56531 C 287.57567,412.61809 289.63509,417.64852 292.13097,423.74403 C 294.62684,429.83955 296.66893,434.84066 296.66893,434.85761 C 296.66893,434.87456 295.92859,434.88843 295.02372,434.88843 L 293.37852,434.88843 L 293.22635,434.48534 C 292.95285,433.76087 291.00706,428.71622 290.87179,428.38093 L 290.73992,428.05404 L 286.00782,428.07382 L 281.27572,428.0936 L 280.04692,431.49077 L 278.81811,434.88795 L 277.27397,434.88819 L 275.72982,434.88843 L 278.70096,427.15307 z M 289.79942,425.54074 C 289.03958,423.60412 286.89391,417.81112 286.45091,416.50016 C 286.1227,415.52893 285.83691,414.7861 285.81582,414.84944 C 285.79471,414.91278 285.70467,415.29283 285.6157,415.694 C 285.31945,417.02968 284.91649,418.23602 283.53159,421.93315 C 282.77609,423.95005 282.15794,425.61708 282.15794,425.63767 C 282.15794,425.65826 283.88913,425.6751 286.00504,425.6751 C 289.63783,425.6751 289.8492,425.66762 289.79942,425.54074 z"
         style="opacity:1;fill:#000000;fill-opacity:1;stroke:none;stroke-width:6;stroke-linecap:round;stroke-linejoin:miter;stroke-miterlimit:4;stroke-dasharray:none;stroke-dashoffset:0;stroke-opacity:1" />
      <path
         id="path3203"
         d="M 299.19205,423.67405 L 299.19205,412.45968 L 304.39374,412.48895 C 308.8851,412.51422 309.69416,412.53618 310.31841,412.64972 C 312.23381,412.99812 313.64039,413.75377 314.90947,415.11612 C 316.64102,416.97495 317.54413,419.5255 317.66941,422.91067 C 317.8163,426.88035 316.7165,430.31189 314.62031,432.42429 C 313.15074,433.90522 311.26324,434.62477 308.36269,434.80979 C 307.68942,434.85274 305.35058,434.88801 303.1653,434.88816 L 299.19205,434.88843 L 299.19205,423.67405 z M 308.54747,432.19583 C 311.53783,431.91571 313.14445,430.65021 314.08901,427.83089 C 314.92159,425.3458 314.87831,421.21931 313.99638,418.99918 C 313.34502,417.35947 311.95064,415.91528 310.57772,415.4584 C 309.58542,415.12818 308.92495,415.07288 305.43024,415.02744 L 302.1096,414.98426 L 302.1096,423.63112 L 302.1096,432.27798 L 304.89279,432.27772 C 306.42355,432.27758 308.06815,432.24072 308.54747,432.19583 L 308.54747,432.19583 z"
         style="opacity:1;fill:#000000;fill-opacity:1;stroke:none;stroke-width:6;stroke-linecap:round;stroke-linejoin:miter;stroke-miterlimit:4;stroke-dasharray:none;stroke-dashoffset:0;stroke-opacity:1" />
      <path
         id="path3205"
         d="M 301.26505,482.06291 C 298.13935,481.62339 295.50095,480.28381 293.31789,478.02796 C 290.5678,475.18618 289.20231,471.9978 289.08021,468.13318 C 289.03449,466.68595 289.11249,465.68451 289.36895,464.42604 C 290.24663,460.11916 293.36179,456.11227 297.29215,454.23478 C 300.06308,452.91114 303.51409,452.53311 306.75999,453.19766 C 309.77146,453.81422 312.53288,455.48462 314.58598,457.93164 C 316.31984,459.99818 317.36515,462.19542 317.86861,464.83174 C 318.01438,465.59501 318.03714,465.97484 318.03654,467.63412 C 318.03588,469.43761 318.02302,469.61386 317.82347,470.55168 C 317.29306,473.04435 316.24682,475.21698 314.66168,477.11746 C 312.48613,479.72581 309.76307,481.34802 306.52432,481.96513 C 305.40055,482.17925 302.47873,482.23358 301.26505,482.06291 L 301.26505,482.06291 z M 305.58447,478.69294 C 307.76244,478.30748 309.69672,477.29836 311.24615,475.73922 C 313.57068,473.40013 314.76276,470.07783 314.47337,466.74504 C 314.21544,463.77458 313.23522,461.66621 311.13622,459.56722 C 308.88003,457.31103 306.62852,456.35643 303.56838,456.35859 C 300.54995,456.36072 298.24862,457.33101 296.03982,459.53279 C 294.32919,461.23798 293.39286,462.93466 292.88252,465.25401 C 292.7394,465.90442 292.71287,466.26827 292.70895,467.63412 C 292.70489,469.04965 292.72598,469.34313 292.88172,470.03849 C 293.669,473.55378 295.69176,476.2407 298.68308,477.74471 C 299.72542,478.26879 301.13997,478.66607 302.57027,478.83645 C 303.08741,478.89805 304.91799,478.8109 305.58447,478.69294 L 305.58447,478.69294 z"
         style="opacity:1;fill:#000000;fill-opacity:1;stroke:none;stroke-width:6;stroke-linecap:round;stroke-linejoin:miter;stroke-miterlimit:4;stroke-dasharray:none;stroke-dashoffset:0;stroke-opacity:1" />
      <path
         id="path3207"
         d="M 273.1644,467.55735 L 273.1644,453.62219 L 274.96742,453.62219 L 276.77045,453.62219 L 276.79089,455.67099 L 276.81134,457.71978 L 277.30673,457.03379 C 278.0219,456.04344 279.42598,454.65806 280.27868,454.10139 C 281.57269,453.25662 282.65725,452.91019 284.02845,452.90363 C 284.68125,452.9005 285.01064,452.93868 285.47917,453.07176 C 286.05248,453.23461 287.21473,453.72367 287.21473,453.80206 C 287.21473,453.82759 285.82416,456.10185 285.41321,456.74842 C 285.40736,456.75762 285.14523,456.67728 284.83068,456.56989 C 283.15493,455.99776 281.48603,456.4439 279.94474,457.87603 C 278.95374,458.79685 278.26584,459.95583 277.69252,461.67057 C 276.94353,463.91072 276.77627,466.48971 276.77421,475.83014 L 276.77296,481.4925 L 274.96868,481.4925 L 273.1644,481.4925 L 273.1644,467.55735 z"
         style="opacity:1;fill:#000000;fill-opacity:1;stroke:none;stroke-width:6;stroke-linecap:round;stroke-linejoin:miter;stroke-miterlimit:4;stroke-dasharray:none;stroke-dashoffset:0;stroke-opacity:1" />
      <path
         id="path3209"
         d="M 250.72551,492.39571 C 246.43911,492.05983 242.76758,490.47831 240.67486,488.06635 C 239.96239,487.2452 239.12873,485.98457 238.4981,484.77475 L 237.98784,483.79583 L 239.90975,483.79583 L 241.83165,483.79583 L 242.19169,484.35247 C 243.51409,486.397 245.26671,487.78407 247.44387,488.50919 C 250.29569,489.45902 254.02964,489.46643 256.83466,488.52781 C 258.88377,487.84213 260.69472,486.52332 261.68208,484.99771 C 262.33255,483.99265 262.6741,482.98499 262.9156,481.35857 C 263.11555,480.01197 263.26987,476.14635 263.12123,476.20763 C 263.08709,476.22171 262.83418,476.49235 262.55921,476.80906 C 259.89073,479.88256 255.69251,481.63473 251.39792,481.46734 C 249.1788,481.38084 247.36858,480.92332 245.44765,479.96344 C 242.74412,478.6125 240.78198,476.76466 239.36699,474.23701 C 237.32728,470.59339 237.06005,465.94017 238.66151,461.95257 C 239.74158,459.26323 241.59091,456.98068 243.98733,455.37917 C 247.75216,452.86315 252.29053,452.20724 256.40597,453.58436 C 258.52746,454.29425 260.4564,455.5945 262.27451,457.54018 C 262.70735,458.00341 263.08891,458.38241 263.1224,458.38241 C 263.1559,458.38241 263.1833,457.31136 263.1833,456.0023 L 263.1833,453.62219 L 264.95331,453.62219 L 266.72333,453.62219 L 266.69135,466.38649 C 266.65889,479.34441 266.65636,479.46078 266.36117,481.56928 C 265.87117,485.06928 264.36426,487.7551 261.81858,489.66566 C 260.02293,491.01332 257.6211,491.94169 255.08325,492.26905 C 253.92307,492.4187 251.80465,492.48028 250.72551,492.39572 L 250.72551,492.39571 z M 253.58609,478.10897 C 254.0717,478.06411 254.7953,477.95725 255.19407,477.8715 C 259.23588,477.00239 262.16972,474.10471 263.03276,470.1294 C 263.48087,468.06528 263.41121,465.79898 262.83802,463.7942 C 262.57437,462.87207 261.84844,461.40475 261.26063,460.60586 C 259.75461,458.55901 257.40465,457.0771 254.73464,456.4905 C 253.80574,456.28641 251.14878,456.28678 250.20787,456.49112 C 247.71055,457.03347 245.41587,458.33727 243.98007,460.02967 C 241.59919,462.83606 240.68938,466.37344 241.42417,469.96718 C 242.02986,472.9295 244.06315,475.57391 246.79128,476.94741 C 248.7656,477.9414 251.09305,478.33927 253.58609,478.10897 L 253.58609,478.10897 z"
         style="opacity:1;fill:#000000;fill-opacity:1;stroke:none;stroke-width:6;stroke-linecap:round;stroke-linejoin:miter;stroke-miterlimit:4;stroke-dasharray:none;stroke-dashoffset:0;stroke-opacity:1" />
      <path
         id="path3211"
         d="M 166.42692,462.60518 L 166.42692,443.71786 L 166.83001,443.7232 L 167.23309,443.72854 L 179.78625,458.19547 C 186.69048,466.15229 192.36532,472.66255 192.39699,472.66273 C 192.42866,472.66291 192.45457,466.15039 192.45457,458.19046 L 192.45457,443.71786 L 194.25885,443.71786 L 196.06312,443.71786 L 196.06312,462.60518 L 196.06312,481.4925 L 195.66004,481.48787 L 195.25696,481.48324 L 182.81897,467.20906 C 175.97807,459.35826 170.35506,452.93405 170.32339,452.93303 C 170.29172,452.93202 170.26581,459.35749 170.26581,467.21185 L 170.26581,481.4925 L 168.34637,481.4925 L 166.42692,481.4925 L 166.42692,462.60518 z"
         style="opacity:1;fill:#000000;fill-opacity:1;stroke:none;stroke-width:6;stroke-linecap:round;stroke-linejoin:miter;stroke-miterlimit:4;stroke-dasharray:none;stroke-dashoffset:0;stroke-opacity:1" />
      <path
         id="path3213"
         d="M 215.56466,482.05898 C 212.13215,481.59601 209.38336,480.13744 207.27096,477.65815 C 205.2569,475.29427 204.0354,472.64182 203.62704,469.74551 C 203.38535,468.03131 203.51208,465.57553 203.93116,463.85228 C 205.04856,459.25755 208.59972,455.17199 212.74846,453.7081 C 216.33108,452.44397 220.70037,452.62748 224.09849,454.18479 C 227.40991,455.70237 230.2551,458.92735 231.41778,462.48108 C 231.89109,463.92776 232.22543,465.87698 232.22543,467.18973 L 232.22543,467.82607 L 219.67227,467.82607 L 207.11911,467.82607 L 207.11974,468.11398 C 207.12072,468.56054 207.26165,469.71926 207.39756,470.39812 C 208.04601,473.63722 210.19639,476.52178 213.0054,477.92059 C 214.46107,478.64548 215.45086,478.87732 217.33055,478.93369 C 219.00748,478.98398 220.05426,478.84323 221.4451,478.38045 C 224.21266,477.45959 225.86753,476.10707 227.74801,473.22906 L 228.35644,472.2979 L 229.77269,473.05299 C 230.55162,473.46829 231.22079,473.82019 231.25974,473.83501 C 231.34621,473.86789 230.67692,475.0691 230.06325,475.98245 C 227.76205,479.40738 224.33916,481.53547 220.27452,482.06829 C 219.17089,482.21297 216.66971,482.20802 215.56466,482.05897 L 215.56466,482.05898 z M 228.29902,464.46704 C 227.92465,463.03248 227.19644,461.38058 226.52313,460.43849 C 224.52695,457.64548 220.52807,455.94578 216.79968,456.3056 C 212.98187,456.67405 210.06447,458.71088 208.43339,462.14667 C 208.06153,462.92995 207.503,464.43109 207.503,464.64722 C 207.503,464.73916 209.03358,464.75496 217.93858,464.75496 L 228.37416,464.75496 L 228.29902,464.46704 z"
         style="opacity:1;fill:#000000;fill-opacity:1;stroke:none;stroke-width:6;stroke-linecap:round;stroke-linejoin:miter;stroke-miterlimit:4;stroke-dasharray:none;stroke-dashoffset:0;stroke-opacity:1" />
      <path
         id="path3215"
         d="M 75.003365,462.60518 L 75.003365,443.71786 L 79.168556,443.71996 C 83.543955,443.72217 87.238217,443.8098 88.785531,443.94808 C 91.256412,444.1689 92.861221,444.67105 94.466516,445.72568 C 95.184911,446.19764 96.402961,447.38175 96.902909,448.09419 C 97.582224,449.06224 98.104931,450.2842 98.380811,451.54919 C 98.569429,452.41406 98.617007,454.47571 98.47029,455.42647 C 98.126213,457.65616 97.202376,459.48311 95.701038,460.90285 C 93.664329,462.82887 91.116645,463.66427 86.575877,463.89505 L 85.518454,463.94879 L 92.276622,472.68744 C 95.993615,477.49369 99.03479,481.44154 99.03479,481.46043 C 99.03479,481.47933 98.008101,481.48563 96.753258,481.47445 L 94.471727,481.45411 L 87.712683,472.68693 L 80.953638,463.91975 L 79.821167,463.91508 L 78.688695,463.9104 L 78.688695,472.70145 L 78.688695,481.4925 L 76.84603,481.4925 L 75.003365,481.4925 L 75.003365,462.60518 z M 87.019078,460.29992 C 89.820169,460.12169 91.19556,459.70815 92.51764,458.64666 C 94.075056,457.39622 94.96584,455.01986 94.663099,452.92318 C 94.466612,451.56237 93.873387,450.33131 92.969351,449.40832 C 91.784529,448.19865 90.540253,447.71448 88.017188,447.48136 C 87.552683,447.43844 85.263747,447.40329 82.930664,447.40326 L 78.688695,447.40319 L 78.688695,453.85142 L 78.688695,460.29963 L 81.04961,460.32109 C 82.348113,460.33289 83.946049,460.35054 84.600579,460.36031 C 85.25511,460.37009 86.343434,460.34291 87.019078,460.29992 z"
         style="opacity:1;fill:#000000;fill-opacity:1;stroke:none;stroke-width:6;stroke-linecap:round;stroke-linejoin:miter;stroke-miterlimit:4;stroke-dasharray:none;stroke-dashoffset:0;stroke-opacity:1" />
      <path
         id="path3217"
         d="M 105.63767,467.55735 L 105.63767,453.62219 L 107.44195,453.62219 L 109.24623,453.62219 L 109.24623,467.55735 L 109.24623,481.4925 L 107.44195,481.4925 L 105.63767,481.4925 L 105.63767,467.55735 z"
         style="opacity:1;fill:#000000;fill-opacity:1;stroke:none;stroke-width:6;stroke-linecap:round;stroke-linejoin:miter;stroke-miterlimit:4;stroke-dasharray:none;stroke-dashoffset:0;stroke-opacity:1" />
      <path
         id="path3219"
         d="M 128.24871,482.13379 C 126.23289,481.90011 124.41889,481.3461 122.88228,480.49485 C 120.51952,479.18593 118.24937,476.76336 116.94173,474.15545 C 114.9666,470.2163 114.96479,464.9738 116.93721,461.0433 C 118.74032,457.45018 121.77508,454.74693 125.30315,453.59122 C 127.69139,452.80889 130.56625,452.66503 133.16782,453.19766 C 138.02597,454.1923 142.17885,457.9918 143.78599,462.91229 C 144.79015,465.98668 144.71742,469.78597 143.59676,472.79796 C 142.61392,475.43957 140.5661,478.10793 138.26559,479.74462 C 136.53022,480.97924 134.3008,481.81497 131.97444,482.10296 C 131.38113,482.17641 128.80055,482.19776 128.24871,482.13379 L 128.24871,482.13379 z M 131.9923,478.69294 C 136.87793,477.82828 140.42377,473.82108 140.87688,468.65235 C 141.10642,466.03384 140.45469,463.4447 139.0229,461.2871 C 138.38511,460.326 136.7887,458.72843 135.83119,458.09307 C 133.99978,456.87784 132.24501,456.35775 129.97621,456.35775 C 126.96288,456.35775 124.6426,457.33553 122.44811,459.53014 C 120.22095,461.75742 119.20409,464.08853 119.09727,467.21185 C 119.01634,469.57815 119.46766,471.51285 120.53925,473.39336 C 122.33693,476.54804 125.18416,478.38451 128.9781,478.83645 C 129.49524,478.89805 131.32582,478.8109 131.9923,478.69294 L 131.9923,478.69294 z"
         style="opacity:1;fill:#000000;fill-opacity:1;stroke:none;stroke-width:6;stroke-linecap:round;stroke-linejoin:miter;stroke-miterlimit:4;stroke-dasharray:none;stroke-dashoffset:0;stroke-opacity:1" />
      <path
         id="path3221"
         d="M 103.69522,448.2178 C 103.72899,448.1591 104.96587,446.39851 106.44384,444.30539 L 109.13106,440.4997 L 111.84842,440.49645 L 114.56579,440.4932 L 113.92142,441.16564 C 113.56702,441.53549 111.88035,443.29754 110.17326,445.08131 L 107.06946,448.32453 L 105.35164,448.32453 C 103.9068,448.32453 103.64358,448.30757 103.69522,448.2178 L 103.69522,448.2178 z"
         style="opacity:1;fill:#000000;fill-opacity:1;stroke:none;stroke-width:6;stroke-linecap:round;stroke-linejoin:miter;stroke-miterlimit:4;stroke-dasharray:none;stroke-dashoffset:0;stroke-opacity:1" />
    </g>
  </g>
</svg>
