<?xml version="1.0" encoding="utf-8"?>
<!-- Generator: Adobe Illustrator 21.0.0, SVG Export Plug-In . SVG Version: 6.00 Build 0)  -->
<svg version="1.1" xmlns="http://www.w3.org/2000/svg" xmlns:xlink="http://www.w3.org/1999/xlink" x="0px" y="0px"
	 viewBox="0 0 482 666" style="enable-background:new 0 0 482 666;" xml:space="preserve">
<style type="text/css">
	.st0{fill:url(#SVGID_1_);}
	.st1{fill:#C7A27F;}
	.st2{fill-rule:evenodd;clip-rule:evenodd;fill:#36582A;}
	.st3{fill-rule:evenodd;clip-rule:evenodd;fill:url(#SVGID_2_);}
	.st4{clip-path:url(#SVGID_4_);fill-rule:evenodd;clip-rule:evenodd;fill:#FFFFFF;}
	.st5{fill-rule:evenodd;clip-rule:evenodd;fill:#EBC725;}
	.st6{fill:#0C090C;}
	.st7{fill:#211915;}
	.st8{fill:#EBC725;}
	.st9{fill:#030104;}
	.st10{fill-rule:evenodd;clip-rule:evenodd;fill:#CB7419;}
	.st11{fill-rule:evenodd;clip-rule:evenodd;fill:#211915;}
	.st12{fill-rule:evenodd;clip-rule:evenodd;fill:url(#SVGID_5_);}
	.st13{fill-rule:evenodd;clip-rule:evenodd;fill:url(#SVGID_6_);}
	.st14{fill:url(#SVGID_7_);}
	.st15{fill-rule:evenodd;clip-rule:evenodd;fill:url(#SVGID_8_);}
	.st16{fill-rule:evenodd;clip-rule:evenodd;fill:url(#SVGID_9_);}
	.st17{fill-rule:evenodd;clip-rule:evenodd;fill:url(#SVGID_10_);}
	.st18{fill-rule:evenodd;clip-rule:evenodd;fill:url(#SVGID_11_);}
	.st19{fill-rule:evenodd;clip-rule:evenodd;fill:url(#SVGID_12_);}
	.st20{fill-rule:evenodd;clip-rule:evenodd;fill:#FDFDFD;}
	.st21{fill-rule:evenodd;clip-rule:evenodd;fill:#FFFFFF;}
	.st22{fill-rule:evenodd;clip-rule:evenodd;fill:url(#SVGID_13_);}
	.st23{fill:#C64E00;}
	.st24{fill-rule:evenodd;clip-rule:evenodd;fill:#A79F52;}
	.st25{fill:#403F2B;}
	.st26{clip-path:url(#SVGID_16_);}
	.st27{clip-path:url(#SVGID_20_);}
	.st28{clip-path:url(#SVGID_24_);}
	.st29{clip-path:url(#SVGID_28_);}
	.st30{clip-path:url(#SVGID_32_);}
	.st31{clip-path:url(#SVGID_36_);}
	.st32{clip-path:url(#SVGID_40_);}
	.st33{clip-path:url(#SVGID_44_);}
	.st34{clip-path:url(#SVGID_48_);}
	.st35{clip-path:url(#SVGID_52_);}
	.st36{clip-path:url(#SVGID_56_);}
	.st37{clip-path:url(#SVGID_60_);}
	.st38{fill:#5E3B1F;}
	.st39{clip-path:url(#SVGID_64_);}
	.st40{fill:#633D1A;}
	.st41{clip-path:url(#SVGID_68_);}
	.st42{clip-path:url(#SVGID_72_);}
	.st43{clip-path:url(#SVGID_76_);}
	.st44{clip-path:url(#SVGID_80_);}
	.st45{clip-path:url(#SVGID_84_);}
	.st46{fill:#AA8931;}
	.st47{clip-path:url(#SVGID_88_);}
	.st48{clip-path:url(#SVGID_92_);}
	.st49{clip-path:url(#SVGID_96_);}
	.st50{clip-path:url(#SVGID_100_);}
	.st51{clip-path:url(#SVGID_105_);}
	.st52{clip-path:url(#SVGID_110_);}
	.st53{clip-path:url(#SVGID_115_);}
</style>
<g id="Capa_3">
	<linearGradient id="SVGID_1_" gradientUnits="userSpaceOnUse" x1="12.9502" y1="332.047" x2="469.9841" y2="332.047">
		<stop  offset="0.335" style="stop-color:#F3EECA"/>
		<stop  offset="1" style="stop-color:#C69D79"/>
	</linearGradient>
	<ellipse class="st0" cx="241.5" cy="332" rx="228.5" ry="323.1"/>
	<path class="st1" d="M241.5,656.1c-61.4,0-119-33.8-162.4-95C35.8,499.9,12,418.5,12,332c0-86.5,23.8-167.8,67.1-229
		c43.3-61.3,101-95,162.4-95s119,33.8,162.4,95c43.3,61.2,67.1,142.5,67.1,229c0,86.5-23.8,167.8-67.1,229
		C360.5,622.4,302.8,656.1,241.5,656.1z M241.5,9.9c-60.7,0-117.8,33.5-160.8,94.2C37.6,165,13.9,245.9,13.9,332
		c0,86.1,23.7,167.1,66.8,227.9c43,60.8,100.1,94.2,160.8,94.2s117.8-33.5,160.8-94.2c43-60.9,66.8-141.8,66.8-227.9
		c0-86.1-23.7-167.1-66.8-227.9C359.3,43.4,302.2,9.9,241.5,9.9z"/>
</g>
<g id="Capa_2">
	<polygon class="st2" points="69.1,224.2 50.1,218.4 51.3,214.6 70.2,220.4 	"/>
	<polygon class="st2" points="71.5,216.5 52.9,210.1 54.2,206.3 69.6,211.6 72.9,202.2 76,203.3 	"/>
	<path class="st2" d="M59.1,192.7l1.6-3.7l9.9,4.2c1.6,0.7,2.6,1,3.1,1.2c0.8,0.2,1.6,0,2.3-0.4c0.7-0.4,1.3-1.1,1.7-2.1
		c0.4-1,0.6-1.9,0.4-2.6c-0.2-0.7-0.6-1.3-1.2-1.6c-0.6-0.4-1.6-0.9-3-1.5l-10.1-4.3l1.6-3.7l9.6,4.1c2.2,0.9,3.7,1.7,4.5,2.3
		c0.8,0.6,1.4,1.3,1.8,2.1c0.4,0.8,0.6,1.7,0.6,2.8c0,1-0.3,2.3-0.9,3.7c-0.7,1.7-1.5,3-2.3,3.7c-0.8,0.7-1.6,1.2-2.5,1.5
		c-0.9,0.2-1.7,0.3-2.5,0.2c-1.1-0.2-2.7-0.7-4.8-1.6L59.1,192.7z"/>
	<path class="st2" d="M79.2,179.7l1.4-3.6c1.3,0.4,2.3,0.4,3.2,0c0.9-0.4,1.6-1.1,2.1-2.2c0.6-1.1,0.8-2.1,0.6-2.9
		c-0.2-0.8-0.6-1.4-1.3-1.7c-0.4-0.2-0.8-0.3-1.3-0.2c-0.4,0.1-0.9,0.4-1.4,0.9c-0.4,0.3-1.1,1.2-2.2,2.5c-1.4,1.7-2.7,2.7-3.8,3.1
		c-1.5,0.6-3,0.5-4.4-0.2c-0.9-0.5-1.6-1.1-2.1-2c-0.5-0.9-0.7-1.9-0.7-3.1c0.1-1.2,0.5-2.4,1.2-3.8c1.1-2.2,2.5-3.6,4-4.2
		c1.5-0.6,3.1-0.6,4.8,0.2l-1.7,3.6c-1-0.3-1.8-0.3-2.5,0c-0.7,0.3-1.2,0.9-1.8,1.9c-0.5,1-0.7,1.9-0.6,2.8c0.1,0.5,0.4,0.9,0.8,1.1
		c0.4,0.2,0.9,0.2,1.3,0c0.6-0.3,1.6-1.1,2.9-2.7c1.3-1.5,2.4-2.6,3.2-3.2c0.9-0.6,1.8-1,2.8-1c1-0.1,2.1,0.2,3.2,0.7
		c1,0.5,1.8,1.3,2.4,2.3c0.6,1,0.9,2.1,0.8,3.4c-0.1,1.2-0.5,2.6-1.3,4.2c-1.1,2.2-2.5,3.7-4.2,4.3
		C83.2,180.5,81.3,180.4,79.2,179.7z"/>
	<polygon class="st2" points="96.5,161.2 82.4,152.8 79.4,157.8 76.5,156.1 84.6,142.6 87.5,144.3 84.4,149.4 98.6,157.8 	"/>
	<path class="st2" d="M103.3,150.3L87,139l4.8-6.9c1.2-1.7,2.2-2.9,3.1-3.5c0.8-0.6,1.8-0.9,2.9-0.8c1.1,0,2.1,0.4,3.1,1.1
		c1.2,0.9,2,1.9,2.3,3.2c0.3,1.3,0,2.7-0.8,4.2c0.9-0.4,1.8-0.7,2.6-0.8c0.8-0.1,2.1-0.1,4,0l4.6,0.2l-2.7,3.9l-5.2-0.1
		c-1.9,0-3.1,0-3.6,0.1c-0.5,0.1-1,0.2-1.4,0.5c-0.4,0.3-0.8,0.8-1.3,1.5l-0.5,0.7l6.8,4.7L103.3,150.3z M96.2,140.5l1.7-2.4
		c1.1-1.6,1.7-2.6,1.9-3.1c0.1-0.5,0.1-0.9,0-1.4c-0.2-0.4-0.5-0.8-1-1.2c-0.5-0.4-1.1-0.5-1.6-0.5c-0.5,0.1-1,0.3-1.5,0.8
		c-0.2,0.2-0.8,1-1.7,2.3l-1.8,2.6L96.2,140.5z"/>
	<polygon class="st2" points="115.2,133.7 100,121 109.4,109.8 112,111.9 105.1,120.1 108.5,122.9 114.9,115.3 117.5,117.5 
		111.1,125.1 115.2,128.5 122.3,120.1 124.9,122.2 	"/>
	<polygon class="st2" points="133,113.5 120,98.6 124.5,94.7 136.1,102.5 129.9,90 134.5,86.1 147.5,101 144.7,103.4 134.4,91.7 
		141.7,106 138.8,108.5 125.6,99.3 135.8,111.1 	"/>
	<path class="st2" d="M139.6,81.9l3.3-2.3l6.2,8.8c1,1.4,1.7,2.3,2,2.6c0.6,0.6,1.3,0.9,2.1,0.9c0.8,0,1.7-0.3,2.6-0.9
		c0.9-0.6,1.5-1.3,1.7-2c0.2-0.7,0.2-1.4-0.1-2c-0.3-0.6-0.9-1.6-1.8-2.8l-6.3-9l3.3-2.3l6,8.5c1.4,1.9,2.2,3.4,2.6,4.3
		c0.4,0.9,0.5,1.8,0.4,2.7c-0.1,0.9-0.4,1.8-1,2.7c-0.6,0.9-1.5,1.8-2.8,2.7c-1.6,1.1-2.9,1.7-3.9,1.9c-1.1,0.2-2,0.2-2.9-0.1
		c-0.9-0.2-1.6-0.6-2.2-1.2c-0.9-0.8-1.9-2.1-3.2-3.9L139.6,81.9z"/>
	<polygon class="st2" points="168.2,86.5 158.9,69 162.3,67.2 175.7,75.1 169.5,63.4 172.8,61.7 182.1,79.1 178.5,81 165.4,73.4 
		171.5,84.8 	"/>
	<polygon class="st2" points="186.4,77.4 178.6,59.3 182.3,57.7 190.1,75.9 	"/>
	<path class="st2" d="M204.2,63.6l4.1,0c0.1,2.2-0.4,4.1-1.4,5.5c-1,1.4-2.5,2.4-4.6,3c-2.5,0.8-4.9,0.5-7-0.7
		c-2.2-1.2-3.7-3.3-4.6-6.3c-1-3.1-0.9-5.8,0.2-8.1c1.1-2.2,3-3.8,5.6-4.6c2.3-0.7,4.4-0.6,6.3,0.3c1.1,0.5,2.1,1.5,3,2.9l-3.5,2.1
		c-0.5-0.9-1.2-1.5-2.1-1.9c-0.9-0.4-1.8-0.4-2.9-0.1c-1.4,0.4-2.4,1.3-3,2.6c-0.6,1.3-0.5,3,0.2,5.3c0.7,2.4,1.7,4,2.9,4.7
		c1.2,0.8,2.5,0.9,3.8,0.5c1-0.3,1.8-0.9,2.3-1.8C204.1,66.2,204.3,65,204.2,63.6z"/>
	<polygon class="st2" points="213.9,68.8 210.1,49.4 214.1,48.7 217.8,68.1 	"/>
	<path class="st2" d="M222.2,67.2l-1.7-19.7l6.4-0.6c2.4-0.2,4-0.3,4.8-0.1c1.2,0.2,2.2,0.8,3,1.7c0.9,0.9,1.3,2.2,1.5,3.7
		c0.1,1.2,0,2.2-0.4,3.1c-0.4,0.9-0.9,1.6-1.5,2.1c-0.6,0.5-1.3,0.9-2,1.1c-0.9,0.3-2.3,0.5-4.1,0.6l-2.6,0.2l0.7,7.4L222.2,67.2z
		 M224.7,50.5l0.5,5.6l2.2-0.2c1.6-0.1,2.6-0.3,3.1-0.6c0.5-0.3,0.9-0.6,1.2-1.1c0.3-0.5,0.4-1,0.3-1.6c-0.1-0.7-0.3-1.3-0.8-1.7
		c-0.5-0.4-1-0.7-1.7-0.7c-0.5,0-1.4,0-2.9,0.1L224.7,50.5z"/>
	<path class="st2" d="M259.3,66.7l-4.4-0.2l-1.5-4.6l-7.9-0.4l-1.9,4.4l-4.2-0.2l8.8-19.3l4.2,0.2L259.3,66.7z M252.3,58.5l-2.3-7.5
		l-3.1,7.2L252.3,58.5z"/>
	<polygon class="st2" points="262.2,67.4 266,48.2 269.9,48.9 266.8,64.9 276.6,66.8 276,70.1 	"/>
	<polygon class="st2" points="279.1,71.1 284.9,52.3 288.7,53.4 282.9,72.3 	"/>
	<path class="st2" d="M295,55.2l6.7,2.8c1.5,0.6,2.6,1.2,3.3,1.8c0.9,0.8,1.6,1.7,2,2.8c0.4,1.1,0.6,2.4,0.5,3.7
		c-0.1,1.3-0.5,2.8-1.2,4.5c-0.6,1.5-1.4,2.7-2.2,3.6c-1,1.1-2.1,1.9-3.3,2.4c-0.9,0.4-2,0.5-3.2,0.4c-0.9-0.1-2.1-0.4-3.4-1
		l-6.9-2.9L295,55.2z M297.3,59.9l-5.1,12l2.8,1.2c1,0.4,1.8,0.7,2.3,0.8c0.7,0.1,1.3,0.1,1.8-0.1c0.6-0.2,1.1-0.6,1.7-1.3
		c0.6-0.7,1.2-1.8,1.8-3.2c0.6-1.4,0.9-2.5,1-3.4c0.1-0.9,0-1.6-0.3-2.2c-0.3-0.6-0.7-1.1-1.3-1.6c-0.5-0.3-1.5-0.8-3-1.5
		L297.3,59.9z"/>
	<path class="st2" d="M321.7,90.5l-3.8-2.2l0.8-4.7l-6.9-3.9l-3.7,3.1l-3.7-2.1l16.6-13.3l3.7,2.1L321.7,90.5z M319.3,80l1.3-7.7
		l-6,5L319.3,80z"/>
	<path class="st2" d="M336,76.4l5.8,4.4c1.3,1,2.2,1.8,2.8,2.6c0.7,1,1.2,2.1,1.3,3.2c0.1,1.2,0,2.4-0.4,3.7
		c-0.4,1.3-1.2,2.6-2.3,4.1c-1,1.3-2,2.3-3,3c-1.3,0.9-2.5,1.4-3.8,1.5c-1,0.1-2,0-3.2-0.4c-0.9-0.3-1.9-0.9-3.1-1.8l-6-4.5
		L336,76.4z M337.1,81.4l-7.9,10.5l2.4,1.8c0.9,0.7,1.6,1.1,2,1.3c0.6,0.3,1.2,0.4,1.8,0.3c0.6,0,1.2-0.3,2-0.9
		c0.8-0.5,1.6-1.4,2.5-2.7c0.9-1.2,1.5-2.2,1.8-3.1c0.3-0.8,0.4-1.6,0.2-2.2c-0.1-0.7-0.4-1.3-0.9-1.9c-0.4-0.4-1.2-1.1-2.5-2.1
		L337.1,81.4z"/>
	<path class="st2" d="M360.6,96.2l5.1,5.2c1.1,1.2,1.9,2.2,2.4,3c0.6,1.1,0.8,2.2,0.8,3.4c-0.1,1.2-0.4,2.4-1,3.6
		c-0.6,1.2-1.6,2.4-2.9,3.7c-1.2,1.1-2.3,2-3.5,2.5c-1.4,0.6-2.7,0.9-4,0.9c-1,0-2-0.3-3.1-0.9c-0.8-0.4-1.7-1.2-2.8-2.2l-5.2-5.4
		L360.6,96.2z M361,101.4l-9.5,9.1l2.1,2.1c0.8,0.8,1.4,1.3,1.8,1.6c0.6,0.4,1.1,0.5,1.7,0.6c0.6,0,1.3-0.1,2.1-0.6
		c0.8-0.4,1.8-1.2,2.9-2.2c1.1-1.1,1.9-2,2.3-2.7c0.4-0.8,0.6-1.5,0.6-2.1c0-0.7-0.2-1.3-0.6-2c-0.3-0.5-1-1.3-2.1-2.5L361,101.4z"
		/>
	<polygon class="st2" points="360.6,124.6 376.1,112.2 385.3,123.5 382.7,125.6 376,117.4 372.6,120.1 378.8,127.8 376.2,129.9 
		370,122.2 365.8,125.6 372.7,134.2 370.1,136.3 	"/>
	<path class="st2" d="M386.6,160.9l-2.3-3.7l2.9-3.8l-4.2-6.7l-4.7,1L376,144l20.9-3.9l2.2,3.6L386.6,160.9z M389.3,150.5l4.8-6.2
		l-7.7,1.6L389.3,150.5z"/>
	<polygon class="st2" points="390.4,167.4 397.7,163.4 404.2,151.5 406.5,155.6 401.9,163.5 411,163.7 413.2,167.7 399.6,166.9 
		392.3,170.9 	"/>
	<path class="st2" d="M402.1,175.9l2,3.4c-1.1,0.8-1.8,1.6-2,2.5c-0.3,0.9-0.1,1.9,0.4,3c0.5,1.2,1.2,1.9,2,2.3
		c0.8,0.4,1.5,0.4,2.2,0.1c0.4-0.2,0.7-0.5,0.9-0.9c0.2-0.4,0.2-0.9,0.2-1.7c-0.1-0.5-0.2-1.6-0.6-3.3c-0.4-2.2-0.5-3.8-0.1-4.9
		c0.5-1.6,1.4-2.7,2.8-3.3c0.9-0.4,1.9-0.6,2.9-0.4c1,0.1,2,0.6,2.9,1.4c0.9,0.8,1.6,1.9,2.3,3.2c1.1,2.2,1.3,4.2,0.9,5.8
		c-0.5,1.6-1.5,2.8-3.1,3.6l-1.9-3.5c0.9-0.6,1.4-1.2,1.5-1.9c0.2-0.7,0-1.6-0.5-2.6c-0.5-1.1-1.1-1.8-1.8-2.2
		c-0.5-0.3-0.9-0.3-1.4-0.1c-0.4,0.2-0.7,0.5-0.8,1c-0.2,0.6-0.1,1.9,0.4,3.9s0.6,3.5,0.5,4.5c0,1.1-0.3,2-0.9,2.8
		c-0.5,0.8-1.4,1.5-2.5,2c-1,0.5-2.1,0.6-3.3,0.5c-1.2-0.2-2.2-0.6-3.1-1.5c-0.9-0.8-1.7-2-2.5-3.6c-1.1-2.3-1.4-4.2-0.9-5.9
		C399,178.5,400.2,177.1,402.1,175.9z"/>
	<path class="st2" d="M404.5,196.6l18.5-7.1l5.3,13.7l-3.1,1.2l-3.8-10l-4.1,1.6l3.6,9.3l-3.1,1.2l-3.6-9.3l-5,1.9l4,10.3l-3.1,1.2
		L404.5,196.6z M426,193.9l4.4,0.3l1.5,4l-5.1-2L426,193.9z"/>
	<polygon class="st2" points="411.1,214.3 430.1,208.5 431.3,212.2 421,223.8 433.6,219.9 434.7,223.5 415.7,229.3 414.6,225.4 
		424.6,214 412.2,217.8 	"/>
	<path class="st2" d="M207.1,595.6l3.5,2.2c-1.2,2-2.6,3.3-4.2,4c-1.6,0.7-3.5,0.7-5.6,0.2c-2.6-0.7-4.5-2.2-5.7-4.4
		c-1.2-2.2-1.4-4.9-0.6-8c0.9-3.3,2.4-5.6,4.6-6.9c2.2-1.4,4.6-1.7,7.4-0.9c2.4,0.6,4.2,1.9,5.3,3.7c0.7,1.1,1,2.5,1,4.2l-4.2-0.1
		c0-1.1-0.2-2-0.8-2.8c-0.6-0.8-1.4-1.3-2.4-1.6c-1.5-0.4-2.8-0.2-4,0.6c-1.2,0.8-2.1,2.4-2.7,4.7c-0.7,2.5-0.7,4.4-0.1,5.7
		c0.6,1.3,1.6,2.1,3.1,2.5c1.1,0.3,2,0.2,3-0.3C205.5,597.9,206.4,597,207.1,595.6z"/>
	<polygon class="st2" points="215.6,605 218.1,584.8 222.2,585.3 221.2,593.2 229.2,594.2 230.2,586.3 234.2,586.8 231.8,606.9 
		227.7,606.4 228.8,597.6 220.8,596.6 219.7,605.5 	"/>
	
		<rect x="230.3" y="594.7" transform="matrix(1.745765e-02 -0.9998 0.9998 1.745765e-02 -360.3796 826.8234)" class="st2" width="20.3" height="4.1"/>
	<polygon class="st2" points="248.8,606.9 247,586.8 251.1,586.4 252.6,603.1 262.7,602.2 263,605.6 	"/>
	<polygon class="st2" points="269.1,604.7 264.5,584.9 279.2,581.5 280,584.8 269.3,587.3 270.3,591.7 280.2,589.4 281,592.7 
		271.1,595 272.3,600.4 283.4,597.8 284.1,601.2 	"/>
</g>
<g id="Capa_4">
	<linearGradient id="SVGID_2_" gradientUnits="userSpaceOnUse" x1="91.3753" y1="185.1437" x2="396.5887" y2="185.1437">
		<stop  offset="0" style="stop-color:#00B5E7"/>
		<stop  offset="0.5567" style="stop-color:#005DBB"/>
	</linearGradient>
	<path class="st3" d="M91.8,236.8c0,0,11.9,0.4,16.3-4.8c4.4-5.3,13.2-34.3,31.2-32.1c0,0,6.2,1.5,6.8-3.7
		c0.7-5.3-6.6-20.7,6.4-38.5c0,0,19.1-11,32.8-7.3c0,0,29-32.1,56.1-29.2c27,2.9,45.5,11.7,55.6,28.1c0,0,46.4-6.4,40.9,47.7
		c0,0,15.2,5.9,18.5,6.6c3.3,0.7,15.8,30.1,22.6,31.4c6.8,1.3,16.1,2,16.1,2l1.5-1.8v14.1l-305.2-5.3L91.8,236.8z"/>
	<g>
		<defs>
			<path id="SVGID_3_" d="M118.9,240.1c0,0,36.7-22.4,38-24.4c1.3-2,4.8-0.2,5.9,1.3c0,0,5.1-5.9,6.6,0c1.5,5.9,5.3,2.2,6.6,0.2
				c1.3-2,7.5-4.4,10.1-5.3c2.6-0.9,12.8-12.8,14.1-15.8c1.3-3.1,5.1-7.3,8.8-1.8c3.7,5.5,8.4,4,10.8,4.8c2.4,0.9,11.7,7.7,11.7,7.7
				l26.8,9.5c0,0,4-0.2,6.8,1.5c2.9,1.8,3.7,0,4.6-1.1c0.9-1.1,3.1-3.7,5.1-1.3c2,2.4,4.2-0.7,5.1-1.8c0.9-1.1,5.1-4,7.7,0
				c2.6,4,8.4,7,10.6,2.6c2.2-4.4,7.9-13.2,12.5-5.9c4.6,7.3,7,9.9,7,9.9s3.1,1.8,4-0.2c0.9-2,4.2-5.1,6.4-2.4
				c2.2,2.6,2.9,4.6,5.3,0.9c2.4-3.7,3.7-3.7,5.7-0.9c2,2.9,13.6,20,31.2,25.9L118.9,240.1z"/>
		</defs>
		<use xlink:href="#SVGID_3_"  style="overflow:visible;fill-rule:evenodd;clip-rule:evenodd;fill:#01512C;"/>
		<clipPath id="SVGID_4_">
			<use xlink:href="#SVGID_3_"  style="overflow:visible;"/>
		</clipPath>
		<path class="st4" d="M148.5,217.4l3.7,9.5c0,0,1.1,2.2,4.2,0c3.1-2.2,3.1-5.7,8.4-1.8c5.3,4,7.5,3.3,9.9,1.1
			c2.4-2.2,5.7-4,6.6-2.6c0.9,1.3,2.2,0.9,3.5-0.2c1.3-1.1,3.7-2.9,5.7-0.9c2,2,3.5,2.6,5.7-0.9c2.2-3.5,4.2-9.2,8.1-4.4
			c4,4.8,5.7,8.6,10.8,5.3c5.1-3.3,15-4.4,16.3-3.5c1.3,0.9,17.4,0.9,17.4,0.9l6.6,2c0,0,9.9,4.6,13.9,1.3c4-3.3,7-0.4,8.6,0.4
			c1.5,0.9,4,2,5.9,1.1c2-0.9,4.8-2,6.4,1.5c1.5,3.5,4,4,7,0.9c3.1-3.1,4.4-5.7,9-2.2c4.6,3.5,4.4,3.5,7,1.8
			c2.6-1.8,5.3-0.4,6.8,1.1s8.4,3.1,11.7,0.2c3.3-2.9,15.8-4.2,18.3-2.6L344,193L193,178.7l-54.5,20.9L148.5,217.4z"/>
	</g>
	<polygon class="st5" points="226.1,168.1 258.6,164.1 262.7,144.6 260.4,144.1 256.9,149.2 254.3,141.9 252.9,141.9 249.7,147.6 
		246.2,140.2 245.2,140.9 242.9,147.2 239.7,140.9 238.9,140.9 238.1,141.9 236.6,148 232.6,142.4 231.1,143.3 230.2,150.1 
		224.6,144.6 223.7,145.6 223.9,146.9 223.4,153.3 218.2,149 216.6,149.7 216.8,150.5 	"/>
	<path class="st6" d="M225.8,168.6l-9.5-18l-0.3-1.3l2.3-0.9l4.7,3.9l0.5-5.5l-0.3-1.4l1.4-1.6l5.3,5.2l0.8-6.1l2.1-1.2l3.7,5
		l1.2-5.1l1-1.2l1.4-0.1l2.8,5.6l2-5.4l1.6-1.1l3.3,7.1l2.9-5.1l2,0l2.3,6.7l3.1-4.5l3.1,0.6l-4.2,20.4L225.8,168.6z M217.2,150.4
		l9.1,17.2l31.9-3.9l3.9-18.7l-1.5-0.3l-3.8,5.6l-2.7-7.8l-0.8,0l-3.6,6.2l-3.6-7.7l-0.4,0.3l-2.6,7.2l-3.5-7l-0.3,0l-0.6,0.8
		l-1.6,6.9l-4.4-6l-1,0.6l-1,7.5l-5.9-5.9l-0.4,0.5l0.2,1.1l-0.6,7.5l-5.7-4.7l-1,0.4L217.2,150.4z"/>
	
		<rect x="222" y="159.7" transform="matrix(0.9925 -0.1223 0.1223 0.9925 -17.7872 30.6916)" class="st7" width="38.4" height="1.1"/>
	<path class="st8" d="M215.5,150.1c-0.2-1.2,0.7-2.4,2-2.5c1.2-0.1,2.4,0.7,2.5,2c0.2,1.2-0.7,2.4-2,2.5
		C216.7,152.2,215.6,151.3,215.5,150.1z"/>
	<path class="st7" d="M217.7,152.6c-1.4,0-2.6-1.1-2.8-2.5c-0.1-0.7,0.1-1.5,0.6-2.1c0.5-0.6,1.1-1,1.9-1.1c1.6-0.2,2.9,0.9,3.1,2.4
		c0.1,0.7-0.1,1.5-0.6,2.1c-0.5,0.6-1.1,1-1.9,1.1C217.9,152.6,217.8,152.6,217.7,152.6z M217.7,148.1c-0.1,0-0.1,0-0.2,0
		c-0.5,0.1-0.9,0.3-1.1,0.6c-0.3,0.4-0.4,0.8-0.3,1.3c0.1,0.9,1,1.6,1.9,1.5c0.5-0.1,0.9-0.3,1.1-0.6c0.3-0.4,0.4-0.8,0.3-1.3
		C219.3,148.7,218.6,148.1,217.7,148.1z"/>
	<path class="st8" d="M220.7,147.1c-0.2-1.2,0.7-2.4,2-2.5c1.2-0.1,2.4,0.7,2.5,2c0.2,1.2-0.7,2.4-2,2.5
		C222,149.2,220.9,148.3,220.7,147.1z"/>
	<path class="st8" d="M220.7,147.1c-0.2-1.2,0.7-2.4,2-2.5c1.2-0.1,2.4,0.7,2.5,2c0.2,1.2-0.7,2.4-2,2.5
		C222,149.2,220.9,148.3,220.7,147.1z"/>
	<path class="st7" d="M223,149.6c-1.4,0-2.6-1.1-2.8-2.5c-0.1-0.7,0.1-1.5,0.6-2.1c0.5-0.6,1.1-1,1.9-1.1c1.6-0.2,2.9,0.9,3.1,2.4
		c0.1,0.7-0.1,1.5-0.6,2.1c-0.5,0.6-1.1,1-1.9,1.1C223.2,149.6,223.1,149.6,223,149.6z M223,145.1c-0.1,0-0.1,0-0.2,0
		c-0.5,0.1-0.9,0.3-1.1,0.6c-0.3,0.4-0.4,0.8-0.3,1.3c0.1,0.9,1,1.6,1.9,1.5c0.5-0.1,0.9-0.3,1.1-0.6c0.3-0.4,0.4-0.8,0.3-1.3
		C224.5,145.8,223.8,145.1,223,145.1z"/>
	<path class="st8" d="M228.8,142.2c-0.2-1.2,0.7-2.4,2-2.5c1.2-0.1,2.4,0.7,2.5,2c0.2,1.2-0.7,2.4-2,2.5
		C230.1,144.3,229,143.4,228.8,142.2z"/>
	<path class="st7" d="M231.1,144.7c-1.4,0-2.6-1.1-2.8-2.5c-0.1-0.7,0.1-1.5,0.6-2.1c0.5-0.6,1.1-1,1.9-1.1c1.5-0.2,2.9,0.9,3.1,2.4
		c0.1,0.7-0.1,1.5-0.6,2.1c-0.5,0.6-1.1,1-1.9,1.1C231.3,144.7,231.2,144.7,231.1,144.7z M231.1,140.2c-0.1,0-0.1,0-0.2,0
		c-0.5,0.1-0.9,0.3-1.1,0.6s-0.4,0.8-0.3,1.3c0.1,0.9,1,1.6,1.9,1.5c0.5-0.1,0.9-0.3,1.1-0.6c0.3-0.4,0.4-0.8,0.3-1.3
		C232.7,140.8,231.9,140.2,231.1,140.2z"/>
	<path class="st8" d="M236.3,140.9c-0.2-1.2,0.7-2.4,2-2.5c1.2-0.1,2.4,0.7,2.5,2c0.2,1.2-0.7,2.4-2,2.5
		C237.6,143,236.5,142.1,236.3,140.9z"/>
	<path class="st7" d="M238.6,143.4c-1.4,0-2.6-1.1-2.8-2.5c-0.1-0.7,0.1-1.5,0.6-2.1c0.5-0.6,1.1-1,1.9-1.1c1.5-0.2,2.9,0.9,3.1,2.4
		c0.1,0.7-0.1,1.5-0.6,2.1c-0.5,0.6-1.1,1-1.9,1.1C238.8,143.4,238.7,143.4,238.6,143.4z M238.6,138.9c-0.1,0-0.1,0-0.2,0
		c-0.5,0.1-0.9,0.3-1.1,0.6c-0.3,0.4-0.4,0.8-0.3,1.3c0.1,0.9,1,1.6,1.9,1.5c0.5-0.1,0.9-0.3,1.1-0.6s0.4-0.8,0.3-1.3
		C240.2,139.5,239.4,138.9,238.6,138.9z"/>
	<path class="st8" d="M243.3,140.5c-0.2-1.2,0.7-2.4,2-2.5s2.4,0.7,2.5,2c0.2,1.2-0.7,2.4-2,2.5
		C244.6,142.6,243.5,141.8,243.3,140.5z"/>
	<path class="st7" d="M245.6,143.1c-1.4,0-2.6-1.1-2.8-2.5c-0.1-0.7,0.1-1.5,0.6-2.1c0.5-0.6,1.1-1,1.9-1.1c1.5-0.2,2.9,0.9,3.1,2.4
		c0.1,0.7-0.1,1.5-0.6,2.1c-0.5,0.6-1.1,1-1.9,1.1C245.8,143,245.7,143.1,245.6,143.1z M245.6,138.5c-0.1,0-0.1,0-0.2,0
		c-0.5,0.1-0.9,0.3-1.1,0.6c-0.3,0.4-0.4,0.8-0.3,1.3c0.1,0.9,1,1.6,1.9,1.5c0.5-0.1,0.9-0.3,1.1-0.6c0.3-0.4,0.4-0.8,0.3-1.3
		C247.2,139.2,246.4,138.5,245.6,138.5z"/>
	<path class="st8" d="M251.1,141.7c-0.2-1.2,0.7-2.4,2-2.5c1.2-0.1,2.4,0.7,2.5,2c0.2,1.2-0.7,2.4-2,2.5
		C252.4,143.8,251.2,142.9,251.1,141.7z"/>
	<path class="st7" d="M253.3,144.2c-1.4,0-2.6-1.1-2.8-2.5c-0.1-0.7,0.1-1.5,0.6-2.1c0.5-0.6,1.1-1,1.9-1.1c1.6-0.2,2.9,0.9,3.1,2.4
		c0.1,0.7-0.1,1.5-0.6,2.1c-0.5,0.6-1.1,1-1.9,1.1C253.5,144.2,253.4,144.2,253.3,144.2z M253.3,139.7c-0.1,0-0.1,0-0.2,0
		c-0.5,0.1-0.9,0.3-1.1,0.6c-0.3,0.4-0.4,0.8-0.3,1.3c0.1,0.9,1,1.6,1.9,1.5c0.5-0.1,0.9-0.3,1.1-0.6c0.3-0.4,0.4-0.8,0.3-1.3
		C254.9,140.4,254.2,139.7,253.3,139.7z"/>
	<path class="st8" d="M259.9,143.8c-0.2-1.2,0.7-2.4,2-2.5c1.2-0.1,2.4,0.7,2.5,2c0.2,1.2-0.7,2.4-2,2.5
		C261.2,145.9,260,145,259.9,143.8z"/>
	<path class="st9" d="M262.1,146.2c-1.4,0-2.5-1-2.7-2.4c-0.1-0.7,0.1-1.4,0.6-2c0.4-0.6,1.1-0.9,1.8-1c1.5-0.2,2.9,0.9,3,2.4
		c0.1,0.7-0.1,1.4-0.6,2c-0.4,0.6-1.1,0.9-1.8,1C262.4,146.2,262.2,146.2,262.1,146.2z M262.1,141.7c-0.1,0-0.1,0-0.2,0
		c-0.5,0.1-0.9,0.3-1.2,0.7c-0.3,0.4-0.4,0.8-0.4,1.3c0.1,1,1,1.7,2,1.6c0.5-0.1,0.9-0.3,1.2-0.7c0.3-0.4,0.4-0.8,0.4-1.3
		C263.8,142.4,263,141.7,262.1,141.7z"/>
	<path class="st10" d="M184.3,236.8c0,0,29.2-14,29.5-21.9c0.3-7.9-0.4-48.9,17.2-49.7c0,0-0.8,0.1-2.6-3c-1.8-3-7-7.3-3.7-20.7
		c0,0,0.9-2.1,5.2,2.7c4.3,4.9,15,14.4,9.2,19.3c0,0,6.6-0.7,10.6-0.7c4,0,10.6,0.5,11.9,2.4c1.2,1.8,5.5,5.3,6.1,8.9
		c0.6,3.7,4.9,8.5,7.3,10c2.4,1.5,11.3,7.9,12.5,8.8c1.2,0.9,1.8,3.3,1.2,4.6c-0.6,1.2-2.7,2.7-2.7,2.7s0.5,4.3-1.4,4.3
		c-1.8,0-2.9,0-2.9,0s-0.3,3.3-1.8,3.3c-1.5,0-7,0-8.5-1.8c-1.5-1.8-14.6-6.4-21-6.1c0,0,2.1,12.2,1.5,15.5
		c-0.6,3.3,1.8,19.8,15.2,23.1L184.3,236.8z"/>
	<path class="st7" d="M267,239.3l-82.8-1.8l-0.3-1.3c8-3.8,28.9-15.2,29.1-21.3c0-0.6,0-1.5,0.1-2.5c0.2-11.2,1-44.7,16.1-47.6
		c-0.5-0.5-0.9-1.2-1.5-2.1c-0.2-0.4-0.6-0.8-0.9-1.3c-2.2-3-5.8-8.1-2.8-19.9l0-0.1c0.1-0.3,0.6-0.9,1.5-0.9c1.2,0,2.8,1.1,4.8,3.4
		c0.6,0.7,1.4,1.5,2.2,2.4c3.8,4.1,9.1,9.7,8.8,14.2c0,0.8-0.3,1.6-0.7,2.3c2.2-0.2,6.2-0.6,8.9-0.6c1.8,0,10.7,0.1,12.4,2.7
		c0.3,0.5,0.9,1.1,1.6,1.9c1.7,1.9,4.1,4.5,4.6,7.3c0.6,3.4,4.6,8.1,7,9.6c2.4,1.5,11.3,7.9,12.5,8.9c1.5,1.1,2.2,3.9,1.4,5.4
		c-0.5,1.1-2,2.3-2.6,2.8c0.1,0.9,0.1,3-0.8,4c-0.3,0.4-0.8,0.6-1.3,0.6h-2.3c-0.2,1.2-0.8,3.3-2.4,3.3c-4.9,0-7.9-0.7-9-2.1
		c-1.3-1.6-13.2-5.8-19.7-5.9c0.5,2.8,1.9,12,1.4,15c-0.6,3,1.6,19.1,14.7,22.4L267,239.3z M187,236.2l76,1.7
		c-10.6-5.4-12.4-19.6-11.9-22.5c0.6-3.2-1.5-15.2-1.5-15.3l-0.1-0.8l0.8,0c6.5-0.3,19.8,4.3,21.6,6.3c0.5,0.6,2.2,1.6,8,1.6
		c0.6,0,1-1.6,1.1-2.7l0.1-0.6l3.5,0c0.1,0,0.2,0,0.3-0.1c0.5-0.5,0.5-2.3,0.4-3.4l0-0.4l0.3-0.2c0.6-0.4,2.1-1.6,2.5-2.5
		c0.4-0.9,0-3-1-3.7c-1.3-1-10-7.3-12.4-8.8c-2.6-1.6-7-6.7-7.6-10.5c-0.4-2.4-2.6-4.8-4.3-6.6c-0.7-0.8-1.3-1.5-1.7-2
		c-0.9-1.3-6.5-2.1-11.3-2.1c-3.9,0-10.4,0.7-10.5,0.7l-2.2,0.2l1.7-1.4c0.9-0.8,1.4-1.6,1.4-2.7c0.2-3.9-4.8-9.3-8.5-13.2
		c-0.8-0.9-1.6-1.7-2.2-2.4c-2.3-2.7-3.5-3-3.8-3c-0.1,0-0.2,0-0.2,0c-2.8,11.1,0.5,15.7,2.6,18.7c0.4,0.5,0.7,1,1,1.4
		c1.4,2.4,2.1,2.6,2.1,2.7c0,0,0,0-0.1,0l0.1,1.4c0,0,0,0,0,0v0c0,0,0,0,0,0c-15.5,0.8-16.2,35.2-16.5,46.5c0,1,0,1.9-0.1,2.5
		C214.2,221.8,194.2,232.5,187,236.2z"/>
	<path class="st7" d="M281.5,205.2c-5.3,0-5.7-0.8-5.9-1.1c-0.2-0.3-1.4-1.1-2.4-1.6l0.6-1.2c0.6,0.3,2.4,1.2,3,2
		c0.5,0.3,2.8,0.5,4.8,0.5V205.2z"/>
	<path class="st7" d="M285.5,200.6c-3.2-0.4-4-3.6-4.1-3.7l1.3-0.3l-0.7,0.2l0.7-0.2c0,0.1,0.7,2.4,2.9,2.7L285.5,200.6z"/>
	<path class="st7" d="M248.9,201c-14.3,0-18.1-15.9-18.1-16.1l1.3-0.3c0.1,0.6,3.8,15.6,17.6,15l0.1,1.4
		C249.4,201,249.2,201,248.9,201z"/>
	<path class="st11" d="M258.6,178.2c0,0,0.4,6.2,6.4,5.5c0,0-0.7-3.7-3.1-4.8C259.5,177.8,258.6,178.2,258.6,178.2z"/>
	<linearGradient id="SVGID_5_" gradientUnits="userSpaceOnUse" x1="241.5303" y1="236.3592" x2="241.5303" y2="549.489">
		<stop  offset="0" style="stop-color:#211915"/>
		<stop  offset="0.1778" style="stop-color:#261E1B"/>
		<stop  offset="0.4103" style="stop-color:#352E2B"/>
		<stop  offset="0.6731" style="stop-color:#4C4846"/>
		<stop  offset="0.9562" style="stop-color:#6D6B6C"/>
		<stop  offset="1" style="stop-color:#737172"/>
	</linearGradient>
	<path class="st12" d="M84.8,236.4c-2.2,139,51.9,244.3,155.2,313.1c100.3-60.6,150.7-165.8,158.3-313.1H84.8z"/>
	<linearGradient id="SVGID_6_" gradientUnits="userSpaceOnUse" x1="242.1855" y1="244.5141" x2="242.1855" y2="541.3337">
		<stop  offset="0" style="stop-color:#E7C624"/>
		<stop  offset="0.2243" style="stop-color:#E5C023"/>
		<stop  offset="0.5174" style="stop-color:#E0B021"/>
		<stop  offset="0.8473" style="stop-color:#D8951D"/>
		<stop  offset="1" style="stop-color:#D3861B"/>
	</linearGradient>
	<path class="st13" d="M93.6,244.5c-2.1,131.8,49.2,231.6,147.2,296.8c95.1-57.4,142.9-157.2,150.1-296.8H93.6z"/>
	<linearGradient id="SVGID_7_" gradientUnits="userSpaceOnUse" x1="241.5304" y1="252.1049" x2="241.5304" y2="533.7429">
		<stop  offset="0.1084" style="stop-color:#008700"/>
		<stop  offset="0.5172" style="stop-color:#005615"/>
	</linearGradient>
	<path class="st14" d="M100.5,252.1c-2,125,46.7,219.7,139.6,281.6c90.2-54.5,135.6-149.2,142.4-281.6H100.5z"/>
	<linearGradient id="SVGID_8_" gradientUnits="userSpaceOnUse" x1="240.9625" y1="274.1176" x2="240.9625" y2="252.1049">
		<stop  offset="0" style="stop-color:#0068D3"/>
		<stop  offset="8.680516e-02" style="stop-color:#0060D0"/>
		<stop  offset="1" style="stop-color:#000FB1"/>
	</linearGradient>
	<path class="st15" d="M201.6,252.1c0,0,0,5.8,2,6.5c2,0.7,7.8,2.8,7.8,4.5c0,1.7,0,3.8,2,5.5c2,1.7,2.9,4.1,5.7,4.1
		c2.9,0,4.9-0.7,8.2-0.7c3.3,0,8.2,1,11.8,1.4c3.7,0.3,4.5,1.4,9.8,0c5.3-1.4,7.3-2.4,11-1.4c3.7,1,9.8,1.7,11.8,0.7
		c2-1,0.4-3.8,3.3-5.5c2.9-1.7,4.1-1.7,4.5-4.8c0.4-3.1,0.8-10.3,0.8-10.3H201.6z"/>
	<linearGradient id="SVGID_9_" gradientUnits="userSpaceOnUse" x1="205.2223" y1="388.9509" x2="205.2223" y2="433.6099">
		<stop  offset="0.4286" style="stop-color:#005DBB"/>
		<stop  offset="0.4894" style="stop-color:#0069C1"/>
		<stop  offset="0.7149" style="stop-color:#0092D6"/>
		<stop  offset="0.8928" style="stop-color:#00ACE2"/>
		<stop  offset="1" style="stop-color:#00B5E7"/>
	</linearGradient>
	<path class="st16" d="M191.9,398.7c0,0-2.9,8.6-2.7,15.6c0.2,6.9-3.8,14.9-9.5,16l36.8,3.4l9.1-1.7c0,0,6.1-0.6,5.1-5.7
		c-1.1-5.1-1.9-6.7-1.9-10.5c0-3.8,1.7-7.6,0.2-10.7c-1.5-3.2-3.8-9.1-3.6-12.8c0.2-3.8-10.3-3.6-11.6-2.5
		C212.5,390.7,191.9,398.7,191.9,398.7z"/>
	<linearGradient id="SVGID_10_" gradientUnits="userSpaceOnUse" x1="278.4821" y1="382.4565" x2="278.4821" y2="437.1884">
		<stop  offset="0.3596" style="stop-color:#005DBB"/>
		<stop  offset="0.4278" style="stop-color:#0069C1"/>
		<stop  offset="0.6804" style="stop-color:#0092D6"/>
		<stop  offset="0.8798" style="stop-color:#00ACE2"/>
		<stop  offset="1" style="stop-color:#00B5E7"/>
	</linearGradient>
	<path class="st17" d="M263.5,391.9c0,0,7.6,35.2-7.4,45.3l20.8-0.4l21.1-0.2c0,0,3.6-12.6,2.7-18.7c-0.8-6.1-1.1-12-1.1-14.9
		c0-2.9-19.8-13.1-19.8-13.1l-11.2-7.4L263.5,391.9z"/>
	<linearGradient id="SVGID_11_" gradientUnits="userSpaceOnUse" x1="212.9662" y1="306.0416" x2="212.9662" y2="344.7752">
		<stop  offset="0.2808" style="stop-color:#005DBB"/>
		<stop  offset="1" style="stop-color:#00B5E7"/>
	</linearGradient>
	<path class="st18" d="M209.6,308.6c0,0-3.6,6.9-4.2,12.6c-0.6,5.7,1.3,8.4,0.2,11.4c-1.1,2.9-1.1,10.3-6.1,12.2l20.4-0.6
		c0,0,4.4-1.7,3.2-8.2c-1.3-6.5,2.7-18.1,3.4-20.6c0.6-2.5-8.2-9.3-8.2-9.3L209.6,308.6z"/>
	<linearGradient id="SVGID_12_" gradientUnits="userSpaceOnUse" x1="254.2892" y1="302.6733" x2="254.2892" y2="345.8279">
		<stop  offset="0.3645" style="stop-color:#005DBB"/>
		<stop  offset="0.4322" style="stop-color:#0069C1"/>
		<stop  offset="0.6829" style="stop-color:#0092D6"/>
		<stop  offset="0.8808" style="stop-color:#00ACE2"/>
		<stop  offset="1" style="stop-color:#00B5E7"/>
	</linearGradient>
	<path class="st19" d="M247.5,314c0,0-3.2,8-3.2,13.9c0,5.9-0.8,14.7,3.4,17.9l14.5-1.1c0,0,1.9-0.4,2.1-6.7
		c0.2-6.3-1.5-6.5-2.3-12.8s0-10.9-0.2-14.7c-0.2-3.8-2.9-7.8-2.9-7.8L247.5,314z"/>
	<path class="st20" d="M252.5,270.7c0,0-2.1,4.4-2.3,6.5c-0.2,2.1-0.6,3.8,0,5.7c0.6,1.9-0.2,7.2-1.3,10.1c-1.1,2.9-1.1,3.8,0.2,4.8
		c1.3,1.1,1.5,2.7,0.4,6.3c-1.1,3.6-3.6,9.3-3.4,12.6c0.2,3.4,1.5,3.6,2.5,2.9c1.1-0.6,3.6-3.4,4-0.4c0.4,2.9,0.4,5.3,2.7,4.2
		c2.3-1.1,1.7-5.5,0.8-7.6c-0.8-2.1,0.2-8,2.1-9.1c1.9-1.1,2.3-4.2,2.5-7.2c0.2-2.9,0.8-7.8,0.4-10.5c-0.4-2.7-0.6-8.2,1.1-10.9
		c1.7-2.7,0.6-6.1,4-6.5c3.4-0.4,5.1-3.2,5.1-4.6c0-1.5,0.4-5.3-1.5-5.7c-1.9-0.4-5.5-0.6-5.9,1.1c-0.4,1.7-2.9,1.9-4.8,2.1
		c-1.9,0.2-4,0.2-4.8,1.9C253.6,268.2,252.5,270.7,252.5,270.7z"/>
	<path class="st21" d="M219.7,287.5c0,0-3.4,8.8-5.9,12.8c-2.5,4-5.7,8-5.7,9.9c0,1.9-1.1,5.3,1.1,4.8c2.1-0.4,1.7-3.8,3.6-4.4
		c1.9-0.6,1.9,0.8,1.7,2.5c-0.2,1.7-0.6,5.3,1.5,5.3c2.1,0-1.7,4.6,2.1,4c3.8-0.6,4.2-1.5,3.4-3.8c-0.8-2.3,1.3-2.7,1.9-1.7
		c0.6,1.1,2.9,1.5,3.4-0.4c0.4-1.9,2.3-7.2,4.2-10.1c1.9-2.9,3.4-8.8,3.6-12.8c0.2-4,0.4-6.3,1.7-7.8c1.3-1.5,2.3-4.8,2.7-7.4
		c0.4-2.5,0.6-10.3-3.4-11.2c-4-0.8-8.8-1.9-10.9-0.6c-2.1,1.3-4.8,1.5-4,3.8c0.8,2.3,2.9,2.7,2.1,7.6
		C221.8,282.9,219.7,287.5,219.7,287.5z"/>
	<path class="st21" d="M263.3,341.2c0,0,0.4,7.8,4.8,10.1c4.4,2.3,10.3,3.8,12.8,3.6c2.5-0.2,6.3,2.3,7.4,5.1
		c1.1,2.7,2.7,9.7,3.2,12.8c0.4,3.2,0.8,8,2.3,10.7c1.5,2.7,5.9,11.6,6.5,16.6c0.6,5.1,0.4,8.8-1.3,6.1c-1.7-2.7-5.3-5.1-5.7-2.1
		c-0.4,2.9-0.8,8.2-0.2,10.1c0.6,1.9-1.5,3.2-2.7,2.9c-1.3-0.2,0.4-4.2-0.6-6.7c-1.1-2.5-3.4-4.4-4-3.4c-0.6,1.1-0.4,5.9,0,8.2
		c0.4,2.3,0.2,3.6-1.3,3.6c-1.5,0-3.8-1.9-2.5-5.3c1.3-3.4-0.2-12.4-1.7-15.8c-1.5-3.4-3.6-2.7-3.6-0.8c0,1.9,1.5,8.8,0.4,11.2
		c-1.1,2.3,0,7.6,0.8,9.3c0.8,1.7-0.6,2.9-2.3,2.7c-1.7-0.2-2.1-2.5-1.3-4.6c0.8-2.1,0-15.4,0-17.9c0-2.5-1.5-10.1-3.2-10.1
		c-1.7,0-1.9,1.3-2.1,2.9c-0.2,1.7-0.4,2.9-1.3,4c-0.8,1.1-1.1,2.7-1.1,4.2c0,1.5,0.6,4.8,1.5,5.9c0.8,1.1,1.5,4,0.2,5.1
		c-1.3,1.1-2.9-0.6-3.2-3.6c-0.2-2.9-1.5-9.9-2.7-11.6c-1.3-1.7-2.3-6.7-2.1-9.5c0.2-2.7,1.5-3.4-0.4-8c-1.9-4.6-2.1-4.4-2.5-6.7
		c-0.4-2.3-1.7-6.7-4-9.9c-2.3-3.2-5.3-5.1-4.8-7.2c0.4-2.1,0.4-4.2-0.8-5.7c-1.3-1.5-1.3-3.4,1.3-3.8c2.5-0.4,5.5,0.2,7.6,0.2
		c2.1,0,3.2-0.4,4-1.1C261.6,342.2,263.3,341.2,263.3,341.2z"/>
	<path class="st21" d="M202.6,343.1c0,0-9.3,1.1-12,0.2c-2.7-0.8-6.7,0-8.2,2.7c-1.5,2.7-4.6,4-2.3,10.5c2.3,6.5,7.4,7.2,7.8,10.9
		c0.4,3.8,4.2,13.3,2.3,22.1c-1.9,8.8-1.3,14.1,0.2,16.2c1.5,2.1,4.8,6.7,5.3,1.7c0.4-5.1,1.5-8.8,2.5-5.5c1.1,3.4,0,16.8,3.2,17.1
		c3.2,0.2,3.6-2.1,3.2-7.4c-0.4-5.3,0.4-12,2.7-9.7c2.3,2.3,0.4,9.1,3.2,9.5c2.7,0.4,4.8-2.9,3.6-7.6c-1.3-4.6,4.4-2.9,3.4,1.1
		c-1.1,4-2.1,11.6,0.4,12.2c2.5,0.6,5.5-0.4,4.6-8.6c-0.8-8.2-1.3-13.1,0.8-13.7c2.1-0.6,4.8-1.9,2.7-5.3c-2.1-3.4-5.1-13.5-9.3-16
		c-4.2-2.5-9.1-5.9-9.1-10.7c0-4.8-5.3-16-1.7-16.2c3.6-0.2,13.3,1.3,14.3-0.4c1.1-1.7,2.7-3.4,1.3-5.1c-1.5-1.7-5.1-2.7-8.2-1.1
		c-3.2,1.7-2.3,1.7-5.3,2.3C205.2,343.1,202.6,343.1,202.6,343.1z"/>
	<path class="st21" d="M202.8,427.5c0,0-14.3,1.3-19.4,0.8c-5.1-0.4-9.5-0.6-9.7,2.5c-0.2,3.2-3.4,11.2,3.6,11.8
		c6.9,0.6,4.8-1.9,13.1-1.5c8.2,0.4,14.5,2.3,18.7,1.5c4.2-0.8,14.9-1.3,15.4,1.5c0.4,2.7,4.6,4.8-1.5,5.1c-6.1,0.2-10.3-1.3-12,0.8
		c-1.7,2.1-3.6,2.5-6.7,3.2c-3.2,0.6-6.1,1.7-4.8,3.4c1.3,1.7,9.7,2.5,12.6,1.1c2.9-1.5,7.8-0.2,7.6,1.5c-0.2,1.7-2.5,2.9-4.4,2.7
		c-1.9-0.2-6.7-0.2-7.2,2.5c-0.4,2.7,0.6,5.7,5.5,5.5c4.8-0.2,5.1,2.9,3.6,5.1c-1.5,2.1-4,2.5-3.2,4.8c0.8,2.3,1.9,3.4,1.9,8.4
		c0,5.1,0.4,13.5,3.2,16c2.7,2.5,9.7,8.6,15.6,7.4c5.9-1.3,10.7-4.8,10.3-8.2c-0.4-3.4-0.8-7.8,1.5-8.4c2.3-0.6,3.8-1.5,5.7-4
		c1.9-2.5,10.5-6.5,8.8-9.5c-1.7-2.9-3.6-2.5-1.1-5.3c2.5-2.7,0.2-5.3-4.2-5.7c-4.4-0.4-5.9-3.2-2.1-3.6c3.8-0.4,10.3-0.2,13.9-1.7
		c3.6-1.5,5.5-2.9,5.5-4.8c0-1.9-8-4-10.9-2.3c-2.9,1.7-4.8-2.9-2.7-3.6c2.1-0.6,7.8,0,9.7-1.5c1.9-1.5,5.9-3.8,4.4-6.7
		c-1.5-2.9-4.2-5.1,1.1-5.1c5.3,0,22.1,2.7,25.3-1.1c3.2-3.8,3.6-4.6,3.4-6.9c-0.2-2.3-1.9-4.2-4.8-3.2c-2.9,1.1,0,3.4-9.5,3.2
		c-9.5-0.2-13.7-2.5-18.5-0.4c-4.8,2.1-9.9,4.4-18.9,2.5c-9.1-1.9-14.7-4.2-18.1-3.4c-3.4,0.8-2.3-3.2-7.4-3.6
		c-5.1-0.4-4.6,0.2-10.7,0C209,428.1,202.8,427.5,202.8,427.5z"/>
	<linearGradient id="SVGID_13_" gradientUnits="userSpaceOnUse" x1="242.1855" y1="439.3833" x2="242.1855" y2="501.6209">
		<stop  offset="8.374384e-02" style="stop-color:#005DBB"/>
		<stop  offset="0.1645" style="stop-color:#0069C1"/>
		<stop  offset="0.4638" style="stop-color:#0092D6"/>
		<stop  offset="0.7" style="stop-color:#00ACE2"/>
		<stop  offset="0.8424" style="stop-color:#00B5E7"/>
	</linearGradient>
	<path class="st22" d="M242,440.1c0,0-14.1-2.1-13.7,1.1c0.4,3.2,7.6,4.4,3.8,9.5c-3.8,5.1-8.2,3.4-5.9,6.1c2.3,2.7,5.3,4.2,2.9,6.7
		c-2.3,2.5-3.8,2.7-3.2,5.3c0.6,2.5,3.6,4.4,1.7,6.7c-1.9,2.3-3.6,1.5-2.1,7.6c1.5,6.1,2.7,7.2,1.5,9.1c-1.3,1.9-3.8,6.3,0,7.6
		c3.8,1.3,14.1,3.8,13.9-0.4c-0.2-4.2-4.2-11.2,0.8-13.3c5.1-2.1,8.8-2.5,9.1-4.8c0.2-2.3-1.7-3.4-4.4-3.4c-2.7,0-3.8-3.4-2.3-4.6
		c1.5-1.3-6.5-6.9-1.9-8.4c4.6-1.5,7.4-2.9,3.8-5.9c-3.6-2.9,2.9-7.4,5.9-8.4c2.9-1.1,8.2-3.8,7.4-6.1c-0.8-2.3-2.1-6.1-11.6-4.6
		C238.2,441.2,242,440.1,242,440.1z"/>
	<path class="st23" d="M93.8,243.1c-2.6,0-4.4-0.6-4.6-0.6c-1.3-0.5-11.9-4.5-12.2-12.7c-0.4-11.4,4-17.6,13.1-18.5
		c5.1-0.5,8.2,1.3,9.9,2.9c3.6,3.4,3.6,8.2,3.6,8.8c-0.1,2.3-1.9,4-4.2,4c-2.2-0.1-4-1.9-4-4.1c0-0.1-0.1-1.8-1-2.7
		c-0.8-0.8-2.4-0.8-3.5-0.7c-4.1,0.4-6.1,2.1-5.8,10.1c0.1,1.8,3.9,4.3,6.7,5.3c0.8,0.2,9,2.1,15.9-10.6c1.2-2.3,2.3-4.3,3.3-6.2
		c7.7-14.6,10.7-18.9,28.4-20.8c-1.1-8.5-1.9-26.8,8.8-39c7.4-8.4,18.6-12.3,33.4-11.5c5.6-6.6,27-29.2,58.1-28.7
		c31.2-0.6,52.6,22,58.2,28.7c14.8-0.8,26,3,33.4,11.5c10.7,12.2,9.9,30.6,8.8,39c17.7,1.9,20.6,6.2,28.4,20.8
		c1,1.9,2.1,3.9,3.3,6.2c6.9,12.7,15.1,10.8,15.9,10.6c2.8-1,6.6-3.5,6.7-5.3c0.3-8-1.7-9.7-5.8-10.1c-1.2-0.1-2.7-0.1-3.5,0.7
		c-0.9,0.9-1,2.6-1,2.6c0.1,2.3-1.7,4.1-4,4.2c-2.3,0-4.1-1.7-4.2-4c0-0.5,0-5.4,3.6-8.8c1.7-1.6,4.8-3.4,9.9-2.9
		c9.2,0.9,13.6,7.1,13.2,18.5c-0.3,8.2-11,12.3-12.2,12.7c-0.7,0.2-15.2,4.9-25.8-14.4c-1.3-2.3-2.4-4.4-3.4-6.3
		c-7.6-14.3-8.2-15.5-26.2-16.9c-1.2-0.1-2.3-0.7-3-1.6c-0.7-1-1-2.2-0.7-3.3c0.1-0.2,5-23.5-6.3-36.4c-5.9-6.8-15.6-9.6-28.7-8.5
		c-1.4,0.1-2.8-0.5-3.6-1.6c-0.2-0.3-21.4-27.8-53-27.2c-0.1,0-0.1,0-0.2,0c-0.3,0-0.7,0-1,0c-31,0-51.7,26.9-51.9,27.2
		c-0.8,1.1-2.2,1.7-3.6,1.6c-13.1-1.1-22.8,1.7-28.7,8.5c-11.3,12.9-6.3,36.2-6.3,36.5c0.3,1.2,0,2.4-0.7,3.3
		c-0.7,0.9-1.8,1.5-3,1.6c-18,1.4-18.6,2.6-26.2,16.9c-1,1.9-2.1,4-3.4,6.3C107.9,240.8,99.1,243.1,93.8,243.1z"/>
	<path class="st24" d="M341.6,516.1c7,2.3,8.5-12.6,8.5-12.6s-18.6,5.4-9.7,11.3L341.6,516.1z"/>
	<path class="st25" d="M343,517C343,517,343,517,343,517c-0.5,0-1.1-0.1-1.6-0.3l-0.2-0.1l-1.3-1.4c-2-1.3-2.8-2.8-2.6-4.3
		c0.7-4.6,11.3-7.8,12.6-8.1l1-0.3l-0.1,1C350.7,504.1,349.3,517,343,517z M342,515.5c0.4,0.1,0.7,0.2,1.1,0.2l0,0
		c3.9,0,5.7-7.3,6.2-11.2c-3.5,1.2-10.2,3.9-10.6,6.7c-0.2,1,0.6,2,2.1,3l0.1,0.1L342,515.5z"/>
	<path class="st25" d="M340,515.6l-0.4-1.3c4.6-1.4,9.5-10.4,9.5-10.5l1.2,0.6C350.1,504.8,345.1,514,340,515.6z"/>
	<path class="st24" d="M330.2,495.7c9.3-0.3,1.6-17.2,1.6-17.2s-14.6,14.2-4.3,16.8L330.2,495.7z"/>
	<path class="st25" d="M330.2,496.4l-2.8-0.4c-2.3-0.6-3.6-1.7-4.1-3.3c-1.4-5.3,7.6-14.2,8-14.6l0.7-0.7l0.4,0.9
		c0.2,0.5,5,11.2,2.1,15.9C333.6,495.6,332.2,496.4,330.2,496.4L330.2,496.4z M331.6,479.8c-2.8,2.9-7.9,9.1-7,12.6
		c0.3,1.2,1.3,1.9,3,2.4l2.6,0.4c1.5-0.1,2.5-0.6,3.1-1.6C335.5,490.1,332.7,482.4,331.6,479.8z"/>
	<path class="st25" d="M328.7,497l-1.1-0.8c2.7-3.5,3.3-16.8,3.3-17l1.4,0.1C332.3,479.8,331.6,493.1,328.7,497z"/>
	<path class="st24" d="M341.5,484.3c-7.2-1.6,5.9-16.6,5.9-16.6s8.3,17.6-2.5,17.9L341.5,484.3z"/>
	<path class="st25" d="M344.9,486.3l-3.5-1.3c-1.6-0.4-2.2-1.3-2.5-2c-1.5-4.5,7.1-14.6,8.1-15.7l0.7-0.8l0.4,0.9
		c0.2,0.5,5.2,11.2,2.1,16.3c-1,1.7-2.8,2.5-5.2,2.6L344.9,486.3z M347.2,468.9c-2.8,3.4-8.1,10.6-7.1,13.5c0.1,0.4,0.4,0.9,1.5,1.2
		l0.1,0l3.3,1.3c1.9-0.1,3.2-0.7,3.9-2C351.2,479.3,348.4,471.6,347.2,468.9z"/>
	<path class="st25" d="M343.8,485.6c-3.2-2.1,2.1-14.6,3.8-18.6l0.9,1.9c-3.2,7.7-5.4,15.3-3.8,16.3L343.8,485.6z"/>
</g>
<g id="Capa_1">
	<g>
		<g>
			<defs>
				<path id="SVGID_14_" d="M374.3,490.1c0,0-15.9-8.8-14.7,2.3c0,0,2.3,11.3,11.9,0.2L374.3,490.1z"/>
			</defs>
			<defs>
				<path id="SVGID_15_" d="M364.2,498.1C364.2,498.1,364.2,498.1,364.2,498.1c-4.1,0-5.2-5.4-5.2-5.6c-0.2-2.2,0.2-3.8,1.1-4.9
					c0.9-1,2.2-1.5,4-1.5c4.5,0,10.4,3.2,10.7,3.4l0.9,0.5l-3.6,3.1C369,496.4,366.4,498.1,364.2,498.1z M360.3,492.3
					c0,0,0.9,4.5,3.9,4.5c1.8,0,4.1-1.6,6.8-4.6l0.1-0.1l2.1-1.8c-1.8-0.9-6-2.8-9.1-2.8c-1.3,0-2.3,0.3-2.9,1
					C360.3,489.3,360.1,490.6,360.3,492.3L360.3,492.3z"/>
			</defs>
			<use xlink:href="#SVGID_14_"  style="overflow:visible;fill-rule:evenodd;clip-rule:evenodd;fill:#A79F52;"/>
			<use xlink:href="#SVGID_15_"  style="overflow:visible;fill:#403F2B;"/>
			<clipPath id="SVGID_16_">
				<use xlink:href="#SVGID_14_"  style="overflow:visible;"/>
			</clipPath>
			<clipPath id="SVGID_17_" class="st26">
				<use xlink:href="#SVGID_15_"  style="overflow:visible;"/>
			</clipPath>
		</g>
		<g>
			<path class="st25" d="M359.7,493.7l-0.8-1.1c5.4-3.9,14.3-3.1,14.7-3.1l-0.1,1.4C373.4,490.9,364.7,490.2,359.7,493.7z"/>
		</g>
	</g>
	<g>
		<g>
			<defs>
				<path id="SVGID_18_" d="M369.5,477.8c1.6,6.8,14-5.2,14-5.2s-18.1-7.8-14.9,3.2L369.5,477.8z"/>
			</defs>
			<defs>
				<path id="SVGID_19_" d="M371.9,480.6C371.9,480.6,371.9,480.6,371.9,480.6c-1.5,0-2.6-0.9-3-2.5l-0.9-1.9
					c-0.7-2.3-0.6-4,0.3-5.2c0.8-1.1,2.3-1.7,4.5-1.7c4.6,0,10.7,2.6,11,2.7l0.9,0.4l-0.7,0.7C383.6,473.4,376.2,480.6,371.9,480.6z
					 M372.8,470.6c-1.7,0-2.8,0.4-3.4,1.1c-0.6,0.8-0.6,2.1-0.1,3.9l0.9,2c0.3,1.4,1.1,1.6,1.7,1.6c0,0,0,0,0,0
					c2.8,0,7.9-4.1,10.3-6.4C380.3,472.1,376,470.6,372.8,470.6z"/>
			</defs>
			<use xlink:href="#SVGID_18_"  style="overflow:visible;fill-rule:evenodd;clip-rule:evenodd;fill:#A79F52;"/>
			<use xlink:href="#SVGID_19_"  style="overflow:visible;fill:#403F2B;"/>
			<clipPath id="SVGID_20_">
				<use xlink:href="#SVGID_18_"  style="overflow:visible;"/>
			</clipPath>
			<clipPath id="SVGID_21_" class="st27">
				<use xlink:href="#SVGID_19_"  style="overflow:visible;"/>
			</clipPath>
		</g>
		<g>
			<path class="st25" d="M369.6,477c-0.5,0-0.9,0-1.3-0.1l0.3-1.3c4.3,0.9,13.5-3.9,13.6-4l1.7,0.7C383.5,472.6,374.8,477,369.6,477
				z"/>
		</g>
	</g>
	<g>
		<path class="st25" d="M364.5,478.1c-0.7,0-1.1-0.1-1.2-0.1l0.2-1.3c0,0,2.8,0.4,4.7-0.9l0.8,1.1
			C367.6,477.9,365.7,478.1,364.5,478.1z"/>
	</g>
	<g>
		<g>
			<defs>
				<path id="SVGID_22_" d="M360,465.7c8-1.9-3-17-3-17s-11.8,17.2-0.3,17.7L360,465.7z"/>
			</defs>
			<defs>
				<path id="SVGID_23_" d="M356.8,467.2L356.8,467.2c-2.7-0.1-4.4-1-5.3-2.7c-2.6-5.1,4.6-15.6,4.9-16.1l0.5-0.8l0.6,0.8
					c0.3,0.4,7.6,10.5,5.7,15.5c-0.5,1.3-1.6,2.2-3.1,2.6L356.8,467.2z M357,450c-2.1,3.4-5.9,10.5-4.3,13.9c0.6,1.2,1.9,1.9,3.9,2
					l3.2-0.7c1.1-0.3,1.8-0.8,2.2-1.7C363.2,460.1,359.2,453.2,357,450z"/>
			</defs>
			<use xlink:href="#SVGID_22_"  style="overflow:visible;fill-rule:evenodd;clip-rule:evenodd;fill:#A79F52;"/>
			<use xlink:href="#SVGID_23_"  style="overflow:visible;fill:#403F2B;"/>
			<clipPath id="SVGID_24_">
				<use xlink:href="#SVGID_22_"  style="overflow:visible;"/>
			</clipPath>
			<clipPath id="SVGID_25_" class="st28">
				<use xlink:href="#SVGID_23_"  style="overflow:visible;"/>
			</clipPath>
		</g>
		<g>
			<path class="st25" d="M358.2,466.7c-0.3,0-0.5-0.1-0.8-0.3c-2.5-1.6-1.5-13.2-1.2-17l1.4,0.1c-0.7,8.5-0.3,16.2,0.7,16.5
				c0,0,0,0,0.1,0l0.3,0.1C358.5,466.3,358.4,466.7,358.2,466.7z"/>
		</g>
	</g>
	<g>
		<g>
			<defs>
				<path id="SVGID_26_" d="M383.7,462l0.6,1.6c2.2,9.1,14.7-4,14.7-4s-16.7-7.7-15.3,2.5"/>
			</defs>
			<defs>
				<path id="SVGID_27_" d="M387.7,467.5c-0.4,0-0.7,0-1.1-0.1c-1.5-0.4-2.5-1.6-2.9-3.6l-0.6-1.5l0,0c-0.3-2.3,0.2-4,1.6-5
					c4.1-3,14.2,1.6,14.7,1.8l0.9,0.4l-0.7,0.7C398.7,460.9,392.3,467.5,387.7,467.5z M384.3,461.7l0.6,1.6c0.4,1.6,1,2.4,2,2.7
					c3,0.8,8.3-3.7,10.9-6.2c-3.2-1.4-9.8-3.5-12.4-1.6C384.5,459,384.1,460.1,384.3,461.7z"/>
			</defs>
			<use xlink:href="#SVGID_26_"  style="overflow:visible;fill-rule:evenodd;clip-rule:evenodd;fill:#A79F52;"/>
			<use xlink:href="#SVGID_27_"  style="overflow:visible;fill:#403F2B;"/>
			<clipPath id="SVGID_28_">
				<use xlink:href="#SVGID_26_"  style="overflow:visible;"/>
			</clipPath>
			<clipPath id="SVGID_29_" class="st29">
				<use xlink:href="#SVGID_27_"  style="overflow:visible;"/>
			</clipPath>
		</g>
		<g>
			<path class="st25" d="M386.1,463.5c-0.9,0-1.8-0.1-2.6-0.2l0.2-1.3c4.5,0.5,9.5-0.4,14.9-2.7l0.5,1.2
				C394.4,462.5,390.1,463.5,386.1,463.5z"/>
		</g>
	</g>
	<g>
		<g>
			<defs>
				<path id="SVGID_30_" d="M367.6,433.5c-1,0.8-2.5,20.3,5.8,15.6c0,0,9.2-2.8,2.7-10C376.1,439.1,368.6,432.8,367.6,433.5z"/>
			</defs>
			<defs>
				<path id="SVGID_31_" d="M371,450.5L371,450.5c-1.2,0-2.9-0.6-4-3.7c-1.5-4.3-1-13,0.1-13.8c0.2-0.1,0.4-0.2,0.6-0.2
					c1.7,0,7.1,4.4,8.7,5.8c2.2,2.4,2.9,4.6,2.4,6.5c-0.9,3.1-4.6,4.4-5.2,4.6C372.7,450.2,371.8,450.5,371,450.5z M368,434.2
					c-0.5,1.6-1.2,9.8,0.9,13.5c1,1.7,2.3,1.9,4.1,0.8l0.1-0.1c0,0,3.7-1.2,4.4-3.7c0.4-1.5-0.3-3.2-2-5.2
					C372.7,437.2,369.1,434.5,368,434.2z"/>
			</defs>
			<use xlink:href="#SVGID_30_"  style="overflow:visible;fill-rule:evenodd;clip-rule:evenodd;fill:#A79F52;"/>
			<use xlink:href="#SVGID_31_"  style="overflow:visible;fill:#403F2B;"/>
			<clipPath id="SVGID_32_">
				<use xlink:href="#SVGID_30_"  style="overflow:visible;"/>
			</clipPath>
			<clipPath id="SVGID_33_" class="st30">
				<use xlink:href="#SVGID_31_"  style="overflow:visible;"/>
			</clipPath>
		</g>
		<g>
			<path class="st25" d="M374.2,449.2c-3.7-3-6.8-14.9-7-15.5l1-0.8c1.1,3.9,4.3,13.4,7,15.7L374.2,449.2z"/>
		</g>
	</g>
	<g>
		<path class="st24" d="M395.7,445.1c-4.1-6.2,12.4-9.6,12.4-9.6s0,0.2-0.1,0.7c-0.5,3.4-2.9,18.2-11,10.8L395.7,445.1z"/>
		<path class="st25" d="M401.1,449.7c-1.4,0-3-0.8-4.6-2.2l-0.1-0.1l-1.3-1.8c-0.8-1.3-1-2.5-0.5-3.7c1.9-4.5,12.8-6.8,13.3-6.9
			l0.9-0.2l-0.1,0.9c0,0,0,0.2-0.1,0.7C408.1,440.3,406.3,449.7,401.1,449.7z M397.5,446.5c1.3,1.2,2.6,1.8,3.6,1.8
			c3.3,0,5.4-6.3,6.2-11.9c-3.5,0.8-10.2,3-11.4,5.9c-0.3,0.8-0.2,1.6,0.4,2.5L397.5,446.5z"/>
		<g>
			<path class="st25" d="M396.9,446.9l-0.1-1.4c6.1-0.5,10.6-9.7,10.7-9.8l1.2,0.6C408.4,436.7,403.7,446.3,396.9,446.9z"/>
		</g>
	</g>
	<g>
		<g>
			<defs>
				<path id="SVGID_34_" d="M385.2,430.6c3.8-5.3-4.9-12-7.6-13.8c-0.5-0.3-0.7-0.5-0.7-0.5s-4.3,20.1,5.8,16.2L385.2,430.6z"/>
			</defs>
			<defs>
				<path id="SVGID_35_" d="M380.2,433.7L380.2,433.7c-1.3,0-2.4-0.5-3.2-1.5c-3.3-4.1-0.9-15.5-0.8-16l0.2-1l0.8,0.5
					c0,0,0.3,0.2,0.8,0.5c2.4,1.6,7.9,5.9,8.7,10.4c0.3,1.6,0,3-1,4.3l-0.2,0.2l-2.7,1.9C381.9,433.5,381,433.7,380.2,433.7z
					 M377.3,417.4c-0.5,2.8-1.6,10.9,0.8,13.8c0.6,0.7,1.3,1,2.2,1c0,0,0,0,0,0c0.6,0,1.3-0.1,2-0.4l2.4-1.7c0.7-1,0.9-2,0.7-3.2
					C384.6,422.9,379.2,418.7,377.3,417.4z"/>
			</defs>
			<use xlink:href="#SVGID_34_"  style="overflow:visible;fill-rule:evenodd;clip-rule:evenodd;fill:#A79F52;"/>
			<use xlink:href="#SVGID_35_"  style="overflow:visible;fill:#403F2B;"/>
			<clipPath id="SVGID_36_">
				<use xlink:href="#SVGID_34_"  style="overflow:visible;"/>
			</clipPath>
			<clipPath id="SVGID_37_" class="st31">
				<use xlink:href="#SVGID_35_"  style="overflow:visible;"/>
			</clipPath>
		</g>
		<g>
			<path class="st25" d="M383.5,432.4l-1,0c0.9-2-3.2-10.4-6.3-15.7l1-0.5C378.7,418.6,385,429.1,383.5,432.4z"/>
		</g>
	</g>
	<g>
		<g>
			<defs>
				<path id="SVGID_38_" d="M403,427.3c-5.6-3.5,8.7-12.2,8.7-12.2s1.8,18.7-6.2,13.3L403,427.3z"/>
			</defs>
			<defs>
				<path id="SVGID_39_" d="M408,430.1c-0.9,0-1.9-0.3-2.9-1l-2.4-1.1c-1.4-0.9-1.7-1.9-1.7-2.7c0-4.3,9.2-10.1,10.3-10.7l0.9-0.6
					l0.1,1.1c0,0.4,1,10.7-2,14C409.7,429.8,408.9,430.1,408,430.1z M411.1,416.3c-3.1,2-8.7,6.3-8.7,8.9c0,0.4,0.1,0.9,1,1.5
					l2.4,1.2c1.6,1,2.7,1.1,3.5,0.2C411.2,426,411.3,419.7,411.1,416.3z"/>
			</defs>
			<use xlink:href="#SVGID_38_"  style="overflow:visible;fill-rule:evenodd;clip-rule:evenodd;fill:#A79F52;"/>
			<use xlink:href="#SVGID_39_"  style="overflow:visible;fill:#403F2B;"/>
			<clipPath id="SVGID_40_">
				<use xlink:href="#SVGID_38_"  style="overflow:visible;"/>
			</clipPath>
			<clipPath id="SVGID_41_" class="st32">
				<use xlink:href="#SVGID_39_"  style="overflow:visible;"/>
			</clipPath>
		</g>
		<g>
			<path class="st25" d="M404.9,428.8l-0.8-0.5c3-1.5,5.5-9.6,6.4-13.2l1.3,0.3C411.5,416.8,409,426.8,404.9,428.8z"/>
		</g>
	</g>
	<g>
		<g>
			<defs>
				<path id="SVGID_42_" d="M393.4,408.5c8.1-5-8.7-14.9-8.7-14.9s-6.5,21.4,6.3,16.3L393.4,408.5z"/>
			</defs>
			<defs>
				<path id="SVGID_43_" d="M387.5,411.4L387.5,411.4c-1.6,0-2.9-0.6-3.7-1.8c-3.3-4.4,0.1-15.7,0.3-16.2l0.3-0.8l0.7,0.4
					c0.5,0.3,11.2,6.7,11.3,12.1c0,1.6-0.8,2.9-2.5,4l-2.4,1.4C389.8,411.1,388.6,411.4,387.5,411.4z M385.1,394.7
					c-0.7,2.7-2.6,10.9-0.2,14.1c0.6,0.8,1.5,1.2,2.6,1.2l0,0c0.9,0,2-0.3,3.2-0.7l2.3-1.3c1.3-0.8,1.9-1.7,1.9-2.8
					C394.9,401.6,388.4,396.7,385.1,394.7z"/>
			</defs>
			<use xlink:href="#SVGID_42_"  style="overflow:visible;fill-rule:evenodd;clip-rule:evenodd;fill:#A79F52;"/>
			<use xlink:href="#SVGID_43_"  style="overflow:visible;fill:#403F2B;"/>
			<clipPath id="SVGID_44_">
				<use xlink:href="#SVGID_42_"  style="overflow:visible;"/>
			</clipPath>
			<clipPath id="SVGID_45_" class="st33">
				<use xlink:href="#SVGID_43_"  style="overflow:visible;"/>
			</clipPath>
		</g>
		<g>
			<path class="st25" d="M391.3,410.5c-4.2-0.4-6.4-13.2-7.1-16.2l1.3-0.5c1.5,7.2,3.9,15.5,6.2,15.7L391.3,410.5z"/>
		</g>
	</g>
	<g>
		<g>
			<defs>
				<path id="SVGID_46_" d="M411.2,404.9c-4-4.7,12.7-9.1,12.7-9.1s-2.9,18.9-11,11.2L411.2,404.9z"/>
			</defs>
			<defs>
				<path id="SVGID_47_" d="M416.6,409.5c-1.3,0-2.7-0.7-4.2-2l-0.1-0.1l-1.7-2.1c-0.9-1-0.8-2-0.6-2.7c1.3-4.1,12.4-7.1,13.7-7.4
					l1-0.3l-0.2,1C424.4,397.3,422.3,409.5,416.6,409.5z M413.4,406.5c1.1,1.1,2.2,1.6,3.2,1.6c3.6,0,5.7-7.5,6.5-11.4
					c-3.7,1.1-10.9,3.7-11.7,6.2c-0.1,0.3-0.2,0.8,0.4,1.4L413.4,406.5z"/>
			</defs>
			<use xlink:href="#SVGID_46_"  style="overflow:visible;fill-rule:evenodd;clip-rule:evenodd;fill:#A79F52;"/>
			<use xlink:href="#SVGID_47_"  style="overflow:visible;fill:#403F2B;"/>
			<clipPath id="SVGID_48_">
				<use xlink:href="#SVGID_46_"  style="overflow:visible;"/>
			</clipPath>
			<clipPath id="SVGID_49_" class="st34">
				<use xlink:href="#SVGID_47_"  style="overflow:visible;"/>
			</clipPath>
		</g>
		<g>
			<path class="st25" d="M411.8,407.5l-0.1-1.4c4-0.4,9.9-7.8,12.1-11l0.8,1.1C424.2,396.8,417.3,407,411.8,407.5z"/>
		</g>
	</g>
	<g>
		<g>
			<defs>
				<path id="SVGID_50_" d="M398.3,396.6c-10.3-1.7,4.6-17.9,4.6-17.9s9.1,18.1-2.5,18.2L398.3,396.6z"/>
			</defs>
			<defs>
				<path id="SVGID_51_" d="M400.4,397.6l-2.1-0.3c-2.1-0.3-3.5-1.3-4-2.8c-1.8-5.2,7.1-15.1,8.1-16.2l0.7-0.7l0.4,0.9
					c0.2,0.5,5.7,11.3,2.5,16.5C404.9,396.6,403.1,397.5,400.4,397.6L400.4,397.6z M402.7,379.9c-2.9,3.4-8.4,10.7-7.2,14.1
					c0.4,1,1.3,1.6,2.9,1.9l2,0.3c2.1,0,3.6-0.7,4.4-2C407.1,390.4,403.9,382.6,402.7,379.9z"/>
			</defs>
			<use xlink:href="#SVGID_50_"  style="overflow:visible;fill-rule:evenodd;clip-rule:evenodd;fill:#A79F52;"/>
			<use xlink:href="#SVGID_51_"  style="overflow:visible;fill:#403F2B;"/>
			<clipPath id="SVGID_52_">
				<use xlink:href="#SVGID_50_"  style="overflow:visible;"/>
			</clipPath>
			<clipPath id="SVGID_53_" class="st35">
				<use xlink:href="#SVGID_51_"  style="overflow:visible;"/>
			</clipPath>
		</g>
		<g>
			<path class="st25" d="M399.4,398.2l-0.7-1.2c2.5-1.5,3.4-11,3.4-17.8l1.3-0.3C403.4,380.9,403.3,395.8,399.4,398.2z"/>
		</g>
	</g>
	<g>
		<g>
			<defs>
				<path id="SVGID_54_" d="M412.7,385c-8.3-2.8,4.1-19.1,4.1-19.1s11.7,19.3-2,19.9L412.7,385z"/>
			</defs>
			<defs>
				<path id="SVGID_55_" d="M414.7,386.4l-2.2-0.8c-1.6-0.5-2.6-1.5-3.1-3c-1.8-5.7,6.5-16.8,6.8-17.2l0.6-0.8l0.5,0.9
					c0.3,0.5,7,11.8,3.9,17.6c-1.1,2.1-3.3,3.2-6.4,3.3L414.7,386.4z M416.7,367.1c-1.9,2.7-7.3,10.9-6,15.2c0.3,1,1,1.7,2.2,2.1
					l2,0.7c2.6-0.1,4.3-1,5.2-2.6C422.4,378.2,418.2,369.8,416.7,367.1z"/>
			</defs>
			<use xlink:href="#SVGID_54_"  style="overflow:visible;fill-rule:evenodd;clip-rule:evenodd;fill:#A79F52;"/>
			<use xlink:href="#SVGID_55_"  style="overflow:visible;fill:#403F2B;"/>
			<clipPath id="SVGID_56_">
				<use xlink:href="#SVGID_54_"  style="overflow:visible;"/>
			</clipPath>
			<clipPath id="SVGID_57_" class="st36">
				<use xlink:href="#SVGID_55_"  style="overflow:visible;"/>
			</clipPath>
		</g>
		<g>
			<path class="st25" d="M414.8,386.1l-1-0.9c4.1-4.5,2.5-19.4,2.5-19.6l1.1-0.1C417.5,366.2,419.3,381.2,414.8,386.1z"/>
		</g>
	</g>
	<g>
		<g>
			<defs>
				<path id="SVGID_58_" d="M317.2,510.1c9.3-0.3,1.6-17.2,1.6-17.2s-14.6,14.2-4.3,16.8L317.2,510.1z"/>
			</defs>
			<defs>
				<path id="SVGID_59_" d="M317.1,510.8l-2.8-0.4c-2.3-0.6-3.6-1.7-4.1-3.3c-1.4-5.3,7.6-14.2,8-14.6l0.7-0.7l0.4,0.9
					c0.2,0.5,5,11.2,2.1,15.9C320.6,510,319.2,510.8,317.1,510.8L317.1,510.8z M318.6,494.2c-2.8,2.9-7.9,9.1-7,12.6
					c0.3,1.2,1.3,1.9,3,2.4l2.6,0.4c1.5-0.1,2.5-0.6,3.1-1.6C322.5,504.5,319.7,496.8,318.6,494.2z"/>
			</defs>
			<use xlink:href="#SVGID_58_"  style="overflow:visible;fill-rule:evenodd;clip-rule:evenodd;fill:#A79F52;"/>
			<use xlink:href="#SVGID_59_"  style="overflow:visible;fill:#403F2B;"/>
			<clipPath id="SVGID_60_">
				<use xlink:href="#SVGID_58_"  style="overflow:visible;"/>
			</clipPath>
			<clipPath id="SVGID_61_" class="st37">
				<use xlink:href="#SVGID_59_"  style="overflow:visible;"/>
			</clipPath>
		</g>
		<g>
			<path class="st25" d="M315.5,510.9l-1.1-0.8c2.7-3.5,3.5-16.4,3.5-16.6l1.4,0.1C319.3,494.2,318.5,507.1,315.5,510.9z"/>
		</g>
	</g>
	<g>
		<path class="st25" d="M403,407.7l-1.3-0.2c0.2-0.8-1.3-5.1-2.4-6.9c-1.1-1.7-0.2-3.5,0.5-4.1l1,1l-0.5-0.5l0.5,0.5
			c-0.1,0.1-1.1,1.2-0.3,2.4C401.4,401.6,403.2,406.3,403,407.7z"/>
	</g>
	<g>
		<path class="st25" d="M401.3,413.3l-0.6-1.2c0,0,4.2-2.2,5.7-4c1.8-2.2,6.3-2.2,6.4-2.2l0,1.4c-1.1,0-4.2,0.3-5.4,1.7
			C405.7,411,401.5,413.2,401.3,413.3z"/>
	</g>
	<g>
		<path class="st25" d="M397.6,427.3l-1.3-0.3c0.2-1-1.9-5.8-4.2-9.7c-2-3.4-2-7.2-2-7.4l1.4,0c0,0,0,3.6,1.8,6.7
			C394.2,418.4,398,425.3,397.6,427.3z"/>
	</g>
	<g>
		<path class="st25" d="M392.3,435.7l-0.5-1.3c0.3-0.1,6.2-2.4,8.5-2.5c1.3-0.1,3.5-2.5,4.6-4.1l1.1,0.8c-0.3,0.5-3.2,4.6-5.6,4.7
			C398.6,433.4,393.9,435,392.3,435.7z"/>
	</g>
	<g>
		<path class="st25" d="M382.7,448.9c-1-1.3-0.2-8,0.8-10.9c1-2.8-0.5-6.1-0.5-6.1l1.2-0.6c0.1,0.2,1.7,3.9,0.5,7.1
			c-1.2,3.2-1.4,8.8-1,9.6L382.7,448.9z"/>
	</g>
	<g>
		<path class="st25" d="M380.1,453.1v-1.4c2.1,0,7.8-2.1,9.5-4c2-2.3,7.1-1.9,7.3-1.9l-0.1,1.4c-1.3-0.1-4.9-0.1-6.2,1.4
			C388.6,450.9,382.5,453.1,380.1,453.1z"/>
	</g>
	<g>
		<path class="st25" d="M367.8,466.3l-0.1-1.4c0.1,0,6.7-0.7,9.2-2.5c2.9-2.2,7.2-0.2,7.4-0.1l-0.6,1.2c0,0-3.8-1.7-6-0.1
			C374.9,465.6,368.1,466.3,367.8,466.3z"/>
	</g>
	<g>
		<path class="st25" d="M373.5,458.1l-1.3-0.5c0.5-1.4,1.2-3.9,0.9-4.8c-0.5-1.6,0.5-4.1,0.6-4.3l1.3,0.5c-0.3,0.6-0.9,2.4-0.6,3.4
			C374.9,454.1,373.7,457.5,373.5,458.1z"/>
	</g>
	<g>
		<path class="st25" d="M360.6,483.2l-1.4-0.1c0.4-3.9,0.2-8.5-0.7-9.2c-1.9-1.5-1.9-6.8-1.9-7.9l1.4,0c0,2.4,0.4,6,1.4,6.8
			C361.3,474.2,360.8,481.1,360.6,483.2z"/>
	</g>
	<g>
		<path class="st25" d="M343.2,494.9l-1.2-0.6c0,0,1.1-2.5,0.6-4.5c-0.7-2.6,0.6-5.1,0.7-5.2l1.2,0.6c0,0-1.1,2.2-0.6,4.2
			C344.5,492,343.2,494.8,343.2,494.9z"/>
	</g>
	<g>
		<path class="st25" d="M339.6,498.1l-0.3-1.3c0.2-0.1,5.7-1.3,8.3-1.1c1.4,0.1,2.1-0.5,3.3-1.3c0.8-0.5,1.7-1.2,2.9-1.8
			c3.4-1.7,6-0.4,6.1-0.3l-0.6,1.2c-0.1,0-2.1-1-4.9,0.3c-1.1,0.6-2,1.1-2.7,1.7c-1.2,0.9-2.3,1.6-4.1,1.6
			C345.2,496.9,339.7,498.1,339.6,498.1z"/>
	</g>
	<g>
		<path class="st25" d="M334.7,517.5c-0.5,0-1-0.1-1.5-0.2c-2.6-0.9-6.8,0.1-6.8,0.1l-0.3-1.3c0.2,0,4.6-1.2,7.6-0.1
			c2.1,0.7,5.3-1.2,6.4-1.9l0.8,1.1C340.8,515.3,337.6,517.5,334.7,517.5z"/>
	</g>
	<g>
		<path class="st25" d="M318.5,522.7l-1.3-0.3c0.4-2.1-0.8-5.5-2.1-8.1c-1.3-2.5,0-4.8,0-4.9l1.2,0.7l-0.6-0.3l0.6,0.3
			c0,0.1-0.9,1.8,0,3.7C317,515,319.2,519.7,318.5,522.7z"/>
	</g>
	<g>
		<path class="st25" d="M329.4,513.1c-0.1-0.4-0.7-4.2-0.3-5.6c0.4-1.2-0.8-5.1-1.4-7.3c-1-3.4,0.6-5.1,0.7-5.2l1,1l-0.5-0.5
			l0.5,0.5c0,0-1.1,1.2-0.3,3.8c1.2,4.1,1.8,6.7,1.4,8c-0.3,0.8,0.1,3.5,0.3,5L329.4,513.1z"/>
	</g>
	<g>
		<path class="st25" d="M314.6,525.3c-0.3,0-0.7-0.2-0.8-0.5c-0.2-0.5,0-1,0.4-1.2c13.5-6.3,19.5-15.9,20.3-20.9
			c0.7-4.5,8.2-9.2,13.7-12.6c1.7-1,3.1-1.9,3.7-2.4c0.7-0.6,1.6-1.2,2.7-1.8c3-1.9,6.8-4.2,7.2-8.4c0.4-4.3,2.2-7.3,3.9-10.1
			c0.9-1.4,1.7-2.9,2.5-4.6c1.8-4,5.1-6.5,8.1-8.8c1.1-0.8,2.1-1.6,2.9-2.3c3.7-3.3,6.1-6.3,7.7-9.7c1.4-3,3.9-6.6,6-9.5
			c0.7-1,1.3-1.9,1.8-2.7c1.6-2.4,3.6-10.9,4.8-16c0.3-1.2,0.5-2.2,0.7-3.1c1.2-5,5.6-13.1,8.3-16.5c2.5-3.1,5.1-9.3,5.2-9.4
			c0.2-0.5,0.7-0.7,1.2-0.5c0.5,0.2,0.7,0.7,0.5,1.2c-0.1,0.3-2.7,6.5-5.4,9.8c-2.6,3.2-6.8,11.1-8,15.8c-0.2,0.8-0.5,1.9-0.7,3
			c-1.4,5.9-3.3,14-5.1,16.6c-0.5,0.8-1.2,1.7-1.9,2.7c-2,2.9-4.5,6.4-5.8,9.2c-1.7,3.7-4.3,6.8-8.2,10.3c-0.9,0.8-2,1.6-3,2.4
			c-2.9,2.2-6,4.5-7.5,8.1c-0.8,1.8-1.7,3.3-2.6,4.8c-1.7,2.8-3.3,5.5-3.7,9.4c-0.5,5.1-4.9,7.8-8.1,9.8c-1,0.6-1.8,1.1-2.4,1.7
			c-0.7,0.6-2.1,1.5-3.9,2.6c-4.6,2.9-12.3,7.6-12.9,11.3c-1,6.4-8,16.2-21.3,22.3C314.9,525.3,314.7,525.3,314.6,525.3z"/>
	</g>
	<g>
		<path class="st38" d="M142.7,503.4c-9.7-6.9-24-23-31.4-39c-2.2-4.9-4-9.4-5.8-13.8c-3.5-8.8-6.6-16.4-11.5-22.1
			c-7.6-8.8-16-26-16.4-26.7l3.1-1.5c0.1,0.2,8.6,17.4,15.9,25.9c5.3,6.2,8.4,14,12.1,23.1c1.7,4.3,3.5,8.8,5.7,13.6
			c6.9,15,20.8,30.9,30.2,37.7L142.7,503.4z"/>
	</g>
	<g>
		<g>
			<defs>
				<path id="SVGID_62_" d="M137.3,466.2c0,0-4.4,25.9,8.1,25.6c0,0,15.6-5.4-2.6-21.4L137.3,466.2z"/>
			</defs>
			<defs>
				<path id="SVGID_63_" d="M145.1,492.5c-2.3,0-4.3-0.9-5.8-2.6c-5.5-6.5-2.8-23-2.7-23.7l0.2-1.1l6.3,4.8c6.8,6,9.8,11.2,9,15.7
					c-1,4.9-6.3,6.8-6.5,6.9l-0.2,0L145.1,492.5z M137.8,467.5c-0.5,3.8-1.8,16.4,2.6,21.5c1.2,1.5,2.8,2.2,4.7,2.2l0.1,0
					c0.7-0.3,4.8-2,5.6-5.9c0.7-3.9-2.2-8.8-8.5-14.4L137.8,467.5z"/>
			</defs>
			<use xlink:href="#SVGID_62_"  style="overflow:visible;fill-rule:evenodd;clip-rule:evenodd;fill:#BFA01A;"/>
			<use xlink:href="#SVGID_63_"  style="overflow:visible;fill:#5E3B1F;"/>
			<clipPath id="SVGID_64_">
				<use xlink:href="#SVGID_62_"  style="overflow:visible;"/>
			</clipPath>
			<clipPath id="SVGID_65_" class="st39">
				<use xlink:href="#SVGID_63_"  style="overflow:visible;"/>
			</clipPath>
		</g>
		<g>
			<path class="st40" d="M147.2,492l-0.8-0.2c1.9-1.5-3.5-13.8-9.7-24.7l1.2-0.7C140.1,470.4,150.8,489,147.2,492z"/>
		</g>
	</g>
	<g>
		<g>
			<defs>
				<path id="SVGID_66_" d="M108.5,488.4c0,0,12.8,24.6,23.7,15.4c0,0,8.4-11.7-14.7-14.5L108.5,488.4z"/>
			</defs>
			<defs>
				<path id="SVGID_67_" d="M127,506.6L127,506.6c-9.7,0-18.7-17.1-19.1-17.8l-0.6-1.1l10.3,1.1c9,1.1,14.5,3.7,16.2,7.7
					c1.7,4-0.9,7.7-1,7.9l-0.1,0.1C130.9,505.8,129,506.6,127,506.6z M109.7,489.2c2.2,3.8,9.8,16,17.3,16c0,0,0,0,0,0
					c1.7,0,3.2-0.6,4.7-1.8c0.3-0.5,2.2-3.5,0.9-6.5c-1.5-3.5-6.7-5.8-15.1-6.8L109.7,489.2z"/>
			</defs>
			<use xlink:href="#SVGID_66_"  style="overflow:visible;fill-rule:evenodd;clip-rule:evenodd;fill:#BFA01A;"/>
			<use xlink:href="#SVGID_67_"  style="overflow:visible;fill:#5E3B1F;"/>
			<clipPath id="SVGID_68_">
				<use xlink:href="#SVGID_66_"  style="overflow:visible;"/>
			</clipPath>
			<clipPath id="SVGID_69_" class="st41">
				<use xlink:href="#SVGID_67_"  style="overflow:visible;"/>
			</clipPath>
		</g>
		<g>
			<path class="st40" d="M131.3,503c-7.6,0-21-12.2-22.7-13.7l0.9-1c5.1,4.7,19.3,16.1,23.8,12.8l0.4,1
				C133,502.6,132.4,503,131.3,503z"/>
		</g>
	</g>
	<g>
		<g>
			<defs>
				<path id="SVGID_70_" d="M114.5,429.8c0,0,20.3,22.2,7.3,28.4c0,0-13.1,2.5-10-17.9L114.5,429.8z"/>
			</defs>
			<defs>
				<path id="SVGID_71_" d="M120.6,458.9c-1.6,0-4.7-0.4-7-3.1c-2.7-3.1-3.5-8.4-2.4-15.7l2.9-11.8l0.9,0.9
					c0.6,0.6,13.5,14.8,11.7,23.9c-0.5,2.5-2,4.4-4.6,5.6l-0.2,0.1C122,458.8,121.4,458.9,120.6,458.9z M114.9,431.2l-2.3,9.3
					c-1,6.8-0.4,11.7,2.1,14.5c1.9,2.2,4.6,2.6,5.9,2.6c0.5,0,0.9,0,1.1-0.1c2.1-1,3.3-2.5,3.7-4.6
					C126.8,445.8,117.7,434.5,114.9,431.2z"/>
			</defs>
			<use xlink:href="#SVGID_70_"  style="overflow:visible;fill-rule:evenodd;clip-rule:evenodd;fill:#BFA01A;"/>
			<use xlink:href="#SVGID_71_"  style="overflow:visible;fill:#5E3B1F;"/>
			<clipPath id="SVGID_72_">
				<use xlink:href="#SVGID_70_"  style="overflow:visible;"/>
			</clipPath>
			<clipPath id="SVGID_73_" class="st42">
				<use xlink:href="#SVGID_71_"  style="overflow:visible;"/>
			</clipPath>
		</g>
	</g>
	<g>
		<path class="st40" d="M120.9,460l-0.8-1.1c3.5-2.6-2-18.7-6.4-28.3l1.2-0.6C116.2,432.7,126.5,455.8,120.9,460z"/>
	</g>
	<g>
		<g>
			<defs>
				<path id="SVGID_74_" d="M104.4,460.3c8.1-10.5-22.4-16.9-22.4-16.9s10.5,22.9,20.5,18.6L104.4,460.3z"/>
			</defs>
			<defs>
				<path id="SVGID_75_" d="M99.9,463.3C99.9,463.3,99.9,463.3,99.9,463.3c-9.4,0-18.2-18.7-18.6-19.5l-0.6-1.2l1.3,0.3
					c0.9,0.2,21.1,4.5,24,12.1c0.7,1.9,0.3,3.9-1.2,5.8l-0.1,0.1l-2.1,1.9C101.9,463.1,100.9,463.3,99.9,463.3z M83.2,444.5
					c2.1,4.2,9.4,17.5,16.7,17.5h0c0.7,0,1.5-0.1,2.2-0.4l1.7-1.6c1.2-1.5,1.5-3,0.9-4.5C102.6,449.5,87.9,445.6,83.2,444.5z"/>
			</defs>
			<use xlink:href="#SVGID_74_"  style="overflow:visible;fill-rule:evenodd;clip-rule:evenodd;fill:#BFA01A;"/>
			<use xlink:href="#SVGID_75_"  style="overflow:visible;fill:#5E3B1F;"/>
			<clipPath id="SVGID_76_">
				<use xlink:href="#SVGID_74_"  style="overflow:visible;"/>
			</clipPath>
			<clipPath id="SVGID_77_" class="st43">
				<use xlink:href="#SVGID_75_"  style="overflow:visible;"/>
			</clipPath>
		</g>
		<g>
			<path class="st40" d="M104.6,461.3l-0.5,0.2c0.2-1.8-11.2-10.1-21.9-16.9l0.7-1.1C90.1,448,105.8,458.1,104.6,461.3z"/>
		</g>
	</g>
	<g>
		<g>
			<defs>
				<path id="SVGID_78_" d="M94.1,384.6c0,0,14.5,28.4,0.7,27.6c0,0-11.5,1.5-5.6-18L94.1,384.6z"/>
			</defs>
			<defs>
				<path id="SVGID_79_" d="M94.3,413c-1.1,0-3.8-0.3-5.7-2.7c-2.3-3.1-2.4-8.6-0.1-16.2l0-0.1l5.5-10.8l0.6,1.2
					c0.4,0.8,9.8,19.4,5.7,26.2c-1,1.6-2.7,2.5-5,2.5h0c-0.2,0-0.3,0-0.5,0C94.7,413,94.5,413,94.3,413z M89.8,394.5
					c-2.1,7.1-2.1,12.2-0.1,15c1.5,2,3.7,2.2,4.6,2.2c0.3,0,0.4,0,0.5,0l0.1,0l0.1,0c0.2,0,0.3,0,0.5,0c0,0,0,0,0,0
					c1.8,0,3.1-0.6,3.9-1.8c3.2-5.2-3.1-19.4-5.1-23.6L89.8,394.5z"/>
			</defs>
			<use xlink:href="#SVGID_78_"  style="overflow:visible;fill-rule:evenodd;clip-rule:evenodd;fill:#BFA01A;"/>
			<use xlink:href="#SVGID_79_"  style="overflow:visible;fill:#5E3B1F;"/>
			<clipPath id="SVGID_80_">
				<use xlink:href="#SVGID_78_"  style="overflow:visible;"/>
			</clipPath>
			<clipPath id="SVGID_81_" class="st44">
				<use xlink:href="#SVGID_79_"  style="overflow:visible;"/>
			</clipPath>
		</g>
		<g>
			<path class="st40" d="M94.6,413.6c-4.3-3.5-1.3-27.5-0.9-30.3l1.3,0.2c-1.4,10.4-2.4,26.7,0.5,29L94.6,413.6z"/>
		</g>
	</g>
	<g>
		<g>
			<defs>
				<path id="SVGID_82_" d="M60.8,400.8c0,0,7.5,24.8,19.2,20.7c0,0,10.7-6.6-9-17.5L60.8,400.8z"/>
			</defs>
			<defs>
				<path id="SVGID_83_" d="M77.3,422.6L77.3,422.6c-10.5,0-16.9-20.7-17.2-21.6l-0.4-1.2l11.5,3.6c8,4.4,12.2,8.8,12.3,12.9
					c0.1,3.7-3.1,5.7-3.2,5.8l-0.1,0.1C79.2,422.4,78.3,422.6,77.3,422.6z M61.8,401.9c1.6,4.5,7.4,19.4,15.5,19.4
					c0.8,0,1.5-0.1,2.3-0.4c0.4-0.3,2.6-1.9,2.5-4.6c-0.1-2.5-2.1-6.5-11.5-11.7L61.8,401.9z"/>
			</defs>
			<use xlink:href="#SVGID_82_"  style="overflow:visible;fill-rule:evenodd;clip-rule:evenodd;fill:#BFA01A;"/>
			<use xlink:href="#SVGID_83_"  style="overflow:visible;fill:#5E3B1F;"/>
			<clipPath id="SVGID_84_">
				<use xlink:href="#SVGID_82_"  style="overflow:visible;"/>
			</clipPath>
			<clipPath id="SVGID_85_" class="st45">
				<use xlink:href="#SVGID_83_"  style="overflow:visible;"/>
			</clipPath>
		</g>
		<g>
			<path class="st40" d="M80.3,422.1l-0.6,0.3c1.5-1.9-8.8-12.5-19.2-21.3l0.8-0.7C66.6,404.9,82.7,418.2,80.3,422.1z"/>
		</g>
	</g>
	<g>
		
			<rect x="90.2" y="415.8" transform="matrix(9.287529e-02 -0.9957 0.9957 9.287529e-02 -329.2052 471.6499)" class="st38" width="8.1" height="1.4"/>
	</g>
	<g>
		<path class="st38" d="M91.9,426.4c-0.9-2.2-7.6-3.8-11.7-4.3l0.2-1.3c1.2,0.1,11.3,1.5,12.8,5.1L91.9,426.4z"/>
	</g>
	<g>
		<path class="st38" d="M121.9,465.1l-1.2-0.7c0.9-1.6,0-4.6-0.4-5.6l1.2-0.5C121.6,458.4,123.4,462.5,121.9,465.1z"/>
	</g>
	<g>
		<path class="st38" d="M111,465c-2.8-3.3-7.4-3.7-7.4-3.7l0.1-1.4c0.2,0,5.2,0.4,8.4,4.2L111,465z"/>
	</g>
	<g>
		
			<rect x="141.7" y="494.8" transform="matrix(5.872202e-02 -0.9983 0.9983 5.872202e-02 -356.6082 612.7114)" class="st38" width="9.8" height="1.4"/>
	</g>
	<g>
		<path class="st38" d="M142.5,507.5c-8.4-3.4-9.8-3.5-9.9-3.5l0-0.5l-0.2-0.9c1-0.2,7,2.2,10.5,3.6L142.5,507.5z"/>
	</g>
	<g>
		<path class="st46" d="M130.1,486.7c-6.2,0-17.2-23.1-18.4-25.8l1.2-0.6c4.6,9.8,13.2,25,17.2,25c0.1,0,0.1,0,0.2,0l0.2,1.3
			C130.3,486.7,130.2,486.7,130.1,486.7z"/>
	</g>
	<g>
		<g>
			<defs>
				<path id="SVGID_86_" d="M87.7,413c0,0,32,20.5,16,32.3c0,0-17.7,2.6-15.4-25.8L87.7,413z"/>
			</defs>
			<defs>
				<path id="SVGID_87_" d="M102.5,446.1c-2.2,0-6.5-0.6-10-4.3c-4.1-4.4-5.8-11.9-5-22.2l-0.7-7.9l1.2,0.7
					c0.8,0.5,20.4,13.2,20.8,24.7c0.1,3.4-1.5,6.4-4.7,8.8l-0.1,0.1l-0.2,0C103.7,446,103.3,446.1,102.5,446.1z M88.5,414.4l0.4,5.2
					l0,0.1c-0.8,9.9,0.8,17,4.6,21.2c3.1,3.4,7,3.9,9,3.9c0.4,0,0.7,0,0.9,0c2.8-2.1,4.1-4.7,4.1-7.6
					C107.1,427.9,92.7,417.3,88.5,414.4z"/>
			</defs>
			<use xlink:href="#SVGID_86_"  style="overflow:visible;fill-rule:evenodd;clip-rule:evenodd;fill:#BFA01A;"/>
			<use xlink:href="#SVGID_87_"  style="overflow:visible;fill:#5E3B1F;"/>
			<clipPath id="SVGID_88_">
				<use xlink:href="#SVGID_86_"  style="overflow:visible;"/>
			</clipPath>
			<clipPath id="SVGID_89_" class="st47">
				<use xlink:href="#SVGID_87_"  style="overflow:visible;"/>
			</clipPath>
		</g>
		<g>
			<path class="st40" d="M104.7,445.3l-1.2-0.7c2-3.4-8.4-20.3-15.5-30.1l1.1-0.8C91.1,416.4,107.8,440,104.7,445.3z"/>
		</g>
	</g>
	<g>
		<g>
			<defs>
				<path id="SVGID_90_" d="M111.5,459.3c0,0,33.3,14.7,18,27.8c0,0-19,4.7-18-25.4V459.3z"/>
			</defs>
			<defs>
				<path id="SVGID_91_" d="M126.9,488.1c-2.8,0-6.8-0.7-10.2-4.2c-4.2-4.4-6.2-11.8-5.9-22.2l0-3.5l1,0.4
					c0.8,0.4,20.8,9.3,22.3,19.7c0.5,3.3-0.9,6.4-4.1,9.2l-0.1,0.1l-0.2,0C129.7,487.8,128.6,488.1,126.9,488.1z M112.2,460.4v1.4
					c-0.3,10,1.5,17.1,5.5,21.2c3,3.1,6.7,3.8,9.2,3.8c1.2,0,2-0.1,2.4-0.2c2.8-2.4,4-5.1,3.5-7.9
					C131.6,470.1,116.2,462.3,112.2,460.4z"/>
			</defs>
			<use xlink:href="#SVGID_90_"  style="overflow:visible;fill-rule:evenodd;clip-rule:evenodd;fill:#BFA01A;"/>
			<use xlink:href="#SVGID_91_"  style="overflow:visible;fill:#5E3B1F;"/>
			<clipPath id="SVGID_92_">
				<use xlink:href="#SVGID_90_"  style="overflow:visible;"/>
			</clipPath>
			<clipPath id="SVGID_93_" class="st48">
				<use xlink:href="#SVGID_91_"  style="overflow:visible;"/>
			</clipPath>
		</g>
	</g>
	<g>
		<path class="st40" d="M129.4,487.4l-1.2-0.7c2-3.4-10.3-18.5-18.5-27.3l1-0.9C113,460.9,132.6,482,129.4,487.4z"/>
	</g>
	<g>
		<g>
			<defs>
				<path id="SVGID_94_" d="M135.2,493.1c0,0,42.2,16.9,25.9,30.3c0,0-14.9,6.4-23.9-24.5L135.2,493.1z"/>
			</defs>
			<defs>
				<path id="SVGID_95_" d="M157.9,524.6c-5.1,0-14.7-3.3-21.3-25.5l-2.5-7.1l1.4,0.6c1.2,0.5,28.2,11.4,30,23
					c0.5,3.1-0.8,5.9-3.9,8.4l-0.2,0.1C161.4,524,160,524.6,157.9,524.6z M136.4,494.4l1.5,4.3c6.3,21.4,15.2,24.6,20,24.6
					c1.6,0,2.7-0.4,3-0.5c2.6-2.2,3.7-4.5,3.3-7.1C162.7,506.3,142,496.8,136.4,494.4z"/>
			</defs>
			<use xlink:href="#SVGID_94_"  style="overflow:visible;fill-rule:evenodd;clip-rule:evenodd;fill:#BFA01A;"/>
			<use xlink:href="#SVGID_95_"  style="overflow:visible;fill:#5E3B1F;"/>
			<clipPath id="SVGID_96_">
				<use xlink:href="#SVGID_94_"  style="overflow:visible;"/>
			</clipPath>
			<clipPath id="SVGID_97_" class="st49">
				<use xlink:href="#SVGID_95_"  style="overflow:visible;"/>
			</clipPath>
		</g>
		<g>
			<path class="st40" d="M162.8,524.8l-1.2-0.7c2-3.4-14.9-20.1-26.1-29.8l0.9-1C141.4,497.6,165.9,519.5,162.8,524.8z"/>
		</g>
	</g>
	<g>
		<g>
			<defs>
				<path id="SVGID_98_" d="M69.1,370.8c0,0-7.7,33.1,11.8,34.6c0,0,14.6-10-5.6-29.5L69.1,370.8z"/>
			</defs>
			<defs>
				<path id="SVGID_99_" d="M81.1,406.1l-0.2,0c-4.2-0.3-7.6-2.1-9.9-5.3c-7.2-9.8-2.7-29.3-2.5-30.1l0.2-1.1l7,5.8
					c7.8,7.5,11.5,14.5,11,20.9c-0.5,6.4-5.2,9.6-5.4,9.7L81.1,406.1z M69.5,372c-0.8,4.2-3.3,19.9,2.5,27.9c2.1,2.8,5,4.4,8.7,4.7
					c0.8-0.6,4.2-3.6,4.6-8.6c0.5-5.9-3-12.6-10.5-19.7L69.5,372z"/>
			</defs>
			<use xlink:href="#SVGID_98_"  style="overflow:visible;fill-rule:evenodd;clip-rule:evenodd;fill:#BFA01A;"/>
			<use xlink:href="#SVGID_99_"  style="overflow:visible;fill:#5E3B1F;"/>
			<clipPath id="SVGID_100_">
				<use xlink:href="#SVGID_98_"  style="overflow:visible;"/>
			</clipPath>
			<clipPath id="SVGID_101_" class="st50">
				<use xlink:href="#SVGID_99_"  style="overflow:visible;"/>
			</clipPath>
		</g>
		<g>
			<path class="st40" d="M81.2,407.5l-1.2-0.7c2.1-3.5-5.9-23.7-11.8-36.4l1.2-0.6C71,373.1,84.3,402.2,81.2,407.5z"/>
		</g>
	</g>
	<g>
		<g>
			<g>
				<defs>
					<path id="SVGID_102_" d="M306.6,553.6l-5.2,18.1c0,0,22.5,24.5,66.3,15.3c0,0-5.6-1.2-15.3-20.1c0,0,21.3-2,30.5-24.5
						c0,0-39.4,7.6-63.1-9.2L306.6,553.6z"/>
				</defs>
				<defs>
					<path id="SVGID_103_" d="M348.4,589.5C348.4,589.5,348.4,589.5,348.4,589.5c-31,0-47.3-17.3-47.4-17.5l-0.2-0.2l5.4-18.5
						l13.5-20.9l0.4,0.3c12.6,9,29.8,10.9,42,10.9c11.7,0,20.6-1.7,20.7-1.7l0.9-0.2l-0.3,0.8c-8.3,20.2-26.5,24.1-30.3,24.7
						c9.2,17.9,14.6,19.2,14.7,19.2l0,0.9C361.2,588.8,354.7,589.5,348.4,589.5z M301.9,571.5c1.9,1.9,17.7,17,46.5,17c0,0,0,0,0,0
						c5.7,0,11.7-0.6,17.8-1.8c-2.3-1.4-7.2-5.9-14.2-19.7l-0.3-0.6l0.7-0.1c0.2,0,20.6-2.2,29.8-23.4c-2.5,0.4-10.3,1.6-20,1.6
						c-12.2,0-29.4-1.9-42.2-10.8l-12.9,20L301.9,571.5z"/>
				</defs>
				<linearGradient id="SVGID_104_" gradientUnits="userSpaceOnUse" x1="301.3806" y1="561.0587" x2="382.9281" y2="561.0587">
					<stop  offset="0" style="stop-color:#9B381B"/>
					<stop  offset="1" style="stop-color:#C66719"/>
				</linearGradient>
				<use xlink:href="#SVGID_102_"  style="overflow:visible;fill-rule:evenodd;clip-rule:evenodd;fill:url(#SVGID_104_);"/>
				<use xlink:href="#SVGID_103_"  style="overflow:visible;fill:#D69348;"/>
				<clipPath id="SVGID_105_">
					<use xlink:href="#SVGID_102_"  style="overflow:visible;"/>
				</clipPath>
				<clipPath id="SVGID_106_" class="st51">
					<use xlink:href="#SVGID_103_"  style="overflow:visible;"/>
				</clipPath>
			</g>
		</g>
	</g>
	<g>
		<g>
			<defs>
				<path id="SVGID_107_" d="M179.7,553.2l4,17.3c0,0-24.5,22.1-63.8,12.9c0,0,14-12.5,13.2-19.3c0,0-20.9-1.6-30.5-25.3
					c0,0,40.9,9.6,56.2-5.6L179.7,553.2z"/>
			</defs>
			<defs>
				<path id="SVGID_108_" d="M138.9,586.1c-6.3,0-12.7-0.8-19.1-2.3l-0.9-0.2l0.7-0.6c0.1-0.1,13.3-11.9,13.1-18.5
					c-3-0.4-21.6-3.7-30.5-25.5l-0.3-0.9l0.9,0.2c0.1,0,12.8,3,26.5,3c13.8,0,23.6-2.9,29.2-8.5l0.3-0.3l21.3,20.5l4.1,17.7
					l-0.2,0.2C183.8,571,166.8,586.1,138.9,586.1z M120.8,583.1c6.1,1.4,12.1,2,18,2c25.9,0,42.3-13.1,44.3-14.8l-3.9-16.9
					l-20.5-19.7c-5.9,5.6-15.8,8.4-29.6,8.4c-11.7,0-22.7-2.1-25.8-2.8c9.6,22.4,29.6,24.2,29.8,24.2l0.4,0l0,0.4
					C134.3,570.2,123.7,580.4,120.8,583.1z"/>
			</defs>
			<linearGradient id="SVGID_109_" gradientUnits="userSpaceOnUse" x1="102.5635" y1="559.3472" x2="183.6787" y2="559.3472">
				<stop  offset="0" style="stop-color:#C66719"/>
				<stop  offset="0" style="stop-color:#C56519"/>
				<stop  offset="1" style="stop-color:#9B381B"/>
			</linearGradient>
			<use xlink:href="#SVGID_107_"  style="overflow:visible;fill-rule:evenodd;clip-rule:evenodd;fill:url(#SVGID_109_);"/>
			<use xlink:href="#SVGID_108_"  style="overflow:visible;fill:#D69348;"/>
			<clipPath id="SVGID_110_">
				<use xlink:href="#SVGID_107_"  style="overflow:visible;"/>
			</clipPath>
			<clipPath id="SVGID_111_" class="st52">
				<use xlink:href="#SVGID_108_"  style="overflow:visible;"/>
			</clipPath>
		</g>
	</g>
	<g>
		<g>
			<defs>
				<path id="SVGID_112_" d="M147,528.5l8,45.4c0,0,84.7-54.6,175.1,0.4l8.4-46.6c0,0-77.5-51-183.6-4L147,528.5z"/>
			</defs>
			<defs>
				<path id="SVGID_113_" d="M330.5,575l-0.6-0.4c-26.7-16.3-55.5-24.5-85.7-24.5c-51,0-88.5,23.8-88.9,24.1l-0.6,0.4l-8.2-46.4
					l8.3-5c29.9-13.3,60.3-20,90.5-20c56.4,0,93.2,23.7,93.5,24l0.3,0.2L330.5,575z M244.2,549.2c30.1,0,58.9,8.2,85.6,24.3
					l8.3-45.6c-3.4-2.1-39.1-23.6-92.7-23.6c-30.1,0-60.4,6.7-90.1,19.8l-7.7,4.6l7.9,44.4C160.4,570,196.5,549.2,244.2,549.2z"/>
			</defs>
			<linearGradient id="SVGID_114_" gradientUnits="userSpaceOnUse" x1="146.9619" y1="539.039" x2="338.5538" y2="539.039">
				<stop  offset="0" style="stop-color:#9B381B"/>
				<stop  offset="0.5025" style="stop-color:#C66719"/>
				<stop  offset="1" style="stop-color:#9B381B"/>
			</linearGradient>
			<use xlink:href="#SVGID_112_"  style="overflow:visible;fill-rule:evenodd;clip-rule:evenodd;fill:url(#SVGID_114_);"/>
			<use xlink:href="#SVGID_113_"  style="overflow:visible;fill:#D69348;"/>
			<clipPath id="SVGID_115_">
				<use xlink:href="#SVGID_112_"  style="overflow:visible;"/>
			</clipPath>
			<clipPath id="SVGID_116_" class="st53">
				<use xlink:href="#SVGID_113_"  style="overflow:visible;"/>
			</clipPath>
		</g>
	</g>
	<g>
		<g>
			<g>
				<path class="st21" d="M170,553l-7.2-16.1l4.3-1.9c1.6-0.7,2.7-1.1,3.2-1.2c0.9-0.1,1.8,0.1,2.6,0.7c0.9,0.6,1.6,1.5,2.2,2.8
					c0.5,1.2,0.7,2.2,0.6,3.2c-0.1,1-0.4,1.8-0.9,2.4c-0.5,0.6-1.6,1.3-3.2,2l-1.7,0.8l2.7,6.1L170,553z M166.7,538.4l2,4.6l1.5-0.7
					c1-0.4,1.6-0.8,1.9-1.1c0.3-0.3,0.5-0.7,0.5-1.1c0.1-0.5,0-1-0.3-1.5c-0.2-0.5-0.6-0.9-1-1.2c-0.4-0.3-0.8-0.4-1.2-0.3
					c-0.4,0-1.2,0.3-2.3,0.8L166.7,538.4z"/>
			</g>
			<g>
				<path class="st21" d="M175.8,531.2l2.7-1l3.3,8.9c0.5,1.4,0.9,2.3,1.1,2.7c0.4,0.7,0.9,1.1,1.5,1.4c0.6,0.2,1.3,0.2,2-0.1
					c0.6-0.2,1.1-0.6,1.4-1c0.3-0.4,0.4-0.9,0.4-1.5c0-0.6-0.3-1.7-0.9-3.3l-3.3-9.1l2.7-1l3.2,8.7c0.8,2.2,1.3,3.9,1.4,4.9
					c0.1,1.1-0.1,2.1-0.7,3c-0.6,0.9-1.6,1.6-2.9,2.1c-1.4,0.5-2.6,0.7-3.6,0.5c-1-0.2-1.8-0.7-2.5-1.5c-0.7-0.8-1.5-2.4-2.4-4.9
					L175.8,531.2z"/>
			</g>
			<g>
				<polygon class="st21" points="195,543 190.1,526.1 200.4,523.2 201.2,526 193.7,528.2 194.8,531.9 201.8,529.9 202.6,532.8 
					195.6,534.8 196.9,539.4 204.7,537.2 205.5,540 				"/>
			</g>
			<g>
				<path class="st21" d="M207.3,539.5l-3.7-17.2l6-1.3c1.5-0.3,2.7-0.4,3.4-0.2c0.7,0.2,1.4,0.6,2,1.3c0.6,0.7,1,1.5,1.2,2.6
					c0.3,1.3,0.2,2.5-0.3,3.5c-0.5,1-1.3,1.7-2.4,2.1c0.7,0.3,1.3,0.7,1.8,1.1c0.5,0.4,1.2,1.2,2.2,2.4l2.4,3l-3.4,0.7l-2.9-3.3
					c-1-1.2-1.7-1.9-2.1-2.2c-0.3-0.3-0.7-0.5-1-0.5c-0.3-0.1-0.8,0-1.5,0.1l-0.6,0.1l1.5,7.2L207.3,539.5z M208.1,529l2.1-0.4
					c1.3-0.3,2.1-0.5,2.4-0.7c0.3-0.2,0.6-0.5,0.7-0.9c0.1-0.4,0.2-0.9,0-1.4c-0.1-0.5-0.3-1-0.6-1.2c-0.3-0.3-0.6-0.5-1-0.5
					c-0.3,0-1.1,0.1-2.3,0.4l-2.2,0.5L208.1,529z"/>
			</g>
			<g>
				<polygon class="st21" points="224.1,536.6 222.4,522.1 218.1,522.6 217.8,519.6 229.1,518.2 229.5,521.2 225.2,521.7 227,536.2 
									"/>
			</g>
			<g>
				<path class="st21" d="M231.6,527c-0.1-2.1,0.2-3.8,0.7-5.2c0.6-1.4,1.4-2.4,2.3-3.1c1-0.7,2.2-1.1,3.6-1.1
					c2.1-0.1,3.8,0.7,5.1,2.2c1.4,1.5,2.1,3.7,2.2,6.7c0.1,2.9-0.5,5.3-1.8,7c-1.2,1.5-2.8,2.3-4.8,2.4c-2.1,0.1-3.8-0.6-5-2
					C232.4,532.2,231.7,529.9,231.6,527z M234.6,526.8c0.1,2,0.5,3.5,1.3,4.5c0.8,1,1.8,1.4,2.9,1.4c1.1,0,2.1-0.6,2.8-1.6
					c0.7-1,1-2.6,1-4.7c-0.1-2-0.5-3.5-1.3-4.5c-0.8-0.9-1.7-1.4-2.9-1.4c-1.2,0-2.1,0.6-2.8,1.6
					C234.8,523.2,234.5,524.7,234.6,526.8z"/>
			</g>
			<g>
				<path class="st21" d="M265.4,537.3l-3.1-0.4l-0.8-4.1l-5.7-0.7l-1.7,3.8l-3.1-0.4l7.7-16.8l3.1,0.4L265.4,537.3z M260.9,529.8
					l-1.2-6.7l-2.7,6.2L260.9,529.8z"/>
			</g>
			<g>
				<polygon class="st21" points="269.9,538.2 271.5,531 268.4,519.9 271.7,520.6 273.6,528.1 278.3,522 281.6,522.7 274.3,531.6 
					272.8,538.8 				"/>
			</g>
			<g>
				<path class="st21" d="M279.7,534.4l2.8,0.5c-0.4,2.2,0.3,3.6,2,4.1c0.8,0.3,1.6,0.2,2.2,0c0.6-0.3,1-0.8,1.2-1.4
					c0.1-0.4,0.1-0.7,0-1.1c-0.1-0.3-0.3-0.6-0.6-0.9c-0.3-0.3-1-0.8-2.2-1.6c-1.1-0.7-1.8-1.4-2.2-2c-0.4-0.6-0.7-1.3-0.8-2.1
					c-0.1-0.8,0-1.6,0.2-2.4c0.3-0.9,0.7-1.7,1.4-2.3c0.6-0.6,1.4-1,2.2-1.1c0.8-0.2,1.8-0.1,2.9,0.3c1.6,0.5,2.8,1.3,3.4,2.5
					c0.6,1.2,0.7,2.6,0.3,4.2l-2.8-0.7c0.2-0.9,0.1-1.7-0.2-2.1c-0.3-0.5-0.8-0.8-1.6-1.1c-0.7-0.2-1.4-0.2-1.9-0.1
					c-0.5,0.2-0.8,0.5-1,1c-0.1,0.5-0.1,0.9,0.2,1.3c0.3,0.4,1,1,2.2,1.8c1.3,0.8,2.2,1.6,2.6,2.2c0.5,0.6,0.8,1.4,0.9,2.2
					c0.1,0.8,0,1.7-0.3,2.7c-0.4,1.5-1.3,2.5-2.5,3.3c-1.2,0.7-2.8,0.8-4.7,0.2C280.2,540.9,278.9,538.4,279.7,534.4z"/>
			</g>
			<g>
				<path class="st21" d="M290.9,543.8l6.6-16.3l9.9,4l-1.1,2.8l-7.2-2.9l-1.5,3.6l6.7,2.7l-1.1,2.7l-6.7-2.7l-1.8,4.4l7.5,3
					l-1.1,2.7L290.9,543.8z M301.4,527.8l2.6-2.8l2.9,1.2l-3.9,2.3L301.4,527.8z"/>
			</g>
			<g>
				<polygon class="st21" points="303,548.6 310.4,532.7 313,533.9 313.4,547 318.3,536.4 320.8,537.5 313.4,553.4 310.7,552.2 
					310.3,539.4 305.5,549.8 				"/>
			</g>
		</g>
	</g>
</g>
</svg>
