<?xml version="1.0" encoding="UTF-8" standalone="no"?>
<!-- Created with Inkscape (http://www.inkscape.org/) -->
<svg
   xmlns:svg="http://www.w3.org/2000/svg"
   xmlns="http://www.w3.org/2000/svg"
   xmlns:xlink="http://www.w3.org/1999/xlink"
   version="1.0"
   width="545.47998"
   height="800.00037"
   viewBox="0 0 470 706"
   id="svg2">
  <defs
     id="defs1035" />
  <g
     transform="matrix(1.0506306,0,0,1.0506306,-11.057687,2.1456155)"
     id="g5074">
    <g
       id="g5015">
      <g
         transform="translate(-451.3242,0)"
         id="g4905">
        <g
           transform="translate(-10.7459,0)"
           id="g4915">
          <g
             id="g4927">
            <path
               d="M 678.13448,72.909614 L 690.31267,31.221729 L 674.07168,24.332617 L 691.91265,17.443506 L 696.41704,-1.2806655 L 700.92144,17.443506 L 718.76249,24.332617 L 702.5215,31.221729 L 714.69969,72.909614 C 702.7128,71.700556 690.59044,71.304253 678.13448,72.909614 z"
               id="path4857"
               style="fill:#c0c0c0;fill-opacity:1;fill-rule:evenodd;stroke:#000000;stroke-width:1.52289486;stroke-linecap:butt;stroke-linejoin:miter;stroke-miterlimit:4;stroke-dasharray:none;stroke-opacity:1" />
            <g
               id="g4896"
               style="fill:#c0c0c0;fill-opacity:1">
              <use
                 transform="matrix(0.9925462,0.1218693,-0.1218693,0.9925462,53.805672,-82.041269)"
                 id="use4884"
                 style="fill:#c0c0c0;fill-opacity:1"
                 x="0"
                 y="0"
                 width="470"
                 height="706"
                 xlink:href="#path4857" />
              <use
                 transform="matrix(0.9702957,0.2419219,-0.2419219,0.9702957,117.16445,-156.3545)"
                 id="use4886"
                 style="fill:#c0c0c0;fill-opacity:1"
                 x="0"
                 y="0"
                 width="470"
                 height="706"
                 xlink:href="#path4857" />
              <use
                 transform="matrix(0.9335804,0.3583679,-0.3583679,0.9335804,189.32785,-222.9158)"
                 id="use4888"
                 style="fill:#c0c0c0;fill-opacity:1"
                 x="0"
                 y="0"
                 width="470"
                 height="706"
                 xlink:href="#path4857" />
              <use
                 transform="matrix(0.8829476,0.4694716,-0.4694716,0.8829476,267.99774,-280.16438)"
                 id="use4890"
                 style="fill:#c0c0c0;fill-opacity:1"
                 x="0"
                 y="0"
                 width="470"
                 height="706"
                 xlink:href="#path4857" />
              <path
                 d="M 867.06079,121.49986 L 900.94777,94.336267 L 891.59537,79.377587 L 910.16127,83.967519 L 924.59079,71.213189 L 882.78647,131.22268 C 877.82957,127.69135 872.62286,124.41457 867.06079,121.49986 z"
                 id="use4892"
                 style="fill:#c0c0c0;fill-opacity:1;fill-rule:evenodd;stroke:#000000;stroke-width:1.52289486;stroke-linecap:butt;stroke-linejoin:miter;stroke-miterlimit:4;stroke-dasharray:none;stroke-opacity:1" />
            </g>
            <use
               transform="matrix(-1,0,0,1,1392.5402,0)"
               id="use4903"
               style="fill:#c0c0c0;fill-opacity:1"
               x="0"
               y="0"
               width="470"
               height="706"
               xlink:href="#g4896" />
          </g>
        </g>
      </g>
      <g
         id="g4997">
        <path
           d="M 452.48399,133.91102 L 452.48399,617.64057 C 451.33928,634.4615 438.42607,648.75109 423.34067,652.71377 C 371.57248,652.71377 319.80428,652.71377 268.03609,652.71377 C 255.44265,652.12145 244.09259,660.58453 235.00001,668.79289 C 225.3697,659.72222 214.09461,652.71377 200.97506,652.71377 C 149.79046,652.71377 98.605878,652.71377 47.42128,652.71377 C 32.129267,649.72584 17.516008,633.43463 17.516008,616.68345 L 17.516008,133.91102 L 452.48399,133.91102 z"
           id="path2120"
           style="fill:#c0c0c0;fill-opacity:1;fill-rule:nonzero;stroke:#000000;stroke-width:2.28434229;stroke-linecap:round;stroke-linejoin:miter;marker:none;marker-start:none;marker-mid:none;marker-end:none;stroke-miterlimit:4;stroke-dasharray:none;stroke-dashoffset:0;stroke-opacity:1;visibility:visible;display:block" />
        <path
           d="M 35.8605,178.21425 L 35.8605,176.54047 C 37.69368,176.44749 38.729826,176.29472 38.968941,176.08218 C 39.208047,175.86964 39.35417,175.34492 39.407311,174.50803 C 39.500293,172.75456 39.546787,169.48671 39.546792,164.70449 C 39.546787,162.87132 39.520219,160.21453 39.467089,156.73412 C 39.440516,154.35632 39.38738,153.05118 39.307681,152.81868 C 39.227973,152.58624 39.088492,152.41687 38.889237,152.31057 C 38.596987,152.16447 37.587408,152.03828 35.8605,151.93198 L 35.8605,150.2582 C 38.596987,150.3645 40.689205,150.41764 42.13716,150.41761 C 44.63453,150.41764 46.892797,150.3645 48.911968,150.2582 L 48.911968,151.93198 C 47.10534,152.03828 46.085799,152.18108 45.853341,152.36039 C 45.620861,152.53975 45.471417,152.95487 45.405009,153.60576 C 45.285442,154.88104 45.225665,157.46476 45.225675,161.35693 C 45.225665,166.53768 45.24559,170.14759 45.285453,172.18666 C 45.325294,174.22575 45.444849,175.43791 45.644119,175.82314 C 45.723812,175.99583 45.893182,176.13199 46.15223,176.23162 C 46.411255,176.33125 47.331166,176.4342 48.911968,176.54047 L 48.911968,178.21425 L 46.560711,178.15447 C 45.072899,178.10134 43.744507,178.07477 42.57553,178.07477 L 35.8605,178.21425 z M 55.387887,172.23648 C 56.264621,172.23648 57.011842,172.54533 57.629552,173.16303 C 58.247247,173.78074 58.556098,174.5346 58.556106,175.42462 C 58.556098,176.30136 58.247247,177.05191 57.629552,177.67625 C 57.011842,178.30059 56.264621,178.61277 55.387887,178.61277 C 54.511143,178.61277 53.760602,178.30059 53.13626,177.67625 C 52.511913,177.05191 52.199741,176.30136 52.199743,175.42462 C 52.199741,174.54789 52.508592,173.79734 53.126297,173.173 C 53.743997,172.54866 54.497859,172.23648 55.387887,172.23648 L 55.387887,172.23648 z M 71.946315,178.23418 L 71.946315,176.5604 L 73.141869,176.4807 C 74.111593,176.42756 74.719333,176.26151 74.96509,175.98255 C 75.210838,175.70359 75.35364,174.76043 75.393496,173.15307 C 75.486479,169.87195 75.532973,166.3185 75.532978,162.49271 C 75.532973,160.46029 75.519689,158.14888 75.493126,155.55849 C 75.466553,153.99101 75.373566,153.03457 75.214163,152.68916 C 75.134455,152.5165 74.988332,152.37702 74.775793,152.27072 C 74.563247,152.16447 73.620088,152.05156 71.946315,151.93198 L 71.946315,150.2582 C 73.553668,150.29808 75.127813,150.31801 76.668754,150.31798 C 78.462078,150.31801 80.188988,150.29808 81.84949,150.2582 C 82.566811,151.94529 83.31071,153.61906 84.081191,155.27953 C 84.625819,156.46182 87.036851,161.47651 91.314295,170.32359 C 95.830808,161.23739 98.992382,154.54894 100.79903,150.2582 C 102.39307,150.32465 103.90743,150.35786 105.34213,150.35783 C 107.02916,150.35786 108.65644,150.32465 110.22398,150.2582 L 110.22398,151.93198 C 108.48375,152.03828 107.50074,152.19104 107.27495,152.39028 C 107.04908,152.58956 106.90296,153.20062 106.83658,154.22346 C 106.73027,155.89726 106.67713,159.07876 106.67717,163.76797 C 106.67713,166.13252 106.7037,168.6299 106.75687,171.26011 C 106.80997,173.89033 106.90296,175.37813 107.03583,175.72351 C 107.12879,175.92277 107.26162,176.07554 107.43435,176.18181 C 107.60701,176.28808 108.53688,176.41428 110.22398,176.5604 L 110.22398,178.23418 C 108.07194,178.1279 106.15242,178.07477 104.46539,178.07477 C 102.76502,178.07477 100.45361,178.1279 97.531177,178.23418 L 97.531177,176.5604 L 98.706806,176.52055 C 99.636652,176.4807 100.21782,176.35118 100.45032,176.13199 C 100.68276,175.91281 100.83221,175.33496 100.89866,174.39844 C 100.96504,173.46193 100.99825,171.25347 100.99828,167.77307 L 100.99828,155.73783 C 98.95253,159.84258 96.342239,165.22257 93.167404,171.87781 C 91.865557,174.61431 90.849337,176.84601 90.118741,178.57292 L 88.763779,178.57292 C 87.767467,176.28808 86.432432,173.39883 84.758672,169.90515 L 77.864309,155.73783 L 77.864309,158.44775 C 77.864302,165.9399 77.904153,171.10071 77.983864,173.93018 C 78.023709,175.0726 78.176474,175.77665 78.44216,176.04233 C 78.707831,176.30801 79.697483,176.4807 81.41112,176.5604 L 81.41112,178.23418 C 80.056149,178.1279 78.701189,178.07477 77.346235,178.07477 C 75.327072,178.07477 73.527101,178.1279 71.946315,178.23418 L 71.946315,178.23418 z M 112.63501,151.93198 L 112.63501,150.2582 C 115.34493,150.35122 117.72276,150.39771 119.76849,150.39769 C 121.0703,150.39771 122.91013,150.35122 125.28796,150.2582 L 125.28796,151.93198 C 124.06583,151.93201 123.20237,152.03828 122.6976,152.25079 C 122.52489,152.31724 122.38541,152.43015 122.27915,152.58954 C 122.13302,152.77554 122.03339,153.08771 121.98026,153.52605 C 121.90055,154.26998 121.83413,156.40869 121.781,159.94219 C 121.74114,162.39974 121.72122,164.89712 121.72123,167.43433 C 121.72122,169.51992 121.96033,171.05089 122.43856,172.02726 C 122.91677,173.00363 123.61418,173.73093 124.53078,174.20914 C 125.85916,174.88663 127.30711,175.22537 128.87463,175.22536 C 131.01332,175.22537 132.64724,174.87334 133.7764,174.16929 C 134.90551,173.46525 135.66269,172.49552 136.04795,171.26011 C 136.43316,170.02471 136.62578,167.32143 136.6258,163.15026 L 136.60588,155.77768 C 136.59257,154.11721 136.51287,153.12092 136.36677,152.78879 C 136.28704,152.60284 136.14756,152.46336 135.94832,152.37035 C 135.62948,152.1844 134.65976,152.03828 133.03914,151.93198 L 133.03914,150.2582 C 134.75275,150.35122 136.33353,150.39771 137.78151,150.39769 C 139.03017,150.39771 140.56446,150.35122 142.38439,150.2582 L 142.38439,151.93198 C 141.06925,151.93201 140.24897,152.07813 139.92354,152.37035 C 139.59806,152.66262 139.40212,153.41981 139.33573,154.6419 C 139.18958,157.61753 139.10987,160.985 139.09662,164.74434 C 139.09659,167.14874 139.06338,168.72289 138.99699,169.46678 C 138.85084,171.29997 138.40582,172.86415 137.66195,174.15933 C 136.91802,175.45451 135.68262,176.52055 133.95573,177.35744 C 132.2288,178.19432 130.08345,178.61277 127.51966,178.61277 C 124.84958,178.61277 122.63117,178.21425 120.86441,177.41721 C 119.09764,176.62018 117.84231,175.61392 117.09842,174.39844 C 116.35451,173.18296 115.98256,171.3996 115.98257,169.04833 L 116.0822,160.08168 C 116.08219,159.36436 116.04898,157.53782 115.98257,154.60205 C 115.95599,153.68548 115.85636,153.06114 115.68368,152.72902 C 115.5774,152.54307 115.41467,152.39694 115.19549,152.29065 C 114.9763,152.1844 114.12281,152.06485 112.63501,151.93198 L 112.63501,151.93198 z M 144.57624,178.21425 L 144.57624,176.54047 C 146.19687,176.47406 147.14667,176.36778 147.42564,176.22166 C 147.61161,176.11539 147.75109,175.9427 147.84409,175.70359 C 147.9902,175.38477 148.08319,174.26228 148.12305,172.33611 C 148.20275,169.14797 148.2426,166.74358 148.2426,165.12293 L 148.20275,156.69427 C 148.20275,154.46259 148.12969,153.17405 147.98357,152.82865 C 147.90386,152.62941 147.77766,152.48329 147.60497,152.39028 C 147.33929,152.23089 146.32971,152.07813 144.57624,151.93198 L 144.57624,150.2582 C 146.6751,150.32465 148.22931,150.35786 149.2389,150.35783 C 150.35474,150.35786 151.62336,150.32465 153.04475,150.2582 C 156.10004,154.16371 159.55386,158.40128 163.40622,162.97093 C 165.96999,166.02625 168.18177,168.55019 170.04154,170.54278 L 170.04154,162.65212 C 170.04152,159.66325 170.00167,157.08617 169.92199,154.92087 C 169.86883,153.63235 169.76255,152.84196 169.60317,152.54968 C 169.52344,152.3903 169.37732,152.27739 169.1648,152.21094 C 168.95224,152.14455 168.02236,152.05156 166.37518,151.93198 L 166.37518,150.2582 C 167.8231,150.32465 169.26441,150.35786 170.6991,150.35783 C 172.66509,150.35786 174.44514,150.32465 176.03924,150.2582 L 176.03924,151.93198 C 174.55141,152.02499 173.65474,152.13127 173.34924,152.25079 C 173.17652,152.31724 173.03704,152.41023 172.9308,152.52976 C 172.8245,152.64934 172.7448,152.8021 172.69169,152.98805 C 172.59867,153.30689 172.54554,154.32975 172.53228,156.05664 L 172.4725,164.027 L 172.43265,172.05714 C 172.43262,174.20915 172.47912,176.36114 172.57213,178.51314 L 172.3131,178.7921 C 170.70571,178.49985 169.56994,178.30724 168.90577,178.21425 C 165.49177,174.42833 161.36712,169.67269 156.53178,163.9473 C 154.08752,161.05142 152.11486,158.61382 150.61379,156.63449 L 150.61379,164.38567 C 150.61378,166.49783 150.64699,169.0417 150.71342,172.01729 C 150.75326,174.20915 150.84625,175.47112 150.99238,175.80321 C 151.04551,175.94934 151.14514,176.06225 151.29127,176.14196 C 151.54365,176.28808 152.5001,176.42092 154.1606,176.54047 L 154.1606,178.21425 C 152.00859,178.12126 150.46766,178.07477 149.53779,178.07477 C 148.76731,178.07477 147.11346,178.12126 144.57624,178.21425 L 144.57624,178.21425 z M 178.68939,178.21425 L 178.68939,176.54047 C 180.52257,176.44749 181.55871,176.29472 181.79783,176.08218 C 182.03694,175.86964 182.18306,175.34492 182.2362,174.50803 C 182.32918,172.75456 182.37568,169.48671 182.37568,164.70449 C 182.37568,162.87132 182.34911,160.21453 182.29598,156.73412 C 182.2694,154.35632 182.21627,153.05118 182.13657,152.81868 C 182.05686,152.58624 181.91738,152.41687 181.71813,152.31057 C 181.42587,152.16447 180.4163,152.03828 178.68939,151.93198 L 178.68939,150.2582 C 181.42587,150.3645 183.51809,150.41764 184.96605,150.41761 C 187.46342,150.41764 189.72168,150.3645 191.74086,150.2582 L 191.74086,151.93198 C 189.93423,152.03828 188.91469,152.18108 188.68223,152.36039 C 188.44975,152.53975 188.30031,152.95487 188.2339,153.60576 C 188.11433,154.88104 188.05455,157.46476 188.05456,161.35693 C 188.05455,166.53768 188.07448,170.14759 188.11434,172.18666 C 188.15418,174.22575 188.27374,175.43791 188.47301,175.82314 C 188.5527,175.99583 188.72207,176.13199 188.98112,176.23162 C 189.24014,176.33125 190.16005,176.4342 191.74086,176.54047 L 191.74086,178.21425 L 189.3896,178.15447 C 187.90179,178.10134 186.5734,178.07477 185.40442,178.07477 L 178.68939,178.21425 z M 220.83268,173.89033 L 221.33083,174.34862 C 220.98542,175.01282 220.67989,175.6903 220.41424,176.38107 C 218.87327,177.19139 217.3888,177.76592 215.9608,178.10466 C 214.53275,178.4434 212.88887,178.61277 211.02913,178.61277 C 207.54873,178.61277 204.60634,178.00171 202.20196,176.77958 C 199.79756,175.55746 197.94777,173.8372 196.65259,171.61877 C 195.35741,169.40037 194.70982,166.85649 194.70982,163.98715 C 194.70982,159.85587 196.17437,156.47179 199.10348,153.8349 C 202.03258,151.19807 206.07421,149.87964 211.22839,149.87961 C 212.942,149.87964 214.63902,150.03241 216.31946,150.33791 C 217.99986,150.64347 219.67031,151.1084 221.33083,151.73272 L 221.47031,152.03161 C 221.23117,152.74897 221.06512,153.43973 220.97216,154.1039 C 220.79944,155.25963 220.6666,156.69429 220.57364,158.4079 L 218.89987,158.4079 C 218.82014,156.30906 218.74043,155.15668 218.66076,154.95075 C 218.58103,154.74488 218.21572,154.39285 217.56483,153.89468 C 216.91389,153.39656 216.03383,152.9914 214.92465,152.6792 C 213.81542,152.36705 212.58998,152.21097 211.24832,152.21094 C 208.06016,152.21097 205.52625,153.19398 203.64659,155.15998 C 201.7669,157.12602 200.82706,159.86251 200.82707,163.36945 C 200.82706,167.16867 201.9562,170.2439 204.21447,172.59514 C 206.30004,174.77371 209.16273,175.86299 212.80254,175.86299 C 214.21062,175.86299 215.52905,175.71687 216.75783,175.42462 C 217.98657,175.13238 219.34485,174.62095 220.83268,173.89033 L 220.83268,173.89033 z M 224.04075,178.21425 L 224.04075,176.54047 C 225.87393,176.44749 226.91008,176.29472 227.14919,176.08218 C 227.3883,175.86964 227.53442,175.34492 227.58756,174.50803 C 227.68055,172.75456 227.72704,169.48671 227.72704,164.70449 C 227.72704,162.87132 227.70047,160.21453 227.64734,156.73412 C 227.62077,154.35632 227.56763,153.05118 227.48793,152.81868 C 227.40823,152.58624 227.26874,152.41687 227.06949,152.31057 C 226.77724,152.16447 225.76766,152.03828 224.04075,151.93198 L 224.04075,150.2582 C 226.77724,150.3645 228.86946,150.41764 230.31741,150.41761 C 232.81478,150.41764 235.07305,150.3645 237.09222,150.2582 L 237.09222,151.93198 C 235.28559,152.03828 234.26605,152.18108 234.03359,152.36039 C 233.80111,152.53975 233.65167,152.95487 233.58526,153.60576 C 233.46569,154.88104 233.40592,157.46476 233.40593,161.35693 C 233.40592,166.53768 233.42584,170.14759 233.46571,172.18666 C 233.50555,174.22575 233.6251,175.43791 233.82437,175.82314 C 233.90406,175.99583 234.07343,176.13199 234.33248,176.23162 C 234.59151,176.33125 235.51142,176.4342 237.09222,176.54047 L 237.09222,178.21425 L 234.74096,178.15447 C 233.25315,178.10134 231.92476,178.07477 230.75578,178.07477 L 224.04075,178.21425 z M 240.02133,178.21425 L 240.02133,176.54047 C 241.60212,176.42092 242.49878,176.29472 242.71133,176.16188 C 242.87073,176.08218 242.99029,175.9427 243.06999,175.74344 C 243.20283,175.41134 243.29914,174.03646 243.35892,171.61877 C 243.41869,169.20111 243.44858,166.85649 243.44859,164.58493 C 243.44858,160.34737 243.40541,157.31864 243.31907,155.49872 C 243.23272,153.67884 243.09324,152.66262 242.90062,152.45005 C 242.708,152.23754 242.13347,152.09806 241.17703,152.03161 L 240.02133,151.93198 L 240.02133,150.2582 L 242.27296,150.33791 C 243.66777,150.37779 244.77697,150.39771 245.60058,150.39769 C 246.72971,150.39771 248.54961,150.35786 251.06028,150.27813 C 252.41523,150.22502 253.41152,150.19845 254.04917,150.19843 C 256.42697,150.19845 258.18377,150.42428 259.31957,150.87591 C 260.45532,151.32759 261.31878,152.01171 261.90994,152.92828 C 262.50105,153.84489 262.79662,154.98731 262.79664,156.35553 C 262.79662,158.82636 261.9232,160.89533 260.17638,162.56245 C 258.42953,164.2296 256.20779,165.06316 253.51117,165.06315 C 253.16577,165.06316 252.80046,165.0366 252.41524,164.98345 C 252.03,164.93033 251.61819,164.85726 251.17984,164.76426 C 250.954,164.28606 250.71489,163.82112 250.4625,163.36945 L 250.9208,162.8713 C 251.21303,162.93774 251.48203,162.99087 251.7278,163.03071 C 251.97354,163.07058 252.19604,163.0905 252.39532,163.09049 C 253.73698,163.0905 254.8329,162.62889 255.68309,161.70564 C 256.53325,160.78242 256.95833,159.49056 256.95835,157.83005 C 256.95833,155.9836 256.51996,154.6054 255.64324,153.69542 C 254.76648,152.7855 253.47794,152.33052 251.77761,152.3305 C 251.08684,152.33052 250.27652,152.42351 249.34665,152.60946 C 249.20052,156.70093 249.12746,160.16804 249.12747,163.01078 C 249.12746,163.96724 249.18059,167.0159 249.28688,172.15677 C 249.32672,174.18922 249.39314,175.35821 249.48614,175.66373 C 249.55254,175.88956 249.67874,176.04897 249.86473,176.14196 C 250.15696,176.28808 251.2861,176.42092 253.25213,176.54047 L 253.25213,178.21425 C 250.90086,178.12126 248.92156,178.07477 247.31421,178.07477 C 246.59687,178.07477 244.16591,178.12126 240.02133,178.21425 L 240.02133,178.21425 z M 264.66968,176.40099 C 265.91836,176.33457 266.68883,176.20838 266.98108,176.0224 C 267.18034,175.88956 267.49251,175.38477 267.9176,174.50803 C 268.72791,172.78112 269.76406,170.38338 271.02604,167.31478 L 278.07981,150.03902 L 281.00892,150.03902 L 290.01543,171.43944 C 291.18439,174.21579 291.90504,175.7368 292.17739,176.00247 C 292.44968,176.26815 293.28989,176.44749 294.69802,176.54047 L 294.69802,178.21425 C 292.53271,178.12126 290.48698,178.07477 288.56084,178.07477 C 286.26269,178.07477 284.07749,178.12126 282.00521,178.21425 L 282.00521,176.54047 C 283.58598,176.47406 284.49925,176.38439 284.74503,176.27147 C 284.99076,176.15856 285.11363,175.95598 285.11366,175.66373 C 285.11363,175.41134 284.83467,174.54789 284.27677,173.07337 L 282.96166,169.66604 C 281.31443,169.63948 279.47461,169.62619 277.44218,169.62618 C 275.67541,169.62619 274.06805,169.63948 272.62011,169.66604 L 271.74337,171.95752 C 271.50425,172.58187 271.21201,173.51174 270.86663,174.74714 C 270.78692,175.02611 270.74707,175.2785 270.74708,175.50433 C 270.74707,175.80986 270.87659,176.02572 271.13563,176.15192 C 271.39466,176.27812 272.32786,176.40764 273.93522,176.54047 L 273.93522,178.21425 C 272.63339,178.12126 271.01275,178.07477 269.0733,178.07477 C 267.22683,178.07477 265.75896,178.12126 264.66968,178.21425 L 264.66968,176.40099 z M 277.74107,157.09279 L 273.5367,167.31478 C 274.75882,167.38121 276.10713,167.41442 277.58166,167.41441 C 279.12258,167.41442 280.5971,167.38121 282.00521,167.31478 L 277.74107,157.09279 z M 297.8463,178.21425 L 297.8463,177.1781 C 298.57691,176.83272 299.26768,176.42756 299.91859,175.96262 C 300.09128,172.36268 300.17762,168.60997 300.17763,164.70449 C 300.17762,161.63591 300.14441,158.74002 300.078,156.01679 C 300.03814,154.07736 299.94516,152.96151 299.79904,152.66924 C 299.73261,152.49657 299.59645,152.36705 299.39056,152.28068 C 299.18465,152.19436 298.21825,152.07813 296.49134,151.93198 L 296.49134,150.2582 C 299.05513,150.32465 301.43296,150.35786 303.62481,150.35783 C 305.75023,150.35786 307.76274,150.32465 309.66236,150.2582 L 309.66236,151.93198 C 307.82916,152.05156 306.77309,152.21097 306.49414,152.4102 C 306.32144,152.52978 306.19856,152.77221 306.12551,153.1375 C 306.05244,153.50283 305.99598,155.6515 305.95614,159.58353 L 305.83659,169.28744 C 305.83658,171.10735 305.88307,173.21285 305.97607,175.60396 C 307.71625,175.69695 309.00479,175.74344 309.84169,175.74344 C 312.35234,175.74344 314.46448,175.55082 316.17813,175.16559 C 316.52349,173.95675 316.86223,172.51545 317.19435,170.84166 L 318.94783,170.84166 C 318.65556,172.74127 318.39653,175.09917 318.17072,177.91536 C 316.90873,178.10134 315.74638,178.19432 314.68369,178.19432 L 307.47051,178.11462 L 304.24251,178.07477 C 302.75471,178.06148 300.62264,178.10798 297.8463,178.21425 L 297.8463,178.21425 z M 321.51828,178.21425 L 321.51828,176.54047 C 323.35146,176.44749 324.3876,176.29472 324.62672,176.08218 C 324.86582,175.86964 325.01195,175.34492 325.06509,174.50803 C 325.15807,172.75456 325.20456,169.48671 325.20457,164.70449 C 325.20456,162.87132 325.178,160.21453 325.12486,156.73412 C 325.09829,154.35632 325.04516,153.05118 324.96546,152.81868 C 324.88575,152.58624 324.74627,152.41687 324.54701,152.31057 C 324.25476,152.16447 323.24518,152.03828 321.51828,151.93198 L 321.51828,150.2582 C 324.25476,150.3645 326.34698,150.41764 327.79494,150.41761 C 330.29231,150.41764 332.55057,150.3645 334.56974,150.2582 L 334.56974,151.93198 C 332.76312,152.03828 331.74357,152.18108 331.51112,152.36039 C 331.27864,152.53975 331.12919,152.95487 331.06278,153.60576 C 330.94322,154.88104 330.88344,157.46476 330.88345,161.35693 C 330.88344,166.53768 330.90337,170.14759 330.94323,172.18666 C 330.98307,174.22575 331.10263,175.43791 331.3019,175.82314 C 331.38159,175.99583 331.55096,176.13199 331.81001,176.23162 C 332.06903,176.33125 332.98894,176.4342 334.56974,176.54047 L 334.56974,178.21425 L 332.21849,178.15447 C 330.73068,178.10134 329.40228,178.07477 328.23331,178.07477 L 321.51828,178.21425 z M 338.77411,178.21425 L 338.77411,177.19803 C 339.6907,176.66667 340.34161,176.26815 340.72685,176.00247 C 340.91282,173.66451 341.00581,169.28745 341.00581,162.8713 C 341.00581,160.09498 340.97592,157.77361 340.91615,155.9072 C 340.85636,154.04083 340.7667,152.97479 340.64715,152.70909 C 340.59401,152.57628 340.50766,152.47665 340.38811,152.4102 C 340.18885,152.30396 339.21248,152.14455 337.459,151.93198 L 337.459,150.23828 C 339.46487,150.30473 341.76963,150.33794 344.37329,150.33791 L 354.19676,150.23828 C 357.77012,150.23831 360.48336,150.68996 362.3365,151.59324 C 364.18958,152.49657 365.66077,153.8781 366.75008,155.73783 C 367.83933,157.5976 368.38398,159.85587 368.38401,162.51264 C 368.38398,165.92662 367.5338,168.86901 365.83349,171.33981 C 364.13312,173.81063 362.06083,175.57075 359.61661,176.62018 C 357.17234,177.66961 354.56205,178.19432 351.78573,178.19432 L 344.23381,178.07477 C 343.02496,178.07477 341.20507,178.12126 338.77411,178.21425 L 338.77411,178.21425 z M 346.8441,175.76336 C 347.95994,175.94934 349.10236,176.04233 350.27136,176.04233 C 353.23366,176.04233 355.49193,175.61724 357.04617,174.76707 C 358.60037,173.9169 359.85902,172.52541 360.82213,170.59259 C 361.78519,168.65979 362.26673,166.28529 362.26675,163.46908 C 362.26673,159.76288 361.31029,156.94005 359.39742,155.00057 C 357.71034,153.27368 354.95393,152.41023 351.12817,152.4102 C 350.30455,152.41023 348.87653,152.47665 346.8441,152.60946 L 346.6847,165.04323 C 346.68469,170.2771 346.73782,173.85048 346.8441,175.76336 L 346.8441,175.76336 z M 371.23341,176.40099 C 372.4821,176.33457 373.25257,176.20838 373.54482,176.0224 C 373.74407,175.88956 374.05625,175.38477 374.48134,174.50803 C 375.29165,172.78112 376.3278,170.38338 377.58978,167.31478 L 384.64355,150.03902 L 387.57266,150.03902 L 396.57916,171.43944 C 397.74812,174.21579 398.46878,175.7368 398.74113,176.00247 C 399.01342,176.26815 399.85363,176.44749 401.26175,176.54047 L 401.26175,178.21425 C 399.09644,178.12126 397.05072,178.07477 395.12457,178.07477 C 392.82643,178.07477 390.64122,178.12126 388.56895,178.21425 L 388.56895,176.54047 C 390.14972,176.47406 391.06299,176.38439 391.30876,176.27147 C 391.55449,176.15856 391.67737,175.95598 391.67739,175.66373 C 391.67737,175.41134 391.39841,174.54789 390.8405,173.07337 L 389.52539,169.66604 C 387.87817,169.63948 386.03834,169.62619 384.00592,169.62618 C 382.23914,169.62619 380.63179,169.63948 379.18385,169.66604 L 378.30711,171.95752 C 378.06799,172.58187 377.77574,173.51174 377.43037,174.74714 C 377.35066,175.02611 377.31081,175.2785 377.31081,175.50433 C 377.31081,175.80986 377.44032,176.02572 377.69937,176.15192 C 377.9584,176.27812 378.89159,176.40764 380.49896,176.54047 L 380.49896,178.21425 C 379.19712,178.12126 377.57649,178.07477 375.63704,178.07477 C 373.79057,178.07477 372.32269,178.12126 371.23341,178.21425 L 371.23341,176.40099 z M 384.30481,157.09279 L 380.10044,167.31478 C 381.32255,167.38121 382.67087,167.41442 384.1454,167.41441 C 385.68632,167.41442 387.16084,167.38121 388.56895,167.31478 L 384.30481,157.09279 z M 404.52961,178.21425 L 404.52961,177.19803 C 405.44619,176.66667 406.09711,176.26815 406.48234,176.00247 C 406.66831,173.66451 406.7613,169.28745 406.76131,162.8713 C 406.7613,160.09498 406.73141,157.77361 406.67164,155.9072 C 406.61186,154.04083 406.52219,152.97479 406.40264,152.70909 C 406.3495,152.57628 406.26315,152.47665 406.1436,152.4102 C 405.94434,152.30396 404.96797,152.14455 403.2145,151.93198 L 403.2145,150.23828 C 405.22037,150.30473 407.52513,150.33794 410.12878,150.33791 L 419.95226,150.23828 C 423.52561,150.23831 426.23885,150.68996 428.09199,151.59324 C 429.94507,152.49657 431.41626,153.8781 432.50558,155.73783 C 433.59483,157.5976 434.13947,159.85587 434.1395,162.51264 C 434.13947,165.92662 433.2893,168.86901 431.58898,171.33981 C 429.88861,173.81063 427.81632,175.57075 425.3721,176.62018 C 422.92784,177.66961 420.31755,178.19432 417.54122,178.19432 L 409.9893,178.07477 C 408.78046,178.07477 406.96056,178.12126 404.52961,178.21425 L 404.52961,178.21425 z M 412.5996,175.76336 C 413.71544,175.94934 414.85785,176.04233 416.02685,176.04233 C 418.98915,176.04233 421.24742,175.61724 422.80166,174.76707 C 424.35586,173.9169 425.61451,172.52541 426.57762,170.59259 C 427.54068,168.65979 428.02222,166.28529 428.02225,163.46908 C 428.02222,159.76288 427.06578,156.94005 425.15292,155.00057 C 423.46584,153.27368 420.70942,152.41023 416.88367,152.4102 C 416.06005,152.41023 414.63203,152.47665 412.5996,152.60946 L 412.44019,165.04323 C 412.44018,170.2771 412.49331,173.85048 412.5996,175.76336 L 412.5996,175.76336 z"
           id="text4303"
           style="font-size:40.80825424px;font-style:normal;font-variant:normal;font-weight:bold;font-stretch:normal;text-align:start;line-height:125%;writing-mode:lr-tb;text-anchor:start;fill:#000000;fill-opacity:1;stroke:none;stroke-width:1px;stroke-linecap:butt;stroke-linejoin:miter;stroke-opacity:1;font-family:Book Antiqua;-inkscape-font-specification:Book Antiqua Bold" />
        <g
           transform="translate(-5.3484982,6.4)"
           id="g4842">
          <g
             transform="translate(-4.6515018,0)"
             id="g4822">
            <g
               transform="matrix(0.9922997,0.12386,-0.12386,0.9922997,58.426989,-26.431049)"
               id="g4282"
               style="stroke-width:0.51200002;stroke-miterlimit:4;stroke-dasharray:none">
              <path
                 d="M 257.91052,611.66358 C 343.45902,602.77043 405.65672,526.11297 396.76357,440.56449 C 387.87042,355.01599 311.23783,292.81568 225.68934,301.70886 C 140.14084,310.60201 77.915679,387.23715 86.808839,472.78567 C 95.701989,558.33417 172.36202,620.55674 257.91052,611.66358 z M 253.13098,565.68634 C 192.95203,571.94221 139.01708,528.18766 132.76121,468.00872 C 126.50535,407.82975 170.28735,353.9171 230.46629,347.66123 C 290.64523,341.40535 344.55532,385.1625 350.81119,445.34144 C 357.06706,505.52037 313.30992,559.43047 253.13098,565.68634 z"
                 id="path4261"
                 style="fill:#e3e4e5;fill-opacity:1;fill-rule:evenodd;stroke:#000000;stroke-width:0.76144743;stroke-linecap:round;stroke-linejoin:round;stroke-miterlimit:4;stroke-dasharray:none;stroke-dashoffset:0;stroke-opacity:1" />
              <path
                 d="M 365.40953,458.39863 L 366.05826,458.43927 C 366.24584,458.91025 366.47242,459.35863 366.73798,459.7844 C 368.98512,460.03372 371.33129,460.23498 373.77651,460.38816 C 375.69773,460.50852 377.51214,460.60131 379.21975,460.66654 C 380.43558,460.71766 381.13786,460.70321 381.32658,460.62319 C 381.43729,460.58837 381.52373,460.5082 381.58588,460.38268 C 381.648,460.25715 381.75868,459.65665 381.91792,458.58117 L 382.96586,458.64682 C 382.8237,460.24939 382.70964,461.73684 382.62369,463.10915 C 382.5403,464.43987 382.48216,465.7012 382.44925,466.89315 L 381.40131,466.8275 C 381.39834,465.67505 381.33996,465.0076 381.22616,464.82513 C 381.15807,464.71231 381.0111,464.62587 380.78526,464.56581 C 380.5594,464.50573 379.21633,464.3861 376.75607,464.20693 L 370.68517,463.75146 C 369.54573,463.68007 368.22566,463.6266 366.72495,463.59104 C 366.59847,464.67691 366.51882,465.48184 366.486,466.00582 C 366.38752,467.57773 366.42528,468.90769 366.59926,469.99571 C 367.34256,470.25935 368.23167,470.52797 369.26659,470.80156 L 369.19781,471.89941 C 368.01994,471.64191 366.55383,471.38724 364.79948,471.13541 C 364.73254,470.33798 364.71991,469.6066 364.76159,468.94125 L 365.09442,464.42823 L 365.24598,462.40875 C 365.31265,461.47776 365.36717,460.14105 365.40953,458.39863 L 365.40953,458.39863 z M 364.24421,473.19493 L 365.27979,473.36836 C 365.14738,474.5122 365.13454,475.1691 365.24127,475.33906 C 365.348,475.50902 365.6575,475.65379 366.16979,475.77338 C 367.24504,476.01259 369.26207,476.37995 372.22087,476.87545 C 373.35507,477.06538 375.00159,477.32422 377.16046,477.65196 C 378.63438,477.88189 379.44739,477.98424 379.59949,477.95902 C 379.75156,477.93379 379.87081,477.86504 379.95722,477.75277 C 380.07789,477.58709 380.26057,476.97553 380.50527,475.91809 L 381.54085,476.09151 C 381.19155,477.77359 380.94189,479.06255 380.79189,479.95842 C 380.53311,481.50356 380.332,482.90627 380.18856,484.16657 L 379.15298,483.99314 C 379.2744,482.86435 379.29169,482.21876 379.20483,482.05636 C 379.11795,481.89394 378.8766,481.75846 378.48077,481.64993 C 377.70413,481.44382 376.11175,481.13913 373.70363,480.73587 C 370.49826,480.19907 368.26271,479.83737 366.99699,479.65076 C 365.73126,479.46414 364.9689,479.41251 364.70991,479.49589 C 364.59481,479.5273 364.49301,479.61799 364.40453,479.76794 C 364.31605,479.91788 364.15704,480.47637 363.9275,481.44341 L 362.89192,481.26999 L 363.17253,479.82144 C 363.35956,478.90642 363.51363,478.08729 363.63475,477.36403 L 364.24421,473.19493 z M 362.41657,484.01998 L 362.98182,484.18014 C 363.12494,484.71438 363.27467,485.13357 363.43102,485.43772 C 364.5102,485.84742 366.94197,486.58838 370.72635,487.66062 C 373.4684,488.43752 375.42004,488.94718 376.58129,489.18958 C 377.21,489.32441 377.59465,489.34245 377.73524,489.2437 C 377.94556,489.11274 378.22244,488.53292 378.56587,487.50425 L 379.57611,487.79049 L 378.87376,490.08596 L 378.33678,491.84365 C 378.18456,492.38082 377.97971,493.18026 377.72222,494.24195 C 377.47379,495.27155 377.28712,496.00684 377.16219,496.44783 C 376.65786,498.22775 375.99801,499.41794 375.18262,500.01842 C 374.36721,500.61887 373.44236,500.77258 372.40809,500.47955 C 371.34172,500.1774 370.5797,499.55008 370.12203,498.59759 C 369.66434,497.64507 369.48768,496.4344 369.59205,494.96557 L 369.49584,494.93831 C 368.94716,496.32456 368.44672,497.26544 367.99453,497.76095 C 367.54232,498.25643 366.96157,498.59424 366.25228,498.77439 C 365.54297,498.95451 364.79946,498.9344 364.02175,498.71406 C 363.06764,498.44372 362.24799,497.89751 361.56281,497.07544 C 360.87763,496.25335 360.44627,495.29964 360.26874,494.21432 C 360.09122,493.12898 360.24893,491.71639 360.74188,489.97655 C 360.83956,489.63178 360.99811,489.11805 361.21753,488.43535 C 361.42332,487.80074 361.58414,487.27898 361.69999,486.87009 C 361.82948,486.41307 362.06834,485.46304 362.41657,484.01998 L 362.41657,484.01998 z M 371.03343,491.43736 L 370.85624,492.06275 C 370.47232,493.41773 370.4471,494.43912 370.78058,495.12692 C 371.11404,495.81469 371.80193,496.30624 372.84424,496.60158 C 373.75825,496.86053 374.49478,496.82886 375.05383,496.50656 C 375.61285,496.18423 376.03662,495.51395 376.32513,494.49571 C 376.43189,494.11887 376.53044,493.64876 376.62079,493.0854 C 374.17296,492.33988 372.67245,491.88875 372.11923,491.73201 L 371.03343,491.43736 z M 362.47571,489.03868 C 362.22369,489.46962 362.03975,489.88955 361.92389,490.29846 C 361.60132,491.43697 361.68043,492.40347 362.16122,493.19797 C 362.64202,493.99245 363.51582,494.56916 364.78262,494.92809 C 365.60844,495.16206 366.32312,495.21514 366.92666,495.08734 C 367.53019,494.95951 368.02896,494.68941 368.42297,494.27705 C 368.81696,493.86465 369.14118,493.20947 369.39561,492.3115 L 369.72774,491.09341 L 369.41505,491.00481 L 366.30698,490.09821 L 363.1492,489.2295 L 362.47571,489.03868 z M 357.54254,500.19818 L 358.16171,500.46698 C 358.1693,500.95175 358.22239,501.41541 358.32099,501.85794 C 359.4471,502.5285 361.92118,503.69339 365.74323,505.35262 C 368.34986,506.4842 370.08905,507.20741 370.96078,507.52226 C 371.42173,507.6951 371.74048,507.74036 371.91705,507.65804 C 372.0936,507.57569 372.44127,507.05209 372.96009,506.08722 L 373.92325,506.50534 C 373.07128,508.27948 372.418,509.69017 371.96338,510.73742 L 369.28949,517.08514 C 369.00077,517.75016 368.71352,518.33861 368.42773,518.85049 L 368.26676,518.876 C 367.50655,518.3461 366.45125,517.74262 365.10086,517.06556 L 365.49409,516.15973 C 366.62672,516.60598 367.24204,516.82087 367.34006,516.80438 C 367.43806,516.78786 367.58617,516.64549 367.7844,516.37725 C 368.19741,515.8025 368.68765,514.86157 369.25511,513.55444 C 369.53385,512.91232 369.83231,512.15159 370.15047,511.27223 C 367.83158,510.14745 365.97602,509.27378 364.58379,508.65123 C 364.1752,509.44591 363.81494,510.20252 363.50301,510.92108 C 363.04175,511.9836 362.79905,512.63682 362.77494,512.88073 C 362.76439,513.03058 362.8354,513.17042 362.98799,513.30027 C 363.10567,513.40585 363.56402,513.66842 364.36304,514.08798 L 363.93496,515.07407 C 362.6597,514.47502 361.82714,514.09088 361.4373,513.92166 L 358.83252,512.85901 L 359.2606,511.87292 C 360.28521,512.25411 360.8922,512.43586 361.08159,512.41816 C 361.19323,512.4121 361.303,512.33711 361.41091,512.19319 C 361.66092,511.84748 362.07628,511.00577 362.65701,509.66806 C 362.83952,509.24762 363.03063,508.74462 363.23034,508.15906 C 362.83183,507.96788 362.42237,507.78104 362.00195,507.59854 C 359.81573,506.64946 358.11744,505.95762 356.90706,505.52303 L 355.88708,507.77839 C 355.32627,509.07024 354.88237,510.28112 354.55537,511.41104 C 355.17567,511.90742 355.89484,512.43766 356.71287,513.00174 L 356.29973,513.95344 C 355.03069,513.19356 353.78364,512.52955 352.55856,511.9614 C 352.78411,511.23259 353.03625,510.54714 353.31499,509.90504 C 353.49751,509.48461 353.87285,508.66186 354.44101,507.4368 C 354.97268,506.2958 355.44923,505.23991 355.87067,504.26911 C 356.42485,502.99254 356.98214,501.63557 357.54254,500.19818 L 357.54254,500.19818 z M 351.60733,513.79771 L 352.50353,514.34482 C 352.07096,515.21331 351.84978,515.72755 351.83998,515.88755 C 351.83489,515.99184 351.86772,516.08999 351.93848,516.18201 C 352.06576,516.35734 352.61149,516.75885 353.57567,517.38652 C 355.07606,518.3513 356.26369,519.10074 357.13855,519.63483 C 358.31925,520.35563 359.8287,521.2576 361.66692,522.34075 C 363.0428,523.14165 363.91623,523.58211 364.28722,523.66214 C 364.39704,523.69013 364.5029,523.67665 364.60481,523.6217 C 364.7454,523.55131 365.10371,523.14031 365.67974,522.38869 L 366.57594,522.93581 C 365.62019,524.37338 365.01206,525.30555 364.75154,525.73232 L 361.58442,531.13611 C 360.87664,532.29546 360.24898,533.0717 359.70145,533.46483 C 359.1539,533.85792 358.53853,534.05829 357.85532,534.06593 C 357.1721,534.07353 356.4962,533.87326 355.82761,533.46512 C 354.97409,532.94404 354.37637,532.23986 354.03446,531.35258 C 353.69254,530.46527 353.64607,529.25795 353.89504,527.73064 L 349.08296,527.91238 L 345.37719,528.08117 C 344.74636,528.15492 344.33655,528.24646 344.14776,528.35579 C 343.95899,528.46509 343.74815,528.70251 343.51523,529.06804 L 342.69372,528.56652 L 343.06734,527.93053 C 344.15603,526.11522 344.84464,524.93927 345.13316,524.40269 C 346.49959,524.38744 348.49727,524.33774 351.12621,524.2536 L 355.80734,524.09443 C 355.88917,524.23225 355.98463,524.36375 356.09372,524.48894 C 355.88447,524.75173 355.73859,524.9507 355.65609,525.08585 C 355.25227,525.74731 355.12168,526.56095 355.26434,527.52677 C 355.40699,528.49256 355.97265,529.27724 356.96131,529.88082 C 357.82194,530.4062 358.64468,530.56187 359.42953,530.34781 C 360.21436,530.13372 360.91508,529.52168 361.53167,528.5117 C 361.72706,528.19162 361.96704,527.74255 362.25161,527.16449 L 359.14985,525.1684 L 355.21826,522.63642 C 354.31495,522.08495 353.13743,521.41491 351.6857,520.6263 C 350.59118,520.03621 349.96254,519.73054 349.79977,519.70929 C 349.68125,519.69551 349.55881,519.72816 349.43243,519.80723 C 349.25589,519.90448 348.89661,520.34906 348.35458,521.14097 L 347.45839,520.59386 C 348.28977,519.34397 349.00724,518.2247 349.6108,517.23604 C 350.25344,516.18337 350.91895,515.03726 351.60733,513.79771 L 351.60733,513.79771 z M 339.64935,532.10647 L 340.45806,532.77616 C 340.15511,533.142 339.87095,533.55047 339.6056,534.00156 C 339.48356,534.21426 339.42755,534.38968 339.43758,534.52783 C 339.44762,534.66597 339.53617,534.83668 339.70324,535.03996 C 339.94203,535.31343 340.92423,536.19171 342.64986,537.67481 C 343.87907,538.72517 345.14193,539.78718 346.43843,540.86082 C 348.9865,542.97087 350.29125,544.03781 350.35268,544.06165 C 350.4141,544.08545 350.62552,543.87913 350.98695,543.4427 C 351.72573,542.55054 352.3352,541.76229 352.81537,541.07795 C 353.09154,540.6791 353.23351,540.44233 353.2413,540.36762 C 353.24906,540.2929 353.22346,540.20949 353.1645,540.11739 C 353.10552,540.02527 352.58749,539.50432 351.61041,538.55454 L 352.29605,537.72658 C 353.51131,538.75457 354.59635,539.59359 355.55119,540.24364 L 355.54051,540.41332 C 353.77641,542.36067 352.10243,544.29068 350.51856,546.20336 C 348.93999,548.10958 347.21767,550.28088 345.3516,552.71726 L 345.10987,552.6956 C 344.33154,551.84547 343.37315,550.90576 342.2347,549.87647 L 342.89642,549.07739 C 344.01612,549.90721 344.64481,550.33046 344.7825,550.34712 C 344.89031,550.36064 345.02349,550.29781 345.18204,550.15863 C 345.69067,549.71424 346.57748,548.72828 347.84246,547.20073 C 347.94876,547.07235 347.99328,546.97938 347.97604,546.92184 C 347.95236,546.85894 347.79291,546.70526 347.49767,546.46078 L 341.07583,541.04547 C 339.20168,539.49347 338.03791,538.5568 337.58451,538.23545 C 337.13112,537.91409 336.80901,537.77718 336.61816,537.82472 C 336.4913,537.86032 336.00668,538.30835 335.16429,539.16882 L 334.35558,538.49912 C 335.18183,537.59283 336.03344,536.61017 336.91041,535.55115 C 338.06377,534.15837 338.97675,533.01014 339.64935,532.10647 L 339.64935,532.10647 z M 331.70997,543.43456 C 331.15428,543.98823 330.84708,544.36968 330.78835,544.5789 C 330.75085,544.72437 330.81625,545.09091 330.98458,545.67852 C 331.32873,546.82463 331.84813,548.37873 332.54279,550.34083 L 336.47744,561.36582 L 335.10873,562.5918 L 321.94302,556.36144 C 320.23475,555.55337 319.26139,555.14426 319.02292,555.13411 C 318.78449,555.12393 318.31681,555.3918 317.6199,555.93772 L 316.91934,555.15559 C 317.97007,554.29275 318.94546,553.45824 319.84551,552.65206 C 320.9194,551.69017 321.92104,550.75383 322.85046,549.84303 L 323.55101,550.62515 C 322.84015,551.31782 322.45093,551.74197 322.38334,551.8976 C 322.31577,552.05321 322.34315,552.1993 322.46546,552.33587 C 322.5711,552.4538 323.06286,552.74052 323.94071,553.19603 L 325.98138,554.23777 C 326.76221,553.56074 327.62749,552.79689 328.57721,551.94622 C 329.40278,551.20674 330.14831,550.52777 330.81379,549.90933 L 330.26438,548.4716 C 330.11479,548.07977 329.86216,547.52294 329.50647,546.8011 C 329.42695,546.63738 329.33994,546.50276 329.24541,546.39724 C 329.11754,546.25447 328.96667,546.20781 328.7928,546.25727 C 328.61894,546.30671 328.12866,546.63678 327.32197,547.24747 L 326.62142,546.46534 C 327.26866,545.96391 328.04541,545.30732 328.95168,544.49557 C 329.8145,543.72273 330.48095,543.08662 330.95103,542.58726 L 331.70997,543.43456 z M 333.68338,557.92795 L 331.3696,551.39166 C 330.77073,551.87214 330.12678,552.42096 329.43777,553.03812 C 328.71772,553.68307 328.0426,554.31575 327.41242,554.93615 L 333.68338,557.92795 z M 315.22602,556.35803 L 315.56695,556.89671 C 315.25934,557.48587 315.048,557.91548 314.93292,558.18556 C 315.61868,559.48726 317.03781,561.83866 319.1903,565.23976 C 320.12171,566.71144 320.91633,567.93193 321.57416,568.90123 C 322.23198,569.8705 322.63714,570.40551 322.78965,570.50625 C 322.86238,570.55882 322.94157,570.58267 323.02724,570.57778 C 323.16851,570.56725 323.73954,570.3242 324.74034,569.84862 L 325.30855,570.74642 C 324.22298,571.38413 322.99012,572.13973 321.60997,573.01322 L 316.43614,576.36162 C 314.54196,577.5604 312.95219,578.23123 311.66684,578.3741 C 310.38151,578.51693 309.13818,578.27817 307.93685,577.6578 C 306.73553,577.03739 305.68922,576.02304 304.79791,574.61474 C 303.6526,572.80504 303.11615,570.96011 303.18855,569.07996 C 303.26097,567.19978 303.76897,565.57155 304.71255,564.19528 C 305.65615,562.81899 306.86379,561.66514 308.33547,560.73374 L 312.37872,558.26359 C 313.01951,557.85804 313.96861,557.22286 315.22602,556.35803 L 315.22602,556.35803 z M 311.77048,560.36453 C 311.1166,560.64029 310.47983,560.97426 309.86017,561.36643 C 308.2899,562.36023 307.23544,563.34316 306.69678,564.31525 C 306.15814,565.28731 305.95777,566.44717 306.09567,567.79483 C 306.23358,569.14246 306.77493,570.56269 307.7197,572.05553 C 308.96307,574.02011 310.41707,575.19558 312.0817,575.58193 C 313.55533,575.93134 315.30613,575.46432 317.33411,574.18087 C 317.77069,573.90454 318.50538,573.39026 319.53818,572.63802 L 315.45138,565.99361 C 313.69552,563.21922 312.46856,561.34286 311.77048,560.36453 L 311.77048,560.36453 z M 170.06482,557.45089 L 169.40888,558.27079 C 168.58768,557.70986 168.09898,557.42029 167.94281,557.40207 C 167.83349,557.37864 167.72026,557.40011 167.60313,557.46649 C 167.40791,557.57711 166.82193,558.21286 165.84518,559.37374 C 164.86844,560.53463 163.93497,561.67143 163.04477,562.78417 C 161.38411,564.85996 160.21833,566.36052 159.54742,567.28585 C 158.87652,568.21116 158.5466,568.76363 158.55765,568.94324 C 158.56873,569.12282 158.7955,569.4163 159.23798,569.82367 L 159.76506,570.32538 L 159.10912,571.14529 L 158.03739,570.22386 C 157.36976,569.65771 156.83422,569.21326 156.43076,568.89051 C 155.87766,568.448 154.97056,567.75433 153.70945,566.80947 C 153.02491,566.3045 152.52646,565.92708 152.21409,565.6772 C 151.04933,564.74535 150.27725,563.94626 149.89786,563.27992 C 149.51851,562.61357 149.36365,561.94007 149.43326,561.25942 C 149.50291,560.57876 149.80583,559.90331 150.34201,559.23307 C 151.31032,558.02273 152.54897,557.35152 154.05799,557.21943 C 155.56703,557.08735 156.98203,557.5497 158.30297,558.60648 C 158.47217,558.74183 158.64071,558.89801 158.80858,559.07501 C 158.97648,559.25201 159.14957,559.44918 159.32786,559.66652 C 159.25108,559.98928 159.186,560.31073 159.13263,560.63089 L 158.71291,560.69531 C 158.5958,560.54824 158.48485,560.4168 158.38007,560.30097 C 158.27532,560.18514 158.17413,560.08818 158.07651,560.01009 C 157.4193,559.4843 156.70155,559.28094 155.92327,559.40002 C 155.14502,559.5191 154.43052,559.98534 153.77977,560.79874 C 153.05618,561.70323 152.73081,562.55015 152.80367,563.33948 C 152.87656,564.1288 153.32946,564.85664 154.16236,565.523 C 154.50075,565.79369 154.93413,566.0657 155.4625,566.33901 C 157.1375,564.39206 158.53201,562.72231 159.64605,561.32977 C 160.02088,560.86125 161.18959,559.34703 163.15218,556.7871 C 163.92916,555.77588 164.35474,555.17722 164.42892,554.99111 C 164.48489,554.85446 164.48554,554.72692 164.43087,554.60848 C 164.34498,554.42238 163.84393,553.91481 162.92771,553.08578 L 163.58365,552.26587 C 164.69899,553.23286 165.65034,554.0313 166.4377,554.66121 C 166.7891,554.94232 167.99813,555.87222 170.06482,557.45089 L 170.06482,557.45089 z M 157.9096,547.6919 L 157.14764,548.41433 C 156.42207,547.77018 155.98333,547.4225 155.83143,547.3713 C 155.73208,547.33918 155.62876,547.34527 155.52148,547.38957 C 155.31901,547.46671 154.78904,547.8888 153.93157,548.65585 C 152.60878,549.8526 151.57547,550.8036 150.83165,551.50884 C 149.8278,552.46061 148.56328,553.6825 147.03809,555.1745 C 145.906,556.2938 145.25294,557.02208 145.07889,557.35935 C 145.02322,557.45806 145.00862,557.56378 145.03508,557.67649 C 145.06636,557.83057 145.36965,558.2837 145.94497,559.03586 L 145.18301,559.75829 C 144.04454,558.46062 143.3033,557.63037 142.95926,557.26754 L 138.56881,552.80038 C 137.63426,551.81466 137.04863,551.00624 136.81195,550.37511 C 136.57531,549.74397 136.54241,549.09763 136.71327,548.43609 C 136.88417,547.77454 137.25383,547.17429 137.82226,546.63533 C 138.54795,545.9473 139.38368,545.55398 140.32943,545.45537 C 141.27521,545.35677 142.45284,545.62687 143.86232,546.26565 L 144.94222,541.57279 L 145.74601,537.95131 C 145.83938,537.32308 145.85792,536.90358 145.80163,536.69281 C 145.74536,536.48206 145.57117,536.21658 145.27905,535.89638 L 145.97752,535.23415 L 146.49401,535.76073 C 147.96246,537.2853 148.91804,538.25683 149.36078,538.67534 C 149.01903,539.99844 148.54587,541.93991 147.94128,544.49977 L 146.87375,549.06032 C 146.71936,549.10337 146.5675,549.16122 146.41819,549.23387 C 146.21909,548.96331 146.06507,548.77058 145.95612,548.65568 C 145.42291,548.09328 144.67151,547.75496 143.70192,547.64072 C 142.73236,547.52649 141.82728,547.86785 140.98669,548.66483 C 140.25498,549.35859 139.89008,550.11223 139.89198,550.92575 C 139.89391,551.73925 140.30195,552.57537 141.11611,553.43409 C 141.37414,553.70622 141.74506,554.05504 142.22886,554.48055 L 144.965,552.00692 L 148.43495,548.872 C 149.20297,548.14383 150.15699,547.18189 151.29702,545.98616 C 152.15221,545.08347 152.61129,544.55634 152.67427,544.40475 C 152.71848,544.29393 152.71891,544.16721 152.67555,544.02458 C 152.62771,543.82879 152.29225,543.36597 151.66917,542.63612 L 152.43113,541.91368 C 153.42085,543.04234 154.3142,544.02696 155.11117,544.86753 C 155.95974,545.76254 156.89255,546.70399 157.9096,547.6919 L 157.9096,547.6919 z M 139.97687,526.14347 C 141.70901,528.68421 142.3827,531.07412 141.99796,533.31321 C 141.61322,535.55229 140.27786,537.45106 137.99188,539.00952 C 136.39446,540.09855 134.81334,540.69741 133.2485,540.80609 C 131.68368,540.91477 130.20627,540.5932 128.81626,539.8414 C 127.42628,539.08958 126.10931,537.80135 124.86534,535.97671 C 123.66836,534.22092 122.9771,532.58932 122.79157,531.08191 C 122.60608,529.57452 122.8192,528.17104 123.43093,526.87147 C 124.0427,525.57193 125.09221,524.41518 126.57945,523.40124 C 128.19066,522.30282 129.80856,521.68394 131.43316,521.54458 C 133.05778,521.40525 134.60154,521.71688 136.06444,522.47948 C 137.52737,523.2421 138.83151,524.46343 139.97687,526.14347 L 139.97687,526.14347 z M 138.58353,526.51849 C 137.64002,525.13452 136.37654,524.37967 134.79309,524.25393 C 133.20966,524.1282 131.3748,524.7765 129.28849,526.19881 C 127.09893,527.69155 125.74043,529.30857 125.21298,531.04988 C 124.79074,532.45726 125.12178,533.95622 126.20611,535.54676 C 127.22006,537.03402 128.49746,537.84998 130.03832,537.99465 C 131.57921,538.13931 133.37214,537.51457 135.41711,536.12041 C 136.8906,535.11587 137.98603,534.04128 138.7034,532.89664 C 139.42077,531.75201 139.76908,530.67997 139.74831,529.68051 C 139.72755,528.68106 139.33929,527.62706 138.58353,526.51849 L 138.58353,526.51849 z M 122.877,508.46689 L 121.95475,508.88474 C 121.3592,507.4895 120.81553,506.24916 120.32373,505.16369 C 119.86978,504.16175 119.36453,503.08697 118.80797,501.93935 L 119.53667,501.60919 C 119.79427,501.89505 120.06396,502.15711 120.34573,502.39537 C 121.15366,502.13913 121.82709,501.88891 122.36601,501.64472 C 122.75314,501.46934 123.49915,501.07645 124.60405,500.46604 C 125.83152,501.72138 126.77159,502.81186 127.42427,503.7375 C 128.07695,504.66316 128.64919,505.6687 129.14097,506.75415 C 130.46846,509.68412 130.74697,512.32315 129.9765,514.67122 C 129.20603,517.01931 127.6101,518.74188 125.18869,519.83895 C 122.69899,520.96697 120.323,521.02339 118.06073,520.00819 C 115.79848,518.99299 113.9503,516.90275 112.51618,513.73747 C 112.01065,512.62166 111.61303,511.51184 111.32331,510.408 C 111.03364,509.30418 110.85739,508.20843 110.79456,507.12073 L 110.91892,506.94087 C 111.98268,506.72425 113.25593,506.34407 114.73868,505.80034 L 115.172,506.75675 C 114.45436,507.09107 113.8391,507.42929 113.32624,507.77142 C 112.98466,508.51172 112.84624,509.32691 112.911,510.21701 C 112.9758,511.10711 113.24376,512.07212 113.7149,513.11202 C 114.59877,515.06281 115.89499,516.34873 117.60356,516.9698 C 119.31217,517.59086 121.19499,517.4354 123.25203,516.50341 C 125.44572,515.50951 126.93644,514.09992 127.7242,512.27462 C 128.51197,510.44934 128.50176,508.6448 127.69356,506.861 C 127.26368,505.91219 126.57477,505.00754 125.62683,504.14704 C 125.01485,504.35113 124.44698,504.57183 123.92322,504.80911 C 122.75428,505.33874 122.14003,505.69938 122.08047,505.89102 C 122.02094,506.08269 122.28645,506.94131 122.877,508.46689 L 122.877,508.46689 z M 124.6964,496.91561 L 123.68252,497.18863 C 123.3507,496.27689 123.13016,495.76237 123.0209,495.64507 C 122.94879,495.56956 122.85501,495.52578 122.73957,495.51371 C 122.52478,495.48525 121.85783,495.60444 120.73872,495.87128 C 119.0059,496.29475 117.64461,496.63975 116.65486,496.90627 C 115.31912,497.26597 113.62561,497.73927 111.57431,498.32617 C 110.04608,498.77223 109.1252,499.10219 108.81168,499.31607 C 108.71576,499.37643 108.65263,499.46247 108.62228,499.5742 C 108.5765,499.72461 108.62775,500.26746 108.77603,501.20274 L 107.76215,501.47576 C 107.378,499.79276 107.12091,498.70986 106.99088,498.22706 L 105.25386,492.20923 C 104.90068,490.89763 104.7701,489.90795 104.86212,489.24021 C 104.95418,488.57249 105.23269,487.98831 105.69766,487.48767 C 106.16267,486.98705 106.77335,486.6349 107.52972,486.4312 C 108.49534,486.17119 109.41755,486.22275 110.29636,486.58588 C 111.17519,486.94904 112.08259,487.74678 113.01854,488.97912 L 116.20071,485.36487 L 118.63039,482.56167 C 119.01136,482.05348 119.22721,481.6933 119.27795,481.48112 C 119.3287,481.26898 119.30176,480.9526 119.19712,480.53199 L 120.12652,480.28172 L 120.33035,480.9906 C 120.89683,483.03014 121.27525,484.33927 121.46562,484.918 C 120.53565,485.91927 119.19593,487.40196 117.44647,489.36607 L 114.33811,492.86984 C 114.18182,492.83426 114.02073,492.81291 113.85483,492.8058 C 113.8084,492.4731 113.7646,492.23031 113.72342,492.07742 C 113.52191,491.32908 113.02189,490.67407 112.22336,490.11237 C 111.42486,489.55069 110.46635,489.42044 109.34785,489.72163 C 108.37422,489.98383 107.69475,490.47317 107.30945,491.18966 C 106.92419,491.90616 106.8854,492.83572 107.19307,493.97834 C 107.2906,494.34045 107.45094,494.82371 107.6741,495.42813 L 111.25751,494.55379 L 115.80095,493.44681 C 116.82289,493.17163 118.11964,492.77928 119.69121,492.26977 C 120.87284,491.88254 121.5274,491.63723 121.6549,491.53385 C 121.74651,491.45741 121.80716,491.34614 121.83686,491.20005 C 121.88792,491.00508 121.813,490.4384 121.61209,489.50002 L 122.62597,489.227 C 122.95968,490.69058 123.27713,491.98161 123.57832,493.10009 C 123.89902,494.291 124.27171,495.56284 124.6964,496.91561 L 124.6964,496.91561 z M 120.00258,478.17491 L 119.33278,478.25854 C 119.0796,477.84505 118.798,477.47291 118.48796,477.1421 C 117.17733,477.13778 114.45473,477.39372 110.32016,477.90992 C 107.50039,478.26198 105.63519,478.52425 104.72452,478.69673 C 104.23976,478.78245 103.94232,478.90566 103.8322,479.06637 C 103.72211,479.22709 103.6892,479.85475 103.73347,480.94936 L 102.69156,481.07945 C 102.52235,479.11864 102.36701,477.5718 102.22555,476.43893 L 101.29784,469.61378 C 101.20804,468.89438 101.15594,468.24164 101.14153,467.65556 L 101.26713,467.5517 C 102.1912,467.6211 103.40674,467.60371 104.91376,467.49952 L 105.0361,468.47941 C 103.83399,468.6715 103.19493,468.79958 103.11893,468.86364 C 103.04297,468.92772 102.9879,469.12565 102.95373,469.45743 C 102.89059,470.16236 102.94728,471.22183 103.12381,472.63584 C 103.21055,473.33046 103.34067,474.13722 103.51417,475.05613 C 106.08276,474.84462 108.12471,474.65266 109.64002,474.48026 C 109.58744,473.58824 109.51263,472.75358 109.41557,471.97628 C 109.27207,470.82688 109.14866,470.14105 109.04532,469.9188 C 108.97816,469.78443 108.84587,469.70017 108.64844,469.66602 C 108.49341,469.635 107.96523,469.64216 107.06389,469.68749 L 106.93071,468.62078 C 108.33337,468.48765 109.24556,468.39476 109.66727,468.3421 L 112.45036,467.93164 L 112.58354,468.99836 C 111.50752,469.1915 110.89249,469.34387 110.73846,469.45547 C 110.64543,469.51748 110.58908,469.63789 110.56941,469.81669 C 110.53008,470.24151 110.60074,471.17747 110.78141,472.62456 C 110.8382,473.07937 110.9296,473.60963 111.0556,474.21534 C 111.49594,474.17717 111.9435,474.12969 112.3983,474.0729 C 114.76328,473.77764 116.57732,473.50916 117.84044,473.26747 L 117.57102,470.80689 C 117.39655,469.40942 117.16262,468.14113 116.86923,467.00202 C 116.08267,466.89029 115.19376,466.79972 114.20253,466.73031 L 114.07399,465.7008 C 115.55311,465.7093 116.96453,465.64646 118.30825,465.51227 C 118.4849,466.25445 118.61658,466.97283 118.7033,467.66743 C 118.76008,468.12224 118.85556,469.02151 118.98974,470.36522 C 119.11255,471.618 119.23952,472.76948 119.37064,473.81965 C 119.54305,475.2006 119.7537,476.65235 120.00258,478.17491 L 120.00258,478.17491 z M 112.99563,462.55203 L 112.99717,461.45203 C 114.23052,461.44543 114.95349,461.40686 115.16609,461.33632 C 115.37869,461.26578 115.65819,461.02659 116.00459,460.61874 C 116.351,460.21089 116.63299,459.68212 116.85056,459.03242 C 117.06814,458.38273 117.1774,457.71622 117.17835,457.03288 C 117.18,455.85789 116.86881,454.91787 116.2448,454.21282 C 115.62078,453.50779 114.84211,453.15462 113.90878,453.1533 C 113.05045,453.15211 112.39179,453.38452 111.9328,453.85054 C 111.47381,454.32491 111.14755,455.22445 110.95402,456.54917 C 110.66795,458.51545 110.35776,459.8421 110.02346,460.52913 C 109.68917,461.21616 109.18842,461.75713 108.52119,462.15203 C 107.85398,462.54693 107.05371,462.74373 106.12036,462.74242 C 104.55371,462.74023 103.2274,462.1863 102.14143,461.08061 C 101.05549,459.97493 100.51421,458.20959 100.51758,455.78458 C 100.51893,454.83459 100.59094,453.99094 100.73362,453.25363 C 100.87634,452.51634 101.1107,451.77709 101.43672,451.03586 L 101.7369,450.91128 C 102.26173,451.04536 102.73659,451.13978 103.1615,451.19452 C 103.58644,451.2493 104.31971,451.29824 105.3613,451.34135 L 105.35978,452.42885 C 104.0764,452.46873 103.35548,452.53022 103.19702,452.61332 C 102.92181,452.77129 102.63167,453.17296 102.32658,453.81836 C 102.02153,454.46378 101.86841,455.20315 101.86723,456.03647 C 101.86565,457.17814 102.1415,458.06394 102.69477,458.69388 C 103.24807,459.32382 103.96221,459.63941 104.8372,459.64062 C 105.37054,459.64138 105.83531,459.51286 106.23149,459.25507 C 106.62769,458.9973 106.91986,458.63729 107.108,458.17505 C 107.29616,457.71282 107.51213,456.71937 107.75592,455.1947 C 107.96619,453.81167 108.17167,452.87446 108.37235,452.38306 C 108.69849,451.57519 109.19517,450.96339 109.86241,450.54764 C 110.52967,450.13192 111.37163,449.92477 112.38829,449.92617 C 114.15495,449.92866 115.62276,450.60571 116.7917,451.95733 C 117.96065,453.30898 118.54348,455.15562 118.54021,457.49728 C 118.53875,458.53895 118.43743,459.48464 118.23624,460.33436 C 118.03505,461.18408 117.70466,462.06279 117.24505,462.97047 C 116.66193,462.81966 116.13291,462.71892 115.65797,462.66826 C 114.99974,462.60067 114.11229,462.56193 112.99563,462.55203 L 112.99563,462.55203 z M 119.90679,438.30247 C 119.44671,441.34287 118.31379,443.5524 116.50802,444.93107 C 114.70226,446.30975 112.43162,446.79212 109.69609,446.37817 C 107.78453,446.08891 106.2185,445.4516 104.99801,444.46623 C 103.77755,443.48088 102.91394,442.23978 102.40717,440.74294 C 101.90044,439.24611 101.81227,437.40596 102.14266,435.22247 C 102.46061,433.12141 103.06457,431.45552 103.95454,430.22481 C 104.84454,428.99413 105.95586,428.11088 107.28852,427.57506 C 108.6212,427.03927 110.1774,426.90602 111.95713,427.17531 C 113.88518,427.46709 115.49178,428.11476 116.77692,429.11831 C 118.06207,430.12191 118.98106,431.40088 119.53388,432.95524 C 120.08671,434.50963 120.21101,436.29204 119.90679,438.30247 L 119.90679,438.30247 z M 118.63069,437.62897 C 118.8813,435.97283 118.46932,434.55987 117.39474,433.39008 C 116.32017,432.22032 114.53459,431.44654 112.03801,431.06874 C 109.41785,430.67227 107.322,430.93246 105.75045,431.8493 C 104.48326,432.59309 103.70564,433.91664 103.41761,435.81995 C 103.14832,437.5997 103.52891,439.06691 104.5594,440.22158 C 105.58992,441.37627 107.32874,442.13876 109.77587,442.50906 C 111.53914,442.77588 113.07308,442.73408 114.37768,442.38366 C 115.6823,442.03325 116.6671,441.48484 117.3321,440.73842 C 117.99709,439.99203 118.42996,438.95554 118.63069,437.62897 L 118.63069,437.62897 z"
                 transform="matrix(-0.9946401,0.1033973,-0.1033973,-0.9946401,529.4993,885.92705)"
                 id="text4264"
                 style="font-size:25.60000038px;font-style:normal;font-variant:normal;font-weight:bold;font-stretch:normal;text-align:start;line-height:125%;writing-mode:lr-tb;text-anchor:start;fill:#000000;fill-opacity:1;stroke:none;stroke-width:0.51200002;stroke-linecap:butt;stroke-linejoin:miter;stroke-miterlimit:4;stroke-dasharray:none;stroke-opacity:1;font-family:Book Antiqua;-inkscape-font-specification:Book Antiqua Bold" />
            </g>
            <g
               id="g4250"
               style="stroke-width:0.51200002;stroke-miterlimit:4;stroke-dasharray:none">
              <path
                 d="M 273.52982,560.86173 C 272.72936,467.10288 290.80814,364.40408 329.91045,328.64049 L 328.23578,274.49276 C 256.86081,316.05488 242.66288,476.01301 258.45777,559.18706"
                 id="path4244"
                 style="fill:#ed1c24;fill-rule:evenodd;stroke:#000000;stroke-width:0.76144743;stroke-linecap:butt;stroke-linejoin:miter;stroke-miterlimit:4;stroke-dasharray:none;stroke-opacity:1" />
              <path
                 d="M 262.36534,563.09463 C 250.1455,447.78673 278.39643,321.98364 197.61134,227.04371 C 196.57952,244.50038 198.14918,269.67304 179.67717,313.80721 C 226.86809,380.35728 243.90186,462.5477 237.72921,562.87121 L 262.36534,563.09463 z"
                 id="path4246"
                 style="fill:#e3e4e5;fill-rule:evenodd;stroke:#000000;stroke-width:0.76144743;stroke-linecap:butt;stroke-linejoin:miter;stroke-miterlimit:4;stroke-dasharray:none;stroke-opacity:1" />
              <path
                 d="M 180.86461,457.59027 C 194.90832,431.52084 198.97763,405.69364 199.84423,402.8843 C 237.19529,429.61826 244.15369,484.69353 241.15282,560.3035 L 224.96432,560.3035 C 226.01416,533.6455 229.36539,474.82085 180.86461,457.59027 z"
                 id="path4248"
                 style="fill:#0071bc;fill-rule:evenodd;stroke:#000000;stroke-width:0.76144743;stroke-linecap:butt;stroke-linejoin:miter;stroke-miterlimit:4;stroke-dasharray:none;stroke-opacity:1" />
            </g>
            <path
               d="M 298.75,616.90625 C 221.59529,617.31416 154.04049,644.30763 85.96875,679.6875 C 94.467164,689.19764 103.01188,698.7098 112.75,708.21875 C 174.12231,678.60161 236.16131,657.74171 306.25,658.9375 C 374.07126,659.1181 440.03416,677.34765 500.375,707.625 C 509.85845,698.31664 518.21193,688.99723 526.53125,679.6875 C 459.32822,641.06786 384.01153,617.14457 306.25,616.9375 C 303.74083,616.89469 301.23886,616.89309 298.75,616.90625 z"
               transform="scale(0.8,0.8)"
               id="path4286"
               style="fill:#e3e4e5;fill-rule:evenodd;stroke:#000000;stroke-width:0.95180941;stroke-linecap:butt;stroke-linejoin:miter;stroke-miterlimit:4;stroke-dasharray:none;stroke-opacity:1" />
          </g>
          <path
             d="M 138.13729,597.43874 L 137.79127,596.44739 C 138.85781,596.01334 139.43992,595.70866 139.53761,595.53334 C 139.63529,595.35803 139.61336,595.01704 139.47182,594.51038 C 139.1644,593.4526 138.51638,591.5075 137.52776,588.67507 C 137.14879,587.58932 136.58382,586.02125 135.83285,583.97084 C 135.32555,582.56801 135.02427,581.80598 134.929,581.68475 C 134.83374,581.56356 134.71611,581.49208 134.57612,581.47031 C 134.37282,581.4442 133.74878,581.57816 132.70399,581.8722 L 132.35797,580.88086 C 134.00072,580.3781 135.25089,579.97705 136.10848,579.6777 C 137.58763,579.16144 138.91418,578.66312 140.08813,578.18274 L 140.43414,579.17409 C 139.38608,579.61053 138.81175,579.90588 138.71114,580.06013 C 138.61052,580.21443 138.60783,580.49119 138.70305,580.89043 C 138.89587,581.67047 139.3946,583.21312 140.19923,585.51839 C 141.27023,588.58686 142.0283,590.72082 142.47345,591.92029 C 142.91859,593.11977 143.23998,593.813 143.43765,593.99997 C 143.52055,594.08578 143.64901,594.13141 143.82304,594.13686 C 143.99705,594.14232 144.56318,594.01313 145.52143,593.74927 L 145.86745,594.74062 L 144.46248,595.19129 C 143.57029,595.46739 142.77802,595.72627 142.08565,595.96793 L 138.13729,597.43874 z M 147.45336,594.08561 L 147.15041,593.08026 C 148.11182,592.74704 148.66308,592.5113 148.80419,592.37304 C 148.89666,592.27555 148.94918,592.14658 148.96176,591.98612 C 148.99182,591.76818 148.84451,591.07713 148.51982,589.91297 C 147.99066,587.9836 147.57941,586.5322 147.28609,585.55876 L 145.7366,580.50333 C 145.33268,579.16288 145.05558,578.40214 144.90529,578.22112 C 144.82136,578.11588 144.71911,578.05095 144.59855,578.02634 C 144.41012,577.9787 143.77607,578.06967 142.6964,578.29925 L 142.39346,577.2939 C 143.66615,576.95393 144.6057,576.69257 145.2121,576.50983 C 145.88233,576.30788 146.63831,576.05832 147.48004,575.76115 C 150.02206,577.55398 152.86357,579.47414 156.00456,581.52163 C 158.09748,582.89277 159.88279,584.00845 161.36051,584.86867 L 159.93234,580.12918 C 159.39135,578.33393 158.90098,576.79323 158.46121,575.50707 C 158.19607,574.74274 157.98918,574.28723 157.84055,574.14053 C 157.76381,574.05922 157.6556,574.01785 157.51593,574.01641 C 157.37623,574.015 156.80088,574.12745 155.78986,574.35376 L 155.48691,573.34841 C 156.36863,573.12625 157.24036,572.88533 158.1021,572.62564 C 159.28297,572.26982 160.34614,571.9277 161.2916,571.59926 L 161.59455,572.60461 C 160.71772,572.92977 160.19838,573.15589 160.03651,573.28298 C 159.9448,573.35415 159.87785,573.43525 159.83567,573.52627 C 159.79346,573.61734 159.77324,573.72352 159.775,573.84483 C 159.77683,574.05317 159.93005,574.67717 160.23465,575.71682 L 161.64134,580.51501 L 163.07081,585.3455 C 163.4603,586.63809 163.87772,587.92227 164.32309,589.19802 L 164.218,589.41246 C 163.19963,589.52785 162.48257,589.61773 162.06681,589.68209 C 159.33097,588.026 155.99276,585.91608 152.05217,583.35232 C 150.05989,582.05532 148.43383,580.94822 147.17396,580.03104 L 148.57689,584.68675 C 148.95917,585.95542 149.43955,587.47737 150.01801,589.25263 C 150.43866,590.56195 150.72292,591.30312 150.87081,591.47614 C 150.92916,591.55429 151.00944,591.60408 151.11164,591.62551 C 151.28968,591.66759 151.88821,591.57427 152.90723,591.34554 L 153.21017,592.35089 C 151.90074,592.68454 150.96677,592.93551 150.40825,593.10381 C 149.94547,593.24327 148.9605,593.57053 147.45336,594.08561 L 147.45336,594.08561 z M 168.80746,587.75088 L 168.66394,587.12975 C 169.14913,586.67552 169.49069,586.34001 169.68864,586.12321 C 169.4721,584.66793 168.91075,581.97946 168.00457,578.05779 C 167.61245,576.36085 167.26633,574.94621 166.96619,573.81386 C 166.66605,572.68155 166.46069,572.04263 166.35009,571.89711 C 166.29885,571.82344 166.232,571.77474 166.14955,571.75101 C 166.01275,571.71421 165.39346,571.75468 164.29168,571.8724 L 164.05247,570.83718 C 165.28788,570.5945 166.70129,570.28928 168.29269,569.92154 L 174.2829,568.47323 C 176.46701,567.96857 178.18918,567.86142 179.44943,568.1518 C 180.70965,568.44221 181.80399,569.07885 182.73245,570.0617 C 183.66089,571.04459 184.31273,572.34796 184.68798,573.97182 C 185.17013,576.05852 185.06606,577.97703 184.37576,579.72738 C 183.68542,581.47774 182.66739,582.84624 181.32165,583.83287 C 179.97589,584.81952 178.45453,585.5089 176.75759,585.90101 L 172.12483,586.89453 C 171.38597,587.06526 170.28018,587.35071 168.80746,587.75088 L 168.80746,587.75088 z M 173.39384,585.11309 C 174.10213,585.06917 174.81353,584.96466 175.52805,584.79955 C 177.33866,584.38117 178.65892,583.80241 179.48883,583.06325 C 180.31871,582.32411 180.89149,581.29584 181.20718,579.97844 C 181.52284,578.66106 181.48181,577.14171 181.08408,575.42038 C 180.56062,573.15509 179.57734,571.5648 178.13425,570.64952 C 176.85917,569.83229 175.05245,569.69383 172.71408,570.23414 C 172.21067,570.35048 171.34722,570.59277 170.12371,570.96099 L 171.78236,578.58326 C 172.52156,581.7823 173.05872,583.95891 173.39384,585.11309 L 173.39384,585.11309 z M 189.59726,583.13741 L 189.48659,582.47155 C 189.88949,582.20184 190.24993,581.9054 190.56791,581.58222 C 190.51918,580.27249 190.15324,577.56249 189.47009,573.4522 C 189.00418,570.649 188.66662,568.79594 188.45742,567.89301 C 188.35215,567.41211 188.21699,567.1199 188.05195,567.01637 C 187.88692,566.91288 187.25844,566.9054 186.16651,566.99395 L 185.99436,565.95816 C 187.94671,565.70971 189.48599,565.49189 190.61221,565.30469 L 197.39421,564.10145 C 198.10939,563.98261 198.75948,563.90412 199.3445,563.86601 L 199.45336,563.9873 C 199.42142,564.91342 199.488,566.12726 199.65311,567.62883 L 198.67897,567.79073 C 198.43838,566.59738 198.28454,565.96403 198.21745,565.89069 C 198.15035,565.81738 197.95035,565.77037 197.61746,565.74966 C 196.91055,565.71511 195.85424,565.81464 194.44854,566.04826 C 193.758,566.16305 192.95717,566.32572 192.04604,566.53627 C 192.36135,569.0942 192.63581,571.1267 192.8694,572.63379 C 193.75856,572.54515 194.58951,572.43661 195.36225,572.30816 C 196.5049,572.11826 197.18517,571.96718 197.40306,571.85493 C 197.5346,571.78239 197.61343,571.64679 197.63956,571.44815 C 197.66428,571.29199 197.63575,570.76453 197.55396,569.86577 L 198.61442,569.68951 C 198.80421,571.08563 198.93395,571.99331 199.00364,572.41255 L 199.52642,575.17674 L 198.46597,575.35299 C 198.22943,574.28567 198.05229,573.67732 197.93455,573.52793 C 197.86882,573.43749 197.74623,573.38606 197.56677,573.37364 C 197.14071,573.35154 196.20838,573.46003 194.76979,573.69912 C 194.31765,573.77428 193.79153,573.88707 193.19141,574.03749 C 193.24737,574.47592 193.31293,574.9212 193.38809,575.37332 C 193.77884,577.72441 194.12053,579.5261 194.41315,580.7784 L 196.86081,580.4096 C 198.25007,580.1787 199.50785,579.89362 200.63415,579.55436 C 200.71395,578.76392 200.76847,577.87208 200.7977,576.87884 L 201.82116,576.70874 C 201.87254,578.18699 201.99247,579.5947 202.18094,580.9319 C 201.44652,581.13844 200.73405,581.29909 200.04353,581.41386 C 199.59139,581.48901 198.69673,581.62081 197.35954,581.80927 C 196.11276,581.9827 194.96737,582.15617 193.92337,582.32969 C 192.55053,582.55786 191.1085,582.82711 189.59726,583.13741 L 189.59726,583.13741 z M 204.30158,580.74427 L 204.1876,579.70047 C 205.16527,579.51827 205.71585,579.37851 205.83935,579.28119 C 205.93333,579.22063 205.99839,579.12551 206.03452,578.99582 C 206.09475,578.77967 206.06118,577.91571 205.93382,576.40393 C 205.80646,574.89217 205.66544,573.42799 205.51075,572.0114 C 205.22218,569.36879 204.98901,567.48296 204.81123,566.35391 C 204.63345,565.22488 204.47727,564.60065 204.34268,564.4812 C 204.20808,564.36179 203.8403,564.31393 203.23932,564.33763 L 202.51182,564.3542 L 202.39784,563.3104 L 203.80742,563.20677 C 204.67996,563.13666 205.37304,563.07355 205.88666,563.01745 C 206.5908,562.94058 207.72301,562.79179 209.28328,562.5711 C 210.12463,562.44571 210.74412,562.3613 211.14177,562.31786 C 212.62461,562.15595 213.73556,562.17715 214.47462,562.38145 C 215.21365,562.58578 215.7987,562.95361 216.22977,563.48494 C 216.66082,564.0163 216.92294,564.70861 217.01613,565.56185 C 217.18437,567.10271 216.78058,568.45243 215.80477,569.61103 C 214.82892,570.76964 213.50018,571.44077 211.81852,571.62439 C 211.60312,571.64792 211.3735,571.65623 211.12965,571.64932 C 210.88579,571.64242 210.624,571.6249 210.3443,571.59676 C 210.1709,571.31392 209.99013,571.04026 209.80198,570.77578 L 210.05386,570.43391 C 210.24062,570.45544 210.412,570.47026 210.56797,570.47837 C 210.72393,570.4865 210.86405,570.48377 210.98832,570.47019 C 211.825,570.37884 212.477,570.01633 212.94433,569.38268 C 213.41163,568.74906 213.58874,567.91448 213.47568,566.87896 C 213.34993,565.72749 212.9827,564.89786 212.374,564.39009 C 211.76527,563.88235 210.93073,563.68637 209.87038,563.80214 C 209.4396,563.8492 208.9406,563.96237 208.37339,564.14165 C 208.56087,566.70312 208.75141,568.87024 208.945,570.64302 C 209.01013,571.23948 209.25087,573.13706 209.66723,576.33576 C 209.83048,577.60051 209.95151,578.32499 210.03031,578.50919 C 210.0871,578.6455 210.17666,578.73631 210.29897,578.78164 C 210.49117,578.85286 211.20436,578.85881 212.43855,578.79948 L 212.55254,579.84328 C 211.07991,579.94541 209.84242,580.0512 208.84005,580.16066 C 208.3927,580.2095 206.87988,580.40404 204.30158,580.74427 L 204.30158,580.74427 z M 220.6118,579.0609 L 220.57731,578.38678 C 221.00818,578.16447 221.3999,577.9108 221.75246,577.62574 C 221.85249,576.31893 221.79606,573.58491 221.58318,569.42368 C 221.43798,566.58574 221.31263,564.70635 221.20711,563.78553 C 221.15702,563.2958 221.05586,562.99015 220.90362,562.86859 C 220.75137,562.74706 220.12779,562.6684 219.03287,562.63261 L 218.97922,561.58398 C 220.94715,561.55842 222.5012,561.51646 223.64138,561.45811 L 230.51605,561.03131 C 231.24009,560.99429 231.89489,560.98999 232.48046,561.01843 L 232.57487,561.15128 C 232.43817,562.06781 232.36675,563.28137 232.3606,564.79198 L 231.37439,564.84243 C 231.27061,563.6295 231.18954,562.9828 231.1312,562.90232 C 231.07283,562.82188 230.87945,562.75251 230.55106,562.69419 C 229.85262,562.57974 228.79184,562.55892 227.36871,562.63171 C 226.66962,562.66749 225.85551,562.73834 224.92638,562.84427 C 224.94975,565.42146 224.99207,567.47197 225.05335,568.99582 C 225.94682,569.00853 226.78472,568.99487 227.56704,568.95483 C 228.72385,568.89566 229.41685,568.82266 229.64606,568.73582 C 229.78498,568.67866 229.87867,568.55288 229.92715,568.35847 C 229.96941,568.20612 230.00084,567.67883 230.02145,566.77658 L 231.09504,566.72166 C 231.12538,568.13029 231.15141,569.04683 231.17313,569.47126 L 231.37925,572.27689 L 230.30565,572.33182 C 230.19161,571.24457 230.08456,570.62005 229.98451,570.45828 C 229.92945,570.36097 229.81348,570.29598 229.63659,570.2633 C 229.21578,570.19305 228.27716,570.19518 226.82074,570.26968 C 226.363,570.29311 225.82748,570.34554 225.21418,570.42697 C 225.22009,570.86892 225.23476,571.31876 225.25819,571.77648 C 225.37995,574.15671 225.51523,575.98552 225.66403,577.26291 L 228.13772,577.17391 C 229.5442,577.10196 230.82619,576.96127 231.98368,576.75186 C 232.15255,575.97555 232.3078,575.09564 232.44941,574.11211 L 233.48556,574.0591 C 233.36906,575.53365 233.32867,576.94589 233.36437,578.29583 C 232.61127,578.4178 231.88518,578.49667 231.18611,578.53243 C 230.72836,578.55585 229.82453,578.5854 228.4746,578.62109 C 227.2162,578.65209 226.05853,578.69463 225.00158,578.7487 C 223.61173,578.81981 222.14847,578.92387 220.6118,579.0609 L 220.6118,579.0609 z M 235.3679,578.34803 L 235.37752,577.29807 C 236.39452,577.26573 236.99094,577.20452 237.16678,577.11446 C 237.28405,577.04887 237.37254,576.94134 237.43225,576.79188 C 237.52574,576.59273 237.59052,575.88913 237.62659,574.68107 C 237.69491,572.68162 237.73373,571.17358 237.74305,570.15695 L 237.7665,564.86944 C 237.77932,563.46952 237.7409,562.6608 237.65122,562.44328 C 237.60237,562.31785 237.52404,562.22546 237.41625,562.16612 C 237.25051,562.06461 236.61808,561.96298 235.51897,561.86122 L 235.52859,560.81127 C 236.84481,560.86501 237.81958,560.89478 238.45289,560.90056 C 239.15286,560.907 239.94885,560.89345 240.84086,560.85994 C 242.73499,563.32742 244.87721,566.00549 247.26752,568.89416 C 248.85821,570.82549 250.23114,572.42147 251.38632,573.6821 L 251.43168,568.73231 C 251.44884,566.8574 251.43865,565.24057 251.40112,563.88183 C 251.37518,563.07324 251.31306,562.57681 251.21476,562.39256 C 251.16566,562.29212 251.07464,562.22045 250.94171,562.17755 C 250.80875,562.13467 250.22598,562.071 249.19339,561.98652 L 249.20301,560.93656 C 250.11091,560.98657 251.01485,561.01568 251.91483,561.02391 C 253.14809,561.03523 254.2649,561.02463 255.26526,560.99211 L 255.25564,562.04207 C 254.32179,562.09186 253.7587,562.15337 253.56638,562.2266 C 253.45765,562.26728 253.36962,562.32481 253.30228,562.39918 C 253.23491,562.47358 253.18404,562.56896 253.14966,562.6853 C 253.08947,562.88477 253.05026,563.5261 253.03202,564.6093 L 252.94871,569.60875 L 252.87756,574.64581 C 252.86517,575.99575 252.88197,577.34596 252.92795,578.69644 L 252.76385,578.86994 C 251.75722,578.67738 251.04586,578.55002 250.62976,578.48787 C 248.50993,576.09335 245.94988,573.08644 242.94959,569.46712 C 241.43296,567.6365 240.20952,566.09606 239.27928,564.8458 L 239.23473,569.7081 C 239.22258,571.03305 239.22879,572.629 239.25336,574.49597 C 239.26575,575.87114 239.31683,576.66331 239.40659,576.87247 C 239.43908,576.96444 239.50093,577.03585 239.59213,577.08668 C 239.74962,577.1798 240.34883,577.26862 241.38977,577.35316 L 241.38015,578.40312 C 240.03073,578.33242 239.06438,578.2944 238.48107,578.28905 C 237.99775,578.28462 236.96003,578.30428 235.3679,578.34803 L 235.3679,578.34803 z M 257.64055,578.60549 L 257.68651,577.96964 C 258.28404,577.67863 258.70933,577.45872 258.96239,577.3099 C 259.18448,575.85546 259.4406,573.12098 259.73075,569.10645 C 259.8563,567.36933 259.94258,565.91551 259.98958,564.74501 C 260.03658,563.57454 260.02868,562.90347 259.9659,562.73182 C 259.93865,562.64631 259.88913,562.58007 259.81734,562.53309 C 259.69746,562.4576 259.09377,562.31371 258.00624,562.10141 L 258.08283,561.04167 C 259.33489,561.17396 260.77546,561.29896 262.40454,561.41669 L 268.55552,561.79859 C 270.79134,561.9602 272.46857,562.3655 273.58721,563.01448 C 274.70582,563.66348 275.56385,564.59443 276.16133,565.8073 C 276.75876,567.02021 276.99741,568.45782 276.87729,570.12014 C 276.72288,572.25624 276.05787,574.05882 274.88227,575.52789 C 273.70662,576.99697 272.33041,578.00454 270.75363,578.55063 C 269.17681,579.09672 267.51984,579.30698 265.78272,579.18143 L 261.06295,578.76511 C 260.30659,578.71045 259.16579,578.65724 257.64055,578.60549 L 257.64055,578.60549 z M 262.80072,577.43693 C 263.49048,577.60375 264.20108,577.7136 264.93251,577.76646 C 266.786,577.90042 268.2182,577.73658 269.22912,577.27491 C 270.24002,576.81326 271.09047,575.99953 271.78049,574.83373 C 272.47047,573.66795 272.87915,572.20402 273.00652,570.44194 C 273.17411,568.123 272.70332,566.31352 271.59417,565.0135 C 270.61667,563.85671 268.93105,563.1918 266.53731,563.01878 C 266.02197,562.98155 265.12547,562.95853 263.84779,562.94972 L 263.18577,570.72222 C 262.94907,573.99701 262.82072,576.23525 262.80072,577.43693 L 262.80072,577.43693 z M 278.86644,580.3269 L 278.95412,579.65762 C 279.41803,579.51669 279.84908,579.33784 280.24728,579.12106 C 280.58141,577.85373 281.01912,575.15439 281.5604,571.02302 C 281.92954,568.20545 282.14528,566.33429 282.20761,565.40953 C 282.24669,564.9188 282.20232,564.59992 282.0745,564.45289 C 281.94668,564.30588 281.34752,564.11602 280.27702,563.8833 L 280.41342,562.8422 C 282.35367,563.17206 283.88979,563.41114 285.02179,563.55944 L 291.86067,564.3798 C 292.57952,564.474 293.22435,564.5879 293.79518,564.7215 L 293.86407,564.8692 C 293.56428,565.74604 293.27511,566.92681 292.99655,568.41152 L 292.01742,568.28324 C 292.13415,567.07148 292.17107,566.42077 292.12821,566.33109 C 292.08531,566.24144 291.90762,566.13832 291.59513,566.02172 C 290.9288,565.78315 289.88917,565.5713 288.47626,565.38617 C 287.78218,565.29525 286.96865,565.21808 286.03566,565.15466 C 285.59372,567.69378 285.26544,569.71829 285.05082,571.22819 C 285.92734,571.40187 286.75396,571.53959 287.53066,571.64134 C 288.67917,571.79182 289.37398,571.84503 289.61509,571.80097 C 289.76204,571.76981 289.87689,571.66299 289.95964,571.48051 C 290.02869,571.33829 290.15473,570.82532 290.33776,569.94159 L 291.40365,570.08124 C 291.17937,571.47224 291.03963,572.37843 290.98444,572.79982 L 290.68104,575.59661 L 289.61515,575.45696 C 289.69912,574.36697 289.70648,573.73339 289.63726,573.55622 C 289.60066,573.45058 289.49832,573.36574 289.33022,573.30168 C 288.92898,573.15667 288.00538,572.98944 286.55942,572.79999 C 286.10496,572.74045 285.56877,572.69542 284.95084,572.66488 C 284.87693,573.10064 284.81021,573.54575 284.75068,574.00019 C 284.44106,576.36333 284.24421,578.18654 284.16013,579.46982 L 286.60929,579.82852 C 288.00568,580.01147 289.29201,580.10436 290.46829,580.10719 C 290.77444,579.37409 291.08587,578.53661 291.40258,577.59477 L 292.43129,577.72955 C 292.05071,579.15889 291.75621,580.54068 291.5478,581.87491 C 290.78505,581.85902 290.05665,581.80561 289.3626,581.71468 C 288.90813,581.65513 288.0138,581.52115 286.67958,581.31273 C 285.43623,581.11621 284.28988,580.94921 283.24052,580.81173 C 281.86064,580.63094 280.40261,580.46933 278.86644,580.3269 L 278.86644,580.3269 z M 293.52062,582.2186 L 293.71536,581.18682 C 294.72212,581.33443 295.31998,581.37943 295.50894,581.3218 C 295.63595,581.27793 295.74202,581.18771 295.82716,581.05113 C 295.95433,580.8716 296.14225,580.19047 296.39092,579.00773 C 296.81098,577.05171 297.11529,575.57418 297.30384,574.57515 L 298.25992,569.37474 C 298.51956,567.99905 298.62444,567.19624 298.57455,566.96631 C 298.5486,566.83422 298.48781,566.72946 298.39218,566.65204 C 298.24694,566.52288 297.64237,566.31124 296.57846,566.01714 L 296.7732,564.98536 C 298.05929,565.27051 299.01351,565.47181 299.63586,565.58926 C 300.32371,565.7191 301.1096,565.84622 301.99353,565.97064 C 303.42255,568.73362 305.0586,571.74767 306.90169,575.01279 C 308.12663,577.1945 309.19641,579.00769 310.11102,580.45238 L 311.02907,575.58826 C 311.37679,573.74579 311.65206,572.15254 311.85487,570.80849 C 311.97201,570.00801 311.99846,569.50841 311.93422,569.3097 C 311.90361,569.20218 311.82667,569.11557 311.7034,569.04989 C 311.58009,568.98423 311.01769,568.81872 310.01621,568.55336 L 310.21095,567.52158 C 311.09578,567.731 311.9804,567.91916 312.8648,568.08606 C 314.07672,568.31482 315.17787,568.50145 316.16827,568.64595 L 315.97354,569.67774 C 315.04555,569.56197 314.48045,569.52316 314.27822,569.5613 C 314.16402,569.58216 314.06722,569.62325 313.98782,569.68458 C 313.90838,569.74592 313.84147,569.83082 313.7871,569.93927 C 313.69266,570.12499 313.5409,570.74934 313.33182,571.81233 L 312.36765,576.71863 L 311.40881,581.66409 C 311.15841,582.99067 310.9367,584.32266 310.74366,585.66006 L 310.55152,585.80189 C 309.59467,585.43472 308.91694,585.18384 308.51834,585.04925 C 306.85429,582.31825 304.86498,578.90679 302.55041,574.81485 C 301.3806,572.74534 300.44817,571.01319 299.75313,569.61841 L 298.85132,574.39655 C 298.60557,575.69857 298.33007,577.27058 298.02482,579.11258 C 297.79437,580.46837 297.70487,581.25712 297.75631,581.47883 C 297.77206,581.57509 297.82034,581.65629 297.90115,581.72242 C 298.03973,581.84186 298.61386,582.03503 299.62355,582.30192 L 299.42881,583.3337 C 298.11305,583.02601 297.16856,582.81806 296.59535,582.70988 C 296.1204,582.62023 295.09549,582.45648 293.52062,582.2186 L 293.52062,582.2186 z M 331.18146,587.65454 L 331.41486,588.00927 C 331.10355,588.36091 330.81449,588.7267 330.54767,589.10665 C 329.48653,589.36523 328.49566,589.48891 327.57505,589.4777 C 326.65442,589.46648 325.6282,589.31932 324.49642,589.03624 C 322.37832,588.50647 320.68067,587.68671 319.40344,586.57697 C 318.12621,585.46723 317.26232,584.13874 316.81179,582.59152 C 316.36125,581.0443 316.35436,579.39758 316.79112,577.65137 C 317.41997,575.13716 318.82637,573.30062 321.01034,572.14173 C 323.19429,570.98287 325.85462,570.79571 328.99134,571.58024 C 330.0342,571.8411 331.04371,572.19238 332.01988,572.6341 C 332.99602,573.07583 333.94185,573.61306 334.85737,574.24576 L 334.89676,574.44889 C 334.64203,574.84905 334.43583,575.24416 334.27816,575.63421 C 333.99713,576.31127 333.69791,577.16415 333.38049,578.19286 L 332.36187,577.93808 C 332.63283,576.64864 332.75974,575.9352 332.74259,575.79775 C 332.72541,575.66032 332.55667,575.39048 332.23639,574.98823 C 331.91606,574.586 331.44215,574.20547 330.81465,573.84664 C 330.18711,573.48783 329.4651,573.20631 328.6486,573.00207 C 326.70835,572.5168 325.01665,572.72933 323.57347,573.63967 C 322.13027,574.55004 321.14177,576.07235 320.60796,578.20659 C 320.02965,580.51871 320.24872,582.56209 321.26515,584.33675 C 322.20277,585.98004 323.77912,587.0787 325.99423,587.63274 C 326.85115,587.84707 327.67576,587.95883 328.46806,587.96801 C 329.26032,587.9772 330.16479,587.8727 331.18146,587.65454 L 331.18146,587.65454 z M 332.44133,590.89446 L 332.73708,589.88697 C 333.85695,590.15492 334.50762,590.24605 334.68911,590.16036 C 334.87059,590.07468 335.05126,589.78466 335.23112,589.2903 C 335.59692,588.25127 336.20232,586.29249 337.04732,583.41394 C 337.37123,582.31051 337.82468,580.70663 338.40767,578.6023 C 338.81182,577.16634 339.01045,576.37136 339.00356,576.21733 C 338.99666,576.06333 338.94263,575.93674 338.84147,575.83755 C 338.69137,575.69797 338.10598,575.44362 337.08529,575.0745 L 337.38104,574.06701 C 339.00942,574.61452 340.25939,575.01619 341.13096,575.27202 C 342.63418,575.71331 344.00288,576.08035 345.23705,576.37315 L 344.9413,577.38063 C 343.83507,577.12539 343.19615,577.0312 343.02454,577.09806 C 342.85291,577.16494 342.68961,577.38841 342.53463,577.76846 C 342.23732,578.51496 341.74481,580.0596 341.05708,582.4024 C 340.14166,585.52082 339.5158,587.69724 339.1795,588.93165 C 338.84318,590.16607 338.70096,590.91683 338.75284,591.18392 C 338.77029,591.30195 338.84818,591.41383 338.98651,591.51957 C 339.12482,591.62531 339.66034,591.84982 340.59309,592.19311 L 340.29734,593.2006 L 338.89262,592.74916 C 338.00646,592.45429 337.21156,592.20357 336.50793,591.99702 L 332.44133,590.89446 z M 342.26433,592.52338 C 343.01962,592.73521 343.50281,592.81528 343.71388,592.76359 C 343.859,592.72476 344.14607,592.48765 344.57509,592.05227 C 345.40408,591.18927 346.50226,589.97312 347.86962,588.40382 L 355.53739,579.55863 L 357.27778,580.1481 L 358.32246,594.67606 C 358.45829,596.56093 358.58039,597.60969 358.68875,597.82235 C 358.79707,598.03501 359.2602,598.31065 360.07815,598.64928 L 359.74132,599.64378 C 358.47347,599.15278 357.26732,598.71346 356.12287,598.32584 C 354.75738,597.86335 353.44965,597.45122 352.19965,597.08943 L 352.53649,596.09493 C 353.4891,596.37359 354.04978,596.5041 354.21853,596.48647 C 354.38726,596.46883 354.50104,596.37319 354.55987,596.19955 C 354.61065,596.04958 354.61866,595.48041 354.58391,594.49202 L 354.48822,592.20283 C 353.51483,591.85556 352.42434,591.47741 351.21674,591.06839 C 350.16697,590.71284 349.20926,590.39727 348.3436,590.12166 L 347.36152,591.30675 C 347.09379,591.62959 346.73302,592.12328 346.27919,592.78782 C 346.17569,592.93753 346.10122,593.07947 346.05578,593.21365 C 345.99429,593.39519 346.0278,593.54951 346.15632,593.67662 C 346.28483,593.80374 346.81324,594.06849 347.74155,594.47089 L 347.40472,595.4654 C 346.64992,595.14816 345.69634,594.79439 344.54398,594.40409 C 343.44687,594.0325 342.56535,593.76472 341.89942,593.60076 L 342.26433,592.52338 z M 353.9166,583.68159 L 349.36138,588.90907 C 350.07415,589.19449 350.8686,589.48556 351.74472,589.78229 C 352.66028,590.0924 353.54308,590.36941 354.3931,590.61331 L 353.9166,583.68159 z"
             transform="translate(0,-57.6)"
             id="text4299"
             style="font-size:25.60000038px;font-style:normal;font-variant:normal;font-weight:bold;font-stretch:normal;text-align:start;line-height:125%;writing-mode:lr-tb;text-anchor:start;fill:#000000;fill-opacity:1;stroke:none;stroke-width:1px;stroke-linecap:butt;stroke-linejoin:miter;stroke-opacity:1;font-family:Book Antiqua;-inkscape-font-specification:Book Antiqua Bold" />
          <path
             d="M 326,768.5 C 354.5126,763.02854 375,748.85074 375,732.0625 C 375,714.54106 352.66433,699.89121 322.1875,695 C 322.19613,695.01295 322.21013,695.01827 322.21875,695.03125 C 323.10349,696.36255 323.98425,697.80802 324.8125,699.40625 C 325.64075,701.00448 326.41563,702.74996 327.15625,704.59375 C 327.89687,706.43754 328.59688,708.40078 329.21875,710.46875 C 329.84062,712.53672 330.40302,714.69796 330.875,716.96875 C 331.34698,719.23954 331.74029,721.61027 332.03125,724.0625 C 332.32221,726.51473 332.51493,729.04395 332.59375,731.65625 C 332.67257,734.26855 332.63321,736.96774 332.46875,739.71875 C 332.30429,742.46976 332.00137,745.28792 331.5625,748.15625 C 331.12363,751.02458 330.55691,753.94196 329.8125,756.90625 C 329.06809,759.87054 328.14358,762.86737 327.0625,765.90625 C 326.75839,766.7611 326.33233,767.64033 326,768.5 z"
             transform="scale(0.8,0.8)"
             id="path4840"
             style="opacity:1;fill:#0071bc;fill-opacity:1;fill-rule:evenodd;stroke:#000000;stroke-width:0.95180941;stroke-linecap:round;stroke-linejoin:round;stroke-miterlimit:4;stroke-dasharray:none;stroke-dashoffset:0;stroke-opacity:1" />
          <path
             d="M 284,694.125 C 250.76853,698.04733 225.875,713.51827 225.875,732.0625 C 225.875,749.77074 248.67723,764.55295 279.65625,769.28125 C 278.519,766.49277 277.38355,763.72537 276.40625,760.71875 C 275.03631,756.50418 273.84396,752.08883 272.96875,747.59375 C 272.53115,745.34621 272.18068,743.0665 271.90625,740.78125 C 271.63182,738.496 271.42868,736.20759 271.34375,733.90625 C 271.25882,731.60491 271.27535,729.29583 271.40625,727 C 271.53715,724.70417 271.7832,722.42495 272.15625,720.15625 C 272.5293,717.88755 273.04597,715.6262 273.6875,713.40625 C 274.32903,711.1863 275.09492,708.99335 276.03125,706.84375 C 276.96758,704.69415 278.05503,702.58888 279.3125,700.53125 C 280.56997,698.47362 282.02007,696.4753 283.625,694.53125 C 283.73935,694.39273 283.88381,694.26288 284,694.125 z"
             transform="scale(0.8,0.8)"
             id="path4838"
             style="opacity:1;fill:#eac102;fill-opacity:1;fill-rule:evenodd;stroke:#000000;stroke-width:0.95180941;stroke-linecap:round;stroke-linejoin:round;stroke-miterlimit:4;stroke-dasharray:none;stroke-dashoffset:0;stroke-opacity:1" />
          <path
             d="M 284,694.125 C 283.88381,694.26288 283.73935,694.39273 283.625,694.53125 C 282.02007,696.4753 280.56997,698.47362 279.3125,700.53125 C 278.05503,702.58888 276.96758,704.69415 276.03125,706.84375 C 275.09492,708.99335 274.32903,711.1863 273.6875,713.40625 C 273.04597,715.6262 272.5293,717.88755 272.15625,720.15625 C 271.7832,722.42495 271.53715,724.70417 271.40625,727 C 271.27535,729.29583 271.25882,731.60491 271.34375,733.90625 C 271.42868,736.20759 271.63182,738.496 271.90625,740.78125 C 272.18068,743.0665 272.53115,745.34621 272.96875,747.59375 C 273.84396,752.08883 275.03631,756.50418 276.40625,760.71875 C 277.38355,763.72537 278.519,766.49277 279.65625,769.28125 C 286.29376,770.29433 293.17631,771 300.4375,771 C 309.45938,771 317.99367,770.03639 326,768.5 C 326.33233,767.64033 326.75839,766.7611 327.0625,765.90625 C 328.14358,762.86737 329.06809,759.87054 329.8125,756.90625 C 330.55691,753.94196 331.12363,751.02458 331.5625,748.15625 C 332.00137,745.28792 332.30429,742.46976 332.46875,739.71875 C 332.63321,736.96774 332.67257,734.26855 332.59375,731.65625 C 332.51493,729.04395 332.32221,726.51473 332.03125,724.0625 C 331.74029,721.61027 331.34698,719.23954 330.875,716.96875 C 330.40302,714.69796 329.84062,712.53672 329.21875,710.46875 C 328.59688,708.40078 327.89687,706.43754 327.15625,704.59375 C 326.41563,702.74996 325.64075,701.00448 324.8125,699.40625 C 323.98425,697.80802 323.10349,696.36255 322.21875,695.03125 C 322.21013,695.01827 322.19613,695.01295 322.1875,695 C 315.26306,693.8887 308.05619,693.09376 300.4375,693.09375 C 294.77622,693.09375 289.30103,693.49932 284,694.125 z"
             transform="scale(0.8,0.8)"
             id="path4820"
             style="opacity:1;fill:#e3e4e5;fill-opacity:1;fill-rule:evenodd;stroke:#000000;stroke-width:0.95180941;stroke-linecap:round;stroke-linejoin:round;stroke-miterlimit:4;stroke-dasharray:none;stroke-dashoffset:0;stroke-opacity:1" />
        </g>
      </g>
    </g>
  </g>
</svg>
