<?xml version="1.0" encoding="UTF-8" standalone="no"?>
<!-- Created with Inkscape (http://www.inkscape.org/) -->

<svg
   xmlns:dc="http://purl.org/dc/elements/1.1/"
   xmlns:cc="http://creativecommons.org/ns#"
   xmlns:rdf="http://www.w3.org/1999/02/22-rdf-syntax-ns#"
   xmlns:svg="http://www.w3.org/2000/svg"
   xmlns="http://www.w3.org/2000/svg"
   version="1.0"
   width="500"
   height="600"
   id="svg2">
  <metadata
     id="metadata346">
    <rdf:RDF>
      <cc:Work
         rdf:about="">
        <dc:format>image/svg+xml</dc:format>
        <dc:type
           rdf:resource="http://purl.org/dc/dcmitype/StillImage" />
        <dc:title></dc:title>
      </cc:Work>
    </rdf:RDF>
  </metadata>
  <defs
     id="defs4" />
  <path
     d="m 497.96085,164.2595 c -1.60209,-0.94565 -3.29008,-2.03386 -4.86838,-2.93613 -5.6682,-3.24038 -11.18638,-6.18539 -16.57119,-8.87088 -5.38481,-2.68549 -10.65291,-5.10874 -15.79101,-7.24662 -5.13809,-2.13789 -10.14516,-3.9936 -15.07323,-5.59115 -4.92807,-1.59756 -9.75677,-2.93363 -14.5115,-3.99814 -4.75473,-1.06452 -9.45653,-1.86638 -14.07459,-2.40513 -4.61807,-0.53875 -9.18202,-0.8231 -13.70011,-0.84336 -4.51808,-0.0203 -8.99566,0.22747 -13.45044,0.71842 -4.45477,0.49094 -8.86625,1.22285 -13.2944,2.21771 -4.42816,0.99487 -8.85619,2.25674 -13.29441,3.74826 -4.43822,1.49152 -8.90306,3.23544 -13.38803,5.21632 -4.48496,1.98088 -9.00688,4.19019 -13.57527,6.65316 -4.56839,2.46296 -9.16764,5.18344 -13.85614,8.12122 -4.6885,2.93777 -9.44776,6.09028 -14.29304,9.49558 -4.84529,3.40529 -9.78482,7.03564 -14.82358,10.90118 -5.03876,3.86554 -10.17881,7.98826 -15.44772,12.30677 -5.26891,4.31851 -10.66096,8.85446 -16.19671,13.61866 -11.0715,9.5284 -22.71832,19.93677 -35.07725,31.20423 -12.35893,11.26747 -25.44408,23.37856 -39.3839,36.32685 -13.93981,12.94828 -28.71898,26.72241 -44.53313,41.29329 -15.81416,14.57088 -32.63665,29.93709 -50.618607,46.07231 -17.981954,16.13522 -37.134673,33.05383 -57.57788,50.69516 -6.965169,6.01054 -14.321895,12.21684 -21.595607,18.39769 27.332775,80.04318 96.355134,145.5555 179.848954,163.61137 97.84965,23.85879 207.38139,-19.02203 262.61131,-103.57681 33.07708,-47.28872 45.26335,-105.80222 42.53586,-162.76801 l 0,-162.36195 z"
     id="path3356"
     style="fill:#a02516;fill-opacity:1;fill-rule:evenodd;stroke:none;stroke-width:3;marker:none;visibility:visible;display:inline;overflow:visible" />
  <path
     d="m 287.68456,183.96908 c -0.23278,-0.28111 -0.45334,-0.59511 -0.68657,-0.87459 -3.25903,-3.90523 -6.57541,-7.66116 -9.92399,-11.24477 -3.34859,-3.58361 -6.73427,-6.98774 -10.17366,-10.24523 -3.43938,-3.2575 -6.92307,-6.35007 -10.45452,-9.27694 -3.53144,-2.92687 -7.11063,-5.68566 -10.73538,-8.2774 -3.62476,-2.59173 -7.29693,-5.02577 -11.01626,-7.27786 -3.71933,-2.25209 -7.48197,-4.33914 -11.29712,-6.24709 -3.81516,-1.90795 -7.66576,-3.6258 -11.57799,-5.18509 -3.91224,-1.55929 -7.87951,-2.94818 -11.89007,-4.15432 -4.01056,-1.20614 -8.06078,-2.24383 -12.17093,-3.09231 -4.11016,-0.84847 -8.27202,-1.51276 -12.48301,-1.99907 -4.211,-0.4863 -8.482,-0.7862 -12.79509,-0.90583 -4.31309,-0.11962 -8.69072,-0.0642 -13.10716,0.18742 -4.41644,0.25155 -8.86698,0.68464 -13.38803,1.31189 -4.52104,0.62724 -9.10439,1.46016 -13.73131,2.4676 -4.62691,1.00744 -9.30936,2.19993 -14.04338,3.59208 -4.73403,1.39214 -9.513064,2.96644 -14.355463,4.74779 -4.842399,1.78135 -9.746724,3.75967 -14.698743,5.93474 -4.95202,2.17506 -9.94791,4.5484 -15.010819,7.12168 -5.062904,2.57328 -10.179062,5.36386 -15.354102,8.33987 -5.175039,2.97602 -10.408955,6.14357 -15.697384,9.52682 -5.288429,3.38324 -10.637594,6.98125 -16.040667,10.77623 -5.403073,3.79499 -10.8649777,7.78319 -16.38394987,11.99442 -0.21797731,0.16633 -0.43719893,0.36402 -0.65535799,0.53101 -0.03785847,60.38053 -0.01808538,120.76317 0.34328276,181.13446 0.8090478,22.80917 5.3159115,45.14612 12.6078391,66.50031 7.273712,-6.18085 14.630438,-12.38715 21.595607,-18.39769 20.443207,-17.64133 39.595926,-34.55994 57.57788,-50.69516 17.981957,-16.13522 34.804447,-31.50143 50.618607,-46.07231 15.81415,-14.57088 30.59332,-28.34501 44.53313,-41.29329 13.93982,-12.94829 27.02497,-25.05938 39.3839,-36.32685 12.35893,-11.26746 24.00575,-21.67583 35.07725,-31.20423 5.53575,-4.7642 10.9278,-9.30015 16.19671,-13.61866 3.32443,-2.72478 6.50798,-5.22416 9.73675,-7.77763 z"
     id="path3359"
     style="fill:#6a270d;fill-opacity:1;fill-rule:evenodd;stroke:none;stroke-width:3;marker:none;visibility:visible;display:inline;overflow:visible" />
  <path
     d="M 0.04481166,0.77307321 C 0.1467599,61.086119 0.05140269,121.40206 0.01360414,181.72013 0.2317632,181.55314 0.45098482,181.35545 0.66896213,181.18912 6.1879343,176.97789 11.649839,172.98969 17.052912,169.1947 c 5.403073,-3.79498 10.752238,-7.39299 16.040667,-10.77623 5.288429,-3.38325 10.522345,-6.5508 15.697384,-9.52682 5.17504,-2.97601 10.291198,-5.76659 15.354102,-8.33987 5.062909,-2.57328 10.058799,-4.94662 15.010819,-7.12168 4.952019,-2.17507 9.856344,-4.15339 14.698743,-5.93474 4.842399,-1.78135 9.621433,-3.35565 14.355463,-4.74779 4.73402,-1.39215 9.41647,-2.58464 14.04338,-3.59208 4.62692,-1.00744 9.21027,-1.84036 13.73131,-2.4676 4.52105,-0.62725 8.97159,-1.06034 13.38803,-1.31189 4.41644,-0.25156 8.79407,-0.30704 13.10716,-0.18742 4.31309,0.11963 8.58409,0.41953 12.79509,0.90583 4.21099,0.48631 8.37285,1.1506 12.48301,1.99907 4.11015,0.84848 8.16037,1.88617 12.17093,3.09231 4.01056,1.20614 7.97783,2.59503 11.89007,4.15432 3.91223,1.55929 7.76283,3.27714 11.57799,5.18509 3.81515,1.90795 7.57779,3.995 11.29712,6.24709 3.71933,2.25209 7.3915,4.68613 11.01626,7.27786 3.62475,2.59174 7.20394,5.35053 10.73538,8.2774 3.53145,2.92687 7.01514,6.01944 10.45452,9.27694 3.43939,3.25749 6.82507,6.66162 10.17366,10.24523 3.34858,3.58361 6.66496,7.33954 9.92399,11.24477 0.23323,0.27948 0.45379,0.59348 0.68657,0.87459 1.88851,-1.49354 3.85143,-3.10258 5.71097,-4.52914 5.03876,-3.86554 9.97829,-7.49589 14.82358,-10.90118 4.84528,-3.4053 9.60454,-6.55781 14.29304,-9.49558 4.6885,-2.93778 9.28775,-5.65826 13.85614,-8.12122 4.56839,-2.46297 9.09031,-4.67228 13.57527,-6.65316 4.48497,-1.98088 8.94981,-3.7248 13.38803,-5.21632 4.43822,-1.49152 8.86625,-2.75339 13.29441,-3.74826 4.42815,-0.99486 8.83963,-1.72677 13.2944,-2.21771 4.45478,-0.49095 8.93236,-0.73868 13.45044,-0.71842 4.51809,0.0203 9.08204,0.30461 13.70011,0.84336 4.61806,0.53875 9.31986,1.34061 14.07459,2.40513 4.75473,1.06451 9.58343,2.40058 14.5115,3.99814 4.92807,1.59755 9.93514,3.45326 15.07323,5.59115 5.1381,2.13788 10.4062,4.56113 15.79101,7.24662 5.38481,2.68549 10.90299,5.6305 16.57119,8.87088 1.5783,0.90227 3.26629,1.99048 4.86838,2.93613 l 0,-163.48642679 -497.91603834,0 z"
     id="Fondo"
     style="fill:#ff6600;fill-opacity:1;fill-rule:evenodd;stroke:none;stroke-width:3;marker:none;visibility:visible;display:inline;overflow:visible" />
  <path
     d="m 1.9796781,161.47954 c -0.00549,6.77872 0.00429,13.5556 0,20.33429 -0.0037,5.83013 0.033405,11.66177 0.031207,17.49186 C 50.969731,160.64861 94.510804,139.09128 132.3023,132.4618 c 52.18335,-9.15414 94.79678,7.56461 133.75544,49.50821 -61.54533,50.60398 -137.28884,128.76873 -256.057728,230.26785 0.808506,3.06018 1.473208,6.1596 2.402979,9.18323 1.961222,6.37793 4.197736,12.6748 6.67841,18.86622 0.357309,0.8918 0.818123,1.73624 1.185886,2.62378 C 179.38577,308.04017 264.94884,212.77983 330.47007,171.72478 c 35.51535,-22.25363 63.22004,-29.11085 97.39868,-21.45877 20.24652,4.53289 43.21863,15.00372 70.27934,31.73523 l 0,-35.01495 c -22.6537,-12.7357 -43.51514,-21.45607 -63.75697,-25.98791 -10.47424,-2.34502 -20.71992,-3.50011 -30.83303,-3.49837 -30.33934,0.005 -59.37839,10.26726 -89.00386,28.83033 -8.12902,5.09358 -16.39872,10.82787 -24.87239,17.11704 -37.43415,-40.56536 -82.32914,-63.29103 -132.53836,-63.22058 -1.76125,0.002 -3.53103,0.035 -5.30527,0.0936 -8.11083,0.26849 -16.34413,1.12387 -24.71636,2.59255 -39.202924,6.87708 -80.671822,26.24782 -125.1421719,58.56649 z"
     id="path3347"
     style="font-size:medium;font-style:normal;font-variant:normal;font-weight:normal;font-stretch:normal;text-indent:0;text-align:start;text-decoration:none;line-height:normal;letter-spacing:normal;word-spacing:normal;text-transform:none;direction:ltr;block-progression:tb;writing-mode:lr-tb;text-anchor:start;baseline-shift:baseline;color:#000000;fill:#e3e4e5;fill-opacity:1;stroke:#000000;stroke-width:0.99999994;stroke-miterlimit:4;stroke-dasharray:none;marker:none;visibility:visible;display:inline;overflow:visible;enable-background:accumulate;font-family:Sans;-inkscape-font-specification:Sans" />
  <rect
     width="117.62918"
     height="116.71732"
     x="220.66869"
     y="408.51065"
     id="rect4054"
     style="fill:#6a270d;fill-opacity:1;fill-rule:evenodd;stroke:#000000;stroke-width:1;stroke-linecap:round;stroke-linejoin:round;stroke-miterlimit:4;stroke-opacity:1;stroke-dasharray:none;stroke-dashoffset:0" />
  <path
     d="m 269.08487,298.82189 -31.45718,25.42567 31.5196,28.23686 -90.35751,75.72813 -26.60829,-23.12761 -27.8059,23.14548 37.15902,36.88701 -27.93792,26.92913 26.18454,27.27243 -42.86424,40.03791 c 1.40873,1.3175 2.71844,2.86456 3.96335,4.56038 22.09468,13.5099 46.33317,23.51284 71.93334,29.04899 22.35255,5.45025 45.30961,7.40102 68.09482,6.18462 1.1539,-1.57968 2.28579,-3.11188 3.46404,-4.74779 l 45.78143,-40.35622 15.13565,12.80654 55.11249,-51.63223 -9.9552,-9.68299 29.74077,-27.86204 13.27665,9.24778 22.80613,-22.88632 22.3377,20.63529 c 13.433,-20.34216 23.15719,-42.62631 29.61594,-65.8756 -0.42677,-0.33144 -0.81253,-0.6653 -1.2483,-0.99954 l -19.78557,-17.24197 -18.0268,22.28217 -40.74754,-34.7847 -36.8143,34.27365 -34.28937,-31.77482 22.65758,-22.77896 -32.55951,-30.75028 17.47766,-15.30538 -19.53677,-16.7743 -22.09407,19.33561 z m 11.80846,114.03652 55.01115,52.53179 -57.76943,54.73496 -54.67391,-52.43894 z"
     id="path4031"
     style="fill:#e3e4e5;stroke:#000000;stroke-width:0.99999994" />
  <path
     d="M 2.0027068,1.4906493 C 2.2059801,121.71158 1.5936036,241.94584 2.3134039,362.15835 6.1414435,470.04489 88.675776,568.58513 194.06973,591.36936 c 97.50305,23.7664 206.65545,-18.94456 261.68976,-103.1717 32.95991,-47.1055 45.09819,-105.40095 42.38035,-162.14601 0,-108.187 0,-216.37401 0,-324.5610007 -165.37904,0 -330.75802,0 -496.1371332,0 z"
     id="Borde"
     style="fill:none;stroke:#000000;stroke-width:2.98339534;stroke-linecap:butt;stroke-linejoin:miter;stroke-miterlimit:4;stroke-opacity:1;stroke-dasharray:none;stroke-dashoffset:0;marker:none;visibility:visible;display:inline;overflow:visible;enable-background:accumulate" />
</svg>
