<?xml version="1.0" encoding="UTF-8" standalone="no"?>
<!-- Created with Inkscape (http://www.inkscape.org/) -->
<svg
   xmlns:ns="http://creativecommons.org/ns#"
   xmlns:dc="http://purl.org/dc/elements/1.1/"
   xmlns:cc="http://web.resource.org/cc/"
   xmlns:rdf="http://www.w3.org/1999/02/22-rdf-syntax-ns#"
   xmlns:svg="http://www.w3.org/2000/svg"
   xmlns="http://www.w3.org/2000/svg"
   xmlns:sodipodi="http://sodipodi.sourceforge.net/DTD/sodipodi-0.dtd"
   xmlns:inkscape="http://www.inkscape.org/namespaces/inkscape"
   version="1.0"
   width="520"
   height="660"
   id="svg2"
   sodipodi:version="0.32"
   inkscape:version="0.45.1"
   sodipodi:docname="Escudo de Cerrillos.svg"
   inkscape:output_extension="org.inkscape.output.svg.inkscape"
   sodipodi:docbase="C:\Documents and Settings\B1mbo\Escritorio">
  <metadata
     id="metadata377">
    <rdf:RDF>
      <ns:Work
         rdf:about="">
        <dc:format>image/svg+xml</dc:format>
        <dc:type
           rdf:resource="http://purl.org/dc/dcmitype/StillImage" />
      </ns:Work>
      <cc:Work
         rdf:about="">
        <dc:format>image/svg+xml</dc:format>
        <dc:type
           rdf:resource="http://purl.org/dc/dcmitype/StillImage" />
      </cc:Work>
    </rdf:RDF>
  </metadata>
  <sodipodi:namedview
     inkscape:window-height="851"
     inkscape:window-width="1440"
     inkscape:pageshadow="2"
     inkscape:pageopacity="0.0"
     guidetolerance="10.0"
     gridtolerance="10.0"
     objecttolerance="10.0"
     borderopacity="1.0"
     bordercolor="#666666"
     pagecolor="#ffffff"
     id="base"
     inkscape:zoom="0.98939394"
     inkscape:cx="260"
     inkscape:cy="330"
     inkscape:window-x="-4"
     inkscape:window-y="-4"
     inkscape:current-layer="svg2"
     showgrid="false"
     showguides="true"
     inkscape:guide-bbox="true" />
  <defs
     id="defs4">
    <inkscape:perspective
       sodipodi:type="inkscape:persp3d"
       inkscape:vp_x="0 : 455.4256 : 1"
       inkscape:vp_y="0 : 1000 : 0"
       inkscape:vp_z="581.48883 : 455.4256 : 1"
       inkscape:persp3d-origin="290.74442 : 303.61707 : 1"
       id="perspective377" />
    <inkscape:perspective
       id="perspective3434"
       inkscape:persp3d-origin="372.04724 : 350.78739 : 1"
       inkscape:vp_z="744.09448 : 526.18109 : 1"
       inkscape:vp_y="0 : 1000 : 0"
       inkscape:vp_x="0 : 526.18109 : 1"
       sodipodi:type="inkscape:persp3d" />
  </defs>
  <g
     id="g3410">
    <path
       id="Fondo"
       d="M 9.9375,396.5625 C 9.9687186,402.98299 9.9927846,409.39213 10.03125,415.8125 C 13.87813,524.16907 96.806202,623.14773 202.71875,646.03125 C 300.70157,669.90117 410.41365,627.00037 465.71875,542.40625 C 495.55408,499.79024 508.39437,448.06423 508.65625,396.5625 L 9.9375,396.5625 z"
       style="fill:#e3e4e5;fill-opacity:1;fill-rule:evenodd;stroke:none;stroke-width:3;stroke-linecap:butt;stroke-linejoin:miter;marker:none;stroke-miterlimit:4;stroke-dasharray:none;stroke-dashoffset:0;stroke-opacity:1;visibility:visible;display:inline;overflow:visible" />
    <path
       id="path2392"
       d="M 10.846081,397.78004 L 509.76583,397.78004"
       style="fill:none;fill-rule:evenodd;stroke:#000000;stroke-width:1px;stroke-linecap:butt;stroke-linejoin:miter;stroke-opacity:1" />
    <path
       sodipodi:nodetypes="cc"
       id="path2384"
       d="M 260,396.69126 L 260,650.87364"
       style="fill:none;fill-rule:evenodd;stroke:#000000;stroke-width:0.99999994000000003;stroke-linecap:butt;stroke-linejoin:miter;stroke-miterlimit:4;stroke-dasharray:none;stroke-opacity:1" />
    <path
       sodipodi:nodetypes="cc"
       id="path2386"
       d="M 309.75032,396.69127 L 352.62865,630.88783"
       style="fill:none;fill-rule:evenodd;stroke:#000000;stroke-width:0.99999994;stroke-linecap:butt;stroke-linejoin:miter;stroke-miterlimit:4;stroke-dasharray:none;stroke-opacity:1" />
    <path
       sodipodi:nodetypes="cc"
       id="path2504"
       d="M 359.50062,396.69127 L 428.97336,586.80275"
       style="fill:none;fill-rule:evenodd;stroke:#000000;stroke-width:0.99999994;stroke-linecap:butt;stroke-linejoin:miter;stroke-miterlimit:4;stroke-dasharray:none;stroke-opacity:1" />
    <path
       sodipodi:nodetypes="cc"
       id="path2390"
       d="M 409.25094,396.69127 L 482.24808,511.17229"
       style="fill:none;fill-rule:evenodd;stroke:#000000;stroke-width:0.99999994;stroke-linecap:butt;stroke-linejoin:miter;stroke-miterlimit:4;stroke-dasharray:none;stroke-opacity:1" />
    <path
       sodipodi:nodetypes="cc"
       id="path2507"
       d="M 459.00128,396.69127 L 504.12382,447.97125"
       style="fill:none;fill-rule:evenodd;stroke:#000000;stroke-width:0.99999994;stroke-linecap:butt;stroke-linejoin:miter;stroke-miterlimit:4;stroke-dasharray:none;stroke-opacity:1" />
    <path
       style="fill:none;fill-rule:evenodd;stroke:#000000;stroke-width:0.99999994;stroke-linecap:butt;stroke-linejoin:miter;stroke-miterlimit:4;stroke-dasharray:none;stroke-opacity:1"
       d="M 210.24968,396.69127 L 167.37135,630.88783"
       id="path3374"
       sodipodi:nodetypes="cc" />
    <path
       style="fill:none;fill-rule:evenodd;stroke:#000000;stroke-width:0.99999994;stroke-linecap:butt;stroke-linejoin:miter;stroke-miterlimit:4;stroke-dasharray:none;stroke-opacity:1"
       d="M 160.49938,396.69127 L 91.02664,586.80275"
       id="path3376"
       sodipodi:nodetypes="cc" />
    <path
       style="fill:none;fill-rule:evenodd;stroke:#000000;stroke-width:0.99999994;stroke-linecap:butt;stroke-linejoin:miter;stroke-miterlimit:4;stroke-dasharray:none;stroke-opacity:1"
       d="M 110.74906,396.69127 L 37.75192,511.17229"
       id="path3378"
       sodipodi:nodetypes="cc" />
    <path
       style="fill:none;fill-rule:evenodd;stroke:#000000;stroke-width:0.99999994;stroke-linecap:butt;stroke-linejoin:miter;stroke-miterlimit:4;stroke-dasharray:none;stroke-opacity:1"
       d="M 60.99872,396.69127 L 15.87618,447.97125"
       id="path3380"
       sodipodi:nodetypes="cc" />
    <path
       sodipodi:nodetypes="cc"
       d="M 14.90416,447.52774 L 505.09584,447.52774"
       style="fill:none;fill-rule:evenodd;stroke:#000000;stroke-width:0.99999994;stroke-linecap:butt;stroke-linejoin:miter;stroke-miterlimit:4;stroke-dasharray:none;stroke-opacity:1"
       id="path2394" />
    <path
       sodipodi:nodetypes="cc"
       d="M 31.10081,498.36422 L 488.89919,498.36422"
       style="fill:none;fill-rule:evenodd;stroke:#000000;stroke-width:0.99999994;stroke-linecap:butt;stroke-linejoin:miter;stroke-miterlimit:4;stroke-dasharray:none;stroke-opacity:1"
       id="path2396" />
    <path
       sodipodi:nodetypes="cc"
       d="M 59.29497,549.20069 L 460.70503,549.20069"
       style="fill:none;fill-rule:evenodd;stroke:#000000;stroke-width:0.99999994;stroke-linecap:butt;stroke-linejoin:miter;stroke-miterlimit:4;stroke-dasharray:none;stroke-opacity:1"
       id="path2398" />
    <path
       sodipodi:nodetypes="cc"
       d="M 110.28448,600.03716 L 409.71552,600.03716"
       style="fill:none;fill-rule:evenodd;stroke:#000000;stroke-width:0.99999994;stroke-linecap:butt;stroke-linejoin:miter;stroke-miterlimit:4;stroke-dasharray:none;stroke-opacity:1"
       id="path2400" />
  </g>
  <path
     style="fill:#eac102;fill-opacity:1;fill-rule:evenodd;stroke:none;stroke-width:3;stroke-linecap:butt;stroke-linejoin:miter;marker:none;stroke-miterlimit:4;stroke-dasharray:none;stroke-dashoffset:0;stroke-opacity:1;visibility:visible;display:inline;overflow:visible"
     d="M 9.71875,53.59375 C 9.8631134,138.92335 9.600075,224.26321 9.6875,309.59375 L 508.28125,309.59375 C 508.28125,224.25876 508.28125,138.92873 508.28125,53.59375 C 342.08844,53.59375 175.91162,53.59375 9.71875,53.59375 z"
     id="path5024" />
  <path
     style="fill:none;fill-opacity:1;fill-rule:evenodd;stroke:#000000;stroke-width:2.98339534;stroke-linecap:butt;stroke-linejoin:miter;marker:none;marker-start:none;marker-mid:none;marker-end:none;stroke-miterlimit:4;stroke-dasharray:none;stroke-dashoffset:0;stroke-opacity:1;visibility:visible;display:inline;overflow:visible;enable-background:accumulate"
     d="M 11.65625 54.28125 C 11.800261 139.37672 11.568237 224.49735 11.65625 309.59375 L 508.46875 309.59375 C 508.46875 224.49135 508.46875 139.38364 508.46875 54.28125 C 342.86462 54.281251 177.26046 54.28125 11.65625 54.28125 z M 11.875 396.5625 C 11.905317 402.75107 11.931662 408.93654 11.96875 415.125 C 15.802 523.06173 98.462592 621.64267 204 644.4375 C 301.63577 668.21498 410.92203 625.48509 466.03125 541.21875 C 495.6402 498.94017 508.45104 447.65814 508.8125 396.5625 L 11.875 396.5625 z "
     id="Borde" />
  <path
     style="font-size:53px;font-style:normal;font-variant:normal;font-weight:300;font-stretch:normal;text-align:start;line-height:100%;writing-mode:lr-tb;text-anchor:start;fill:#000000;fill-opacity:1;stroke:none;stroke-width:1px;stroke-linecap:butt;stroke-linejoin:miter;stroke-opacity:1;font-family:Bookman Old Style"
     d="M 14.597229,8.032608 L 28.416565,8.032608 L 28.416565,10.232315 L 27.35553,10.232315 C 26.354865,10.232349 25.630256,10.37037 25.181702,10.646378 C 24.733122,10.922452 24.405323,11.314949 24.198303,11.823868 C 23.99126,12.332851 23.887745,13.320562 23.887756,14.787003 L 23.887756,38.052139 C 23.887745,39.225321 23.999887,40.057759 24.224182,40.549454 C 24.448454,41.041156 24.763314,41.399147 25.168762,41.623428 C 25.574185,41.847714 26.303107,41.959856 27.35553,41.959854 L 28.416565,41.959854 L 28.416565,44.133682 L 14.597229,44.133682 L 14.597229,41.959854 L 15.735901,41.959854 C 16.7538,41.959856 17.474096,41.843401 17.89679,41.610489 C 18.319473,41.377581 18.625706,41.041156 18.815491,40.601212 C 19.005263,40.161274 19.100152,39.311584 19.100159,38.052139 L 19.100159,14.243546 C 19.100152,12.915126 19.005263,12.022305 18.815491,11.565079 C 18.625706,11.107918 18.319473,10.771492 17.89679,10.555801 C 17.474096,10.340178 16.7538,10.232349 15.735901,10.232315 L 14.597229,10.232315 L 14.597229,8.032608 z M 38.975159,38.103897 C 39.889537,38.103903 40.661591,38.418763 41.291321,39.048477 C 41.921029,39.678202 42.235889,40.441629 42.235901,41.33876 C 42.235889,42.235898 41.916716,42.999325 41.278381,43.629044 C 40.640025,44.258764 39.872285,44.573623 38.975159,44.573624 C 38.095268,44.573623 37.336154,44.258764 36.697815,43.629044 C 36.059463,42.999325 35.74029,42.235898 35.740295,41.33876 C 35.74029,40.441629 36.05515,39.678202 36.684875,39.048477 C 37.314589,38.418763 38.078016,38.103903 38.975159,38.103897 L 38.975159,38.103897 z M 66.950256,8.032608 L 78.362854,8.032608 L 89.024963,36.628799 L 99.402405,8.032608 L 110.42682,8.032608 L 110.42682,10.232315 L 109.49518,10.232315 C 108.37372,10.232349 107.61891,10.327238 107.23077,10.516983 C 106.84255,10.706795 106.53631,11.038907 106.31207,11.513321 C 106.08775,11.9878 105.97561,12.768479 105.97565,13.855362 L 105.97565,37.663956 C 105.97561,39.164937 106.06618,40.139708 106.24738,40.588272 C 106.42849,41.036843 106.73041,41.377581 107.15314,41.610489 C 107.57578,41.843401 108.35646,41.959856 109.49518,41.959854 L 110.42682,41.959854 L 110.42682,44.133682 L 96.633362,44.133682 L 96.633362,41.959854 L 97.61676,41.959854 C 98.496609,41.959856 99.139268,41.890846 99.544739,41.752823 C 99.950139,41.614805 100.28656,41.386208 100.55402,41.067032 C 100.8214,40.747862 100.97236,40.41575 101.0069,40.070694 C 101.09312,39.363342 101.13625,38.811259 101.13629,38.414444 L 101.13629,11.836807 L 89.361389,44.133682 L 86.799377,44.133682 L 74.920959,12.302628 L 74.920959,37.896866 C 74.920949,39.190816 75.033091,40.066385 75.257385,40.523575 C 75.481658,40.980772 75.831023,41.33445 76.305481,41.58461 C 76.779915,41.834775 77.629605,41.959856 78.854553,41.959854 L 79.682678,41.959854 L 79.682678,44.133682 L 66.950256,44.133682 L 66.950256,41.959854 L 67.674866,41.959854 C 68.899796,41.959856 69.775365,41.830462 70.301575,41.571671 C 70.827773,41.312884 71.203017,40.946267 71.427307,40.471817 C 71.651584,39.997375 71.763726,39.061422 71.763733,37.663956 L 71.763733,14.088272 C 71.763726,12.777106 71.668836,11.910163 71.479065,11.487442 C 71.289279,11.064786 70.97442,10.749927 70.534485,10.542862 C 70.094538,10.335864 69.313858,10.232349 68.192444,10.232315 L 66.950256,10.232315 L 66.950256,8.032608 z M 115.2403,8.032608 L 129.18903,8.032608 L 129.18903,10.232315 L 128.25739,10.232315 C 127.1187,10.232349 126.30783,10.344491 125.82477,10.568741 C 125.4452,10.7413 125.16053,11.034594 124.97076,11.448624 C 124.78097,11.862718 124.68608,12.690843 124.6861,13.932999 L 124.6861,30.184952 C 124.68608,33.0834 125.03545,35.231347 125.73419,36.628799 C 126.43291,38.026266 127.59746,39.199442 129.22784,40.148331 C 130.8582,41.097227 132.64815,41.571673 134.59772,41.571671 C 136.56449,41.571673 138.42777,41.062722 140.18756,40.044815 C 141.9473,39.026917 143.18086,37.819235 143.88824,36.421768 C 144.59557,35.024316 144.94925,32.815985 144.94928,29.796768 L 144.94928,14.165909 C 144.94925,13.027268 144.83711,12.20777 144.61285,11.707413 C 144.38854,11.20712 144.0478,10.83619 143.59064,10.59462 C 143.13341,10.353117 142.42174,10.232349 141.45563,10.232315 L 140.44635,10.232315 L 140.44635,8.032608 L 152.5318,8.032608 L 152.5318,10.232315 L 151.70367,10.232315 C 150.34068,10.232349 149.40473,10.491138 148.89581,11.008682 C 148.38683,11.526293 148.13235,12.501064 148.13239,13.932999 L 148.13239,30.573135 C 148.13235,33.609604 147.56301,36.141421 146.42438,38.168594 C 145.28567,40.195779 143.62943,41.80027 141.45563,42.982071 C 139.28177,44.163874 136.75427,44.754775 133.87311,44.754776 C 131.14718,44.754775 128.65418,44.150935 126.3941,42.943253 C 124.134,41.735573 122.47344,40.230284 121.41241,38.427383 C 120.35137,36.624494 119.82086,34.360092 119.82086,31.634171 L 119.82086,13.932999 C 119.82086,12.794358 119.71734,11.996426 119.51031,11.5392 C 119.30328,11.082039 119.00136,10.749927 118.60455,10.542862 C 118.20774,10.335864 117.51763,10.232349 116.53424,10.232315 L 115.2403,10.232315 L 115.2403,8.032608 z M 156.80182,8.032608 L 167.87799,8.032608 L 184.3111,35.101944 L 184.3111,14.502335 C 184.31107,13.277431 184.1903,12.397549 183.94879,11.862686 C 183.70723,11.327888 183.34492,10.922452 182.86188,10.646378 C 182.37878,10.37037 181.66279,10.232349 180.71393,10.232315 L 179.78229,10.232315 L 179.78229,8.032608 L 191.86774,8.032608 L 191.86774,10.232315 L 191.22076,10.232315 C 190.15107,10.232349 189.42646,10.318612 189.04694,10.491104 C 188.51207,10.732674 188.11095,11.172615 187.84357,11.810928 C 187.57612,12.449306 187.44241,13.346441 187.44244,14.502335 L 187.44244,44.133682 L 184.3111,44.133682 L 164.51373,11.603897 L 164.51373,37.379288 C 164.51372,38.811259 164.55685,39.682515 164.64313,39.993057 C 164.76389,40.389871 164.98386,40.752175 165.30304,41.079971 C 165.6222,41.407774 165.99745,41.632057 166.42877,41.752823 C 166.86007,41.873593 167.73133,41.942604 169.04254,41.959854 L 169.04254,44.133682 L 156.80182,44.133682 L 156.80182,41.959854 L 157.44879,41.959854 C 158.69097,41.959856 159.53204,41.839088 159.97198,41.597549 C 160.41192,41.356016 160.75266,40.941954 160.9942,40.355362 C 161.23573,39.768778 161.3565,38.776754 161.35651,37.379288 L 161.35651,14.502335 C 161.3565,13.0704 161.32199,12.199144 161.25299,11.888565 C 161.09771,11.302009 160.8001,10.879321 160.36017,10.620499 C 159.92022,10.361743 159.04465,10.232349 157.73346,10.232315 L 156.80182,10.232315 L 156.80182,8.032608 z M 195.85309,8.032608 L 209.67242,8.032608 L 209.67242,10.232315 L 208.61139,10.232315 C 207.61072,10.232349 206.88612,10.37037 206.43756,10.646378 C 205.98898,10.922452 205.66118,11.314949 205.45416,11.823868 C 205.24712,12.332851 205.1436,13.320562 205.14362,14.787003 L 205.14362,38.052139 C 205.1436,39.225321 205.25575,40.057759 205.48004,40.549454 C 205.70431,41.041156 206.01917,41.399147 206.42462,41.623428 C 206.83004,41.847714 207.55897,41.959856 208.61139,41.959854 L 209.67242,41.959854 L 209.67242,44.133682 L 195.85309,44.133682 L 195.85309,41.959854 L 196.99176,41.959854 C 198.00966,41.959856 198.72996,41.843401 199.15265,41.610489 C 199.57533,41.377581 199.88157,41.041156 200.07135,40.601212 C 200.26112,40.161274 200.35601,39.311584 200.35602,38.052139 L 200.35602,14.243546 C 200.35601,12.915126 200.26112,12.022305 200.07135,11.565079 C 199.88157,11.107918 199.57533,10.771492 199.15265,10.555801 C 198.72996,10.340178 198.00966,10.232349 196.99176,10.232315 L 195.85309,10.232315 L 195.85309,8.032608 z M 243.03033,8.032608 L 244.89362,8.032608 L 248.18024,20.066299 L 245.7735,20.739151 C 244.47952,17.961508 243.49612,16.098229 242.8233,15.149307 C 241.71911,13.613856 240.34321,12.397549 238.69562,11.500381 C 237.04797,10.60328 235.23213,10.154712 233.24811,10.154678 C 230.91899,10.154712 228.77535,10.780119 226.8172,12.030899 C 224.85902,13.281744 223.27178,15.114831 222.05548,17.530167 C 220.83916,19.945555 220.23101,22.662838 220.23102,25.682022 C 220.23101,28.787506 220.84779,31.556546 222.08136,33.989151 C 223.31491,36.421776 224.9841,38.293682 227.08893,39.604874 C 229.19373,40.916075 231.46244,41.571673 233.89508,41.571671 C 236.18965,41.571673 238.536,40.916075 240.93414,39.604874 C 243.33222,38.293682 245.41116,36.456281 247.17096,34.092667 L 249.24127,35.516006 C 248.17157,37.103253 247.01565,38.448955 245.7735,39.553116 C 243.80667,41.330137 241.76224,42.641333 239.6402,43.48671 C 237.5181,44.332087 235.189,44.754775 232.65289,44.754776 C 227.04578,44.754775 222.4911,42.675839 218.98883,38.51796 C 216.09039,35.067448 214.64117,30.961332 214.64117,26.1996 C 214.64117,22.697343 215.44342,19.52718 217.04791,16.689102 C 218.6524,13.851079 220.86504,11.595303 223.68585,9.9217682 C 226.50664,8.2483015 229.54741,7.411551 232.80817,7.4115143 C 234.55066,7.411551 236.16809,7.6487741 237.66046,8.1231842 C 239.15278,8.5976664 240.6667,9.3610933 242.20221,10.413467 L 243.03033,8.032608 z M 253.09723,8.032608 L 266.91656,8.032608 L 266.91656,10.232315 L 265.85553,10.232315 C 264.85486,10.232349 264.13026,10.37037 263.6817,10.646378 C 263.23312,10.922452 262.90532,11.314949 262.6983,11.823868 C 262.49126,12.332851 262.38774,13.320562 262.38776,14.787003 L 262.38776,38.052139 C 262.38774,39.225321 262.49989,40.057759 262.72418,40.549454 C 262.94845,41.041156 263.26331,41.399147 263.66876,41.623428 C 264.07419,41.847714 264.80311,41.959856 265.85553,41.959854 L 266.91656,41.959854 L 266.91656,44.133682 L 253.09723,44.133682 L 253.09723,41.959854 L 254.2359,41.959854 C 255.2538,41.959856 255.9741,41.843401 256.39679,41.610489 C 256.81947,41.377581 257.12571,41.041156 257.31549,40.601212 C 257.50526,40.161274 257.60015,39.311584 257.60016,38.052139 L 257.60016,14.243546 C 257.60015,12.915126 257.50526,12.022305 257.31549,11.565079 C 257.12571,11.107918 256.81947,10.771492 256.39679,10.555801 C 255.9741,10.340178 255.2538,10.232349 254.2359,10.232315 L 253.09723,10.232315 L 253.09723,8.032608 z M 271.39362,8.032608 L 285.65289,8.032608 C 289.98328,8.0326441 292.96797,8.3086855 294.60699,8.860733 C 296.66003,9.5163666 298.35509,10.637785 299.6922,12.224991 C 301.02924,13.812261 301.69778,15.830813 301.69781,18.280655 C 301.69778,20.368244 301.18883,22.171139 300.17096,23.689346 C 298.94599,25.518141 297.45796,26.816398 295.70685,27.584122 C 293.95568,28.351878 291.19958,28.735748 287.43854,28.735733 L 280.83942,28.735733 L 280.83942,38.000381 C 280.8394,39.380595 280.91704,40.25185 281.07233,40.614151 C 281.27935,41.11448 281.56401,41.463844 281.92633,41.662247 C 282.28862,41.860654 283.02186,41.959856 284.12604,41.959854 L 285.36823,41.959854 L 285.36823,44.133682 L 271.39362,44.133682 L 271.39362,41.959854 L 272.24762,41.959854 C 273.43804,41.959856 274.24892,41.860654 274.68024,41.662247 C 275.11155,41.463844 275.42641,41.153298 275.62482,40.730606 C 275.82322,40.307921 275.92242,39.509989 275.92242,38.336807 L 275.92242,13.648331 C 275.92242,12.50969 275.83184,11.746263 275.6507,11.358047 C 275.46954,10.969897 275.16762,10.685229 274.74493,10.504044 C 274.32224,10.322925 273.4898,10.232349 272.24762,10.232315 L 271.39362,10.232315 L 271.39362,8.032608 z M 280.83942,10.853409 L 280.83942,25.992569 L 286.40338,25.992569 C 289.21554,25.992587 291.18664,25.742425 292.31671,25.242081 C 293.44673,24.741775 294.38269,23.874832 295.12457,22.641251 C 295.86641,21.407712 296.23734,19.962808 296.23737,18.306534 C 296.23734,16.495038 295.80602,14.981124 294.94342,13.764786 C 294.08077,12.548509 292.90759,11.724698 291.42389,11.29335 C 290.38871,11.000089 288.37016,10.853442 285.36823,10.853409 L 280.83942,10.853409 z M 317.87213,8.032608 L 322.14215,8.032608 L 333.34772,38.207413 C 333.89977,39.725646 334.45616,40.730609 335.01691,41.222305 C 335.57758,41.714007 336.33238,41.959856 337.28131,41.959854 L 337.85065,41.959854 L 337.85065,44.133682 L 324.98883,44.133682 L 324.98883,41.959854 C 325.40287,41.925351 325.80831,41.908099 326.20514,41.908096 C 327.03324,41.908099 327.5767,41.821836 327.83551,41.649307 C 328.33581,41.321511 328.58597,40.907448 328.586,40.40712 C 328.58597,40.044819 328.34444,39.156311 327.86139,37.741592 L 325.48053,30.754288 L 312.3858,30.754288 L 309.59088,38.569717 C 309.29758,39.380595 309.15093,39.941304 309.15094,40.251846 C 309.15093,40.596902 309.24151,40.898822 309.42267,41.157608 C 309.60381,41.4164 309.84966,41.610491 310.16022,41.739883 C 310.47076,41.86928 310.97108,41.933977 311.66119,41.933975 C 312.127,41.933977 312.50656,41.942604 312.79987,41.959854 L 312.79987,44.133682 L 302.00836,44.133682 L 302.00836,41.959854 C 303.00901,41.959856 303.72931,41.860654 304.16925,41.662247 C 304.60919,41.463844 304.99306,41.144672 305.32086,40.704727 C 305.64866,40.26479 306.07997,39.337463 306.61481,37.922745 L 317.87213,8.032608 z M 313.34332,28.218155 L 324.49713,28.218155 L 318.90729,12.690811 L 313.34332,28.218155 z M 340.38678,8.032608 L 354.38727,8.032608 L 354.38727,10.232315 L 353.09332,10.232315 C 352.09266,10.232349 351.3853,10.327238 350.97125,10.516983 C 350.55718,10.706795 350.25526,10.982836 350.06549,11.345108 C 349.8757,11.707445 349.78081,12.354417 349.78082,13.286026 L 349.78082,38.466202 C 349.78081,39.622131 349.82394,40.312234 349.91022,40.536514 C 350.01372,40.847064 350.238,41.071348 350.58307,41.209366 C 350.82459,41.312884 351.52332,41.364642 352.67926,41.364639 L 354.62018,41.364639 C 356.84575,41.364642 358.77804,41.041156 360.41705,40.39418 C 362.05603,39.747212 363.47074,38.806946 364.66119,37.57338 C 365.8516,36.339826 366.99889,34.498112 368.10309,32.048233 L 370.40631,32.8246 L 366.3692,44.133682 L 340.38678,44.133682 L 340.38678,41.959854 L 341.52545,41.959854 C 342.62961,41.959856 343.37147,41.864967 343.75104,41.675186 C 344.13059,41.48541 344.42388,41.17055 344.63092,40.730606 C 344.83794,40.290669 344.94146,39.535868 344.94147,38.466202 L 344.94147,13.90712 C 344.94146,12.664964 344.84657,11.832526 344.6568,11.409805 C 344.46701,10.98715 344.19097,10.685229 343.82867,10.504044 C 343.46636,10.322925 342.69862,10.232349 341.52545,10.232315 L 340.38678,10.232315 L 340.38678,8.032608 z M 371.82965,8.032608 L 385.64899,8.032608 L 385.64899,10.232315 L 384.58795,10.232315 C 383.58729,10.232349 382.86268,10.37037 382.41412,10.646378 C 381.96554,10.922452 381.63774,11.314949 381.43073,11.823868 C 381.22368,12.332851 381.12017,13.320562 381.12018,14.787003 L 381.12018,38.052139 C 381.12017,39.225321 381.23231,40.057759 381.4566,40.549454 C 381.68088,41.041156 381.99574,41.399147 382.40118,41.623428 C 382.80661,41.847714 383.53553,41.959856 384.58795,41.959854 L 385.64899,41.959854 L 385.64899,44.133682 L 371.82965,44.133682 L 371.82965,41.959854 L 372.96832,41.959854 C 373.98622,41.959856 374.70652,41.843401 375.12921,41.610489 C 375.55189,41.377581 375.85813,41.041156 376.04791,40.601212 C 376.23768,40.161274 376.33257,39.311584 376.33258,38.052139 L 376.33258,14.243546 C 376.33257,12.915126 376.23768,12.022305 376.04791,11.565079 C 375.85813,11.107918 375.55189,10.771492 375.12921,10.555801 C 374.70652,10.340178 373.98622,10.232349 372.96832,10.232315 L 371.82965,10.232315 L 371.82965,8.032608 z M 390.25543,10.232315 L 390.25543,8.032608 L 403.14313,8.032608 C 409.0435,8.0326441 413.15824,8.4035748 415.48737,9.145401 C 418.9206,10.232349 421.7069,12.259528 423.84625,15.226944 C 426.20982,18.504964 427.39162,22.274655 427.39166,26.536026 C 427.39162,29.434478 426.80935,32.130195 425.64484,34.623184 C 424.48025,37.116193 422.94908,39.121806 421.05133,40.64003 C 419.48131,41.916725 417.59215,42.818172 415.38385,43.344376 C 413.17549,43.87058 410.94991,44.133682 408.70709,44.133682 L 390.25543,44.133682 L 390.25543,41.959854 L 391.75641,41.959854 L 392.24811,41.985733 C 392.88645,41.985735 393.40834,41.856341 393.81378,41.597549 C 394.21921,41.338763 394.50819,40.993711 394.68073,40.562393 C 394.80149,40.234598 394.86187,39.475484 394.86188,38.285049 L 394.86188,14.14003 C 394.86187,12.777106 394.77561,11.897224 394.60309,11.500381 C 394.36155,10.965584 393.97336,10.594653 393.43854,10.387589 C 393.12799,10.284107 392.06695,10.232349 390.25543,10.232315 L 390.25543,10.232315 z M 399.67535,41.33876 L 407.49078,41.33876 C 408.26713,41.338763 409.55676,41.200742 411.35968,40.924698 C 413.16255,40.64866 414.45218,40.312234 415.22858,39.915421 C 416.36722,39.328837 417.47139,38.384258 418.54108,37.08168 C 419.61071,35.779117 420.43452,34.217758 421.01251,32.397598 C 421.59044,30.577462 421.87942,28.494212 421.87946,26.147842 C 421.87942,23.818761 421.59044,21.800208 421.01251,20.092178 C 420.43452,18.384196 419.56326,16.848716 418.39874,15.485733 C 417.23416,14.122807 415.94022,13.083339 414.51691,12.367325 C 413.09354,11.651374 411.50199,11.198494 409.74225,11.008682 C 408.79333,10.922452 407.2061,10.879321 404.98053,10.879288 L 399.67535,10.879288 L 399.67535,41.33876 z M 446.12799,8.032608 L 450.39801,8.032608 L 461.60358,38.207413 C 462.15563,39.725646 462.71202,40.730609 463.27277,41.222305 C 463.83344,41.714007 464.58824,41.959856 465.53717,41.959854 L 466.10651,41.959854 L 466.10651,44.133682 L 453.24469,44.133682 L 453.24469,41.959854 C 453.65873,41.925351 454.06416,41.908099 454.461,41.908096 C 455.2891,41.908099 455.83255,41.821836 456.09137,41.649307 C 456.59167,41.321511 456.84183,40.907448 456.84186,40.40712 C 456.84183,40.044819 456.6003,39.156311 456.11725,37.741592 L 453.73639,30.754288 L 440.64166,30.754288 L 437.84674,38.569717 C 437.55344,39.380595 437.40679,39.941304 437.4068,40.251846 C 437.40679,40.596902 437.49737,40.898822 437.67853,41.157608 C 437.85967,41.4164 438.10552,41.610491 438.41608,41.739883 C 438.72661,41.86928 439.22694,41.933977 439.91705,41.933975 C 440.38286,41.933977 440.76242,41.942604 441.05573,41.959854 L 441.05573,44.133682 L 430.26422,44.133682 L 430.26422,41.959854 C 431.26487,41.959856 431.98517,41.860654 432.42511,41.662247 C 432.86505,41.463844 433.24892,41.144672 433.57672,40.704727 C 433.90452,40.26479 434.33583,39.337463 434.87067,37.922745 L 446.12799,8.032608 z M 441.59918,28.218155 L 452.75299,28.218155 L 447.16315,12.690811 L 441.59918,28.218155 z M 468.72028,10.232315 L 468.72028,8.032608 L 481.60797,8.032608 C 487.50834,8.0326441 491.62308,8.4035748 493.95221,9.145401 C 497.38545,10.232349 500.17174,12.259528 502.3111,15.226944 C 504.67466,18.504964 505.85647,22.274655 505.85651,26.536026 C 505.85647,29.434478 505.27419,32.130195 504.10968,34.623184 C 502.94509,37.116193 501.41393,39.121806 499.51617,40.64003 C 497.94616,41.916725 496.057,42.818172 493.84869,43.344376 C 491.64034,43.87058 489.41475,44.133682 487.17194,44.133682 L 468.72028,44.133682 L 468.72028,41.959854 L 470.22125,41.959854 L 470.71295,41.985733 C 471.35129,41.985735 471.87318,41.856341 472.27863,41.597549 C 472.68406,41.338763 472.97304,40.993711 473.14557,40.562393 C 473.26633,40.234598 473.32671,39.475484 473.32672,38.285049 L 473.32672,14.14003 C 473.32671,12.777106 473.24045,11.897224 473.06793,11.500381 C 472.82639,10.965584 472.43821,10.594653 471.90338,10.387589 C 471.59283,10.284107 470.53179,10.232349 468.72028,10.232315 L 468.72028,10.232315 z M 478.1402,41.33876 L 485.95563,41.33876 C 486.73197,41.338763 488.0216,41.200742 489.82452,40.924698 C 491.6274,40.64866 492.91703,40.312234 493.69342,39.915421 C 494.83206,39.328837 495.93623,38.384258 497.00592,37.08168 C 498.07555,35.779117 498.89936,34.217758 499.47736,32.397598 C 500.05528,30.577462 500.34427,28.494212 500.3443,26.147842 C 500.34427,23.818761 500.05528,21.800208 499.47736,20.092178 C 498.89936,18.384196 498.02811,16.848716 496.86359,15.485733 C 495.69901,14.122807 494.40506,13.083339 492.98175,12.367325 C 491.55839,11.651374 489.96683,11.198494 488.20709,11.008682 C 487.25818,10.922452 485.67094,10.879321 483.44537,10.879288 L 478.1402,10.879288 L 478.1402,41.33876 z "
     id="text4990" />
  <path
     style="font-size:84px;font-style:normal;font-variant:normal;font-weight:bold;font-stretch:normal;text-align:start;line-height:125%;writing-mode:lr-tb;text-anchor:start;fill:#000000;fill-opacity:1;stroke:none;stroke-width:1px;stroke-linecap:butt;stroke-linejoin:miter;stroke-opacity:1;font-family:Book Antiqua"
     d="M 72.559875,372.94006 L 73.585266,373.88342 C 72.874271,375.25062 72.245366,376.64515 71.698547,378.06702 C 68.526619,379.73499 65.470958,380.9176 62.531555,381.61487 C 59.592058,382.31213 56.208272,382.66077 52.380188,382.66077 C 45.216096,382.66077 39.159461,381.40295 34.210266,378.88733 C 29.261034,376.37171 25.45342,372.8307 22.787415,368.26428 C 20.121394,363.69789 18.788388,358.46157 18.788391,352.5553 C 18.788388,344.05143 21.803033,337.08562 27.832336,331.65784 C 33.861615,326.23016 42.180943,323.51629 52.790344,323.51624 C 56.317647,323.51629 59.810808,323.83075 63.269836,324.45959 C 66.72877,325.08856 70.167243,326.04559 73.585266,327.33069 L 73.872375,327.94592 C 73.38013,329.42254 73.038334,330.84441 72.846985,332.21155 C 72.491459,334.5905 72.218022,337.54362 72.026672,341.07092 L 68.58136,341.07092 C 68.417244,336.75066 68.253182,334.37859 68.089172,333.95471 C 67.925057,333.53093 67.173105,332.80632 65.833313,331.78088 C 64.49342,330.75554 62.681899,329.92156 60.398743,329.27893 C 58.115497,328.63641 55.593039,328.31512 52.83136,328.31506 C 46.268829,328.31512 41.053014,330.33855 37.183899,334.38538 C 33.31474,338.43229 31.380172,344.0651 31.380188,351.28381 C 31.380172,359.10415 33.704389,365.43422 38.352844,370.27405 C 42.645786,374.75843 48.538358,377.00061 56.030579,377.00061 C 58.928973,377.00061 61.642837,376.69983 64.17218,376.09827 C 66.701426,375.49671 69.497321,374.44398 72.559875,372.94006 L 72.559875,372.94006 z M 81.870422,381.84045 L 81.870422,379.62561 C 83.319634,378.96936 84.645805,378.20374 85.848938,377.32874 C 86.395803,373.06312 86.66924,364.09438 86.66925,350.42249 C 86.66924,341.09831 86.573537,334.91863 86.382141,331.88342 C 86.3001,330.27019 86.019827,329.25164 85.541321,328.82776 C 85.062796,328.40398 83.032525,328.04168 79.4505,327.74084 L 79.4505,324.29553 C 85.903616,324.54168 91.00322,324.66473 94.749329,324.66467 L 117.34894,324.41858 C 119.7278,324.41864 121.87428,324.51434 123.78839,324.70569 L 124.0755,325.15686 C 123.47389,328.13738 123.03639,332.10222 122.763,337.05139 L 119.52277,337.05139 C 119.386,333.05925 119.22878,330.92644 119.05109,330.65295 C 118.87331,330.37957 118.25124,330.1198 117.18488,329.87366 C 114.91531,329.38152 111.44265,329.13543 106.76691,329.13538 C 104.47,329.13543 101.79032,329.23113 98.727844,329.42249 C 98.372353,337.87175 98.167275,344.5983 98.11261,349.60217 C 101.03837,349.79361 103.78641,349.88931 106.35675,349.88928 C 110.1575,349.88931 112.4407,349.76627 113.20636,349.52014 C 113.67117,349.35611 113.99929,348.95963 114.19073,348.33069 C 114.35476,347.83853 114.54617,346.11588 114.76495,343.16272 L 118.2923,343.16272 C 118.15554,347.78385 118.08718,350.79166 118.08722,352.18616 L 118.2923,361.41467 L 114.76495,361.41467 C 114.57351,357.83267 114.32742,355.76821 114.02667,355.22131 C 113.86257,354.89322 113.49343,354.66079 112.91925,354.52405 C 111.55203,354.22329 108.47586,354.0729 103.69073,354.07288 C 102.1868,354.0729 100.42313,354.15493 98.399719,354.31897 C 98.34501,355.76821 98.317666,357.24478 98.317688,358.74866 C 98.317666,366.56898 98.454384,372.5846 98.727844,376.79553 L 106.84894,376.91858 C 111.47,376.91858 115.6946,376.67249 119.52277,376.1803 C 120.20632,373.66468 120.86257,370.80726 121.49152,367.60803 L 124.89581,367.60803 C 124.26686,372.42054 123.89772,377.04163 123.78839,381.47131 C 121.30006,381.74475 118.90749,381.88147 116.61066,381.88147 C 115.10671,381.88147 112.13992,381.82678 107.71027,381.71741 C 103.58133,381.60803 99.780555,381.55334 96.307922,381.55334 C 91.741501,381.55334 86.929005,381.64905 81.870422,381.84045 L 81.870422,381.84045 z M 130.51495,381.84045 L 130.51495,378.39514 C 133.68682,378.12171 135.50518,377.86194 135.97003,377.61584 C 136.2708,377.45179 136.48955,377.19202 136.62628,376.83655 C 136.89971,376.1803 137.09112,373.96546 137.2005,370.19202 C 137.33721,364.34047 137.40557,359.73305 137.40558,356.36975 C 137.40557,351.83072 137.35088,346.06119 137.24152,339.06116 C 137.13213,333.83855 136.87237,330.63933 136.46222,329.4635 C 136.35284,329.10808 136.13409,328.83465 135.80597,328.64319 C 135.36846,328.3698 133.60479,328.06902 130.51495,327.74084 L 130.51495,324.29553 C 136.1751,324.51434 139.82549,324.62371 141.46613,324.62366 L 162.01495,324.25452 C 166.47195,324.25457 169.71901,324.68524 171.75616,325.54651 C 173.79323,326.40789 175.40651,327.78875 176.59601,329.68909 C 177.78541,331.58953 178.38014,333.82488 178.38019,336.39514 C 178.38014,339.67643 177.42994,342.55436 175.5296,345.02893 C 173.62917,347.50357 170.32741,349.69791 165.62433,351.61194 L 174.36066,364.77795 L 181.16925,374.8678 C 182.45435,376.50843 183.41138,377.49964 184.04034,377.84143 C 184.66919,378.18323 185.69458,378.3678 187.11652,378.39514 L 187.11652,381.55334 L 184.69659,381.59436 C 177.75123,381.64905 173.28053,381.73108 171.28448,381.84045 C 168.90554,378.03968 165.35085,372.52992 160.62042,365.31116 L 152.1712,352.47327 C 152.41727,352.00845 152.62235,351.51627 152.78644,350.9967 C 153.88016,351.13345 154.6868,351.20181 155.20636,351.20178 C 157.7493,351.20181 160.25125,350.17642 162.71222,348.12561 C 165.17312,346.07486 166.40359,343.14909 166.40363,339.34827 C 166.40359,336.03972 165.43288,333.46941 163.49152,331.63733 C 161.55008,329.80535 158.63797,328.88933 154.75519,328.88928 C 153.52469,328.88933 151.85673,328.98504 149.75128,329.17639 L 149.46417,341.276 L 149.09503,356.61584 C 149.09501,360.08852 149.23173,364.53188 149.50519,369.94592 C 149.72392,374.02015 149.94267,376.30335 150.16144,376.79553 C 150.32548,377.15101 150.62626,377.43811 151.06378,377.65686 C 151.63798,377.98499 153.49735,378.23108 156.64191,378.39514 L 156.64191,381.84045 C 151.72001,381.64905 147.35868,381.55334 143.55792,381.55334 C 139.51104,381.55334 135.16338,381.64905 130.51495,381.84045 L 130.51495,381.84045 z M 191.21808,381.84045 L 191.21808,378.39514 C 194.38995,378.12171 196.20831,377.86194 196.67316,377.61584 C 196.97393,377.45179 197.19268,377.19202 197.32941,376.83655 C 197.60283,376.1803 197.79424,373.96546 197.90363,370.19202 C 198.04033,364.34047 198.10869,359.73305 198.1087,356.36975 C 198.10869,351.83072 198.05401,346.06119 197.94464,339.06116 C 197.83526,333.83855 197.57549,330.63933 197.16534,329.4635 C 197.05596,329.10808 196.83721,328.83465 196.50909,328.64319 C 196.07159,328.3698 194.30792,328.06902 191.21808,327.74084 L 191.21808,324.29553 C 196.87823,324.51434 200.52861,324.62371 202.16925,324.62366 L 222.71808,324.25452 C 227.17507,324.25457 230.42214,324.68524 232.45929,325.54651 C 234.49635,326.40789 236.10963,327.78875 237.29913,329.68909 C 238.48854,331.58953 239.08326,333.82488 239.08331,336.39514 C 239.08326,339.67643 238.13307,342.55436 236.23273,345.02893 C 234.33229,347.50357 231.03054,349.69791 226.32745,351.61194 L 235.06378,364.77795 L 241.87238,374.8678 C 243.15748,376.50843 244.11451,377.49964 244.74347,377.84143 C 245.37232,378.18323 246.39771,378.3678 247.81964,378.39514 L 247.81964,381.55334 L 245.39972,381.59436 C 238.45436,381.64905 233.98366,381.73108 231.98761,381.84045 C 229.60866,378.03968 226.05398,372.52992 221.32355,365.31116 L 212.87433,352.47327 C 213.1204,352.00845 213.32548,351.51627 213.48956,350.9967 C 214.58329,351.13345 215.38993,351.20181 215.90948,351.20178 C 218.45242,351.20181 220.95437,350.17642 223.41534,348.12561 C 225.87624,346.07486 227.10671,343.14909 227.10675,339.34827 C 227.10671,336.03972 226.13601,333.46941 224.19464,331.63733 C 222.2532,329.80535 219.34109,328.88933 215.45831,328.88928 C 214.22782,328.88933 212.55985,328.98504 210.45441,329.17639 L 210.1673,341.276 L 209.79816,356.61584 C 209.79814,360.08852 209.93485,364.53188 210.20831,369.94592 C 210.42704,374.02015 210.64579,376.30335 210.86456,376.79553 C 211.0286,377.15101 211.32938,377.43811 211.76691,377.65686 C 212.3411,377.98499 214.20047,378.23108 217.34503,378.39514 L 217.34503,381.84045 C 212.42313,381.64905 208.06181,381.55334 204.26105,381.55334 C 200.21416,381.55334 195.86651,381.64905 191.21808,381.84045 L 191.21808,381.84045 z M 251.9212,381.84045 L 251.9212,378.39514 C 255.69463,378.20374 257.82744,377.88929 258.31964,377.45178 C 258.81182,377.01429 259.1126,375.93421 259.22198,374.21155 C 259.41338,370.60218 259.50908,363.87563 259.50909,354.03186 C 259.50908,350.25845 259.4544,344.78971 259.34503,337.62561 C 259.29033,332.73113 259.18096,330.04461 259.01691,329.56604 C 258.85283,329.08758 258.56573,328.73894 258.15558,328.52014 C 257.55401,328.21941 255.47588,327.95965 251.9212,327.74084 L 251.9212,324.29553 C 257.55401,324.51434 261.86064,324.62371 264.84113,324.62366 C 269.98173,324.62371 274.63016,324.51434 278.78644,324.29553 L 278.78644,327.74084 C 275.06766,327.95965 272.96903,328.25359 272.49054,328.62268 C 272.012,328.99187 271.70438,329.84637 271.56769,331.18616 C 271.32157,333.8112 271.19853,339.12956 271.19855,347.14124 C 271.19853,357.80532 271.23954,365.23598 271.32159,369.43323 C 271.4036,373.6305 271.6497,376.12562 272.05988,376.91858 C 272.22391,377.27405 272.57255,377.55433 273.10577,377.7594 C 273.63895,377.96448 275.53251,378.17639 278.78644,378.39514 L 278.78644,381.84045 L 273.94659,381.71741 C 270.88407,381.60803 268.1497,381.55334 265.74347,381.55334 L 251.9212,381.84045 z M 287.19464,381.84045 L 287.19464,379.70764 C 288.69854,378.99671 290.12041,378.16272 291.46027,377.20569 C 291.81572,369.79554 291.99346,362.07094 291.99347,354.03186 C 291.99346,347.71549 291.9251,341.75456 291.78839,336.14905 C 291.70635,332.15691 291.51494,329.86004 291.21417,329.25842 C 291.07744,328.90301 290.79717,328.63641 290.37335,328.45862 C 289.94952,328.28094 287.96026,328.04168 284.40558,327.74084 L 284.40558,324.29553 C 289.68291,324.43231 294.57744,324.50067 299.08917,324.50061 C 303.46415,324.50067 307.60672,324.43231 311.51691,324.29553 L 311.51691,327.74084 C 307.74344,327.98699 305.56962,328.31512 304.99542,328.72522 C 304.63993,328.97137 304.387,329.47039 304.23663,330.22229 C 304.08622,330.97429 303.97001,335.39714 303.888,343.49084 L 303.64191,363.46545 C 303.64188,367.21156 303.73759,371.54554 303.92902,376.46741 C 307.51102,376.65882 310.16336,376.75452 311.88605,376.75452 C 317.05398,376.75452 321.40163,376.35804 324.92902,375.56506 C 325.63991,373.07679 326.33717,370.11 327.02081,366.66467 L 330.63019,366.66467 C 330.02858,370.57484 329.49537,375.42835 329.03058,381.22522 C 326.43288,381.60803 324.0403,381.79944 321.85284,381.79944 L 307.00519,381.63538 L 300.36066,381.55334 C 297.29814,381.526 292.90947,381.6217 287.19464,381.84045 L 287.19464,381.84045 z M 338.5462,381.84045 L 338.5462,379.70764 C 340.0501,378.99671 341.47198,378.16272 342.81183,377.20569 C 343.16729,369.79554 343.34502,362.07094 343.34503,354.03186 C 343.34502,347.71549 343.27666,341.75456 343.13995,336.14905 C 343.05791,332.15691 342.86651,329.86004 342.56573,329.25842 C 342.42901,328.90301 342.14873,328.63641 341.72491,328.45862 C 341.30108,328.28094 339.31182,328.04168 335.75714,327.74084 L 335.75714,324.29553 C 341.03448,324.43231 345.929,324.50067 350.44073,324.50061 C 354.81571,324.50067 358.95829,324.43231 362.86847,324.29553 L 362.86847,327.74084 C 359.09501,327.98699 356.92118,328.31512 356.34698,328.72522 C 355.99149,328.97137 355.73856,329.47039 355.5882,330.22229 C 355.43778,330.97429 355.32157,335.39714 355.23956,343.49084 L 354.99347,363.46545 C 354.99345,367.21156 355.08915,371.54554 355.28058,376.46741 C 358.86258,376.65882 361.51493,376.75452 363.23761,376.75452 C 368.40554,376.75452 372.7532,376.35804 376.28058,375.56506 C 376.99147,373.07679 377.68874,370.11 378.37238,366.66467 L 381.98175,366.66467 C 381.38014,370.57484 380.84694,375.42835 380.38214,381.22522 C 377.78444,381.60803 375.39186,381.79944 373.20441,381.79944 L 358.35675,381.63538 L 351.71222,381.55334 C 348.6497,381.526 344.26104,381.6217 338.5462,381.84045 L 338.5462,381.84045 z M 418.81378,382.66077 C 408.72391,382.66077 400.99931,380.06995 395.63995,374.88831 C 390.28057,369.70668 387.60089,362.5768 387.60089,353.49866 C 387.60089,347.15494 388.89971,341.76139 391.49738,337.31799 C 394.09502,332.87468 397.69756,329.46355 402.30499,327.08459 C 406.91239,324.70575 412.83914,323.51629 420.08527,323.51624 C 427.05788,323.51629 432.75905,324.65789 437.18878,326.94104 C 441.61841,329.2243 445.02954,332.39617 447.42218,336.45667 C 449.81469,340.51725 451.01098,345.50065 451.01105,351.40686 C 451.01098,357.80532 449.69848,363.33559 447.07355,367.99768 C 444.44849,372.6598 440.75025,376.26917 435.97882,378.82581 C 431.20729,381.38245 425.48562,382.66077 418.81378,382.66077 L 418.81378,382.66077 z M 420.37238,378.19006 C 425.86843,378.19007 430.25026,376.1598 433.51788,372.09924 C 436.78541,368.03871 438.4192,361.86586 438.41925,353.58069 C 438.4192,344.88541 436.54615,338.21354 432.80011,333.56506 C 429.76491,329.81902 425.08913,327.94598 418.77277,327.94592 C 412.86649,327.94598 408.29325,329.90105 405.05304,333.81116 C 401.81279,337.72136 400.19267,343.73698 400.19269,351.85803 C 400.19267,357.70962 401.08134,362.66567 402.8587,366.7262 C 404.63603,370.78675 406.89872,373.71253 409.64679,375.50354 C 412.39481,377.29456 415.97,378.19007 420.37238,378.19006 L 420.37238,378.19006 z M 460.23956,364.49084 L 463.84894,364.49084 C 463.87627,368.53773 464.00615,370.9098 464.23859,371.60706 C 464.471,372.30433 465.25713,373.22035 466.59698,374.3551 C 467.93682,375.48987 469.67314,376.41272 471.80597,377.12366 C 473.93876,377.8346 476.12626,378.19007 478.36847,378.19006 C 482.22391,378.19007 485.30691,377.16468 487.61749,375.11389 C 489.928,373.06312 491.08328,370.50648 491.08331,367.44397 C 491.08328,364.62758 490.31765,362.46743 488.78644,360.9635 C 487.22781,359.45962 484.27469,358.39321 479.92706,357.76428 C 473.47392,356.83462 469.11943,355.8229 466.86359,354.72913 C 464.60772,353.6354 462.83037,351.99478 461.53156,349.80725 C 460.23272,347.61978 459.58331,344.99479 459.58331,341.93225 C 459.58331,336.79167 461.39483,332.43718 465.01788,328.86877 C 468.64092,325.30047 474.43095,323.51629 482.388,323.51624 C 485.50516,323.51629 488.27371,323.74872 490.69366,324.2135 C 493.11355,324.6784 495.5403,325.44403 497.97394,326.51038 L 498.38409,327.49475 C 497.94655,329.21746 497.63893,330.77605 497.46124,332.17053 C 497.28347,333.56511 497.12624,335.97136 496.98956,339.38928 L 493.4212,339.38928 C 493.28445,335.17839 493.07937,332.81316 492.80597,332.29358 C 492.2864,331.39129 490.96707,330.44109 488.84796,329.44299 C 486.72879,328.445 484.30203,327.94598 481.56769,327.94592 C 477.82157,327.94598 474.9163,328.85516 472.85187,330.67346 C 470.7874,332.49187 469.75517,334.83659 469.75519,337.70764 C 469.75517,339.45768 470.179,340.9821 471.02667,342.28088 C 471.87431,343.57975 473.05693,344.53678 474.57452,345.15198 C 476.09208,345.76725 479.35282,346.47135 484.35675,347.26428 C 488.89578,347.94791 491.97195,348.61783 493.58527,349.27405 C 496.23757,350.34049 498.24733,351.96744 499.61456,354.15491 C 500.9817,356.34243 501.6653,359.10415 501.66534,362.44006 C 501.6653,368.23695 499.45046,373.05628 495.02081,376.89807 C 490.59109,380.73987 484.53445,382.66077 476.85089,382.66077 C 473.4329,382.66077 470.32939,382.33264 467.54034,381.67639 C 464.75127,381.02014 461.86651,379.94007 458.88605,378.43616 C 459.37823,376.5221 459.70635,374.78577 459.87042,373.22717 C 460.08917,371.06703 460.21221,368.15492 460.23956,364.49084 L 460.23956,364.49084 z "
     id="text4996" />
  <g
     id="g2235">
    <path
       sodipodi:nodetypes="ccccccccc"
       id="path3442"
       d="M 304.83662,308.56049 C 303.30885,305.505 304.83662,209.12027 304.83662,209.12027 L 339.97486,209.12027 L 339.97486,142.66318 L 358.30784,142.66318 L 358.30784,209.12027 L 414.83456,209.12027 L 414.83456,308.56049 L 304.83662,308.56049 z "
       style="fill:#0071bc;fill-opacity:1;fill-rule:evenodd;stroke:#000000;stroke-width:1;stroke-linecap:butt;stroke-linejoin:miter;stroke-miterlimit:4;stroke-dasharray:none;stroke-opacity:1" />
    <path
       sodipodi:nodetypes="ccccccccccccccccccccccc"
       id="path3440"
       d="M 120.74282,308.56049 L 120.74282,219.18716 L 149.00617,219.18716 L 149.00617,248.2144 L 156.70612,248.2144 L 183.67886,219.18716 L 183.67886,248.2144 L 192.54704,248.2144 L 217.37295,219.18716 L 217.37295,248.2144 L 225.39364,248.2144 L 252.06099,219.18716 L 252.06099,248.2144 L 257.02618,248.2144 L 283.31162,219.18716 L 283.31162,248.2144 L 297.96173,248.2144 L 297.96173,190.92379 L 312.47535,190.92379 L 312.47535,248.2144 L 346.84972,248.2144 L 346.84972,308.56049 L 120.74282,308.56049 z "
       style="fill:#008f4c;fill-opacity:1;fill-rule:evenodd;stroke:#000000;stroke-width:1;stroke-linecap:butt;stroke-linejoin:miter;stroke-miterlimit:4;stroke-dasharray:none;stroke-opacity:1" />
    <g
       transform="translate(0,-18)"
       id="g2217">
      <path
         style="fill:#0071bc;fill-opacity:1;fill-rule:evenodd;stroke:#000000;stroke-width:1;stroke-linecap:butt;stroke-linejoin:miter;stroke-miterlimit:4;stroke-dasharray:none;stroke-opacity:1"
         d="M 255.17939,127.86191 C 220.90372,130.4253 179.70759,133.84703 254.66881,139.09426 L 255.17939,127.86191 z "
         id="path3529"
         sodipodi:nodetypes="ccc" />
      <path
         sodipodi:nodetypes="ccc"
         id="path3531"
         d="M 265.2688,127.86191 C 299.54447,130.4253 340.74059,133.84703 265.77937,139.09426 L 265.2688,127.86191 z "
         style="fill:#0071bc;fill-opacity:1;fill-rule:evenodd;stroke:#000000;stroke-width:1;stroke-linecap:butt;stroke-linejoin:miter;stroke-miterlimit:4;stroke-dasharray:none;stroke-opacity:1" />
      <path
         style="fill:#0071bc;fill-opacity:1;fill-rule:evenodd;stroke:#000000;stroke-width:1;stroke-linecap:butt;stroke-linejoin:miter;stroke-miterlimit:4;stroke-dasharray:none;stroke-opacity:1"
         d="M 252.16147,155.68751 L 268.24414,155.68751 C 269.22922,111.65483 252.80096,98.57224 252.16147,155.68751 z "
         id="path3525"
         sodipodi:nodetypes="ccc" />
      <path
         sodipodi:nodetypes="ccc"
         id="path3527"
         d="M 255.39071,133.12611 C 258.96078,139.54009 262.14228,138.95989 265.03193,133.12611 C 265.62244,106.72947 255.77407,98.886745 255.39071,133.12611 z "
         style="fill:#0071bc;fill-opacity:1;fill-rule:evenodd;stroke:#000000;stroke-width:1;stroke-linecap:butt;stroke-linejoin:miter;stroke-miterlimit:4;stroke-dasharray:none;stroke-opacity:1" />
      <path
         style="fill:#0071bc;fill-opacity:1;fill-rule:evenodd;stroke:#000000;stroke-width:1;stroke-linecap:butt;stroke-linejoin:miter;stroke-miterlimit:4;stroke-dasharray:none;stroke-opacity:1"
         d="M 235.49033,168.6203 C 85.764614,171.48141 29.63894,169.69655 21.604628,180.82574 L 230.25943,180.82574 L 235.49033,168.6203 z "
         id="path3464" />
      <path
         sodipodi:type="arc"
         style="fill:#003380;fill-opacity:1;stroke:#000000;stroke-width:0.48390332;stroke-linecap:round;stroke-linejoin:round;stroke-miterlimit:4;stroke-dasharray:none;stroke-opacity:1"
         id="path3466"
         sodipodi:cx="686.42426"
         sodipodi:cy="207.92845"
         sodipodi:rx="4.435698"
         sodipodi:ry="3.6964149"
         d="M 690.85995 207.92845 A 4.435698 3.6964149 0 1 1  681.98856,207.92845 A 4.435698 3.6964149 0 1 1  690.85995 207.92845 z"
         transform="matrix(2.0665285,0,0,2.0665285,-1341.3133,-236.92484)" />
      <path
         transform="matrix(2.0665285,0,0,2.0665285,-1308.2489,-236.92484)"
         d="M 690.85995 207.92845 A 4.435698 3.6964149 0 1 1  681.98856,207.92845 A 4.435698 3.6964149 0 1 1  690.85995 207.92845 z"
         sodipodi:ry="3.6964149"
         sodipodi:rx="4.435698"
         sodipodi:cy="207.92845"
         sodipodi:cx="686.42426"
         id="path3468"
         style="fill:#003380;fill-opacity:1;stroke:#000000;stroke-width:0.48390332;stroke-linecap:round;stroke-linejoin:round;stroke-miterlimit:4;stroke-dasharray:none;stroke-opacity:1"
         sodipodi:type="arc" />
      <path
         style="fill:#003380;fill-rule:evenodd;stroke:#000000;stroke-width:1;stroke-linecap:butt;stroke-linejoin:miter;stroke-miterlimit:4;stroke-dasharray:none;stroke-opacity:1"
         d="M 230.25943,180.82574 L 21.604628,180.82574 C 20.962248,181.71558 20.49141,182.66712 20.442206,183.73179 C 19.778189,198.09731 113.2002,189.87845 224.05984,195.35602 L 230.25943,180.82574 z "
         id="path3486" />
      <path
         style="fill:#0071bc;fill-opacity:1;fill-rule:evenodd;stroke:#000000;stroke-width:1;stroke-linecap:butt;stroke-linejoin:miter;stroke-miterlimit:4;stroke-dasharray:none;stroke-opacity:1"
         d="M 284.95785,168.6203 L 290.18875,180.82574 L 498.84355,180.82574 C 490.79285,169.70341 434.65581,171.4809 284.95785,168.6203 z "
         id="path3456" />
      <g
         id="g3474"
         transform="matrix(2.0665285,0,0,2.0665285,-1005.008,-232.02791)"
         style="fill:#000080;stroke-width:0.48390332;stroke-miterlimit:4;stroke-dasharray:none">
        <path
           sodipodi:type="arc"
           style="opacity:1;fill:#003380;fill-opacity:1;stroke:#000000;stroke-width:0.48390332;stroke-linecap:round;stroke-linejoin:round;stroke-miterlimit:4;stroke-dasharray:none;stroke-opacity:1"
           id="path3470"
           sodipodi:cx="686.42426"
           sodipodi:cy="207.92845"
           sodipodi:rx="4.435698"
           sodipodi:ry="3.6964149"
           d="M 690.85995 207.92845 A 4.435698 3.6964149 0 1 1  681.98856,207.92845 A 4.435698 3.6964149 0 1 1  690.85995 207.92845 z"
           transform="translate(-0.739283,-2.3696415)" />
        <path
           transform="translate(15.260717,-2.3696415)"
           d="M 690.85995 207.92845 A 4.435698 3.6964149 0 1 1  681.98856,207.92845 A 4.435698 3.6964149 0 1 1  690.85995 207.92845 z"
           sodipodi:ry="3.6964149"
           sodipodi:rx="4.435698"
           sodipodi:cy="207.92845"
           sodipodi:cx="686.42426"
           id="path3472"
           style="opacity:1;fill:#003380;fill-opacity:1;stroke:#000000;stroke-width:0.48390332;stroke-linecap:round;stroke-linejoin:round;stroke-miterlimit:4;stroke-dasharray:none;stroke-opacity:1"
           sodipodi:type="arc" />
      </g>
      <path
         style="fill:#003380;fill-opacity:1;fill-rule:evenodd;stroke:#000000;stroke-width:1;stroke-linecap:butt;stroke-linejoin:miter;stroke-miterlimit:4;stroke-dasharray:none;stroke-opacity:1"
         d="M 498.84355,180.82574 L 290.18875,180.82574 L 296.45292,195.35602 C 407.31258,189.87845 500.66999,198.09731 500.00598,183.73179 C 499.95665,182.66466 499.48887,181.71726 498.84355,180.82574 z "
         id="path3483" />
      <path
         style="fill:#003380;fill-opacity:1;stroke:#000000;stroke-width:1;stroke-linecap:round;stroke-linejoin:round;stroke-miterlimit:4;stroke-dasharray:none;stroke-opacity:1"
         d="M 221.735,180.82574 C 221.55252,182.35408 221.28294,183.83363 221.28294,185.41085 C 221.28294,206.91545 238.71951,224.41657 260.22409,224.41657 C 281.7287,224.41657 299.1652,206.91545 299.16524,185.41085 C 299.16524,183.83363 298.89566,182.35408 298.71318,180.82574 L 274.62521,180.82574 C 275.09524,182.28727 275.40016,183.79375 275.40016,185.41085 C 275.4002,193.77099 268.58423,200.58692 260.22409,200.58692 C 251.86397,200.58692 245.1126,193.77099 245.1126,185.41085 C 245.1126,183.79375 245.35294,182.28727 245.82297,180.82574 L 221.735,180.82574 z "
         id="path3495" />
      <path
         style="fill:#0071bc;fill-opacity:1;stroke:#000000;stroke-width:1;stroke-linecap:round;stroke-linejoin:round;stroke-miterlimit:4;stroke-dasharray:none;stroke-opacity:1"
         d="M 260.22409,146.4697 C 240.2967,146.4697 224.0405,161.51587 221.735,180.82574 L 241.36702,180.82574 C 241.00399,182.30959 240.78581,183.81565 240.78581,185.41085 C 240.78581,196.13937 249.49554,204.84915 260.22409,204.84913 C 270.95262,204.84913 279.66242,196.13935 279.66237,185.41085 C 279.66237,183.81363 278.41923,181.99566 278.05532,180.5101 L 298.41147,180.27335 C 296.10593,160.96348 280.1515,146.4697 260.22409,146.4697 z "
         id="path3448"
         sodipodi:nodetypes="cccsssccc" />
      <path
         style="fill:#003380;fill-opacity:1;stroke:#000000;stroke-width:1;stroke-linecap:round;stroke-linejoin:round;stroke-miterlimit:4;stroke-dasharray:none;stroke-opacity:1"
         d="M 260.22409,160.6125 C 246.52402,160.6125 235.42577,171.71075 235.42575,185.41085 C 235.42575,199.11092 246.52398,210.27379 260.22409,210.27377 C 273.92416,210.27377 285.0225,199.11092 285.02243,185.41085 C 285.02243,183.72049 284.89288,182.09857 284.57038,180.50284 L 274.49605,180.50284 C 275.03527,182.05731 275.40016,183.6736 275.40016,185.41085 C 275.4002,193.77099 268.58423,200.58692 260.22409,200.58692 C 251.86397,200.58692 245.1126,193.77099 245.1126,185.41085 C 245.1126,177.05071 251.86395,170.29936 260.22409,170.29936 C 261.56527,170.29936 262.86024,170.48826 264.09883,170.81599 L 264.09883,160.9354 C 262.83753,160.73761 261.54064,160.6125 260.22409,160.6125 z "
         id="path3450" />
    </g>
  </g>
</svg>
