<?xml version="1.0" encoding="UTF-8" standalone="no"?>
<!-- Created with Inkscape (http://www.inkscape.org/) -->
<svg
   xmlns:svg="http://www.w3.org/2000/svg"
   xmlns="http://www.w3.org/2000/svg"
   version="1.0"
   width="600"
   height="800"
   id="svg2">
  <defs
     id="defs4" />
  <g
     id="g3433">
    <path
       d="M 59.206896,198.05492 C 59.403122,314.09411 58.812043,430.18005 59.507206,546.21107 C 63.203935,650.34495 142.90039,745.43197 244.67864,767.42372 C 338.8367,790.36323 444.27378,749.13655 497.41992,667.83899 C 529.24897,622.37205 540.97673,566.11568 538.35224,511.3444 C 538.35216,406.92041 538.35224,302.47873 538.35224,198.05492 C 378.64681,198.05491 218.91225,198.05492 59.206896,198.05492 z"
       id="path4443"
       style="fill:#d42e12;fill-opacity:1;fill-rule:evenodd;stroke:#000000;stroke-width:1;stroke-linecap:butt;stroke-linejoin:miter;marker:none;stroke-miterlimit:4;stroke-dasharray:none;stroke-dashoffset:0;stroke-opacity:1;visibility:visible;display:inline;overflow:visible" />
    <path
       d="M 190.94303,689.66083 L 205.41404,697.59452 L 199.12458,722.31414 L 216.55867,703.70453 L 230.98112,711.61159 L 211.46636,747.20641 L 202.48269,742.28113 L 217.36501,715.13584 L 195.51426,738.46071 L 187.38038,734.00133 L 195.31857,703.04894 L 180.43624,730.19423 L 171.42828,725.25564 L 190.94303,689.66083 z M 263.07545,754.01897 L 249.07571,751.16362 L 245.81026,757.3365 L 233.24848,754.77444 L 256.31008,718.04901 L 269.71294,720.78262 L 276.54999,763.60609 L 263.68977,760.98316 L 263.07545,754.01897 z M 262.25213,744.89266 L 260.77309,729.69803 L 253.48873,743.1053 L 262.25213,744.89266 z M 298.89662,723.3824 L 311.4623,723.01059 L 312.66294,763.58612 L 300.09725,763.95794 L 298.89662,723.3824 z M 330.46742,721.42434 L 350.67995,716.30626 C 355.08213,715.19162 358.64437,715.40359 361.36671,716.94219 C 364.08899,718.48088 365.93952,721.18288 366.9183,725.04818 C 367.92422,729.02093 367.51589,732.42819 365.69333,735.26997 C 363.87072,738.11181 360.5078,740.1535 355.60457,741.39505 L 348.94758,743.08068 L 352.6451,757.68309 L 340.43169,760.7757 L 330.46742,721.42434 z M 346.9289,735.10841 L 349.90843,734.35395 C 352.25268,733.76038 353.79594,732.93639 354.53823,731.88199 C 355.28048,730.82763 355.49074,729.66516 355.16904,728.39458 C 354.85638,727.15985 354.17971,726.2172 353.13904,725.56664 C 352.09835,724.91615 350.44168,724.87862 348.16901,725.45406 L 344.7063,726.33085 L 346.9289,735.10841 z M 400.74103,694.61332 L 411.635,688.45162 L 423.54946,709.51651 C 424.73088,711.60536 425.52107,713.76172 425.92002,715.98558 C 426.31892,718.20951 426.21651,720.40944 425.61279,722.5854 C 425.00901,724.76141 424.10296,726.56227 422.89463,727.98799 C 421.21897,729.97495 418.89488,731.80907 415.92236,733.49035 C 414.20309,734.46278 412.25901,735.40331 410.09013,736.31192 C 407.92121,737.22055 405.95168,737.7036 404.1815,737.76106 C 402.41132,737.81853 400.58722,737.50884 398.70923,736.83198 C 396.83122,736.15514 395.288,735.23591 394.07958,734.0743 C 392.1324,732.20651 390.66806,730.40495 389.68655,728.66962 L 377.77209,707.60472 L 388.66607,701.44301 L 400.8668,723.01404 C 401.95736,724.9422 403.34362,726.14638 405.02558,726.62658 C 406.70752,727.10681 408.4965,726.81073 410.39252,725.73832 C 412.27244,724.67504 413.44448,723.30695 413.90865,721.63407 C 414.37278,719.96122 414.05048,718.14466 412.94176,716.18436 L 400.74103,694.61332 z M 389.14759,688.79574 L 397.58319,684.0245 L 393.87434,695.63408 L 389.1745,698.29234 L 389.14759,688.79574 z"
       id="path6287"
       style="font-size:56px;font-style:normal;font-variant:normal;font-weight:900;font-stretch:normal;text-align:start;line-height:100%;writing-mode:lr-tb;text-anchor:start;fill:#000000;fill-opacity:1;stroke:#000000;stroke-width:1px;stroke-linecap:butt;stroke-linejoin:miter;stroke-opacity:1;font-family:Arial Black;-inkscape-font-specification:Arial Black Heavy" />
    <path
       d="M 188.91771,687.63552 L 203.38873,695.56921 L 197.09926,720.28883 L 214.53335,701.67921 L 228.9558,709.58628 L 209.44105,745.1811 L 200.45737,740.25582 L 215.33969,713.11053 L 193.48895,736.4354 L 185.35507,731.97602 L 193.29325,701.02363 L 178.41092,728.16892 L 169.40297,723.23032 L 188.91771,687.63552 z M 261.05014,751.99365 L 247.0504,749.13831 L 243.78495,755.31119 L 231.22316,752.74913 L 254.28477,716.0237 L 267.68763,718.75731 L 274.52468,761.58078 L 261.66446,758.95785 L 261.05014,751.99365 z M 260.22682,742.86735 L 258.74777,727.67272 L 251.46342,741.07999 L 260.22682,742.86735 z M 296.8713,721.35709 L 309.43699,720.98527 L 310.63762,761.56081 L 298.07194,761.93263 L 296.8713,721.35709 z M 328.4421,719.39903 L 348.65463,714.28095 C 353.05681,713.16631 356.61906,713.37827 359.34139,714.91688 C 362.06368,716.45557 363.91421,719.15757 364.89299,723.02287 C 365.8989,726.99561 365.49058,730.40288 363.66802,733.24466 C 361.84541,736.0865 358.48249,738.12818 353.57925,739.36973 L 346.92227,741.05537 L 350.61978,755.65778 L 338.40637,758.75038 L 328.4421,719.39903 z M 344.90359,733.0831 L 347.88312,732.32864 C 350.22737,731.73507 351.77063,730.91108 352.51292,729.85667 C 353.25516,728.80231 353.46543,727.63984 353.14373,726.36926 C 352.83106,725.13453 352.15439,724.19189 351.11373,723.54133 C 350.07304,722.89084 348.41636,722.85331 346.1437,723.42874 L 342.68099,724.30554 L 344.90359,733.0831 z M 398.71572,692.58801 L 409.60969,686.4263 L 421.52415,707.49119 C 422.70557,709.58004 423.49575,711.7364 423.89471,713.96027 C 424.2936,716.18419 424.19119,718.38413 423.58748,720.56009 C 422.98369,722.73609 422.07765,724.53695 420.86932,725.96267 C 419.19365,727.94964 416.86956,729.78376 413.89704,731.46503 C 412.17777,732.43747 410.2337,733.37799 408.06482,734.28661 C 405.8959,735.19524 403.92636,735.67828 402.15619,735.73574 C 400.386,735.79322 398.5619,735.48353 396.68391,734.80667 C 394.80591,734.12983 393.26269,733.2106 392.05427,732.04898 C 390.10709,730.1812 388.64275,728.37964 387.66124,726.6443 L 375.74678,705.57941 L 386.64076,699.4177 L 398.84149,720.98872 C 399.93205,722.91688 401.31831,724.12106 403.00027,724.60127 C 404.68221,725.0815 406.47119,724.78542 408.36721,723.713 C 410.24712,722.64973 411.41916,721.28164 411.88333,719.60876 C 412.34746,717.93591 412.02517,716.11934 410.91645,714.15904 L 398.71572,692.58801 z M 387.12227,686.77042 L 395.55788,681.99919 L 391.84902,693.60876 L 387.14919,696.26703 L 387.12227,686.77042 z"
       id="text6207"
       style="font-size:56px;font-style:normal;font-variant:normal;font-weight:900;font-stretch:normal;text-align:start;line-height:100%;writing-mode:lr-tb;text-anchor:start;fill:#e3e4e5;fill-opacity:1;stroke:none;stroke-width:0.98750144px;stroke-linecap:butt;stroke-linejoin:miter;stroke-opacity:1;font-family:Arial Black;-inkscape-font-specification:Arial Black Heavy" />
    <path
       d="M 106.29293,575.49082 C 108.10001,574.95253 109.2727,575.58689 109.81101,577.39395 L 112.56659,586.64412 C 113.08985,588.40065 112.44795,589.54807 110.64087,590.08638 L 86.416031,597.30282 C 84.596355,597.8449 83.424874,597.23768 82.901586,595.48117 L 80.146011,586.23099 C 79.60773,584.42393 80.248424,583.24935 82.068097,582.70726 L 89.005726,580.64058 L 90.3214,585.05716 L 84.464221,586.80198 L 86.175162,592.54543 L 108.22015,585.97835 L 106.5092,580.23491 L 100.27292,582.09266 L 98.957244,577.67609 L 106.29293,575.49082 z M 102.44388,556.41604 C 104.29619,556.06358 105.39981,556.81996 105.75475,558.68522 L 107.5923,568.34183 C 107.9423,570.18118 107.19116,571.2771 105.33885,571.62957 L 77.709668,576.88711 L 76.844503,572.34053 L 103.34676,567.29744 L 102.18211,561.17705 L 75.67986,566.22014 L 74.814697,561.67357 L 102.44388,556.41604 z M 103.43324,536.53958 L 103.75828,540.58111 L 84.933793,549.53594 C 85.864267,549.26269 86.598929,549.10439 87.137781,549.06105 L 104.32908,547.67844 L 104.69059,552.17341 L 73.836937,554.65482 L 73.511895,550.61329 L 91.942087,541.69016 C 91.011646,541.96344 90.276984,542.12173 89.738098,542.16506 L 72.941092,543.51596 L 72.579583,539.02099 L 103.43324,536.53958 z M 103.46983,517.14689 L 103.49376,521.73543 L 97.624491,522.69564 L 97.654719,528.49065 L 103.53369,529.38958 L 103.55752,533.95835 L 103.47841,533.95875 L 72.533846,528.12721 L 72.508467,523.26178 L 103.46983,517.14689 z M 93.652481,523.36905 L 79.700844,525.69661 L 93.676106,527.89826 L 93.652481,523.36905 z M 97.536539,490.7628 C 99.35615,490.75658 100.78534,491.29231 101.8241,492.36996 C 102.86287,493.44765 103.38539,494.90288 103.39167,496.73565 L 103.42397,506.16993 L 72.470873,506.2759 L 72.43857,496.84164 C 72.432325,495.00886 72.951462,493.55007 73.995982,492.46524 C 75.04056,491.38045 76.472637,490.83494 78.292217,490.82869 L 97.536539,490.7628 z M 96.781098,495.41335 L 79.000373,495.47423 C 77.273091,495.48016 76.41253,496.38633 76.418688,498.19274 L 76.430472,501.63417 L 99.432678,501.5554 L 99.421301,498.23264 C 99.414849,496.34712 98.534783,495.40736 96.781098,495.41335 L 96.781098,495.41335 z M 103.33068,474.34655 L 103.36184,487.18273 L 72.408655,487.25788 L 72.377777,474.54037 L 76.471903,474.53044 L 76.491546,482.6198 L 85.530272,482.59785 L 85.513367,475.63586 L 89.528382,475.62611 L 89.545287,482.5881 L 99.256478,482.56452 L 99.236548,474.35649 L 103.33068,474.34655 z M 103.2949,450.65199 L 103.3105,462.81573 L 72.357242,462.85541 L 72.35131,458.22725 L 99.17087,458.19287 L 99.161211,450.65729 L 103.2949,450.65199 z M 103.28238,432.1789 L 103.28527,436.76751 L 97.411652,437.70079 L 97.415298,443.49588 L 103.29008,444.42177 L 103.29296,448.99059 L 103.21384,448.99064 L 72.296356,443.01722 L 72.293296,438.15172 L 103.28238,432.1789 z M 93.436594,438.35598 L 79.474428,440.61951 L 93.439444,442.88525 L 93.436594,438.35598 z M 89.181759,406.24688 C 91.106874,406.24723 92.069259,407.19018 92.068917,409.07571 L 92.067602,416.57174 L 103.28199,416.57371 L 103.28117,421.20187 L 72.327894,421.19644 L 72.330022,409.07224 C 72.330383,407.18672 73.279913,406.24411 75.178614,406.24442 L 89.181759,406.24688 z M 88.093126,410.91441 L 76.305167,410.91233 L 76.304175,416.56897 L 88.092133,416.57104 L 88.093126,410.91441 z M 103.29406,387.24226 L 103.29153,391.83086 L 97.416813,392.75721 L 97.413616,398.5523 L 103.2873,399.48513 L 103.28478,404.05394 L 103.20567,404.0539 L 72.295257,398.04398 L 72.297942,393.17847 L 103.29406,387.24226 z M 93.440984,393.40771 L 79.476154,395.65474 L 93.438485,397.93697 L 93.440984,393.40771 z M 76.44761,371.18104 L 76.44365,376.28387 L 103.30278,376.30471 L 103.29921,380.91309 L 76.440074,380.89225 L 76.436114,385.99509 L 72.341975,385.99191 L 72.353472,371.17786 L 76.44761,371.18104 z M 103.32281,352.98595 L 103.3186,357.8119 L 88.935207,362.90217 C 88.935222,362.90218 88.005636,362.90137 86.146447,362.89974 L 86.150421,358.35069 L 76.340312,358.34213 L 76.335215,364.17676 L 103.31301,364.20034 L 103.30897,368.82849 L 72.355704,368.80144 L 72.366434,356.51903 C 72.368089,354.65987 73.318266,353.73112 75.216966,353.73276 L 86.470902,353.74259 C 87.776296,353.74375 88.619789,354.1862 89.001386,355.06996 C 89.19877,355.54484 89.296786,356.54702 89.295436,358.07655 L 103.32281,352.98595 z M 103.32947,345.4503 L 103.32546,350.07845 L 72.372194,350.05161 L 72.376208,345.42345 L 103.32947,345.4503 z M 103.34514,325.92891 L 103.34159,330.51751 L 97.466668,331.44254 L 97.46218,337.23763 L 103.33566,338.17177 L 103.33212,342.74059 L 103.253,342.74053 L 72.343935,336.72371 L 72.347703,331.85822 L 103.34514,325.92891 z M 93.490695,332.09215 L 79.525364,334.33608 L 93.487186,336.62142 L 93.490695,332.09215 z"
       id="text6234"
       style="font-size:40px;font-style:normal;font-variant:normal;font-weight:bold;font-stretch:normal;text-align:start;line-height:125%;writing-mode:lr-tb;text-anchor:start;fill:#000000;fill-opacity:1;stroke:none;stroke-width:1px;stroke-linecap:butt;stroke-linejoin:miter;stroke-opacity:1;font-family:Agency FB;-inkscape-font-specification:Agency FB Bold" />
    <path
       d="M 495.74429,347.22563 C 493.85874,347.22562 492.91597,346.28944 492.91597,344.41708 L 492.91597,335.141 C 492.91597,333.30819 493.85874,332.39178 495.74429,332.39179 L 502.88431,332.39179 L 502.88431,336.94083 L 496.89144,336.94083 L 496.89144,342.67659 L 508.79806,342.67659 L 508.79807,332.39179 L 523.86925,332.88625 L 523.86924,347.00808 L 519.81466,347.00808 L 519.81466,337.17818 L 512.77354,336.8815 L 512.77353,344.41709 C 512.77351,346.28944 511.83733,347.22562 509.96499,347.22564 L 495.74429,347.22563 z M 498.75061,374.6788 C 496.93099,374.67878 495.50364,374.13818 494.46857,373.05697 C 493.4335,371.97573 492.91597,370.51872 492.91597,368.68593 L 492.91597,359.2516 L 523.86925,359.25161 L 523.86924,368.68594 C 523.86921,370.51873 523.34509,371.97574 522.29686,373.05697 C 521.24857,374.13819 519.81463,374.67879 517.99504,374.67881 L 498.75061,374.6788 z M 499.52197,370.03087 L 517.3028,370.03087 C 519.03009,370.03086 519.89375,369.12764 519.89377,367.32122 L 519.89378,363.87977 L 496.89144,363.87977 L 496.89144,367.20255 C 496.89144,369.08808 497.76828,370.03085 499.52197,370.03087 L 499.52197,370.03087 z M 492.91597,391.07563 L 492.91597,378.23942 L 523.86925,378.23943 L 523.86925,390.95697 L 519.77511,390.95697 L 519.77511,382.86758 L 510.73636,382.86758 L 510.73636,389.8296 L 506.72133,389.8296 L 506.72133,382.86758 L 497.01011,382.86757 L 497.01011,391.07563 L 492.91597,391.07563 z M 492.91597,418.29146 L 492.91597,413.70286 L 498.79017,412.77328 L 498.79017,406.97819 L 492.91597,406.0486 L 492.91597,401.47978 L 492.99509,401.47978 L 523.90881,407.47265 L 523.90881,412.33815 L 492.91597,418.29146 z M 502.76564,412.12058 L 516.72923,409.86584 L 502.76564,407.59132 L 502.76564,412.12058 z M 495.74429,436.07266 C 493.85874,436.07265 492.91597,435.12988 492.91597,433.24435 L 492.91597,420.88281 L 523.86925,420.88281 L 523.86925,433.16523 C 523.86922,434.99802 522.91986,435.91442 521.02115,435.91443 L 513.05044,435.91443 C 511.99557,435.91442 511.17806,435.58478 510.59791,434.92551 C 510.51878,434.8332 510.01113,434.02888 509.07496,432.51254 C 508.1124,434.08162 507.58498,434.91231 507.49269,435.00463 C 506.87295,435.71663 506.02248,436.07265 504.94127,436.07266 L 495.74429,436.07266 z M 512.47686,431.30605 L 519.97289,431.30605 L 519.97289,425.51096 L 510.89459,425.51097 L 510.89459,429.07109 L 512.47686,431.30605 z M 496.81233,431.42473 L 505.63352,431.42473 L 507.13668,429.15021 L 507.13668,425.51097 L 496.81233,425.51097 L 496.81233,431.42473 z M 492.91598,455.55463 L 492.91597,450.72868 L 507.29491,445.62584 C 507.29489,445.62583 508.22448,445.62583 510.08367,445.62584 L 510.08367,450.17489 L 519.89378,450.17488 L 519.89378,444.34023 L 492.91597,444.34024 L 492.91597,439.71209 L 523.86925,439.71208 L 523.86925,451.9945 C 523.86922,453.85366 522.91986,454.78325 521.02115,454.78326 L 509.76722,454.78327 C 508.46182,454.78325 507.61794,454.34153 507.23557,453.4581 C 507.03777,452.98341 506.93889,451.98131 506.9389,450.45178 L 492.91598,455.55463 z M 492.91597,463.09021 L 492.91597,458.46206 L 523.86925,458.46205 L 523.86925,463.09021 L 492.91597,463.09021 z M 492.91598,479.0908 L 492.91597,466.92705 L 523.86925,466.92704 L 523.86925,471.55519 L 497.04967,471.5552 L 497.04967,479.0908 L 492.91598,479.0908 z M 498.75745,505.68697 C 496.93783,505.68854 495.51001,505.14918 494.47399,504.06888 C 493.43797,502.98855 492.91917,501.53199 492.91757,499.6992 L 492.90932,490.26489 L 523.86258,490.23782 L 523.87083,499.67214 C 523.8724,501.50492 523.34955,502.96239 522.30227,504.04454 C 521.25493,505.12667 519.82146,505.66853 518.00188,505.67014 L 498.75745,505.68697 z M 499.52474,501.03836 L 517.30556,501.02281 C 519.03285,501.02129 519.89573,500.11732 519.89417,498.3109 L 519.89116,494.86945 L 496.88882,494.88956 L 496.89173,498.21234 C 496.89338,500.09788 497.77105,501.03988 499.52474,501.03836 L 499.52474,501.03836 z M 493.28427,522.08259 L 493.08623,509.2479 L 524.03582,508.77032 L 524.23204,521.48635 L 520.13839,521.54952 L 520.01357,513.4611 L 510.9759,513.60055 L 511.08331,520.56175 L 507.06877,520.62369 L 506.96135,513.66251 L 497.25128,513.81234 L 497.37793,522.01942 L 493.28427,522.08259 z M 492.43151,539.1913 L 492.74762,534.65325 L 514.53025,536.17058 L 514.65394,534.39482 L 515.2656,534.43742 L 523.58347,537.41582 L 523.30997,541.34221 L 492.43151,539.1913 z M 493.0185,558.59324 C 491.14892,558.3484 490.33483,557.30427 490.57623,555.46085 L 491.84487,545.773 C 492.08286,543.95572 493.13663,543.16948 495.00621,543.41431 L 503.92923,544.5828 C 505.06666,544.73175 505.88642,545.22474 506.38855,546.06179 C 506.79336,547.03238 507.19733,548.00951 507.60046,548.99317 C 508.22504,548.18398 508.84964,547.37479 509.47424,546.56561 C 510.20621,545.85027 511.1017,545.56194 512.16072,545.70062 L 520.06396,546.73556 C 521.94659,546.98209 522.76636,548.03362 522.52328,549.89014 L 521.27261,559.4407 C 521.0346,561.25797 519.97429,562.04335 518.09166,561.79683 L 510.18842,560.76188 C 509.11633,560.62148 508.32442,560.11883 507.81269,559.25394 C 507.41749,558.31119 507.02231,557.36846 506.62715,556.42575 C 505.98605,557.25936 505.34409,558.09952 504.7013,558.94623 C 503.99887,559.63883 503.07894,559.91065 501.94152,559.76172 L 493.0185,558.59324 z M 510.29138,556.16754 L 517.6455,557.13058 L 518.42364,551.18844 L 511.06951,550.2254 L 508.91674,552.95553 L 510.29138,556.16754 z M 494.67586,554.16255 L 503.18705,555.27711 L 505.30831,552.483 L 503.98059,549.2173 L 495.46941,548.10274 L 494.67586,554.16255 z M 488.39469,567.36802 L 489.26997,562.90398 L 510.69738,567.10532 L 511.03988,565.35852 L 511.64156,565.47649 L 519.52691,569.46136 L 518.7696,573.32373 L 488.39469,567.36802 z M 486.47858,586.68797 C 484.65683,586.20165 483.9857,585.06037 484.46521,583.26411 L 486.98514,573.8241 C 487.45784,572.0533 488.60507,571.41105 490.42682,571.89736 L 499.12156,574.21835 C 500.22989,574.51421 500.97845,575.1098 501.36724,576.00513 C 501.64215,577.02019 501.91539,578.04162 502.18693,579.06942 C 502.91161,578.34849 503.6363,577.62757 504.36101,576.90665 C 505.17993,576.29277 506.10536,576.12356 507.13727,576.39902 L 514.83833,578.45476 C 516.6728,578.94445 517.34859,580.09381 516.86572,581.90283 L 514.3815,591.20908 C 513.90877,592.97985 512.75517,593.6204 510.9207,593.13072 L 503.21964,591.07498 C 502.17498,590.7961 501.45531,590.19457 501.06061,589.27039 C 500.7916,588.28419 500.52261,587.29801 500.25363,586.31185 C 499.50938,587.05484 498.76345,587.8042 498.01583,588.55996 C 497.22916,589.15514 496.28165,589.30481 495.17332,589.00897 L 486.47858,586.68797 z M 503.92026,586.53321 L 511.08626,588.44611 L 512.63188,582.65599 L 505.46588,580.74308 L 502.97578,583.16949 L 503.92026,586.53321 z M 488.69904,582.51097 L 496.99249,584.72484 L 499.45968,582.2309 L 498.56872,578.82005 L 490.27527,576.60618 L 488.69904,582.51097 z"
       id="text6241"
       style="font-size:40px;font-style:normal;font-variant:normal;font-weight:bold;font-stretch:normal;text-align:start;line-height:125%;writing-mode:lr-tb;text-anchor:start;fill:#000000;fill-opacity:1;stroke:none;stroke-width:1px;stroke-linecap:butt;stroke-linejoin:miter;stroke-opacity:1;font-family:Agency FB;-inkscape-font-specification:Agency FB Bold" />
  </g>
  <g
     id="g3440">
    <path
       d="M 130.6888,283.91536 C 242.72181,283.91536 354.73125,283.91536 466.76428,283.91536 C 466.76428,352.64901 466.76426,421.38393 466.76428,490.1176 C 468.74391,530.46817 464.45637,572.90296 442.01748,607.61743 C 409.40347,661.98132 344.60326,693.69331 282.04935,687.11099 C 204.57202,680.61193 137.79653,613.47609 131.4483,536.00361 C 129.96533,452.00781 131.13952,367.94665 130.6888,283.91536 z"
       id="path4450"
       style="fill:#07006f;fill-opacity:1;fill-rule:evenodd;stroke:#000000;stroke-width:1;stroke-linecap:butt;stroke-linejoin:miter;marker:none;marker-start:none;marker-mid:none;marker-end:none;stroke-miterlimit:4;stroke-dasharray:none;stroke-dashoffset:0;stroke-opacity:1;visibility:visible;display:inline;overflow:visible;enable-background:accumulate" />
    <path
       d="M 317.1099,287.64953 L 317.1099,294.76977 L 309.70484,294.76977 L 309.70484,296.35941 L 317.1099,296.35941 L 317.1099,310.8457 L 292.83778,335.11782 L 292.83778,379.70636 L 283.43906,389.13673 L 268.6606,389.13673 C 262.79773,411.0271 266.19938,444.50456 251.06569,454.80119 L 233.47077,454.80119 L 205.30626,507.61757 L 188.43919,512.52263 C 184.37294,522.98308 162.99371,534.06799 130.97092,536.32006 C 132.44342,635.48842 229.38169,688.77981 323.37571,694.00971 C 354.60461,691.57648 385.52269,680.10895 410.4642,661.06672 L 410.4642,554.45295 L 398.85029,542.8074 L 398.85029,528.02894 L 380.55917,528.02894 L 380.55917,395.65571 L 360.84401,392.64938 L 360.84401,380.1494 L 351.35036,377.14307 L 351.35036,343.88363 L 318.57903,310.75076 L 318.57903,296.35941 L 325.74913,296.35941 L 325.74913,294.76977 L 318.57903,294.76977 L 318.57903,287.64953 L 317.1099,287.64953 z"
       id="path16731"
       style="fill:#a59997;fill-opacity:1;fill-rule:evenodd;stroke:#000000;stroke-width:0.5;stroke-linecap:butt;stroke-linejoin:miter;stroke-miterlimit:4;stroke-dasharray:none;stroke-opacity:1" />
    <path
       d="M 317.71116,310.24443 L 316.73015,311.1938 L 316.73015,311.22544 L 316.73015,326.32036 L 322.26812,331.85833 L 322.26812,358.72538 L 328.97697,365.43423 L 328.97697,338.59882 L 351.35036,361.00386 L 351.35036,343.88363 L 317.71116,310.24443 z M 318.43901,372.64941 L 292.83778,379.51649 L 292.83778,379.70636 L 291.31879,381.22535 L 284.79982,387.77597 L 284.79982,405.46582 L 288.50234,405.46582 L 288.50234,423.97845 L 295.43271,423.97845 L 295.43271,440.65564 L 301.00233,440.65564 L 301.00233,457.77587 L 307.48966,457.77587 L 307.48966,554.13649 L 319.95799,554.13649 L 319.95799,454.99106 L 311.63522,454.99106 L 311.63522,437.87084 L 307.01497,437.87084 L 307.01497,419.3582 L 300.05296,419.3582 L 300.05296,399.45317 L 295.9074,399.45317 L 295.9074,385.62407 L 318.43901,372.64941 z M 331.54026,374.4532 L 331.98329,540.46563 L 353.15415,539.99094 L 346.31872,379.54813 L 331.54026,374.4532 z M 355.71744,402.42785 C 354.13795,402.27101 352.83277,403.9282 352.33137,408.69366 C 355.25621,409.96815 357.04603,408.59558 363.43895,417.9658 C 367.70828,419.71948 360.45592,402.89836 355.71744,402.42785 z M 369.48324,402.71266 L 369.95792,537.8074 L 364.41996,537.14285 L 364.64148,542.96562 L 398.66042,550.75042 C 399.00501,548.30013 399.2927,545.88795 399.54649,543.5036 L 398.85029,542.8074 L 398.85029,529.54792 L 392.71106,528.02894 L 380.55917,528.02894 L 380.55917,525.02261 L 380.55917,406.51012 L 369.48324,402.71266 z M 353.81871,417.30124 C 353.1306,417.29458 352.49371,417.55114 351.88833,417.9658 C 354.2039,419.59207 356.50314,422.08459 358.8187,428.5987 L 358.8187,533.15551 L 362.04654,535.0226 L 362.04654,427.68098 C 358.40404,419.74502 355.88304,417.32123 353.81871,417.30124 z M 285.78083,472.61762 L 276.50869,472.90243 L 271.88844,473.0923 L 267.42642,473.21889 L 262.77453,473.37711 L 258.24922,473.53534 L 253.62897,473.69357 L 249.07202,473.82015 L 244.45177,473.97838 L 239.92646,474.13661 L 235.27457,474.29483 L 226.76192,474.57964 L 227.93281,479.04166 L 236.129,478.75685 L 236.95178,483.28216 L 228.02774,483.56697 L 229.23027,488.02899 L 237.77457,487.74418 L 238.629,492.23785 L 229.29357,492.5543 L 230.4961,497.01632 L 239.45178,496.69987 L 240.30621,501.22518 L 230.59103,501.54163 L 231.76192,505.97201 L 241.12899,505.6872 L 241.95178,510.21251 L 231.85685,510.52896 L 233.02774,514.99098 L 242.77456,514.64288 L 244.13532,521.79477 L 233.94546,522.3011 L 233.94546,528.66185 L 292.3631,525.65552 L 292.3631,519.29477 L 284.98969,519.67452 L 283.85045,513.31377 L 292.04664,513.02896 L 290.87576,508.56694 L 283.02767,508.8201 L 282.20488,504.29479 L 290.81247,504.00998 L 289.60994,499.57961 L 281.41375,499.86442 L 280.59096,495.33911 L 289.515,495.0543 L 288.34412,490.56063 L 279.76818,490.84544 L 278.97704,486.35178 L 288.24918,486.03532 L 287.04665,481.60495 L 278.15426,481.92141 L 277.33147,477.3961 L 286.98336,477.07964 L 285.78083,472.61762 z M 272.67958,477.55432 L 273.50236,482.04799 L 269.07199,482.20622 L 268.24921,477.71255 L 272.67958,477.55432 z M 263.59731,477.83913 L 264.45174,482.36444 L 259.92643,482.52267 L 259.072,477.99736 L 263.59731,477.83913 z M 254.45176,478.15559 L 255.30619,482.64925 L 250.74923,482.83913 L 249.92645,478.31382 L 254.45176,478.15559 z M 245.27456,478.47204 L 246.12898,482.96571 L 241.57203,483.12394 L 240.74925,478.63027 L 245.27456,478.47204 z M 274.32515,486.51001 L 275.14793,491.03532 L 270.7492,491.1619 L 269.89477,486.66824 L 274.32515,486.51001 z M 265.27453,486.82646 L 266.12896,491.32013 L 261.60365,491.47835 L 260.74922,486.95304 L 265.27453,486.82646 z M 256.12897,487.11127 L 256.95175,491.63658 L 252.3948,491.76316 L 251.60366,487.2695 L 256.12897,487.11127 z M 246.95177,487.42773 L 247.77455,491.95304 L 243.24924,492.07962 L 242.39481,487.55431 L 246.95177,487.42773 z M 275.97071,495.49734 L 276.7935,499.991 L 272.42642,500.14923 L 271.57199,495.65556 L 275.97071,495.49734 z M 266.95174,495.78215 L 267.77452,500.30746 L 263.24921,500.43404 L 262.42643,495.94037 L 266.95174,495.78215 z M 257.77454,496.0986 L 258.62897,500.59227 L 254.10366,500.78214 L 253.24923,496.25683 L 257.77454,496.0986 z M 248.62898,496.41506 L 249.45176,500.90872 L 244.92645,501.06695 L 244.07203,496.57328 L 248.62898,496.41506 z M 277.58464,504.45302 L 278.40742,508.97833 L 274.07198,509.13656 L 273.2492,504.61125 L 277.58464,504.45302 z M 268.59731,504.76948 L 269.45174,509.26314 L 264.95807,509.42137 L 264.10364,504.89606 L 268.59731,504.76948 z M 259.45175,505.05429 L 260.30618,509.61124 L 255.78087,509.73782 L 254.92644,505.21251 L 259.45175,505.05429 z M 250.30619,505.37074 L 251.12898,509.89605 L 246.60367,510.05428 L 245.74924,505.52897 L 250.30619,505.37074 z M 279.2302,513.44035 L 280.40109,519.89604 L 275.27451,520.18085 L 276.0973,519.95933 L 274.92641,513.59858 L 279.2302,513.44035 z M 270.27452,513.7568 L 271.5087,520.37072 L 267.01503,520.62388 L 265.78086,513.88339 L 270.27452,513.7568 z M 261.12896,514.04161 L 262.39478,520.8454 L 257.86947,521.09857 L 256.60365,514.19984 L 261.12896,514.04161 z M 251.95176,514.35807 L 253.24923,521.32008 L 248.72392,521.5416 L 247.39481,514.5163 L 251.95176,514.35807 z M 375.02121,530.87703 L 393.05916,535.40234 L 393.05916,543.72512 L 375.02121,539.23145 L 375.02121,530.87703 z M 232.26824,535.84538 L 173.85061,540.33905 L 173.85061,546.6998 L 232.26824,542.17449 L 232.26824,535.84538 z M 223.94547,545.11752 L 223.94547,603.53516 L 230.27458,603.53516 L 230.27458,545.11752 L 223.94547,545.11752 z M 211.54043,546.60486 L 211.54043,605.05414 L 217.86953,605.05414 L 217.86953,546.60486 L 211.54043,546.60486 z M 199.13538,548.12384 L 199.13538,606.54148 L 205.46449,606.54148 L 205.46449,548.12384 L 199.13538,548.12384 z M 186.73033,549.61118 L 186.73033,608.06047 L 193.09108,608.06047 L 193.09108,549.61118 L 186.73033,549.61118 z M 174.35693,551.13017 L 174.35693,609.54781 L 180.68604,609.54781 L 180.68604,551.13017 L 174.35693,551.13017 z M 363.59717,558.53522 L 363.59717,603.91491 L 368.50223,603.91491 L 368.50223,558.53522 L 363.59717,558.53522 z M 373.21741,559.73775 L 373.21741,605.08579 L 378.12247,605.08579 L 378.12247,559.73775 L 373.21741,559.73775 z M 382.83765,560.90864 L 382.83765,606.25667 L 387.74271,606.25667 L 387.74271,560.90864 L 382.83765,560.90864 z M 392.45789,562.04788 L 392.45789,607.42756 L 397.36295,607.42756 L 397.36295,562.04788 L 392.45789,562.04788 z M 402.07813,563.21876 L 402.07813,608.59844 L 407.01483,608.59844 L 407.01483,563.21876 L 402.07813,563.21876 z"
       id="path16615"
       style="fill:#d2cac8;fill-opacity:1;fill-rule:evenodd;stroke:none;stroke-width:0.67382634;stroke-linecap:butt;stroke-linejoin:miter;stroke-miterlimit:4;stroke-dasharray:none;stroke-opacity:1" />
    <path
       d="M 317.69883,310.24112 L 292.837,335.11409 L 292.837,379.71631 L 283.44633,389.13469 L 268.656,389.13469 C 262.79312,411.02506 266.20565,444.50832 251.07195,454.80496 L 233.46444,454.80496 L 205.31588,507.60424 L 188.43612,512.53654 C 184.36986,522.99698 163.00778,534.05354 130.98499,536.30561 C 132.45749,635.47396 229.38616,688.79239 323.38019,694.02229 C 354.6091,691.58903 385.53723,680.11196 410.47874,661.06973 L 410.47874,554.43775 L 398.85777,542.81158 L 398.85777,528.03811 L 380.56942,528.03811 L 380.56942,395.66414 L 360.849,392.65778 L 360.849,380.16257 L 351.36441,377.15621 L 351.36441,343.89831 L 317.69883,310.24112 z"
       id="path6344"
       style="fill:none;fill-opacity:1;fill-rule:evenodd;stroke:#000000;stroke-width:0.5;stroke-linecap:butt;stroke-linejoin:miter;stroke-miterlimit:4;stroke-dasharray:none;stroke-opacity:1" />
    <g
       transform="matrix(0.7512543,0,0,0.751591,20.225588,41.876143)"
       id="g17732"
       style="stroke:none">
      <path
         d="M 502.875,583.21875 C 498.0926,619.99904 507.09925,678.28484 425.21875,686.34375 C 423.98138,687.58112 430.04998,660.08042 425.875,650.6875 C 423.43648,645.20128 403.97763,637.50835 398.5,651.96875 C 391.27628,671.03872 409.96146,677.55192 406.75,695.875 C 409.83396,701.64195 375.82539,701.34335 348.1875,716.25 L 349.5625,691.40625 C 368.61732,680.36694 355.18234,662.23288 348.28125,659.6875 C 320.22141,657.21256 319.29294,677.76004 325.90625,695.25 C 297.958,711.82602 250.04744,807.71418 206.64726,821.54274 C 207.17155,822.63476 207.71145,823.71596 208.24101,824.79274 C 253.7697,876.85849 333.98731,901.63186 403.53125,895.6875 C 455.9231,891.6071 507.65233,868.4046 543.625,830.03125 C 538.72603,792.68998 498.80253,788.4782 466.59375,792 C 455.16174,772.2578 453.86053,749.15143 447.5,727.71875 C 437.61831,715.42537 497.99516,664.46218 523.25,632.84375 C 545.9187,618.63237 526.36066,593.95284 502.875,583.21875 z"
         transform="translate(0,-28)"
         id="path17730"
         style="fill:#b8b2c6;fill-opacity:1;fill-rule:evenodd;stroke:#000000;stroke-width:0.98750144px;stroke-linecap:butt;stroke-linejoin:miter;stroke-opacity:1" />
      <path
         d="M 502.875,583.21875 C 498.0926,619.99904 507.09925,678.28484 425.21875,686.34375 C 423.98138,687.58112 430.04998,660.08042 425.875,650.6875 C 423.43648,645.20128 403.97763,637.50835 398.5,651.96875 C 416.68793,651.58758 418.73087,659.24456 416.11665,669.40227 C 407.28472,671.96163 398.60426,667.84576 399.16922,670.28416 C 399.84999,673.22242 402.73312,679.79119 411.93684,681.29156 C 412.66226,691.15111 413.14862,695.08039 403.86589,699.02566 C 410.53766,760.66909 482.83689,795.54823 457.57487,780.84813 C 419.27311,758.56014 407.26707,733.20196 401.24072,699.85157 C 390.79938,702.72785 367.87682,705.63045 348.1875,716.25 L 349.5625,691.40625 C 344.10851,701.3715 334.16677,686.53751 327.1875,681.25 C 338.88456,681.35734 335.35896,669.19981 348.28125,659.6875 C 320.22141,657.21256 319.29294,677.76004 325.90625,695.25 C 297.958,711.82602 248.95963,807.17053 205.55945,820.99909 L 206.4657,823.46784 C 209.48764,826.95703 212.63459,830.32862 215.87195,833.62409 C 223.73575,819.69808 247.50229,792.29482 262.90625,792 C 269.82228,791.86763 275.03538,788.58531 293.46875,808.5625 C 294.34538,829.53089 261.13776,838.61419 243.60488,850.37454 C 274.60506,874.70633 316.86132,888.42341 355.84375,894.15625 L 355.84375,874.5 C 366.52363,849.30333 376.70706,827.09383 385.75,811.71875 C 376.83363,832.72536 369.46553,853.74339 362.21875,874.75 L 357.75,872.21875 C 367.96905,880.97129 370.97707,888.52129 373.5625,896 C 375.36094,896.11141 377.16697,896.2166 378.96875,896.28125 C 389.67499,870.90363 408.94722,846.60797 430.3125,822.5625 C 410.19983,842.21479 390.08083,861.84694 374.9375,888.125 C 375.0094,882.14778 371.80975,877.78639 368.5625,873.46875 L 397.34375,789.0625 C 434.38602,822.60928 466.83208,855.67028 458.46875,884.28125 C 467.84821,881.06232 477.01875,877.21992 485.875,872.78125 L 504.15625,861.375 C 505.42938,857.84702 506.69562,858.19623 507.96875,843.5625 C 500.46349,826.01802 473.62079,812.93126 486.34375,790.71875 L 466.59375,792 C 455.16174,772.2578 453.86053,749.15143 447.5,727.71875 C 437.61831,715.42537 497.99516,664.46218 523.25,632.84375 C 519.08625,632.59877 515.28551,599.76943 502.875,583.21875 z M 330.375,697.15625 L 347.5625,739.15625 C 343.71314,710.22938 383.78376,720.56679 393.40625,719.4375 C 399.38357,727.25299 393.95342,736.68102 388.3125,746.15625 L 378.125,737.25 C 370.72708,750.21461 363.93702,759.05603 361.5625,738.53125 C 360.89936,744.02156 358.77261,748.02541 359.65625,755.0625 C 371.00163,765.58993 383.09014,776.21285 394.8125,786.78125 C 384.86016,805.09302 375.03129,813.37854 362.21875,850.09375 L 359.65625,835.28125 L 355.8125,870.3125 C 341.86873,878.92748 333.14457,879.16373 336.09375,860.75 C 341.39237,859.67689 346.02841,857.25841 354.5625,862.65625 L 346.9375,809.8125 L 362.84375,840.375 C 371.45973,813.75072 359.09091,795.72715 330.375,784.375 C 334.95459,789.25532 342.4582,794.11966 342.46875,799 C 341.20856,805.37858 331.65352,803.48351 324,803.46875 C 340.37678,803.67442 360.08068,838.08605 334.1875,856.28125 C 317.31004,847.8724 265.14612,797.26096 352.03125,767.1875 C 329.04895,762.92629 336.0293,737.68145 328.46875,722.625 C 329.42152,733.01529 333.93682,755.28331 330.375,750.625 C 321.05798,753.20024 323.93696,740.54829 320.84375,735.34375 C 292.61519,730.46532 326.92068,709.95537 330.375,697.15625 z M 325.90625,809.8125 C 319.3659,812.60843 318.36795,820.93795 304.28125,816.1875 C 308.55511,818.85205 312.81988,821.75166 317.09375,827.75 C 318.2509,822.4453 319.65808,815.11718 325.90625,809.8125 z M 335.78125,827.65625 C 333.49725,827.65625 331.65625,829.49725 331.65625,831.78125 C 331.65625,834.06524 333.49725,835.90628 335.78125,835.90625 C 338.06524,835.90625 339.9375,834.06524 339.9375,831.78125 C 339.9375,829.49725 338.06524,827.65628 335.78125,827.65625 z M 428.40625,865.21875 C 423.71732,875.88226 420.33244,889.75779 412.5,892.5625 C 414.46402,893.48108 416.12442,893.96517 417.5625,894.125 C 418.80074,893.9477 420.04547,893.79215 421.28125,893.59375 C 427.95842,890.34316 425.81,874.3749 428.40625,865.21875 z"
         transform="translate(0,-28)"
         id="path17716"
         style="fill:#5a3e33;fill-opacity:1;fill-rule:evenodd;stroke:#000000;stroke-width:0.98750144px;stroke-linecap:butt;stroke-linejoin:miter;stroke-opacity:1" />
    </g>
  </g>
  <path
     d="M 48.3125,183.3125 C 48.518625,305.11168 47.895097,426.92809 48.625,548.71875 C 52.506767,658.02162 136.18932,757.85416 243.0625,780.9375 C 341.93401,805.01589 452.63077,761.73913 508.4375,676.40625 C 526.18731,651.06134 537.97274,622.52521 544.71875,592.71875 C 544.72097,592.70878 544.71653,592.69747 544.71875,592.6875 C 550.54039,566.54852 552.5008,539.47365 551.21875,512.71875 C 551.21865,402.92241 551.21875,293.10871 551.21875,183.3125 C 383.58106,183.31249 215.95023,183.3125 48.3125,183.3125 z M 59.1875,198.0625 C 218.89285,198.0625 378.63834,198.06248 538.34375,198.0625 C 538.34376,302.48631 538.34368,406.91977 538.34375,511.34375 C 540.96826,566.11502 529.26655,622.37681 497.4375,667.84375 C 444.29137,749.14131 338.84557,790.37698 244.6875,767.4375 C 142.90925,745.44578 63.196728,650.35261 59.5,546.21875 C 58.804836,430.18775 59.383726,314.10168 59.1875,198.0625 z M 117.8125,268.4375 C 118.29774,358.90308 117.02842,449.41635 118.625,539.84375 C 125.45956,623.24833 197.33724,695.53458 280.75,702.53125 C 348.09609,709.61761 417.85623,675.4328 452.96875,616.90625 C 477.12667,579.53371 481.75629,533.87773 479.625,490.4375 C 479.62496,416.44088 479.62499,342.43411 479.625,268.4375 C 359.00926,268.43749 238.4282,268.43751 117.8125,268.4375 z M 130.6875,283.90625 C 242.72051,283.90624 354.71697,283.90625 466.75,283.90625 C 466.74999,352.63989 466.74997,421.39133 466.75,490.125 C 468.72962,530.47556 464.4389,572.91053 442,607.625 C 409.386,661.98889 344.58515,693.70732 282.03125,687.125 C 204.55392,680.62597 137.78574,613.47248 131.4375,536 C 129.95454,452.00421 131.13821,367.93754 130.6875,283.90625 z"
     id="path4445"
     style="fill:#eac102;fill-opacity:1;fill-rule:evenodd;stroke:#000000;stroke-width:1;stroke-linecap:butt;stroke-linejoin:miter;marker:none;stroke-miterlimit:4;stroke-dasharray:none;stroke-dashoffset:0;stroke-opacity:1;visibility:visible;display:inline;overflow:visible" />
  <path
     d="M 48.304514,183.31338 C 48.510641,305.11257 47.889669,426.92527 48.619572,548.71593 C 52.501339,658.01881 136.19405,757.85268 243.06723,780.93602 C 341.93874,805.01443 452.6231,761.74276 508.42983,676.40988 C 541.85233,628.68598 554.16098,569.62523 551.405,512.13522 C 551.405,402.52794 551.405,292.92065 551.405,183.31338 C 383.70484,183.31338 216.00474,183.31338 48.304514,183.31338 z"
     id="Borde"
     style="fill:none;fill-opacity:1;fill-rule:evenodd;stroke:#000000;stroke-width:2;stroke-linecap:butt;stroke-linejoin:miter;marker:none;marker-start:none;marker-mid:none;marker-end:none;stroke-miterlimit:4;stroke-dasharray:none;stroke-dashoffset:0;stroke-opacity:1;visibility:visible;display:inline;overflow:visible;enable-background:accumulate" />
  <g
     id="g3363">
    <g
       transform="matrix(1.0145604,0.6053807,-0.6687363,0.9184402,-711.30407,-661.75573)"
       id="g11638"
       style="stroke:#000000;stroke-width:0.86494929;stroke-miterlimit:4;stroke-dasharray:none;stroke-opacity:1">
      <path
         d="M 1171.2114,69.020046 L 1012.1498,225.8076 C 1010.1115,231.2706 1016.123,232.74321 1016.0221,234.10897 C 1011.6402,241.4642 1012.8637,248.71518 1011.9454,250.71168 C 1005.3234,259.8549 997.06928,259.53953 996.35536,259.43528 C 988.30554,257.75154 985.45241,269.52202 983.31318,269.94165 C 980.35915,273.19964 983.72186,279.71563 979.84956,282.86675 C 980.46005,282.9736 954.88275,308.71955 952.13304,311.45105 C 951.11387,314.18255 934.30031,331.94252 934.30031,331.94252 C 936.94911,338.66701 965.37956,357.26883 965.27866,357.89697 C 986.26723,332.78176 1013.7794,281.60526 1016.6326,281.29249 C 1031.8165,263.95216 1046.3874,240.09846 1043.7386,233.37395 C 1045.8778,221.49924 1058.8191,210.99027 1062.8957,211.51674 C 1060.3478,204.05464 1063.8114,198.06517 1063.9123,197.4344 L 1177.5282,83.206655 C 1177.5282,77.428267 1175.4898,79.109398 1171.6176,78.794026 C 1171.6176,78.794026 1174.7785,73.854921 1175.3889,73.854921 C 1175.8985,70.385805 1172.6367,68.496174 1171.2114,69.020046 z"
         id="path3356"
         style="fill:#ffffff;stroke:#000000;stroke-width:0.86494929;stroke-miterlimit:4;stroke-dasharray:none;stroke-opacity:1" />
      <path
         d="M 1211.3596,49.474711 C 1208.1987,52.521581 1207.283,50.105455 1206.4682,49.474711 L 1204.1221,46.42784 C 1202.5959,42.539102 1199.5384,41.381862 1198.1106,41.908357 L 1012.1498,225.8076 C 1010.1115,231.2706 1016.0221,233.37395 1015.9186,234.84396 L 1142.8844,108.9526 C 1142.8844,108.9526 1186.7006,62.506683 1199.0288,50.001206 L 1206.4682,57.041083 C 1208.1987,59.457209 1210.5423,59.457209 1213.1936,57.041083 L 1276.4696,-14.311524 L 1212.5806,48.317471 L 1211.3596,49.474711"
         id="path3362"
         style="fill:#ffffff;stroke:#000000;stroke-width:0.86494929;stroke-miterlimit:4;stroke-dasharray:none;stroke-opacity:1" />
      <path
         d="M 1028.1485,268.36739 C 1032.1217,277.61227 1026.2111,286.02049 1014.4933,283.60436"
         id="path3364"
         style="fill:#ffffff;stroke:#000000;stroke-width:0.86494929;stroke-miterlimit:4;stroke-dasharray:none;stroke-opacity:1" />
      <path
         d="M 1021.3197,275.82689 C 1020.5048,280.031 1024.5815,280.87024 1024.5815,280.87024"
         id="path3366"
         style="fill:#ffffff;stroke:#000000;stroke-width:0.86494929;stroke-miterlimit:4;stroke-dasharray:none;stroke-opacity:1" />
      <path
         d="M 1053.7233,213.19527 C 1035.2801,226.22722 1025.192,240.62494 1021.7283,244.09145 C 1016.3273,254.1808 1000.3286,267.1059 996.76404,267.3144 L 958.24546,312.39718"
         id="path3368"
         style="fill:#ffffff;stroke:#000000;stroke-width:0.86494929;stroke-miterlimit:4;stroke-dasharray:none;stroke-opacity:1" />
      <path
         d="M 1011.5393,226.5426 C 1014.7986,230.11596 1034.7705,238.31308 1037.3184,253.12781 C 1027.4346,269.10238 1015.7168,280.97712 1014.4933,283.60436 C 997.78319,275.51152 988.7142,269.41776 985.75765,266.99903 C 986.47155,264.37178 990.13951,261.64028 990.13951,261.64028 C 992.48308,257.64729 996.6606,259.74804 996.6606,259.74804 C 1005.4243,255.86191 1009.501,247.66481 1007.7679,241.67532 C 1005.7296,234.10897 1007.1574,235.89435 1006.8496,234.95082 C 1007.7679,230.74671 1011.5393,226.5426 1011.5393,226.5426 z"
         id="path3372"
         style="fill:#ffffff;stroke:#000000;stroke-width:0.86494929;stroke-miterlimit:4;stroke-dasharray:none;stroke-opacity:1" />
      <path
         d="M 1016.4307,240.62494 C 1018.9761,247.03407 1017.957,255.02004 1012.5585,259.6438 L 1016.4307,240.62494"
         id="path3374"
         style="fill:#ffffff;stroke:#000000;stroke-width:0.86494929;stroke-miterlimit:4;stroke-dasharray:none;stroke-opacity:1" />
      <path
         d="M 1016.4307,240.62494 C 1018.9761,247.03407 1017.957,255.02004 1012.5585,259.6438"
         id="path3376"
         style="fill:#ffffff;stroke:#000000;stroke-width:0.86494929;stroke-miterlimit:4;stroke-dasharray:none;stroke-opacity:1" />
      <path
         d="M 1014.3924,272.14925 C 1012.6594,272.14925 1011.234,270.78351 1011.234,268.99553 C 1011.234,267.21015 1012.6594,265.74014 1014.3924,265.74014 C 1016.123,265.74014 1017.4474,267.21015 1017.4474,268.99553 C 1017.4474,270.78351 1016.123,272.14925 1014.3924,272.14925 z"
         id="path3378"
         style="fill:#ffffff;stroke:#000000;stroke-width:0.86494929;stroke-miterlimit:4;stroke-dasharray:none;stroke-opacity:1" />
      <path
         d="M 1023.7666,259.22415 C 1022.0336,259.22415 1020.6083,257.75154 1020.6083,255.96616 C 1020.6083,254.1808 1022.0336,252.81244 1023.7666,252.81244 C 1025.4972,252.81244 1026.8216,254.1808 1026.8216,255.96616 C 1026.8216,257.75154 1025.4972,259.22415 1023.7666,259.22415 z"
         id="path3380"
         style="fill:#ffffff;stroke:#000000;stroke-width:0.86494929;stroke-miterlimit:4;stroke-dasharray:none;stroke-opacity:1" />
      <path
         d="M 1152.3595,84.783517 C 1152.3595,81.840896 1155.2127,79.422167 1158.7797,79.422167 L 1170.4975,92.034498 C 1170.4975,92.034498 1170.8027,93.926732 1169.0722,96.342877 C 1167.2382,98.759003 1164.5869,97.500098 1164.5869,97.500098 L 1152.3595,84.783517"
         id="path3384"
         style="fill:#ffffff;fill-opacity:1;stroke:#000000;stroke-width:0.86494929;stroke-miterlimit:4;stroke-dasharray:none;stroke-opacity:1" />
    </g>
    <g
       transform="matrix(1.0126568,0,0,1.0126568,5.5913492,-99.580423)"
       id="g6347">
      <g
         transform="matrix(0.6044619,0.1250806,-0.1216852,0.6213234,-355.9096,-66.022127)"
         id="g13513"
         style="stroke:#000000;stroke-width:1.5796752;stroke-miterlimit:4;stroke-dasharray:none;stroke-opacity:1">
        <path
           d="M 1428.3782,331.28107 C 1499.2202,357.50307 1542.4415,359.25168 1582.8655,342.70943 C 1622.2236,337.72433 1625.5752,284.69106 1559.4009,294.11196 C 1554.1944,318.00918 1461.3877,303.53969 1436.1757,287.69286 L 1428.3782,331.28107"
           id="path3392"
           style="fill:#ffffff;stroke:#000000;stroke-width:1.5796752;stroke-linecap:round;stroke-linejoin:round;stroke-miterlimit:4;stroke-dasharray:none;stroke-opacity:1" />
        <path
           d="M 1428.3782,331.28107 C 1272.0289,278.01019 905.87208,264.98586 647.48507,282.67559 C 850.34248,228.31094 1206.0084,218.232 1438.2924,289.08116 L 1428.3782,331.28107"
           id="path3396"
           style="fill:#ffffff;stroke:#000000;stroke-width:1.5796752;stroke-linecap:round;stroke-linejoin:round;stroke-miterlimit:4;stroke-dasharray:none;stroke-opacity:1" />
        <path
           d="M 1590.9397,330.86209 C 1567.1674,305.3932 1559.4603,274.23728 1559.4603,274.23728 C 1554.9728,261.10024 1538.0258,250.94012 1522.6024,251.23762 C 1522.0385,251.29591 1476.6612,263.98571 1476.6612,263.98571 C 1455.7591,270.08544 1446.5772,289.79796 1441.9508,302.77474 C 1432.5621,322.62429 1429.207,323.91563 1420.8133,325.75322 C 1399.088,340.13684 1418.382,353.39256 1428.9267,349.81572 C 1452.085,344.40491 1458.3377,319.80732 1458.3377,319.80732 C 1463.6564,299.24793 1480.0328,270.43769 1480.0328,270.43769 C 1504.7091,256.88233 1523.0595,254.64694 1533.1509,260.36189 C 1544.2019,270.70583 1561.6941,318.00082 1563.3265,325.90404 C 1564.8539,337.2889 1570.7959,348.53313 1574.1509,347.24175 C 1589.7756,345.8888 1592.0443,341.59704 1593.4843,338.78382 C 1595.6642,332.9985 1588.2064,330.81192 1590.9397,330.86209 z"
           id="path3402"
           style="fill:#ffffff;stroke:#000000;stroke-width:1.5796752;stroke-miterlimit:4;stroke-dasharray:none;stroke-opacity:1" />
        <path
           d="M 1476.0439,303.44272 C 1484.8985,311.82861 1478.3462,334.14233 1495.8012,346.44062"
           id="path3404"
           style="fill:#ffffff;stroke:#000000;stroke-width:1.5796752;stroke-miterlimit:4;stroke-dasharray:none;stroke-opacity:1" />
        <path
           d="M 1495.7964,307.40323 C 1504.8614,315.65752 1495.9533,334.87368 1513.7603,347.25405"
           id="path3406"
           style="fill:#ffffff;stroke:#000000;stroke-width:1.5796752;stroke-miterlimit:4;stroke-dasharray:none;stroke-opacity:1" />
        <path
           d="M 1512.9882,308.41723 C 1522.0584,316.6681 1513.7669,334.54613 1531.5738,346.92653"
           id="path3408"
           style="fill:#ffffff;stroke:#000000;stroke-width:1.5796752;stroke-miterlimit:4;stroke-dasharray:none;stroke-opacity:1" />
        <path
           d="M 1534.6214,311.14021 C 1543.6881,319.38572 1534.0272,333.83594 1551.6926,346.00263"
           id="path3410"
           style="fill:#ffffff;stroke:#000000;stroke-width:1.5796752;stroke-miterlimit:4;stroke-dasharray:none;stroke-opacity:1" />
        <path
           d="M 1475.2286,273.61844 C 1462.5518,288.51298 1452.3656,325.31363 1449.8717,327.89462 C 1440.8131,340.08631 1431.1101,344.03578 1425.0217,345.27697"
           id="path3412"
           style="fill:#ffffff;stroke:#000000;stroke-width:1.5796752;stroke-miterlimit:4;stroke-dasharray:none;stroke-opacity:1" />
        <path
           d="M 1520.3811,260.13985 C 1517.2524,262.2113 1513.3186,261.71858 1511.6065,259.13253 C 1509.7528,256.33273 1510.8353,252.51893 1513.9641,250.44747 C 1516.8911,248.50957 1521.6809,250.29528 1523.3931,252.88137 C 1525.2468,255.68113 1523.3082,258.20195 1520.3811,260.13985 z"
           id="path3414"
           style="fill:#ffffff;stroke:#000000;stroke-width:1.5796752;stroke-miterlimit:4;stroke-dasharray:none;stroke-opacity:1" />
        <path
           d="M 1520.3811,260.13985 C 1517.2524,262.2113 1513.3186,261.71858 1511.6065,259.13253 C 1509.7528,256.33273 1510.8353,252.51893 1513.9641,250.44747 C 1516.8911,248.50957 1521.6809,250.29528 1523.3931,252.88137 C 1525.2468,255.68113 1523.3082,258.20195 1520.3811,260.13985 z"
           id="path3416"
           style="fill:#ffffff;stroke:#000000;stroke-width:1.5796752;stroke-miterlimit:4;stroke-dasharray:none;stroke-opacity:1" />
        <path
           d="M 1505.9026,263.22397 C 1502.3498,265.57616 1498.3507,265.43415 1496.78,263.06182 C 1495.2129,260.69481 1496.6438,256.95775 1500.1966,254.60556 C 1503.7494,252.25338 1507.9554,252.25843 1509.5225,254.62543 C 1511.0931,256.99776 1509.4554,260.87179 1505.9026,263.22397 z"
           id="path3418"
           style="fill:#ffffff;stroke:#000000;stroke-width:1.5796752;stroke-miterlimit:4;stroke-dasharray:none;stroke-opacity:1" />
        <path
           d="M 1505.9026,263.22397 C 1502.3498,265.57616 1498.3507,265.43415 1496.78,263.06182 C 1495.2129,260.69481 1496.6438,256.95775 1500.1966,254.60556 C 1503.7494,252.25338 1507.9554,252.25843 1509.5225,254.62543 C 1511.0931,256.99776 1509.4554,260.87179 1505.9026,263.22397 z"
           id="path3420"
           style="fill:#ffffff;stroke:#000000;stroke-width:1.5796752;stroke-miterlimit:4;stroke-dasharray:none;stroke-opacity:1" />
        <path
           d="M 1493.2072,269.462 C 1489.8664,271.67382 1485.7877,270.96204 1483.7925,267.94853 C 1481.9353,265.14339 1482.8764,261.11588 1486.2171,258.90406 C 1489.5579,256.69224 1493.84,257.26168 1495.6972,260.06682 C 1497.6923,263.08033 1496.548,267.25018 1493.2072,269.462 z"
           id="path3422"
           style="fill:#ffffff;stroke:#000000;stroke-width:1.5796752;stroke-miterlimit:4;stroke-dasharray:none;stroke-opacity:1" />
        <path
           d="M 1493.2072,269.462 C 1489.8664,271.67382 1485.7877,270.96204 1483.7925,267.94853 C 1481.9353,265.14339 1482.8764,261.11588 1486.2171,258.90406 C 1489.5579,256.69224 1493.84,257.26168 1495.6972,260.06682 C 1497.6923,263.08033 1496.548,267.25018 1493.2072,269.462 z"
           id="path3424"
           style="fill:#ffffff;stroke:#000000;stroke-width:1.5796752;stroke-miterlimit:4;stroke-dasharray:none;stroke-opacity:1" />
        <path
           d="M 766.62144,268.29453 C 979.86901,241.75032 1252.0329,257.31871 1421.4166,307.03071"
           id="path11669"
           style="fill:none;stroke:#000000;stroke-width:1.5796752;stroke-linecap:round;stroke-linejoin:round;stroke-miterlimit:4;stroke-dasharray:none;stroke-opacity:1" />
      </g>
      <g
         id="g6198">
        <path
           d="M 236.74371,315.86818 L 236.46382,328.97802 C 238.37894,376.75625 285.56312,371.71865 293.84138,371.71865 C 302.11964,371.71865 349.30382,376.75625 351.21894,328.97802 L 350.9645,315.86818 L 236.74371,315.86818 z"
           id="path13756"
           style="fill:#ffffff;fill-opacity:1;fill-rule:evenodd;stroke:#000000;stroke-width:0.98750144;stroke-linecap:butt;stroke-linejoin:miter;stroke-miterlimit:4;stroke-dasharray:none;stroke-opacity:1" />
        <path
           d="M 236.46382,315.94455 C 238.37894,363.72277 285.56312,358.68517 293.84138,358.68517 C 302.11964,358.68517 349.30382,363.72277 351.21894,315.94455 L 236.46382,315.94455 z"
           id="path13754"
           style="fill:#574129;fill-opacity:1;fill-rule:evenodd;stroke:#000000;stroke-width:0.98750144;stroke-linecap:butt;stroke-linejoin:miter;stroke-miterlimit:4;stroke-dasharray:none;stroke-opacity:1" />
        <path
           d="M 209.58221,181.26415 L 230.75211,304.67484 L 294.26182,316.51188 L 357.79697,304.67484 L 378.99231,181.26415 L 294.31271,158.22647 L 209.58221,181.26415 z"
           id="path4212"
           style="fill:#07006f;fill-opacity:1;fill-rule:evenodd;stroke:#000000;stroke-width:0.98750144;stroke-linecap:butt;stroke-linejoin:miter;stroke-miterlimit:4;stroke-dasharray:none;stroke-opacity:1" />
        <path
           d="M 294.28726,304.36937 L 304.0071,294.69609 L 304.0071,226.14308 L 284.56743,226.14308 L 284.56743,294.69609 L 294.28726,304.36937 z"
           id="path6017"
           style="fill:#eac102;fill-opacity:1;fill-rule:evenodd;stroke:#000000;stroke-width:0.98750144;stroke-linecap:butt;stroke-linejoin:miter;stroke-miterlimit:4;stroke-dasharray:none;stroke-opacity:1" />
        <path
           d="M 255.92924,150.10601 L 202.82637,171.9218 L 209.21297,195.59588 L 260.91638,172.30364 L 277.50625,172.30364 C 282.17489,169.4274 287.65515,167.77247 293.53635,167.77247 L 293.53635,172.30364 L 295.64825,172.30364 L 295.64825,167.77247 C 301.53043,167.77247 307.03465,169.42652 311.70379,172.30364 L 327.68299,172.30364 L 379.38641,195.59588 L 385.74756,171.9218 L 332.64469,150.10601 L 255.92924,150.10601 z"
           id="path5114"
           style="fill:#d42e12;fill-opacity:1;fill-rule:evenodd;stroke:#000000;stroke-width:0.98750144;stroke-linecap:butt;stroke-linejoin:miter;stroke-miterlimit:4;stroke-dasharray:none;stroke-opacity:1" />
        <path
           d="M 293.53635,109.02002 C 290.02715,109.16999 286.46664,111.62586 284.6053,115.9186 C 283.88002,118.92637 278.43789,130.65318 280.58505,119.17697 C 275.04047,122.73914 275.4856,138.14926 278.82937,142.97833 C 279.90069,143.78244 277.40023,146.9806 275.29258,138.49807 C 274.07903,141.88285 280.28936,156.23748 280.50872,159.34654 C 281.78792,163.59128 277.1231,153.08151 277.20092,152.62615 C 275.87197,155.41404 278.84396,163.62203 281.34839,170.29262 C 285.08983,168.66509 289.19882,167.77247 293.53635,167.77247 L 293.53635,169.80895 C 293.7906,169.80271 294.04394,169.80895 294.29969,169.80895 C 294.75905,169.80895 295.1938,169.81436 295.64825,169.83441 L 295.64825,167.77247 C 299.18784,167.77247 302.58525,168.37253 305.74975,169.47802 C 308.18362,162.96486 310.86821,155.30365 309.59189,152.62615 C 309.6697,153.08151 305.00488,163.59128 306.28409,159.34654 C 306.50344,156.23748 312.71378,141.88285 311.50023,138.49807 C 309.39258,146.9806 306.89211,143.78244 307.96343,142.97833 C 311.3072,138.14926 311.75233,122.73914 306.20776,119.17697 C 308.35491,130.65318 302.91278,118.92637 302.18751,115.9186 C 300.50342,111.02601 297.04554,108.87006 293.53635,109.02002 z"
           id="path6929"
           style="fill:#d42e12;fill-opacity:1;fill-rule:evenodd;stroke:#000000;stroke-width:0.98750144;stroke-linecap:butt;stroke-linejoin:miter;stroke-miterlimit:4;stroke-dasharray:none;stroke-opacity:1" />
        <path
           d="M 294.07069,325.09055 C 331.90062,325.09055 370.46302,326.10127 360.8373,284.99735 C 341.00762,313.97264 306.50125,308.95145 294.05797,308.95145 C 281.61468,308.95145 247.1083,313.97264 227.27863,284.99735 C 217.65289,326.10127 256.24075,325.09055 294.07069,325.09055 z"
           id="path8765"
           style="fill:#eac102;fill-opacity:1;fill-rule:evenodd;stroke:#000000;stroke-width:0.98750144;stroke-linecap:butt;stroke-linejoin:miter;stroke-miterlimit:4;stroke-dasharray:none;stroke-opacity:1" />
      </g>
    </g>
    <g
       transform="matrix(1.0126568,0,0,1.0126568,5.5913492,-99.580423)"
       id="g6387">
      <path
         d="M 324.93517,200.46885 C 324.93517,217.40293 311.21354,231.13071 294.28705,231.13071 C 277.36056,231.13071 263.63893,217.40293 263.63893,200.46885 C 263.63893,183.53478 277.36056,169.807 294.28705,169.807 C 311.21354,169.807 324.93517,183.53478 324.93517,200.46885 L 324.93517,200.46885 z"
         id="path13816"
         style="fill:#c1442f;fill-opacity:1;fill-rule:evenodd;stroke:none;stroke-opacity:1" />
      <path
         d="M 314.71987,200.46884 C 314.71987,211.75823 305.57212,220.91009 294.28779,220.91009 C 283.00346,220.91009 273.8557,211.75823 273.8557,200.46884 C 273.8557,189.17945 283.00346,180.0276 294.28779,180.0276 C 305.57212,180.0276 314.71987,189.17945 314.71987,200.46884 L 314.71987,200.46884 z"
         id="path14703"
         style="fill:#e5e5e5;fill-opacity:1;fill-rule:evenodd;stroke:none;stroke-opacity:1" />
      <path
         d="M 304.50281,200.46871 C 304.50281,206.11339 299.92894,210.68931 294.2868,210.68931 C 288.64465,210.68931 284.07078,206.11339 284.07078,200.46871 C 284.07078,194.82403 288.64465,190.24812 294.2868,190.24812 C 299.92894,190.24812 304.50281,194.82403 304.50281,200.46871 L 304.50281,200.46871 z"
         id="path14705"
         style="fill:#c1442f;fill-opacity:1;fill-rule:evenodd;stroke:none;stroke-opacity:1" />
      <path
         d="M 293.60633,202.51285 L 271.93559,224.19331 C 277.48289,229.7431 285.14747,233.17466 293.60633,233.17466 L 293.60633,202.51285 z"
         id="path15633"
         style="fill:#d42e12;fill-opacity:1;fill-rule:evenodd;stroke:none;stroke-opacity:1" />
      <path
         d="M 293.60633,202.51285 L 279.16343,216.96223 C 282.86163,220.66209 287.96708,222.95406 293.60633,222.95406 L 293.60633,202.51285 z"
         id="path15635"
         style="fill:#ffffff;fill-opacity:1;fill-rule:evenodd;stroke:none;stroke-opacity:1" />
      <path
         d="M 293.54531,198.42461 L 271.87456,176.74415 C 277.42187,171.19436 285.08645,167.7628 293.54531,167.7628 L 293.54531,198.42461 z"
         id="path15656"
         style="fill:#d42e12;fill-opacity:1;fill-rule:evenodd;stroke:none;stroke-opacity:1" />
      <path
         d="M 293.54531,198.42461 L 279.1024,183.97523 C 282.8006,180.27537 287.90606,177.9834 293.54531,177.9834 L 293.54531,198.42461 z"
         id="path15658"
         style="fill:#ffffff;fill-opacity:1;fill-rule:evenodd;stroke:none;stroke-opacity:1" />
      <path
         d="M 295.6494,202.51285 L 317.32014,224.19331 C 311.77284,229.7431 304.10826,233.17466 295.6494,233.17466 L 295.6494,202.51285 z"
         id="path15664"
         style="fill:#d42e12;fill-opacity:1;fill-rule:evenodd;stroke:none;stroke-opacity:1" />
      <path
         d="M 295.6494,202.51285 L 310.0923,216.96223 C 306.3941,220.66209 301.28864,222.95406 295.6494,222.95406 L 295.6494,202.51285 z"
         id="path15666"
         style="fill:#ffffff;fill-opacity:1;fill-rule:evenodd;stroke:none;stroke-opacity:1" />
      <path
         d="M 295.6494,198.42461 L 317.32014,176.74415 C 311.77284,171.19436 304.10826,167.7628 295.6494,167.7628 L 295.6494,198.42461 z"
         id="path15672"
         style="fill:#d42e12;fill-opacity:1;fill-rule:evenodd;stroke:none;stroke-opacity:1" />
      <path
         d="M 295.6494,198.42461 L 310.0923,183.97523 C 306.3941,180.27537 301.28864,177.9834 295.6494,177.9834 L 295.6494,198.42461 z"
         id="path15674"
         style="fill:#ffffff;fill-opacity:1;fill-rule:evenodd;stroke:none;stroke-opacity:1" />
      <path
         d="M 292.24406,199.78736 L 270.57332,178.1069 C 265.02601,183.65669 261.59598,191.32471 261.59598,199.78736 L 292.24406,199.78736 z"
         id="path15719"
         style="fill:#d42e12;fill-opacity:1;fill-rule:evenodd;stroke:none;stroke-opacity:1" />
      <path
         d="M 292.24406,199.78736 L 277.80115,185.33798 C 274.10295,189.03784 271.81201,194.14558 271.81201,199.78736 L 292.24406,199.78736 z"
         id="path15721"
         style="fill:#ffffff;fill-opacity:1;fill-rule:evenodd;stroke:none;stroke-opacity:1" />
      <path
         d="M 296.33047,199.78736 L 318.00121,178.1069 C 323.54851,183.65669 326.97854,191.32471 326.97854,199.78736 L 296.33047,199.78736 z"
         id="path15727"
         style="fill:#d42e12;fill-opacity:1;fill-rule:evenodd;stroke:none;stroke-opacity:1" />
      <path
         d="M 296.33047,199.78736 L 310.77337,185.33798 C 314.47157,189.03784 316.76252,194.14558 316.76252,199.78736 L 296.33047,199.78736 z"
         id="path15729"
         style="fill:#ffffff;fill-opacity:1;fill-rule:evenodd;stroke:none;stroke-opacity:1" />
      <path
         d="M 292.24406,201.18036 L 270.57332,222.86081 C 265.02601,217.31102 261.59598,209.64301 261.59598,201.18036 L 292.24406,201.18036 z"
         id="path15735"
         style="fill:#d42e12;fill-opacity:1;fill-rule:evenodd;stroke:none;stroke-opacity:1" />
      <path
         d="M 292.24406,201.18036 L 277.80115,215.62974 C 274.10295,211.92988 271.81201,206.82213 271.81201,201.18036 L 292.24406,201.18036 z"
         id="path15737"
         style="fill:#ffffff;fill-opacity:1;fill-rule:evenodd;stroke:none;stroke-opacity:1" />
      <path
         d="M 296.33047,201.1805 L 318.00121,222.86095 C 323.54851,217.31116 326.97854,209.64315 326.97854,201.1805 L 296.33047,201.1805 z"
         id="path15743"
         style="fill:#d42e12;fill-opacity:1;fill-rule:evenodd;stroke:none;stroke-opacity:1" />
      <path
         d="M 296.33047,201.1805 L 310.77337,215.62987 C 314.47157,211.93001 316.76252,206.82226 316.76252,201.1805 L 296.33047,201.1805 z"
         id="path15745"
         style="fill:#ffffff;fill-opacity:1;fill-rule:evenodd;stroke:none;stroke-opacity:1" />
      <path
         d="M 306.54658,200.46878 C 306.54658,207.2424 301.05793,212.73351 294.28734,212.73351 C 287.51675,212.73351 282.0281,207.2424 282.0281,200.46878 C 282.0281,193.69515 287.51675,188.20405 294.28734,188.20405 C 301.05793,188.20405 306.54658,193.69515 306.54658,200.46878 L 306.54658,200.46878 z"
         id="path15783"
         style="fill:#0033ab;fill-opacity:1;fill-rule:evenodd;stroke:none;stroke-opacity:1" />
    </g>
  </g>
</svg>
