<?xml version="1.0" encoding="UTF-8" standalone="no"?>
<!-- Created with Inkscape (http://www.inkscape.org/) -->

<svg
   xmlns:dc="http://purl.org/dc/elements/1.1/"
   xmlns:cc="http://creativecommons.org/ns#"
   xmlns:rdf="http://www.w3.org/1999/02/22-rdf-syntax-ns#"
   xmlns:svg="http://www.w3.org/2000/svg"
   xmlns="http://www.w3.org/2000/svg"
   xmlns:xlink="http://www.w3.org/1999/xlink"
   version="1.0"
   width="499.99902"
   height="600.01001"
   id="svg2">
  <metadata
     id="metadata377">
    <rdf:RDF>
      <cc:Work
         rdf:about="">
        <dc:format>image/svg+xml</dc:format>
        <dc:type
           rdf:resource="http://purl.org/dc/dcmitype/StillImage" />
        <dc:title></dc:title>
      </cc:Work>
    </rdf:RDF>
  </metadata>
  <defs
     id="defs4" />
  <g
     transform="translate(-40.612232,-311.20471)"
     id="g4497">
    <g
       transform="matrix(0.99951175,0,0,0.99939877,0.01983399,0.54785047)"
       id="g4689">
      <path
         d="m 261.5,616.90625 c -4.34193,10.2325 -15.50578,15.10532 -20.0625,25.21875 -4.62166,7.62544 -6.58417,16.42846 -6.5625,25.28125 -2.05874,12.62787 -10.30264,23.15142 -19.53125,31.5625 -7.4289,8.44308 -12.19061,19.32464 -12.25,30.65625 -1.08167,12.27472 -7.98336,23.47569 -17.53125,31.0625 -3.46294,3.18738 -6.12305,7.11701 -8.15625,11.34375 -4.61354,8.23809 -5.09827,17.69706 -6.75,26.75 -0.0841,4.19478 -7.16609,12.45515 0.71875,9.53125 l 243.46875,0 c 7.88484,2.9239 0.80285,-5.33647 0.71875,-9.53125 -1.65173,-9.05294 -2.13646,-18.51191 -6.75,-26.75 -2.0332,-4.22674 -4.69331,-8.15637 -8.15625,-11.34375 -9.54789,-7.58681 -16.44958,-18.78778 -17.53125,-31.0625 -0.0594,-11.33161 -4.78985,-22.21317 -12.21875,-30.65625 -9.22861,-8.41108 -17.47251,-18.93463 -19.53125,-31.5625 0.0217,-8.85279 -1.97209,-17.65581 -6.59375,-25.28125 -4.55672,-10.11343 -15.72057,-14.98625 -20.0625,-25.21875 z"
         id="path3535"
         style="color:#000000;fill:#e3e4e5;fill-opacity:1;fill-rule:evenodd;stroke:#000000;stroke-width:1.00054514;stroke-linecap:butt;stroke-linejoin:miter;stroke-miterlimit:4;stroke-opacity:1;stroke-dasharray:none;stroke-dashoffset:0;marker:none;visibility:visible;display:inline;overflow:visible;enable-background:accumulate" />
      <path
         d="m 41.295748,311.63645 c 0.20428,120.74472 -0.41112,241.50282 0.31223,362.23909 3.84688,108.35657 86.787312,207.32615 192.699862,230.20967 97.98283,23.8699 207.67231,-19.02712 262.97741,-103.62124 33.1221,-47.31073 45.3201,-105.86015 42.5889,-162.85245 0,-108.65836 0,-217.31672 0,-325.97507 -166.1928,0 -332.38553,0 -498.578402,0 z"
         id="Fondo"
         style="fill:#008f4c;fill-opacity:1;fill-rule:evenodd;stroke:none;stroke-width:3;marker:none;visibility:visible;display:inline;overflow:visible" />
      <path
         d="m 265.43914,629.12333 c -3.80085,8.95591 -13.57347,13.22081 -17.56233,22.0725 -4.04571,6.67411 -5.76366,14.37888 -5.74469,22.12721 -1.80218,11.05244 -9.01873,20.26309 -17.09728,27.62481 -6.50311,7.38974 -10.67142,16.91373 -10.72341,26.83163 -0.94688,10.74335 -6.98848,20.54691 -15.34652,27.1872 -3.03139,2.78973 -5.36,6.2291 -7.13983,9.92852 -4.0386,7.21032 -4.46292,15.48921 -5.90882,23.41272 -0.0736,3.67144 -6.27305,14.40223 0.62918,11.84311 69.01831,22.26748 140.50106,17.42609 213.12787,0 6.90223,2.55912 0.70279,-8.17167 0.62918,-11.84311 -1.4459,-7.92351 -1.87022,-16.2024 -5.90882,-23.41272 -1.77983,-3.69942 -4.10844,-7.13879 -7.13983,-9.92852 -8.35804,-6.64029 -14.39965,-16.44385 -15.34652,-27.1872 -0.052,-9.9179 -4.19294,-19.44189 -10.69606,-26.83163 -8.07855,-7.36172 -15.2951,-16.57237 -17.09728,-27.62481 0.019,-7.74833 -1.72633,-15.4531 -5.77204,-22.12721 -3.98886,-8.85169 -13.76148,-13.11659 -17.56233,-22.0725 z"
         id="path3528"
         style="color:#000000;fill:#0071bc;fill-opacity:1;fill-rule:evenodd;stroke:#000000;stroke-width:1.00054514;stroke-linecap:butt;stroke-linejoin:miter;stroke-miterlimit:4;stroke-opacity:1;stroke-dasharray:none;stroke-dashoffset:0;marker:none;visibility:visible;display:inline;overflow:visible;enable-background:accumulate" />
      <path
         d="m 41.45835,311.625 c 0.156611,105.76906 -0.134412,211.55208 0.03125,317.32098 l 498.5625,0 c 0,-105.76558 0,-211.55542 0,-317.32098 -166.19281,10e-6 -332.40088,0 -498.59375,0 z"
         id="Superior"
         style="fill:#e3e4e5;fill-opacity:1;fill-rule:evenodd;stroke:#000000;stroke-width:1.00054514;stroke-miterlimit:4;stroke-dasharray:none;marker:none;visibility:visible;display:inline;overflow:visible" />
      <path
         d="m 304.34425,534.97717 c -0.29764,-0.33484 26.55379,-0.66969 26.25615,-1.00453 -17.02638,-13.67787 -41.56794,-23.10678 -60.11357,-34.55761 -17.08486,-11.36683 -41.51598,-21.55339 -56.46544,-35.87271 -25.44264,-20.71081 -37.78947,-7.3451 -55.5907,7.85681 -12.27573,10.60965 -25.75209,20.04191 -40.83325,26.22977 l -7.64372,141.73162"
         id="path3495"
         style="fill:#008f4c;stroke:#000000;stroke-width:1.00054514px;stroke-linecap:butt;stroke-linejoin:miter;stroke-opacity:1" />
      <path
         d="m 495.1202,509.17148 c -10.79496,-4.30908 -21.33759,-9.23833 -31.62608,-14.64315 -11.25313,-6.40745 -22.92688,-12.07369 -33.79047,-19.13928 -6.66173,-5.08349 -14.5039,-8.07127 -21.46855,-12.65646 -5.27594,-2.92925 -9.36657,-7.89623 -14.8368,-10.26991 -9.9333,-1.96128 -16.42314,7.66128 -23.96299,12.25004 -11.91922,9.12869 -23.10162,19.40079 -35.74359,27.64538 -17.42345,10.06614 -130.25366,125.88966 -141.39112,142.66659 l 308.59969,0"
         id="path3497"
         style="fill:#008f4c;stroke:#000000;stroke-width:1.00054514px;stroke-linecap:butt;stroke-linejoin:miter;stroke-opacity:1" />
      <g
         transform="matrix(0.73704262,0,0,0.73704262,29.003586,103.69079)"
         id="g5967"
         style="stroke-width:1;stroke-miterlimit:4;stroke-dasharray:none">
        <g
           id="g5901"
           style="stroke-width:1;stroke-miterlimit:4;stroke-dasharray:none">
          <path
             d="m 105.75,573.28125 0,12.46875 c 0.054,25.32373 0.13055,50.6466 0.28125,75.96875 1.54689,43.86419 -5.44029,86.18281 18.0359,122.625 l 118.6516,0 c 0.6502,-63.41978 50.80396,-114.625 112.5625,-114.625 61.75847,0 111.88093,51.20533 112.53125,114.625 l 110.46194,0 c 30.675,-46.75545 28.64693,-103.66364 26.00681,-159.125 l 0,-51.9375 z"
             id="rect3540"
             style="fill:#eac102;fill-opacity:1;fill-rule:evenodd;stroke:#000000;stroke-width:1.35751307;stroke-miterlimit:4;stroke-opacity:1;stroke-dasharray:none" />
          <g
             id="g5837"
             style="stroke-width:1;stroke-miterlimit:4;stroke-dasharray:none">
            <path
               d="m 438.41667,707.60022 158.60698,0"
               id="path4607"
               style="fill:none;stroke:#000000;stroke-width:1.35751307;stroke-linecap:butt;stroke-linejoin:miter;stroke-miterlimit:4;stroke-opacity:1;stroke-dasharray:none" />
            <path
               d="m 456.3836,734.53629 132.28497,0"
               id="path4613"
               style="fill:none;stroke:#000000;stroke-width:1.35751307;stroke-linecap:butt;stroke-linejoin:miter;stroke-miterlimit:4;stroke-opacity:1;stroke-dasharray:none" />
            <path
               d="m 465.02553,762.40185 112.21072,0"
               id="path4619"
               style="fill:none;stroke:#000000;stroke-width:1.35751307;stroke-linecap:butt;stroke-linejoin:miter;stroke-miterlimit:4;stroke-opacity:1;stroke-dasharray:none" />
            <path
               d="m 106.02251,628.05572 498.02419,0"
               id="path4518"
               style="fill:none;stroke:#000000;stroke-width:1.35751307;stroke-linecap:butt;stroke-linejoin:miter;stroke-miterlimit:4;stroke-opacity:1;stroke-dasharray:none" />
            <path
               d="m 106.02339,600.7519 498.27734,0"
               id="path4520"
               style="fill:none;stroke:#000000;stroke-width:1.35751307;stroke-linecap:butt;stroke-linejoin:miter;stroke-miterlimit:4;stroke-opacity:1;stroke-dasharray:none" />
            <path
               d="m 105.61192,654.83049 498.90019,0"
               id="path4518-1"
               style="fill:none;stroke:#000000;stroke-width:1.35751307;stroke-linecap:butt;stroke-linejoin:miter;stroke-miterlimit:4;stroke-opacity:1;stroke-dasharray:none" />
            <path
               d="m 107.3774,681.10572 199.48315,0"
               id="path4518-2"
               style="fill:none;stroke:#000000;stroke-width:1.35751307;stroke-linecap:butt;stroke-linejoin:miter;stroke-miterlimit:4;stroke-opacity:1;stroke-dasharray:none" />
            <path
               d="m 112.49313,707.62337 159.63035,0"
               id="path4518-14"
               style="fill:none;stroke:#000000;stroke-width:1.35751307;stroke-linecap:butt;stroke-linejoin:miter;stroke-miterlimit:4;stroke-opacity:1;stroke-dasharray:none" />
            <path
               d="m 120.2353,735.33316 133.66205,0"
               id="path4518-22"
               style="fill:none;stroke:#000000;stroke-width:1.35751307;stroke-linecap:butt;stroke-linejoin:miter;stroke-miterlimit:4;stroke-opacity:1;stroke-dasharray:none" />
            <path
               d="m 132.77644,762.39794 112.73009,0"
               id="path4518-5"
               style="fill:none;stroke:#000000;stroke-width:1.35751307;stroke-linecap:butt;stroke-linejoin:miter;stroke-miterlimit:4;stroke-opacity:1;stroke-dasharray:none" />
            <path
               d="m 174.03772,573.71195 0,27.47116"
               id="path4677"
               style="fill:none;stroke:#000000;stroke-width:1.35751307;stroke-linecap:butt;stroke-linejoin:miter;stroke-miterlimit:4;stroke-opacity:1;stroke-dasharray:none" />
            <path
               d="m 285.75602,573.24476 0,27.64252"
               id="path4679"
               style="fill:none;stroke:#000000;stroke-width:1.35751307;stroke-linecap:butt;stroke-linejoin:miter;stroke-miterlimit:4;stroke-opacity:1;stroke-dasharray:none" />
            <path
               d="m 407.40484,573.04435 0,27.19807"
               id="path4681"
               style="fill:none;stroke:#000000;stroke-width:1.35751307;stroke-linecap:butt;stroke-linejoin:miter;stroke-miterlimit:4;stroke-opacity:1;stroke-dasharray:none" />
            <path
               d="m 524.70905,572.99367 0,27.27455"
               id="path4683"
               style="fill:none;stroke:#000000;stroke-width:1.35751307;stroke-linecap:butt;stroke-linejoin:miter;stroke-miterlimit:4;stroke-opacity:1;stroke-dasharray:none" />
            <g
               transform="matrix(0.99387635,0,0,1,369.14395,-4.99585)"
               id="g4868"
               style="stroke-width:1.00307596;stroke-miterlimit:4;stroke-dasharray:none">
              <path
                 d="m -247.56627,605.60343 0,27.46489"
                 id="path4701"
                 style="fill:none;stroke:#000000;stroke-width:1.36168873;stroke-linecap:butt;stroke-linejoin:miter;stroke-miterlimit:4;stroke-opacity:1;stroke-dasharray:none" />
              <path
                 d="m -189.4895,605.63176 0,27.43163"
                 id="path4703"
                 style="fill:none;stroke:#000000;stroke-width:1.36168873;stroke-linecap:butt;stroke-linejoin:miter;stroke-miterlimit:4;stroke-opacity:1;stroke-dasharray:none" />
              <path
                 d="m -131.474,606.08824 0,26.9792"
                 id="path4703-1"
                 style="fill:none;stroke:#000000;stroke-width:1.36168873;stroke-linecap:butt;stroke-linejoin:miter;stroke-miterlimit:4;stroke-opacity:1;stroke-dasharray:none" />
              <path
                 d="m -73.392011,605.73333 0,27.33096"
                 id="path4703-2"
                 style="fill:none;stroke:#000000;stroke-width:1.36168873;stroke-linecap:butt;stroke-linejoin:miter;stroke-miterlimit:4;stroke-opacity:1;stroke-dasharray:none" />
              <path
                 d="m -15.339782,605.85139 0,27.21394"
                 id="path4703-5"
                 style="fill:none;stroke:#000000;stroke-width:1.36168873;stroke-linecap:butt;stroke-linejoin:miter;stroke-miterlimit:4;stroke-opacity:1;stroke-dasharray:none" />
              <path
                 d="m 42.8526,605.46259 0,27.59931"
                 id="path4703-12"
                 style="fill:none;stroke:#000000;stroke-width:1.36168873;stroke-linecap:butt;stroke-linejoin:miter;stroke-miterlimit:4;stroke-opacity:1;stroke-dasharray:none" />
              <path
                 d="m 101.01523,605.395 0,27.6663"
                 id="path4703-4"
                 style="fill:none;stroke:#000000;stroke-width:1.36168873;stroke-linecap:butt;stroke-linejoin:miter;stroke-miterlimit:4;stroke-opacity:1;stroke-dasharray:none" />
              <path
                 d="m 159.08234,606.2404 0,26.82839"
                 id="path4703-3"
                 style="fill:none;stroke:#000000;stroke-width:1.36168873;stroke-linecap:butt;stroke-linejoin:miter;stroke-miterlimit:4;stroke-opacity:1;stroke-dasharray:none" />
              <path
                 d="m 217.14945,606.08825 0,26.97919"
                 id="path4703-27"
                 style="fill:none;stroke:#000000;stroke-width:1.36168873;stroke-linecap:butt;stroke-linejoin:miter;stroke-miterlimit:4;stroke-opacity:1;stroke-dasharray:none" />
            </g>
            <path
               d="m 150.59623,628.03387 0,26.82507"
               id="path4701-9"
               style="fill:none;stroke:#000000;stroke-width:1.35751307;stroke-linecap:butt;stroke-linejoin:miter;stroke-miterlimit:4;stroke-opacity:1;stroke-dasharray:none" />
            <path
               d="m 208.31735,628.06208 0,26.79205"
               id="path4703-31"
               style="fill:none;stroke:#000000;stroke-width:1.35751307;stroke-linecap:butt;stroke-linejoin:miter;stroke-miterlimit:4;stroke-opacity:1;stroke-dasharray:none" />
            <path
               d="m 265.97759,627.86759 0,26.9792"
               id="path4703-1-9"
               style="fill:none;stroke:#000000;stroke-width:1.35751307;stroke-linecap:butt;stroke-linejoin:miter;stroke-miterlimit:4;stroke-opacity:1;stroke-dasharray:none" />
            <path
               d="m 323.7039,627.51268 0,27.33096"
               id="path4703-2-8"
               style="fill:none;stroke:#000000;stroke-width:1.35751307;stroke-linecap:butt;stroke-linejoin:miter;stroke-miterlimit:4;stroke-opacity:1;stroke-dasharray:none" />
            <path
               d="m 381.40063,627.63074 0,27.21394"
               id="path4703-5-6"
               style="fill:none;stroke:#000000;stroke-width:1.35751307;stroke-linecap:butt;stroke-linejoin:miter;stroke-miterlimit:4;stroke-opacity:1;stroke-dasharray:none" />
            <path
               d="m 439.23667,627.89294 0,26.95967"
               id="path4703-12-5"
               style="fill:none;stroke:#000000;stroke-width:1.35751307;stroke-linecap:butt;stroke-linejoin:miter;stroke-miterlimit:4;stroke-opacity:1;stroke-dasharray:none" />
            <path
               d="m 497.04312,627.60836 0,27.23985"
               id="path4703-4-0"
               style="fill:none;stroke:#000000;stroke-width:1.35751307;stroke-linecap:butt;stroke-linejoin:miter;stroke-miterlimit:4;stroke-opacity:1;stroke-dasharray:none" />
            <path
               d="m 554.75465,628.01975 0,26.82839"
               id="path4703-3-2"
               style="fill:none;stroke:#000000;stroke-width:1.35751307;stroke-linecap:butt;stroke-linejoin:miter;stroke-miterlimit:4;stroke-opacity:1;stroke-dasharray:none" />
            <path
               d="m 403.67056,681.10572 197.54141,0"
               id="path4601"
               style="fill:none;stroke:#000000;stroke-width:1.35751307;stroke-linecap:butt;stroke-linejoin:miter;stroke-miterlimit:4;stroke-opacity:1;stroke-dasharray:none" />
            <path
               d="m 123.10992,654.74454 0,26.39851"
               id="path4701-2"
               style="fill:none;stroke:#000000;stroke-width:1.35751307;stroke-linecap:butt;stroke-linejoin:miter;stroke-miterlimit:4;stroke-opacity:1;stroke-dasharray:none" />
            <path
               d="m 180.83105,654.98965 0,26.15247"
               id="path4703-48"
               style="fill:none;stroke:#000000;stroke-width:1.35751307;stroke-linecap:butt;stroke-linejoin:miter;stroke-miterlimit:4;stroke-opacity:1;stroke-dasharray:none" />
            <path
               d="m 238.49128,654.79507 0,26.3398"
               id="path4703-1-6"
               style="fill:none;stroke:#000000;stroke-width:1.35751307;stroke-linecap:butt;stroke-linejoin:miter;stroke-miterlimit:4;stroke-opacity:1;stroke-dasharray:none" />
            <path
               d="m 296.21759,654.44023 0,26.69142"
               id="path4703-2-5"
               style="fill:none;stroke:#000000;stroke-width:1.35751307;stroke-linecap:butt;stroke-linejoin:miter;stroke-miterlimit:4;stroke-opacity:1;stroke-dasharray:none" />
            <path
               d="m 353.91433,654.57782 0,15.49597"
               id="path4703-5-0"
               style="fill:none;stroke:#000000;stroke-width:1.35751307;stroke-linecap:butt;stroke-linejoin:miter;stroke-miterlimit:4;stroke-opacity:1;stroke-dasharray:none" />
            <path
               d="m 411.75036,654.60355 0,26.53323"
               id="path4703-12-9"
               style="fill:none;stroke:#000000;stroke-width:1.35751307;stroke-linecap:butt;stroke-linejoin:miter;stroke-miterlimit:4;stroke-opacity:1;stroke-dasharray:none" />
            <path
               d="m 469.55683,654.31897 0,26.81341"
               id="path4703-4-00"
               style="fill:none;stroke:#000000;stroke-width:1.35751307;stroke-linecap:butt;stroke-linejoin:miter;stroke-miterlimit:4;stroke-opacity:1;stroke-dasharray:none" />
            <path
               d="m 527.26835,654.29635 0,26.82839"
               id="path4703-3-6"
               style="fill:none;stroke:#000000;stroke-width:1.35751307;stroke-linecap:butt;stroke-linejoin:miter;stroke-miterlimit:4;stroke-opacity:1;stroke-dasharray:none" />
            <path
               d="m 584.97988,654.79508 0,26.33979"
               id="path4703-27-1"
               style="fill:none;stroke:#000000;stroke-width:1.35751307;stroke-linecap:butt;stroke-linejoin:miter;stroke-miterlimit:4;stroke-opacity:1;stroke-dasharray:none" />
            <path
               d="m 150.59655,680.78789 0,26.86165"
               id="path4701-93"
               style="fill:none;stroke:#000000;stroke-width:1.35751307;stroke-linecap:butt;stroke-linejoin:miter;stroke-miterlimit:4;stroke-opacity:1;stroke-dasharray:none" />
            <path
               d="m 208.31768,680.8161 0,26.82863"
               id="path4703-44"
               style="fill:none;stroke:#000000;stroke-width:1.35751307;stroke-linecap:butt;stroke-linejoin:miter;stroke-miterlimit:4;stroke-opacity:1;stroke-dasharray:none" />
            <path
               d="m 265.97791,680.65884 0,26.9792"
               id="path4703-1-60"
               style="fill:none;stroke:#000000;stroke-width:1.35751307;stroke-linecap:butt;stroke-linejoin:miter;stroke-miterlimit:4;stroke-opacity:1;stroke-dasharray:none" />
            <path
               d="m 439.23699,680.95385 0,26.69471"
               id="path4703-12-8"
               style="fill:none;stroke:#000000;stroke-width:1.35751307;stroke-linecap:butt;stroke-linejoin:miter;stroke-miterlimit:4;stroke-opacity:1;stroke-dasharray:none" />
            <path
               d="m 497.04346,680.73283 0,26.91244"
               id="path4703-4-4"
               style="fill:none;stroke:#000000;stroke-width:1.35751307;stroke-linecap:butt;stroke-linejoin:miter;stroke-miterlimit:4;stroke-opacity:1;stroke-dasharray:none" />
            <path
               d="m 554.75499,680.811 0,26.82839"
               id="path4703-3-9"
               style="fill:none;stroke:#000000;stroke-width:1.35751307;stroke-linecap:butt;stroke-linejoin:miter;stroke-miterlimit:4;stroke-opacity:1;stroke-dasharray:none" />
            <path
               d="m 123.09369,707.88546 0,27.46489"
               id="path4701-8"
               style="fill:none;stroke:#000000;stroke-width:1.35751307;stroke-linecap:butt;stroke-linejoin:miter;stroke-miterlimit:4;stroke-opacity:1;stroke-dasharray:none" />
            <path
               d="m 180.81482,707.91379 0,27.43163"
               id="path4703-29"
               style="fill:none;stroke:#000000;stroke-width:1.35751307;stroke-linecap:butt;stroke-linejoin:miter;stroke-miterlimit:4;stroke-opacity:1;stroke-dasharray:none" />
            <path
               d="m 238.47505,707.71939 0,27.6186"
               id="path4703-1-1"
               style="fill:none;stroke:#000000;stroke-width:1.35751307;stroke-linecap:butt;stroke-linejoin:miter;stroke-miterlimit:4;stroke-opacity:1;stroke-dasharray:none" />
            <path
               d="m 469.5406,707.6619 0,26.81341"
               id="path4703-4-40"
               style="fill:none;stroke:#000000;stroke-width:1.35751307;stroke-linecap:butt;stroke-linejoin:miter;stroke-miterlimit:4;stroke-opacity:1;stroke-dasharray:none" />
            <path
               d="m 527.25212,707.21322 0,27.6805"
               id="path4703-3-7"
               style="fill:none;stroke:#000000;stroke-width:1.35751307;stroke-linecap:butt;stroke-linejoin:miter;stroke-miterlimit:4;stroke-opacity:1;stroke-dasharray:none" />
            <path
               d="m 584.96365,707.06103 0,27.83138"
               id="path4703-27-6"
               style="fill:none;stroke:#000000;stroke-width:1.35751307;stroke-linecap:butt;stroke-linejoin:miter;stroke-miterlimit:4;stroke-opacity:1;stroke-dasharray:none" />
            <path
               d="m 150.60186,734.9522 0,27.46489"
               id="path4701-5"
               style="fill:none;stroke:#000000;stroke-width:1.35751307;stroke-linecap:butt;stroke-linejoin:miter;stroke-miterlimit:4;stroke-opacity:1;stroke-dasharray:none" />
            <path
               d="m 208.32299,734.98053 0,27.43163"
               id="path4703-42"
               style="fill:none;stroke:#000000;stroke-width:1.35751307;stroke-linecap:butt;stroke-linejoin:miter;stroke-miterlimit:4;stroke-opacity:1;stroke-dasharray:none" />
            <path
               d="m 497.04877,734.74377 0,27.6663"
               id="path4703-4-7"
               style="fill:none;stroke:#000000;stroke-width:1.35751307;stroke-linecap:butt;stroke-linejoin:miter;stroke-miterlimit:4;stroke-opacity:1;stroke-dasharray:none" />
            <path
               d="m 554.7603,734.72137 0,27.68084"
               id="path4703-3-26"
               style="fill:none;stroke:#000000;stroke-width:1.35751307;stroke-linecap:butt;stroke-linejoin:miter;stroke-miterlimit:4;stroke-opacity:1;stroke-dasharray:none" />
            <path
               d="m 180.81482,762.25247 0,22.04987"
               id="path4703-54"
               style="fill:none;stroke:#000000;stroke-width:1.35751307;stroke-linecap:butt;stroke-linejoin:miter;stroke-miterlimit:4;stroke-opacity:1;stroke-dasharray:none" />
            <path
               d="m 238.47505,762.61939 0,21.68621"
               id="path4703-1-12"
               style="fill:none;stroke:#000000;stroke-width:1.35751307;stroke-linecap:butt;stroke-linejoin:miter;stroke-miterlimit:4;stroke-opacity:1;stroke-dasharray:none" />
            <path
               d="m 469.5406,762.06216 0,22.2385"
               id="path4703-4-6"
               style="fill:none;stroke:#000000;stroke-width:1.35751307;stroke-linecap:butt;stroke-linejoin:miter;stroke-miterlimit:4;stroke-opacity:1;stroke-dasharray:none" />
            <path
               d="m 527.25212,762.7417 0,21.56498"
               id="path4703-3-0"
               style="fill:none;stroke:#000000;stroke-width:1.35751307;stroke-linecap:butt;stroke-linejoin:miter;stroke-miterlimit:4;stroke-opacity:1;stroke-dasharray:none" />
          </g>
        </g>
        <g
           transform="matrix(0.99387635,0,0,1,334.06943,-232.31926)"
           id="g4510"
           style="stroke-width:1.00307596;stroke-miterlimit:4;stroke-dasharray:none">
          <path
             d="m 21.232344,855.05584 c -88.128827,0 -159.773524,72.08926 -161.718754,161.78126 l 48.531247,0 c 1.93134,-62.26237 51.86547,-112.12501 113.187507,-112.12501 61.322057,0 111.256166,49.86264 113.187496,112.12501 l 48.53125,0 C 181.00587,927.1451 109.36118,855.05584 21.232344,855.05584 z"
             id="path3543-4"
             style="fill:#eac102;fill-opacity:1;stroke:#000000;stroke-width:1.36168873;stroke-miterlimit:4;stroke-opacity:1;stroke-dasharray:none" />
          <path
             d="m 125.58826,974.39497 43.80964,-19.76711 m -67.81022,-15.55805 33.73402,-35.60747 m -71.19366,9.99449 18.727987,-46.20516 m -222.427597,140.03673 47.772817,0 m 9.571305,-34.45464 -44.121882,-19.14263 m 68.122461,-16.49477 -33.734025,-35.29523 m 72.130384,10.61897 -18.727983,-46.20516 m 59.790833,-11.01233 0,48.87092 m 161.11621,103.11487 -48.39731,0"
             id="path3671-7"
             style="fill:none;stroke:#000000;stroke-width:1.36168873;stroke-linecap:butt;stroke-linejoin:miter;stroke-miterlimit:4;stroke-opacity:1;stroke-dasharray:none" />
        </g>
      </g>
      <g
         transform="translate(1.0617179,0.03164556)"
         id="Bordura_Santiago">
        <path
           d="m 40.07278,311.59335 c 0.66861,124.59167 -1.04369,249.27347 1.15625,373.8125 9.41744,114.86702 108.4395,214.364 223.375,223.99999 92.79698,9.7595 188.96175,-37.23939 237.34375,-117.84374 33.28746,-51.47046 39.65549,-114.39168 36.71875,-174.21875 0,-101.91017 0,-203.83986 0,-305.75 -166.19791,0 -332.39583,0 -498.59375,0 z m 83.46875,100.0625 c 110.63275,0 221.24223,0 331.875,0 0,67.87458 -2e-5,135.75041 0,203.625 1.95489,39.84625 -2.27906,81.75066 -24.4375,116.03125 -32.20638,53.68442 -96.19668,85.00005 -157.96875,78.5 -76.50897,-6.41783 -142.44986,-72.71457 -148.71875,-149.21875 -1.46443,-82.94597 -0.30492,-165.95648 -0.75,-248.9375 z"
           id="path2273"
           style="fill:#0071bc;fill-opacity:1;fill-rule:evenodd;stroke:#000000;stroke-width:1.00054514;stroke-linecap:butt;stroke-linejoin:miter;stroke-miterlimit:4;stroke-opacity:1;stroke-dasharray:none;stroke-dashoffset:0;marker:none;visibility:visible;display:inline;overflow:visible;enable-background:accumulate" />
        <g
           transform="matrix(0.247373,0,0,0.247373,122.62668,240.98582)"
           id="g5903"
           style="fill:#eac102;fill-opacity:1">
          <path
             d="m -44.09673,371.20662 c 1.24364,-8.84115 -2.735999,-12.32403 -12.68509,-10.71655 -23.629089,6.69784 -48.75054,9.9128 -74.86691,9.37698 3.48219,9.10906 7.2131,19.82561 10.69528,32.41755 2.98473,8.84115 6.96436,16.61064 11.69018,23.5764 10.943997,-4.01871 19.649453,-12.59194 26.36509,-25.4518 0.746179,-2.94705 3.233455,-4.82244 6.96436,-6.16201 7.959273,-2.14331 15.172366,-5.35827 22.136731,-9.64489 l 0.248723,0 c 5.472002,-3.48288 8.456729,-8.03741 9.451636,-13.39568 z"
             id="path16935"
             style="fill:#eac102;fill-opacity:1;stroke:#000000;stroke-width:2.02234054;stroke-miterlimit:4;stroke-opacity:1;stroke-dasharray:none" />
          <path
             d="m -87.872726,447.29409 c -8.456728,-5.62618 -15.669814,-12.85985 -21.390544,-21.43309 -4.72582,-6.96576 -8.70545,-14.73525 -11.69018,-23.5764 -3.48218,-12.59194 -7.21309,-23.30849 -10.69528,-32.41755 -9.45163,-22.77266 -19.40072,-34.29295 -30.34472,-34.82877 -10.944,0.53582 -20.89309,12.05611 -30.34473,34.82877 -3.48218,9.10906 -7.21309,19.82561 -10.69527,32.41755 -2.98473,8.84115 -6.96436,16.61064 -11.44145,23.5764 -5.96946,8.57324 -13.18255,15.80691 -21.39055,21.43309 -2.23854,11.7882 0.74619,18.21813 8.70546,19.5577 13.68,-15.80691 25.86763,-35.09669 36.81163,-58.13726 -9.45163,25.18388 -20.89309,46.34906 -34.07563,63.22762 7.21309,0.80374 11.93891,4.55453 13.92872,11.25237 7.21309,-13.12777 13.68,-26.79137 19.152,-41.52661 0.99491,-2.67914 1.74109,-5.09036 2.48728,-7.50159 0.24872,-0.53582 0.49745,-1.07165 0.49745,-1.60748 1.24364,-3.48287 2.23855,-6.96575 3.23345,-10.44863 2.736,-12.59194 3.97964,-25.4518 3.48219,-38.31165 0.49745,12.85985 -0.74619,25.71971 -3.48219,38.31165 -0.9949,3.48288 -1.98981,6.96576 -3.23345,10.44863 0,0.53583 -0.24873,1.07166 -0.49745,1.60748 -0.74619,2.41123 -1.49237,4.82245 -2.48728,7.50159 -2.98472,18.75395 -8.45672,34.82877 -16.16727,47.68863 -0.49745,0.80373 -0.99491,1.60747 -1.49236,2.41121 0.24872,10.18073 4.97454,13.93151 13.92872,10.98447 6.46691,-23.04058 11.44146,-46.61698 15.17237,-70.99712 3.23345,-18.21813 4.97454,-36.97208 5.472,-55.99395 l 0.74618,21.43309 c -1.49236,36.97208 -5.96946,73.14042 -14.17746,108.50502 3.97964,7.50158 9.45164,9.37698 16.416,5.62619 0.49746,-6.16201 0.74619,-12.32403 1.24364,-18.48604 1.74109,-42.86618 4.47709,-85.73236 8.208,-128.59854 3.73091,42.86618 6.46691,85.73236 8.45673,128.59854 0.24872,6.16201 0.74618,12.32403 0.99491,18.48604 7.21309,3.75079 12.68509,1.87539 16.41599,-5.62619 -7.95927,-35.3646 -12.68509,-71.53294 -14.17745,-108.50502 l 0.99491,-21.43309 c 0.24873,19.02187 2.23855,37.77582 5.472,55.99395 3.48218,24.38014 8.70546,47.95654 14.92364,70.99712 9.20291,2.94704 13.67999,-0.80374 13.92872,-10.98447 -0.49745,-0.80374 -0.9949,-1.60748 -1.49236,-2.41121 -7.71054,-12.85986 -12.93382,-28.93468 -16.16727,-47.68863 -0.74619,-2.67914 -1.74109,-5.09036 -2.48727,-7.50159 -0.24873,-0.53582 -0.24873,-1.07165 -0.49746,-1.60748 -0.99491,-3.48287 -2.23855,-6.96575 -2.98473,-10.44863 -2.98472,-12.59194 -4.22836,-25.4518 -3.48218,-38.31165 -0.74618,12.85985 0.49746,25.71971 3.48218,38.31165 0.74618,3.48288 1.98982,6.96576 2.98473,10.44863 0.24873,0.53583 0.24873,1.07166 0.49746,1.60748 0.74618,2.41123 1.74108,4.82245 2.48727,7.50159 5.472,14.73524 11.93891,28.39884 19.40072,41.52661 1.7411,-6.69784 6.46691,-10.44863 13.928729,-11.25237 -13.431269,-16.87856 -24.623999,-38.04374 -34.324359,-63.22762 10.944,23.04057 23.13163,42.33035 37.060358,58.13726 7.710549,-1.33957 10.695276,-7.7695 8.705456,-19.5577 z"
             id="path16937"
             style="fill:#eac102;fill-opacity:1;stroke:#000000;stroke-width:2.02234054;stroke-miterlimit:4;stroke-opacity:1;stroke-dasharray:none" />
          <path
             d="m -87.872726,447.29409 c 1.98982,11.7882 -0.994907,18.21813 -8.705456,19.5577 12.187639,13.93151 25.618908,24.91596 40.04509,32.95337 4.725817,-3.75079 5.472002,-9.37697 2.487275,-16.87856 3.979634,-5.35827 4.974546,-12.32402 2.735999,-20.62935 -14.177454,-2.94704 -26.365088,-7.76949 -36.562908,-15.00316 z"
             id="path16939"
             style="fill:#eac102;fill-opacity:1;stroke:#000000;stroke-width:2.02234054;stroke-miterlimit:4;stroke-opacity:1;stroke-dasharray:none" />
          <path
             d="m -36.137458,464.44056 c -5.223269,-0.53582 -10.446543,-1.33956 -15.17236,-2.14331 2.238547,8.30533 1.243635,15.27108 -2.735999,20.62935 2.984727,7.50159 2.238542,13.12777 -2.487275,16.87856 9.202907,5.09036 18.654548,8.84115 28.852363,11.78821 1.989819,0.26791 3.73091,0.26791 5.223273,0.26791 7.213089,-0.53583 10.446543,-5.35827 9.700364,-14.19942 l 0,0 c -0.497456,-3.75079 -2.735998,-5.89411 -6.964365,-6.96576 -3.730906,-1.60748 -3.979634,-2.67914 -0.497456,-3.75079 3.233454,-1.33957 5.223274,-3.75079 5.223274,-7.50158 0,-9.10907 -6.96436,-13.93151 -21.141819,-15.00317 z"
             id="path16941"
             style="fill:#eac102;fill-opacity:1;stroke:#000000;stroke-width:2.02234054;stroke-miterlimit:4;stroke-opacity:1;stroke-dasharray:none" />
          <path
             d="m -22.457456,522.84574 c -3.73091,-3.48288 -3.73091,-6.96576 0,-10.98446 -1.492363,0 -3.233454,0 -5.223273,-0.26791 -10.197815,-2.94706 -19.649456,-6.69785 -28.852363,-11.78821 -14.426182,-8.03741 -27.857451,-19.02186 -40.04509,-32.95337 -13.928728,-15.80691 -26.116358,-35.09669 -37.060358,-58.13726 9.70036,25.18388 20.89309,46.34906 34.324359,63.22762 2.735999,3.48287 5.72073,6.96575 8.95418,10.44863 8.705456,10.71654 18.903276,19.28978 30.593454,26.25553 11.192727,6.42993 23.629089,10.98447 37.309091,14.19943 z"
             id="path16943"
             style="fill:#eac102;fill-opacity:1;stroke:#000000;stroke-width:2.02234054;stroke-miterlimit:4;stroke-opacity:1;stroke-dasharray:none" />
          <path
             d="m -59.766547,508.64631 c -11.690178,-6.96575 -21.887998,-15.53899 -30.593454,-26.25553 -3.23345,-3.48288 -6.218181,-6.96576 -8.95418,-10.44863 -7.461819,0.80374 -12.187629,4.55453 -13.928729,11.25237 6.21819,10.98446 13.431273,21.43309 21.390546,31.07798 5.969458,7.50158 11.690183,14.19943 17.162185,20.09352 5.471996,-0.53582 8.705451,-4.55453 8.954179,-12.05611 5.472002,-2.67913 7.461816,-7.23367 5.969453,-13.6636 z"
             id="path16945"
             style="fill:#eac102;fill-opacity:1;stroke:#000000;stroke-width:2.02234054;stroke-miterlimit:4;stroke-opacity:1;stroke-dasharray:none" />
          <path
             d="m -104.28873,569.73062 c 6.715641,1.60749 12.933822,-1.33956 18.654552,-9.64489 9.700358,-1.07165 12.68509,-6.42992 8.705451,-16.07482 -14.177453,-15.8069 -26.613813,-33.22128 -38.055273,-52.24316 -0.24873,10.18073 -4.72581,13.93151 -13.92872,10.98447 1.74109,5.62618 3.23345,11.52028 4.97454,17.41438 4.97454,17.6823 11.44145,34.29295 19.64945,49.56402 z"
             id="path16947"
             style="fill:#eac102;fill-opacity:1;stroke:#000000;stroke-width:2.02234054;stroke-miterlimit:4;stroke-opacity:1;stroke-dasharray:none" />
          <path
             d="m -85.634178,560.08573 c -5.72073,8.30533 -11.938911,11.25238 -18.654552,9.64489 7.959276,15.27108 17.65964,29.20259 29.101095,42.06245 5.472002,5.09035 11.441454,5.62618 17.659636,1.87539 5.471996,-2.94705 6.715637,-7.50158 4.228361,-13.6636 -0.746179,-2.94704 0.497456,-3.75079 3.730911,-2.41121 3.233454,2.41121 6.466909,2.1433 9.700364,-0.80375 4.725817,-7.76949 4.228361,-14.19942 -1.492364,-18.75395 -0.248728,0.26791 -0.248728,0.53582 0,0.80374 -12.68509,-10.71655 -24.624001,-22.23684 -35.568,-34.82878 3.979639,9.6449 0.994907,15.00317 -8.705451,16.07482 z"
             id="path16949"
             style="fill:#eac102;fill-opacity:1;stroke:#000000;stroke-width:2.02234054;stroke-miterlimit:4;stroke-opacity:1;stroke-dasharray:none" />
          <path
             d="m -31.660363,564.37235 c -1.741091,-0.26791 -3.482183,-0.80374 -5.72073,-1.33956 -10.197815,-3.21497 -22.634182,-12.85986 -37.309086,-28.66677 -5.472002,-5.89409 -11.192727,-12.59194 -17.162185,-20.09352 -7.959273,-9.64489 -15.172356,-20.09352 -21.390546,-31.07798 -7.46181,-13.12777 -13.92872,-26.79137 -19.40072,-41.52661 3.23345,18.75395 8.45673,34.82877 16.16727,47.68863 0.49746,0.80373 0.99491,1.60747 1.49236,2.41121 11.44146,19.02188 23.87782,36.43626 38.055273,52.24316 10.943999,12.59194 22.88291,24.11223 35.568,34.82878 -0.248728,-0.26792 -0.248728,-0.53583 0,-0.80374 0.248728,-5.8941 3.482183,-10.44863 9.700364,-13.6636 z"
             id="path16951"
             style="fill:#eac102;fill-opacity:1;stroke:#000000;stroke-width:2.02234054;stroke-miterlimit:4;stroke-opacity:1;stroke-dasharray:none" />
          <path
             d="m -37.381093,563.03279 c 2.238547,0.53582 3.979639,1.07165 5.72073,1.33956 8.208,1.07165 10.943999,-5.09036 7.959272,-18.21812 6.218181,-0.80375 8.95418,-4.82245 8.208001,-11.52029 -0.248728,-5.09036 -2.487276,-9.10907 -6.964366,-11.7882 -13.680002,-3.21496 -26.116364,-7.7695 -37.309091,-14.19943 1.492363,6.42993 -0.497451,10.98447 -5.969453,13.6636 -0.248728,7.50158 -3.482183,11.52029 -8.954179,12.05611 14.674904,15.80691 27.111271,25.4518 37.309086,28.66677 z"
             id="path16953"
             style="fill:#eac102;fill-opacity:1;stroke:#000000;stroke-width:2.02234054;stroke-miterlimit:4;stroke-opacity:1;stroke-dasharray:none" />
          <path
             d="m -149.30836,375.76115 -0.99491,21.43309 c 1.49236,36.97208 6.21818,73.14042 14.17745,108.50502 0.49746,1.8754 0.99492,3.75079 1.24364,5.89411 5.22327,23.30848 12.18764,44.47366 21.14182,63.49553 7.71054,16.07481 16.913455,30.81007 27.608726,43.66992 1.989819,-4.82245 5.471997,-6.96575 10.943999,-6.96575 -11.441455,-12.85986 -21.141819,-26.79137 -29.101095,-42.06245 -8.208,-15.27107 -14.67491,-31.88172 -19.64945,-49.56402 -1.74109,-5.8941 -3.23345,-11.7882 -4.97454,-17.41438 -6.21818,-23.04058 -11.44146,-46.61698 -14.92364,-70.99712 -3.23345,-18.21813 -5.22327,-36.97208 -5.472,-55.99395 z"
             id="path16955"
             style="fill:#eac102;fill-opacity:1;stroke:#000000;stroke-width:2.02234054;stroke-miterlimit:4;stroke-opacity:1;stroke-dasharray:none" />
          <path
             d="m -173.68363,397.19424 -0.74618,-21.43309 c -0.49746,19.02187 -2.23855,37.77582 -5.472,55.99395 -3.73091,24.38014 -8.70546,47.95654 -15.17237,70.99712 -1.49236,5.62618 -3.23345,11.52028 -4.97454,17.41438 -4.97455,17.6823 -11.44146,34.29295 -19.40073,49.56402 -8.208,15.27108 -17.90836,29.20259 -29.10109,42.06245 5.22328,0 8.95418,2.1433 10.69528,6.96575 10.69527,-12.85985 19.89818,-27.59511 27.60872,-43.66992 8.95418,-19.02187 16.16727,-40.18705 21.14182,-63.49553 0.49745,-2.14332 0.99491,-4.01871 1.24363,-5.89411 8.208,-35.3646 12.6851,-71.53294 14.17746,-108.50502 z"
             id="path16957"
             style="fill:#eac102;fill-opacity:1;stroke:#000000;stroke-width:2.02234054;stroke-miterlimit:4;stroke-opacity:1;stroke-dasharray:none" />
          <path
             d="m -203.03345,402.2846 c 3.48218,-12.59194 7.21309,-23.30849 10.69527,-32.41755 -26.11636,0.53582 -50.98908,-2.67914 -74.8669,-9.37698 -9.70037,-1.60748 -13.92873,1.8754 -12.43637,10.71655 0.74619,5.35827 3.97964,9.9128 9.20291,13.39568 l 0.49746,0 c 6.71563,4.28662 13.92872,7.50158 21.888,9.64489 l 0,0 c 3.73091,1.33957 6.21818,3.21496 7.21309,6.16201 6.46691,12.85986 15.17236,21.43309 26.36509,25.4518 4.47709,-6.96576 8.45672,-14.73525 11.44145,-23.5764 z"
             id="path16959"
             style="fill:#eac102;fill-opacity:1;stroke:#000000;stroke-width:2.02234054;stroke-miterlimit:4;stroke-opacity:1;stroke-dasharray:none" />
          <path
             d="m -272.42835,462.29725 c -4.97455,0.80375 -9.94909,1.60749 -15.4211,2.14331 -14.17745,1.07166 -21.14181,5.8941 -21.14181,15.00317 0,3.75079 1.98981,6.16201 5.472,7.50158 3.23345,1.07165 3.23345,2.14331 -0.49746,3.75079 -4.47709,1.07165 -6.71563,3.21497 -6.96436,6.96576 l 0,0 c -0.99491,8.84115 2.23854,13.66359 9.45164,14.19942 1.49236,0 3.48218,0 5.47199,-0.26791 9.94909,-2.94706 19.40073,-6.69785 28.60364,-11.78821 -4.72581,-3.75079 -5.472,-9.37697 -2.23854,-16.87856 -4.22837,-5.35827 -4.97455,-12.32402 -2.736,-20.62935 z"
             id="path16961"
             style="fill:#eac102;fill-opacity:1;stroke:#000000;stroke-width:2.02234054;stroke-miterlimit:4;stroke-opacity:1;stroke-dasharray:none" />
          <path
             d="m -227.15999,466.85179 c -7.95927,-1.33957 -10.944,-7.7695 -8.70546,-19.5577 -10.44654,7.23367 -22.63418,12.05612 -36.5629,15.00316 -2.23855,8.30533 -1.49237,15.27108 2.736,20.62935 -3.23346,7.50159 -2.48727,13.12777 2.23854,16.87856 14.42618,-8.03741 27.85745,-19.02186 40.29382,-32.95337 z"
             id="path16963"
             style="fill:#eac102;fill-opacity:1;stroke:#000000;stroke-width:2.02234054;stroke-miterlimit:4;stroke-opacity:1;stroke-dasharray:none" />
          <path
             d="m -231.88581,514.2725 c 7.71054,-9.64489 14.92364,-20.09352 21.39054,-31.07798 -1.98981,-6.69784 -6.71563,-10.44863 -13.92872,-11.25237 -2.98473,3.48287 -5.96946,6.96575 -8.95418,10.44863 -8.70546,10.71654 -18.90328,19.28978 -30.84218,26.25553 -1.49237,6.42993 0.49745,10.98447 5.96945,13.6636 0.24873,7.50158 3.48218,11.52029 8.95418,12.05611 5.472,-5.89409 11.19273,-12.59194 17.41091,-20.09352 z"
             id="path16965"
             style="fill:#eac102;fill-opacity:1;stroke:#000000;stroke-width:2.02234054;stroke-miterlimit:4;stroke-opacity:1;stroke-dasharray:none" />
          <path
             d="m -210.49527,483.19452 c -6.4669,10.98446 -13.68,21.43309 -21.39054,31.07798 -6.21818,7.50158 -11.93891,14.19943 -17.41091,20.09352 -14.67491,15.80691 -27.11127,25.4518 -37.30909,28.66677 -1.98982,0.53582 -3.97963,1.07165 -5.472,1.33956 5.96945,3.21497 9.20291,7.7695 9.70037,13.6636 0,0.26791 0,0.53582 0,0.80374 12.68509,-10.71655 24.37527,-22.23684 35.56799,-34.82878 13.92873,-15.8069 26.61382,-33.22128 37.80655,-52.24316 0.49745,-0.80374 0.99491,-1.60748 1.49236,-2.41121 7.71055,-12.85986 13.18255,-28.93468 16.16727,-47.68863 -5.472,14.73524 -11.93891,28.39884 -19.152,41.52661 z"
             id="path16967"
             style="fill:#eac102;fill-opacity:1;stroke:#000000;stroke-width:2.02234054;stroke-miterlimit:4;stroke-opacity:1;stroke-dasharray:none" />
          <path
             d="m -233.37817,482.39078 c 2.98472,-3.48288 5.96945,-6.96576 8.95418,-10.44863 13.18254,-16.87856 24.624,-38.04374 34.07563,-63.22762 -10.944,23.04057 -23.13163,42.33035 -36.81163,58.13726 -12.43637,13.93151 -25.86764,24.91596 -40.29382,32.95337 -9.20291,5.09036 -18.65455,8.84115 -28.60364,11.78821 -1.98981,0.26791 -3.97963,0.26791 -5.47199,0.26791 3.73091,4.0187 3.73091,7.50158 0,10.98446 13.67999,-3.21496 26.11636,-7.7695 37.30909,-14.19943 11.9389,-6.96575 22.13672,-15.53899 30.84218,-26.25553 z"
             id="path16969"
             style="fill:#eac102;fill-opacity:1;stroke:#000000;stroke-width:2.02234054;stroke-miterlimit:4;stroke-opacity:1;stroke-dasharray:none" />
          <path
             d="m -264.22035,508.64631 c -11.19273,6.42993 -23.6291,10.98447 -37.30909,14.19943 -4.47709,2.67913 -6.71564,6.69784 -6.96437,11.7882 -0.49745,6.69784 1.98982,10.71654 8.208,11.52029 -2.736,13.12776 -0.24873,19.28977 8.208,18.21812 1.49237,-0.26791 3.48218,-0.80374 5.472,-1.33956 10.19782,-3.21497 22.63418,-12.85986 37.30909,-28.66677 -5.472,-0.53582 -8.70545,-4.55453 -8.95418,-12.05611 -5.472,-2.67913 -7.46182,-7.23367 -5.96945,-13.6636 z"
             id="path16971"
             style="fill:#eac102;fill-opacity:1;stroke:#000000;stroke-width:2.02234054;stroke-miterlimit:4;stroke-opacity:1;stroke-dasharray:none" />
          <path
             d="m -282.37744,578.03595 c -5.96946,4.55453 -6.46691,10.98446 -1.7411,18.75395 3.23346,2.94705 6.46691,3.21496 9.9491,0.80375 2.98472,-1.33958 4.22836,-0.53583 3.48218,2.41121 -2.48728,6.16202 -0.99491,10.71655 4.22836,13.6636 6.46691,3.75079 12.18763,3.21496 17.90836,-1.87539 11.19273,-12.85986 20.89309,-26.79137 29.10109,-42.06245 -6.96436,1.60749 -13.18254,-1.33956 -18.90327,-9.64489 -9.70036,-1.07165 -12.68509,-6.42992 -8.45673,-16.07482 -11.19272,12.59194 -22.8829,24.11223 -35.56799,34.82878 0,-0.26792 0,-0.53583 0,-0.80374 z"
             id="path16973"
             style="fill:#eac102;fill-opacity:1;stroke:#000000;stroke-width:2.02234054;stroke-miterlimit:4;stroke-opacity:1;stroke-dasharray:none" />
          <path
             d="m -238.35272,560.08573 c 5.72073,8.30533 11.93891,11.25238 18.90327,9.64489 7.95927,-15.27107 14.42618,-31.88172 19.40073,-49.56402 1.74109,-5.8941 3.48218,-11.7882 4.97454,-17.41438 -8.95418,2.94704 -13.68,-0.80374 -13.92872,-10.98447 -11.19273,19.02188 -23.87782,36.43626 -37.80655,52.24316 -4.22836,9.6449 -1.24363,15.00317 8.45673,16.07482 z"
             id="path16975"
             style="fill:#eac102;fill-opacity:1;stroke:#000000;stroke-width:2.02234054;stroke-miterlimit:4;stroke-opacity:1;stroke-dasharray:none" />
          <path
             d="m -134.88218,511.59337 c -0.24872,-2.14332 -0.74618,-4.01871 -1.24364,-5.89411 -3.7309,7.50158 -9.2029,9.37698 -16.41599,5.62619 1.49236,24.11223 3.23345,48.22446 5.472,71.80086 6.4669,-0.53583 10.69527,-3.21497 11.93891,-8.03741 1.24363,-1.60749 2.73599,-1.60749 4.22836,0 7.46181,5.35827 13.18254,5.35827 17.16218,0 -8.95418,-19.02187 -15.91855,-40.18705 -21.14182,-63.49553 z"
             id="path16977"
             style="fill:#eac102;fill-opacity:1;stroke:#000000;stroke-width:2.02234054;stroke-miterlimit:4;stroke-opacity:1;stroke-dasharray:none" />
          <path
             d="m -152.54181,511.32545 c -0.24873,-6.16201 -0.74619,-12.32403 -0.99491,-18.48604 -1.98982,-42.86618 -4.72582,-85.73236 -8.45673,-128.59854 -3.73091,42.86618 -6.46691,85.73236 -8.208,128.59854 -0.49745,6.16201 -0.74618,12.32403 -1.24364,18.48604 -1.49236,24.11223 -3.23345,48.22446 -5.22327,71.80086 -1.49236,16.87855 -3.23345,33.4892 -4.97454,50.09985 -0.49746,1.07165 -0.74619,2.14331 -1.24364,3.21496 5.96945,-4.82244 12.93382,-7.23367 20.89309,-7.76949 7.95927,0.53582 15.17236,2.94705 20.89309,7.76949 -0.49745,-1.07165 -0.74618,-2.14331 -0.99491,-3.21496 -1.98982,-16.61065 -3.48218,-33.2213 -4.97454,-50.09985 -2.23855,-23.5764 -3.97964,-47.68863 -5.472,-71.80086 z"
             id="path16979"
             style="fill:#eac102;fill-opacity:1;stroke:#000000;stroke-width:2.02234054;stroke-miterlimit:4;stroke-opacity:1;stroke-dasharray:none" />
          <path
             d="m -171.44509,511.32545 c -6.96436,3.75079 -12.43636,1.87539 -16.416,-5.62619 -0.24872,1.8754 -0.74618,3.75079 -1.24363,5.89411 -4.97455,23.30848 -12.18764,44.47366 -21.14182,63.49553 3.97964,5.35827 9.70036,5.35827 17.16218,0 1.74109,-1.60749 2.98473,-1.60749 4.22837,0 1.49236,4.82244 5.472,7.50158 12.18763,8.03741 1.98982,-23.5764 3.73091,-47.68863 5.22327,-71.80086 z"
             id="path16981"
             style="fill:#eac102;fill-opacity:1;stroke:#000000;stroke-width:2.02234054;stroke-miterlimit:4;stroke-opacity:1;stroke-dasharray:none" />
          <path
             d="m -193.08436,575.0889 c -7.46182,5.35827 -13.18254,5.35827 -17.16218,0 -7.71054,16.07481 -16.91345,30.81007 -27.60872,43.66992 -1.98982,10.71654 -0.24873,16.87856 5.22327,18.75396 7.21309,1.07165 12.43636,0.26791 16.16727,-2.94706 2.736,-2.1433 4.97454,-1.60748 6.71564,1.8754 2.48727,5.62619 7.21309,8.30532 14.6749,8.57324 5.96946,-1.07166 10.19782,-4.01871 12.18764,-8.57324 0.49745,-1.07165 0.74618,-2.14331 1.24364,-3.21496 1.74109,-16.61065 3.48218,-33.2213 4.97454,-50.09985 -6.71563,-0.53583 -10.69527,-3.21497 -12.18763,-8.03741 -1.24364,-1.60749 -2.48728,-1.60749 -4.22837,0 z"
             id="path16983"
             style="fill:#eac102;fill-opacity:1;stroke:#000000;stroke-width:2.02234054;stroke-miterlimit:4;stroke-opacity:1;stroke-dasharray:none" />
          <path
             d="m -113.74036,575.0889 c -3.97964,5.35827 -9.70037,5.35827 -17.16218,0 -1.49237,-1.60749 -2.98473,-1.60749 -4.22836,0 -1.24364,4.82244 -5.47201,7.50158 -11.93891,8.03741 1.49236,16.87855 2.98472,33.4892 4.97454,50.09985 0.24873,1.07165 0.49746,2.14331 0.99491,3.21496 2.23855,4.55453 6.21818,7.50158 12.43636,8.57324 7.21309,-0.26792 11.93891,-2.94705 14.42618,-8.57324 1.74109,-3.48288 3.97964,-4.0187 6.71564,-1.8754 3.73091,3.21497 9.202907,4.01871 16.167272,2.94706 5.72073,-1.8754 7.461816,-8.03742 5.223274,-18.75396 -10.695271,-12.85985 -19.898186,-27.59511 -27.608726,-43.66992 z"
             id="path16985"
             style="fill:#eac102;fill-opacity:1;stroke:#000000;stroke-width:2.02234054;stroke-miterlimit:4;stroke-opacity:1;stroke-dasharray:none" />
          <path
             d="m -109.26327,425.861 c 10.943997,-4.01871 19.649453,-12.59194 26.36509,-25.4518 0.746179,-2.94705 3.233455,-4.82244 6.96436,-6.16201 7.959273,-2.14331 15.172366,-5.35827 22.136731,-9.64489 l 0.248723,0 c 5.472002,-3.48288 8.456729,-8.03741 9.451636,-13.39568 1.24364,-8.84115 -2.735999,-12.32403 -12.68509,-10.71655 -23.629089,6.69784 -48.75054,9.9128 -74.86691,9.37698"
             id="path16987"
             style="fill:#eac102;fill-opacity:1;stroke:#000000;stroke-width:2.02234054;stroke-linecap:round;stroke-linejoin:round;stroke-miterlimit:4;stroke-opacity:1;stroke-dasharray:none" />
          <path
             d="M -87.872726,447.29409 C -96.329454,441.66791 -103.54254,434.43424 -109.26327,425.861"
             id="path16989"
             style="fill:#eac102;fill-opacity:1;stroke:#000000;stroke-width:2.02234054;stroke-linecap:round;stroke-linejoin:round;stroke-miterlimit:4;stroke-opacity:1;stroke-dasharray:none" />
          <path
             d="m -96.578182,466.85179 c 7.710549,-1.33957 10.695276,-7.7695 8.705456,-19.5577"
             id="path16991"
             style="fill:#eac102;fill-opacity:1;stroke:#000000;stroke-width:2.02234054;stroke-linecap:round;stroke-linejoin:round;stroke-miterlimit:4;stroke-opacity:1;stroke-dasharray:none" />
          <path
             d="m -22.457456,511.86128 c 7.213089,-0.53583 10.446543,-5.35827 9.700364,-14.19942 l 0,0 c -0.497456,-3.75079 -2.735998,-5.89411 -6.964365,-6.96576 -3.730906,-1.60748 -3.979634,-2.67914 -0.497456,-3.75079 3.233454,-1.33957 5.223274,-3.75079 5.223274,-7.50158 0,-9.10907 -6.96436,-13.93151 -21.141819,-15.00317 -5.223269,-0.53582 -10.446543,-1.33956 -15.17236,-2.14331"
             id="path16993"
             style="fill:#eac102;fill-opacity:1;stroke:#000000;stroke-width:2.02234054;stroke-linecap:round;stroke-linejoin:round;stroke-miterlimit:4;stroke-opacity:1;stroke-dasharray:none" />
          <path
             d="m -51.309818,462.29725 c -14.177454,-2.94704 -26.365088,-7.76949 -36.562908,-15.00316"
             id="path16995"
             style="fill:#eac102;fill-opacity:1;stroke:#000000;stroke-width:2.02234054;stroke-linecap:round;stroke-linejoin:round;stroke-miterlimit:4;stroke-opacity:1;stroke-dasharray:none" />
          <path
             d="m -56.533092,499.80516 c 4.725817,-3.75079 5.472002,-9.37697 2.487275,-16.87856 3.979634,-5.35827 4.974546,-12.32402 2.735999,-20.62935"
             id="path16997"
             style="fill:#eac102;fill-opacity:1;stroke:#000000;stroke-width:2.02234054;stroke-linecap:round;stroke-linejoin:round;stroke-miterlimit:4;stroke-opacity:1;stroke-dasharray:none" />
          <path
             d="m -22.457456,522.84574 c -3.73091,-3.48288 -3.73091,-6.96576 0,-10.98446"
             id="path16999"
             style="fill:#eac102;fill-opacity:1;stroke:#000000;stroke-width:2.02234054;stroke-linecap:round;stroke-linejoin:round;stroke-miterlimit:4;stroke-opacity:1;stroke-dasharray:none" />
          <path
             d="m -56.533092,499.80516 c 9.202907,5.09036 18.654548,8.84115 28.852363,11.78821 1.989819,0.26791 3.73091,0.26791 5.223273,0.26791"
             id="path17001"
             style="fill:#eac102;fill-opacity:1;stroke:#000000;stroke-width:2.02234054;stroke-linecap:round;stroke-linejoin:round;stroke-miterlimit:4;stroke-opacity:1;stroke-dasharray:none" />
          <path
             d="m -59.766547,508.64631 c -11.690178,-6.96575 -21.887998,-15.53899 -30.593454,-26.25553 -3.23345,-3.48288 -6.218181,-6.96576 -8.95418,-10.44863"
             id="path17003"
             style="fill:#eac102;fill-opacity:1;stroke:#000000;stroke-width:2.02234054;stroke-linecap:round;stroke-linejoin:round;stroke-miterlimit:4;stroke-opacity:1;stroke-dasharray:none" />
          <path
             d="m -76.928727,544.01091 c 3.979639,9.6449 0.994907,15.00317 -8.705451,16.07482 -5.72073,8.30533 -11.938911,11.25238 -18.654552,9.64489"
             id="path17005"
             style="fill:#eac102;fill-opacity:1;stroke:#000000;stroke-width:2.02234054;stroke-linecap:round;stroke-linejoin:round;stroke-miterlimit:4;stroke-opacity:1;stroke-dasharray:none" />
          <path
             d="m -75.187635,611.79307 c 5.472002,5.09035 11.441454,5.62618 17.659636,1.87539 5.471996,-2.94705 6.715637,-7.50158 4.228361,-13.6636 -0.746179,-2.94704 0.497456,-3.75079 3.730911,-2.41121 3.233454,2.41121 6.466909,2.1433 9.700364,-0.80375 4.725817,-7.76949 4.228361,-14.19942 -1.492364,-18.75395"
             id="path17007"
             style="fill:#eac102;fill-opacity:1;stroke:#000000;stroke-width:2.02234054;stroke-linecap:round;stroke-linejoin:round;stroke-miterlimit:4;stroke-opacity:1;stroke-dasharray:none" />
          <path
             d="m -74.690179,534.36602 c 14.674904,15.80691 27.111271,25.4518 37.309086,28.66677 2.238547,0.53582 3.979639,1.07165 5.72073,1.33956"
             id="path17009"
             style="fill:#eac102;fill-opacity:1;stroke:#000000;stroke-width:2.02234054;stroke-linecap:round;stroke-linejoin:round;stroke-miterlimit:4;stroke-opacity:1;stroke-dasharray:none" />
          <path
             d="m -41.360727,578.03595 c 0.248728,-5.8941 3.482183,-10.44863 9.700364,-13.6636"
             id="path17011"
             style="fill:#eac102;fill-opacity:1;stroke:#000000;stroke-width:2.02234054;stroke-linecap:round;stroke-linejoin:round;stroke-miterlimit:4;stroke-opacity:1;stroke-dasharray:none" />
          <path
             d="m -76.928727,544.01091 c 10.943999,12.59194 22.88291,24.11223 35.568,34.82878 -0.248728,-0.26792 -0.248728,-0.53583 0,-0.80374"
             id="path17013"
             style="fill:#eac102;fill-opacity:1;stroke:#000000;stroke-width:2.02234054;stroke-linecap:round;stroke-linejoin:round;stroke-miterlimit:4;stroke-opacity:1;stroke-dasharray:none" />
          <path
             d="m -31.660363,564.37235 c 8.208,1.07165 10.943999,-5.09036 7.959272,-18.21812 6.218181,-0.80375 8.95418,-4.82245 8.208001,-11.52029 -0.248728,-5.09036 -2.487276,-9.10907 -6.964366,-11.7882"
             id="path17015"
             style="fill:#eac102;fill-opacity:1;stroke:#000000;stroke-width:2.02234054;stroke-linecap:round;stroke-linejoin:round;stroke-miterlimit:4;stroke-opacity:1;stroke-dasharray:none" />
          <path
             d="m -22.457456,522.84574 c -13.680002,-3.21496 -26.116364,-7.7695 -37.309091,-14.19943"
             id="path17017"
             style="fill:#eac102;fill-opacity:1;stroke:#000000;stroke-width:2.02234054;stroke-linecap:round;stroke-linejoin:round;stroke-miterlimit:4;stroke-opacity:1;stroke-dasharray:none" />
          <path
             d="m -113.24291,483.19452 c 6.21819,10.98446 13.431273,21.43309 21.390546,31.07798 5.969458,7.50158 11.690183,14.19943 17.162185,20.09352"
             id="path17019"
             style="fill:#eac102;fill-opacity:1;stroke:#000000;stroke-width:2.02234054;stroke-linecap:round;stroke-linejoin:round;stroke-miterlimit:4;stroke-opacity:1;stroke-dasharray:none" />
          <path
             d="m -74.690179,534.36602 c 5.471996,-0.53582 8.705451,-4.55453 8.954179,-12.05611 5.472002,-2.67913 7.461816,-7.23367 5.969453,-13.6636"
             id="path17021"
             style="fill:#eac102;fill-opacity:1;stroke:#000000;stroke-width:2.02234054;stroke-linecap:round;stroke-linejoin:round;stroke-miterlimit:4;stroke-opacity:1;stroke-dasharray:none" />
          <path
             d="m -96.578182,466.85179 c 12.187639,13.93151 25.618908,24.91596 40.04509,32.95337"
             id="path17023"
             style="fill:#eac102;fill-opacity:1;stroke:#000000;stroke-width:2.02234054;stroke-linecap:round;stroke-linejoin:round;stroke-miterlimit:4;stroke-opacity:1;stroke-dasharray:none" />
          <path
             d="m -128.91272,502.75222 c -6.21818,-23.04058 -11.44146,-46.61698 -14.92364,-70.99712 -3.23345,-18.21813 -5.22327,-36.97208 -5.472,-55.99395 l -0.99491,21.43309 c 1.49236,36.97208 6.21818,73.14042 14.17745,108.50502"
             id="path17025"
             style="fill:#eac102;fill-opacity:1;stroke:#000000;stroke-width:2.02234054;stroke-linecap:round;stroke-linejoin:round;stroke-miterlimit:4;stroke-opacity:1;stroke-dasharray:none" />
          <path
             d="m -187.86109,505.69926 c 8.208,-35.3646 12.6851,-71.53294 14.17746,-108.50502 l -0.74618,-21.43309 c -0.49746,19.02187 -2.23855,37.77582 -5.472,55.99395 -3.73091,24.38014 -8.70546,47.95654 -15.17237,70.99712"
             id="path17027"
             style="fill:#eac102;fill-opacity:1;stroke:#000000;stroke-width:2.02234054;stroke-linecap:round;stroke-linejoin:round;stroke-miterlimit:4;stroke-opacity:1;stroke-dasharray:none" />
          <path
             d="m -131.64873,369.86705 c -9.45163,-22.77266 -19.40072,-34.29295 -30.34472,-34.82877 -10.944,0.53582 -20.89309,12.05611 -30.34473,34.82877"
             id="path17029"
             style="fill:#eac102;fill-opacity:1;stroke:#000000;stroke-width:2.02234054;stroke-linecap:round;stroke-linejoin:round;stroke-miterlimit:4;stroke-opacity:1;stroke-dasharray:none" />
          <path
             d="m -191.34327,441.66791 c 0.99491,-2.67914 1.74109,-5.09036 2.48728,-7.50159 0.24872,-0.53582 0.49745,-1.07165 0.49745,-1.60748 1.24364,-3.48287 2.23855,-6.96575 3.23345,-10.44863 2.736,-12.59194 3.97964,-25.4518 3.48219,-38.31165"
             id="path17031"
             style="fill:#eac102;fill-opacity:1;stroke:#000000;stroke-width:2.02234054;stroke-linecap:round;stroke-linejoin:round;stroke-miterlimit:4;stroke-opacity:1;stroke-dasharray:none" />
          <path
             d="m -142.09527,383.79856 c -0.74618,12.85985 0.49746,25.71971 3.48218,38.31165 0.74618,3.48288 1.98982,6.96576 2.98473,10.44863 0.24873,0.53583 0.24873,1.07166 0.49746,1.60748 0.74618,2.41123 1.74108,4.82245 2.48727,7.50159"
             id="path17033"
             style="fill:#eac102;fill-opacity:1;stroke:#000000;stroke-width:2.02234054;stroke-linecap:round;stroke-linejoin:round;stroke-miterlimit:4;stroke-opacity:1;stroke-dasharray:none" />
          <path
             d="m -109.26327,425.861 c -4.72582,-6.96576 -8.70545,-14.73525 -11.69018,-23.5764 -3.48218,-12.59194 -7.21309,-23.30849 -10.69528,-32.41755"
             id="path17035"
             style="fill:#eac102;fill-opacity:1;stroke:#000000;stroke-width:2.02234054;stroke-linecap:round;stroke-linejoin:round;stroke-miterlimit:4;stroke-opacity:1;stroke-dasharray:none" />
          <path
             d="m -214.4749,425.861 c 4.47709,-6.96576 8.45672,-14.73525 11.44145,-23.5764 3.48218,-12.59194 7.21309,-23.30849 10.69527,-32.41755"
             id="path17037"
             style="fill:#eac102;fill-opacity:1;stroke:#000000;stroke-width:2.02234054;stroke-linecap:round;stroke-linejoin:round;stroke-miterlimit:4;stroke-opacity:1;stroke-dasharray:none" />
          <path
             d="m -192.33818,369.86705 c -26.11636,0.53582 -50.98908,-2.67914 -74.8669,-9.37698 -9.70037,-1.60748 -13.92873,1.8754 -12.43637,10.71655 0.74619,5.35827 3.97964,9.9128 9.20291,13.39568 l 0.49746,0 c 6.71563,4.28662 13.92872,7.50158 21.888,9.64489 l 0,0 c 3.73091,1.33957 6.21818,3.21496 7.21309,6.16201 6.46691,12.85986 15.17236,21.43309 26.36509,25.4518"
             id="path17039"
             style="fill:#eac102;fill-opacity:1;stroke:#000000;stroke-width:2.02234054;stroke-linecap:round;stroke-linejoin:round;stroke-miterlimit:4;stroke-opacity:1;stroke-dasharray:none" />
          <path
             d="m -272.42835,462.29725 c -4.97455,0.80375 -9.94909,1.60749 -15.4211,2.14331 -14.17745,1.07166 -21.14181,5.8941 -21.14181,15.00317 0,3.75079 1.98981,6.16201 5.472,7.50158 3.23345,1.07165 3.23345,2.14331 -0.49746,3.75079 -4.47709,1.07165 -6.71563,3.21497 -6.96436,6.96576 l 0,0 c -0.99491,8.84115 2.23854,13.66359 9.45164,14.19942"
             id="path17041"
             style="fill:#eac102;fill-opacity:1;stroke:#000000;stroke-width:2.02234054;stroke-linecap:round;stroke-linejoin:round;stroke-miterlimit:4;stroke-opacity:1;stroke-dasharray:none" />
          <path
             d="m -214.4749,425.861 c -5.96946,8.57324 -13.18255,15.80691 -21.39055,21.43309"
             id="path17043"
             style="fill:#eac102;fill-opacity:1;stroke:#000000;stroke-width:2.02234054;stroke-linecap:round;stroke-linejoin:round;stroke-miterlimit:4;stroke-opacity:1;stroke-dasharray:none" />
          <path
             d="m -235.86545,447.29409 c -2.23854,11.7882 0.74619,18.21813 8.70546,19.5577"
             id="path17045"
             style="fill:#eac102;fill-opacity:1;stroke:#000000;stroke-width:2.02234054;stroke-linecap:round;stroke-linejoin:round;stroke-miterlimit:4;stroke-opacity:1;stroke-dasharray:none" />
          <path
             d="m -235.86545,447.29409 c -10.44654,7.23367 -22.63418,12.05612 -36.5629,15.00316"
             id="path17047"
             style="fill:#eac102;fill-opacity:1;stroke:#000000;stroke-width:2.02234054;stroke-linecap:round;stroke-linejoin:round;stroke-miterlimit:4;stroke-opacity:1;stroke-dasharray:none" />
          <path
             d="m -210.49527,483.19452 c -6.4669,10.98446 -13.68,21.43309 -21.39054,31.07798 -6.21818,7.50158 -11.93891,14.19943 -17.41091,20.09352"
             id="path17049"
             style="fill:#eac102;fill-opacity:1;stroke:#000000;stroke-width:2.02234054;stroke-linecap:round;stroke-linejoin:round;stroke-miterlimit:4;stroke-opacity:1;stroke-dasharray:none" />
          <path
             d="m -224.42399,471.94215 c 7.21309,0.80374 11.93891,4.55453 13.92872,11.25237"
             id="path17051"
             style="fill:#eac102;fill-opacity:1;stroke:#000000;stroke-width:2.02234054;stroke-linecap:round;stroke-linejoin:round;stroke-miterlimit:4;stroke-opacity:1;stroke-dasharray:none" />
          <path
             d="m -264.22035,508.64631 c 11.9389,-6.96575 22.13672,-15.53899 30.84218,-26.25553 2.98472,-3.48288 5.96945,-6.96576 8.95418,-10.44863"
             id="path17053"
             style="fill:#eac102;fill-opacity:1;stroke:#000000;stroke-width:2.02234054;stroke-linecap:round;stroke-linejoin:round;stroke-miterlimit:4;stroke-opacity:1;stroke-dasharray:none" />
          <path
             d="m -267.45381,499.80516 c -4.72581,-3.75079 -5.472,-9.37697 -2.23854,-16.87856 -4.22837,-5.35827 -4.97455,-12.32402 -2.736,-20.62935"
             id="path17055"
             style="fill:#eac102;fill-opacity:1;stroke:#000000;stroke-width:2.02234054;stroke-linecap:round;stroke-linejoin:round;stroke-miterlimit:4;stroke-opacity:1;stroke-dasharray:none" />
          <path
             d="m -301.52944,511.86128 c 3.73091,4.0187 3.73091,7.50158 0,10.98446"
             id="path17057"
             style="fill:#eac102;fill-opacity:1;stroke:#000000;stroke-width:2.02234054;stroke-linecap:round;stroke-linejoin:round;stroke-miterlimit:4;stroke-opacity:1;stroke-dasharray:none" />
          <path
             d="m -267.45381,499.80516 c -9.20291,5.09036 -18.65455,8.84115 -28.60364,11.78821 -1.98981,0.26791 -3.97963,0.26791 -5.47199,0.26791"
             id="path17059"
             style="fill:#eac102;fill-opacity:1;stroke:#000000;stroke-width:2.02234054;stroke-linecap:round;stroke-linejoin:round;stroke-miterlimit:4;stroke-opacity:1;stroke-dasharray:none" />
          <path
             d="m -301.52944,522.84574 c 13.67999,-3.21496 26.11636,-7.7695 37.30909,-14.19943"
             id="path17061"
             style="fill:#eac102;fill-opacity:1;stroke:#000000;stroke-width:2.02234054;stroke-linecap:round;stroke-linejoin:round;stroke-miterlimit:4;stroke-opacity:1;stroke-dasharray:none" />
          <path
             d="m -301.52944,522.84574 c -4.47709,2.67913 -6.71564,6.69784 -6.96437,11.7882 -0.49745,6.69784 1.98982,10.71654 8.208,11.52029 -2.736,13.12776 -0.24873,19.28977 8.208,18.21812"
             id="path17063"
             style="fill:#eac102;fill-opacity:1;stroke:#000000;stroke-width:2.02234054;stroke-linecap:round;stroke-linejoin:round;stroke-miterlimit:4;stroke-opacity:1;stroke-dasharray:none" />
          <path
             d="m -292.07781,564.37235 c 5.96945,3.21497 9.20291,7.7695 9.70037,13.6636"
             id="path17065"
             style="fill:#eac102;fill-opacity:1;stroke:#000000;stroke-width:2.02234054;stroke-linecap:round;stroke-linejoin:round;stroke-miterlimit:4;stroke-opacity:1;stroke-dasharray:none" />
          <path
             d="m -282.37744,578.03595 c -5.96946,4.55453 -6.46691,10.98446 -1.7411,18.75395 3.23346,2.94705 6.46691,3.21496 9.9491,0.80375 2.98472,-1.33958 4.22836,-0.53583 3.48218,2.41121 -2.48728,6.16202 -0.99491,10.71655 4.22836,13.6636 6.46691,3.75079 12.18763,3.21496 17.90836,-1.87539"
             id="path17067"
             style="fill:#eac102;fill-opacity:1;stroke:#000000;stroke-width:2.02234054;stroke-linecap:round;stroke-linejoin:round;stroke-miterlimit:4;stroke-opacity:1;stroke-dasharray:none" />
          <path
             d="m -249.29672,534.36602 c -14.67491,15.80691 -27.11127,25.4518 -37.30909,28.66677 -1.98982,0.53582 -3.97963,1.07165 -5.472,1.33956"
             id="path17069"
             style="fill:#eac102;fill-opacity:1;stroke:#000000;stroke-width:2.02234054;stroke-linecap:round;stroke-linejoin:round;stroke-miterlimit:4;stroke-opacity:1;stroke-dasharray:none" />
          <path
             d="m -246.80945,544.01091 c -11.19272,12.59194 -22.8829,24.11223 -35.56799,34.82878 0,-0.26792 0,-0.53583 0,-0.80374"
             id="path17071"
             style="fill:#eac102;fill-opacity:1;stroke:#000000;stroke-width:2.02234054;stroke-linecap:round;stroke-linejoin:round;stroke-miterlimit:4;stroke-opacity:1;stroke-dasharray:none" />
          <path
             d="m -219.44945,569.73062 c -6.96436,1.60749 -13.18254,-1.33956 -18.90327,-9.64489 -9.70036,-1.07165 -12.68509,-6.42992 -8.45673,-16.07482"
             id="path17073"
             style="fill:#eac102;fill-opacity:1;stroke:#000000;stroke-width:2.02234054;stroke-linecap:round;stroke-linejoin:round;stroke-miterlimit:4;stroke-opacity:1;stroke-dasharray:none" />
          <path
             d="m -249.29672,534.36602 c -5.472,-0.53582 -8.70545,-4.55453 -8.95418,-12.05611 -5.472,-2.67913 -7.46182,-7.23367 -5.96945,-13.6636"
             id="path17075"
             style="fill:#eac102;fill-opacity:1;stroke:#000000;stroke-width:2.02234054;stroke-linecap:round;stroke-linejoin:round;stroke-miterlimit:4;stroke-opacity:1;stroke-dasharray:none" />
          <path
             d="m -132.64363,441.66791 c 3.23345,18.75395 8.45673,34.82877 16.16727,47.68863 0.49746,0.80373 0.99491,1.60747 1.49236,2.41121"
             id="path17077"
             style="fill:#eac102;fill-opacity:1;stroke:#000000;stroke-width:2.02234054;stroke-linecap:round;stroke-linejoin:round;stroke-miterlimit:4;stroke-opacity:1;stroke-dasharray:none" />
          <path
             d="m -104.28873,569.73062 c -8.208,-15.27107 -14.67491,-31.88172 -19.64945,-49.56402 -1.74109,-5.8941 -3.23345,-11.7882 -4.97454,-17.41438"
             id="path17079"
             style="fill:#eac102;fill-opacity:1;stroke:#000000;stroke-width:2.02234054;stroke-linecap:round;stroke-linejoin:round;stroke-miterlimit:4;stroke-opacity:1;stroke-dasharray:none" />
          <path
             d="m -114.984,491.76775 c -0.24873,10.18073 -4.72581,13.93151 -13.92872,10.98447"
             id="path17081"
             style="fill:#eac102;fill-opacity:1;stroke:#000000;stroke-width:2.02234054;stroke-linecap:round;stroke-linejoin:round;stroke-miterlimit:4;stroke-opacity:1;stroke-dasharray:none" />
          <path
             d="m -136.12582,505.69926 c 0.49746,1.8754 0.99492,3.75079 1.24364,5.89411 5.22327,23.30848 12.18764,44.47366 21.14182,63.49553"
             id="path17083"
             style="fill:#eac102;fill-opacity:1;stroke:#000000;stroke-width:2.02234054;stroke-linecap:round;stroke-linejoin:round;stroke-miterlimit:4;stroke-opacity:1;stroke-dasharray:none" />
          <path
             d="m -136.12582,505.69926 c -3.7309,7.50158 -9.2029,9.37698 -16.41599,5.62619"
             id="path17085"
             style="fill:#eac102;fill-opacity:1;stroke:#000000;stroke-width:2.02234054;stroke-linecap:round;stroke-linejoin:round;stroke-miterlimit:4;stroke-opacity:1;stroke-dasharray:none" />
          <path
             d="m -152.54181,511.32545 c -0.24873,-6.16201 -0.74619,-12.32403 -0.99491,-18.48604 -1.98982,-42.86618 -4.72582,-85.73236 -8.45673,-128.59854 -3.73091,42.86618 -6.46691,85.73236 -8.208,128.59854 -0.49745,6.16201 -0.74618,12.32403 -1.24364,18.48604"
             id="path17087"
             style="fill:#eac102;fill-opacity:1;stroke:#000000;stroke-width:2.02234054;stroke-linecap:round;stroke-linejoin:round;stroke-miterlimit:4;stroke-opacity:1;stroke-dasharray:none" />
          <path
             d="m -171.44509,511.32545 c -6.96436,3.75079 -12.43636,1.87539 -16.416,-5.62619"
             id="path17089"
             style="fill:#eac102;fill-opacity:1;stroke:#000000;stroke-width:2.02234054;stroke-linecap:round;stroke-linejoin:round;stroke-miterlimit:4;stroke-opacity:1;stroke-dasharray:none" />
          <path
             d="m -195.07418,502.75222 c -8.95418,2.94704 -13.68,-0.80374 -13.92872,-10.98447"
             id="path17091"
             style="fill:#eac102;fill-opacity:1;stroke:#000000;stroke-width:2.02234054;stroke-linecap:round;stroke-linejoin:round;stroke-miterlimit:4;stroke-opacity:1;stroke-dasharray:none" />
          <path
             d="m -209.0029,491.76775 c 0.49745,-0.80374 0.99491,-1.60748 1.49236,-2.41121 7.71055,-12.85986 13.18255,-28.93468 16.16727,-47.68863"
             id="path17093"
             style="fill:#eac102;fill-opacity:1;stroke:#000000;stroke-width:2.02234054;stroke-linecap:round;stroke-linejoin:round;stroke-miterlimit:4;stroke-opacity:1;stroke-dasharray:none" />
          <path
             d="m -187.86109,505.69926 c -0.24872,1.8754 -0.74618,3.75079 -1.24363,5.89411 -4.97455,23.30848 -12.18764,44.47366 -21.14182,63.49553"
             id="path17095"
             style="fill:#eac102;fill-opacity:1;stroke:#000000;stroke-width:2.02234054;stroke-linecap:round;stroke-linejoin:round;stroke-miterlimit:4;stroke-opacity:1;stroke-dasharray:none" />
          <path
             d="m -195.07418,502.75222 c -1.49236,5.62618 -3.23345,11.52028 -4.97454,17.41438 -4.97455,17.6823 -11.44146,34.29295 -19.40073,49.56402"
             id="path17097"
             style="fill:#eac102;fill-opacity:1;stroke:#000000;stroke-width:2.02234054;stroke-linecap:round;stroke-linejoin:round;stroke-miterlimit:4;stroke-opacity:1;stroke-dasharray:none" />
          <path
             d="m -176.66836,583.12631 c -6.71563,-0.53583 -10.69527,-3.21497 -12.18763,-8.03741 -1.24364,-1.60749 -2.48728,-1.60749 -4.22837,0 -7.46182,5.35827 -13.18254,5.35827 -17.16218,0"
             id="path17099"
             style="fill:#eac102;fill-opacity:1;stroke:#000000;stroke-width:2.02234054;stroke-linecap:round;stroke-linejoin:round;stroke-miterlimit:4;stroke-opacity:1;stroke-dasharray:none" />
          <path
             d="m -113.74036,575.0889 c -3.97964,5.35827 -9.70037,5.35827 -17.16218,0 -1.49237,-1.60749 -2.98473,-1.60749 -4.22836,0 -1.24364,4.82244 -5.47201,7.50158 -11.93891,8.03741"
             id="path17101"
             style="fill:#eac102;fill-opacity:1;stroke:#000000;stroke-width:2.02234054;stroke-linecap:round;stroke-linejoin:round;stroke-miterlimit:4;stroke-opacity:1;stroke-dasharray:none" />
          <path
             d="m -171.44509,511.32545 c -1.49236,24.11223 -3.23345,48.22446 -5.22327,71.80086"
             id="path17103"
             style="fill:#eac102;fill-opacity:1;stroke:#000000;stroke-width:2.02234054;stroke-linecap:round;stroke-linejoin:round;stroke-miterlimit:4;stroke-opacity:1;stroke-dasharray:none" />
          <path
             d="m -147.06981,583.12631 c -2.23855,-23.5764 -3.97964,-47.68863 -5.472,-71.80086"
             id="path17105"
             style="fill:#eac102;fill-opacity:1;stroke:#000000;stroke-width:2.02234054;stroke-linecap:round;stroke-linejoin:round;stroke-miterlimit:4;stroke-opacity:1;stroke-dasharray:none" />
          <path
             d="m -227.15999,466.85179 c -12.43637,13.93151 -25.86764,24.91596 -40.29382,32.95337"
             id="path17107"
             style="fill:#eac102;fill-opacity:1;stroke:#000000;stroke-width:2.02234054;stroke-linecap:round;stroke-linejoin:round;stroke-miterlimit:4;stroke-opacity:1;stroke-dasharray:none" />
          <path
             d="m -209.0029,491.76775 c -11.19273,19.02188 -23.87782,36.43626 -37.80655,52.24316"
             id="path17109"
             style="fill:#eac102;fill-opacity:1;stroke:#000000;stroke-width:2.02234054;stroke-linecap:round;stroke-linejoin:round;stroke-miterlimit:4;stroke-opacity:1;stroke-dasharray:none" />
          <path
             d="m -224.42399,471.94215 c 13.18254,-16.87856 24.624,-38.04374 34.07563,-63.22762 -10.944,23.04057 -23.13163,42.33035 -36.81163,58.13726"
             id="path17111"
             style="fill:#eac102;fill-opacity:1;stroke:#000000;stroke-width:2.02234054;stroke-linecap:round;stroke-linejoin:round;stroke-miterlimit:4;stroke-opacity:1;stroke-dasharray:none" />
          <path
             d="m -191.34327,441.66791 c -5.472,14.73524 -11.93891,28.39884 -19.152,41.52661"
             id="path17113"
             style="fill:#eac102;fill-opacity:1;stroke:#000000;stroke-width:2.02234054;stroke-linecap:round;stroke-linejoin:round;stroke-miterlimit:4;stroke-opacity:1;stroke-dasharray:none" />
          <path
             d="m -132.64363,441.66791 c 5.472,14.73524 11.93891,28.39884 19.40072,41.52661"
             id="path17115"
             style="fill:#eac102;fill-opacity:1;stroke:#000000;stroke-width:2.02234054;stroke-linecap:round;stroke-linejoin:round;stroke-miterlimit:4;stroke-opacity:1;stroke-dasharray:none" />
          <path
             d="m -237.85526,618.75882 c -1.98982,10.71654 -0.24873,16.87856 5.22327,18.75396 7.21309,1.07165 12.43636,0.26791 16.16727,-2.94706 2.736,-2.1433 4.97454,-1.60748 6.71564,1.8754 2.48727,5.62619 7.21309,8.30532 14.6749,8.57324 5.96946,-1.07166 10.19782,-4.01871 12.18764,-8.57324"
             id="path17117"
             style="fill:#eac102;fill-opacity:1;stroke:#000000;stroke-width:2.02234054;stroke-linecap:round;stroke-linejoin:round;stroke-miterlimit:4;stroke-opacity:1;stroke-dasharray:none" />
          <path
             d="m -176.66836,583.12631 c -1.49236,16.87855 -3.23345,33.4892 -4.97454,50.09985 -0.49746,1.07165 -0.74619,2.14331 -1.24364,3.21496"
             id="path17119"
             style="fill:#eac102;fill-opacity:1;stroke:#000000;stroke-width:2.02234054;stroke-linecap:round;stroke-linejoin:round;stroke-miterlimit:4;stroke-opacity:1;stroke-dasharray:none" />
          <path
             d="m -141.10036,636.44112 c 2.23855,4.55453 6.21818,7.50158 12.43636,8.57324 7.21309,-0.26792 11.93891,-2.94705 14.42618,-8.57324 1.74109,-3.48288 3.97964,-4.0187 6.71564,-1.8754 3.73091,3.21497 9.202907,4.01871 16.167272,2.94706 5.72073,-1.8754 7.461816,-8.03742 5.223274,-18.75396"
             id="path17121"
             style="fill:#eac102;fill-opacity:1;stroke:#000000;stroke-width:2.02234054;stroke-linecap:round;stroke-linejoin:round;stroke-miterlimit:4;stroke-opacity:1;stroke-dasharray:none" />
          <path
             d="m -147.06981,583.12631 c 1.49236,16.87855 2.98472,33.4892 4.97454,50.09985 0.24873,1.07165 0.49746,2.14331 0.99491,3.21496"
             id="path17123"
             style="fill:#eac102;fill-opacity:1;stroke:#000000;stroke-width:2.02234054;stroke-linecap:round;stroke-linejoin:round;stroke-miterlimit:4;stroke-opacity:1;stroke-dasharray:none" />
          <path
             d="m -248.55054,611.79307 c 5.22328,0 8.95418,2.1433 10.69528,6.96575"
             id="path17125"
             style="fill:#eac102;fill-opacity:1;stroke:#000000;stroke-width:2.02234054;stroke-linecap:round;stroke-linejoin:round;stroke-miterlimit:4;stroke-opacity:1;stroke-dasharray:none" />
          <path
             d="m -86.131634,618.75882 c 1.989819,-4.82245 5.471997,-6.96575 10.943999,-6.96575"
             id="path17127"
             style="fill:#eac102;fill-opacity:1;stroke:#000000;stroke-width:2.02234054;stroke-linecap:round;stroke-linejoin:round;stroke-miterlimit:4;stroke-opacity:1;stroke-dasharray:none" />
          <path
             d="m -99.314181,471.94215 c -13.431269,-16.87856 -24.623999,-38.04374 -34.324359,-63.22762 10.944,23.04057 23.13163,42.33035 37.060358,58.13726"
             id="path17129"
             style="fill:#eac102;fill-opacity:1;stroke:#000000;stroke-width:2.02234054;stroke-linecap:round;stroke-linejoin:round;stroke-miterlimit:4;stroke-opacity:1;stroke-dasharray:none" />
          <path
             d="m -210.24654,575.0889 c -7.71054,16.07481 -16.91345,30.81007 -27.60872,43.66992"
             id="path17131"
             style="fill:#eac102;fill-opacity:1;stroke:#000000;stroke-width:2.02234054;stroke-linecap:round;stroke-linejoin:round;stroke-miterlimit:4;stroke-opacity:1;stroke-dasharray:none" />
          <path
             d="m -248.55054,611.79307 c 11.19273,-12.85986 20.89309,-26.79137 29.10109,-42.06245"
             id="path17133"
             style="fill:#eac102;fill-opacity:1;stroke:#000000;stroke-width:2.02234054;stroke-linecap:round;stroke-linejoin:round;stroke-miterlimit:4;stroke-opacity:1;stroke-dasharray:none" />
          <path
             d="M -75.187635,611.79307 C -86.62909,598.93321 -96.329454,585.0017 -104.28873,569.73062"
             id="path17135"
             style="fill:#eac102;fill-opacity:1;stroke:#000000;stroke-width:2.02234054;stroke-linecap:round;stroke-linejoin:round;stroke-miterlimit:4;stroke-opacity:1;stroke-dasharray:none" />
          <path
             d="m -113.74036,575.0889 c 7.71054,16.07481 16.913455,30.81007 27.608726,43.66992"
             id="path17137"
             style="fill:#eac102;fill-opacity:1;stroke:#000000;stroke-width:2.02234054;stroke-linecap:round;stroke-linejoin:round;stroke-miterlimit:4;stroke-opacity:1;stroke-dasharray:none" />
          <path
             d="m -114.984,491.76775 c 11.44146,19.02188 23.87782,36.43626 38.055273,52.24316"
             id="path17139"
             style="fill:#eac102;fill-opacity:1;stroke:#000000;stroke-width:2.02234054;stroke-linecap:round;stroke-linejoin:round;stroke-miterlimit:4;stroke-opacity:1;stroke-dasharray:none" />
          <path
             d="m -113.24291,483.19452 c 1.7411,-6.69784 6.46691,-10.44863 13.928729,-11.25237"
             id="path17141"
             style="fill:#eac102;fill-opacity:1;stroke:#000000;stroke-width:2.02234054;stroke-linecap:round;stroke-linejoin:round;stroke-miterlimit:4;stroke-opacity:1;stroke-dasharray:none" />
        </g>
        <use
           transform="translate(207.11111,-1.9408997e-6)"
           id="use32907"
           x="0"
           y="0"
           width="581.48883"
           height="910.8512"
           xlink:href="#g5903" />
        <use
           transform="translate(414.22222,-1.9408997e-6)"
           id="use32909"
           x="0"
           y="0"
           width="581.48883"
           height="910.8512"
           xlink:href="#g5903" />
        <use
           transform="translate(-1.1031249e-6,203.27576)"
           id="use32911"
           x="0"
           y="0"
           width="581.48883"
           height="910.8512"
           xlink:href="#g5903" />
        <use
           transform="translate(34.666669,406.44445)"
           id="use32913"
           x="0"
           y="0"
           width="581.48883"
           height="910.8512"
           xlink:href="#g5903" />
        <use
           transform="translate(414.22222,203.27577)"
           id="use32915"
           x="0"
           y="0"
           width="581.48883"
           height="910.8512"
           xlink:href="#g5903" />
        <use
           transform="translate(379.66667,406.44445)"
           id="use32917"
           x="0"
           y="0"
           width="581.48883"
           height="910.8512"
           xlink:href="#g5903" />
        <use
           transform="translate(207.11111,497.77778)"
           id="use32919"
           x="0"
           y="0"
           width="581.48883"
           height="910.8512"
           xlink:href="#g5903" />
      </g>
      <path
         d="m 42.179297,312.34291 c 0.20355,120.27687 -0.40966,240.56708 0.31112,360.83553 3.83325,107.93674 86.479923,206.52283 192.017333,229.31766 97.63576,23.77746 206.93672,-18.95337 262.04594,-103.21971 33.00477,-47.12742 45.15957,-105.44999 42.43804,-162.22146 0,-108.23734 0,-216.47469 0,-324.71202 -165.60414,0 -331.20822,0 -496.812433,0 z"
         id="Borde"
         style="fill:none;stroke:#000000;stroke-width:2.98502111;stroke-linecap:butt;stroke-linejoin:miter;stroke-miterlimit:4;stroke-opacity:1;stroke-dasharray:none;stroke-dashoffset:0;marker:none;visibility:visible;display:inline;overflow:visible;enable-background:accumulate" />
    </g>
  </g>
</svg>
