<?xml version="1.0" encoding="UTF-8" standalone="no"?>
<!-- Created with Inkscape (http://www.inkscape.org/) -->
<svg
   xmlns:svg="http://www.w3.org/2000/svg"
   xmlns="http://www.w3.org/2000/svg"
   version="1.0"
   width="911"
   height="450"
   viewBox="0 0 166 86"
   id="svg2">
  <defs
     id="defs33" />
  <g
     id="g2419">
    <path
       d="M 329.0625,14.1875 C 305.05429,36.256196 301.62896,70.145087 289.28125,99.53125 C 279.50779,101.21178 269.58947,101.88387 259.75,103.09375 L 257.1875,107.6875 C 254.14821,113.14299 254.34324,116.85991 257.90625,121.53125 C 265.21398,129.97005 280.38372,116.33959 283.75,123.03125 C 265.27877,210.67112 263.61497,304.31838 293.78125,389.34375 C 296.87299,397.53595 301.86122,412.8467 313.0625,407.8125 C 336.045,391.45927 331.28218,357.03299 343.5,334 C 353.10836,341.93675 361.17975,354.60638 374.5,355.5 C 384.52371,355.38646 391.3321,348.61102 399.53125,328.59375 C 405.06132,314.76628 411.30324,301.30256 416.625,286.25 C 417.29065,286.25 420.55408,289.46104 423.875,293.375 C 433.60623,304.84393 438.49516,309.2032 442.25,309.8125 C 449.41176,310.97469 458.95108,303.35356 471.4375,286.5 C 475.08606,281.57537 478.44233,277.13605 478.875,276.65625 C 480.70568,274.62632 481.59472,278.44131 482.46875,291.84375 C 484.30731,320.03698 487.23087,326.92106 498.3125,329 C 505.83677,330.41157 520.51679,324.50244 533.9375,314.65625 C 544.66948,306.78268 560.7246,290.12086 566.875,280.5 C 569.6527,276.15506 572.21949,272.56404 572.5625,272.53125 C 572.90539,272.49845 572.96551,280.03331 572.6875,289.25 C 571.89895,315.38696 574.71212,327.68551 582.5,332.0625 C 607.72967,340.62514 624.44587,307.76811 635.15625,290.1875 C 640.68963,302.42742 638.33795,319.78935 652.84375,325.75 C 679.86447,319.13323 701.05622,253.50087 720.78125,233.28125 C 722.21649,232.80844 722.96873,236.14728 722.96875,258.65625 C 723.7821,278.42401 722.34414,316.98616 749.1875,319.28125 C 761.65831,318.36995 775.27943,311.37592 783.9375,305.84375 C 791.99998,319.16338 795.65963,323.91897 799.1875,325.71875 C 825.02477,332.31914 842.6149,310.99806 859.28125,294.625 C 859.75087,312.01773 857.38825,329.41827 859.15625,346.84375 L 887.9375,345.25 C 880.48942,305.72114 886.14953,265.07925 892.5625,225.875 C 894.3794,214.62728 895.65692,205.21942 895.40625,204.96875 C 895.00005,204.56252 882.00079,208.5651 881.40625,209.28125 C 868.63321,243.45563 861.30543,284.15341 825.5,297.9375 C 815.26883,301.67598 813.17448,303.00177 810.53125,290.90625 C 804.09693,257.83585 851.54256,206.16985 876.34375,200.4375 C 886.40643,199.00163 909.18356,190.89071 901.625,176.09375 C 872.63642,169.10937 833.96039,200.53916 818.5,224.8125 C 789.20678,266.72105 770.54059,287.18749 761.59375,287.1875 C 738.90245,272.86481 765.54817,203.31567 768.1875,183.8125 L 706.46875,175.875 L 709.75,187.96875 C 710.31062,192.19475 709.89729,193.47028 702.53125,209.75 C 691.90356,233.33285 682.95584,258.62981 668.78125,280.15625 C 653.99326,290.64411 661.25925,240.74112 659.1875,235.78125 C 658.86894,215.85015 658.47672,199.41422 658.3125,199.25 C 654.21541,199.08055 648.62026,199.02331 645.46875,201.6875 C 639.09617,234.53383 639.32154,292.80855 603.96875,302.25 C 590.49643,289.27417 603.75804,223.09297 602.375,203.90625 C 602.20327,203.73453 597.95125,203.85891 592.9375,204.1875 L 583.8125,204.78125 C 578.62044,226.93253 577.35728,244.12582 563.90625,261.09375 C 550.45523,278.06167 531.52588,300.93749 523.4375,300.9375 C 519.44228,300.9375 515.00043,295.78616 512.75,288.5 C 506.38522,267.89324 508.52638,227.21369 516.90625,209.5 C 520.71226,201.45475 523.54801,200.48574 529.6875,205.09375 C 536.74047,210.38741 541.58181,209.80052 547.6875,202.875 C 553.68736,196.06947 555.20818,192.28356 555.65625,183.40625 C 556.45531,167.57705 551.60624,159.92472 540.03125,158.8125 C 534.03566,158.2364 528.36031,160.55001 522.96875,165.8125 C 514.46213,174.1155 510.96403,180.39851 489.75,225.65625 C 477.17367,252.48644 467.254,267.58106 456.5625,276.09375 C 448.86222,282.2248 444.42804,280.95337 440.21875,271.4375 C 436.97618,264.10713 433.01291,240.5168 431.46875,219.28125 C 430.68203,208.4618 429.86834,199.46209 429.65625,199.25 C 429.44415,199.03791 426.66206,200.21767 423.46875,201.90625 L 417.65625,205 L 416.15625,222.4375 C 413.62625,245.17849 410.12779,305.68403 385.0625,317.46875 C 370.67557,313.69147 374.14909,279.32205 378.1875,256.0625 C 380.83479,241.42415 384.14778,228.03461 394.4375,216.53125 C 406.28581,201.13735 419.08465,192.27751 426.75,173.5625 C 426.95866,162.92732 421.63093,165.01155 404.3125,182.40625 C 366.6826,222.72488 340.18628,268.7664 326.75,322.53125 C 319.4952,346.27271 313.38544,354.25124 308.71875,346.125 C 285.88311,291.41597 285.38534,228.35322 290.46875,170.46875 C 292.61838,155.20642 299.48563,119.1174 300.5625,117.375 C 300.9643,116.72487 308.65908,114.39874 317.6875,112.21875 C 349.34202,104.18842 381.0567,96.083402 412.15625,86.09375 L 305.34375,97.5625 C 310.70927,69.188613 322.03383,42.156181 329.0625,14.1875 z M 147.5,22.3125 C 140.842,21.69159 132.78005,38.868937 138.46875,60.90625 C 156.39198,147.68823 184.99542,287.61695 156.34375,369.03125 C 144.1765,404.13486 143.07674,403.30238 126.4375,388.90625 C 61.068602,327.59768 43.32044,250.10414 21.125,169.25 C 15.453367,163.57837 14.476168,170.61646 14.03125,178.625 C 18.059195,246.36751 79.186001,416.15542 150.5,440.0625 C 159.10116,432.54813 167.64089,414.113 171.96875,401.78125 C 190.9368,326.86607 181.13672,152.68039 153.78125,32 C 152.51982,25.526515 150.1053,22.555465 147.5,22.3125 z M 206.6875,106.1875 C 198.26498,106.1875 191.4375,113.31283 191.4375,122.09375 C 191.4375,130.87468 198.26498,138.00001 206.6875,138 C 215.11002,138 221.93749,130.87468 221.9375,122.09375 C 221.9375,113.31282 215.11002,106.1875 206.6875,106.1875 z M 238.8125,186.09375 C 234.80904,186.26382 226.49973,201.11921 222.5625,216.03125 C 214.9208,244.97369 197.87527,323.73125 218.71875,346.4375 C 237.368,365.76055 249.76991,328.58645 246.78125,313.6875 C 233.04026,238.19813 235.92819,241.67282 240.78125,196.34375 C 241.5686,188.98964 240.63225,186.01645 238.8125,186.09375 z"
       transform="matrix(0.1911111,0,0,0.1911111,-4.0511111,0)"
       id="path6"
       style="fill:#108881;fill-opacity:1;stroke:#000000;stroke-width:0.09999997;stroke-miterlimit:4;stroke-dasharray:none;stroke-opacity:1" />
    <path
       d="M 75.226354,75.722165 C 75.226354,75.638605 76.358575,67.649506 76.390157,67.510215 C 76.402466,67.455925 76.43684,67.411593 76.466541,67.4117 C 76.496243,67.411807 77.285179,68.956489 78.219733,70.844326 C 79.154284,72.732162 79.93409,74.2809 79.952631,74.285964 C 79.97117,74.291027 80.744778,72.746347 81.671757,70.853339 C 82.60412,68.949335 83.382401,67.411506 83.413636,67.411506 C 83.444689,67.411506 83.481452,67.475666 83.495328,67.554086 C 83.538403,67.797518 84.658588,75.675172 84.658588,75.73466 C 84.658588,75.776158 84.555399,75.790839 84.26375,75.790839 C 83.976995,75.790839 83.86898,75.775827 83.869161,75.736 C 83.869608,75.636977 83.068213,69.80292 83.051588,69.784188 C 83.042666,69.774133 83.027672,69.774134 83.018269,69.784188 C 83.008867,69.794241 82.338282,71.144916 81.528082,72.785685 C 80.25788,75.358021 80.041007,75.770689 79.953462,75.781861 C 79.860039,75.793787 79.731638,75.552184 78.344702,72.754773 C 76.960125,69.962123 76.834371,69.725437 76.799401,69.846338 C 76.778465,69.918725 76.593067,71.241431 76.387406,72.785685 C 76.181747,74.329939 76.003805,75.63784 75.991982,75.692129 C 75.97175,75.785046 75.94865,75.790839 75.598421,75.790839 C 75.290038,75.790839 75.226354,75.779085 75.226354,75.722166 L 75.226354,75.722165 z"
       id="path3239"
       style="fill:#000000;fill-opacity:1;stroke:#000000;stroke-width:0.09999997;stroke-linecap:round;stroke-linejoin:miter;stroke-miterlimit:4;stroke-dasharray:none;stroke-dashoffset:0;stroke-opacity:1" />
    <path
       d="M 88.745992,75.965209 C 88.164811,75.880623 87.481019,75.544919 87.129158,75.171433 C 86.92297,74.952574 86.685138,74.534443 86.587978,74.219989 C 86.452618,73.781901 86.414835,72.872099 86.4141,70.032789 L 86.413422,67.411506 L 86.82857,67.411506 L 87.243717,67.411506 L 87.256972,70.603111 C 87.269473,73.613666 87.27495,73.807158 87.353539,74.01407 C 87.468538,74.316848 87.598,74.512669 87.809495,74.703743 C 88.175434,75.034346 88.692292,75.220518 89.244187,75.220518 C 90.066936,75.220518 90.736235,74.760208 91.022675,73.997364 C 91.158587,73.6354 91.19224,72.834694 91.193908,69.923112 L 91.195345,67.411506 L 91.590183,67.411506 L 91.985021,67.411506 L 91.985021,70.12685 C 91.985021,73.455187 91.948361,73.908806 91.623001,74.606325 C 91.443104,74.991998 90.894642,75.537372 90.490362,75.73259 C 89.990073,75.974167 89.37297,76.05646 88.745993,75.965209 L 88.745992,75.965209 z"
       id="path3241"
       style="fill:#000000;fill-opacity:1;stroke:#000000;stroke-width:0.09999997;stroke-linecap:round;stroke-linejoin:miter;stroke-miterlimit:4;stroke-dasharray:none;stroke-dashoffset:0;stroke-opacity:1" />
    <path
       d="M 94.090822,71.598121 L 94.090822,67.405403 L 94.188303,67.419423 C 94.254688,67.428968 95.175042,68.457588 97.072816,70.643243 L 99.859839,73.853045 L 99.871083,70.632275 L 99.882341,67.411506 L 100.27689,67.411506 L 100.67145,67.411506 L 100.67145,71.604224 C 100.67145,75.685679 100.66926,75.796569 100.58885,75.782923 C 100.54342,75.775211 99.267179,74.347487 97.752762,72.610201 C 96.238349,70.872917 94.982422,69.444919 94.961825,69.436877 C 94.941223,69.428834 94.924367,70.855185 94.924367,72.606546 L 94.924367,75.790839 L 94.507594,75.790839 L 94.090822,75.790839 L 94.090822,71.598121 z"
       id="path3243"
       style="fill:#000000;fill-opacity:1;stroke:#000000;stroke-width:0.09999997;stroke-linecap:round;stroke-linejoin:miter;stroke-miterlimit:4;stroke-dasharray:none;stroke-dashoffset:0;stroke-opacity:1" />
    <path
       d="M 102.68951,71.601173 L 102.68951,67.411506 L 103.08435,67.411506 L 103.47918,67.411506 L 103.47918,71.601173 L 103.47918,75.790839 L 103.08435,75.790839 L 102.68951,75.790839 L 102.68951,71.601173 z"
       id="path3245"
       style="fill:#000000;fill-opacity:1;stroke:#000000;stroke-width:0.09999997;stroke-linecap:round;stroke-linejoin:miter;stroke-miterlimit:4;stroke-dasharray:none;stroke-dashoffset:0;stroke-opacity:1" />
    <path
       d="M 108.89723,75.962282 C 107.15296,75.754799 105.73732,74.574145 105.26068,72.929369 C 104.79567,71.324698 105.16062,69.700713 106.23794,68.58066 C 107.15384,67.628444 108.20999,67.192152 109.59917,67.192152 C 110.98785,67.192152 112.03994,67.62218 112.92914,68.553218 L 113.27589,68.916289 L 113.12655,69.040699 C 113.04443,69.109125 112.9034,69.217279 112.81318,69.281042 L 112.64913,69.396973 L 112.23662,69.002602 C 111.89101,68.672199 111.7504,68.572198 111.3697,68.386068 C 110.71183,68.064427 110.4395,68.004991 109.62111,68.004448 C 108.83959,68.00393 108.49623,68.07821 107.89909,68.376986 C 106.62766,69.013136 105.93108,70.16212 105.93108,71.623107 C 105.93108,73.064957 106.6367,74.226709 107.8882,74.845349 C 108.34647,75.071875 108.64746,75.155748 109.23876,75.221681 C 110.00398,75.307008 110.92413,75.128156 111.54374,74.773652 C 111.83155,74.608987 112.36742,74.187474 112.52101,74.004935 L 112.63404,73.870606 L 112.95046,74.110016 L 113.26688,74.349425 L 113.10358,74.532714 C 112.72228,74.960697 112.30239,75.268973 111.717,75.550691 C 110.91006,75.939031 109.91853,76.083763 108.89723,75.96228 L 108.89723,75.962282 z"
       id="path3247"
       style="fill:#000000;fill-opacity:1;stroke:#000000;stroke-width:0.09999997;stroke-linecap:round;stroke-linejoin:miter;stroke-miterlimit:4;stroke-dasharray:none;stroke-dashoffset:0;stroke-opacity:1" />
    <path
       d="M 114.8856,71.601173 L 114.8856,67.411506 L 115.28044,67.411506 L 115.67529,67.411506 L 115.67529,71.601173 L 115.67529,75.790839 L 115.28044,75.790839 L 114.8856,75.790839 L 114.8856,71.601173 z"
       id="path3249"
       style="fill:#000000;fill-opacity:1;stroke:#000000;stroke-width:0.09999997;stroke-linecap:round;stroke-linejoin:miter;stroke-miterlimit:4;stroke-dasharray:none;stroke-dashoffset:0;stroke-opacity:1" />
    <path
       d="M 117.64947,71.597198 L 117.64947,67.403556 L 119.32753,67.422443 C 120.72209,67.438138 121.0488,67.453693 121.26131,67.514505 C 122.3172,67.816644 122.87843,68.550454 122.87698,69.626983 C 122.8758,70.502797 122.5291,71.121733 121.82504,71.504929 C 121.39732,71.737726 121.02706,71.798331 119.70043,71.852698 L 118.48302,71.902588 L 118.48302,73.846714 L 118.48302,75.790839 L 118.06624,75.790839 L 117.64947,75.790839 L 117.64947,71.597198 z M 121.08999,70.967709 C 121.4866,70.838912 121.84993,70.495279 121.96921,70.136138 C 122.14097,69.619002 122.03676,69.059217 121.69873,68.683242 C 121.31449,68.255888 121.0979,68.202611 119.61269,68.170159 L 118.48302,68.145475 L 118.48302,69.625788 L 118.48302,71.106102 L 119.63463,71.086228 C 120.67727,71.068235 120.81498,71.057021 121.08999,70.967709 L 121.08999,70.967709 z"
       id="path3251"
       style="fill:#000000;fill-opacity:1;stroke:#000000;stroke-width:0.09999997;stroke-linecap:round;stroke-linejoin:miter;stroke-miterlimit:4;stroke-dasharray:none;stroke-dashoffset:0;stroke-opacity:1" />
    <path
       d="M 123.92273,75.757936 C 123.92258,75.739839 124.80603,73.853733 125.88595,71.56659 C 127.72244,67.677132 127.85616,67.408965 127.95327,67.420793 C 128.04532,67.432009 128.27127,67.892797 129.94938,71.491793 C 130.99015,73.723887 131.86595,75.604301 131.89559,75.670492 L 131.94949,75.790839 L 131.52084,75.790839 L 131.0922,75.790839 L 130.43598,74.4091 L 129.77976,73.027362 L 127.93719,73.027359 L 126.09461,73.027354 L 125.44048,74.409097 L 124.78637,75.790839 L 124.35468,75.790839 C 124.11726,75.790839 123.92288,75.776032 123.92273,75.757936 z M 129.37255,72.155909 C 129.24356,71.822531 127.97391,69.170312 127.94722,69.178507 C 127.91845,69.187341 126.99096,71.101651 126.59807,71.963107 L 126.47301,72.2373 L 127.93852,72.2373 C 129.34798,72.2373 129.40283,72.234187 129.37255,72.155909 z"
       id="path3253"
       style="fill:#000000;fill-opacity:1;stroke:#000000;stroke-width:0.09999997;stroke-linecap:round;stroke-linejoin:miter;stroke-miterlimit:4;stroke-dasharray:none;stroke-dashoffset:0;stroke-opacity:1" />
    <path
       d="M 133.31136,71.601173 L 133.31136,67.411506 L 133.72814,67.411506 L 134.14491,67.411506 L 134.14491,71.206334 L 134.14491,75.001164 L 135.76813,75.001164 L 137.39136,75.001164 L 137.39136,75.396001 L 137.39136,75.790839 L 135.35136,75.790839 L 133.31136,75.790839 L 133.31136,71.601173 z"
       id="path3255"
       style="fill:#000000;fill-opacity:1;stroke:#000000;stroke-width:0.09999997;stroke-linecap:round;stroke-linejoin:miter;stroke-miterlimit:4;stroke-dasharray:none;stroke-dashoffset:0;stroke-opacity:1" />
    <path
       d="M 138.66361,71.601173 L 138.66361,67.411506 L 139.05845,67.411506 L 139.45329,67.411506 L 139.45329,71.601173 L 139.45329,75.790839 L 139.05845,75.790839 L 138.66361,75.790839 L 138.66361,71.601173 z"
       id="path3257"
       style="fill:#000000;fill-opacity:1;stroke:#000000;stroke-width:0.09999997;stroke-linecap:round;stroke-linejoin:miter;stroke-miterlimit:4;stroke-dasharray:none;stroke-dashoffset:0;stroke-opacity:1" />
    <path
       d="M 141.42747,71.605191 L 141.42747,67.411506 L 142.86592,67.411506 C 144.76472,67.411506 145.43162,67.491789 146.1824,67.810757 C 147.05113,68.179832 147.78984,68.944805 148.16204,69.860788 C 148.40651,70.462448 148.46643,70.829957 148.46368,71.710849 C 148.46153,72.401424 148.447,72.574202 148.36625,72.86941 C 148.02317,74.123766 147.23098,75.08478 146.22524,75.466698 C 145.52164,75.733877 145.30008,75.757378 143.28102,75.779015 L 141.42747,75.798878 L 141.42747,71.605191 z M 144.3426,74.999073 C 145.19311,74.941223 145.57659,74.860206 146.03392,74.641753 C 146.34029,74.495403 146.47351,74.396133 146.78068,74.085299 C 147.33472,73.524642 147.58188,72.961743 147.65524,72.093535 C 147.75581,70.90332 147.43251,69.903602 146.71535,69.187196 C 145.97283,68.445449 145.25579,68.239267 143.19327,68.17444 L 142.21715,68.14376 L 142.21715,71.594396 L 142.21715,75.045034 L 142.95198,75.044357 C 143.35615,75.043983 143.98193,75.023604 144.3426,74.999073 L 144.3426,74.999073 z"
       id="path3259"
       style="fill:#000000;fill-opacity:1;stroke:#000000;stroke-width:0.09999997;stroke-linecap:round;stroke-linejoin:miter;stroke-miterlimit:4;stroke-dasharray:none;stroke-dashoffset:0;stroke-opacity:1" />
    <path
       d="M 149.45584,75.776569 C 149.45584,75.767035 150.34055,73.88593 151.42187,71.596337 C 153.19198,67.848294 153.39855,67.43228 153.49477,67.421799 C 153.59582,67.410792 153.70611,67.634414 155.51924,71.526539 C 156.57392,73.790549 157.44989,75.676946 157.46585,75.718534 C 157.49228,75.78743 157.45669,75.793025 157.06487,75.781524 L 156.63488,75.768904 L 155.98474,74.408907 L 155.33459,73.04891 L 153.48494,73.04891 L 151.6353,73.04891 L 150.99073,74.408907 L 150.34614,75.768904 L 149.901,75.781406 C 149.65616,75.788283 149.45584,75.786106 149.45584,75.77657 L 149.45584,75.776569 z M 154.9397,72.210436 C 154.9397,72.155723 153.52263,69.16635 153.49682,69.16661 C 153.46965,69.166885 152.04422,72.14994 152.04422,72.20654 C 152.04422,72.223458 152.69571,72.2373 153.49196,72.2373 C 154.28821,72.2373 154.9397,72.225212 154.9397,72.210437 L 154.9397,72.210436 z"
       id="path3261"
       style="fill:#000000;fill-opacity:1;stroke:#000000;stroke-width:0.09999997;stroke-linecap:round;stroke-linejoin:miter;stroke-miterlimit:4;stroke-dasharray:none;stroke-dashoffset:0;stroke-opacity:1" />
    <path
       d="M 158.88808,71.597159 L 158.88808,67.403478 L 160.5442,67.422981 C 162.65138,67.447797 163.06231,67.511604 163.89325,67.943014 C 164.58121,68.300188 165.09111,68.831381 165.46759,69.583113 C 166.10854,70.862944 166.09811,72.571958 165.44175,73.81665 C 164.82225,74.991419 163.88428,75.593467 162.43581,75.746032 C 162.20978,75.76984 161.31907,75.78966 160.45645,75.790079 L 158.88808,75.790839 L 158.88808,71.597159 z M 161.7961,74.999549 C 162.52886,74.9497 162.9354,74.875314 163.31249,74.722091 C 163.92528,74.473092 164.46591,73.965781 164.76219,73.36174 C 165.04353,72.788157 165.09297,72.542133 165.09389,71.710849 C 165.09458,71.086349 165.0809,70.938802 164.99425,70.636013 C 164.62542,69.347273 163.73223,68.540973 162.41993,68.31213 C 162.00153,68.239165 160.78587,68.158942 160.08355,68.157947 L 159.63387,68.15731 L 159.63387,71.601173 L 159.63387,75.045034 L 160.39065,75.044357 C 160.80687,75.043983 161.43933,75.023818 161.7961,74.999548 L 161.7961,74.999549 z"
       id="path3263"
       style="fill:#000000;fill-opacity:1;stroke:#000000;stroke-width:0.09999997;stroke-linecap:round;stroke-linejoin:miter;stroke-miterlimit:4;stroke-dasharray:none;stroke-dashoffset:0;stroke-opacity:1" />
  </g>
</svg>
