<?xml version="1.0" encoding="UTF-8" standalone="no"?>
<!-- Created with Inkscape (http://www.inkscape.org/) -->

<svg
   xmlns:dc="http://purl.org/dc/elements/1.1/"
   xmlns:cc="http://creativecommons.org/ns#"
   xmlns:rdf="http://www.w3.org/1999/02/22-rdf-syntax-ns#"
   xmlns:svg="http://www.w3.org/2000/svg"
   xmlns="http://www.w3.org/2000/svg"
   xmlns:xlink="http://www.w3.org/1999/xlink"
   version="1.1"
   width="560"
   height="800"
   id="svg2">
  <defs
     id="defs4" />
  <metadata
     id="metadata7">
    <rdf:RDF>
      <cc:Work
         rdf:about="">
        <dc:format>image/svg+xml</dc:format>
        <dc:type
           rdf:resource="http://purl.org/dc/dcmitype/StillImage" />
        <dc:title></dc:title>
      </cc:Work>
    </rdf:RDF>
  </metadata>
  <g
     transform="translate(0,-252.36218)"
     id="layer1">
    <g
       transform="matrix(0.89670704,0,0,0.89670704,-53.61738,266.00388)"
       id="g5988">
      <g
         transform="translate(30.078491,0)"
         id="g5901">
        <path
           d="m 496.69154,7.9520528 -9.01873,25.4492102 -7.87053,22.209149 96.73057,34.279561 7.87053,-22.20915 9.01873,-25.449211 -21.94405,-7.776575 -9.01875,25.44921 -15.43447,-5.469698 9.01874,-25.449211 -21.94406,-7.776574 -9.01873,25.449211 -15.46393,-5.480137 9.01873,-25.449211 z"
           id="path5828"
           style="fill:#b1b1b1;fill-opacity:1;stroke:#000000;stroke-width:1.11519134;stroke-linecap:round;stroke-linejoin:round;stroke-miterlimit:4;stroke-opacity:1;stroke-dasharray:none;stroke-dashoffset:0" />
        <path
           d="m 339.98671,52.606018 c -77.67204,0 -151.47415,16.90953 -217.97437,47.322562 l 30.16544,82.18415 c 126.75616,-1.90688 253.50216,-0.74996 380.25869,0 l 29.48866,-80.29319 C 494.38155,70.236014 419.22987,52.606018 339.98671,52.606018 z"
           id="path5799"
           style="fill:#b1b1b1;fill-opacity:1;stroke:#000000;stroke-width:1.11519134px;stroke-linecap:butt;stroke-linejoin:miter;stroke-opacity:1" />
        <path
           d="m 340.6875,93.625 c -50.20992,0 -97.91818,10.89841 -140.90625,30.5 l 19.5,52.96875 c 81.93961,-1.22901 163.87265,-0.48336 245.8125,0 l 19.0625,-51.75 C 440.49372,104.98776 391.91305,93.625 340.6875,93.625 z"
           id="path5777"
           style="fill:#ed1c24;stroke:#000000;stroke-width:1.11519134px;stroke-linecap:butt;stroke-linejoin:miter;stroke-opacity:1" />
        <use
           transform="matrix(-1,0,0,1,683.9375,0)"
           id="use5830"
           style="stroke:#000000;stroke-width:1.11519134;stroke-opacity:1"
           x="0"
           y="0"
           width="744.09448"
           height="1052.3622"
           xlink:href="#path5828" />
        <rect
           width="30.808891"
           height="16.13031"
           x="326.33905"
           y="66.477684"
           id="rect5840"
           style="fill:#000000;fill-opacity:1;stroke:#000000;stroke-width:1.11519134;stroke-linecap:round;stroke-linejoin:round;stroke-miterlimit:4;stroke-opacity:1;stroke-dasharray:none;stroke-dashoffset:0" />
        <g
           id="g5859">
          <path
             d="m 290.65625,-9.09375 0,27 0,23.5625 102.625,0 0,-23.5625 0,-27 -23.28125,0 0,27 -16.375,0 0,-27 -23.28125,0 0,27 -16.40625,0 0,-27 z"
             id="rect5815"
             style="fill:#b1b1b1;fill-opacity:1;stroke:#000000;stroke-width:1.11519134;stroke-linecap:round;stroke-linejoin:round;stroke-miterlimit:4;stroke-opacity:1;stroke-dasharray:none;stroke-dashoffset:0" />
          <rect
             width="30.808891"
             height="16.13031"
             x="326.33905"
             y="66.477684"
             id="rect5857"
             style="fill:#000000;fill-opacity:1;stroke:#000000;stroke-width:1.11519134;stroke-linecap:round;stroke-linejoin:round;stroke-miterlimit:4;stroke-opacity:1;stroke-dasharray:none;stroke-dashoffset:0" />
        </g>
        <g
           id="g5873">
          <path
             d="m 496.69154,7.9520528 -9.01873,25.4492102 -7.87053,22.209149 96.73057,34.279561 7.87053,-22.20915 9.01873,-25.449211 -21.94405,-7.776575 -9.01875,25.44921 -15.43447,-5.469698 9.01874,-25.449211 -21.94406,-7.776574 -9.01873,25.449211 -15.46393,-5.480137 9.01873,-25.449211 z"
             id="path5869"
             style="fill:#b1b1b1;fill-opacity:1;stroke:#000000;stroke-width:1.11519134;stroke-linecap:round;stroke-linejoin:round;stroke-miterlimit:4;stroke-opacity:1;stroke-dasharray:none;stroke-dashoffset:0" />
          <use
             transform="matrix(-1,0,0,1,683.9375,0)"
             id="use5871"
             style="stroke:#000000;stroke-width:1.11519134;stroke-opacity:1"
             x="0"
             y="0"
             width="744.09448"
             height="1052.3622"
             xlink:href="#path5828" />
        </g>
        <path
           d="m 339.84375,38.1875 c -82.93074,0 -161.7162,18.079192 -232.71875,50.5625 L 122,99.9375 c 66.50022,-30.413032 140.32796,-47.34375 218,-47.34375 79.24316,0 154.39392,17.635224 221.9375,49.21875 L 576.8125,90.75 C 504.69595,57.016523 424.45199,38.1875 339.84375,38.1875 z"
           id="path5801"
           style="fill:#b1b1b1;fill-opacity:1;stroke:#000000;stroke-width:1.11519134px;stroke-linecap:butt;stroke-linejoin:miter;stroke-opacity:1" />
        <rect
           width="30.808891"
           height="16.13031"
           x="503.65353"
           y="-91.175232"
           transform="matrix(0.93702165,0.34927129,-0.34927129,0.93702165,0,0)"
           id="rect5885"
           style="fill:#000000;fill-opacity:1;stroke:#000000;stroke-width:1.11519134;stroke-linecap:round;stroke-linejoin:round;stroke-miterlimit:4;stroke-opacity:1;stroke-dasharray:none;stroke-dashoffset:0" />
        <rect
           width="30.808891"
           height="16.13031"
           x="-136.72183"
           y="147.52228"
           transform="matrix(-0.93702165,0.34927129,0.34927129,0.93702165,0,0)"
           id="rect5891"
           style="fill:#000000;fill-opacity:1;stroke:#000000;stroke-width:1.11519134;stroke-linecap:round;stroke-linejoin:round;stroke-miterlimit:4;stroke-opacity:1;stroke-dasharray:none;stroke-dashoffset:0" />
        <g
           id="text5897"
           style="font-size:64px;font-style:normal;font-variant:normal;font-weight:bold;font-stretch:normal;text-align:start;line-height:125%;letter-spacing:0px;word-spacing:0px;writing-mode:lr-tb;text-anchor:start;fill:#000000;fill-opacity:1;stroke:none;font-family:Book Antiqua;-inkscape-font-specification:Book Antiqua Bold">
          <path
             d="m 258.45312,158.0574 -0.3125,-0.375 0,-1.875 0.3125,-0.375 c 4,-0.35416 6.24999,-0.63541 6.75,-0.84375 0.39583,-0.16666 0.67708,-0.42708 0.84375,-0.78125 0.27083,-0.58333 0.45833,-2.63541 0.5625,-6.15625 0.16666,-6.02081 0.24999,-11.35414 0.25,-16 -1e-5,-6.10413 -0.0625,-9.49996 -0.1875,-10.1875 -0.0833,-0.37496 -0.28126,-0.56246 -0.59375,-0.5625 -0.18751,4e-5 -0.47917,0.0834 -0.875,0.25 l -8.59375,3.9375 -0.40625,-0.25 c -0.16666,-1.5208 -0.38541,-2.79163 -0.65625,-3.8125 l 0.25,-0.46875 c 7.83333,-2.24996 14.33332,-4.42704 19.5,-6.53125 l 0.8125,0.46875 c -0.27085,2.89588 -0.47397,6.84379 -0.60937,11.84375 -0.13544,5.00003 -0.20315,11.05211 -0.20313,18.15625 -2e-5,4.85418 0.1354,7.87501 0.40625,9.0625 0.12498,0.54167 0.36457,0.90626 0.71875,1.09375 0.52082,0.29167 2.6354,0.55209 6.34375,0.78125 l 0.375,0.375 0,1.875 -0.375,0.375 -3.875,-0.0937 c -3.91668,-0.0833 -6.56251,-0.125 -7.9375,-0.125 -3.83334,0 -8,0.0729 -12.5,0.21875 z"
             id="path6110" />
          <path
             d="m 311.73437,136.2449 c -2.3125,-1.20831 -3.97917,-2.63539 -5,-4.28125 -1.02083,-1.6458 -1.53125,-3.60413 -1.53125,-5.875 0,-3.58329 1.28125,-6.55725 3.84375,-8.92187 2.5625,-2.36454 5.94791,-3.54683 10.15625,-3.54688 3.66665,5e-5 6.46352,0.87505 8.39063,2.625 1.92706,1.75004 2.8906,4.12504 2.89062,7.125 -2e-5,1.83337 -0.44794,3.46358 -1.34375,4.89063 -0.89585,1.42711 -2.53127,2.89065 -4.90625,4.39062 2.68748,1.06253 4.61456,2.31253 5.78125,3.75 1.58331,1.93752 2.37498,4.43752 2.375,7.5 -2e-5,4.20835 -1.43752,7.72397 -4.3125,10.54688 -2.87502,2.82292 -6.56251,4.23437 -11.0625,4.23437 -3.89584,0 -7.03125,-1.10416 -9.40625,-3.3125 -2.375,-2.20833 -3.5625,-5.02082 -3.5625,-8.4375 0,-2.47915 0.55729,-4.54165 1.67188,-6.1875 1.11458,-1.64581 3.11979,-3.14581 6.01562,-4.5 z m 9.40625,-4.84375 c 1.31249,-1.0208 2.29165,-2.1458 2.9375,-3.375 0.64582,-1.22913 0.96873,-2.56246 0.96875,-4 -2e-5,-2.18746 -0.6146,-3.90621 -1.84375,-5.15625 -1.22918,-1.24996 -2.90626,-1.87496 -5.03125,-1.875 -1.97918,4e-5 -3.54688,0.55734 -4.70312,1.67188 -1.15626,1.11462 -1.73438,2.54691 -1.73438,4.29687 0,1.64587 0.57812,3.06774 1.73438,4.26563 1.15624,1.19794 3.71353,2.58857 7.67187,4.17187 z m -6.65625,6.125 c -1.58334,1.33336 -2.71875,2.71356 -3.40625,4.14063 -0.6875,1.4271 -1.03125,2.9948 -1.03125,4.70312 0,2.58335 0.78125,4.71355 2.34375,6.39063 1.56249,1.67709 3.47916,2.51563 5.75,2.51562 2.02082,1e-5 3.70832,-0.72395 5.0625,-2.17187 1.35415,-1.44791 2.03123,-3.27604 2.03125,-5.48438 -2e-5,-1.33332 -0.28648,-2.54686 -0.85937,-3.64062 -0.57294,-1.09374 -1.4219,-2.03644 -2.54688,-2.82813 -1.12501,-0.79165 -3.57293,-1.99998 -7.34375,-3.625 z"
             id="path6112" />
          <path
             d="m 372.17187,136.1824 c -2.33335,2.43752 -3.97918,3.88544 -4.9375,4.34375 -1.27084,0.62502 -2.84376,0.93752 -4.71875,0.9375 -2.97917,2e-5 -5.40625,-1.0781 -7.28125,-3.23437 -1.875,-2.15623 -2.8125,-5.16143 -2.8125,-9.01563 0,-4.62496 1.34375,-8.38017 4.03125,-11.26562 2.6875,-2.88538 6.08333,-4.32808 10.1875,-4.32813 2.81249,5e-5 5.29165,0.68755 7.4375,2.0625 2.14581,1.37504 3.79685,3.32296 4.95313,5.84375 1.15622,2.52087 1.73434,5.93753 1.73437,10.25 -3e-5,5.87502 -0.94794,10.70835 -2.84375,14.5 -1.89585,3.79168 -4.64585,6.8698 -8.25,9.23438 -3.60418,2.36458 -7.76042,3.67187 -12.46875,3.92187 l -2.65625,-2.09375 0.75,-1.1875 c 1.27083,0.14584 2.15625,0.21876 2.65625,0.21875 2.33333,1e-5 4.58333,-0.72916 6.75,-2.1875 2.16666,-1.45832 3.85936,-3.51561 5.07813,-6.17187 1.21873,-2.65624 2.0156,-6.59894 2.39062,-11.82813 z m -5.4375,-0.375 c 1.74999,3e-5 3.13019,-0.58331 4.14063,-1.75 1.0104,-1.16664 1.5156,-3.03122 1.51562,-5.59375 -2e-5,-4.12496 -0.59897,-7.06767 -1.79687,-8.82812 -1.19794,-1.76038 -2.76564,-2.64059 -4.70313,-2.64063 -1.72918,4e-5 -3.11459,0.69796 -4.15625,2.09375 -1.04167,1.39587 -1.5625,3.57296 -1.5625,6.53125 0,3.62503 0.63541,6.30211 1.90625,8.03125 1.04166,1.43753 2.59374,2.15628 4.65625,2.15625 z"
             id="path6114" />
          <path
             d="m 407.73437,136.2449 c -2.3125,-1.20831 -3.97917,-2.63539 -5,-4.28125 -1.02083,-1.6458 -1.53125,-3.60413 -1.53125,-5.875 0,-3.58329 1.28125,-6.55725 3.84375,-8.92187 2.5625,-2.36454 5.94791,-3.54683 10.15625,-3.54688 3.66665,5e-5 6.46352,0.87505 8.39063,2.625 1.92706,1.75004 2.8906,4.12504 2.89062,7.125 -2e-5,1.83337 -0.44794,3.46358 -1.34375,4.89063 -0.89585,1.42711 -2.53127,2.89065 -4.90625,4.39062 2.68748,1.06253 4.61456,2.31253 5.78125,3.75 1.58331,1.93752 2.37498,4.43752 2.375,7.5 -2e-5,4.20835 -1.43752,7.72397 -4.3125,10.54688 -2.87502,2.82292 -6.56251,4.23437 -11.0625,4.23437 -3.89584,0 -7.03125,-1.10416 -9.40625,-3.3125 -2.375,-2.20833 -3.5625,-5.02082 -3.5625,-8.4375 0,-2.47915 0.55729,-4.54165 1.67188,-6.1875 1.11458,-1.64581 3.11979,-3.14581 6.01562,-4.5 z m 9.40625,-4.84375 c 1.31249,-1.0208 2.29165,-2.1458 2.9375,-3.375 0.64582,-1.22913 0.96873,-2.56246 0.96875,-4 -2e-5,-2.18746 -0.6146,-3.90621 -1.84375,-5.15625 -1.22918,-1.24996 -2.90626,-1.87496 -5.03125,-1.875 -1.97918,4e-5 -3.54688,0.55734 -4.70312,1.67188 -1.15626,1.11462 -1.73438,2.54691 -1.73438,4.29687 0,1.64587 0.57812,3.06774 1.73438,4.26563 1.15624,1.19794 3.71353,2.58857 7.67187,4.17187 z m -6.65625,6.125 c -1.58334,1.33336 -2.71875,2.71356 -3.40625,4.14063 -0.6875,1.4271 -1.03125,2.9948 -1.03125,4.70312 0,2.58335 0.78125,4.71355 2.34375,6.39063 1.56249,1.67709 3.47916,2.51563 5.75,2.51562 2.02082,1e-5 3.70832,-0.72395 5.0625,-2.17187 1.35415,-1.44791 2.03123,-3.27604 2.03125,-5.48438 -2e-5,-1.33332 -0.28648,-2.54686 -0.85937,-3.64062 -0.57294,-1.09374 -1.4219,-2.03644 -2.54688,-2.82813 -1.12501,-0.79165 -3.57293,-1.99998 -7.34375,-3.625 z"
             id="path6116" />
        </g>
      </g>
      <path
         d="m 67.592491,176.875 c 3.287522,119.97424 -9.059,241.18972 12.340443,360.04693 20.065244,115.0579 93.573956,217.33949 191.614606,279.23528 30.85683,19.94151 62.29038,39.70555 96.41995,53.28029 15.60211,2.23584 27.71104,-10.08921 41.03186,-15.79948 70.25853,-36.98985 135.18648,-86.29782 182.74939,-150.29427 35.41079,-47.72302 58.4359,-103.97298 70.51694,-162.07972 13.22074,-61.57339 13.73726,-124.89933 13.38931,-187.70153 -0.0747,-59.56187 -1.22155,-119.1622 1.46875,-178.6875 -203.17708,0 -406.35417,0 -609.531249,0 l 0,1 0,1 z"
         id="path4484"
         style="fill:#000000;stroke:#000000;stroke-width:1.11519134px;stroke-linecap:butt;stroke-linejoin:miter;stroke-opacity:1" />
      <g
         transform="translate(29.921431,0)"
         id="g5919">
        <g
           id="g5660">
          <path
             d="m 106.60062,445.32321 c 34.52554,-7.73955 52.10267,-11.73104 78.75937,-29.65035 5.57194,-3.79092 12.1246,-15.44265 18.16196,-8.5912 11.36675,2.59933 17.40958,-10.33704 23.90575,-8.98303 10.63074,1.09027 14.68922,-6.59214 19.69316,-14.05938 4.44762,-4.96458 11.37503,-6.893 14.92064,-12.5508 12.46891,-6.5668 21.34764,-11.35635 29.266,-23.60191 7.27974,-5.50517 13.38438,-15.41348 21.34017,-18.10011 9.40881,-4.91538 12.94955,-2.60169 23.34859,-4.99745 3.78075,-3.92269 13.48284,-2.08156 20.08484,-2.51061 4.22762,1.71728 12.12567,2.44275 16.06787,5.02121 4.35088,3.82795 6.02216,10.59163 11.04666,14.05939 3.62242,5.0044 10.57667,9.50211 14.05938,13.05514 2.21489,2.10007 7.24349,4.18286 9.03818,7.02969 4.62461,2.65373 6.76907,6.13222 11.54878,8.03394 5.14082,3.12302 11.16648,6.18502 14.56151,10.54454 3.91966,1.34679 7.77794,8.30485 12.0509,11.54878 9.00224,13.866 14.73007,16.70143 30.35326,23.09756 9.46108,0.3578 15.35895,1.39646 24.88004,2.00849 4.7059,6.73462 10.23948,8.0781 18.63432,16.5651 5.61517,3.41028 11.71056,5.80052 18.96952,5.02609 3.85802,0.3382 8.43803,1.46063 10.59977,4.51909 7.40257,6.87993 15.89432,12.51432 24.25303,16.11828 L 541.03752,660.03088 168.21732,677.96 124.9765,634.19186 z"
             id="path3198"
             style="fill:#0071bc;stroke:#000000;stroke-width:1.11519134px;stroke-linecap:butt;stroke-linejoin:miter;stroke-opacity:1" />
          <path
             d="m 344.96875,322.21875 c -0.59851,0.0134 -1.1744,0.0536 -1.75,0.0937 2.09029,3.17425 3.61343,7.91081 2.875,11.25 -1.43368,4.26728 -1.42063,10.35503 4.09375,9.53125 4.1869,-0.16181 7.61913,-0.26039 9.4375,3.1875 0.38218,4.36943 0.95673,9.97227 2.375,13.15625 1.84626,4.10258 6.52574,4.72558 11.15625,4.25 8.34313,-1.33057 5.85984,7.76175 8.34375,12.0625 1.69133,1.05531 3.42473,7.339 9.25,6.375 4.43516,0.39232 7.31457,-0.76759 11.59375,-0.53125 3.75452,3.37316 5.63672,6.68851 8.9375,9.46875 1.69449,2.85952 4.53586,4.51544 8.5625,3.71875 4.33865,1.23299 9.5874,1.23899 12.03125,3.15625 4.13347,2.74564 6.88969,8.31004 10.03125,11.625 2.82225,2.56741 4.25916,6.16446 7.53125,9.09375 2.20519,2.81771 3.91048,6.24206 6.6875,8.8125 5.0815,2.45142 10.65606,0.77259 16.4375,1.0625 3.76974,0.32088 8.5615,-0.82356 11,1.0625 6.89646,-1.17398 7.21926,2.69589 3.71875,4.46875 -1.55509,6.02127 0.54122,12.06879 -0.0312,18.25 0.38087,5.14082 -1.13392,8.82894 -2.625,13.125 -2.69509,3.30369 -1.7718,12.10361 1.5625,3.6875 2.03701,-2.80345 5.07604,-4.03405 4.75,-9.59375 0.24319,-4.68184 -0.706,-10.58549 1.0625,-14.125 1.46,-2.53825 3.66391,-4.34207 6.3125,-1.59375 3.78354,2.08519 3.25209,2.3564 5.8125,5.28125 3.47433,1.92271 5.23872,3.32063 7.375,5.8125 2.73421,1.50806 -0.57114,11.0397 2.15625,10.75 1.24706,2.11859 6.25763,-3.93775 11.03125,-2.3125 5.24289,-0.96358 1.6859,-9.15525 6.34375,-7.375 4.58645,3.05084 8.88639,5.69237 14.84375,5.78125 4.50104,0.48823 6.01541,0.71101 10.46875,-0.53125 5.09885,-2.30522 3.76202,-4.12399 7,-6.84375 -5.38542,-3.20058 -10.63516,-7.13047 -15.4375,-11.59375 -2.16174,-3.05846 -6.76698,-4.1618 -10.625,-4.5 -7.25896,0.77443 -13.35358,-1.62097 -18.96875,-5.03125 -8.39484,-8.487 -13.9191,-9.82788 -18.625,-16.5625 -9.52109,-0.61203 -15.41392,-1.67345 -24.875,-2.03125 -15.62319,-6.39613 -21.34151,-9.22775 -30.34375,-23.09375 -4.27296,-3.24393 -8.14284,-10.18446 -12.0625,-11.53125 -3.39503,-4.35952 -9.42168,-7.43948 -14.5625,-10.5625 -4.77971,-1.90172 -6.93789,-5.37752 -11.5625,-8.03125 -1.79469,-2.84683 -6.81636,-4.93118 -9.03125,-7.03125 -3.48271,-3.55303 -10.44008,-8.0581 -14.0625,-13.0625 -5.0245,-3.46776 -6.68037,-10.2033 -11.03125,-14.03125 -3.9422,-2.57846 -11.83488,-3.31397 -16.0625,-5.03125 -3.301,0.21452 -7.40163,-0.14619 -11.125,-0.0625 z m -18.0625,3.875 c -4.53911,0.35217 -8.23921,0.54733 -14.25,3.6875 -0.0619,0.0209 -0.12581,0.0407 -0.1875,0.0625 3.35699,0.51946 6.2515,3.16671 5.40625,6.96875 1.03397,4.3966 -0.76171,8.74405 -4.9375,10.6875 -4.29369,2.84336 -7.26611,7.41368 -7.53125,12.625 -1.96239,7.10222 7.20949,0.24331 9.34375,-2.21875 2.50439,-3.89955 7.5743,-5.06167 8,0.8125 1.32115,4.45826 2.01076,10.2362 7.96875,10 4.78686,3.15105 7.49196,8.68136 8.46875,14.15625 3.78777,0.79456 6.28282,-7.14246 5.25,-10.84375 -0.14753,-4.63643 -2.92696,-10.63782 -8.3125,-6.875 -5.30079,-0.70005 -0.60016,-9.24419 -2.71875,-13.1875 -2.12509,-7.02857 -4.83827,-13.98909 -5.5,-21.34375 -0.42813,-1.29844 -0.6759,-2.92829 -1,-4.53125 z m -44.875,32.75 c -4.69819,4.18733 -9.93263,7.27282 -16.0625,10.5625 2.92811,0.30293 3.76859,2.96502 6.65625,5.34375 1.5123,3.34173 4.00198,6.91228 5.34375,10.40625 3.16341,0.99757 6.44755,-3.62419 7.84375,-5.65625 4.32663,-2.85596 1.08175,-6.07706 0,-10.03125 -0.20541,-3.63424 -2.35671,-7.35627 -3.78125,-10.625 z m 31.1875,27.5 c 0.12673,0.0174 0.24965,0.0417 0.375,0.0625 0.0552,-0.0583 -0.0411,-0.0943 -0.375,-0.0625 z m 0.375,0.0625 c -0.28442,0.30029 -4.97972,1.52955 -6.65625,1 -1.74226,0.0136 -4.90265,-1.03834 -5.9375,-0.4375 0.0391,-0.0128 0.0241,-0.006 -0.0312,0.0312 -0.35326,0.13234 -2.61936,1.24892 -3.5625,1.46875 -4.98407,-0.20196 -7.27191,3.06189 -6.3125,7.875 0.24386,3.81783 -2.06868,4.99827 -4.6875,6.71875 -2.72192,1.45635 -3.52525,3.03611 -5.875,4.90625 -2.77313,3.89953 -4.75879,4.09178 -5.78125,8.96875 -2.10174,4.58639 -2.48664,7.83312 -4.75,11.0625 -2.95605,3.81062 -7.84529,0.16103 -11.09375,-2.09375 -3.43935,-2.60917 -7.81169,-7.76468 -13.15625,-4.21875 -5.63378,1.49935 0.5935,5.88575 -1.0625,10 -2.55459,3.21288 -2.92854,14.33159 0.5,8.96875 2.30708,-1.78627 5.57027,-4.81558 9.75,-4.21875 8.97199,-1.12033 4.23424,7.02402 9.25,11.09375 3.9898,0.98389 8.98451,0.81595 11.59375,-1.0625 5.76328,0.98766 4.711,-5.79158 4.75,-9.59375 -1.47556,-5.58499 2.53725,-8.21204 6.84375,-9.90625 5.56963,-2.09614 2.36482,-7.41041 1.0625,-10.78125 -0.70719,-3.75821 3.25663,-5.76932 5.8125,-6.125 3.43933,0.30128 9.71535,2.35566 12.125,-2.09375 1.24848,-3.43319 0.45502,-10.25422 6.21875,-8.4375 3.29179,-0.0989 7.12064,0.69818 8.5625,-2.09375 2.41959,-2.01161 5.76777,-5.26452 7.90625,-6.34375 1.58893,-6.31127 -2.15055,-3.25706 -5.75,-3.15625 -3.69255,0.5915 -6.49674,-0.99699 -9.71875,-1.53125 z M 199.5,404.96875 c -1.00693,-0.003 -2.02081,0.31755 -3.03125,0.875 -0.43887,1.47948 -1.01077,2.69972 -2.5,1.8125 0.39611,0.37602 0.55135,0.65577 0.5625,0.84375 3.19315,3.55911 5.87238,7.58187 9.03125,9.5 4.63324,1.74885 3.41161,-6.79452 3.6875,-10.5 -0.0177,-0.0293 -0.0148,-0.0643 -0.0312,-0.0937 -1.17112,0.0652 -2.38532,-0.0147 -3.6875,-0.3125 -1.32067,-1.49875 -2.67692,-2.12109 -4.03125,-2.125 z M 194.53125,408.5 c -0.22047,-0.24574 -0.45694,-0.47899 -0.6875,-0.71875 -0.14331,0.12321 -0.2945,0.24705 -0.4375,0.375 0.46581,0.68254 1.14921,0.752 1.125,0.34375 z m -14.1875,23.71875 c -2.32714,5.00733 -7.6216,7.99871 -11.0625,12.15625 -4.31078,2.91893 -8.88279,6.19061 -11.9375,9.53125 2.73305,-0.15769 5.5059,-0.0164 8.25,-0.0625 4.66491,-0.66037 8.92977,-5.03812 13.6875,-2.625 2.1953,4.73685 4.25556,9.05297 9.5,3.15625 2.08059,-3.19832 4.13919,-6.35547 5.28125,-9.5 1.36004,-3.26064 4.42313,-6.73071 7.90625,-10.53125 -0.39352,-0.90576 -7.06391,1.54085 -6.84375,2.90625 -1.75553,2.35902 -8.9266,4.14706 -9.5,-0.28125 -1.96464,-1.98583 -2.65729,-3.57242 -5.28125,-4.75 z"
             id="path5629"
             style="fill:#e3e4e5;fill-opacity:0.45789472;stroke:none" />
        </g>
        <path
           d="m 113.56987,554.35176 457.543,0 -56.52322,97.90109 -357.94155,0 z"
           id="path5771"
           style="fill:#008f4c;stroke:#000000;stroke-width:1.11519134px;stroke-linecap:butt;stroke-linejoin:miter;stroke-opacity:1" />
        <path
           d="m 104.00095,575.89087 235.62486,-27.41341 -226.48705,52.21603 13.70672,20.23371 208.86413,-72.44974 -193.85203,93.33616 27.41342,17.62291 169.04941,-110.95907 -112.26447,101.16856 25.45532,1.9581 86.80915,-103.12666"
           id="path5773"
           style="fill:none;stroke:#000000;stroke-width:5.5759573;stroke-linecap:round;stroke-linejoin:miter;stroke-miterlimit:4;stroke-opacity:0.7;stroke-dasharray:none" />
        <path
           d="M 580.25067,575.89087 344.62581,548.47746 571.11286,600.69349 557.40614,620.9272 348.54201,548.47746 542.39404,641.81362 514.98062,659.43653 345.93121,548.47746 458.19568,649.64602 426.86606,660.08923 345.93121,548.47746"
           id="path5775"
           style="fill:none;stroke:#000000;stroke-width:5.5759573;stroke-linecap:round;stroke-linejoin:miter;stroke-miterlimit:4;stroke-opacity:0.7;stroke-dasharray:none" />
        <g
           id="g4420">
          <path
             d="m 427.52358,459.62984 c 0.0612,0.30594 0.13227,0.61007 0.18356,0.91782 0.0101,0.0604 0,0.12238 0,0.18357 0,0.24475 0,0.48951 0,0.73426 0,0.42832 0,0.85664 0,1.28496 0,0.15382 0.039,0.83981 0,0.91782 -0.0274,0.0547 -0.1562,-0.0547 -0.18356,0 -0.0547,0.10946 0.0297,0.24841 0,0.36713 -0.0332,0.13274 -0.1403,0.23733 -0.18357,0.36713 -0.0194,0.058 0,0.12238 0,0.18357 0,0.12238 0,0.24475 0,0.36713 0,0.0612 0.0433,0.1403 0,0.18357 -0.0433,0.0433 -0.1403,-0.0433 -0.18356,0 -0.0433,0.0433 0,0.12237 0,0.18356 0,0.1992 -0.10239,0.63894 0.18356,0.73426 0.10443,0.0348 0.74494,0 0.91783,0 0.73426,0 1.46852,0 2.20278,0"
             id="path3157"
             style="fill:none;stroke:#000000;stroke-width:1.11519134px;stroke-linecap:butt;stroke-linejoin:miter;stroke-opacity:1" />
          <path
             d="m 414.13268,511.47649 c 3.03527,-13.11238 2.89551,-54.51125 13.47661,-71.75386 -3.59803,-24.7277 -11.49855,-57.39175 -11.6599,-69.14416 -2.30927,-0.91026 -2.96548,2.19043 -8.96656,-2.41164 -0.84988,-5.33577 -7.48277,-12.84674 -5.31212,-15.9173 -1.60511,-1.53135 -1.35387,-3.48546 -1.02647,-4.47896 1.00457,-3.04846 9.04583,-3.37246 11.47822,0.20956 5.77572,4.55729 8.71185,6.97204 9.85246,9.49913 1.40631,3.11576 3.58504,12.14861 5.62746,15.84236 3.23975,5.85914 7.053,12.07053 8.62098,17.44476 1.86631,7.90414 4.67008,14.68307 7.45628,22.34154 1.62822,6.09375 3.50872,12.09801 4.46151,19.82893 6.32499,12.91154 0.97437,28.22832 -0.85493,50.22674 -1.70375,20.9805 -1.41596,30.95943 -13.96254,51.62714 -9.25805,18.48555 -17.96154,44.52422 -31.14824,57.18641"
             id="path4071"
             style="fill:#fb936f;fill-opacity:1;stroke:#000000;stroke-width:1.11519134px;stroke-linecap:butt;stroke-linejoin:miter;stroke-opacity:1" />
          <path
             d="m 411.22545,370.66204 c 2.41477,0.47528 2.46963,1.63051 5.53893,0.38764 l 0.67266,-2.87228"
             id="path4104"
             style="fill:#ff6600;stroke:#000000;stroke-width:1.11519134px;stroke-linecap:round;stroke-linejoin:round;stroke-opacity:1" />
          <path
             d="m 401.23347,350.96271 c -0.79525,-0.96396 -1.87968,-2.43397 -2.67493,-3.39793 -1.82678,1.5977 -1.96246,3.40244 -0.88079,5.19508 0.36255,0.54545 1.88429,0.98518 2.48437,1.15772 0.53137,-0.22828 1.07135,-2.95487 1.07135,-2.95487 z"
             id="path4096"
             style="fill:#fb936f;fill-opacity:1;stroke:#000000;stroke-width:1.11519134px;stroke-linecap:butt;stroke-linejoin:miter;stroke-opacity:1" />
          <path
             d="m 409.70985,577.10084 c -3.47766,18.68418 -8.82844,60.10743 -12.99233,72.38971 -46.88453,-0.16747 -80.78127,0.47922 -127.67545,0.43082 9.4929,-26.66591 -9.35012,-52.8427 -5.7697,-88.41491 l 60.70229,10.18552 32.63265,-36.4545 15.96635,-28.17904 c 2.07315,9.34043 -0.72362,19.34682 -1.36056,28.99586 -0.0521,3.01035 -0.85123,8.66317 4.28148,6.76029 2.61733,-2.43921 4.87164,-5.25298 7.23477,-7.9387 3.40368,-3.49869 9.07634,-10.31072 12.70908,-11.6594 5.22528,-5.55296 8.65791,-14.99096 13.61004,-19.41027 5.9006,-5.8789 8.19375,-7.66239 15.17606,-10.31502"
             id="path3242"
             style="fill:#fb936f;fill-opacity:1;stroke:#000000;stroke-width:1.11519134px;stroke-linecap:butt;stroke-linejoin:miter;stroke-opacity:1" />
          <path
             d="m 325.749,611.38812 a 4.620553,5.198122 0 1 1 -9.2411,0 4.620553,5.198122 0 1 1 9.2411,0 z"
             transform="matrix(0.41666665,0,0,0.41666665,178.44738,346.14543)"
             id="path4416"
             style="fill:#000000;fill-opacity:0.24210528;stroke:none" />
          <path
             d="m 388.92517,488.70674 c 2.27996,-0.53892 26.74301,-7.29589 29.253,-8.99527 2.18788,-1.48129 1.62329,-3.54156 4.11693,-5.59376 1.19124,-1.18769 1.77157,1.10577 1.98574,2.02268 1.92532,8.24272 -7.86879,12.46826 -12.23102,18.04933 -14.70496,7.87541 -15.12304,6.95134 -23.95348,10.95163 -9.09901,9.55339 -23.34165,29.03715 -28.80095,39.66665 -3.82564,8.99975 -8.58514,17.79792 -16.1093,24.25958 -8.33726,8.34373 -14.30534,18.79739 -23.43552,26.33385 -5.64612,7.88253 -15.48596,7.04214 -22.46282,1.77823 -12.57972,-7.71513 -22.87305,-18.51359 -34.31503,-27.72482 -8.03952,-5.50073 -9.73557,-16.76089 -5.91283,-25.26504 1.42896,-6.77721 9.01919,-13.93201 15.50931,-17.29636 7.22029,-2.62577 17.25461,-1.88014 22.27219,-0.52997 2.98169,1.0746 25.80042,10.72284 28.77399,9.87062 1.18633,0.0783 1.38178,-1.53259 1.26074,-2.56972 -0.11097,-8.074 -1.03326,-16.76755 -1.00812,-24.0949 -0.7939,-3.60057 -5.34545,-33.44309 -7.15459,-37.63045 l 8.67395,-18.95831 30.34059,-4.02477 19.19507,10.83592 z"
             id="path3192"
             style="fill:#fb936f;fill-opacity:1;stroke:#000000;stroke-width:1.11519134px;stroke-linecap:butt;stroke-linejoin:miter;stroke-opacity:1" />
          <path
             d="m 321.98178,493.53803 c 3.0251,5.1438 4.47247,11.07647 5.88236,17.02788 2.15851,3.29574 8.43186,5.57261 12.71092,6.7478 11.46586,4.56646 17.50078,-1.6372 29.0848,-6.7478"
             id="path4151"
             style="fill:#fb936f;fill-opacity:1;stroke:#000000;stroke-width:1.11519134px;stroke-linecap:butt;stroke-linejoin:miter;stroke-opacity:1" />
          <path
             d="m 320.5742,483.55077 c -0.79965,-1.13657 -2.82667,-2.83777 -3.54704,-4.06733 -9.6169,0.93024 -4.58753,11.6994 -2.6422,18.01697 0.52353,1.26115 1.06436,2.51883 1.4544,3.82754 0.65258,1.47022 1.68122,2.93605 3.19492,3.58806 1.42688,0.33083 2.90337,0.8176 4.37808,0.64399 0.23952,-0.0479 0.47916,-0.24027 0.45563,-0.50962"
             id="path3202"
             style="fill:#fb936f;fill-opacity:1;stroke:#000000;stroke-width:1.11519134px;stroke-linecap:butt;stroke-linejoin:miter;stroke-opacity:1" />
          <path
             d="m 374.19714,483.55077 c 0.79965,-1.13657 2.82667,-2.83777 3.54704,-4.06733 9.6169,0.93024 4.58753,11.6994 2.6422,18.01697 -0.52353,1.26115 -1.06436,2.51883 -1.4544,3.82754 -0.65258,1.47022 -1.68122,2.93605 -3.19492,3.58806 -1.42688,0.33083 -2.90337,0.8176 -4.37808,0.64399 -0.23952,-0.0479 -0.47916,-0.24027 -0.45563,-0.50962"
             id="path3226"
             style="fill:#fb936f;fill-opacity:1;stroke:#000000;stroke-width:1.11519134px;stroke-linecap:butt;stroke-linejoin:miter;stroke-opacity:1" />
          <path
             d="m 331.23181,436.72108 c 4.2436,-1.76136 8.92172,-5.58696 12.48182,-8.03181 -1.1232,2.89498 -2.16427,5.67496 -1.47321,6.02998 8.17358,0.59788 10.92418,-2.87148 16.34614,-4.33731 -0.19562,1.56389 -2.74957,4.83996 -5.33752,5.67187 6.15462,0.21656 14.99995,1.24032 17.87317,0.47246 0.73051,1.39949 0.2566,2.79899 -0.85983,4.19848 1.91599,0.44692 3.52083,0.43735 7.86532,0.80609 1.92504,2.6705 -2.34897,4.71454 -6.35521,3.03034 3.89459,2.38411 5.57404,4.78164 8.16412,7.17365 0.0851,-1.71382 3.65888,15.52373 -2.00156,30.69476 l -6.67189,2.66912 c 1.13018,-7.45489 3.92605,-15.24293 1.66797,-22.02017 -0.90008,3.59445 -6.40812,4.70266 -9.78191,6.78243 l 6.11449,-13.56955 c -3.7345,4.56181 -6.79858,9.96165 -13.34378,11.01008 2.6359,-4.89336 4.00696,-12.00786 5.0018,-16.90123 -4.49931,8.1781 -12.35214,13.00267 -19.68209,18.35013 l 7.33908,-13.01191 c -3.7072,3.75509 -9.30023,8.84605 -17.01332,8.67461 2.72347,-0.77234 5.95777,-5.53173 6.0047,-8.34097 -3.59019,3.98771 -6.35853,8.38635 -12.0094,11.34372 0.11837,-2.4322 -0.14112,-4.23815 -2.66876,-7.34006 -0.73294,10.56049 -4.82221,19.61986 -0.891,25.71467 -3.91323,-1.89301 -6.11016,-5.1796 -8.76223,-8.48069 -1.57485,-11.13188 -1.85089,-13.00157 -0.021,-20.904 -0.9199,2.54962 -1.847,5.09173 -4.33673,6.0055 -0.28359,-5.61805 0.62758,-10.83785 3.66954,-15.34738 -0.33863,1.66301 -2.63007,1.37321 -4.33673,1.66819 2.65846,-2.49661 5.01633,-5.48351 8.00627,-6.33914 -1.37972,-2.21294 -2.73652,-4.43161 -2.66875,-7.00642 1.58696,3.6062 4.73914,4.26646 7.67267,5.33823 2.93001,-3.00275 1.61197,-7.53253 -0.91579,-8.73061 2.13266,-1.71909 9.64237,2.73483 10.92362,4.72694 z"
             id="path4183"
             style="fill:#572a15;fill-opacity:1;stroke:#000000;stroke-width:1.11519134px;stroke-linecap:butt;stroke-linejoin:miter;stroke-opacity:1" />
          <path
             d="m 352.9198,474.78741 12.53696,-3.0885 3.03927,3.0885 2.27945,-2.70244 -5.69863,-3.86063 z"
             id="path4187"
             style="fill:#572a15;fill-opacity:1;stroke:#000000;stroke-width:1.11519134px;stroke-linecap:butt;stroke-linejoin:miter;stroke-opacity:1" />
          <g
             id="g4048">
            <path
               d="m 381.4688,394.90899 c -8.0739,-9.95082 -8.12837,-2.31215 -14.4076,0.38912 -7.80131,2.73693 -33.37709,3.17721 -38.98918,-1.28125 -5.90656,-4.74519 -15.19106,-0.29871 -21.58452,-4.24437 8.15881,-0.56741 15.70994,-6.58691 22.89367,-6.56027 5.6819,1.4677 7.78989,0.78127 11.66803,0.58711 4.0487,-0.55721 7.33104,-4.89854 11.64848,-2.78723 15.8237,8.80499 20.1495,-0.94387 32.71291,-0.0203 4.33517,0.005 4.6904,6.05064 2.91685,8.95969 -1.1828,2.51107 -5.06426,2.63436 -5.53179,5.62128 z"
               id="path3261"
               style="fill:#e3e4e5;stroke:#000000;stroke-width:1.11519134" />
            <path
               d="m 380.70862,394.03125 -3.00405,34.09375 c 0,21.36458 0,42.72917 0,64.09375 l 39.87356,-9.0625 0,-41.90625 c 0,-12.3965 -9.1812,-22.46875 -20.1027,-22.46875 -3.97873,0 -7.65694,1.36122 -10.7587,3.65625 l -3.00405,-28.40625 z"
               id="path3256"
               style="fill:#ed1c24;stroke:#000000;stroke-width:1.11519134px;stroke-linecap:butt;stroke-linejoin:miter;stroke-opacity:1" />
            <g
               transform="translate(0.06038324,0)"
               id="g4041">
              <path
                 d="m 383.26394,437.53724 c -0.041,-4.87515 6.62034,-5.35694 6.63424,0 l 0,6.60506 -6.63424,0 z"
                 id="rect4034"
                 style="fill:#000000;fill-opacity:1;stroke:none" />
              <use
                 transform="translate(11.000002,0)"
                 id="use4037"
                 x="0"
                 y="0"
                 width="744.09448"
                 height="1052.3622"
                 xlink:href="#rect4034" />
              <use
                 transform="translate(11,0)"
                 id="use4039"
                 x="0"
                 y="0"
                 width="744.09448"
                 height="1052.3622"
                 xlink:href="#use4037" />
            </g>
            <use
               transform="translate(0,18)"
               id="use4046"
               x="0"
               y="0"
               width="744.09448"
               height="1052.3622"
               xlink:href="#g4041" />
          </g>
          <path
             d="m 406.90006,483.80781 c 1.63612,0.1696 7.14493,-3.2984 9.09319,-6.04608 2.54778,-3.5932 3.99178,-3.15414 4.61757,-3.02072 1.54538,2.57867 -0.36193,6.73673 -6.19195,10.83593"
             id="path3254"
             style="fill:#fb936f;fill-opacity:1;stroke:#000000;stroke-width:1.11519134px;stroke-linecap:butt;stroke-linejoin:miter;stroke-opacity:1" />
          <path
             d="m 296.70923,547.49391 c 6.52653,-1.15126 11.4589,7.22493 15.7869,9.47265"
             id="path3182"
             style="fill:none;stroke:#000000;stroke-width:1.11519134px;stroke-linecap:butt;stroke-linejoin:miter;stroke-opacity:1" />
          <path
             d="m 307.94321,565.99694 c 5.64674,-14.72073 17.05327,-26.48825 29.67734,-33.4634 9.87815,-6.58717 34.85272,-27.86787 37.32297,-36.03406 8.21109,-15.3811 16.80577,-4.20924 29.96022,-14.398 4.40643,-1.38676 9.86898,-8.39734 8.80106,-1.40256 -1.35267,4.45322 -7.08647,7.4064 -11.45161,7.94719"
             id="path3184"
             style="fill:#fb936f;fill-opacity:1;stroke:#000000;stroke-width:1.11519134px;stroke-linecap:butt;stroke-linejoin:miter;stroke-opacity:1" />
          <path
             d="m 392.57949,322.77098 80.09142,158.34074 c 0.63446,2.76284 -2.91636,5.19085 -4.21913,3.29166 l -80.8191,-159.76266 z"
             id="path4076"
             style="fill:#6e1c24;fill-opacity:1;stroke:#000000;stroke-width:1.11519134px;stroke-linecap:butt;stroke-linejoin:miter;stroke-opacity:1" />
          <path
             d="m 408.31831,350.45665 c -1.71249,-1.26503 -6.36375,-3.10164 -7.94065,1.21614 -0.28419,1.95305 -0.0436,4.03035 0.97864,5.74913 0.49557,0.72993 2.13771,0.83376 3.05144,1.10745 -0.41102,-0.82773 -0.64348,-1.6932 -0.87567,-2.66643 0.0985,-1.22562 0.9283,-2.85918 2.10427,-2.69686 1.40062,-0.13565 3.26143,1.04012 4.41686,1.84529"
             id="path4079"
             style="fill:#fb936f;fill-opacity:1;stroke:#000000;stroke-width:1.11519134px;stroke-linecap:butt;stroke-linejoin:miter;stroke-opacity:1" />
          <path
             d="m 410.05337,354.81812 c -1.71249,-1.26503 -6.36375,-3.10164 -7.94065,1.21614 -0.28419,1.95305 -0.0436,4.03035 0.97864,5.74913 0.49557,0.72993 2.13771,0.83376 3.05144,1.10745 -0.41102,-0.82773 -0.64348,-1.6932 -0.87567,-2.66643 0.0985,-1.22562 0.9283,-2.85918 2.10427,-2.69686 1.40062,-0.13565 3.26143,1.04012 4.41686,1.84529"
             id="path4090"
             style="fill:#fb936f;fill-opacity:1;stroke:#000000;stroke-width:1.11519134px;stroke-linecap:butt;stroke-linejoin:miter;stroke-opacity:1" />
          <path
             d="m 412.2222,358.8666 c -1.71249,-1.26503 -6.36375,-3.10164 -7.94065,1.21614 -0.28419,1.95305 -0.0436,4.03035 0.97864,5.74913 0.49557,0.72993 2.13771,0.83376 3.05144,1.10745 -0.41102,-0.82773 -0.64348,-1.6932 -0.87567,-2.66643 0.0985,-1.22562 0.9283,-2.85918 2.10427,-2.69686 1.40062,-0.13565 3.26143,1.04012 4.41686,1.84529"
             id="path4092"
             style="fill:#fb936f;fill-opacity:1;stroke:#000000;stroke-width:1.11519134px;stroke-linecap:butt;stroke-linejoin:miter;stroke-opacity:1" />
          <path
             d="m 371.14511,316.62844 c -2.16661,-26.19267 -9.75138,-37.27909 -21.7507,-51.57179 22.9691,13.24869 24.68497,43.07643 26.59013,51.24023"
             id="path4132"
             style="fill:#e3e4e5;stroke:#000000;stroke-width:1.11519134px;stroke-linecap:butt;stroke-linejoin:miter;stroke-opacity:1" />
          <path
             d="m 382.06551,322.31279 c -2.2209,-26.83749 -9.99573,-38.19684 -22.29573,-52.8414 23.54466,13.57485 25.30353,44.1369 27.25643,52.50168"
             id="path4134"
             style="fill:#e3e4e5;stroke:#000000;stroke-width:1.11519134px;stroke-linecap:butt;stroke-linejoin:miter;stroke-opacity:1" />
          <path
             d="m 392.87022,324.86587 c -2.09159,-25.30165 -9.41373,-36.01093 -20.99756,-49.81741 22.17377,12.79799 23.83023,41.61105 25.66942,49.49713"
             id="path4136"
             style="fill:#e3e4e5;stroke:#000000;stroke-width:1.11519134px;stroke-linecap:butt;stroke-linejoin:miter;stroke-opacity:1" />
          <path
             d="m 402.33254,328.1959 c -2.014,-24.38014 -9.06452,-34.69938 -20.21865,-48.00302 21.35123,12.33188 22.94624,40.09554 24.71721,47.69441"
             id="path4138"
             style="fill:#e3e4e5;stroke:#000000;stroke-width:1.11519134px;stroke-linecap:butt;stroke-linejoin:miter;stroke-opacity:1" />
          <path
             d="m 360.1715,312.8196 c -2.24805,-27.1599 -10.11791,-38.65571 -22.56825,-53.47621 23.83244,13.73793 25.61281,44.66714 27.58958,53.13241"
             id="path4140"
             style="fill:#e3e4e5;stroke:#000000;stroke-width:1.11519134px;stroke-linecap:butt;stroke-linejoin:miter;stroke-opacity:1" />
          <path
             d="m 361.25,309.875 -1.3125,4.65625 45.90625,18.21875 c 0.38312,0.25883 0.8466,0.40625 1.34375,0.40625 3.41796,-0.62764 2.41905,-4.26677 0.28125,-4.9375 z"
             id="path4120"
             style="fill:#6e1c24;fill-opacity:1;stroke:#000000;stroke-width:1.11519134px;stroke-linecap:butt;stroke-linejoin:miter;stroke-opacity:1" />
          <path
             d="m 362.07781,311.76147 a 2.1138523,2.1138523 0 1 1 -4.2277,0 2.1138523,2.1138523 0 1 1 4.2277,0 z"
             transform="matrix(1.1355932,0,0,1.1355932,-49.095298,-42.201088)"
             id="path4126"
             style="fill:#6e1c24;fill-opacity:1;stroke:#000000;stroke-width:0.98203421;stroke-linecap:round;stroke-linejoin:round;stroke-miterlimit:4;stroke-opacity:1;stroke-dasharray:none" />
          <path
             d="m 316.40902,489.82285 c -0.11021,2.56013 1.54786,4.84077 1.46081,7.40888 0.59567,1.39024 2.18415,1.8114 3.18351,2.80811"
             id="path4153"
             style="fill:none;stroke:#000000;stroke-width:1.11519134px;stroke-linecap:butt;stroke-linejoin:miter;stroke-opacity:1" />
          <path
             d="m 317.02822,482.39251 c -2.90002,-0.44378 -3.45643,3.99156 -3.40081,6.33637"
             id="path4163"
             style="fill:none;stroke:#000000;stroke-width:1.11519134px;stroke-linecap:butt;stroke-linejoin:miter;stroke-opacity:1" />
          <path
             d="m 346.57715,477.7568 c 0.33832,10.91466 -0.91657,10.2072 -1.33439,16.3483 0.87636,1.51065 1.41912,2.79846 2.29548,2.9312 2.01481,0.30517 3.696,-0.29975 5.7108,-0.26208"
             id="path4177"
             style="fill:#fb936f;fill-opacity:1;stroke:#000000;stroke-width:1.11519134px;stroke-linecap:round;stroke-linejoin:miter;stroke-opacity:1" />
          <path
             d="m 342.72485,506.6521 15.99762,-4.67854"
             id="path4179"
             style="fill:none;stroke:#000000;stroke-width:1.11519134px;stroke-linecap:round;stroke-linejoin:miter;stroke-opacity:1" />
          <path
             d="m 324.04678,475.9456 3.41917,-2.31638 13.67668,1.15819 -12.91686,-4.24669 -3.79909,1.54425 z"
             id="path4185"
             style="fill:#572a15;fill-opacity:1;stroke:#000000;stroke-width:1.11519134px;stroke-linecap:butt;stroke-linejoin:miter;stroke-opacity:1" />
          <g
             transform="matrix(1.0775093,0,0,1.077652,-26.715183,-36.088935)"
             id="g4193">
            <path
               d="m 327.78106,477.36616 c 4.60012,-1.51974 9.38437,-0.79539 13.44684,0.57465 -2.83859,3.85851 -5.09548,4.05444 -9.65147,3.37413 -1.18772,-0.17736 -1.70605,-3.2879 -2.64606,-4.29357"
               id="path4189"
               style="fill:#e3e4e5;stroke:#000000;stroke-width:1.03490293px;stroke-linecap:butt;stroke-linejoin:miter;stroke-opacity:1" />
            <path
               d="m 335.94111,479.20504 -0.57465,-2.18367 2.2986,0.34479 c 0.59422,1.08733 0.24814,3.24968 -1.83888,4.13749 -1.40614,-0.91648 -2.89635,-1.71228 -3.10312,-4.71214 l 2.18368,-0.22986"
               id="path4191"
               style="fill:#572a15;fill-opacity:1;stroke:#000000;stroke-width:1.03490293px;stroke-linecap:butt;stroke-linejoin:miter;stroke-opacity:1" />
          </g>
          <g
             transform="matrix(-1.0733097,0.0950522,0.09503962,1.0734519,674.95277,-67.234575)"
             id="g4197">
            <path
               d="m 327.78106,477.36616 c 4.60012,-1.51974 9.38437,-0.79539 13.44684,0.57465 -2.83859,3.85851 -5.09548,4.05444 -9.65147,3.37413 -1.18772,-0.17736 -1.70605,-3.2879 -2.64606,-4.29357"
               id="path4199"
               style="fill:#e3e4e5;stroke:#000000;stroke-width:1.03490293px;stroke-linecap:butt;stroke-linejoin:miter;stroke-opacity:1" />
            <path
               d="m 335.94111,479.20504 -0.57465,-2.18367 2.2986,0.34479 c 0.59422,1.08733 0.24814,3.24968 -1.83888,4.13749 -1.40614,-0.91648 -2.89635,-1.71228 -3.10312,-4.71214 l 2.18368,-0.22986"
               id="path4201"
               style="fill:#572a15;fill-opacity:1;stroke:#000000;stroke-width:1.03490293px;stroke-linecap:butt;stroke-linejoin:miter;stroke-opacity:1" />
          </g>
          <path
             d="m 376.12238,547.57717 c -6.98852,-2.19461 -15.37243,4.25423 -21.37526,6.98806"
             id="path4398"
             style="fill:none;stroke:#000000;stroke-width:1.11519134px;stroke-linecap:butt;stroke-linejoin:miter;stroke-opacity:1" />
          <path
             d="m 340.77099,636.36671 0.41107,13.56507"
             id="path4404"
             style="fill:none;stroke:#000000;stroke-width:1.11519134px;stroke-linecap:butt;stroke-linejoin:miter;stroke-opacity:1" />
          <path
             d="m 278.70052,614.58039 c 8.70834,14.68658 10.43422,36.82751 7.39913,35.76246"
             id="path4406"
             style="fill:none;stroke:#000000;stroke-width:1.11519134px;stroke-linecap:butt;stroke-linejoin:miter;stroke-opacity:1" />
          <path
             d="m 405.7189,558.2648 c -1.67061,3.96183 -4.27682,7.81019 -10.64976,13.64669 -5.53682,5.07076 -3.74949,15.67831 -3.73744,25.40427"
             id="path4408"
             style="fill:none;stroke:#000000;stroke-width:1.11519134px;stroke-linecap:butt;stroke-linejoin:miter;stroke-opacity:1" />
          <path
             d="m 350.29567,620.34048 c 6.41314,5.67148 14.04712,2.79698 21.14298,3.68938"
             id="path4410"
             style="fill:none;stroke:#000000;stroke-width:1.11519134px;stroke-linecap:butt;stroke-linejoin:miter;stroke-opacity:1" />
          <path
             d="m 333.89666,618.0302 c -6.41314,5.67148 -14.04712,2.79698 -21.14298,3.68938"
             id="path4412"
             style="fill:none;stroke:#000000;stroke-width:1.11519134px;stroke-linecap:butt;stroke-linejoin:miter;stroke-opacity:1" />
          <path
             d="m 343.65364,573.84616 c -2.51549,4.84069 -0.57757,25.9906 -0.57757,25.9906"
             id="path4414"
             style="fill:none;stroke:#000000;stroke-width:1.11519134px;stroke-linecap:butt;stroke-linejoin:miter;stroke-opacity:1" />
          <path
             d="m 325.749,611.38812 a 4.620553,5.198122 0 1 1 -9.2411,0 4.620553,5.198122 0 1 1 9.2411,0 z"
             transform="matrix(0.41666665,0,0,0.41666665,234.90227,345.51421)"
             id="path4418"
             style="fill:#000000;fill-opacity:0.24210528;stroke:none" />
        </g>
        <g
           transform="translate(0,2)"
           id="g5620">
          <path
             d="m 207.34375,627.9375 c -2.07218,-3e-5 -4.07892,0.24747 -6,0.65625 -1.92108,0.40878 -3.7493,0.98673 -5.5625,1.6875 -1.8132,0.70074 -3.59527,1.53029 -5.34375,2.40625 -1.74848,0.87595 -3.4606,1.7844 -5.1875,2.71875 -1.7269,0.93438 -3.47028,1.90528 -5.21875,2.78125 -1.74855,0.87594 -3.53055,1.70547 -5.34375,2.40625 -1.8132,0.70075 -3.64142,1.27872 -5.5625,1.6875 -0.37428,0.0797 -0.7451,0.12158 -1.125,0.1875 l 0,28 c 0.37879,-0.0671 0.75245,-0.13946 1.125,-0.21875 1.92108,-0.40879 3.7493,-1.01797 5.5625,-1.71875 1.8132,-0.70074 3.59527,-1.49903 5.34375,-2.375 1.74847,-0.87596 3.49185,-1.84686 5.21875,-2.78125 1.72697,-0.93437 3.43902,-1.87404 5.1875,-2.75 1.74848,-0.876 3.53055,-1.70549 5.34375,-2.40625 1.8132,-0.70081 3.64135,-1.27869 5.5625,-1.6875 1.92108,-0.40877 3.92789,-0.65625 6,-0.65625 2.07212,-2e-5 4.04767,0.24748 5.96875,0.65625 1.92108,0.40881 3.78055,0.98671 5.59375,1.6875 1.81313,0.70075 3.56403,1.53027 5.3125,2.40625 1.74848,0.87594 3.49185,1.81563 5.21875,2.75 1.72697,0.93439 3.43903,1.90528 5.1875,2.78125 1.74848,0.87598 3.53055,1.67425 5.34375,2.375 1.8132,0.70079 3.64135,1.30998 5.5625,1.71875 1.92101,0.40877 3.95913,0.625 6.03125,0.625 2.07213,10e-6 4.0164,-0.21621 5.9375,-0.625 1.9211,-0.40879 3.81179,-1.01797 5.625,-1.71875 1.81322,-0.70074 3.56402,-1.49903 5.3125,-2.375 1.01883,-0.51041 2.02161,-1.08647 3.03125,-1.625 0.088,0.157 0.16165,0.31199 0.25,0.46875 0.93879,-0.54734 1.91192,-1.06513 2.84375,-1.625 1.5552,-0.93437 3.10004,-1.87404 4.6875,-2.75 1.19062,-0.65702 2.41526,-1.27712 3.65625,-1.84375 0.4137,-0.18891 0.86014,-0.38732 1.28125,-0.5625 1.8132,-0.70081 3.67266,-1.27869 5.59375,-1.6875 1.84725,-0.39306 3.73269,-0.63905 5.71875,-0.65625 1.99348,0.0158 3.8964,0.26184 5.75,0.65625 1.92111,0.40881 3.81181,0.98671 5.625,1.6875 1.8132,0.70075 3.56404,1.53027 5.3125,2.40625 1.74847,0.87594 3.4606,1.81563 5.1875,2.75 1.72693,0.93436 3.50151,1.87402 5.25,2.75 1.74849,0.87595 3.4993,1.70548 5.3125,2.40625 1.81318,0.70071 3.67268,1.27872 5.59375,1.6875 1.58118,0.33645 3.19438,0.52721 4.875,0.59375 0.3613,0.0143 0.75837,0.0625 1.125,0.0625 0.15057,0.003 0.28598,0 0.4375,0 2.07208,10e-6 4.04765,-0.21621 5.96875,-0.625 1.92107,-0.4088 3.78054,-1.01798 5.59375,-1.71875 1.81321,-0.70075 3.56403,-1.49904 5.3125,-2.375 1.74849,-0.87596 3.49184,-1.84686 5.21875,-2.78125 1.72684,-0.93437 3.47028,-1.87403 5.21875,-2.75 1.74851,-0.87599 3.4993,-1.70548 5.3125,-2.40625 1.81322,-0.70081 3.67267,-1.27868 5.59375,-1.6875 1.84731,-0.39305 3.76394,-0.63904 5.75,-0.65625 1.98606,0.0172 3.87147,0.2632 5.71875,0.65625 1.92104,0.40882 3.81179,0.98672 5.625,1.6875 1.81319,0.70075 3.56401,1.53027 5.3125,2.40625 1.74846,0.87595 3.49184,1.81563 5.21875,2.75 0.67209,0.36364 1.35713,0.70233 2.03125,1.0625 0.87519,0.56541 1.73827,1.1836 2.625,1.71875 0.62351,0.37628 1.2691,0.61865 1.90625,0.96875 0.0511,-0.0918 0.10375,-0.15955 0.15625,-0.25 1.24753,0.59293 2.52791,1.15977 3.8125,1.65625 1.81318,0.7007 3.67267,1.27872 5.59375,1.6875 1.92108,0.40878 3.89664,0.65625 5.96875,0.65625 2.07211,-4e-5 4.07891,-0.24746 6,-0.65625 1.92105,-0.40879 3.78054,-0.98675 5.59375,-1.6875 1.81321,-0.70082 3.56403,-1.5303 5.3125,-2.40625 1.74847,-0.87601 3.4606,-1.81564 5.1875,-2.75 1.72686,-0.93437 3.47027,-1.87403 5.21875,-2.75 1.74848,-0.87599 3.4993,-1.70548 5.3125,-2.40625 1.81321,-0.70081 3.67264,-1.27868 5.59375,-1.6875 1.92109,-0.40877 3.89662,-0.65625 5.96875,-0.65625 2.07213,-10e-6 4.07893,0.24748 6,0.65625 1.92108,0.40882 3.78053,0.98672 5.59375,1.6875 1.81318,0.70075 3.59528,1.53027 5.34375,2.40625 1.74847,0.87595 3.46061,1.81563 5.1875,2.75 1.72687,0.93435 3.47026,1.87401 5.21875,2.75 1.74846,0.87595 3.53055,1.70548 5.34375,2.40625 1.81321,0.7007 3.67269,1.27872 5.59375,1.6875 0.97697,0.20787 1.95813,0.35804 2.96875,0.46875 0.003,-7.46459 4e-4,-20.47284 0,-27.9375 -1.02101,-0.10962 -1.98085,-0.25854 -2.96875,-0.46875 -1.92105,-0.4088 -3.78054,-0.98672 -5.59375,-1.6875 -1.8132,-0.7008 -3.59528,-1.53027 -5.34375,-2.40625 -1.7485,-0.876 -3.49183,-1.84688 -5.21875,-2.78125 -1.72692,-0.93434 -3.43903,-1.84277 -5.1875,-2.71875 -1.74849,-0.87599 -3.53056,-1.70551 -5.34375,-2.40625 -1.81322,-0.70078 -3.67266,-1.27873 -5.59375,-1.6875 -1.92109,-0.40878 -3.92788,-0.65625 -6,-0.65625 -2.07212,-2e-5 -4.04767,0.24747 -5.96875,0.65625 -1.92108,0.40878 -3.78054,0.98672 -5.59375,1.6875 -1.81321,0.70074 -3.56402,1.53028 -5.3125,2.40625 -1.7485,0.87595 -3.49185,1.78439 -5.21875,2.71875 -1.72692,0.93438 -3.43903,1.90528 -5.1875,2.78125 -1.74848,0.87595 -3.49929,1.70548 -5.3125,2.40625 -1.81321,0.70075 -3.67268,1.27872 -5.59375,1.6875 -1.92112,0.40876 -3.92788,0.625 -6,0.625 -1.93397,-3e-5 -3.81072,-0.21622 -5.65625,-0.625 -1.84553,-0.4088 -3.68143,-0.98672 -5.46875,-1.6875 -3.57459,-1.40155 -7.03961,-3.31877 -10.5625,-5.1875 -1.76147,-0.93434 -3.54993,-1.84277 -5.34375,-2.71875 -1.79379,-0.87599 -3.58114,-1.70551 -5.4375,-2.40625 -0.4641,-0.1752 -0.9382,-0.34032 -1.40625,-0.5 -1.2889,-0.47907 -2.61555,-0.88092 -4,-1.1875 -1.84595,-0.40878 -3.80289,-0.65625 -5.875,-0.65625 -0.0796,-2e-5 -0.13938,-6.7e-4 -0.21875,0 -0.0794,-6.9e-4 -0.17038,0 -0.25,0 -2.07208,-2e-5 -4.04767,0.24747 -5.96875,0.65625 -1.92111,0.40878 -3.78055,0.98672 -5.59375,1.6875 -1.81321,0.70074 -3.56401,1.53028 -5.3125,2.40625 -1.74849,0.87595 -3.46061,1.78439 -5.1875,2.71875 -1.72689,0.93438 -3.47028,1.90528 -5.21875,2.78125 -1.7485,0.87595 -3.49931,1.70548 -5.3125,2.40625 -1.81319,0.70075 -3.67265,1.27872 -5.59375,1.6875 -1.44084,0.30656 -2.94633,0.5089 -4.46875,0.59375 -0.35689,0.0199 -0.70048,0.0252 -1.0625,0.0312 -0.51805,-3e-5 -1.05503,-0.003 -1.5625,-0.0312 -1.52241,-0.0848 -2.96544,-0.28716 -4.40625,-0.59375 -1.92109,-0.4088 -3.78054,-0.98672 -5.59375,-1.6875 -1.81323,-0.7008 -3.59526,-1.53027 -5.34375,-2.40625 -1.74846,-0.876 -3.4606,-1.84688 -5.1875,-2.78125 -1.7269,-0.93434 -3.47026,-1.84277 -5.21875,-2.71875 -1.74847,-0.87599 -3.49931,-1.70551 -5.3125,-2.40625 -1.81321,-0.70078 -3.70391,-1.27873 -5.625,-1.6875 -1.92111,-0.40878 -3.89663,-0.65625 -5.96875,-0.65625 -0.0796,-2e-5 -0.17065,-6.7e-4 -0.25,0 -0.0725,-5.8e-4 -0.11471,0 -0.1875,0 -2.07207,-2e-5 -4.02906,0.24747 -5.875,0.65625 -1.83805,0.40703 -3.57226,0.99073 -5.25,1.6875 -0.42107,0.17518 -0.86757,0.3736 -1.28125,0.5625 -1.36296,0.57295 -2.70143,1.17753 -4.03125,1.84375 -1.74849,0.87595 -3.49184,1.78439 -5.21875,2.71875 -1.72691,0.93438 -3.47026,1.90528 -5.21875,2.78125 -1.74847,0.87595 -3.49929,1.70548 -5.3125,2.40625 -1.81321,0.70075 -3.70392,1.27872 -5.625,1.6875 -1.92106,0.40876 -3.86538,0.625 -5.9375,0.625 -1.93399,-3e-5 -3.84197,-0.21622 -5.6875,-0.625 -1.84553,-0.4088 -3.65025,-0.98672 -5.4375,-1.6875 -3.57465,-1.40155 -7.07086,-3.31877 -10.59375,-5.1875 -1.76145,-0.93434 -3.54997,-1.84277 -5.34375,-2.71875 -1.79385,-0.87599 -3.58115,-1.70551 -5.4375,-2.40625 -1.85643,-0.70078 -3.76957,-1.27873 -5.71875,-1.6875 -1.94911,-0.40878 -3.92789,-0.65625 -6,-0.65625 z m 0,52.8125 c -2.07218,-3e-5 -4.07892,0.21622 -6,0.625 -1.92108,0.40878 -3.7493,1.01798 -5.5625,1.71875 -1.8132,0.70074 -3.59527,1.53029 -5.34375,2.40625 -1.74848,0.87595 -3.4606,1.7844 -5.1875,2.71875 -1.7269,0.93438 -3.47028,1.87403 -5.21875,2.75 -1.74855,0.87594 -3.53055,1.70547 -5.34375,2.40625 -1.8132,0.70075 -3.64142,1.27872 -5.5625,1.6875 -0.37428,0.0797 -0.7451,0.12158 -1.125,0.1875 l 0,28 c 0.37879,-0.0671 0.75245,-0.13946 1.125,-0.21875 1.92108,-0.40879 3.7493,-0.98672 5.5625,-1.6875 1.8132,-0.70074 3.59527,-1.49903 5.34375,-2.375 1.74847,-0.87596 3.49185,-1.87811 5.21875,-2.8125 1.72697,-0.93437 3.43902,-1.84279 5.1875,-2.71875 1.74848,-0.876 3.53055,-1.70549 5.34375,-2.40625 1.8132,-0.70081 3.64135,-1.27869 5.5625,-1.6875 1.92108,-0.40877 3.92789,-0.65625 6,-0.65625 2.07212,-2e-5 4.04767,0.24748 5.96875,0.65625 1.92108,0.40881 3.78055,0.98671 5.59375,1.6875 1.81313,0.70075 3.56403,1.53027 5.3125,2.40625 1.74848,0.87594 3.49185,1.78438 5.21875,2.71875 1.72697,0.93439 3.43903,1.93653 5.1875,2.8125 1.74848,0.87598 3.53055,1.67425 5.34375,2.375 1.8132,0.70079 3.64135,1.27873 5.5625,1.6875 1.92101,0.40877 3.95913,0.65625 6.03125,0.65625 2.07213,10e-6 4.0164,-0.24746 5.9375,-0.65625 1.9211,-0.40879 3.81179,-0.98672 5.625,-1.6875 1.81322,-0.70074 3.56402,-1.49903 5.3125,-2.375 1.01883,-0.51041 2.02161,-1.08647 3.03125,-1.625 0.088,0.157 0.16165,0.31199 0.25,0.46875 0.93879,-0.54734 1.91192,-1.09638 2.84375,-1.65625 1.5552,-0.93437 3.10004,-1.84279 4.6875,-2.71875 1.19062,-0.65702 2.41526,-1.27712 3.65625,-1.84375 0.4137,-0.18891 0.86014,-0.38732 1.28125,-0.5625 1.8132,-0.70081 3.67266,-1.27869 5.59375,-1.6875 1.84725,-0.39306 3.73269,-0.63905 5.71875,-0.65625 1.99348,0.0158 3.8964,0.26184 5.75,0.65625 1.92111,0.40881 3.81181,0.98671 5.625,1.6875 1.8132,0.70075 3.56404,1.53027 5.3125,2.40625 1.74847,0.87594 3.4606,1.78438 5.1875,2.71875 1.72693,0.93436 3.50151,1.87402 5.25,2.75 1.74849,0.87595 3.4993,1.70548 5.3125,2.40625 1.81318,0.70071 3.67268,1.30997 5.59375,1.71875 1.58118,0.33645 3.19438,0.52721 4.875,0.59375 0.3613,0.0143 0.75837,0.0312 1.125,0.0312 0.15057,0.003 0.28598,0.0312 0.4375,0.0312 2.07208,10e-6 4.04765,-0.24746 5.96875,-0.65625 1.92107,-0.4088 3.78054,-0.98673 5.59375,-1.6875 1.81321,-0.70075 3.56403,-1.49904 5.3125,-2.375 1.74849,-0.87596 3.49184,-1.87811 5.21875,-2.8125 1.72684,-0.93437 3.47028,-1.84278 5.21875,-2.71875 1.74851,-0.87599 3.4993,-1.70548 5.3125,-2.40625 1.81322,-0.70081 3.67267,-1.27868 5.59375,-1.6875 1.84731,-0.39305 3.76394,-0.63904 5.75,-0.65625 1.98606,0.0172 3.87147,0.2632 5.71875,0.65625 1.92104,0.40882 3.81179,0.98672 5.625,1.6875 1.81319,0.70075 3.56401,1.53027 5.3125,2.40625 1.74846,0.87595 3.49184,1.78438 5.21875,2.71875 0.67209,0.36364 1.35713,0.73358 2.03125,1.09375 0.87519,0.56541 1.73827,1.1836 2.625,1.71875 0.62351,0.37628 1.2691,0.61865 1.90625,0.96875 0.0511,-0.0918 0.10375,-0.15955 0.15625,-0.25 1.24753,0.59293 2.52791,1.12852 3.8125,1.625 1.81318,0.7007 3.67267,1.30997 5.59375,1.71875 1.92108,0.40878 3.89664,0.625 5.96875,0.625 2.07211,-4e-5 4.07891,-0.21621 6,-0.625 1.92105,-0.40879 3.78054,-1.018 5.59375,-1.71875 1.81321,-0.70082 3.56403,-1.5303 5.3125,-2.40625 1.74847,-0.87601 3.4606,-1.81564 5.1875,-2.75 1.72686,-0.93437 3.47027,-1.84278 5.21875,-2.71875 1.74848,-0.87599 3.4993,-1.70548 5.3125,-2.40625 1.81321,-0.70081 3.67264,-1.27868 5.59375,-1.6875 1.92109,-0.40877 3.89662,-0.65625 5.96875,-0.65625 2.07213,-10e-6 4.07893,0.24748 6,0.65625 1.92108,0.40882 3.78053,0.98672 5.59375,1.6875 1.81318,0.70075 3.59528,1.53027 5.34375,2.40625 1.74847,0.87595 3.46061,1.78438 5.1875,2.71875 1.72687,0.93435 3.47026,1.87401 5.21875,2.75 1.74846,0.87595 3.53055,1.70548 5.34375,2.40625 1.81321,0.7007 3.67269,1.30997 5.59375,1.71875 0.97697,0.20787 1.95813,0.35804 2.96875,0.46875 0.003,-7.46459 4e-4,-20.47284 0,-27.9375 -1.02101,-0.10962 -1.98085,-0.28979 -2.96875,-0.5 -1.92105,-0.4088 -3.78054,-0.98672 -5.59375,-1.6875 -1.8132,-0.7008 -3.59528,-1.53027 -5.34375,-2.40625 -1.7485,-0.876 -3.49183,-1.81563 -5.21875,-2.75 -1.72692,-0.93434 -3.43903,-1.84277 -5.1875,-2.71875 -1.74849,-0.87599 -3.53056,-1.70551 -5.34375,-2.40625 -1.81322,-0.70078 -3.67266,-1.30998 -5.59375,-1.71875 -1.92109,-0.40878 -3.92788,-0.625 -6,-0.625 -2.07212,-2e-5 -4.04767,0.21622 -5.96875,0.625 -1.92108,0.40878 -3.78054,1.01797 -5.59375,1.71875 -1.81321,0.70074 -3.56402,1.53028 -5.3125,2.40625 -1.7485,0.87595 -3.49185,1.78439 -5.21875,2.71875 -1.72692,0.93438 -3.43903,1.87403 -5.1875,2.75 -1.74848,0.87595 -3.49929,1.70548 -5.3125,2.40625 -1.81321,0.70075 -3.67268,1.27872 -5.59375,1.6875 -1.92112,0.40876 -3.92788,0.65625 -6,0.65625 -1.93397,-3e-5 -3.81072,-0.24747 -5.65625,-0.65625 -1.84553,-0.4088 -3.68143,-0.98672 -5.46875,-1.6875 -3.57459,-1.40155 -7.03961,-3.28752 -10.5625,-5.15625 -1.76147,-0.93434 -3.54993,-1.84277 -5.34375,-2.71875 -1.79379,-0.87599 -3.58114,-1.70551 -5.4375,-2.40625 -0.4641,-0.1752 -0.9382,-0.34032 -1.40625,-0.5 -1.2889,-0.47907 -2.61555,-0.91217 -4,-1.21875 -1.84595,-0.40878 -3.80289,-0.625 -5.875,-0.625 -0.0796,-2e-5 -0.13938,-6.7e-4 -0.21875,0 -0.0794,-6.9e-4 -0.17038,0 -0.25,0 -2.07208,-2e-5 -4.04767,0.21622 -5.96875,0.625 -1.92111,0.40878 -3.78055,1.01797 -5.59375,1.71875 -1.81321,0.70074 -3.56401,1.53028 -5.3125,2.40625 -1.74849,0.87595 -3.46061,1.78439 -5.1875,2.71875 -1.72689,0.93438 -3.47028,1.87403 -5.21875,2.75 -1.7485,0.87595 -3.49931,1.70548 -5.3125,2.40625 -1.81319,0.70075 -3.67265,1.27872 -5.59375,1.6875 -1.44084,0.30656 -2.94633,0.54015 -4.46875,0.625 -0.35689,0.0199 -0.70048,0.0252 -1.0625,0.0312 -0.51805,-3e-5 -1.05503,-0.003 -1.5625,-0.0312 -1.52241,-0.0848 -2.96544,-0.31841 -4.40625,-0.625 -1.92109,-0.4088 -3.78054,-0.98672 -5.59375,-1.6875 -1.81323,-0.7008 -3.59526,-1.53027 -5.34375,-2.40625 -1.74846,-0.876 -3.4606,-1.81563 -5.1875,-2.75 -1.7269,-0.93434 -3.47026,-1.84277 -5.21875,-2.71875 -1.74847,-0.87599 -3.49931,-1.70551 -5.3125,-2.40625 -1.81321,-0.70078 -3.70391,-1.30998 -5.625,-1.71875 -1.92111,-0.40878 -3.89663,-0.625 -5.96875,-0.625 -0.0796,-2e-5 -0.17065,-6.7e-4 -0.25,0 -0.0725,-5.8e-4 -0.11471,0 -0.1875,0 -2.07207,-2e-5 -4.02906,0.21622 -5.875,0.625 -1.83805,0.40703 -3.57226,1.02198 -5.25,1.71875 -0.42107,0.17518 -0.86757,0.3736 -1.28125,0.5625 -1.36296,0.57295 -2.70143,1.17753 -4.03125,1.84375 -1.74849,0.87595 -3.49184,1.78439 -5.21875,2.71875 -1.72691,0.93438 -3.47026,1.87403 -5.21875,2.75 -1.74847,0.87595 -3.49929,1.70548 -5.3125,2.40625 -1.81321,0.70075 -3.70392,1.27872 -5.625,1.6875 -1.92106,0.40876 -3.86538,0.65625 -5.9375,0.65625 -1.93399,-3e-5 -3.84197,-0.24747 -5.6875,-0.65625 -1.84553,-0.4088 -3.65025,-0.98672 -5.4375,-1.6875 -3.57465,-1.40155 -7.07086,-3.28752 -10.59375,-5.15625 -1.76145,-0.93434 -3.54997,-1.84277 -5.34375,-2.71875 -1.79385,-0.87599 -3.58115,-1.70551 -5.4375,-2.40625 -1.85643,-0.70078 -3.76957,-1.30998 -5.71875,-1.71875 -1.94911,-0.40878 -3.92789,-0.625 -6,-0.625 z m 0,52.78125 c -2.07218,-3e-5 -4.07892,0.24747 -6,0.65625 -1.92108,0.40878 -3.7493,0.98673 -5.5625,1.6875 -1.8132,0.70074 -3.59527,1.53029 -5.34375,2.40625 -1.74848,0.87595 -3.4606,1.81565 -5.1875,2.75 -1.7269,0.93438 -3.47028,1.87403 -5.21875,2.75 -1.74855,0.87594 -3.53055,1.70547 -5.34375,2.40625 -1.8132,0.70075 -3.64142,1.27872 -5.5625,1.6875 -0.37428,0.0797 -0.7451,0.12158 -1.125,0.1875 l 0,2.09375 c 6.12871,6.1541 12.44892,12.13684 18.9375,17.90625 1.1635,-0.62848 2.31908,-1.25213 3.5,-1.84375 1.74848,-0.876 3.53055,-1.70549 5.34375,-2.40625 1.8132,-0.70081 3.64135,-1.27869 5.5625,-1.6875 1.92108,-0.40877 3.92789,-0.625 6,-0.625 2.07212,-2e-5 4.04767,0.21623 5.96875,0.625 1.92108,0.40881 3.78055,0.98671 5.59375,1.6875 1.81313,0.70075 3.56403,1.53027 5.3125,2.40625 1.74848,0.87594 3.49185,1.81563 5.21875,2.75 1.72697,0.93439 3.43903,1.90528 5.1875,2.78125 1.74848,0.87598 3.53055,1.7055 5.34375,2.40625 1.8132,0.70079 3.64135,1.27873 5.5625,1.6875 1.92101,0.40877 3.95913,0.65625 6.03125,0.65625 2.07213,10e-6 4.0164,-0.24746 5.9375,-0.65625 1.9211,-0.40879 3.81179,-0.98672 5.625,-1.6875 1.81322,-0.70074 3.56402,-1.53028 5.3125,-2.40625 1.01883,-0.51041 2.02161,-1.08647 3.03125,-1.625 0.088,0.157 0.16165,0.34324 0.25,0.5 0.93879,-0.54734 1.91192,-1.09638 2.84375,-1.65625 1.5552,-0.93437 3.10004,-1.87404 4.6875,-2.75 1.19062,-0.65702 2.41526,-1.27712 3.65625,-1.84375 0.4137,-0.18891 0.86014,-0.38732 1.28125,-0.5625 1.8132,-0.70081 3.67266,-1.27869 5.59375,-1.6875 1.84725,-0.39306 3.73269,-0.6078 5.71875,-0.625 1.99348,0.0158 3.8964,0.23059 5.75,0.625 1.92111,0.40881 3.81181,0.98671 5.625,1.6875 1.8132,0.70075 3.56404,1.53027 5.3125,2.40625 1.74847,0.87594 3.4606,1.81563 5.1875,2.75 1.72693,0.93436 3.50151,1.87402 5.25,2.75 1.74849,0.87595 3.4993,1.70548 5.3125,2.40625 1.81318,0.70071 3.67268,1.27872 5.59375,1.6875 1.58118,0.33645 3.19438,0.55846 4.875,0.625 0.3613,0.0143 0.75837,0.0312 1.125,0.0312 0.15057,0.003 0.28598,0.0312 0.4375,0.0312 2.07208,10e-6 4.04765,-0.24746 5.96875,-0.65625 1.92107,-0.4088 3.78054,-0.98673 5.59375,-1.6875 1.81321,-0.70075 3.56403,-1.53029 5.3125,-2.40625 1.74849,-0.87596 3.49184,-1.84686 5.21875,-2.78125 1.72684,-0.93437 3.47028,-1.87403 5.21875,-2.75 1.74851,-0.87599 3.4993,-1.70548 5.3125,-2.40625 1.81322,-0.70081 3.67267,-1.27868 5.59375,-1.6875 1.84731,-0.39305 3.76394,-0.60779 5.75,-0.625 1.98606,0.0172 3.87147,0.23195 5.71875,0.625 1.92104,0.40882 3.81179,0.98672 5.625,1.6875 1.81319,0.70075 3.56401,1.53027 5.3125,2.40625 1.74846,0.87595 3.49184,1.81563 5.21875,2.75 0.67209,0.36364 1.35713,0.73358 2.03125,1.09375 0.87519,0.56541 1.73827,1.15235 2.625,1.6875 0.62351,0.37628 1.2691,0.6499 1.90625,1 0.0511,-0.0918 0.10375,-0.1908 0.15625,-0.28125 1.24753,0.59293 2.52791,1.15977 3.8125,1.65625 1.81318,0.7007 3.67267,1.27872 5.59375,1.6875 1.92108,0.40878 3.89664,0.65625 5.96875,0.65625 2.07211,-4e-5 4.07891,-0.24746 6,-0.65625 1.92105,-0.40879 3.78054,-0.98675 5.59375,-1.6875 1.81321,-0.70082 3.56403,-1.5303 5.3125,-2.40625 1.74847,-0.87601 3.4606,-1.81564 5.1875,-2.75 1.72686,-0.93437 3.47027,-1.87403 5.21875,-2.75 1.74848,-0.87599 3.4993,-1.70548 5.3125,-2.40625 1.81321,-0.70081 3.67264,-1.27868 5.59375,-1.6875 1.92109,-0.40877 3.89662,-0.625 5.96875,-0.625 2.07213,-10e-6 4.07893,0.21623 6,0.625 1.92108,0.40882 3.78053,0.98672 5.59375,1.6875 1.81318,0.70075 3.59528,1.53027 5.34375,2.40625 1.08559,0.54386 2.14895,1.11103 3.21875,1.6875 7.16006,-6.32523 14.13876,-12.85815 20.90625,-19.59375 -0.95,-0.10744 -1.85541,-0.2405 -2.78125,-0.4375 -1.92105,-0.4088 -3.78054,-0.98672 -5.59375,-1.6875 -1.8132,-0.7008 -3.59528,-1.53027 -5.34375,-2.40625 -1.7485,-0.876 -3.49183,-1.81563 -5.21875,-2.75 -1.72692,-0.93434 -3.43903,-1.87402 -5.1875,-2.75 -1.74849,-0.87599 -3.53056,-1.70551 -5.34375,-2.40625 -1.81322,-0.70078 -3.67266,-1.27873 -5.59375,-1.6875 -1.92109,-0.40878 -3.92788,-0.65625 -6,-0.65625 -2.07212,-2e-5 -4.04767,0.24747 -5.96875,0.65625 -1.92108,0.40878 -3.78054,0.98672 -5.59375,1.6875 -1.81321,0.70074 -3.56402,1.53028 -5.3125,2.40625 -1.7485,0.87595 -3.49185,1.81564 -5.21875,2.75 -1.72692,0.93438 -3.43903,1.87403 -5.1875,2.75 -1.74848,0.87595 -3.49929,1.70548 -5.3125,2.40625 -1.81321,0.70075 -3.67268,1.27872 -5.59375,1.6875 -1.92112,0.40876 -3.92788,0.65625 -6,0.65625 -1.93397,-3e-5 -3.81072,-0.24747 -5.65625,-0.65625 -1.84553,-0.4088 -3.68143,-0.98672 -5.46875,-1.6875 -3.57459,-1.40155 -7.03961,-3.28752 -10.5625,-5.15625 -1.76147,-0.93434 -3.54993,-1.87402 -5.34375,-2.75 -1.79379,-0.87599 -3.58114,-1.70551 -5.4375,-2.40625 -0.4641,-0.1752 -0.9382,-0.34032 -1.40625,-0.5 -1.2889,-0.47907 -2.61555,-0.88092 -4,-1.1875 -1.84595,-0.40878 -3.80289,-0.65625 -5.875,-0.65625 -0.0796,-2e-5 -0.13938,-6.7e-4 -0.21875,0 -0.0794,-6.9e-4 -0.17038,0 -0.25,0 -2.07208,-2e-5 -4.04767,0.24747 -5.96875,0.65625 -1.92111,0.40878 -3.78055,0.98672 -5.59375,1.6875 -1.81321,0.70074 -3.56401,1.53028 -5.3125,2.40625 -1.74849,0.87595 -3.46061,1.81564 -5.1875,2.75 -1.72689,0.93438 -3.47028,1.87403 -5.21875,2.75 -1.7485,0.87595 -3.49931,1.70548 -5.3125,2.40625 -1.81319,0.70075 -3.67265,1.27872 -5.59375,1.6875 -1.44084,0.30656 -2.94633,0.5089 -4.46875,0.59375 -0.35689,0.0199 -0.70048,0.0564 -1.0625,0.0625 -0.51805,-3e-5 -1.05503,-0.0341 -1.5625,-0.0625 -1.52241,-0.0848 -2.96544,-0.28716 -4.40625,-0.59375 -1.92109,-0.4088 -3.78054,-0.98672 -5.59375,-1.6875 -1.81323,-0.7008 -3.59526,-1.53027 -5.34375,-2.40625 -1.74846,-0.876 -3.4606,-1.81563 -5.1875,-2.75 -1.7269,-0.93434 -3.47026,-1.87402 -5.21875,-2.75 -1.74847,-0.87599 -3.49931,-1.70551 -5.3125,-2.40625 -1.81321,-0.70078 -3.70391,-1.27873 -5.625,-1.6875 -1.92111,-0.40878 -3.89663,-0.65625 -5.96875,-0.65625 -0.0796,-2e-5 -0.17065,-6.7e-4 -0.25,0 -0.0725,-5.8e-4 -0.11471,0 -0.1875,0 -2.07207,-2e-5 -4.02906,0.24747 -5.875,0.65625 -1.83805,0.40703 -3.57226,0.99073 -5.25,1.6875 -0.42107,0.17518 -0.86757,0.3736 -1.28125,0.5625 -1.36296,0.57295 -2.70143,1.17753 -4.03125,1.84375 -1.74849,0.87595 -3.49184,1.81564 -5.21875,2.75 -1.72691,0.93438 -3.47026,1.87403 -5.21875,2.75 -1.74847,0.87595 -3.49929,1.70548 -5.3125,2.40625 -1.81321,0.70075 -3.70392,1.27872 -5.625,1.6875 -1.92106,0.40876 -3.86538,0.65625 -5.9375,0.65625 -1.93399,-3e-5 -3.84197,-0.24747 -5.6875,-0.65625 -1.84553,-0.4088 -3.65025,-0.98672 -5.4375,-1.6875 -3.57465,-1.40155 -7.07086,-3.28752 -10.59375,-5.15625 -1.76145,-0.93434 -3.54997,-1.87402 -5.34375,-2.75 -1.79385,-0.87599 -3.58115,-1.70551 -5.4375,-2.40625 -1.85643,-0.70078 -3.76957,-1.27873 -5.71875,-1.6875 -1.94911,-0.40878 -3.92789,-0.65625 -6,-0.65625 z"
             id="path27552"
             style="fill:#0071bc;fill-opacity:1;fill-rule:evenodd;stroke:#000000;stroke-width:1.11519134;stroke-miterlimit:4;stroke-dasharray:none;marker:none;visibility:visible;display:inline;overflow:visible" />
          <path
             d="m 207.34375,654.34375 c -2.07218,-3e-5 -4.07892,0.24747 -6,0.65625 -1.92108,0.40878 -3.7493,0.98673 -5.5625,1.6875 -1.8132,0.70074 -3.59527,1.53029 -5.34375,2.40625 -1.74848,0.87595 -3.4606,1.7844 -5.1875,2.71875 -1.7269,0.93438 -3.47028,1.87403 -5.21875,2.75 -1.74855,0.87594 -3.53055,1.70547 -5.34375,2.40625 -1.8132,0.70075 -3.64142,1.27872 -5.5625,1.6875 -0.37428,0.0797 -0.7451,0.15283 -1.125,0.21875 l 0,27.96875 c 0.37879,-0.0671 0.75245,-0.13946 1.125,-0.21875 1.92108,-0.40879 3.7493,-0.98672 5.5625,-1.6875 1.8132,-0.70074 3.59527,-1.49903 5.34375,-2.375 1.74847,-0.87596 3.49185,-1.87811 5.21875,-2.8125 1.72697,-0.93437 3.43902,-1.84279 5.1875,-2.71875 1.74848,-0.876 3.53055,-1.70549 5.34375,-2.40625 1.8132,-0.70081 3.64135,-1.27869 5.5625,-1.6875 1.92108,-0.40877 3.92789,-0.65625 6,-0.65625 2.07212,-2e-5 4.04767,0.24748 5.96875,0.65625 1.92108,0.40881 3.78055,0.98671 5.59375,1.6875 1.81313,0.70075 3.56403,1.53027 5.3125,2.40625 1.74848,0.87594 3.49185,1.78438 5.21875,2.71875 1.72697,0.93439 3.43903,1.93653 5.1875,2.8125 1.74848,0.87598 3.53055,1.67425 5.34375,2.375 1.8132,0.70079 3.64135,1.27873 5.5625,1.6875 1.92101,0.40877 3.95913,0.65625 6.03125,0.65625 2.07213,10e-6 4.0164,-0.24746 5.9375,-0.65625 1.9211,-0.40879 3.81179,-0.98672 5.625,-1.6875 1.81322,-0.70074 3.56402,-1.49903 5.3125,-2.375 1.01883,-0.51041 2.02161,-1.08647 3.03125,-1.625 0.088,0.157 0.16165,0.31199 0.25,0.46875 0.93879,-0.54734 1.91192,-1.09638 2.84375,-1.65625 1.5552,-0.93437 3.10004,-1.84279 4.6875,-2.71875 1.19062,-0.65702 2.41526,-1.27712 3.65625,-1.84375 0.4137,-0.18891 0.86014,-0.38732 1.28125,-0.5625 1.8132,-0.70081 3.67266,-1.27869 5.59375,-1.6875 1.84725,-0.39306 3.73269,-0.63905 5.71875,-0.65625 1.99348,0.0158 3.8964,0.26184 5.75,0.65625 1.92111,0.40881 3.81181,0.98671 5.625,1.6875 1.8132,0.70075 3.56404,1.53027 5.3125,2.40625 1.74847,0.87594 3.4606,1.78438 5.1875,2.71875 1.72693,0.93436 3.50151,1.90527 5.25,2.78125 1.74849,0.87595 3.4993,1.70548 5.3125,2.40625 1.81318,0.70071 3.67268,1.27872 5.59375,1.6875 1.58118,0.33645 3.19438,0.52721 4.875,0.59375 0.3613,0.0143 0.75837,0.0625 1.125,0.0625 0.15057,0.003 0.28598,0 0.4375,0 2.07208,10e-6 4.04765,-0.24746 5.96875,-0.65625 1.92107,-0.4088 3.78054,-0.98673 5.59375,-1.6875 1.81321,-0.70075 3.56403,-1.49904 5.3125,-2.375 1.74849,-0.87596 3.49184,-1.87811 5.21875,-2.8125 1.72684,-0.93437 3.47028,-1.84278 5.21875,-2.71875 1.74851,-0.87599 3.4993,-1.70548 5.3125,-2.40625 1.81322,-0.70081 3.67267,-1.27868 5.59375,-1.6875 1.84731,-0.39305 3.76394,-0.63904 5.75,-0.65625 1.98606,0.0172 3.87147,0.2632 5.71875,0.65625 1.92104,0.40882 3.81179,0.98672 5.625,1.6875 1.81319,0.70075 3.56401,1.53027 5.3125,2.40625 1.74846,0.87595 3.49184,1.78438 5.21875,2.71875 0.67209,0.36364 1.35713,0.73358 2.03125,1.09375 0.87519,0.56541 1.73827,1.1836 2.625,1.71875 0.62351,0.37628 1.2691,0.61865 1.90625,0.96875 0.0511,-0.0918 0.10375,-0.15955 0.15625,-0.25 1.24753,0.59293 2.52791,1.15977 3.8125,1.65625 1.81318,0.7007 3.67267,1.27872 5.59375,1.6875 1.92108,0.40878 3.89664,0.65625 5.96875,0.65625 2.07211,-4e-5 4.07891,-0.24746 6,-0.65625 1.92105,-0.40879 3.78054,-0.98675 5.59375,-1.6875 1.81321,-0.70082 3.56403,-1.5303 5.3125,-2.40625 1.74847,-0.87601 3.4606,-1.84689 5.1875,-2.78125 1.72686,-0.93437 3.47027,-1.84278 5.21875,-2.71875 1.74848,-0.87599 3.4993,-1.70548 5.3125,-2.40625 1.81321,-0.70081 3.67264,-1.27868 5.59375,-1.6875 1.92109,-0.40877 3.89662,-0.65625 5.96875,-0.65625 2.07213,-10e-6 4.07893,0.24748 6,0.65625 1.92108,0.40882 3.78053,0.98672 5.59375,1.6875 1.81318,0.70075 3.59528,1.53027 5.34375,2.40625 1.74847,0.87595 3.46061,1.78438 5.1875,2.71875 1.72687,0.93435 3.47026,1.90526 5.21875,2.78125 1.74846,0.87595 3.53055,1.70548 5.34375,2.40625 1.81321,0.7007 3.67269,1.27872 5.59375,1.6875 0.97697,0.20787 1.95813,0.35804 2.96875,0.46875 0.003,-7.46459 4e-4,-20.47284 0,-27.9375 -1.02101,-0.10962 -1.98085,-0.28979 -2.96875,-0.5 -1.92105,-0.4088 -3.78054,-0.98672 -5.59375,-1.6875 -1.8132,-0.7008 -3.59528,-1.53027 -5.34375,-2.40625 -1.7485,-0.876 -3.49183,-1.81563 -5.21875,-2.75 -1.72692,-0.93434 -3.43903,-1.84277 -5.1875,-2.71875 -1.74849,-0.87599 -3.53056,-1.70551 -5.34375,-2.40625 -1.81322,-0.70078 -3.67266,-1.27873 -5.59375,-1.6875 -1.92109,-0.40878 -3.92788,-0.65625 -6,-0.65625 -2.07212,-2e-5 -4.04767,0.24747 -5.96875,0.65625 -1.92108,0.40878 -3.78054,0.98672 -5.59375,1.6875 -1.81321,0.70074 -3.56402,1.53028 -5.3125,2.40625 -1.7485,0.87595 -3.49185,1.78439 -5.21875,2.71875 -1.72692,0.93438 -3.43903,1.87403 -5.1875,2.75 -1.74848,0.87595 -3.49929,1.70548 -5.3125,2.40625 -1.81321,0.70075 -3.67268,1.27872 -5.59375,1.6875 -1.92112,0.40876 -3.92788,0.65625 -6,0.65625 -1.93397,-3e-5 -3.81072,-0.24747 -5.65625,-0.65625 -1.84553,-0.4088 -3.68143,-0.98672 -5.46875,-1.6875 -3.57459,-1.40155 -7.03961,-3.28752 -10.5625,-5.15625 -1.76147,-0.93434 -3.54993,-1.84277 -5.34375,-2.71875 -1.79379,-0.87599 -3.58114,-1.70551 -5.4375,-2.40625 -0.4641,-0.1752 -0.9382,-0.34032 -1.40625,-0.5 -1.2889,-0.47907 -2.61555,-0.88092 -4,-1.1875 -1.84595,-0.40878 -3.80289,-0.65625 -5.875,-0.65625 -0.0796,-2e-5 -0.13938,-6.7e-4 -0.21875,0 -0.0794,-6.9e-4 -0.17038,0 -0.25,0 -2.07208,-2e-5 -4.04767,0.24747 -5.96875,0.65625 -1.92111,0.40878 -3.78055,0.98672 -5.59375,1.6875 -1.81321,0.70074 -3.56401,1.53028 -5.3125,2.40625 -1.74849,0.87595 -3.46061,1.78439 -5.1875,2.71875 -1.72689,0.93438 -3.47028,1.87403 -5.21875,2.75 -1.7485,0.87595 -3.49931,1.70548 -5.3125,2.40625 -1.81319,0.70075 -3.67265,1.27872 -5.59375,1.6875 -1.44084,0.30656 -2.94633,0.54015 -4.46875,0.625 -0.35689,0.0199 -0.70048,0.0252 -1.0625,0.0312 -0.51805,-3e-5 -1.05503,-0.003 -1.5625,-0.0312 -1.52241,-0.0848 -2.96544,-0.31841 -4.40625,-0.625 -1.92109,-0.4088 -3.78054,-0.98672 -5.59375,-1.6875 -1.81323,-0.7008 -3.59526,-1.53027 -5.34375,-2.40625 -1.74846,-0.876 -3.4606,-1.81563 -5.1875,-2.75 -1.7269,-0.93434 -3.47026,-1.84277 -5.21875,-2.71875 -1.74847,-0.87599 -3.49931,-1.70551 -5.3125,-2.40625 -1.81321,-0.70078 -3.70391,-1.27873 -5.625,-1.6875 -1.92111,-0.40878 -3.89663,-0.65625 -5.96875,-0.65625 -0.0796,-2e-5 -0.17065,-6.7e-4 -0.25,0 -0.0725,-5.8e-4 -0.11471,0 -0.1875,0 -2.07207,-2e-5 -4.02906,0.24747 -5.875,0.65625 -1.83805,0.40703 -3.57226,0.99073 -5.25,1.6875 -0.42107,0.17518 -0.86757,0.3736 -1.28125,0.5625 -1.36296,0.57295 -2.70143,1.17753 -4.03125,1.84375 -1.74849,0.87595 -3.49184,1.78439 -5.21875,2.71875 -1.72691,0.93438 -3.47026,1.87403 -5.21875,2.75 -1.74847,0.87595 -3.49929,1.70548 -5.3125,2.40625 -1.81321,0.70075 -3.70392,1.27872 -5.625,1.6875 -1.92106,0.40876 -3.86538,0.65625 -5.9375,0.65625 -1.93399,-3e-5 -3.84197,-0.24747 -5.6875,-0.65625 -1.84553,-0.4088 -3.65025,-0.98672 -5.4375,-1.6875 -3.57465,-1.40155 -7.07086,-3.28752 -10.59375,-5.15625 -1.76145,-0.93434 -3.54997,-1.84277 -5.34375,-2.71875 -1.79385,-0.87599 -3.58115,-1.70551 -5.4375,-2.40625 -1.85643,-0.70078 -3.76957,-1.27873 -5.71875,-1.6875 -1.94911,-0.40878 -3.92789,-0.65625 -6,-0.65625 z m 0,52.78125 c -2.07218,-3e-5 -4.07892,0.24747 -6,0.65625 -1.92108,0.40878 -3.7493,0.98673 -5.5625,1.6875 -1.8132,0.70074 -3.59527,1.53029 -5.34375,2.40625 -1.74848,0.87595 -3.4606,1.81565 -5.1875,2.75 -1.7269,0.93438 -3.47028,1.87403 -5.21875,2.75 -1.74855,0.87594 -3.53055,1.70547 -5.34375,2.40625 -1.8132,0.70075 -3.64142,1.27872 -5.5625,1.6875 -0.37428,0.0797 -0.7451,0.12158 -1.125,0.1875 l 0,28 c 0.37879,-0.0671 0.75245,-0.13946 1.125,-0.21875 1.92108,-0.40879 3.7493,-0.98672 5.5625,-1.6875 1.8132,-0.70074 3.59527,-1.49903 5.34375,-2.375 1.74847,-0.87596 3.49185,-1.87811 5.21875,-2.8125 1.72697,-0.93437 3.43902,-1.84279 5.1875,-2.71875 1.74848,-0.876 3.53055,-1.70549 5.34375,-2.40625 1.8132,-0.70081 3.64135,-1.27869 5.5625,-1.6875 1.92108,-0.40877 3.92789,-0.65625 6,-0.65625 2.07212,-2e-5 4.04767,0.24748 5.96875,0.65625 1.92108,0.40881 3.78055,0.98671 5.59375,1.6875 1.81313,0.70075 3.56403,1.53027 5.3125,2.40625 1.74848,0.87594 3.49185,1.78438 5.21875,2.71875 1.72697,0.93439 3.43903,1.93653 5.1875,2.8125 1.74848,0.87598 3.53055,1.67425 5.34375,2.375 1.8132,0.70079 3.64135,1.27873 5.5625,1.6875 1.92101,0.40877 3.95913,0.65625 6.03125,0.65625 2.07213,10e-6 4.0164,-0.24746 5.9375,-0.65625 1.9211,-0.40879 3.81179,-0.98672 5.625,-1.6875 1.81322,-0.70074 3.56402,-1.49903 5.3125,-2.375 1.01883,-0.51041 2.02161,-1.08647 3.03125,-1.625 0.088,0.157 0.16165,0.31199 0.25,0.46875 0.93879,-0.54734 1.91192,-1.09638 2.84375,-1.65625 1.5552,-0.93437 3.10004,-1.84279 4.6875,-2.71875 1.19062,-0.65702 2.41526,-1.27712 3.65625,-1.84375 0.4137,-0.18891 0.86014,-0.38732 1.28125,-0.5625 1.8132,-0.70081 3.67266,-1.27869 5.59375,-1.6875 1.84725,-0.39306 3.73269,-0.63905 5.71875,-0.65625 1.99348,0.0158 3.8964,0.26184 5.75,0.65625 1.92111,0.40881 3.81181,0.98671 5.625,1.6875 1.8132,0.70075 3.56404,1.53027 5.3125,2.40625 1.74847,0.87594 3.4606,1.78438 5.1875,2.71875 1.72693,0.93436 3.50151,1.87402 5.25,2.75 1.74849,0.87595 3.4993,1.70548 5.3125,2.40625 1.81318,0.70071 3.67268,1.27872 5.59375,1.6875 1.58118,0.33645 3.19438,0.55846 4.875,0.625 0.3613,0.0143 0.75837,0.0312 1.125,0.0312 0.15057,0.003 0.28598,0.0312 0.4375,0.0312 2.07208,10e-6 4.04765,-0.24746 5.96875,-0.65625 1.92107,-0.4088 3.78054,-0.98673 5.59375,-1.6875 1.81321,-0.70075 3.56403,-1.49904 5.3125,-2.375 1.74849,-0.87596 3.49184,-1.87811 5.21875,-2.8125 1.72684,-0.93437 3.47028,-1.84278 5.21875,-2.71875 1.74851,-0.87599 3.4993,-1.70548 5.3125,-2.40625 1.81322,-0.70081 3.67267,-1.27868 5.59375,-1.6875 1.84731,-0.39305 3.76394,-0.63904 5.75,-0.65625 1.98606,0.0172 3.87147,0.2632 5.71875,0.65625 1.92104,0.40882 3.81179,0.98672 5.625,1.6875 1.81319,0.70075 3.56401,1.53027 5.3125,2.40625 1.74846,0.87595 3.49184,1.78438 5.21875,2.71875 0.67209,0.36364 1.35713,0.73358 2.03125,1.09375 0.87519,0.56541 1.73827,1.1836 2.625,1.71875 0.62351,0.37628 1.2691,0.61865 1.90625,0.96875 0.0511,-0.0918 0.10375,-0.1908 0.15625,-0.28125 1.24753,0.59293 2.52791,1.15977 3.8125,1.65625 1.81318,0.7007 3.67267,1.27872 5.59375,1.6875 1.92108,0.40878 3.89664,0.65625 5.96875,0.65625 2.07211,-4e-5 4.07891,-0.24746 6,-0.65625 1.92105,-0.40879 3.78054,-0.98675 5.59375,-1.6875 1.81321,-0.70082 3.56403,-1.5303 5.3125,-2.40625 1.74847,-0.87601 3.4606,-1.81564 5.1875,-2.75 1.72686,-0.93437 3.47027,-1.84278 5.21875,-2.71875 1.74848,-0.87599 3.4993,-1.70548 5.3125,-2.40625 1.81321,-0.70081 3.67264,-1.27868 5.59375,-1.6875 1.92109,-0.40877 3.89662,-0.65625 5.96875,-0.65625 2.07213,-10e-6 4.07893,0.24748 6,0.65625 1.92108,0.40882 3.78053,0.98672 5.59375,1.6875 1.81318,0.70075 3.59528,1.53027 5.34375,2.40625 1.74847,0.87595 3.46061,1.78438 5.1875,2.71875 1.72687,0.93435 3.47026,1.87401 5.21875,2.75 1.74846,0.87595 3.53055,1.70548 5.34375,2.40625 1.81321,0.7007 3.67269,1.27872 5.59375,1.6875 0.46843,0.0997 0.9331,0.19862 1.40625,0.28125 0.5243,-0.51751 1.04066,-1.04252 1.5625,-1.5625 0.002,-7.61172 3.7e-4,-19.19824 0,-26.1875 -1.02101,-0.10962 -1.98085,-0.25854 -2.96875,-0.46875 -1.92105,-0.4088 -3.78054,-0.98672 -5.59375,-1.6875 -1.8132,-0.7008 -3.59528,-1.53027 -5.34375,-2.40625 -1.7485,-0.876 -3.49183,-1.81563 -5.21875,-2.75 -1.72692,-0.93434 -3.43903,-1.87402 -5.1875,-2.75 -1.74849,-0.87599 -3.53056,-1.70551 -5.34375,-2.40625 -1.81322,-0.70078 -3.67266,-1.27873 -5.59375,-1.6875 -1.92109,-0.40878 -3.92788,-0.65625 -6,-0.65625 -2.07212,-2e-5 -4.04767,0.24747 -5.96875,0.65625 -1.92108,0.40878 -3.78054,0.98672 -5.59375,1.6875 -1.81321,0.70074 -3.56402,1.53028 -5.3125,2.40625 -1.7485,0.87595 -3.49185,1.81564 -5.21875,2.75 -1.72692,0.93438 -3.43903,1.87403 -5.1875,2.75 -1.74848,0.87595 -3.49929,1.70548 -5.3125,2.40625 -1.81321,0.70075 -3.67268,1.27872 -5.59375,1.6875 -1.92112,0.40876 -3.92788,0.65625 -6,0.65625 -1.93397,-3e-5 -3.81072,-0.24747 -5.65625,-0.65625 -1.84553,-0.4088 -3.68143,-0.98672 -5.46875,-1.6875 -3.57459,-1.40155 -7.03961,-3.28752 -10.5625,-5.15625 -1.76147,-0.93434 -3.54993,-1.87402 -5.34375,-2.75 -1.79379,-0.87599 -3.58114,-1.70551 -5.4375,-2.40625 -0.4641,-0.1752 -0.9382,-0.34032 -1.40625,-0.5 -1.2889,-0.47907 -2.61555,-0.88092 -4,-1.1875 -1.84595,-0.40878 -3.80289,-0.65625 -5.875,-0.65625 -0.0796,-2e-5 -0.13938,-6.7e-4 -0.21875,0 -0.0794,-6.9e-4 -0.17038,0 -0.25,0 -2.07208,-2e-5 -4.04767,0.24747 -5.96875,0.65625 -1.92111,0.40878 -3.78055,0.98672 -5.59375,1.6875 -1.81321,0.70074 -3.56401,1.53028 -5.3125,2.40625 -1.74849,0.87595 -3.46061,1.81564 -5.1875,2.75 -1.72689,0.93438 -3.47028,1.87403 -5.21875,2.75 -1.7485,0.87595 -3.49931,1.70548 -5.3125,2.40625 -1.81319,0.70075 -3.67265,1.27872 -5.59375,1.6875 -1.44084,0.30656 -2.94633,0.5089 -4.46875,0.59375 -0.35689,0.0199 -0.70048,0.0564 -1.0625,0.0625 -0.51805,-3e-5 -1.05503,-0.0341 -1.5625,-0.0625 -1.52241,-0.0848 -2.96544,-0.28716 -4.40625,-0.59375 -1.92109,-0.4088 -3.78054,-0.98672 -5.59375,-1.6875 -1.81323,-0.7008 -3.59526,-1.53027 -5.34375,-2.40625 -1.74846,-0.876 -3.4606,-1.81563 -5.1875,-2.75 -1.7269,-0.93434 -3.47026,-1.87402 -5.21875,-2.75 -1.74847,-0.87599 -3.49931,-1.70551 -5.3125,-2.40625 -1.81321,-0.70078 -3.70391,-1.27873 -5.625,-1.6875 -1.92111,-0.40878 -3.89663,-0.65625 -5.96875,-0.65625 -0.0796,-2e-5 -0.17065,-6.7e-4 -0.25,0 -0.0725,-5.8e-4 -0.11471,0 -0.1875,0 -2.07207,-2e-5 -4.02906,0.24747 -5.875,0.65625 -1.83805,0.40703 -3.57226,0.99073 -5.25,1.6875 -0.42107,0.17518 -0.86757,0.3736 -1.28125,0.5625 -1.36296,0.57295 -2.70143,1.17753 -4.03125,1.84375 -1.74849,0.87595 -3.49184,1.81564 -5.21875,2.75 -1.72691,0.93438 -3.47026,1.87403 -5.21875,2.75 -1.74847,0.87595 -3.49929,1.70548 -5.3125,2.40625 -1.81321,0.70075 -3.70392,1.27872 -5.625,1.6875 -1.92106,0.40876 -3.86538,0.65625 -5.9375,0.65625 -1.93399,-3e-5 -3.84197,-0.24747 -5.6875,-0.65625 -1.84553,-0.4088 -3.65025,-0.98672 -5.4375,-1.6875 -3.57465,-1.40155 -7.07086,-3.28752 -10.59375,-5.15625 -1.76145,-0.93434 -3.54997,-1.87402 -5.34375,-2.75 -1.79385,-0.87599 -3.58115,-1.70551 -5.4375,-2.40625 -1.85643,-0.70078 -3.76957,-1.27873 -5.71875,-1.6875 -1.94911,-0.40878 -3.92789,-0.65625 -6,-0.65625 z m 0,52.8125 c -2.07218,-3e-5 -4.07892,0.24747 -6,0.65625 -1.92108,0.40878 -3.7493,0.98673 -5.5625,1.6875 -1.8132,0.70074 -3.59527,1.53029 -5.34375,2.40625 -1.54045,0.77173 -3.04353,1.58858 -4.5625,2.40625 8.21382,7.35283 16.68744,14.40293 25.4375,21.09375 0.67463,0.0989 1.33994,0.2033 2,0.34375 1.92108,0.40881 3.78055,0.98671 5.59375,1.6875 1.81313,0.70075 3.56403,1.53027 5.3125,2.40625 1.74848,0.87594 3.49185,1.81563 5.21875,2.75 1.72697,0.93439 3.43903,1.90528 5.1875,2.78125 1.74848,0.87598 3.53055,1.67425 5.34375,2.375 1.8132,0.70079 3.64135,1.30998 5.5625,1.71875 1.92101,0.40877 3.95913,0.625 6.03125,0.625 2.07213,10e-6 4.0164,-0.21621 5.9375,-0.625 1.9211,-0.40879 3.81179,-1.01797 5.625,-1.71875 1.81322,-0.70074 3.56402,-1.49903 5.3125,-2.375 1.01883,-0.51041 2.02161,-1.08647 3.03125,-1.625 0.088,0.157 0.16165,0.31199 0.25,0.46875 0.93879,-0.54734 1.91192,-1.06513 2.84375,-1.625 1.5552,-0.93437 3.10004,-1.87404 4.6875,-2.75 1.19062,-0.65702 2.41526,-1.27712 3.65625,-1.84375 0.4137,-0.18891 0.86014,-0.38732 1.28125,-0.5625 1.8132,-0.70081 3.67266,-1.27869 5.59375,-1.6875 1.84725,-0.39306 3.73269,-0.63905 5.71875,-0.65625 1.99348,0.0158 3.8964,0.26184 5.75,0.65625 1.92111,0.40881 3.81181,0.98671 5.625,1.6875 1.8132,0.70075 3.56404,1.53027 5.3125,2.40625 1.74847,0.87594 3.4606,1.81563 5.1875,2.75 1.72693,0.93436 3.50151,1.87402 5.25,2.75 1.74849,0.87595 3.4993,1.70548 5.3125,2.40625 1.81318,0.70071 3.67268,1.27872 5.59375,1.6875 1.58118,0.33645 3.19438,0.52721 4.875,0.59375 0.3613,0.0143 0.75837,0.0625 1.125,0.0625 0.15057,0.003 0.28598,0 0.4375,0 2.07208,10e-6 4.04765,-0.21621 5.96875,-0.625 1.92107,-0.4088 3.78054,-1.01798 5.59375,-1.71875 1.81321,-0.70075 3.56403,-1.49904 5.3125,-2.375 1.74849,-0.87596 3.49184,-1.84686 5.21875,-2.78125 1.72684,-0.93437 3.47028,-1.87403 5.21875,-2.75 1.74851,-0.87599 3.4993,-1.70548 5.3125,-2.40625 1.81322,-0.70081 3.67267,-1.27868 5.59375,-1.6875 1.84731,-0.39305 3.76394,-0.63904 5.75,-0.65625 1.98606,0.0172 3.87147,0.2632 5.71875,0.65625 1.92104,0.40882 3.81179,0.98672 5.625,1.6875 1.81319,0.70075 3.56401,1.53027 5.3125,2.40625 1.74846,0.87595 3.49184,1.81563 5.21875,2.75 0.67209,0.36364 1.35713,0.70233 2.03125,1.0625 0.87519,0.56541 1.73827,1.1836 2.625,1.71875 0.62351,0.37628 1.2691,0.61865 1.90625,0.96875 0.0511,-0.0918 0.10375,-0.15955 0.15625,-0.25 1.24753,0.59293 2.52791,1.15977 3.8125,1.65625 1.81318,0.7007 3.67267,1.27872 5.59375,1.6875 1.92108,0.40878 3.89664,0.65625 5.96875,0.65625 2.07211,-4e-5 4.07891,-0.24746 6,-0.65625 1.92105,-0.40879 3.78054,-0.98675 5.59375,-1.6875 1.81321,-0.70082 3.56403,-1.5303 5.3125,-2.40625 1.74847,-0.87601 3.4606,-1.81564 5.1875,-2.75 1.72686,-0.93437 3.47027,-1.87403 5.21875,-2.75 1.74848,-0.87599 3.4993,-1.70548 5.3125,-2.40625 1.81321,-0.70081 3.67264,-1.27868 5.59375,-1.6875 0.54061,-0.11503 1.07482,-0.22493 1.625,-0.3125 8.75287,-6.82147 17.27741,-13.91937 25.5625,-21.28125 -1.42386,-0.76438 -2.83661,-1.52624 -4.28125,-2.25 -1.74849,-0.87599 -3.53056,-1.70551 -5.34375,-2.40625 -1.81322,-0.70078 -3.67266,-1.27873 -5.59375,-1.6875 -1.92109,-0.40878 -3.92788,-0.65625 -6,-0.65625 -2.07212,-2e-5 -4.04767,0.24747 -5.96875,0.65625 -1.92108,0.40878 -3.78054,0.98672 -5.59375,1.6875 -1.81321,0.70074 -3.56402,1.53028 -5.3125,2.40625 -1.7485,0.87595 -3.49185,1.78439 -5.21875,2.71875 -1.72692,0.93438 -3.43903,1.90528 -5.1875,2.78125 -1.74848,0.87595 -3.49929,1.70548 -5.3125,2.40625 -1.81321,0.70075 -3.67268,1.27872 -5.59375,1.6875 -1.92112,0.40876 -3.92788,0.625 -6,0.625 -1.93397,-3e-5 -3.81072,-0.21622 -5.65625,-0.625 -1.84553,-0.4088 -3.68143,-0.98672 -5.46875,-1.6875 -3.57459,-1.40155 -7.03961,-3.31877 -10.5625,-5.1875 -1.76147,-0.93434 -3.54993,-1.84277 -5.34375,-2.71875 -1.79379,-0.87599 -3.58114,-1.70551 -5.4375,-2.40625 -0.4641,-0.1752 -0.9382,-0.34032 -1.40625,-0.5 -1.2889,-0.47907 -2.61555,-0.88092 -4,-1.1875 -1.84595,-0.40878 -3.80289,-0.65625 -5.875,-0.65625 -0.0796,-2e-5 -0.13938,-6.7e-4 -0.21875,0 -0.0794,-6.9e-4 -0.17038,0 -0.25,0 -2.07208,-2e-5 -4.04767,0.24747 -5.96875,0.65625 -1.92111,0.40878 -3.78055,0.98672 -5.59375,1.6875 -1.81321,0.70074 -3.56401,1.53028 -5.3125,2.40625 -1.74849,0.87595 -3.46061,1.78439 -5.1875,2.71875 -1.72689,0.93438 -3.47028,1.90528 -5.21875,2.78125 -1.7485,0.87595 -3.49931,1.70548 -5.3125,2.40625 -1.81319,0.70075 -3.67265,1.27872 -5.59375,1.6875 -1.44084,0.30656 -2.94633,0.5089 -4.46875,0.59375 -0.35689,0.0199 -0.70048,0.0252 -1.0625,0.0312 -0.51805,-3e-5 -1.05503,-0.003 -1.5625,-0.0312 -1.52241,-0.0848 -2.96544,-0.28716 -4.40625,-0.59375 -1.92109,-0.4088 -3.78054,-0.98672 -5.59375,-1.6875 -1.81323,-0.7008 -3.59526,-1.53027 -5.34375,-2.40625 -1.74846,-0.876 -3.4606,-1.84688 -5.1875,-2.78125 -1.7269,-0.93434 -3.47026,-1.84277 -5.21875,-2.71875 -1.74847,-0.87599 -3.49931,-1.70551 -5.3125,-2.40625 -1.81321,-0.70078 -3.70391,-1.27873 -5.625,-1.6875 -1.92111,-0.40878 -3.89663,-0.65625 -5.96875,-0.65625 -0.0796,-2e-5 -0.17065,-6.7e-4 -0.25,0 -0.0725,-5.8e-4 -0.11471,0 -0.1875,0 -2.07207,-2e-5 -4.02906,0.24747 -5.875,0.65625 -1.83805,0.40703 -3.57226,0.99073 -5.25,1.6875 -0.42107,0.17518 -0.86757,0.3736 -1.28125,0.5625 -1.36296,0.57295 -2.70143,1.17753 -4.03125,1.84375 -1.74849,0.87595 -3.49184,1.78439 -5.21875,2.71875 -1.72691,0.93438 -3.47026,1.90528 -5.21875,2.78125 -1.74847,0.87595 -3.49929,1.70548 -5.3125,2.40625 -1.81321,0.70075 -3.70392,1.27872 -5.625,1.6875 -1.92106,0.40876 -3.86538,0.625 -5.9375,0.625 -1.93399,-3e-5 -3.84197,-0.21622 -5.6875,-0.625 -1.84553,-0.4088 -3.65025,-0.98672 -5.4375,-1.6875 -3.57465,-1.40155 -7.07086,-3.31877 -10.59375,-5.1875 -1.76145,-0.93434 -3.54997,-1.84277 -5.34375,-2.71875 -1.79385,-0.87599 -3.58115,-1.70551 -5.4375,-2.40625 -1.85643,-0.70078 -3.76957,-1.27873 -5.71875,-1.6875 -1.94911,-0.40878 -3.92789,-0.65625 -6,-0.65625 z"
             id="path5588"
             style="fill:#e3e4e5;fill-opacity:1;fill-rule:evenodd;stroke:#000000;stroke-width:1.11519134;stroke-miterlimit:4;stroke-dasharray:none;marker:none;visibility:visible;display:inline;overflow:visible" />
        </g>
      </g>
      <path
         d="m 67.591664,174.875 0,1 0,1 c 3.287522,119.97424 -9.055693,241.20529 12.34375,360.0625 20.065246,115.0579 93.584346,217.32296 191.624996,279.21875 30.85683,19.94151 62.27668,39.70651 96.40625,53.28125 15.60211,2.23584 27.71043,-10.10223 41.03125,-15.8125 70.25853,-36.98985 135.18709,-86.2848 182.75,-150.28125 35.41079,-47.72302 58.45021,-103.98701 70.53125,-162.09375 13.22074,-61.57339 13.72295,-124.8853 13.375,-187.6875 -0.0747,-59.56187 -1.22155,-119.1622 1.46875,-178.6875 l -609.531246,0 z m 71.999996,72 463.8125,0 0,0.8125 c -1.99605,231.8903 30.44579,404.41381 -231.59375,544.25 l -0.3125,0.15625 -0.3125,-0.15625 C 109.14586,652.10131 141.58771,479.5778 139.59166,247.6875 l 0,-0.8125 z"
         id="path5624"
         style="fill:#eac102;stroke:#000000;stroke-width:1.11519134px;stroke-linecap:butt;stroke-linejoin:miter;stroke-opacity:1" />
      <path
         d="m 67.592491,176.875 c 3.287522,119.97424 -9.059,241.18972 12.340443,360.04693 20.065244,115.0579 93.573956,217.33949 191.614606,279.23528 30.85683,19.94151 62.29038,39.70555 96.41995,53.28029 15.60211,2.23584 27.71104,-10.08921 41.03186,-15.79948 70.25853,-36.98985 135.18648,-86.29782 182.74939,-150.29427 35.41079,-47.72302 58.4359,-103.97298 70.51694,-162.07972 13.22074,-61.57339 13.73726,-124.89933 13.38931,-187.70153 -0.0747,-59.56187 -1.22155,-119.1622 1.46875,-178.6875 -203.17708,0 -406.35417,0 -609.531249,0 l 0,1 0,1 z"
         id="path5664"
         style="fill:none;stroke:#000000;stroke-width:3.34557438;stroke-linecap:butt;stroke-linejoin:miter;stroke-miterlimit:4;stroke-opacity:1;stroke-dasharray:none" />
      <g
         transform="matrix(0.61120677,0,0,0.61120677,439.83715,12.787283)"
         id="g7999"
         style="stroke:#000000;stroke-width:0.91499275">
        <g
           transform="translate(-0.3603674,0)"
           id="g7923"
           style="fill:#000000;stroke:#000000;stroke-width:1.82457304;stroke-opacity:1">
          <path
             d="m -112.13528,309.75303 c -8.28518,-6.97137 -6.70466,-13.94275 -6.45222,-20.91412 -2.48471,7.41635 -4.42917,14.83271 3.55985,22.24906"
             id="path7919"
             style="fill:#000000;fill-rule:evenodd;stroke:#000000;stroke-width:1.82457304px;stroke-linecap:butt;stroke-linejoin:miter;stroke-opacity:1" />
          <path
             d="m -108.96715,309.75303 c 8.28518,-6.97137 6.70466,-13.94275 6.45222,-20.91412 2.48471,7.41635 4.429173,14.83271 -3.55985,22.24906"
             id="path7921"
             style="fill:#000000;fill-rule:evenodd;stroke:#000000;stroke-width:1.82457304px;stroke-linecap:butt;stroke-linejoin:miter;stroke-opacity:1" />
        </g>
        <g
           transform="translate(-0.0291491,1.3148339)"
           id="g7939"
           style="fill:#000000;stroke:#000000;stroke-width:1.82457304;stroke-opacity:1">
          <path
             d="m -104.13484,317.97752 4.207467,-0.39445 c 9.010338,-2.93798 12.501005,-6.33592 17.618774,-9.59828 1.178951,-8.10158 1.168748,-15.74392 -0.39445,-23.92998 3.464352,7.13249 4.613832,15.46824 3.681535,23.92998 -5.291158,6.77229 -17.337742,13.55827 -24.587386,13.80575"
             id="path7935"
             style="fill:#000000;fill-rule:evenodd;stroke:#000000;stroke-width:1.82457304px;stroke-linecap:butt;stroke-linejoin:miter;stroke-opacity:1" />
          <path
             d="m -117.63003,317.97752 -4.20746,-0.39445 c -9.01034,-2.93798 -12.50101,-6.33592 -17.61878,-9.59828 -1.17895,-8.10158 -1.16874,-15.74392 0.39445,-23.92998 -3.46435,7.13249 -4.61383,15.46824 -3.68153,23.92998 5.29116,6.77229 17.33774,13.55827 24.58738,13.80575"
             id="path7937"
             style="fill:#000000;fill-rule:evenodd;stroke:#000000;stroke-width:1.82457304px;stroke-linecap:butt;stroke-linejoin:miter;stroke-opacity:1" />
        </g>
        <g
           transform="translate(0.1499772,-0.3944502)"
           id="g7955"
           style="fill:#000000;stroke:#000000;stroke-width:1.82457304;stroke-opacity:1">
          <path
             d="m -103.21446,325.20911 c 4.840583,-0.66552 10.415912,-1.08612 17.35581,-1.05187 3.704258,-0.25809 5.147556,3.35975 6.442685,7.23159 0.630453,7.01382 -0.178862,8.34221 -1.709283,9.33532 l -4.338952,9.86125 0,1.97226 1.446317,1.5778 c -1.199991,2.01279 -2.657494,1.35171 -4.207468,-2.23522 1.216762,-6.61308 3.761931,-9.38148 5.916752,-13.80576 l 0,-6.83713 c -0.49295,-2.4408 -1.654679,-4.04563 -3.550051,-4.73341 l -11.176088,0.52594 c -1.544669,2.25498 -4.303572,1.77793 -7.231582,0.92038"
             id="path7951"
             style="fill:#000000;fill-rule:evenodd;stroke:#000000;stroke-width:1.82457304px;stroke-linecap:butt;stroke-linejoin:miter;stroke-opacity:1" />
          <path
             d="m -118.90865,325.20911 c -4.84059,-0.66552 -10.41591,-1.08612 -17.35581,-1.05187 -3.70427,-0.25809 -5.14756,3.35975 -6.44269,7.23159 -0.63046,7.01382 0.17886,8.34221 1.70928,9.33532 l 4.33896,9.86125 0,1.97226 -1.44632,1.5778 c 1.19999,2.01279 2.65749,1.35171 4.20747,-2.23522 -1.21676,-6.61308 -3.76193,-9.38148 -5.91676,-13.80576 l 0,-6.83713 c 0.49295,-2.4408 1.65469,-4.04563 3.55006,-4.73341 l 11.17609,0.52594 c 1.54466,2.25498 4.30357,1.77793 7.23158,0.92038"
             id="path7953"
             style="fill:#000000;fill-rule:evenodd;stroke:#000000;stroke-width:1.82457304px;stroke-linecap:butt;stroke-linejoin:miter;stroke-opacity:1" />
        </g>
        <g
           id="g7963"
           style="fill:#000000;stroke:#000000;stroke-width:1.82457304;stroke-opacity:1">
          <path
             d="m -105.15927,314.20284 c 6.481671,-6.37806 10.133239,-12.75613 14.016918,-19.13419 0.387564,-1.62825 0.390935,-3.33334 0,-5.11729 -3.257807,-5.47542 -7.336626,-10.62244 -11.347028,-15.79683 4.52178,4.41211 9.205736,8.48762 12.681972,14.68438 0.811768,2.45726 0.77075,4.32511 0.222491,7.1197 -3.569996,8.23745 -8.23774,15.31538 -14.461893,21.80408"
             id="path7927"
             style="fill:#000000;fill-rule:evenodd;stroke:#000000;stroke-width:1.82457304px;stroke-linecap:butt;stroke-linejoin:miter;stroke-opacity:1" />
          <path
             d="m -116.6639,314.20284 c -6.48167,-6.37806 -10.13324,-12.75613 -14.01692,-19.13419 -0.38756,-1.62825 -0.39093,-3.33334 0,-5.11729 3.25781,-5.47542 7.33663,-10.62244 11.34703,-15.79683 -4.52178,4.41211 -9.20574,8.48762 -12.68197,14.68438 -0.81177,2.45726 -0.77075,4.32511 -0.22249,7.1197 3.56999,8.23745 8.23774,15.31538 14.46189,21.80408"
             id="path7961"
             style="fill:#000000;fill-rule:evenodd;stroke:#000000;stroke-width:1.82457304px;stroke-linecap:butt;stroke-linejoin:miter;stroke-opacity:1" />
        </g>
        <g
           transform="translate(0.105623,0)"
           id="g7995"
           style="stroke:#000000;stroke-width:0.91499275">
          <path
             d="m -118.20356,328.10175 c -1.62163,0.74507 -2.71733,1.84076 -3.28709,3.28708 -3.70105,1.3769 -6.23204,3.63134 -8.54642,6.04824 -0.89197,0.83706 -1.47072,1.88293 -1.31483,3.41856 l 0,5.52231 c -1.53637,3.02412 -0.34775,6.70565 0.39445,9.07235 l 5.12785,8.15197 0.92038,4.60192 c -0.7812,0.40215 -1.51275,0.85395 -0.92038,2.62967 0.83273,1.30879 1.66545,2.68308 2.49818,2.62966 1.19026,-2.95261 0.47782,-6.04909 0,-9.33531 l -6.17971,-9.59829 c 0.41963,-2.64962 0.55185,-5.83984 0.92038,-8.54642 0.15084,-2.20362 -0.1901,-4.32443 0.65742,-6.17972 1.14195,-0.98126 0.98487,-2.22232 3.68153,-2.89264 l 7.75752,-5.78527"
             id="path7967"
             style="fill:#000000;fill-rule:evenodd;stroke:#000000;stroke-width:1.82457304px;stroke-linecap:butt;stroke-linejoin:miter;stroke-opacity:1" />
          <path
             d="m -103.83085,328.10175 c 1.62163,0.74507 2.71733,1.84076 3.28709,3.28708 3.701054,1.3769 6.232044,3.63134 8.546424,6.04824 0.89197,0.83706 1.47072,1.88293 1.31483,3.41856 l 0,5.52231 c 1.53637,3.02412 0.34775,6.70565 -0.39445,9.07235 l -5.12785,8.15197 -0.92038,4.60192 c 0.7812,0.40215 1.51275,0.85395 0.92038,2.62967 -0.83273,1.30879 -1.66545,2.68308 -2.49818,2.62966 -1.19026,-2.95261 -0.47782,-6.04909 0,-9.33531 l 6.17971,-9.59829 c -0.41963,-2.64962 -0.55185,-5.83984 -0.92038,-8.54642 -0.15084,-2.20362 0.1901,-4.32443 -0.65742,-6.17972 -1.14195,-0.98126 -0.98487,-2.22232 -3.68153,-2.89264 l -7.757524,-5.78527"
             id="path7969"
             style="fill:#000000;fill-rule:evenodd;stroke:#000000;stroke-width:1.82457304px;stroke-linecap:butt;stroke-linejoin:miter;stroke-opacity:1" />
        </g>
        <path
           d="m -103.01316,321.99002 c 0,7.61452 -3.53849,13.79442 -7.89842,13.79442 -4.35993,0 -7.89842,-6.1799 -7.89842,-13.79442 1.93474,-7.22056 2.20355,-13.79442 7.89842,-13.79442 5.47238,0 5.88437,6.27786 7.89842,13.79442 z"
           id="path7908"
           style="fill:#000000;fill-opacity:1;stroke:#000000;stroke-width:1.82457304;stroke-linecap:round;stroke-linejoin:round;stroke-miterlimit:4;stroke-opacity:1" />
        <path
           d="m -89.218747,350.3624 c 0,11.36037 -6.628441,24.58038 -14.795623,24.58038 -8.16719,0 -14.79563,-13.22001 -14.79563,-24.58038 0,-11.36038 6.62844,-16.58039 14.79563,-16.58039 8.167182,0 14.795623,5.22001 14.795623,16.58039 z"
           transform="translate(-6.8972094,-1.3349438)"
           id="path7135"
           style="fill:#000000;fill-opacity:1;stroke:#000000;stroke-width:1.82457304;stroke-linecap:round;stroke-linejoin:round;stroke-miterlimit:4;stroke-opacity:1" />
        <g
           transform="translate(0.0052845,0)"
           id="g7947"
           style="fill:#000000;stroke:#000000;stroke-width:1.82457304;stroke-opacity:1">
          <path
             d="m -43.385672,294.51242 a 1.66868,1.66868 0 1 1 -3.33736,0 1.66868,1.66868 0 1 1 3.33736,0 z"
             transform="matrix(0.8666667,0,0,0.8666667,-69.700284,55.166219)"
             id="path7913"
             style="fill:#000000;fill-opacity:1;stroke:#000000;stroke-width:2.10527635;stroke-linecap:round;stroke-linejoin:round;stroke-miterlimit:4;stroke-opacity:1;stroke-dasharray:none" />
          <path
             d="m -43.385672,294.51242 a 1.66868,1.66868 0 1 1 -3.33736,0 1.66868,1.66868 0 1 1 3.33736,0 z"
             transform="matrix(0.8666667,0,0,0.8666667,-74.039236,55.166219)"
             id="path7945"
             style="fill:#000000;fill-opacity:1;stroke:#000000;stroke-width:2.10527635;stroke-linecap:round;stroke-linejoin:round;stroke-miterlimit:4;stroke-opacity:1;stroke-dasharray:none" />
        </g>
        <path
           d="m -111.86452,338.23825 0,11.17609 c 0.60601,0.93354 1.27122,0.86132 1.90588,0 l 0,-11.17609 c -0.44174,-0.97885 -1.48271,-0.9309 -1.90588,0 z"
           id="path7971"
           style="fill:#000000;fill-rule:evenodd;stroke:#000000;stroke-width:1.82457304px;stroke-linecap:butt;stroke-linejoin:miter;stroke-opacity:1" />
        <path
           d="m -111.86452,359.23233 0,7.78995 c 0.60601,0.93354 1.27122,0.86132 1.90588,0 l 0,-7.78995 c -0.44174,-0.97885 -1.48271,-0.9309 -1.90588,0 z"
           id="path7973"
           style="fill:#000000;fill-rule:evenodd;stroke:#000000;stroke-width:1.82457304px;stroke-linecap:butt;stroke-linejoin:miter;stroke-opacity:1" />
        <path
           d="m -111.72907,352.86638 0,3.04935 c 0.60601,0.93354 1.27122,0.86132 1.90588,0 l 0,-3.04935 c -0.44174,-0.97885 -1.48271,-0.9309 -1.90588,0 z"
           id="path7975"
           style="fill:#000000;fill-rule:evenodd;stroke:#000000;stroke-width:1.82457304px;stroke-linecap:butt;stroke-linejoin:miter;stroke-opacity:1" />
        <path
           d="m -111.86452,369.93254 0,3.04935 c 0.60601,0.93354 1.27122,0.86132 1.90588,0 l 0,-3.04935 c -0.44174,-0.97885 -1.48271,-0.9309 -1.90588,0 z"
           id="path7977"
           style="fill:#000000;fill-rule:evenodd;stroke:#000000;stroke-width:1.82457304px;stroke-linecap:butt;stroke-linejoin:miter;stroke-opacity:1" />
        <g
           transform="translate(-0.2776729,0)"
           id="g7983"
           style="fill:#000000;stroke:#000000;stroke-width:1.82457304;stroke-opacity:1">
          <path
             d="m -102.66739,346.40285 -4.91538,5.3268 c -0.18772,1.09704 0.35013,1.49508 1.40066,1.29248 l 4.91539,-5.3268 c 0.33917,-1.01894 -0.45838,-1.68964 -1.40067,-1.29248 z"
             id="path7979"
             style="fill:#000000;fill-rule:evenodd;stroke:#000000;stroke-width:1.82457304px;stroke-linecap:butt;stroke-linejoin:miter;stroke-opacity:1" />
          <path
             d="m -118.60043,346.40285 4.91538,5.3268 c 0.18772,1.09704 -0.35013,1.49508 -1.40066,1.29248 l -4.91539,-5.3268 c -0.33917,-1.01894 0.45838,-1.68964 1.40067,-1.29248 z"
             id="path7981"
             style="fill:#000000;fill-rule:evenodd;stroke:#000000;stroke-width:1.82457304px;stroke-linecap:butt;stroke-linejoin:miter;stroke-opacity:1" />
        </g>
        <g
           transform="translate(-0.2776729,10)"
           id="g7989"
           style="fill:#000000;stroke:#000000;stroke-width:1.82457304;stroke-opacity:1">
          <path
             d="m -104.66739,348.40285 -2.91538,3.3268 c -0.18772,1.09704 0.35013,1.49508 1.40066,1.29248 l 2.91539,-3.3268 c 0.33917,-1.01894 -0.45838,-1.68964 -1.40067,-1.29248 z"
             id="path7991"
             style="fill:#000000;fill-rule:evenodd;stroke:#000000;stroke-width:1.82457304px;stroke-linecap:butt;stroke-linejoin:miter;stroke-opacity:1" />
          <path
             d="m -116.60043,348.40285 2.91538,3.3268 c 0.18772,1.09704 -0.35013,1.49508 -1.40066,1.29248 l -2.91539,-3.3268 c -0.33917,-1.01894 0.45838,-1.68964 1.40067,-1.29248 z"
             id="path7993"
             style="fill:#000000;fill-rule:evenodd;stroke:#000000;stroke-width:1.82457304px;stroke-linecap:butt;stroke-linejoin:miter;stroke-opacity:1" />
        </g>
      </g>
      <use
         transform="translate(5.9017456e-8,614.80503)"
         id="use5733"
         x="0"
         y="0"
         width="744.09448"
         height="1052.3622"
         xlink:href="#g7999" />
      <g
         transform="translate(31.135291,0)"
         id="g5984">
        <use
           transform="translate(-286.51265,311.5301)"
           id="use5733-0"
           x="0"
           y="0"
           width="744.09448"
           height="1052.3622"
           xlink:href="#g7999" />
        <use
           transform="translate(224.24207,311.5301)"
           id="use5733-0-8"
           x="0"
           y="0"
           width="744.09448"
           height="1052.3622"
           xlink:href="#g7999" />
      </g>
    </g>
  </g>
</svg>
