<?xml version="1.0" encoding="UTF-8" standalone="no"?>
<!-- Created with Inkscape (http://www.inkscape.org/) -->

<svg
   xmlns:dc="http://purl.org/dc/elements/1.1/"
   xmlns:cc="http://creativecommons.org/ns#"
   xmlns:rdf="http://www.w3.org/1999/02/22-rdf-syntax-ns#"
   xmlns:svg="http://www.w3.org/2000/svg"
   xmlns="http://www.w3.org/2000/svg"
   xmlns:xlink="http://www.w3.org/1999/xlink"
   xmlns:sodipodi="http://sodipodi.sourceforge.net/DTD/sodipodi-0.dtd"
   xmlns:inkscape="http://www.inkscape.org/namespaces/inkscape"
   version="1.0"
   width="809"
   height="835"
   id="svg3650"
   inkscape:version="0.48.2 r9819"
   sodipodi:docname="Escudo_de_Putre.svg">
  <metadata
     id="metadata88">
    <rdf:RDF>
      <cc:Work
         rdf:about="">
        <dc:format>image/svg+xml</dc:format>
        <dc:type
           rdf:resource="http://purl.org/dc/dcmitype/StillImage" />
      </cc:Work>
    </rdf:RDF>
  </metadata>
  <sodipodi:namedview
     pagecolor="#ffffff"
     bordercolor="#666666"
     borderopacity="1"
     objecttolerance="10"
     gridtolerance="10"
     guidetolerance="10"
     inkscape:pageopacity="0"
     inkscape:pageshadow="2"
     inkscape:window-width="1280"
     inkscape:window-height="738"
     id="namedview86"
     showgrid="false"
     inkscape:zoom="0.28263473"
     inkscape:cx="558.37713"
     inkscape:cy="485.83822"
     inkscape:window-x="-8"
     inkscape:window-y="-8"
     inkscape:window-maximized="1"
     inkscape:current-layer="svg3650" />
  <defs
     id="defs3652">
    <linearGradient
       id="linearGradient3582">
      <stop
         id="stop3584"
         style="stop-color:#ffffff;stop-opacity:0.3137255"
         offset="0" />
      <stop
         id="stop3586"
         style="stop-color:#ffffff;stop-opacity:0.25098041"
         offset="0.19" />
      <stop
         id="stop3588"
         style="stop-color:#6b6b6b;stop-opacity:0.1254902"
         offset="0.60000002" />
      <stop
         id="stop3590"
         style="stop-color:#000000;stop-opacity:0.1254902"
         offset="1" />
    </linearGradient>
    <linearGradient
       x1="106.2711"
       y1="362.42938"
       x2="625.2345"
       y2="362.42938"
       id="linearGradient2485"
       xlink:href="#linearGradient3582"
       gradientUnits="userSpaceOnUse"
       gradientTransform="translate(1.5e-5,-9e-6)" />
    <linearGradient
       inkscape:collect="always"
       xlink:href="#linearGradient3582"
       id="linearGradient3101"
       gradientUnits="userSpaceOnUse"
       gradientTransform="translate(238.82417,90.222449)"
       x1="106.2711"
       y1="362.42938"
       x2="625.2345"
       y2="362.42938" />
  </defs>
  <g
     style="fill:#eac102"
     id="g13660"
     transform="translate(9.331513,-59.25583)">
    <g
       style="fill:#eac102"
       id="g13632">
      <path
         inkscape:connector-curvature="0"
         style="fill:#eac102;fill-opacity:1;fill-rule:evenodd;stroke:#000000;stroke-width:1;stroke-linecap:butt;stroke-linejoin:miter;stroke-miterlimit:4;stroke-opacity:1;stroke-dasharray:none"
         id="use5968"
         d="m 92.792662,617.86029 c 0,0 8.469098,21.74377 27.714098,56.74117 18.92808,34.0689 19.69552,35.49126 35.12222,55.71616 15.53514,17.41637 21.25156,21.24527 31.70202,23.13594 8.89928,-0.57 11.74549,-4.98844 13.05188,-9.98844 1.3072,-5.0031 0.87658,-8.29583 -2.49332,-14.82406 -10.77541,-15.72124 -19.17949,-10.37237 -30.20799,-14.36627 -11.02852,-3.99387 -2.77953,0.0828 -10.47241,-4.9733 -9.86115,-8.28287 -11.54419,-14.4272 -13.8709,-18.1181 -3.26075,-5.3856 -5.7466,-9.3024 -19.38387,-36.36923 -14.64214,-28.44813 -22.9518,-42.91277 -22.9518,-42.91277 0,0 -3.709415,-4.42463 -6.574445,-1.9645 -2.748003,2.35967 -1.635483,7.9234 -1.635483,7.9234 z" />
      <path
         inkscape:connector-curvature="0"
         style="fill:#eac102;fill-opacity:1;stroke:#000000;stroke-width:1;stroke-linecap:round;stroke-linejoin:round;stroke-miterlimit:4;stroke-opacity:1;stroke-dasharray:none;stroke-dashoffset:0"
         id="path5484"
         d="m 484.32068,888.86229 c 6.8594,2.09743 15.0337,-3.90657 5.80513,-7.26623 -108.08043,-22.87417 -221.96731,-43.7947 -280.69175,-118.88807 -7.22674,-7.85447 -18.10441,-1.9544 -12.31441,6.34627 75.40046,81.086 182.61146,104.04913 287.20103,119.80803 z" />
      <path
         inkscape:connector-curvature="0"
         style="fill:#eac102;fill-opacity:1;fill-rule:evenodd;stroke:#000000;stroke-width:1;stroke-linecap:butt;stroke-linejoin:miter;stroke-miterlimit:4;stroke-opacity:1;stroke-dasharray:none"
         id="use5972"
         d="m 100.56512,590.55211 c 0,0 23.84762,45.23323 33.10654,62.03176 9.92165,19.54634 25.26066,41.69573 32.37736,57.66903 6.16376,17.62807 4.87569,30.12814 8.65249,42.09517 3.85132,13.3971 6.38825,17.1165 11.40054,21.0523 6.94562,4.47717 14.14502,-1.3139 14.13442,-12.0809 1.36851,-9.783 -7.02487,-27.40277 -7.02487,-27.40277 0,0 -15.14989,-25.679 -25.57486,-43.38196 -25.16347,-40.1929 -59.76572,-109.87757 -59.76572,-109.87757 l -7.3059,9.89494 z" />
      <path
         inkscape:connector-curvature="0"
         style="fill:#eac102;fill-opacity:1;fill-rule:evenodd;stroke:#000000;stroke-width:1;stroke-linecap:butt;stroke-linejoin:miter;stroke-miterlimit:4;stroke-opacity:1;stroke-dasharray:none"
         id="use2920"
         d="m 100.32108,610.08326 c 0,0 8.64806,21.6238 28.16972,56.32183 19.19703,33.77383 19.97575,35.1843 35.55361,55.1547 15.6608,17.15457 21.40015,20.8824 31.84652,22.57877 8.87612,-0.73957 11.67672,-5.22004 12.93537,-10.25407 1.25944,-5.03717 0.8,-8.32783 -2.62196,-14.80437 -10.89539,-15.54643 -19.23421,-10.0286 -30.27641,-13.8211 -11.04222,-3.7925 -2.77317,0.1356 -10.49606,-4.78426 -9.9159,-8.11157 -11.65095,-14.23544 -14.00623,-17.8892 -3.30272,-5.3338 -5.81886,-9.21084 -19.67263,-36.06973 -14.86908,-28.22377 -23.29235,-42.558 -23.29235,-42.558 0,0 -3.74182,-4.3626 -6.57886,-1.84364 -2.721168,2.41607 -1.56072,7.96907 -1.56072,7.96907 z" />
      <path
         inkscape:connector-curvature="0"
         style="fill:#eac102;fill-opacity:1;fill-rule:evenodd;stroke:#000000;stroke-width:1;stroke-linecap:butt;stroke-linejoin:miter;stroke-miterlimit:4;stroke-opacity:1;stroke-dasharray:none"
         id="use5970"
         d="m 106.12242,580.04583 c 0,0 23.84762,45.23323 33.10654,62.03176 9.92165,19.54634 25.26066,41.69573 32.37736,57.66903 6.16376,17.62807 4.87569,30.12814 8.65249,42.09517 3.85132,13.3971 6.38825,17.1165 11.40054,21.0523 6.94562,4.47717 14.14502,-1.3139 14.13442,-12.0809 1.36851,-9.783 -7.02487,-27.40277 -7.02487,-27.40277 0,0 -15.14989,-25.679 -25.57486,-43.38196 -25.16347,-40.1929 -59.76572,-109.87757 -59.76572,-109.87757 l -7.3059,9.89494 z" />
      <path
         inkscape:connector-curvature="0"
         style="fill:#eac102;fill-opacity:1;fill-rule:evenodd;stroke:#000000;stroke-width:1;stroke-linecap:butt;stroke-linejoin:miter;stroke-miterlimit:4;stroke-opacity:1;stroke-dasharray:none"
         id="use2918"
         d="m 85.793525,631.69423 c 0,0 8.59245,21.66156 28.028265,56.45349 19.11355,33.86637 19.88876,35.28064 35.4198,55.33067 15.62192,17.2365 21.35423,20.99583 31.80206,22.7528 8.88349,-0.68673 11.69836,-5.14797 12.97192,-10.1715 1.27433,-5.0266 0.82386,-8.31797 -2.58194,-14.81077 -10.85819,-15.60116 -19.21749,-10.13586 -30.25563,-13.9912 -11.03813,-3.85533 -2.7752,0.11914 -10.48887,-4.84326 -9.89901,-8.16507 -11.61788,-14.29547 -13.96431,-17.96084 -3.2897,-5.3501 -5.79645,-9.23956 -19.583,-36.1637 -14.79862,-28.29423 -23.186641,-42.66936 -23.186641,-42.66936 0,0 -3.73179,-4.38197 -6.5776,-1.8813 -2.729577,2.3985 -1.584054,7.95497 -1.584054,7.95497 z" />
      <path
         inkscape:connector-curvature="0"
         style="fill:#eac102;fill-opacity:1;fill-rule:evenodd;stroke:#000000;stroke-width:1;stroke-linecap:butt;stroke-linejoin:miter;stroke-miterlimit:4;stroke-opacity:1;stroke-dasharray:none"
         id="path5202"
         d="m 119.38643,582.39833 c 0,0 23.84762,45.23323 33.10654,62.03176 9.92165,19.54634 25.26066,41.69573 32.37736,57.66903 6.16376,17.62807 4.87569,30.12814 8.65249,42.09517 3.85132,13.3971 6.38825,17.1165 11.40054,21.0523 6.94562,4.47717 14.14502,-1.3139 14.13442,-12.0809 1.36851,-9.783 -7.02487,-27.40277 -7.02487,-27.40277 0,0 -15.14989,-25.679 -25.57486,-43.38196 -25.16347,-40.1929 -59.76572,-109.87757 -59.76572,-109.87757 l -7.3059,9.89494 z" />
      <path
         inkscape:connector-curvature="0"
         style="fill:#eac102;fill-opacity:1;stroke:#000000;stroke-width:1;stroke-linecap:round;stroke-linejoin:round;stroke-miterlimit:4;stroke-opacity:1;stroke-dasharray:none;stroke-dashoffset:0"
         id="path4553"
         d="m 35.762742,422.65926 6.142537,-1.35395 c -8.64406,-70.13477 -8.054347,-128.81923 -3.18634,-177.26324 0.39082,-5.075 -5.40793,-7.76251 -6.320723,-2.21373 -5.33272,55.11817 -4.31086,121.82144 3.364526,180.83092 z" />
      <path
         inkscape:connector-curvature="0"
         style="fill:#eac102;fill-opacity:1;stroke:#000000;stroke-width:1;stroke-linecap:round;stroke-linejoin:round;stroke-miterlimit:4;stroke-opacity:1;stroke-dasharray:none;stroke-dashoffset:0"
         id="path4576"
         d="m 41.571339,272.89285 c -2.64698,42.85046 -1.37803,93.02528 5.465857,147.29024 l 6.279426,-1.38387 c -5.93162,-46.68965 -7.944673,-106.50995 -5.350826,-144.56491 0.08592,-5.4122 -6.022394,-6.94252 -6.394457,-1.34146 z" />
      <path
         inkscape:connector-curvature="0"
         style="fill:#eac102;fill-opacity:1;stroke:#000000;stroke-width:1;stroke-linecap:round;stroke-linejoin:round;stroke-miterlimit:4;stroke-opacity:1;stroke-dasharray:none;stroke-dashoffset:0"
         id="path4611"
         d="m 59.443366,417.43798 6.124143,-1.33919 C 59.626886,368.61495 57.617246,294.2191 63.059222,254.0667 c 0.28934,-4.47411 -5.581893,-6.79696 -6.36441,-2.53598 -6.2317,50.62646 -4.420043,107.39069 2.748554,165.90726 z" />
      <path
         inkscape:connector-curvature="0"
         style="fill:#eac102;fill-opacity:1;stroke:#000000;stroke-width:1;stroke-linecap:round;stroke-linejoin:round;stroke-miterlimit:4;stroke-opacity:1;stroke-dasharray:none;stroke-dashoffset:0"
         id="path4640"
         d="m 66.294449,289.15887 c -1.616553,41.19425 0.181637,83.47267 5.415586,125.58594 l 6.108357,-1.34641 c -4.8163,-39.60495 -7.085923,-81.92386 -5.08128,-122.34137 0.12777,-6.06989 -5.967606,-8.02192 -6.442663,-1.89816 z" />
      <path
         inkscape:connector-curvature="0"
         style="fill:#eac102;fill-opacity:1;stroke:#000000;stroke-width:1;stroke-linecap:round;stroke-linejoin:round;stroke-miterlimit:4;stroke-opacity:1;stroke-dasharray:none;stroke-dashoffset:0"
         id="path4671"
         d="m 83.908275,412.06667 6.126734,-1.3612 c -4.65308,-38.76312 -6.23557,-97.34982 -3.047244,-135.25449 0.223534,-5.61994 -5.71821,-7.59416 -6.489033,-2.19838 -4.165957,44.17399 -1.568583,95.59611 3.409543,138.81407 z" />
      <path
         inkscape:connector-curvature="0"
         style="fill:#eac102;fill-opacity:1;fill-rule:evenodd;stroke:#000000;stroke-width:1;stroke-linecap:butt;stroke-linejoin:round;stroke-miterlimit:4;stroke-opacity:1;stroke-dasharray:none"
         id="use2142"
         d="m 56.359009,304.73298 c 0,0 38.60676,64.89998 10.497327,77.77935 -29.12556,-4.1642 -10.497327,-77.77935 -10.497327,-77.77935 z" />
      <path
         inkscape:connector-curvature="0"
         style="fill:#eac102;fill-opacity:1;fill-rule:evenodd;stroke:#000000;stroke-width:1;stroke-linecap:butt;stroke-linejoin:round;stroke-miterlimit:4;stroke-opacity:1;stroke-dasharray:none"
         id="use2124"
         d="m 30.432213,329.28746 c 0,0 -9.293304,73.77802 23.059176,74.93384 26.071986,-14.78011 -23.059176,-74.93384 -23.059176,-74.93384 z" />
      <path
         inkscape:connector-curvature="0"
         style="fill:#eac102;fill-opacity:1;fill-rule:evenodd;stroke:#000000;stroke-width:1;stroke-linecap:butt;stroke-linejoin:round;stroke-miterlimit:4;stroke-opacity:1;stroke-dasharray:none"
         id="use2140"
         d="m 82.123489,356.10357 c 0,0 17.500166,81.7552 -14.68661,74.25593 -27.688413,-22.91912 14.68661,-74.25593 14.68661,-74.25593 z" />
      <path
         inkscape:connector-curvature="0"
         style="fill:#eac102;fill-opacity:1;fill-rule:evenodd;stroke:#000000;stroke-width:1;stroke-linecap:butt;stroke-linejoin:round;stroke-miterlimit:4;stroke-opacity:1;stroke-dasharray:none"
         id="use2122"
         d="m 28.073289,381.40806 c 0,0 4.640584,83.27294 34.06461,71.16092 20.93632,-26.67727 -34.06461,-71.16092 -34.06461,-71.16092 z" />
      <path
         inkscape:connector-curvature="0"
         style="fill:#eac102;fill-opacity:1;fill-rule:evenodd;stroke:#000000;stroke-width:1;stroke-linecap:butt;stroke-linejoin:round;stroke-miterlimit:4;stroke-opacity:1;stroke-dasharray:none"
         id="use2138"
         d="m 87.079915,409.51733 c 0,0 19.487925,82.75275 -14.21852,75.27381 -29.241946,-23.11543 14.21852,-75.27381 14.21852,-75.27381 z" />
      <path
         inkscape:connector-curvature="0"
         style="fill:#eac102;fill-opacity:1;fill-rule:evenodd;stroke:#000000;stroke-width:1;stroke-linecap:butt;stroke-linejoin:round;stroke-miterlimit:4;stroke-opacity:1;stroke-dasharray:none"
         id="use2136"
         d="m 97.860935,460.85117 c 0,0 19.039685,77.99259 -12.102386,72.37866 -27.236517,-20.71687 12.102386,-72.37866 12.102386,-72.37866 z" />
      <path
         inkscape:connector-curvature="0"
         style="fill:#eac102;fill-opacity:1;fill-rule:evenodd;stroke:#000000;stroke-width:1;stroke-linecap:butt;stroke-linejoin:round;stroke-miterlimit:4;stroke-opacity:1;stroke-dasharray:none"
         id="use2120"
         d="m 31.467776,434.9596 c 0,0 12.09747,90.06309 42.983796,72.29536 20.44481,-32.3301 -42.983796,-72.29536 -42.983796,-72.29536 z" />
      <path
         inkscape:connector-curvature="0"
         style="fill:#eac102;fill-opacity:1;fill-rule:evenodd;stroke:#000000;stroke-width:1;stroke-linecap:butt;stroke-linejoin:round;stroke-miterlimit:4;stroke-opacity:1;stroke-dasharray:none"
         id="use2114"
         d="m 45.324912,498.43829 c 0,0 20.609517,83.64077 45.824687,58.48564 14.415371,-36.472 -45.824687,-58.48564 -45.824687,-58.48564 z" />
      <path
         inkscape:connector-curvature="0"
         style="fill:#eac102;fill-opacity:1;fill-rule:evenodd;stroke:#000000;stroke-width:1;stroke-linecap:butt;stroke-linejoin:round;stroke-miterlimit:4;stroke-opacity:1;stroke-dasharray:none"
         id="use2134"
         d="m 107.36323,506.83556 c 0,0 25.37367,74.82403 -5.97947,73.60823 -28.736591,-16.7687 5.97947,-73.60823 5.97947,-73.60823 z" />
      <path
         inkscape:connector-curvature="0"
         style="fill:#eac102;fill-opacity:1;fill-rule:evenodd;stroke:#000000;stroke-width:1;stroke-linecap:butt;stroke-linejoin:round;stroke-miterlimit:4;stroke-opacity:1;stroke-dasharray:none"
         id="use2116"
         d="m 58.378869,552.90873 c 0,0 26.156276,81.50853 49.417131,52.5358 11.78353,-38.864 -49.417131,-52.5358 -49.417131,-52.5358 z" />
      <path
         inkscape:connector-curvature="0"
         style="fill:#eac102;fill-opacity:1;fill-rule:evenodd;stroke:#000000;stroke-width:1;stroke-linecap:butt;stroke-linejoin:round;stroke-miterlimit:4;stroke-opacity:1;stroke-dasharray:none"
         id="use2118"
         d="m 72.250749,600.47733 c 0,0 28.243761,75.55509 48.794111,45.55046 9.32174,-38.37053 -48.794111,-45.55046 -48.794111,-45.55046 z" />
      <path
         inkscape:connector-curvature="0"
         style="fill:#eac102;fill-opacity:1;fill-rule:evenodd;stroke:#000000;stroke-width:1;stroke-linecap:butt;stroke-linejoin:round;stroke-miterlimit:4;stroke-opacity:1;stroke-dasharray:none"
         id="use2132"
         d="m 119.79116,549.90989 c 0,0 32.01588,73.5594 1.65776,79.92297 -29.403505,-10.85407 -1.65776,-79.92297 -1.65776,-79.92297 z" />
    </g>
    <use
       xlink:href="#g13632"
       height="1000"
       width="800"
       y="0"
       x="0"
       style="fill:#eac102"
       id="use13658"
       transform="matrix(-1,0,0,1,799.46857,0)" />
  </g>
  <path
     inkscape:connector-curvature="0"
     style="fill:#e20909;fill-opacity:1;fill-rule:evenodd;stroke:none"
     id="path2855"
     d="m 408.70311,772.88142 c 0,0 257.9817,-111.83948 257.9817,-396.06901 0,-284.229526 0,-257.44485 0,-257.44485 l -257.9817,-38.543957 -257.9817,38.543957 0,257.44485 c 0,284.22953 257.9817,396.06901 257.9817,396.06901 z" />
  <path
     inkscape:connector-curvature="0"
     style="fill:#eac102;fill-opacity:1;fill-rule:evenodd;stroke:#000000;stroke-width:3;stroke-linecap:butt;stroke-linejoin:miter;stroke-miterlimit:4;stroke-opacity:1;stroke-dasharray:none"
     id="path3194"
     d="m 408.70311,772.88142 c 0,0 257.9817,-111.83948 257.9817,-396.06901 0,-284.229526 0,-257.44485 0,-257.44485 l -257.9817,-38.543957 -257.9817,38.543957 0,257.44485 c 0,284.22953 257.9817,396.06901 257.9817,396.06901 z" />
  <path
     inkscape:connector-curvature="0"
     style="fill:#e3e4e5;fill-opacity:1;stroke:#000000;stroke-width:2;stroke-linecap:round;stroke-linejoin:miter;stroke-miterlimit:4;stroke-opacity:1;stroke-dasharray:none;stroke-dashoffset:0"
     id="path3210"
     d="m 166.65071,253.45512 c 0,-101.81106 0.193,-120.30641 1.2557,-120.30641 0.6907,0 54.5625,-7.96747 119.7151,-17.70547 65.1526,-9.73802 119.6447,-17.726034 121.0936,-17.751157 1.4488,-0.02511 56.8743,8.031397 123.1677,17.903357 l 120.5334,17.94902 0,120.10854 0,120.10853 -242.8828,0 -242.8827,0 0,-120.30641 z" />
  <path
     inkscape:connector-curvature="0"
     style="fill:#002255;fill-opacity:1;stroke:#000000;stroke-width:2;stroke-linecap:round;stroke-linejoin:miter;stroke-miterlimit:4;stroke-opacity:1;stroke-dasharray:none;stroke-dashoffset:0"
     id="path3212"
     d="m 382.29431,735.38375 c -46.5618,-27.16302 -91.8316,-65.2005 -124.0264,-104.21189 -47.9271,-58.07471 -76.8491,-122.36016 -87.5187,-194.52973 -1.0821,-7.31958 -4.077,-36.20956 -4.0948,-39.50029 -0.002,-0.37454 51.2741,-0.68099 113.9469,-0.68099 l 113.9506,0 0,172.96885 c 0,95.13287 -0.1022,172.93985 -0.227,172.90442 -0.1249,-0.0355 -5.5386,-3.16311 -12.0306,-6.95038 l 0,10e-6 z" />
  <path
     inkscape:connector-curvature="0"
     style="fill:#008f4c;fill-opacity:1;stroke:#000000;stroke-width:2;stroke-linecap:round;stroke-linejoin:miter;stroke-miterlimit:4;stroke-opacity:1;stroke-dasharray:none;stroke-dashoffset:0"
     id="path3214"
     d="m 421.79111,569.96606 0,-173.50521 115.1038,0 115.1036,0 -0.7213,10.66869 c -7.441,110.04088 -60.6225,209.62698 -151.8842,284.41387 -21.9205,17.96333 -48.953,36.44974 -69.6572,47.63556 l -7.9447,4.29231 0,-173.50522 z" />
  <path
     inkscape:connector-curvature="0"
     style="fill:#eac102;fill-opacity:1;stroke:#000000;stroke-width:1;stroke-linecap:round;stroke-linejoin:miter;stroke-miterlimit:4;stroke-opacity:1;stroke-dasharray:none;stroke-dashoffset:0"
     id="path3757"
     d="m 385.46771,357.55082 c -9.3237,-1.12732 -10.8023,-1.49136 -10.8023,-2.65969 0,-0.50984 3.4229,-21.52197 7.6064,-46.69357 4.1835,-25.17165 7.6064,-46.35932 7.6064,-47.08376 0,-1.24417 -1.3651,-1.75355 -6.174,-2.30393 -0.7471,-0.0855 -2.1567,5.02765 -5.7826,20.97593 -2.637,11.59894 -4.8568,21.16017 -4.9327,21.24716 -0.2272,0.26023 -8.3071,-2.06282 -8.8735,-2.55126 -0.2878,-0.2482 2.1154,-9.59495 5.3404,-20.77054 3.2251,-11.17561 5.7501,-20.43297 5.6111,-20.57197 -0.139,-0.13902 -2.1332,-0.82206 -4.4316,-1.5179 -3.8428,-1.16346 -4.2148,-1.17404 -4.6262,-0.132 -0.246,0.62325 -7.4567,21.04675 -16.0236,45.38551 -8.567,24.33878 -15.6641,44.34783 -15.7714,44.46457 -0.205,0.22314 -10.1748,-3.57286 -15.6718,-5.96711 l -3.224,-1.40416 19.8938,-43.78431 19.8937,-43.78429 -4.7329,-2.39402 c -2.9758,-1.5052 -4.9631,-2.14698 -5.3526,-1.72863 -0.3407,0.36596 -4.8836,8.7553 -10.0953,18.64295 -5.2116,9.88761 -9.7316,18.2448 -10.0443,18.57153 -0.3127,0.32671 -2.4326,-0.4564 -4.7109,-1.74026 l -4.1424,-2.33429 11.2978,-18.8059 11.2977,-18.80589 -4.18,-2.53902 c -2.3281,-1.41417 -4.3772,-2.24915 -4.6251,-1.88472 -12.5871,18.50374 -52.9104,77.14175 -53.821,78.26622 l -1.2814,1.58232 -6.9286,-5.16692 c -3.8108,-2.84176 -7.3321,-5.65289 -7.8251,-6.24695 -0.7722,-0.93036 3.3814,-6.28495 29.9577,-38.61991 l 30.8541,-37.53979 -2.4323,-2.2472 c -1.3377,-1.23594 -2.716,-2.24719 -3.0629,-2.24719 -0.3468,0 -7.0991,7.01743 -15.005,15.59424 l -14.3745,15.59423 -3.5025,-3.53426 -3.5025,-3.53428 15.4405,-14.99862 15.4405,-14.99858 -3.4367,-3.35675 -3.4366,-3.35676 -36.8481,31.5946 c -35.481,30.42247 -36.8884,31.5438 -37.9347,30.2245 -7.4181,-9.35309 -11.2376,-14.79638 -10.7108,-15.26396 0.3491,-0.30981 17.9825,-12.94418 39.1854,-28.07637 21.2028,-15.13217 38.5506,-27.76576 38.5506,-28.07465 0,-0.42652 -3.1495,-5.5519 -4.5792,-7.45212 -0.1045,-0.13889 -8.5098,4.99508 -18.6784,11.4088 -10.1687,6.4137 -43.5588,26.10448 -43.8299,26.21835 -0.5426,0.22793 -61.2856,27.98425 -61.2856,26.84869 0,-0.38998 89.9089,-54.62659 100.3677,-60.39549 10.4588,-5.76888 19.016,-10.63403 19.016,-10.81144 0,-0.35052 -3.4746,-7.37131 -3.859,-7.79743 -0.1293,-0.14339 -19.6578,10.54871 -44.6299,21.01218 -41.7966,17.51309 -70.4424,29.38868 -70.4756,29.5663 -0.3834,2.04936 -0.2777,-19.96363 0.1066,-20.34792 0.1767,-0.17664 38.5422,-14.37904 63.2381,-23.66455 24.6959,-9.2855 45.4325,-17.09782 46.0813,-17.36071 1.0984,-0.44504 1.1031,-0.67596 0.0689,-3.3543 -0.6109,-1.582 -1.3114,-3.1082 -1.5566,-3.39156 -0.2452,-0.28338 -8.989,2.12668 -19.4306,5.35566 -10.4417,3.22899 -88.6351,23.0177 -89.0298,23.01937 -0.8669,0.004 -0.5024,-9.68843 0.1942,-10.29954 0.2699,-0.23677 75.642,-18.44134 86.1008,-21.0175 10.4588,-2.57618 19.2384,-4.87919 19.5101,-5.11781 0.4993,-0.43841 -1.0278,-8.09236 -1.7609,-8.82532 -0.3322,-0.33222 -91.7717,16.94927 -95.2941,17.4529 -8.8713,1.26842 -7.4928,2.48535 -8.1138,-1.08036 -0.4215,-2.42053 -0.5179,-7.02589 -0.5179,-10.23413 l 0.2485,-8.5665 47.0317,-4.28733 c 22.7242,-2.22139 44.4283,-4.35325 48.2315,-4.7375 l 6.915,-0.6986 0,-8.02326 0,-8.02328 5.8776,-0.85654 c 3.2328,-0.4711 34.6611,-5.08971 69.8406,-10.26358 l 63.963,-9.407036 14.5213,2.11073 c 7.9867,1.160886 39.2594,5.695086 69.4949,10.075996 30.2355,4.38091 55.7079,8.13373 56.6055,8.33959 1.5929,0.36534 1.6261,0.52663 1.383,6.73786 l -0.249,6.36357 45.6384,3.57611 c 25.1012,1.96688 46.8054,3.60042 48.2316,3.6301 l 7.3143,0.55092 0.4457,8.17844 c -0.0282,4.08816 -0.0131,7.71154 -0.2701,9.26676 l 0.0296,4.19434 -54.1617,-9.60451 c -26.5089,-4.39414 -48.3921,-7.7953 -48.6293,-7.55811 -0.2372,0.23717 -0.8211,2.32256 -1.2975,4.63425 -0.7652,3.71296 -0.7389,4.23929 0.2249,4.51384 0.6001,0.17094 9.6483,2.23297 20.1072,4.58225 10.4588,2.34931 83.6826,17.61625 83.7565,17.67837 0.1587,0.13336 0.0895,9.0152 -0.1846,9.35701 -0.1031,0.12868 -75.785,-15.66384 -86.6837,-18.77335 -10.8987,-3.10953 -19.8964,-5.54843 -19.9949,-5.41975 -0.0986,0.12864 -0.7136,1.6052 -1.3667,3.28121 -0.8852,2.27135 -0.9804,3.1753 -0.3739,3.55011 0.4475,0.27654 21.3908,7.74018 46.5406,16.58579 25.1499,8.84563 61.9226,21.62936 62.0675,21.75102 0.3855,0.32369 1.2118,19.92989 0.1966,21.19515 -0.757,0.94346 -29.5968,-10.36728 -68.7446,-28.17879 -24.5307,-11.16095 -44.7847,-20.29855 -45.0089,-20.30572 -0.4011,-0.0129 -1.2723,1.65648 -3.1231,5.98439 l -0.9385,2.19451 16.0645,8.4428 c 8.8354,4.64352 17.682,9.3481 19.659,10.45459 l 3.5945,2.01178 -2.1028,3.59981 c -1.1565,1.97989 -2.3384,3.84869 -2.6263,4.15286 -0.288,0.30422 -9.0407,-4.56292 -19.4506,-10.81582 l -18.9269,-11.36888 -2.571,3.90139 c -1.414,2.14576 -2.3565,4.09197 -2.0945,4.32491 0.2621,0.23294 17.9021,12.32282 39.2,26.86642 21.298,14.54361 39.0902,26.79898 39.5382,27.23418 0.6203,0.60248 -0.5863,2.64743 -5.0563,8.57002 -3.229,4.2783 -6.085,7.77514 -6.3466,7.77075 -0.2616,-0.004 -16.9677,-13.5739 -37.1246,-30.15449 -20.157,-16.58061 -37.0163,-30.29251 -37.4651,-30.47094 -0.9249,-0.36765 -6.0989,5.0576 -6.0989,6.39494 0,0.47981 6.768,7.14378 15.0399,14.80878 8.272,7.66502 15.04,14.19718 15.04,14.5159 0,0.31875 -1.3907,2.08756 -3.0904,3.93075 l -3.0905,3.35126 -4.3235,-4.49437 c -15.9028,-16.53138 -25.5521,-26.27483 -26.0208,-26.27483 -0.2992,0 -1.5791,1.06784 -2.8442,2.37296 l -2.3001,2.37299 31.5528,36.8096 c 17.3541,20.24533 31.5529,37.00546 31.5529,37.24476 0,0.43504 -13.0411,10.9366 -14.812,11.92758 -0.6821,0.38174 -8.6285,-10.21582 -29.1525,-38.87857 -15.5181,-21.67183 -28.4618,-39.40335 -28.7638,-39.40335 -1.1471,0 -7.4839,4.30412 -7.4677,5.07227 0.009,0.44275 5.1161,8.88489 11.3483,18.76032 9.9804,15.81457 11.1944,18.04823 10.1825,18.7344 -0.6319,0.4285 -2.5491,1.58776 -4.2605,2.57618 l -3.1117,1.79714 -9.885,-17.8492 c -5.4368,-9.81706 -10.2926,-18.40658 -10.7908,-19.08783 -0.8573,-1.1723 -1.1521,-1.12342 -5.5007,0.91141 -2.5272,1.18252 -4.5949,2.41456 -4.5949,2.73786 0,0.32326 9.1759,19.70868 20.3909,43.07863 11.2151,23.36996 20.3946,42.85023 20.3991,43.28949 0.008,0.77196 -15.7986,7.84437 -17.5317,7.84437 -0.4977,0 -7.8949,-18.7274 -17.6843,-44.7709 -9.2558,-24.62402 -16.914,-44.87323 -17.0183,-44.99827 -0.4085,-0.4899 -8.0951,2.3058 -8.3799,3.04787 -0.2252,0.58697 10.1343,35.23501 11.991,40.10477 0.1604,0.42068 -1.8165,1.36026 -4.5228,2.14966 l -4.8077,1.40242 -4.5893,-18.39862 c -2.524,-10.1192 -4.9076,-19.60252 -5.2968,-21.07406 l -0.7076,-2.6755 -3.5689,0.47339 c -1.9629,0.26038 -3.6622,0.56672 -3.7763,0.68073 -0.177,0.17709 16.4711,90.00404 17.4556,94.18367 0.2625,1.11454 -0.0354,1.57718 -1.2014,1.86545 -3.6567,0.90409 -17.8829,2.67789 -18.2814,2.2794 -0.3074,-0.30738 -9.5591,-90.38227 -9.8637,-96.03309 -0.0153,-0.28524 -1.2699,-0.5186 -2.788,-0.5186 l -2.7601,0 0.3897,8.12447 c 0.8005,16.68409 1.4636,35.79094 1.2509,36.04557 -0.121,0.14486 -2.3315,0.41452 -4.9122,0.59922 l -4.6923,0.33582 0.2437,-22.55254 0.2437,-22.55254 -2.4779,0 c -2.0141,0 -2.5376,0.2912 -2.7969,1.55575 -0.2663,1.29819 -7.3737,93.83833 -7.3285,95.41909 0.0173,0.60414 0.4382,0.62879 -9.2362,-0.54088 l 1e-4,2e-5 z" />
  <g
     id="g3368">
    <path
       inkscape:connector-curvature="0"
       style="fill:#eac102;fill-opacity:1;fill-rule:evenodd;stroke:#000000;stroke-width:1;stroke-linecap:butt;stroke-linejoin:miter;stroke-miterlimit:4;stroke-opacity:1;stroke-dasharray:none"
       id="path7069"
       d="m 540.63214,423.13527 c -3.35852,0.0818 -6.39024,5.46755 -6.05605,14.65597 0.45715,12.57099 0.80219,19.85938 1.09283,29.58603 -11.04246,-3.13036 -11.77579,-7.16913 -12.20309,-26.22357 -0.31848,-14.50258 -8.87842,-10.67093 -8.60593,-0.37462 0.29337,11.08533 -0.21386,31.36245 10.9737,33.72515 3.74479,0.79084 5.8213,1.4924 8.83349,2.01929 0.21661,12.15607 1.04042,26.29651 1.10201,38.14782 -18.80191,3.12018 -18.21051,-17.30509 -18.1231,-29.33962 0.11527,-15.8754 -8.60456,-12.19054 -8.73341,3.42642 -1.74411,21.00164 4.35853,37.0421 26.06424,39.70082 0.26342,7.86164 0.58357,11.89753 0.99263,20.94229 0.0984,9.38543 13.91272,8.87654 12.80408,-0.0183 0,0 -0.2068,-8.43672 -0.40073,-20.53114 28.00502,0.85605 31.97316,-17.50261 32.11058,-42.65212 -0.21597,-16.35432 -9.90292,-17.83362 -10.40911,-2.44874 -1.09313,15.98916 1.83577,32.68914 -18.94204,31.59558 -0.14986,-12.47842 -0.23938,-24.42936 -0.10018,-37.88193 19.89894,-1.65837 20.80121,-13.14196 20.13506,-30.8378 -0.82698,-14.83044 -8.07624,-9.70068 -8.53306,-2.2386 -0.94088,13.46614 1.9896,22.93764 -14.3705,23.54638 0.11431,-5.65282 0.381,-10.94871 0.50998,-15.58794 0.83446,-30.00783 -2.40437,-29.11315 -8.1414,-29.21141 z" />
    <g
       id="g3354">
      <path
         inkscape:connector-curvature="0"
         style="fill:#eac102;fill-opacity:1;stroke:#000000;stroke-width:1;stroke-miterlimit:4;stroke-opacity:1;stroke-dasharray:none"
         id="path2604"
         d="m 467.19698,478.61446 c -1.04419,-1.38023 -2.42052,-2.12203 -1.96073,-0.36359 1.24421,4.75859 -1.20125,8.9574 3.41963,11.53258 0.36171,-1.04045 0.96504,-0.97994 0.88769,-2.19653 -2.19131,-0.61343 -1.76596,-8.42275 -2.38864,-8.99657" />
      <path
         inkscape:connector-curvature="0"
         style="fill:#000000;stroke:#000000;stroke-width:0.5;stroke-miterlimit:4;stroke-opacity:1;stroke-dasharray:none"
         id="path2606"
         d="m 547.23468,542.37507 c -0.547,1.06352 0.66089,3.4777 2.34982,6.28212 -1.07212,-0.18775 -2.14784,-0.52998 -3.22361,-1.93951 0.76,2.38477 1.79167,3.83845 2.91148,5.01613 -0.75999,0.3018 -1.63749,-0.0147 -2.74259,-1.78118 0,0.43051 0,0.86113 0,1.29167 0.31574,1.02312 0.96196,2.5026 1.29238,3.53674 0.91788,0.47474 1.1455,2.55776 1.777,4.08507 1.32175,-2.30389 2.42688,-4.89109 0.96191,-10.85668 1.26302,-1.07829 -0.15785,-3.40789 -1.31803,-5.17435 0.34146,0.0993 1.28869,0.86116 1.6338,0.96423 -0.31577,-2.53205 -0.84446,-5.07502 -2.91149,-7.62174 -1.61912,-0.97529 -3.08407,-0.98994 -4.2002,1.12245 -0.29007,1.266 -0.35981,1.82536 2.09275,3.10613 2.50765,1.78118 2.33875,1.98356 1.34744,1.93942" />
      <path
         inkscape:connector-curvature="0"
         style="fill:#000000;fill-opacity:1;stroke:none"
         id="path2608"
         d="m 468.59848,574.28984 c 6.02127,2.543 10.06728,19.42044 12.50514,24.29307 1.36218,2.77491 4.37647,9.17476 1.5347,13.22667 -1.2483,1.78489 -3.39981,2.4142 -3.5283,3.86788 -4.1855,0.68826 -6.46918,2.76015 -6.13873,5.93627 1.69253,2.84837 7.77253,2.25952 10.72812,0.54826 -0.0441,-0.74708 0.40382,-1.49784 1.34742,-2.24491 0.2166,-0.71764 0.44427,-1.44997 0.67556,-2.16764 8.77858,-4.55975 2.66551,-10.30829 3.73023,-22.81732 0.57278,2.30014 1.1455,4.61503 1.71828,6.91512 0.58741,5.26269 1.23362,10.56589 0.81873,15.33911 -1.18955,1.96894 -2.52596,3.82376 -4.71785,4.80272 -1.8945,0.73234 -1.90921,1.45002 -3.8881,4.39779 -0.21297,0.67717 -1.23365,2.45836 -0.47366,3.13554 1.06106,1.55308 1.39149,2.4842 8.41876,0.55942 0.1175,-0.94948 0.246,-1.89899 0.37445,-2.84478 0.85918,0.35702 1.49065,0 1.86516,-1.12246 0.15789,-1.32128 1.04638,-2.64609 2.69488,-3.98202 -0.0991,-1.99832 2.45253,-2.01308 3.22728,-4.80263 0.75999,-2.78967 -0.73067,-7.87569 -1.09048,-11.81722 -1.16018,-6.25263 -2.35346,-12.14839 -2.16619,-18.31271 2.86749,-2.6755 3.09877,-7.26105 2.95559,-12.85124 5.52192,2.31111 13.94067,-2.25972 16.58048,-4.11452 2.63612,-1.85483 1.36213,12.11892 11.01448,17.85638 2.10747,2.02776 3.01067,3.30486 3.8404,6.46977 3.30067,3.31963 -2.06335,15.05209 -5.47785,18.78752 -1.66319,1.88427 -4.22957,5.34733 -5.89276,7.24637 -2.5811,1.59718 -6.28196,3.52193 -6.069,6.53976 3.1575,1.59712 8.93642,1.20699 11.69006,0 0.21662,-1.26234 2.15147,-3.50733 0.57274,-4.78434 1.85047,0.16931 4.89041,-1.42421 5.34938,-2.25961 1.03539,-2.93316 8.3343,-18.48573 10.32794,-21.20546 1.28871,-0.0552 1.83573,-3.62128 1.72193,-4.90197 -0.21662,-2.35537 -0.4883,0.26129 -3.24196,-7.68799 1.92024,3.79427 7.29895,7.08438 6.98323,11.94595 -0.61685,3.59189 -4.00196,12.2183 -4.61877,15.82859 -2.1368,1.81064 -1.34742,3.706 -6.17912,5.59027 -2.269,1.88423 -5.92584,5.31791 -5.99555,7.60327 2.45253,1.29546 8.78957,2.25965 12.04618,0.54836 0.71592,-1.62665 0.91788,-4.09608 1.6338,-5.72271 1.05004,-0.24288 0.5911,-1.62297 1.65219,-1.88426 1.14551,-0.71767 4.11577,-0.54466 5.27595,-1.26235 1.76596,-8.16634 3.84406,-21.53656 5.62108,-29.71397 0.60208,-1.71137 -0.71596,-6.38523 -2.29473,-7.10288 -3.53932,-2.14182 -5.9221,-7.00336 -8.38936,-10.00641 -4.08636,-3.07672 -1.94953,-11.35718 1.80642,-15.6998 1.65214,2.35905 0.63146,3.12075 1.33641,3.49616 1.92018,1.04887 4.62978,-4.62968 3.71189,-7.41927 -0.62785,-3.56613 0.11749,-6.26738 -0.71595,-10.91186 -1.36213,-7.57383 -5.62108,-9.18581 -9.75151,-5.31786 -5.30536,-4.84684 -12.34725,-8.21057 -19.63518,-7.10287 -12.18936,-3.70963 -20.92387,0.34597 -26.20352,2.2008 -7.15576,1.49416 -10.66938,4.67019 -14.99806,8.37978 -2.03768,1.74083 -4.54898,0.39012 -6.0837,-1.62295 -0.0845,-11.73246 0.88851,-23.89187 6.06899,-36.29792 -2.06122,-4.22621 -0.73716,-4.3414 -1.87979,-10.20888 -2.45258,-3.86783 -6.71151,-3.83846 -10.87135,-4.02617 -3.13911,-0.33119 -6.29658,1.59723 -9.4504,4.57083 -1.30709,2.04253 -6.49858,2.64612 -7.50089,3.7833 -1.00598,1.13352 -0.15789,4.02618 0.37081,5.98032 0.70494,1.59358 2.49663,2.39947 4.31768,2.61662 1.07577,0.35705 2.38286,0.0994 3.45854,0.46003 0.24235,1.03421 1.90555,2.0131 3.32642,2.71599 -3.18318,8.53809 -5.33469,22.79892 -4.57469,36.29792 0.15784,6.81579 0.40019,16.00157 7.78723,21.93775 2.80875,2.25963 1.04638,5.95092 2.63985,8.40931" />
      <path
         inkscape:connector-curvature="0"
         style="fill:#eac102;fill-opacity:1;stroke:none"
         id="path2610"
         d="m 477.04663,492.37569 c -3.68616,-3.49256 -8.24618,-4.72907 -14.70069,-1.03412 -2.95555,3.30483 -5.55129,3.30483 -8.79321,4.55609 -0.0992,1.28068 -1.20427,1.96893 -1.86515,1.86952 0.23131,0.44528 0.3745,1.72602 0.61682,2.17131 1.05002,1.11878 3.98725,0.83174 6.72617,0.81707 -2.1919,0.69184 -4.5453,1.03779 -6.2085,0.61823 0.57277,1.10773 2.43789,3.32328 6.92816,2.27439 1.17485,2.45836 3.543,4.5266 8.27552,2.58719 1.40255,0.27232 3.44018,-0.89063 4.86109,-1.23658 -2.26535,2.48784 -5.04836,4.23963 -7.60001,4.51191 -0.81877,2.5872 -6.37008,20.91833 -5.55135,32.33068 -0.40387,4.24328 1.39151,12.69677 3.75597,18.47471 1.1492,2.80431 3.18318,3.20541 4.25895,4.72906 2.69854,3.82372 1.87977,7.41927 3.05466,9.17111 7.71754,1.10773 8.39307,24.02436 12.69242,22.94606 3.18686,-0.79121 4.6628,-12.40603 0.63149,-14.80916 -13.40832,-7.97869 -8.5179,-27.45807 -9.21915,-25.77621 2.9115,10.43713 0.9032,20.50246 7.60005,19.98353 5.3787,-2.27064 7.97444,13.74198 7.87164,16.31805 -0.11382,3.77962 0.86279,4.47152 1.57876,7.37517 0.54704,2.25598 0.73061,5.87734 1.37682,13.13839 0.15787,1.81067 0.0588,2.94777 -0.40021,4.50084 -1.40617,2.06833 -2.88212,4.39785 -5.63576,5.4615 -2.88579,1.10767 -4.21853,4.69963 -3.45853,5.74846 0.64618,0.8943 3.24192,2.10138 6.46916,0.21712 0.1579,-0.54469 0.71598,-1.23652 0.70126,-2.90365 2.21027,-0.17296 2.26903,-3.14659 4.24795,-5.0603 -0.45892,-1.84009 3.51362,-2.38478 3.46958,-5.91044 -0.0294,-3.59187 -1.73662,-11.47124 -3.14284,-18.11028 -1.53464,-3.5514 -1.51998,-7.29052 -1.74762,-9.22999 0.96196,-2.67555 -2.19555,-2.71599 -0.1138,-4.74379 4.24425,-4.14026 3.72658,-11.07006 -2.13685,-17.82696 1.18956,-0.69192 1.74766,-2.67549 2.63615,-4.02618 l -0.0146,4.91682 4.74721,5.80736 c 4.61875,1.12244 14.64561,-1.92475 17.92792,-6.38148 2.38281,-1.88433 4.43153,-4.09615 4.21858,-8.58225 -0.0294,-0.74715 2.65085,0 2.19189,0.58884 -0.97293,1.29542 0.70491,2.50251 0.27537,4.54134 -0.31576,1.51258 -3.96155,2.59086 -3.78899,3.99676 l 0.9913,8.05226 c 0.61682,5.07505 4.17451,10.20524 9.38068,15.30971 l 3.69721,8.26572 c 0.31572,4.87265 -6.49488,14.30502 -9.99385,18.70282 -1.2483,1.04889 -2.38282,3.49257 -3.63107,4.55611 -1.52004,0.53369 -3.82938,2.14188 -5.79365,4.89096 1.80638,0.61836 5.309,1.23294 9.32196,-0.0441 1.00594,-0.97897 0.89214,-3.61031 0,-4.44202 2.35341,-0.48954 4.40579,-0.97898 5.83766,-2.57253 3.31541,-7.33466 6.89878,-14.6656 11.10262,-22.01133 1.23362,-1.66715 0.90319,-4.44202 -1.07572,-6.69794 -4.24797,-9.28885 -5.25027,-16.43212 -3.02904,-21.40785 3.60178,-1.23652 6.78496,-7.86091 7.63305,-13.95901 1.01705,-7.33099 -0.41853,-15.29503 -4.30298,-18.52983 -3.55768,-3.90846 -11.04389,-6.238 -17.51306,-5.3032 -9.68177,-4.05555 -29.08562,1.93941 -32.1697,4.18439 -5.79363,0.83174 -7.21081,7.18746 -11.70108,6.7826 -2.86741,-0.24289 -5.0336,-2.57246 -5.37873,-5.92147 0.0734,-27.38441 6.65643,-30.40588 5.92213,-34.97672 -0.5434,-1.44998 -1.71823,-2.48776 -3.09505,-3.10614 1.10142,-1.06349 2.03401,-2.14178 1.74763,-3.22016 -0.22766,-0.89055 -0.47361,-1.79597 -0.71593,-2.6865" />
      <path
         inkscape:connector-curvature="0"
         style="fill:#000000;fill-opacity:1;stroke:none"
         id="path2612"
         d="m 460.05127,496.62999 c 3.01064,-1.07829 3.08406,-2.47309 6.63807,-1.44998 2.3828,1.27699 2.09645,1.62294 2.8711,2.90363 -1.30706,-0.69184 -1.70723,-1.13713 -2.48192,-0.71757 -1.3621,0.8022 -3.82937,0.58884 -4.31768,-0.61828 -1.00234,-0.34596 -1.70726,0.22814 -2.70957,-0.10307" />
      <path
         inkscape:connector-curvature="0"
         style="fill:#eac102;fill-opacity:1;stroke:none"
         id="path2614"
         d="m 482.17939,578.58832 c -0.80406,2.96253 -0.77468,4.35368 0.88852,7.33099 -1.93488,2.90364 -2.0634,6.42561 1.10511,10.20517 -2.61047,4.8174 0.96196,7.41933 0.71597,13.65729 -1.47598,3.89733 -4.34339,3.92684 -4.40213,6.4551 -3.58342,0.60354 -6.19385,1.49784 -6.2673,4.31322 -0.18723,0.43055 0.73065,-0.93479 1.86517,-0.60357 -1.16021,0.73241 -1.52007,1.48314 -1.1492,1.6966 0.97665,0.55933 2.76833,0.79123 5.12173,0.73235 0.90323,-0.31647 2.21023,-0.35697 2.63982,-1.96895 -0.11748,-0.61825 -0.51769,-1.84008 -0.6315,-2.45836 3.5834,-0.74706 4.93449,-2.60193 5.0777,-6.44038 0.40018,1.49419 1.04638,2.37376 1.10146,3.15028 0.90685,-1.35431 1.9532,-3.12085 1.46492,-4.99035 -1.72195,-6.5986 -1.72195,-10.83826 -1.03173,-15.59675 0.0698,-11.58897 -3.09873,-13.34076 -6.49854,-15.49733" />
      <path
         inkscape:connector-curvature="0"
         style="fill:#eac102;fill-opacity:1;stroke:#000000;stroke-width:0.5;stroke-miterlimit:4;stroke-opacity:1;stroke-dasharray:none"
         id="path2616"
         d="m 547.16129,542.90867 c -0.5434,1.06359 0.66087,3.47779 2.3534,6.28213 -1.07572,-0.18775 -2.15148,-0.53361 -3.22724,-1.94315 0.76002,2.38841 1.79172,3.83843 2.91152,5.01977 -0.76,0.30181 -1.63384,-0.0147 -2.73893,-1.78488 0,0.43062 0,0.86482 0,1.29544 0.31574,1.01942 0.96191,2.49883 1.2887,3.53663 0.91788,0.47478 1.14917,2.55774 1.78068,4.0814 1.30334,-2.30011 2.42319,-4.8873 0.96193,-10.85297 1.25929,-1.07829 -0.15789,-3.40782 -1.32177,-5.17437 0.34511,0.0994 1.29238,0.86114 1.64852,0.96054 -0.31574,-2.52835 -0.84444,-5.07503 -2.91148,-7.61803 -1.61917,-0.97895 -3.08042,-0.99363 -4.20023,1.12246 -0.28639,1.2623 -0.3598,1.82544 2.09277,3.10245 2.51129,1.78486 2.33876,1.98365 1.34747,1.94315" />
      <path
         inkscape:connector-curvature="0"
         style="fill:#000000;fill-opacity:1;stroke:none"
         id="path2618"
         d="m 534.76998,563.0026 c -0.1836,6.09812 -1.47597,10.0065 -1.3768,15.23976 0.10281,4.93153 2.49658,10.30828 5.09232,15.88753 -0.80403,-0.92006 -1.93485,-2.64609 -2.73892,-2.25972 -0.44426,-3.72064 -2.28001,-5.70796 -3.52831,-8.52336 -1.42087,-3.19077 -2.18087,-7.10282 -0.99128,-9.14529 1.8247,-3.29011 3.01428,-7.01456 3.55768,-11.18419" />
      <path
         inkscape:connector-curvature="0"
         style="fill:#eac102;fill-opacity:1;stroke:none"
         id="path2620"
         d="m 548.51238,594.94685 c 0.21297,1.17763 0.41488,2.37371 0.64251,3.56616 -1.14551,6.77155 -2.70954,12.60836 -5.16212,16.3732 -1.45023,1.0783 -2.46722,2.15665 -3.06937,3.23494 -0.8041,0.806 -1.60446,1.61189 -2.42319,2.42894 -3.01062,1.33593 -4.90511,3.45201 -6.62705,5.66389 3.01432,1.56773 6.03962,0.86479 9.05024,-0.15831 0.69025,-1.88059 1.3915,-3.77953 2.09275,-5.6638 0.53235,-0.43061 1.07577,-0.86124 1.60812,-1.29174 1.44659,-0.64778 5.33469,-2.10143 5.65046,-3.72439 0.55803,-8.69643 2.19553,-15.61149 4.35808,-24.30783 0.93252,-3.26434 0.93252,-6.12755 -1.13085,-8.09647 -3.05468,-2.30015 -5.83769,-4.69958 -7.59999,-7.44507 -2.526,-2.37369 -3.98728,-5.40627 -4.36174,-9.07169 -1.77703,2.42891 -2.68022,4.85786 -2.73895,7.28684 -1.23361,3.83845 -0.21661,7.67684 1.1345,11.51536 2.85271,3.23486 5.70549,6.48446 8.56194,9.7194" />
      <path
         inkscape:connector-curvature="0"
         style="fill:#000000;fill-opacity:1;stroke:none"
         id="path2622"
         d="m 542.54254,572.24726 c 0.54704,7.82052 9.53857,12.5238 9.75518,20.37006 0.17254,-2.60193 0.6572,-5.07503 -1.32173,-9.61646 -3.08042,-2.20073 -5.79362,-6.22325 -8.41879,-10.7536" />
      <path
         inkscape:connector-curvature="0"
         style="fill:#000000;fill-opacity:1;stroke:none"
         id="path2624"
         d="m 551.40731,582.54183 c 1.63381,2.23013 2.62511,4.45667 2.98493,6.67214 0.2423,-1.50889 0.84445,-3.00669 -0.26065,-4.54132 -0.67189,-1.1667 -1.58979,-1.88425 -2.7096,-2.13082" />
      <path
         inkscape:connector-curvature="0"
         style="fill:#eac102;fill-opacity:1;stroke:#000000;stroke-width:1;stroke-miterlimit:4;stroke-opacity:1;stroke-dasharray:none"
         id="path2626"
         d="m 471.87826,490.7909 c 0.65137,-0.93333 2.23229,-4.21907 1.58375,-6.8077 -0.71458,-2.83242 -1.95131,-2.86171 -2.77206,-6.08775 -0.53959,-1.49868 -0.89056,-1.39912 -1.03741,0.28808 -0.37229,3.76129 -1.43703,8.58833 1.30959,12.13843 -0.009,-2.78965 -0.0215,-3.41082 -0.23133,-6.75972 0.95149,3.37495 1.31237,4.10592 1.15689,7.22914" />
    </g>
    <path
       inkscape:connector-curvature="0"
       style="fill:#eac102;fill-opacity:1;fill-rule:evenodd;stroke:#000000;stroke-width:0.5;stroke-linecap:butt;stroke-linejoin:miter;stroke-miterlimit:4;stroke-opacity:1;stroke-dasharray:none"
       id="path4023"
       d="m 444.12761,437.67718 21.4252,0 4.7612,-10.71262 -6.5466,4.76116 0,-9.52232 -4.166,8.33203 -4.166,-10.71261 -1.7855,12.49805 -4.166,-8.92718 0,7.73689 -4.6528,-5.3202 0.4868,6.51049 -5.3862,-2.48889 4.1959,7.8452 z" />
    <path
       inkscape:connector-curvature="0"
       style="fill:#eac102;fill-opacity:1;fill-rule:evenodd;stroke:#000000;stroke-width:0.5;stroke-linecap:butt;stroke-linejoin:miter;stroke-miterlimit:4;stroke-opacity:1;stroke-dasharray:none"
       id="path4025"
       d="m 611.39931,446.81387 21.4252,0 4.7612,-10.71262 -6.5466,4.76117 0,-9.52233 -4.166,8.33204 -4.166,-10.71262 -1.7855,12.49805 -4.166,-8.92718 0,7.73689 -4.6528,-5.32019 0.4868,6.51048 -5.3862,-2.48888 4.1959,7.84519 z" />
    <path
       inkscape:connector-curvature="0"
       style="fill:#eac102;fill-opacity:1;fill-rule:evenodd;stroke:#000000;stroke-width:0.5;stroke-linecap:butt;stroke-linejoin:miter;stroke-miterlimit:4;stroke-opacity:1;stroke-dasharray:none"
       id="path4027"
       d="m 581.17791,538.18077 21.4253,0 4.7611,-10.71262 -6.5466,4.76117 0,-9.52233 -4.166,8.33204 -4.166,-10.71262 -1.7854,12.49805 -4.166,-8.92718 0,7.73689 -4.6529,-5.32019 0.4868,6.51048 -5.3862,-2.48888 4.1959,7.84519 z" />
    <path
       inkscape:connector-curvature="0"
       style="fill:#eac102;fill-opacity:1;fill-rule:evenodd;stroke:#000000;stroke-width:0.5;stroke-linecap:butt;stroke-linejoin:miter;stroke-miterlimit:4;stroke-opacity:1;stroke-dasharray:none"
       id="path4029"
       d="m 456.07561,666.79724 21.4252,0 4.7612,-10.71261 -6.5466,4.76116 0,-9.52233 -4.166,8.33204 -4.166,-10.71262 -1.7855,12.49806 -4.166,-8.92719 0,7.73689 -4.6528,-5.32019 0.4868,6.51049 -5.3862,-2.48889 4.1959,7.84519 z" />
  </g>
  <path
     inkscape:connector-curvature="0"
     style="fill:#ff6600;fill-opacity:1;stroke:#000000;stroke-width:1;stroke-linecap:round;stroke-linejoin:miter;stroke-miterlimit:4;stroke-opacity:1;stroke-dasharray:none;stroke-dashoffset:0"
     id="rect4031"
     d="m 360.40625,160.125 c -14.03309,3.14238 -32.4081,25.59327 -66,42.875 -19.49541,10.02965 -43.98925,13.27422 -63.15625,22.40625 -10.78191,5.13695 -24.01485,13.60817 -34.84375,18.875 l -27.59375,15.34375 -1.90625,0 0,113.875 484.25,0 0,-85.75 1.1875,0.125 c 0,-20.2267 -0.16768,-36.75 -0.375,-36.75 -17.24105,7.62806 -13.28294,3.81473 -29.9375,-8.15625 -17.4994,-12.5434 -25.11238,-18.55463 -34.125,-26.96875 -9.8822,-9.22589 -24.23341,-21.02727 -28,-23 -1.3667,-0.71578 -9.20628,-3.15476 -17.40625,-5.4375 -8.2,-2.28277 -17.63569,-5.0739 -21,-6.21875 l -6.125,-2.09375 -3.9375,2.0625 c -2.1673,1.12969 -10.00764,6.54505 -17.40625,12.03125 -15.03095,11.14574 -23.40816,16.76094 -33.90625,21.4375 -5.77999,-5.02871 -11.01973,-10.59011 -16.1875,-15.34375 C 420.80611,178.90644 416.07548,176.21615 400.10383,171.83173 388.26018,168.31971 360.625,160.125 360.625,160.125 l -0.21875,0 z" />
  <path
     inkscape:connector-curvature="0"
     style="fill:none;stroke:none"
     id="path10898"
     d="m 168.78871,316.27775 0,-56.09436 8.697,-4.89786 c 27.4451,-15.45623 55.9842,-30.48407 62.6588,-32.99419 4.2143,-1.58492 15.2661,-5.18064 24.5595,-7.99051 26.6619,-8.0613 37.9081,-14.10278 69.0788,-37.10922 20.5608,-15.17547 24.5762,-17.2823 29.7303,-15.59916 1.9617,0.64065 14.2143,4.22808 27.228,7.97209 15.2492,4.38715 24.9668,7.71317 27.3334,9.3553 7.2068,5.00066 20.1759,15.78085 30.7186,25.53391 6.0116,5.56133 11.2862,9.68767 12.0225,9.40512 4.1247,-1.5828 16.5667,-9.70813 30.5068,-19.92266 8.7467,-6.40909 17.4375,-12.3082 19.3129,-13.10912 3.243,-1.38497 4.1427,-1.23617 18.3879,3.04091 8.2381,2.47341 18.2221,5.43976 22.187,6.59187 6.0626,1.76168 8.8283,3.38472 17.3939,10.20747 5.6019,4.46197 13.8265,11.54196 18.2772,15.73329 8.2894,7.80641 16.1846,14.03719 33.6535,26.55863 5.4666,3.91844 11.8004,8.52489 14.0749,10.23654 l 4.1357,3.11205 5.6754,-2.59826 c 3.1215,-1.42907 5.845,-2.59829 6.0523,-2.59829 0.2073,0 0.3768,27.28366 0.3768,60.63037 l 0,60.63039 -241.0306,0 -241.0306,0 0,-56.09431 z m 165.0083,-129.20147 c 1.921,-1.25237 5.9465,-4.51741 8.9454,-7.25564 6.1212,-5.58918 14.5247,-11.20643 16.765,-11.20643 0.8143,0 2.4931,0.95116 3.7306,2.11368 l 2.2499,2.11368 0.6415,-2.55588 c 0.3528,-1.40573 1.3819,-2.73681 2.2869,-2.95798 2.2078,-0.53955 -4.8532,-3.68321 -8.2729,-3.68321 -3.5961,0 -9.9292,3.21837 -17.4353,8.86029 -7.5255,5.65652 -19.1907,15.8669 -19.7378,17.27628 -0.6458,1.66359 7.0904,-0.26913 10.8267,-2.70479 l 0,0 z" />
  <path
     inkscape:connector-curvature="0"
     id="path65"
     style="fill:#ff6600;fill-opacity:1;stroke:#000000;stroke-width:1;stroke-linecap:round;stroke-linejoin:miter;stroke-miterlimit:4;stroke-opacity:1;stroke-dasharray:none;stroke-dashoffset:0"
     d="m 361.91061,259.30761 16.7483,-9.25902 c 31.411,-17.36504 37.6988,-20.26643 58.0027,-26.76437 26.2448,-8.39919 33.2055,-12.03331 57.3731,-29.95405 7.3986,-5.4862 15.2253,-10.89918 17.3926,-12.02887 l 3.9407,-2.05397 6.1165,2.08154 c 3.3643,1.14485 12.8259,3.94923 21.0259,6.232 8.2,2.28274 16.0273,4.73608 17.394,5.45186 3.7666,1.97273 18.1312,13.75867 28.0134,22.98456 9.0126,8.41411 16.6085,14.41857 34.1079,26.96197 13.22117,9.13316 14.02888,15.44141 29.9383,8.15204 0.2073,0 0.3769,16.5491 0.3769,36.7758" />
  <path
     inkscape:connector-curvature="0"
     style="fill:#e3e4e5;fill-rule:evenodd;stroke:#000000;stroke-width:1px;stroke-linecap:butt;stroke-linejoin:miter;stroke-opacity:1"
     id="path10908"
     d="m 360.40625,160.125 c -14.03309,3.14238 -32.4081,25.59327 -66,42.875 -5.6852,2.92482 -11.81447,5.25868 -18.09375,7.34375 -1.385,1.15972 -2.85907,2.38384 -4.1875,3.5 l 5.28125,0.0937 c -10e-6,0 -2.09255,1.23822 0.71875,1.0625 2.8113,-0.17571 3.6875,-1.76533 3.6875,-1.0625 10e-6,0.70281 -0.7028,1.40625 0,1.40625 0.70291,0 2.8125,-0.6875 2.8125,-0.6875 0,-1e-5 0.33665,2.64033 2.09375,1.9375 1.75701,-0.70282 3.3597,-2.82783 4.0625,-2.125 0.70281,0.70283 0.5318,2.81603 1.9375,1.9375 1.40561,-0.87852 3.3125,-2.09375 3.3125,-2.09375 0,0 0.52775,2.26945 1.40625,2.09375 0.87859,-0.17571 2.3125,-0.71875 2.3125,-0.71875 l 0.6875,1.40625 1.40625,-0.5 1.40625,1.21875 c 10e-6,0 1.59025,-3.33135 2.46875,-1.75 0.87851,1.58135 0.5083,2.96875 1.5625,2.96875 1.05431,-1e-5 2.1097,-2.61673 2.8125,-1.5625 0.7028,1.05424 1.59375,2.09375 1.59375,2.09375 l 1.9375,-2.09375 1.75,2.4375 c 0,0 0.51595,-2.28125 1.21875,-2.28125 0.70291,-1e-5 1.9375,0.1875 1.9375,0.1875 l 1.0625,1.75 0.6875,-3.5 1.59375,2.28125 c 0,0 4.91455,-2.81189 5.96875,-1.40625 1.0542,1.40564 2.9965,4.39033 3.875,3.6875 0.87849,-0.70282 1.7465,-2.98408 2.625,-2.28125 0.8785,0.70281 2.125,1.40625 2.125,1.40625 10e-6,0 0.8562,-2.45283 2.4375,-1.75 1.5814,0.70281 3,1.21875 3,1.21875 l 2.28125,-2.8125 3.6875,3.34375 5.09375,-0.34375 0.875,-3.71875 c 0,0 1.2347,2.82369 1.9375,1.59375 0.7028,-1.22995 2.28125,-3.5 2.28125,-3.5 l 2.8125,2.96875 2.28125,-3.15625 4.75,4.5625 c 10e-6,0 -0.17155,-3.34728 0.53125,-2.46875 0.70282,0.87852 1.24235,2.83549 1.59375,1.78125 0.35139,-1.05423 1.40625,-3 1.40625,-3 -10e-6,0 1.39095,3.15565 2.09375,1.75 0.70289,-1.40564 -0.7064,-4.5501 0.875,-2.96875 1.58129,1.58134 2.4492,3.69103 2.625,2.8125 0.1757,-0.87852 -0.1592,-5.99113 2.125,-3.53125 2.2842,2.45986 2.625,2.65625 2.625,2.65625 10e-6,-1e-5 1.59845,-3.88205 3.53125,-2.125 1.93281,1.75706 3.15625,3 3.15625,3 l 0.53125,-2.2812 1.9375,2.4375 2.09375,-1.75 0.875,0 c -10e-6,0 -0.003,3.16744 0.875,1.9375 0.87851,-1.22993 1.78125,-3 1.78125,-3 0,0 0.35205,3.33963 1.40625,2.8125 1.05419,-0.52711 3.15625,-2.96875 3.15625,-2.96875 l 1.40625,0.34375 c 0,-1e-5 3.1604,4.73408 3.6875,4.03125 0.52711,-0.70283 0.684,-5.78891 1.5625,-5.4375 0.87861,0.35142 2.125,0.875 2.125,0.875 l 1.21875,-2.625 2.65625,0.53125 0,-2.8125 c 10e-6,1e-5 3.6721,5.79244 4.375,4.5625 0.70281,-1.22994 3,-6.5 3,-6.5 10e-6,1e-5 4.3986,4.74173 4.75,3.6875 0.3514,-1.05424 1.21875,-3.6875 1.21875,-3.6875 10e-6,1e-5 3.15975,1.0383 2.28125,-0.71875 -0.8785,-1.75706 -2.6404,-4.01945 -1.9375,-3.84375 0.70281,0.17571 1.9375,0.6875 1.9375,0.6875 l 0.1875,-1.9375 8.34375,4.84375 3.8125,2.625 1.9375,-1.59375 8.1875,3.15625 c -0.42165,-1.23572 -0.84721,-2.43398 -1.28125,-3.625 -2.24886,-2.20005 -4.4687,-4.36276 -6.65625,-6.375 C 420.80611,178.90644 416.0654,176.22817 400.09375,171.84375 388.25011,168.33173 360.625,160.125 360.625,160.125 l -0.21875,0 z" />
  <path
     inkscape:connector-curvature="0"
     style="fill:#e3e4e5;fill-opacity:1;fill-rule:evenodd;stroke:#000000;stroke-width:1px;stroke-linecap:butt;stroke-linejoin:miter;stroke-opacity:1"
     id="path10928"
     d="m 515.375,179.25 -3.9375,2.0625 c -2.1673,1.12969 -10.00764,6.54505 -17.40625,12.03125 -12.38219,9.18163 -20.24371,14.6003 -28.5,18.84375 0.14013,0.69764 -0.54326,2.35896 -1.5,3.15625 -1.0542,0.87852 -0.37379,1.0625 2.4375,1.0625 2.8113,0 0.0111,-0.003 -1.21875,2.28125 -1.23,2.28417 -0.01,-0.008 4.03125,-1.0625 4.0412,-1.05424 -0.50406,1.76592 -1.03125,2.46875 -0.5271,0.70282 2.09375,-0.53126 2.09375,-0.53125 l -0.875,3.34375 c 0,0 4.40275,-1.76178 5.28125,-1.9375 0.8786,-0.1757 -2.65626,3.15626 -2.65625,3.15625 l 2.65625,0.53125 0,2.65625 c 0,0 1.74651,-1.25412 2.625,-1.78125 0.8786,-0.52712 10e-6,3.1875 0,3.1875 L 478.78125,228 l 1.59375,2.28125 1.75,-2.625 -0.1875,2.46875 c 0,0 0.3574,-0.023 4.75,1.03125 4.3927,1.05424 -0.007,0.17572 1.75,0 1.757,-0.1757 1.04656,0.18105 0.34375,3.34375 -0.7028,3.1627 -0.15439,0.36674 4.0625,-0.6875 4.217,-1.05424 1.21109,0.32843 1.5625,1.03125 0.3514,0.70281 0.8762,1.22582 3.6875,-0.53125 2.8113,-1.75706 0.54306,0.0124 0.71875,1.59375 0.1757,1.58135 0.68871,0.88972 3.5,-1.21875 2.8113,-2.10847 0.53181,-0.0153 1.9375,0.6875 1.4056,0.70283 1.07069,0.88971 2.125,-1.21875 1.0542,-2.10847 0.18051,-0.34314 1.9375,1.0625 1.7571,1.40565 0.85611,0.49941 2.4375,-0.90625 1.5813,-1.40564 6.5e-4,0.009 1.40625,2.46875 1.4057,2.45988 0.16862,0.006 1.75,-3.15625 1.5813,-3.16269 1.41807,0.88328 1.59375,1.9375 0.1757,1.05424 1.22355,1.22579 3.15625,-0.53125 1.9328,-1.75705 1.78127,1.21875 1.78125,1.21875 l 2.09375,-1.40625 c 0,0 1.76598,1.75413 2.46875,2.28125 0.7029,0.52712 4.37503,-2.09376 4.375,-2.09375 0,0 2.98471,2.98054 3.6875,3.15625 0.7028,0.1757 3.18749,-2.46875 3.1875,-2.46875 l 2.28125,2.8125 c 0,0 2.09376,-1.73469 2.09375,-2.4375 0,-0.70283 1.93751,1.75 1.9375,1.75 l 2.28125,-1.75 2.8125,2.28125 c 0,0 1.94166,-1.04717 2.46875,-1.75 0.5271,-0.70282 1.39094,0.85553 2.09375,1.03125 0.7028,0.1757 2.62851,-2.46522 1.75,-3.34375 -0.8786,-0.87853 4.06251,1.9375 4.0625,1.9375 0,0 1.03126,-3.50062 1.03125,-4.90625 0,-1.40565 3.53126,0.6875 3.53125,0.6875 0,0 0.35611,-1.91925 1.9375,-4.90625 1.5813,-2.98699 0.52009,0.34788 1.75,0.875 1.23,0.52712 0.18751,-3.6875 0.1875,-3.6875 l 1.90625,1.0625 1.40625,-4.21875 c 0,0 7.05668,7.56432 11.625,11.78125 4.5684,4.21693 1.21875,-3.1875 1.21875,-3.1875 0,0 3.15275,3.33609 4.03125,3.6875 0.8785,0.35141 1.59375,-1.75 1.59375,-1.75 0,0 0.68813,0.71522 2.09375,1.59375 1.4057,0.87853 1.06248,-1.75 1.0625,-1.75 0,0 1.40275,1.04718 2.28125,1.75 0.8785,0.70281 1.75002,-2.125 1.75,-2.125 0,0 1.42222,1.07077 2.125,2.125 0.7029,1.05423 2.46877,-1.0625 2.46875,-1.0625 l 9.65625,3.34375 c -0.73719,-1.10925 -1.45937,-2.16898 -2.1875,-3.25 -8.11954,-6.13009 -13.57811,-10.69635 -19.59375,-16.3125 -9.8822,-9.22589 -24.23341,-21.02727 -28,-23 -1.3667,-0.71578 -9.20628,-3.15476 -17.40625,-5.4375 -8.2,-2.28277 -17.63569,-5.0739 -21,-6.21875 L 515.375,179.25 z" />
  <g
     style="fill:#e3e4e5;fill-opacity:1;stroke:#002255;stroke-width:0.07469355;stroke-miterlimit:4;stroke-opacity:1;stroke-dasharray:none"
     id="g10955"
     transform="matrix(6.6940182,0,0,6.6940182,-1043.9242,-3609.7131)">
    <path
       inkscape:connector-curvature="0"
       style="fill:#e3e4e5;fill-opacity:1;fill-rule:evenodd;stroke:#002255;stroke-width:0.07469355;stroke-linecap:butt;stroke-linejoin:miter;stroke-miterlimit:4;stroke-opacity:1;stroke-dasharray:none"
       id="path10943"
       d="m 207.5756,632.97388 0,-16.96639 -10.58523,0.75072 -0.0751,18.54292 c 3.45334,-2.26509 7.20696,-1.99038 10.6603,-2.32725 z" />
    <path
       inkscape:connector-curvature="0"
       style="fill:#e3e4e5;fill-opacity:1;fill-rule:evenodd;stroke:#002255;stroke-width:0.07469355;stroke-linecap:butt;stroke-linejoin:miter;stroke-miterlimit:4;stroke-opacity:1;stroke-dasharray:none"
       id="path10945"
       d="m 208.25125,633.1991 0.0751,-17.19161 4.57943,0 0,5.4803 c -3.47503,1.68431 -3.59877,7.2355 -4.6545,11.71131 z" />
    <path
       inkscape:connector-curvature="0"
       style="fill:#e3e4e5;fill-opacity:1;fill-rule:evenodd;stroke:#002255;stroke-width:0.07469355;stroke-linecap:butt;stroke-linejoin:miter;stroke-miterlimit:4;stroke-opacity:1;stroke-dasharray:none"
       id="path10947"
       d="m 207.55965,615.51535 6.10469,0 -0.0531,-0.58393 -6.26395,0 -12.5279,0.90244 0.0531,0.58392 12.68715,-0.90243 z" />
    <path
       inkscape:connector-curvature="0"
       style="fill:#e3e4e5;fill-opacity:1;fill-rule:evenodd;stroke:#002255;stroke-width:0.07469355;stroke-linecap:butt;stroke-linejoin:miter;stroke-miterlimit:4;stroke-opacity:1;stroke-dasharray:none"
       id="path10949"
       d="m 198.00447,608.40205 c 0.21234,0 9.66134,-1.0086 9.66134,-1.0086 l 4.14058,0.15925 0.0531,6.90096 -1.59253,0 c -0.055,-1.18532 -0.003,-2.23516 -0.0753,-2.90984 -0.0707,-0.6619 0.12995,-1.6599 -0.7125,-1.66759 -1.02874,-0.01 -0.8984,1.13895 -0.90254,1.59657 -0.006,0.67043 -0.0627,1.66311 -0.008,2.95432 0,0 -1.19439,-0.0531 -1.40673,0 -0.21234,0.0531 -3.63628,0.23888 -3.63628,0.23888 l -0.0265,-3.55665 c -0.0567,-0.36795 -0.32267,-1.56183 -1.14132,-1.48636 -0.50358,0.0225 -1.20886,0.37416 -1.27402,2.07029 l 0,3.15851 -3.07889,0.23888 0,-6.68862 z" />
    <path
       inkscape:connector-curvature="0"
       style="fill:#e3e4e5;fill-opacity:1;fill-rule:evenodd;stroke:#002255;stroke-width:0.07469355;stroke-linecap:butt;stroke-linejoin:miter;stroke-miterlimit:4;stroke-opacity:1;stroke-dasharray:none"
       id="path10951"
       d="m 196.25269,608.08355 11.09462,-1.22094 -2.04375,-6.05161 -9.05087,7.27255 z" />
    <path
       inkscape:connector-curvature="0"
       style="fill:#e3e4e5;fill-opacity:1;fill-rule:evenodd;stroke:#002255;stroke-width:0.07469355;stroke-linecap:butt;stroke-linejoin:miter;stroke-miterlimit:4;stroke-opacity:1;stroke-dasharray:none"
       id="path10953"
       d="m 205.78132,600.54557 2.17646,6.34358 4.83067,0.3185 -7.00713,-6.66208 z" />
  </g>
  <g
     id="g3429">
    <path
       inkscape:connector-curvature="0"
       style="fill:none;stroke:#e98484;stroke-width:1.16285753;stroke-linecap:butt;stroke-linejoin:miter;stroke-miterlimit:4;stroke-opacity:1;stroke-dasharray:none;stroke-dashoffset:0"
       id="path7995"
       d="m 663.10871,76.301276 c 0.0698,0 0.1395,0 0,0 z" />
    <path
       inkscape:connector-curvature="0"
       style="fill:#e3e4e5;fill-opacity:1;fill-rule:evenodd;stroke:#000000;stroke-width:2;stroke-linecap:butt;stroke-linejoin:miter;stroke-miterlimit:4;stroke-opacity:1;stroke-dasharray:none"
       id="path13536"
       d="M 206.32132,36.051824 C 202.02134,35.011696 7.1207067,65.863935 5.6821867,66.427935 L 50.577668,78.889925 10.847095,113.54985 C 79.816728,98.731231 146.48312,85.675378 212.2809,78.111053 l -5.95958,-42.059229 z" />
    <path
       inkscape:connector-curvature="0"
       style="fill:#e3e4e5;fill-opacity:1;fill-rule:evenodd;stroke:#000000;stroke-width:2;stroke-linecap:butt;stroke-linejoin:miter;stroke-miterlimit:4;stroke-opacity:1;stroke-dasharray:none"
       id="path13534"
       d="m 606.2378,36.051824 c 4.27575,-1.040128 198.07814,29.812111 199.50854,30.376111 l -44.6425,12.46199 39.50664,34.659925 C 732.02954,98.731231 665.73882,85.675378 600.31181,78.111053 l 5.92599,-42.059229 z" />
    <path
       inkscape:connector-curvature="0"
       style="fill:#e3e4e5;fill-rule:evenodd;stroke:#000000;stroke-width:2;stroke-linecap:butt;stroke-linejoin:miter;stroke-miterlimit:4;stroke-opacity:1;stroke-dasharray:none;fill-opacity:1"
       id="path13400"
       d="M 95.882652,81.550634 C 336.3702,44.321896 505.55774,36.315663 725.79646,80.635575 l 7.51098,-42.996537 c -228.36781,-41.5032054 -405.90459,-38.14107568 -641.758705,0 l 4.333917,43.911596 z" />
    <path
       inkscape:connector-curvature="0"
       style="fill:#ed1c24;fill-opacity:1;fill-rule:evenodd;stroke:none"
       id="path13408"
       d="m 121.91976,68.984502 c -0.32352,-0.489428 -0.59066,-0.905761 -0.59363,-0.92516 -0.0353,-0.230512 -13.27439,-19.318227 -13.53327,-19.511888 -0.1624,-0.121496 1.52058,10.873884 2.46429,16.099987 0.86059,4.765883 0.77575,4.643027 3.14918,4.559243 l 1.19649,-0.04222 0.11739,0.765698 0.11738,0.765697 -2.10656,0.206591 c -1.15861,0.113636 -3.33296,0.437337 -4.8319,0.719352 l -2.72533,0.512742 -0.11824,-0.772686 -0.11824,-0.772666 0.97291,-0.22828 c 2.32226,-0.544876 2.37979,-0.662838 2.00947,-4.119723 -0.33819,-3.15691 -2.66233,-18.321568 -2.99068,-19.513778 -0.32266,-1.171489 -0.6129,-1.386594 -1.79421,-1.32959 -0.44855,0.02165 -1.09217,0.04825 -1.43026,0.05913 l -0.61471,0.01974 -0.11823,-0.77158 -0.11825,-0.771609 5.05849,-0.724599 5.05848,-0.724598 1.48209,2.279416 c 0.81517,1.253686 2.9741,4.438462 4.79764,7.077275 1.82355,2.638823 4.02644,5.829471 4.89533,7.090342 0.86889,1.26087 1.63305,2.267709 1.69818,2.237406 0.22124,-0.102987 4.80487,-14.801081 6.12697,-19.647096 l 0.54682,-2.00437 4.81262,-0.716475 4.81264,-0.716475 0.12002,0.783365 c 0.0845,0.551727 0.072,0.79049 -0.0422,0.807511 -0.4881,0.07266 -2.32378,0.628463 -2.59866,0.7868 -0.47722,0.274909 -0.51099,0.755459 -0.2446,3.482392 0.27588,2.824066 2.77383,18.385198 3.15505,19.65478 0.30942,1.030369 0.63256,1.249028 1.7708,1.198405 0.45173,-0.0201 1.06958,-0.0397 1.37299,-0.04353 l 0.55163,-0.007 0.12394,0.808911 c 0.12003,0.783374 0.11443,0.807276 -0.17666,0.756829 -0.38096,-0.06601 -12.03062,1.673426 -12.3967,1.850966 -0.26265,0.127398 -0.27619,0.104338 -0.39532,-0.673261 l -0.12336,-0.805153 1.15947,-0.261862 c 1.33564,-0.301678 1.7061,-0.508024 1.87216,-1.04276 0.2252,-0.725225 -0.0784,-3.232627 -1.43518,-11.853601 l -1.36027,-8.643064 -1.13388,3.501938 c -2.47349,7.639103 -5.78323,18.40954 -6.30601,20.520832 l -0.18952,0.765345 -0.67914,0.101108 -0.67913,0.101107 -0.58824,-0.889914 z m 39.08123,-4.729452 c -4.29204,0.22088 -8.00866,-1.116218 -9.5928,-3.45115 -1.04719,-1.543483 -1.04595,-1.537698 -2.41195,-11.31864 -0.68002,-4.869193 -1.30333,-9.016831 -1.38515,-9.216981 -0.44951,-1.099862 -0.73274,-1.284998 -1.93833,-1.267096 -0.39172,0.0058 -0.93149,0.0083 -1.19951,0.0056 l -0.48727,-0.0049 -0.1063,-0.774056 -0.10629,-0.774047 3.16511,-0.340311 c 1.74079,-0.187182 4.63751,-0.567838 6.43711,-0.845899 l 3.27203,-0.505568 0.10385,0.757594 0.10384,0.757573 -1.03873,0.230395 c -1.29599,0.287447 -1.76029,0.550239 -1.96351,1.111353 -0.24104,0.665412 0.15569,4.566593 1.19685,11.769563 0.96647,6.686322 0.95703,6.646819 1.91511,8.018291 1.15654,1.655612 3.54309,2.435286 6.58502,2.151324 2.93513,-0.273999 4.8564,-1.092355 6.08352,-2.591225 1.20384,-1.470428 1.40365,-2.701622 1.08913,-6.710586 -0.25414,-3.239695 -1.81474,-13.913585 -2.11214,-14.446207 -0.27866,-0.499108 -0.80745,-0.647373 -2.2382,-0.627611 -0.64109,0.0088 -1.20866,0.02166 -1.26124,0.02845 -0.0526,0.0068 -0.14115,-0.319718 -0.1968,-0.725666 l -0.10116,-0.738018 4.7152,-0.62675 4.71522,-0.626721 0.0986,0.719392 0.0986,0.719401 -0.83329,0.197889 c -1.18141,0.280557 -1.62432,0.568406 -1.78491,1.160008 -0.20957,0.771942 -0.019,3.050673 0.88224,10.548568 0.92808,7.721213 0.94734,8.237851 0.38465,10.321433 -0.86963,3.220363 -3.90012,5.598538 -8.41228,6.601638 -1.62335,0.360885 -1.94321,0.403775 -3.67624,0.492991 l 0,0 z m 47.18124,-5.944047 -1.62998,-0.06435 -2.47477,-2.104567 C 198.65464,51.530425 189.09094,42.987685 186.17272,40.148712 l -1.43129,-1.392409 0.7797,6.080351 c 0.85787,6.689807 1.83286,12.742018 2.14954,13.343271 0.21929,0.416362 0.59377,0.535714 1.62583,0.518233 0.3203,-0.0054 0.8594,-0.01154 1.19799,-0.01355 l 0.61563,-0.0037 0.0971,0.724442 0.0971,0.724442 -4.90746,0.643996 -4.90748,0.644006 -0.0971,-0.724226 -0.0971,-0.724266 0.7861,-0.183276 c 2.25614,-0.526034 2.40943,-0.617129 2.4979,-1.484434 0.1005,-0.985169 -0.90142,-9.731758 -1.8327,-15.999653 -0.50227,-3.380433 -0.97914,-6.361603 -1.05968,-6.624835 -0.24691,-0.806924 -0.53686,-0.888104 -3.15148,-0.882397 l -0.61595,0.0013 -0.10429,-0.777708 -0.1043,-0.777726 4.34313,-0.537388 4.34312,-0.537408 2.39949,2.279964 c 6.50405,6.18002 17.25196,15.778812 17.8176,15.912601 0.15264,0.03612 -1.36734,-11.204535 -1.99355,-14.742698 -0.50426,-2.849172 -0.72767,-3.592406 -1.1239,-3.73889 -0.12808,-0.04735 -0.56729,-0.07711 -0.97603,-0.06613 -0.40872,0.011 -1.063,0.02875 -1.45395,0.03947 l -0.71078,0.0195 -0.10415,-0.776386 -0.10418,-0.776356 4.91273,-0.605247 4.91273,-0.605256 0.0995,0.74205 0.0995,0.74206 -0.72289,0.171247 c -2.37638,0.562983 -2.58161,0.748941 -2.50845,2.272741 0.0263,0.546716 0.75993,6.453608 1.63039,13.126452 1.31878,10.109283 1.55422,12.139287 1.41189,12.173417 -0.0939,0.02252 -0.90431,0.01201 -1.80082,-0.02339 z m 9.29882,-1.897243 c -0.0451,-0.409412 -0.0593,-0.746787 -0.0316,-0.749743 0.63318,-0.06777 2.73058,-0.608144 2.97148,-0.765551 0.62223,-0.406594 0.61593,-0.565606 -0.41235,-10.409963 -0.52157,-4.99336 -1.10818,-10.087133 -1.30359,-11.319502 -0.46373,-2.924665 -0.25455,-2.750218 -3.2769,-2.732727 l -0.80791,0.0047 -0.0855,-0.775231 -0.0855,-0.775221 2.72737,-0.194131 c 1.50007,-0.106784 4.52131,-0.421393 6.71384,-0.69914 l 3.9865,-0.504971 0.083,0.753854 0.083,0.753845 -0.66305,0.145426 c -0.36468,0.07998 -0.99499,0.218708 -1.40071,0.308266 -0.98173,0.216712 -1.28769,0.549545 -1.35259,1.471387 -0.0747,1.061278 1.3454,14.929722 1.9319,18.866472 0.66095,4.436387 0.66618,4.446097 2.3968,4.442191 0.42213,-9.59e-4 1.01527,0.0019 1.3181,0.0063 l 0.55061,0.0081 0.0801,0.727496 0.0801,0.727496 -6.71061,0.727496 -6.71059,0.727466 -0.082,-0.744331 z m 31.60109,-2.297875 c -7.97798,0.642919 -14.07865,-3.057016 -16.27621,-9.871186 -1.73597,-5.382894 -0.62673,-10.545142 3.08029,-14.335007 4.18826,-4.281818 12.22942,-6.262316 20.26339,-4.990727 0.67914,0.107499 1.2717,0.237588 1.31678,0.289111 0.0451,0.05152 0.047,0.580944 0.004,1.17653 -0.0745,1.037386 -0.0387,2.364011 0.12101,4.485286 l 0.074,0.983182 -0.81047,0.127447 -0.8105,0.127436 -0.15337,-0.906524 c -0.0844,-0.498559 -0.26061,-1.290322 -0.39169,-1.759479 -0.22959,-0.821909 -0.26381,-0.868871 -0.9394,-1.289618 -1.46665,-0.913365 -3.5036,-1.308586 -6.00091,-1.164304 -2.42684,0.140219 -4.62698,0.843647 -6.3613,2.033831 -2.44943,1.680962 -3.9015,4.32967 -4.12817,7.530263 -0.1536,2.168579 0.39899,5.391429 1.26089,7.353916 1.00117,2.279553 2.14511,3.694415 4.154,5.13776 1.2321,0.885255 1.68254,1.126014 2.74971,1.469683 1.91154,0.615563 3.39272,0.716347 5.90658,0.401984 3.00305,-0.375587 5.12322,-1.126338 7.41659,-2.626217 0.73992,-0.483897 0.95137,-0.570813 1.21464,-0.499166 0.1753,0.04769 0.30732,0.13511 0.29335,0.194267 -0.014,0.05914 -0.155,0.569473 -0.31344,1.13408 l -0.28807,1.026562 -1.00333,0.666684 c -2.02354,1.344635 -3.63753,2.030562 -6.26076,2.660748 -1.77008,0.425259 -2.15335,0.485141 -4.11782,0.643458 l 0,0 z m 15.73469,-2.386876 -0.0698,-0.738145 0.60141,-0.127535 c 1.94173,-0.411752 2.35928,-0.53823 2.55536,-0.773997 0.44605,-0.53639 0.39401,-1.619564 -0.56212,-11.701617 -0.97389,-10.268892 -1.18873,-11.950588 -1.57574,-12.332801 -0.24575,-0.242766 -0.93309,-0.334634 -2.5384,-0.339352 l -0.87203,-0.0026 -0.0738,-0.778784 -0.0738,-0.778764 2.66608,-0.146974 c 1.46632,-0.08085 4.46326,-0.347622 6.65982,-0.592816 l 3.99375,-0.445803 0.0719,0.760441 0.0719,0.760481 -0.72926,0.141061 c -1.26666,0.245017 -2.19796,0.512331 -2.36744,0.679497 -0.42347,0.417722 -0.39997,0.929995 0.5084,11.063992 0.87585,9.771291 1.16494,12.120054 1.57947,12.832858 0.23241,0.399674 0.62824,0.520289 1.68223,0.512615 1.81535,-0.01326 1.70794,-0.05967 1.78661,0.771805 l 0.0691,0.729923 -6.6569,0.622307 -6.65689,0.622326 -0.0698,-0.738164 z m 18.87289,-1.620895 c -0.0648,-0.841709 -0.28099,-0.699874 1.70536,-1.118997 1.05526,-0.222662 1.24263,-0.372748 1.35806,-1.087891 0.14669,-0.908864 -0.34383,-9.72986 -0.83346,-14.98795 -0.50016,-5.371266 -0.82757,-7.767675 -1.13246,-8.288688 -0.20667,-0.353133 -0.91507,-0.558452 -1.76199,-0.510687 -0.2913,0.01642 -0.7127,0.0078 -0.93644,-0.01913 -0.40244,-0.04847 -0.40741,-0.05727 -0.46664,-0.823151 l -0.0598,-0.774164 2.6667,-0.122817 c 1.46669,-0.06756 4.71084,-0.331062 7.20919,-0.585603 5.0015,-0.509551 7.15362,-0.613576 8.69477,-0.420267 3.2817,0.411605 5.12814,2.337555 5.37223,5.603569 0.24844,3.324261 -1.39793,6.402516 -4.33797,8.110903 -0.54311,0.315577 -1.32676,0.689421 -1.74146,0.830728 -1.07288,0.365592 -3.11915,0.608799 -4.25773,0.506008 l -0.94832,-0.08558 -0.38744,-0.649135 c -0.55735,-0.93393 -0.4331,-1.06306 1.02998,-1.070147 1.8263,-0.0089 3.22523,-0.708028 4.0605,-2.029279 1.33426,-2.110616 0.91738,-6.085294 -0.81283,-7.749823 -1.21014,-1.164197 -3.3629,-1.556706 -5.67851,-1.035399 l -1.14086,0.25689 0.0898,2.217919 c 0.2551,6.297287 1.56574,20.828941 1.93882,21.496849 0.21858,0.391335 0.65887,0.51238 1.90187,0.522921 0.49683,0.0042 1.15087,0.01929 1.45342,0.03349 l 0.55007,0.02584 0.0557,0.722504 0.0556,0.722504 -6.79455,0.5244 -6.79459,0.52438 -0.057,-0.740201 z m 24.57092,-1.732279 c -0.0578,-0.890688 -0.12462,-0.835181 1.28135,-1.064127 0.41937,-0.06832 0.88903,-0.217807 1.04367,-0.332246 0.57694,-0.426933 1.83126,-3.820794 6.66551,-18.035265 l 3.12326,-9.183516 1.48907,-0.09391 1.48907,-0.0939 5.737,11.355648 c 3.15532,6.245598 6.11532,12.027315 6.57777,12.848274 0.92718,1.64599 1.09824,1.787952 2.24733,1.865002 1.44205,0.09669 1.3541,0.04348 1.4065,0.850773 l 0.0468,0.721701 -6.54471,0.414268 -6.54467,0.414248 -0.0469,-0.72319 -0.0469,-0.723179 0.86111,-0.1333 c 2.37318,-0.367345 2.40527,-0.386421 2.22576,-1.322279 -0.0877,-0.457236 -1.47702,-3.644449 -2.45142,-5.62385 -0.0999,-0.202988 -0.45326,-0.192946 -5.4968,0.156115 l -5.38997,0.373052 -0.42066,1.296694 c -0.62449,1.925059 -1.12621,4.137488 -1.08438,4.781934 0.0339,0.522168 0.0717,0.579994 0.46495,0.711395 0.23543,0.07866 0.80589,0.157094 1.26765,0.174271 1.62104,0.0604 1.54767,0.02186 1.60083,0.840986 l 0.0468,0.720928 -4.74842,0.295835 -4.74839,0.295855 -0.0512,-0.788209 z m 17.2406,-11.302941 c 0.0886,-0.09951 -4.83953,-10.011405 -5.0153,-10.087104 -0.0619,-0.02667 -0.93396,2.346785 -1.93787,5.274358 l -1.82526,5.322855 0.41548,0.0571 c 0.53539,0.07359 8.2588,-0.450247 8.36295,-0.567211 l 0,0 z m 17.34099,9.581105 c -0.0144,-0.367394 0.0563,-0.449778 0.70767,-0.824855 0.398,-0.229171 0.88086,-0.550582 1.07302,-0.714223 l 0.34938,-0.297568 0.003,-3.361739 c 0.004,-4.104943 -0.68758,-19.02659 -0.9242,-19.941268 -0.0889,-0.343815 -0.24053,-0.697065 -0.33688,-0.784969 -0.16663,-0.152073 -0.93441,-0.264662 -2.57737,-0.378014 l -0.74195,-0.05117 -0.0306,-0.782552 -0.0306,-0.782542 6.81027,-0.259014 6.81028,-0.259023 0.031,0.791654 c 0.017,0.435419 -0.0124,0.793779 -0.0653,0.796363 -0.47538,0.02322 -2.48965,0.382506 -2.82385,0.503708 -0.81498,0.295552 -0.80424,0.103839 -0.56081,10.025979 0.12059,4.914158 0.30575,10.052015 0.41146,11.417458 l 0.19225,2.48263 0.5858,0.05655 c 0.91801,0.08866 6.00744,-0.140377 7.35512,-0.331013 2.06719,-0.292371 2.68804,-0.473748 2.8062,-0.819736 0.0568,-0.166441 0.25927,-1.164363 0.4498,-2.217547 l 0.34644,-1.91492 0.87596,-0.03432 c 0.77498,-0.03034 0.86906,-0.0084 0.81604,0.189981 -0.0679,0.253963 -0.36835,4.266647 -0.43731,5.840032 -0.0429,0.978885 -0.064,1.042476 -0.37949,1.145307 -0.18373,0.05991 -4.91628,0.289825 -10.51677,0.510951 l -10.18272,0.402052 -0.016,-0.408199 z m 25.46098,-1.46523 -0.0217,-0.776356 0.70283,-0.07622 c 0.97079,-0.105247 1.91605,-0.266481 2.25502,-0.384659 0.35584,-0.124031 0.54269,-0.516697 0.66056,-1.387975 0.10341,-0.764513 -0.41406,-20.120286 -0.57968,-21.683081 -0.15792,-1.490071 -0.26465,-1.561639 -2.53717,-1.701663 l -1.2079,-0.07443 -0.0215,-0.770993 -0.0215,-0.770993 6.72612,-0.182414 6.72612,-0.182415 0.0215,0.770288 0.0215,0.770268 -1.13976,0.134631 c -1.34974,0.159394 -1.87498,0.291969 -2.0766,0.524135 -0.28861,0.332266 -0.36852,1.15806 -0.38232,3.949583 -0.0256,5.178955 0.44731,17.921316 0.71472,19.258854 0.12539,0.62724 0.3283,0.960856 0.68127,1.120123 0.20203,0.09115 0.81064,0.162751 2.38488,0.280537 l 0.52411,0.03921 0.0217,0.777521 0.0217,0.777541 -6.72612,0.182415 -6.72612,0.182414 -0.0217,-0.776327 z m 18.07405,-0.13833 -0.008,-0.448104 0.87619,-0.537819 c 0.48193,-0.295796 0.94346,-0.58846 1.02563,-0.650348 0.26922,-0.202774 0.31284,-3.817399 0.15217,-12.609648 -0.18558,-10.15415 -0.29246,-11.498853 -0.93195,-11.72544 -0.20718,-0.07342 -2.5629,-0.401975 -2.8535,-0.397971 -0.083,0.0011 -0.11795,-0.230679 -0.12959,-0.859543 l -0.0159,-0.861079 0.23858,0.0545 c 0.29858,0.06819 15.48771,-0.205553 16.35409,-0.294739 0.82988,-0.08543 3.92808,0.02318 5.19474,0.182101 2.32091,0.291177 4.30446,0.98327 5.71612,1.994425 1.42193,1.018497 2.81124,2.681821 3.5408,4.239105 0.84562,1.805022 1.17662,3.393656 1.22079,5.85902 0.0503,2.805979 -0.34555,4.868831 -1.34798,7.024441 -2.10012,4.516138 -5.831,7.479876 -10.94155,8.691719 -2.01709,0.478319 -2.11939,0.484652 -10.33288,0.640454 l -7.75015,0.147002 -0.008,-0.448074 z m 14.69418,-2.053828 c 1.83176,-0.25316 2.94418,-0.567426 4.06116,-1.147332 2.0246,-1.051139 3.71078,-3.206044 4.62141,-5.90609 0.59939,-1.777147 0.90399,-4.491795 0.75193,-6.701356 -0.35901,-5.21706 -2.5337,-8.485873 -6.45489,-9.702464 -1.8984,-0.588989 -4.01813,-0.743068 -7.33434,-0.533091 -1.27399,0.08066 -2.35374,0.182307 -2.39954,0.225873 -0.2042,0.194473 0.12696,22.864905 0.34385,23.537913 0.0703,0.218179 0.23386,0.261725 1.33478,0.355531 1.12887,0.09618 3.9685,0.02401 5.07564,-0.128984 z m 15.70806,1.091396 -10e-6,-0.873902 0.35999,0 c 0.70075,0 1.73712,-0.200991 2.03065,-0.393801 0.63512,-0.417223 1.87957,-3.208344 7.70816,-17.288243 l 3.85046,-9.301439 1.49411,0.02448 1.49411,0.02448 5.01603,11.741855 c 4.96054,11.61196 5.73178,13.380405 6.21409,14.248679 0.40051,0.721026 0.72701,0.864867 2.45236,1.080433 l 0.47737,0.05964 0,0.775867 0,0.775877 -6.54681,0 -6.5468,0 0,-0.776239 0,-0.77622 0.79562,-0.05544 c 1.60674,-0.111903 2.05106,-0.200688 2.27319,-0.454201 0.11253,-0.128435 0.20459,-0.311457 0.20459,-0.406721 0,-0.287888 -0.49544,-1.713428 -1.40049,-4.029519 l -0.85811,-2.195995 -5.36029,-0.02311 c -4.22191,-0.01822 -5.37867,8.12e-4 -5.44664,0.08964 -0.15414,0.201403 -1.10773,2.7713 -1.48882,4.012419 -0.74269,2.418628 -0.64848,2.64544 1.18795,2.860007 0.47511,0.05552 1.03772,0.122729 1.25026,0.149372 l 0.38644,0.04845 2e-5,0.778784 0,0.778774 -4.77372,0 -4.77371,0 0,-0.873921 z m 17.99562,-10.159602 c 0.0484,-0.04537 -4.37704,-10.523952 -4.44295,-10.520203 -0.051,0.0029 -4.25456,10.062576 -4.34113,10.388871 -0.046,0.173243 0.003,0.18125 1.3034,0.213021 1.51693,0.03707 7.42283,-0.02742 7.48068,-0.08169 z m 16.04278,10.510836 0.006,-0.464802 0.99745,-0.574366 0.99746,-0.574395 0.0681,-0.649654 c 0.25714,-2.452151 0.53638,-15.834348 0.42044,-20.151206 -0.0643,-2.392416 -0.14549,-3.087182 -0.39001,-3.334812 -0.16169,-0.163769 -0.8724,-0.332168 -2.30637,-0.546461 l -0.79405,-0.118648 0.0117,-0.851898 0.0117,-0.851889 0.23873,0.06248 c 0.13131,0.03433 3.80309,0.09791 8.15959,0.141218 4.35647,0.04334 8.67761,0.09885 9.60256,0.123365 5.16119,0.136804 8.14228,1.115718 10.45903,3.434481 1.65895,1.660369 2.77142,3.897433 3.18615,6.407087 0.1853,1.121366 0.2231,3.457864 0.0754,4.662318 -0.34635,2.824761 -1.1284,4.94125 -2.60375,7.046678 -2.38429,3.402505 -5.35922,5.383658 -9.55509,6.363238 -2.32424,0.542605 -2.31664,0.542291 -10.84092,0.437425 l -7.75096,-0.09536 0.006,-0.464802 z m 15.48188,-1.653194 c 2.54113,-0.391012 3.98263,-1.052049 5.45653,-2.502274 1.68706,-1.659948 2.75198,-3.792312 3.32786,-6.663595 0.27707,-1.381446 0.35426,-4.950969 0.13569,-6.27408 -0.21851,-1.32271 -0.5433,-2.380847 -1.06334,-3.464314 -1.53765,-3.203646 -4.0614,-4.678331 -8.72491,-5.098139 -1.10962,-0.09989 -5.17298,-0.05389 -5.77116,0.06531 -0.19263,0.03839 -0.19566,0.07058 -0.31269,3.332385 -0.1564,4.358594 -0.34926,18.069112 -0.27285,19.397998 l 0.0602,1.047624 0.34769,0.06271 c 1.03331,0.186339 1.78893,0.232694 3.76873,0.231206 1.45667,-0.0011 2.4704,-0.04592 3.04822,-0.134836 z m 32.72986,2.904297 0.0232,-0.454368 0.98322,-0.513124 c 0.54078,-0.282211 1.02282,-0.578291 1.07123,-0.657964 0.194,-0.319355 0.59013,-5.573217 0.95167,-12.621511 0.45227,-8.817551 0.46489,-11.11893 0.063,-11.482928 -0.12177,-0.110289 -1.48217,-0.436613 -2.58752,-0.620692 l -0.5191,-0.08643 0.0436,-0.8537 0.0436,-0.853699 0.23454,0.07058 c 0.12899,0.0388 3.8164,0.236424 8.1942,0.439178 11.51241,0.53311 12.05821,0.57646 14.30276,1.13547 2.50711,0.62442 4.06326,1.50807 5.61817,3.190266 2.45747,2.658604 3.3837,6.035229 2.89542,10.555409 -0.42221,3.908611 -2.02198,7.067116 -4.93877,9.750933 -2.58151,2.375307 -5.79197,3.704252 -9.92931,4.11018 -0.84999,0.08338 -2.07471,0.04438 -8.73093,-0.27812 l -7.74223,-0.375106 0.0232,-0.454368 z m 14.45045,-1.027697 c 3.42047,-0.162859 5.54982,-1.037798 7.33332,-3.013205 2.22957,-2.469475 3.37999,-6.079392 3.34698,-10.502478 -0.0236,-3.156615 -0.79224,-5.536229 -2.40058,-7.431749 -1.65325,-1.948403 -4.38416,-3.006794 -8.33163,-3.228986 -1.78853,-0.100668 -4.55602,-0.117375 -4.71981,-0.02849 -0.13433,0.07288 -1.17311,17.904805 -1.24729,21.41149 l -0.0487,2.302329 0.3436,0.07493 c 1.33103,0.290256 4.11603,0.492726 5.72414,0.416166 l 0,0 z m 18.49916,2.586703 0.0361,-0.460906 0.8181,-0.372993 c 1.23123,-0.561319 1.31773,-0.648684 1.45286,-1.467833 0.4332,-2.62557 0.67856,-5.066142 1.27626,-12.693989 0.67309,-8.590132 0.72298,-9.792629 0.43093,-10.388215 -0.18072,-0.368549 -0.51156,-0.50364 -1.97204,-0.80523 l -1.15563,-0.238646 0.0617,-0.787338 0.0617,-0.787319 0.61167,0.05007 c 0.33644,0.02755 1.89047,0.183815 3.45342,0.347271 1.65833,0.173419 5.49345,0.466563 9.20917,0.703936 5.74968,0.367296 8.84417,0.646767 8.98743,0.811651 0.0285,0.03282 -0.0876,0.685595 -0.25807,1.450588 -0.17047,0.764973 -0.39835,1.970758 -0.50642,2.679462 -0.10806,0.708713 -0.22625,1.417798 -0.26263,1.575704 l -0.0661,0.287144 -0.75296,-0.05738 -0.75299,-0.05737 0.0372,-1.278225 c 0.0556,-1.913901 0.0507,-1.941992 -0.38424,-2.17267 -0.8829,-0.468257 -1.89762,-0.628082 -5.96303,-0.939215 -2.10244,-0.160911 -3.84861,-0.270623 -3.88035,-0.243824 -0.0859,0.07253 -0.50401,3.540855 -0.84318,6.993923 l -0.2989,3.043068 0.5314,0.0955 c 2.00667,0.360572 6.71281,0.645513 7.1968,0.435742 0.31925,-0.13837 0.49844,-0.523509 0.67586,-1.452682 0.0915,-0.479229 0.20034,-1.040675 0.24183,-1.247638 l 0.0754,-0.37634 0.80114,0.06103 0.80115,0.06106 -0.35113,4.513182 -0.3511,4.513152 -0.80294,-0.06116 -0.80293,-0.06117 -0.009,-0.472671 c -0.0514,-2.643277 -0.0643,-2.718633 -0.50381,-2.940267 -0.60328,-0.304282 -4.21967,-0.718178 -6.60416,-0.755851 l -0.98293,-0.01554 -0.35151,5.240423 c -0.19334,2.882216 -0.34096,5.407814 -0.32806,5.612417 l 0.0235,0.371985 2.50255,0.252465 c 2.48452,0.250626 4.92132,0.355913 6.98783,0.301904 l 1.02572,-0.02681 0.16924,-0.445217 c 0.1456,-0.383015 0.84568,-2.584452 1.09826,-3.453508 l 0.0831,-0.285833 0.82031,0.06249 0.8203,0.0625 -0.08,0.331033 c -0.23871,0.988173 -0.9238,5.194567 -0.99603,6.115636 -0.0198,0.252965 -0.0577,0.287085 -0.36795,0.331228 -0.19023,0.02704 -4.92524,-0.29887 -10.52225,-0.724276 l -10.17639,-0.773508 0.0361,-0.460936 z m 40.15812,2.980524 c 0.0413,-0.429419 0.10587,-0.777893 0.1435,-0.774379 0.40888,0.0382 2.48212,-0.06584 2.66784,-0.133887 0.42917,-0.157202 0.60157,-0.514504 0.82306,-1.705833 0.1148,-0.617334 0.5528,-4.490944 0.99681,-8.815173 0.98339,-9.577748 1.18244,-12.964425 0.79986,-13.610447 -0.19232,-0.32472 -0.56701,-0.470655 -1.84475,-0.718511 l -1.08947,-0.211357 0.0761,-0.791371 0.0761,-0.791371 3.24703,0.363733 c 2.03546,0.228026 4.89249,0.472799 7.65672,0.655977 5.99585,0.397354 7.71825,0.705375 9.34236,1.670753 2.20837,1.312639 3.03624,3.450151 2.51449,6.492182 -0.89055,5.192257 -6.49021,8.328289 -12.03495,6.740047 l -0.56062,-0.160588 -0.30915,-0.728308 -0.30917,-0.728328 0.25664,-0.209194 c 0.24497,-0.199642 0.27757,-0.202695 0.715,-0.06659 0.63562,0.197772 1.56119,0.268332 2.26522,0.172657 1.66504,-0.226264 3.03574,-1.413541 3.6613,-3.171356 0.31539,-0.886215 0.48302,-2.865254 0.3222,-3.803451 -0.33095,-1.930453 -1.28065,-3.084069 -3.08205,-3.743736 -0.65068,-0.238283 -2.67353,-0.439539 -3.6188,-0.360062 l -0.64455,0.05419 -0.12142,0.618911 c -0.31481,1.604607 -1.19064,9.700496 -1.53797,14.216722 -0.40617,5.28162 -0.55216,7.492942 -0.54546,8.262653 0.007,0.765854 0.21772,1.027374 0.98672,1.222708 0.48185,0.122406 2.44467,0.506312 2.73297,0.53454 0.0373,0.0037 0.0341,0.357997 -0.007,0.787416 l -0.0751,0.780791 -6.78915,-0.634268 -6.78914,-0.634277 0.0751,-0.7808 z m 38.94078,5.000731 c -3.406,-0.640385 -5.91116,-1.947307 -7.54542,-3.936379 -0.60467,-0.735903 -0.7843,-1.033236 -1.02192,-1.691396 -0.33367,-0.924259 -0.478,-1.832976 -0.48203,-3.034924 -0.002,-0.563874 0.30733,-3.532075 0.91442,-8.777833 0.95468,-8.249243 1.03672,-9.314368 0.76427,-9.920838 -0.21172,-0.471331 -0.54167,-0.63969 -1.86126,-0.949845 l -1.21705,-0.286058 0.0869,-0.763387 0.0869,-0.763388 6.50599,0.719411 6.50599,0.719421 -0.0872,0.765972 -0.0872,0.765981 -0.93232,-0.04858 c -1.45285,-0.07572 -2.02586,0.08468 -2.42855,0.679809 -0.2328,0.344099 -0.51318,2.125151 -1.34919,8.571027 -0.81512,6.284916 -0.98324,8.089987 -0.87085,9.350789 0.15701,1.761574 0.82105,3.050448 2.05272,3.984319 1.02428,0.776611 3.05352,1.517526 4.64012,1.694166 1.70082,0.189344 3.46982,0.05829 4.63324,-0.343297 1.51937,-0.524448 2.78185,-1.750308 3.33627,-3.239557 0.61526,-1.652587 1.29341,-6.153388 1.97168,-13.085647 0.52447,-5.360216 0.5253,-5.431285 0.0677,-5.804914 -0.24124,-0.196988 -1.21806,-0.503267 -2.25083,-0.705776 l -0.73838,-0.144762 0.0876,-0.770131 0.0876,-0.770131 4.74396,0.524575 4.74397,0.524576 -0.0872,0.766226 -0.0872,0.766197 -0.79688,-0.03296 c -1.84502,-0.07629 -2.14138,0.187494 -2.5722,2.289203 -0.29457,1.437031 -1.03937,6.733803 -1.43377,10.196502 -0.64393,5.65333 -1.06678,7.32888 -2.3328,9.243769 -2.20181,3.33033 -7.05351,4.634746 -13.04716,3.507851 l 0,0 z m 26.5836,2.142406 0.11681,-0.762781 0.84091,0.06337 c 1.16312,0.08762 1.96256,0.07384 2.30165,-0.03967 0.47565,-0.159267 0.71674,-0.64569 1.05112,-2.120668 0.44489,-1.962478 3.47716,-21.250041 3.36443,-21.400332 -0.17809,-0.237412 -6.50521,-1.011596 -7.45926,-0.91273 -0.42401,0.04395 -0.60944,0.389818 -0.93904,1.751503 -0.16071,0.663934 -0.34449,1.393104 -0.40842,1.620425 l -0.11625,0.413259 -0.83246,-0.123864 -0.83249,-0.123884 0.3797,-2.912205 c 0.20883,-1.601721 0.40005,-3.092751 0.42491,-3.313416 l 0.0452,-0.401182 1.03396,0.153845 c 0.56868,0.08462 3.19003,0.531339 5.82527,0.992676 4.9673,0.869653 9.54116,1.523721 16.00248,2.288391 2.9129,0.344735 3.38669,0.419054 3.48188,0.546246 0.0899,0.120164 0.0768,0.257751 -0.0715,0.749362 -0.23922,0.793025 -0.85325,3.299664 -1.13959,4.652041 l -0.22789,1.076527 -0.79117,-0.117727 -0.79117,-0.117727 0.0239,-0.472348 c 0.0131,-0.259788 0.0611,-1.009071 0.10662,-1.665077 0.0455,-0.655967 0.0614,-1.289706 0.0353,-1.408275 -0.10549,-0.47961 -0.95011,-0.723385 -4.71587,-1.361097 -2.42963,-0.411449 -2.79618,-0.455758 -2.91395,-0.352213 -0.10515,0.09243 -0.43567,1.961871 -1.50522,8.514051 -1.34792,8.257554 -2.0916,13.522486 -2.01633,14.275293 0.0509,0.508729 0.26105,0.846779 0.60632,0.975116 0.23815,0.08852 2.58157,0.729992 2.76829,0.75777 0.0269,0.004 -0.005,0.356246 -0.0699,0.782767 l -0.11875,0.775495 -6.78815,-1.010078 -6.78815,-1.010079 0.1168,-0.762781 z m 23.43911,3.367621 c 0.0742,-0.425103 0.14518,-0.771169 0.15779,-0.769035 0.30531,0.05176 2.39507,0.110494 2.61888,0.07361 0.75465,-0.124344 0.86364,-0.547254 2.55079,-9.896703 1.69452,-9.39039 2.19179,-12.921584 1.94325,-13.799087 -0.10338,-0.364996 -0.53817,-0.615015 -1.71389,-0.985482 l -1.07132,-0.33761 0.13472,-0.772304 0.1347,-0.772275 3.95749,0.717365 c 2.17662,0.394546 5.79883,0.990856 8.04938,1.325138 5.74681,0.853552 7.31929,1.251337 8.64341,2.186451 0.82653,0.583694 1.63146,1.741666 1.9296,2.775872 0.63048,2.187088 -0.008,4.712089 -1.62961,6.4443 -1.12139,1.197896 -3.20806,2.202082 -5.67943,2.733098 -0.22267,0.04782 -0.14844,0.227762 2.64419,6.409456 1.58033,3.498121 3.07916,6.701757 3.33073,7.119196 0.52421,0.869702 0.90299,1.180797 1.71906,1.411818 l 0.54951,0.155557 -0.12898,0.739466 -0.12899,0.739437 -2.66604,-0.451569 c -1.46632,-0.248355 -3.23615,-0.521933 -3.93298,-0.607948 l -1.26698,-0.156359 -0.386,-0.919953 c -0.78129,-1.861958 -2.71852,-6.308338 -4.61637,-10.595677 -1.07211,-2.421926 -1.93848,-4.457156 -1.92522,-4.522705 0.0132,-0.06555 0.0959,-0.207559 0.18382,-0.315528 0.15516,-0.190725 0.19029,-0.19142 1.22331,-0.02365 0.86303,0.140152 1.18002,0.153404 1.68115,0.07024 0.95912,-0.15915 1.92443,-0.562621 2.79599,-1.168582 1.29587,-0.900955 1.88758,-1.906727 2.2147,-3.764427 0.65936,-3.744176 -1.50092,-5.909516 -6.30623,-6.321072 -0.59094,-0.05063 -1.091,-0.08047 -1.11126,-0.06637 -0.0739,0.05148 -2.38576,11.705189 -2.80757,14.152485 -0.62652,3.634964 -1.20183,8.456314 -1.0936,9.164939 0.0869,0.568807 0.50381,0.790647 2.44313,1.299944 l 0.59548,0.156369 -0.1336,0.765913 -0.13361,0.765893 -6.45209,-1.093617 -6.45211,-1.093647 0.1348,-0.77295 z m 31.93855,5.587625 c 0.0797,-0.415501 0.12454,-0.49812 0.27555,-0.508377 0.32053,-0.02172 1.80663,-0.590467 1.95966,-0.749979 0.40684,-0.424045 2.07325,-7.931503 3.49984,-15.767262 1.07774,-5.919822 1.25775,-7.214382 1.07409,-7.725627 -0.13991,-0.389494 -0.45026,-0.558118 -1.87168,-1.016959 l -1.12204,-0.362216 0.14901,-0.775907 0.14901,-0.775877 0.6024,0.115937 c 0.33131,0.06378 1.85857,0.387224 3.39391,0.718775 1.62899,0.351753 5.40831,1.058029 9.07515,1.695937 5.67408,0.987077 8.71876,1.599616 8.84281,1.779016 0.0247,0.0357 -0.16345,0.67196 -0.41809,1.413893 -0.25461,0.741913 -0.65415,2.031658 -0.88785,2.866085 -0.23371,0.834408 -0.42828,1.526756 -0.43238,1.538531 -0.004,0.01179 -0.3432,-0.04123 -0.75354,-0.117806 l -0.7461,-0.139241 0.17924,-1.266489 c 0.2684,-1.896322 0.26659,-1.924775 -0.14002,-2.201114 -0.82541,-0.560937 -1.81624,-0.829572 -5.82245,-1.578631 -2.07184,-0.38737 -3.79516,-0.685379 -3.82962,-0.662211 -0.11274,0.07578 -2.32174,9.711645 -2.26096,9.862445 0.007,0.01774 0.99248,0.258642 2.18958,0.535323 2.31741,0.535577 5.03192,0.945831 5.43425,0.821292 0.36482,-0.112932 0.5765,-0.496417 0.95239,-1.725418 0.19945,-0.652121 0.365,-1.195508 0.36785,-1.207508 0.003,-0.01202 0.36248,0.04484 0.79917,0.126331 l 0.79398,0.148177 -0.85116,4.447985 -0.85117,4.447976 -0.79055,-0.147541 -0.79054,-0.147531 0.0415,-0.471164 c 0.24155,-2.739598 0.24343,-2.707015 -0.17149,-2.976648 -0.56441,-0.366807 -4.29729,-1.209094 -6.56078,-1.480391 l -0.89395,-0.107137 -0.93369,5.170636 c -0.51351,2.843857 -0.94155,5.338232 -0.95122,5.543051 l -0.0176,0.372376 2.45934,0.521669 c 2.44162,0.517891 4.85194,0.886156 6.91201,1.056022 l 1.0225,0.08431 0.21779,-0.424212 c 0.18736,-0.364956 1.12829,-2.477344 1.4761,-3.313836 l 0.11439,-0.275125 0.80838,0.150859 0.80838,0.150869 -0.11634,0.320363 c -0.36048,0.992745 -1.48592,5.015667 -1.67082,5.972529 -0.0478,0.247406 -0.09,0.277552 -0.40266,0.287859 -0.19209,0.0063 -4.86219,-0.829886 -10.37808,-1.858219 l -10.02878,-1.869709 0.0952,-0.496113 z" />
    <path
       inkscape:connector-curvature="0"
       style="fill:#000000;fill-opacity:1;fill-rule:evenodd;stroke:#000000;stroke-width:1px;stroke-linecap:butt;stroke-linejoin:miter;stroke-opacity:1"
       id="path13540"
       d="M 95.120637,82.204193 C 102.0343,83.567218 211.56647,77.628301 211.56647,77.628301 L 209.9862,66.139901 95.120637,82.204193 z" />
    <path
       inkscape:connector-curvature="0"
       style="fill:#000000;fill-opacity:1;fill-rule:evenodd;stroke:#000000;stroke-width:1px;stroke-linecap:butt;stroke-linejoin:miter;stroke-opacity:1"
       id="path13542"
       d="m 600.90441,78.017737 2.3704,-17.135241 c 41.95045,5.71145 82.8659,12.917287 123.34254,20.444751 l -125.71294,-3.30951 z" />
  </g>
  <path
     inkscape:connector-curvature="0"
     style="fill:none;stroke:#000000;stroke-width:2;stroke-linecap:round;stroke-linejoin:miter;stroke-miterlimit:4;stroke-opacity:1;stroke-dasharray:none;stroke-dashoffset:0"
     id="path4033"
     d="m 166.65071,253.45512 c 0,-101.81106 0.193,-120.30641 1.2557,-120.30641 0.6907,0 54.5625,-7.96747 119.7151,-17.70547 65.1526,-9.73802 119.6447,-17.726034 121.0936,-17.751157 1.4488,-0.02511 56.8743,8.031397 123.1677,17.903357 l 120.5334,17.94902 0,120.10854 0,120.10853 -242.8828,0 -242.8827,0 0,-120.30641 z" />
</svg>
