<?xml version="1.0" encoding="UTF-8" standalone="no"?>
<!-- Created with Inkscape (http://www.inkscape.org/) -->
<svg
   xmlns:svg="http://www.w3.org/2000/svg"
   xmlns="http://www.w3.org/2000/svg"
   xmlns:xlink="http://www.w3.org/1999/xlink"
   version="1.0"
   width="580"
   height="950"
   id="svg2">
  <defs
     id="defs4" />
  <g
     transform="translate(-2.9176287,-6.5322889)"
     id="g3472" />
  <g
     transform="translate(-0.7444153,19.574402)"
     id="g5931">
    <g
       id="g5914">
      <use
         transform="matrix(0.7071068,0.7069451,-0.7072685,0.7071068,251.75094,-136.03732)"
         id="use2574"
         style="fill:#fcd116;stroke:#000000;stroke-width:1;stroke-miterlimit:20;stroke-dasharray:none"
         x="0"
         y="0"
         width="600"
         height="600"
         xlink:href="#4wavyrays" />
      <g
         transform="matrix(7.5370454,0,0,7.5353213,289.50482,234.30615)"
         id="4wavyrays"
         style="fill:#fcd116;stroke:#000000;stroke-width:0.13269316;stroke-miterlimit:20;stroke-dasharray:none">
        <g
           id="2wavyrays"
           style="stroke-width:0.13269316;stroke-miterlimit:20;stroke-dasharray:none">
          <g
             transform="matrix(0.9238795,0.3826834,-0.3826834,0.9238795,0,0)"
             id="wavyray"
             style="stroke-width:0.13269317;stroke-miterlimit:20;stroke-dasharray:none">
            <path
               d="M 0,0 L 6,12 C -2,25 7,27 0,33 C 3,25 -4,28 -3,13"
               id="path2566"
               style="stroke-width:0.13269317;stroke-miterlimit:20;stroke-dasharray:none" />
            <path
               d="M 0,11 C -2,24 4.5,28 0,33"
               id="path2568"
               style="fill:none;stroke-width:0.13269317;stroke-miterlimit:20;stroke-dasharray:none" />
          </g>
          <use
             transform="scale(-1,-1)"
             id="use2570"
             style="stroke-width:0.13269316;stroke-miterlimit:20;stroke-dasharray:none"
             x="0"
             y="0"
             width="600"
             height="600"
             xlink:href="#wavyray" />
        </g>
        <use
           transform="matrix(0,1,-1,0,0,0)"
           id="use2572"
           style="stroke-width:0.13269316;stroke-miterlimit:20;stroke-dasharray:none"
           x="0"
           y="0"
           width="600"
           height="600"
           xlink:href="#2wavyrays" />
      </g>
      <use
         transform="matrix(0.7071068,0.7069451,-0.7072685,0.7071068,250.87442,-136.91365)"
         id="use2583"
         style="fill:#fcd116;stroke:#000000;stroke-width:1;stroke-miterlimit:20;stroke-dasharray:none"
         x="0"
         y="0"
         width="600"
         height="600"
         xlink:href="#4straightrays" />
      <g
         transform="matrix(7.5370454,0,0,7.5353213,290.74442,234.30615)"
         id="4straightrays"
         style="fill:#fcd116;stroke:#000000;stroke-width:0.13269316;stroke-miterlimit:20;stroke-dasharray:none">
        <g
           id="2straightrays"
           style="stroke-width:0.13269316;stroke-miterlimit:20;stroke-dasharray:none">
          <path
             d="M 0,0 L 6,0 L 0,33 L -6,0 L 0,0 L 0,33"
             id="straightray"
             style="stroke-width:0.13269316;stroke-miterlimit:20;stroke-dasharray:none" />
          <use
             transform="scale(-1,-1)"
             id="use2579"
             style="stroke-width:0.13269316;stroke-miterlimit:20;stroke-dasharray:none"
             x="0"
             y="0"
             width="600"
             height="600"
             xlink:href="#straightray" />
        </g>
        <use
           transform="matrix(0,1,-1,0,0,0)"
           id="use2581"
           style="stroke-width:0.13269316;stroke-miterlimit:20;stroke-dasharray:none"
           x="0"
           y="0"
           width="600"
           height="600"
           xlink:href="#2straightrays" />
      </g>
      <circle
         cx="0"
         cy="0"
         r="11"
         transform="matrix(7.5370454,0,0,7.5353213,290.74442,234.30615)"
         id="circle2585"
         style="fill:#fcd116;stroke:#000000;stroke-width:0.13269316;stroke-miterlimit:20;stroke-dasharray:none" />
    </g>
    <g
       transform="translate(-2.9176287,-84.189299)"
       id="g5659">
      <path
         d="M 454.93614,909.61922 C 452.98297,892.19636 551.93506,888.21699 559.20976,901.32539 C 545.33386,909.16598 540.06374,913.96226 536.1966,920.50732 C 553.12071,931.19491 554.81926,941.51284 556.32478,955.32721 C 542.46785,938.2079 476.47812,960.75983 472.46777,970.82223 L 454.93614,909.61922 z"
         id="path44564"
         style="fill:#eac102;fill-opacity:1;fill-rule:evenodd;stroke:#000000;stroke-width:1;stroke-linecap:butt;stroke-linejoin:miter;stroke-miterlimit:4;stroke-dasharray:none;stroke-opacity:1;display:inline" />
      <path
         d="M 450.03341,893.13344 C 461.57706,914.54859 463.76822,939.98181 480.29796,940.85437 C 486.46635,949.39215 467.00976,961.86483 472.30993,975.17003 C 448.93406,958.99626 445.66374,940.91089 432.7028,923.74695 L 450.03341,893.13344 z"
         id="path44562"
         style="fill:#eac102;fill-opacity:1;fill-rule:evenodd;stroke:#000000;stroke-width:1;stroke-linecap:butt;stroke-linejoin:miter;stroke-miterlimit:4;stroke-dasharray:none;stroke-opacity:1;display:inline" />
      <path
         d="M 132.38795,909.61922 C 134.34112,892.19636 35.389031,888.21699 28.114328,901.32539 C 41.990224,909.16598 47.260346,913.96226 51.127495,920.50732 C 34.203379,931.19491 32.504825,941.51284 30.999308,955.32721 C 44.856237,938.2079 110.84597,960.75983 114.85632,970.82223 L 132.38795,909.61922 z"
         id="path12125"
         style="fill:#eac102;fill-opacity:1;fill-rule:evenodd;stroke:#000000;stroke-width:1;stroke-linecap:butt;stroke-linejoin:miter;stroke-miterlimit:4;stroke-dasharray:none;stroke-opacity:1;display:inline" />
      <path
         d="M 137.29068,893.13344 C 125.74703,914.54859 123.55587,939.98181 107.02614,940.85437 C 100.85774,949.39215 120.31433,961.86483 115.01416,975.17003 C 138.39004,958.99626 141.66036,940.91089 154.62129,923.74695 L 137.29068,893.13344 z"
         id="path12127"
         style="fill:#eac102;fill-opacity:1;fill-rule:evenodd;stroke:#000000;stroke-width:1;stroke-linecap:butt;stroke-linejoin:miter;stroke-miterlimit:4;stroke-dasharray:none;stroke-opacity:1;display:inline" />
      <path
         d="M 449.68877,889.14047 C 458.1945,911.3622 466.00408,935.44577 480.71285,941.2054 C 374.95607,1035.051 212.99916,1029.1643 106.63317,941.2054 C 121.34192,935.44577 129.1515,911.3622 137.65724,889.14047 C 214.04643,971.16875 373.02696,969.31501 449.68877,889.14047 z"
         id="path44558"
         style="fill:#eac102;fill-opacity:1;fill-rule:evenodd;stroke:#000000;stroke-width:1;stroke-linecap:butt;stroke-linejoin:miter;marker:none;marker-start:none;marker-mid:none;marker-end:none;stroke-miterlimit:4;stroke-dasharray:none;stroke-dashoffset:0;stroke-opacity:1;visibility:visible;display:inline;overflow:visible;enable-background:accumulate" />
      <path
         d="M 151.40565,943.73699 L 152.98593,944.60855 C 152.0207,946.38698 151.50478,947.4569 151.43818,947.8183 C 151.37156,948.17971 151.49456,948.77059 151.80718,949.59095 C 152.11978,950.41132 152.65715,951.23464 153.41929,952.06091 C 154.18141,952.88719 155.05332,953.57104 156.03502,954.11246 C 157.72304,955.04343 159.32046,955.33894 160.8273,954.99899 C 162.3341,954.65902 163.45726,953.81862 164.19678,952.47778 C 164.87684,951.24468 165.06324,950.11403 164.75598,949.08583 C 164.43672,948.05103 163.40127,946.87104 161.64963,945.54586 C 159.04875,943.58059 157.38654,942.08615 156.66298,941.06255 C 155.9394,940.03897 155.5574,938.89148 155.51696,937.6201 C 155.4765,936.34874 155.82603,935.04263 156.56554,933.70177 C 157.80683,931.45108 159.65144,929.982 162.09938,929.29451 C 164.54727,928.60707 167.51313,929.22402 170.99696,931.14538 C 172.36172,931.89811 173.51774,932.66839 174.46503,933.45623 C 175.41226,934.24411 176.28988,935.1653 177.0979,936.21983 L 177.03978,936.74986 C 176.43223,937.39845 175.9212,938.00656 175.50668,938.5742 C 175.09209,939.14185 174.44222,940.15741 173.55705,941.62086 L 171.99473,940.75921 C 172.95166,938.88255 173.433,937.79747 173.43876,937.50396 C 173.42916,936.98346 173.08096,936.24886 172.39417,935.30016 C 171.70732,934.3515 170.76532,933.54702 169.56817,932.88674 C 167.928,931.98219 166.43646,931.67872 165.09353,931.97632 C 163.75056,932.27396 162.73244,933.0513 162.03918,934.30832 C 161.61659,935.07453 161.43405,935.8443 161.49157,936.61763 C 161.54905,937.39099 161.83574,938.09557 162.35163,938.73138 C 162.86749,939.3672 164.12511,940.46284 166.12449,942.01831 C 167.94673,943.41366 169.13179,944.44977 169.67969,945.12665 C 170.58343,946.23401 171.07049,947.43163 171.1409,948.71951 C 171.21125,950.00739 170.84367,951.38161 170.03817,952.84218 C 168.63838,955.3802 166.50494,956.95541 163.63785,957.56783 C 160.77072,958.18023 157.65512,957.55875 154.29105,955.70341 C 152.79456,954.87806 151.51499,953.985 150.45234,953.0242 C 149.38967,952.0634 148.38745,950.89393 147.44567,949.51579 C 148.12335,948.79661 148.68628,948.11564 149.13447,947.47286 C 149.75185,946.57991 150.50891,945.33462 151.40565,943.73699 L 151.40565,943.73699 z M 169.01637,961.2787 C 170.22385,961.72401 171.00356,961.91821 171.35552,961.86131 C 171.59793,961.81681 172.09845,961.46663 172.85705,960.81076 C 174.32576,959.50794 176.28093,957.66283 178.72256,955.27542 L 192.42035,941.8139 L 195.1894,943.00575 L 194.99592,966.90145 C 194.9713,970.00173 195.03368,971.73285 195.18304,972.09483 C 195.33235,972.45679 196.05367,972.9682 197.34701,973.62907 L 196.66595,975.21138 C 194.6568,974.24241 192.74179,973.36605 190.9209,972.58231 C 188.74835,971.64719 186.66364,970.80199 184.66677,970.04669 L 185.34783,968.46438 C 186.86924,969.0448 187.76909,969.33165 188.04737,969.32491 C 188.32562,969.31815 188.52421,969.17664 188.64315,968.90037 C 188.74583,968.66176 188.83345,967.73198 188.90601,966.11103 L 189.04921,962.35478 C 187.5028,961.65942 185.76893,960.89824 183.84757,960.07124 C 182.17734,959.35235 180.65241,958.71087 179.27279,958.14682 L 177.51156,959.95633 C 177.03146,960.44926 176.37682,961.20941 175.54764,962.23677 C 175.35877,962.46805 175.2184,962.69044 175.12652,962.90393 C 175.00219,963.19276 175.0368,963.44953 175.23033,963.67423 C 175.42386,963.89893 176.25336,964.40109 177.71883,965.18071 L 177.03778,966.76302 C 175.84492,966.14539 174.33176,965.442 172.4983,964.65284 C 170.75273,963.90152 169.34615,963.34819 168.27856,962.99287 L 169.01637,961.2787 z M 189.22995,948.34437 L 181.09602,956.29701 C 182.22432,956.85708 183.48544,957.43711 184.8794,958.03708 C 186.33611,958.66409 187.74356,959.23268 189.10176,959.74284 L 189.22995,948.34437 z M 198.44167,975.87128 L 198.94141,974.22271 C 200.55748,974.64117 201.52471,974.82008 201.8431,974.75945 C 202.058,974.7103 202.24694,974.58186 202.40993,974.37411 C 202.64904,974.10372 203.07577,973.0259 203.69013,971.14062 C 204.72052,968.02428 205.47765,965.66799 205.96154,964.07174 L 208.43885,955.75809 C 209.10517,953.56001 209.41793,952.26906 209.37714,951.88522 C 209.35812,951.66519 209.27745,951.48359 209.13513,951.34041 C 208.92104,951.10411 207.97227,950.65221 206.28883,949.98472 L 206.78857,948.33615 C 208.83599,949.02825 210.35689,949.52501 211.35129,949.82642 C 212.45032,950.15961 213.70975,950.50567 215.12958,950.86461 C 216.9728,955.62354 219.10939,960.82852 221.53938,966.47958 C 223.15232,970.25437 224.57721,973.40069 225.81406,975.91855 L 228.16999,968.14669 C 229.06236,965.20282 229.79255,962.65264 230.36057,960.49615 C 230.69293,959.21116 230.82424,958.40094 230.75453,958.06548 C 230.72359,957.88469 230.61338,957.72985 230.4239,957.60095 C 230.23435,957.47209 229.34624,957.10287 227.75956,956.49329 L 228.25931,954.84471 C 229.66559,955.34247 231.07528,955.80551 232.48838,956.23384 C 234.42476,956.82086 236.18792,957.31963 237.77787,957.73013 L 237.27812,959.37871 C 235.78492,959.0261 234.87003,958.86305 234.53344,958.88956 C 234.34348,958.90344 234.17833,958.95338 234.038,959.03939 C 233.8976,959.12543 233.77348,959.2521 233.66566,959.41939 C 233.47884,959.70566 233.12111,960.69726 232.59245,962.39419 L 230.15385,970.2267 L 227.71701,978.12404 C 227.07446,980.24363 226.47772,982.37711 225.92681,984.52447 L 225.58839,984.7219 C 224.09246,983.95413 223.0313,983.4253 222.40489,983.13541 C 220.17267,978.38717 217.53001,972.47162 214.47692,965.38873 C 212.9341,961.80667 211.71894,958.81678 210.83144,956.41908 L 208.51715,964.05355 C 207.88651,966.13391 207.15969,968.64939 206.33668,971.60002 C 205.7215,973.77077 205.4363,975.0415 205.48107,975.41223 C 205.48977,975.57202 205.55419,975.71298 205.67432,975.83511 C 205.87928,976.05439 206.78166,976.4708 208.38147,977.08433 L 207.88172,978.73291 C 205.78988,977.99879 204.28603,977.49292 203.37016,977.21528 C 202.61129,976.98524 200.96846,976.53724 198.44167,975.87128 L 198.44167,975.87128 z M 252.68233,990.01269 L 252.86968,988.30025 C 254.53519,988.4137 255.51882,988.41129 255.82059,988.29302 C 256.02275,988.20511 256.18478,988.04404 256.30669,987.80981 C 256.49187,987.49999 256.71265,986.36198 256.96903,984.39578 C 257.40743,981.14292 257.71733,978.68745 257.89874,977.02937 L 258.80141,968.40156 C 259.05121,966.11833 259.12069,964.79185 259.00986,964.42211 C 258.95061,964.20935 258.83785,964.04573 258.67159,963.93123 C 258.41761,963.73843 257.40181,963.46913 255.62419,963.12334 L 255.81154,961.4109 C 257.95144,961.71381 259.53784,961.92176 260.57075,962.03474 C 261.71237,962.15966 263.014,962.26769 264.47566,962.35881 C 267.16437,966.69651 270.22365,971.41856 273.65349,976.52497 C 275.9345,979.93784 277.91485,982.76765 279.59455,985.01443 L 280.47777,976.94151 C 280.8123,973.8836 281.05999,971.24253 281.22084,969.01829 C 281.31068,967.69406 281.29042,966.87352 281.16007,966.55665 C 281.09634,966.38467 280.95948,966.25279 280.74949,966.16102 C 280.53945,966.0693 279.5985,965.87008 277.92666,965.56336 L 278.11401,963.85092 C 279.58794,964.08098 281.05882,964.27628 282.52665,964.43684 C 284.53806,964.65693 286.36294,964.8222 288.0013,964.93265 L 287.81395,966.64509 C 286.28134,966.57372 285.35207,966.58207 285.02613,966.67017 C 284.84198,966.71882 284.68887,966.79834 284.56679,966.90874 C 284.44465,967.01918 284.34601,967.16656 284.27086,967.35086 C 284.14001,967.66665 283.97115,968.70719 283.7643,970.47248 L 282.81099,978.62026 L 281.87138,986.83142 C 281.63047,989.03313 281.43716,991.24004 281.29144,993.45215 L 280.9952,993.70857 C 279.3834,993.22965 278.24294,992.90545 277.57384,992.73597 C 274.50476,988.48047 270.81714,983.15329 266.51098,976.75442 C 264.33441,973.51805 262.58903,970.80334 261.27483,968.61027 L 260.40722,976.54049 C 260.17079,978.70144 259.92002,981.30779 259.65492,984.35955 C 259.45034,986.60649 259.40422,987.90802 259.51655,988.26414 C 259.55455,988.41959 259.64384,988.54626 259.78443,988.64416 C 260.02629,988.82192 260.98995,989.06488 262.67543,989.37306 L 262.48808,991.0855 C 260.29677,990.74948 258.72545,990.52943 257.7741,990.42535 C 256.98583,990.33911 255.28857,990.20156 252.68233,990.01269 L 252.68233,990.01269 z M 287.64613,993.30938 L 287.68597,991.58718 C 289.5744,991.53514 290.64415,991.40261 290.89524,991.18961 C 291.14632,990.97661 291.30916,990.4402 291.38376,989.58036 C 291.52117,987.77837 291.64678,984.4171 291.76061,979.49653 C 291.80423,977.61034 291.84013,974.87606 291.8683,971.29371 C 291.89755,968.84649 291.87394,967.50232 291.79747,967.2612 C 291.72099,967.02014 291.5815,966.84255 291.37902,966.72844 C 291.08179,966.57116 290.04601,966.41728 288.27167,966.26681 L 288.31151,964.54461 C 291.12463,964.71911 293.27611,964.82358 294.76595,964.85802 C 297.33556,964.91749 299.66042,964.91656 301.74053,964.85524 L 301.7007,966.57744 C 299.83928,966.64381 298.78684,966.76648 298.54339,966.94544 C 298.29992,967.12446 298.13627,967.54803 298.05245,968.21617 C 297.89907,969.52549 297.77607,972.18254 297.68345,976.1873 C 297.56013,981.51792 297.49471,985.23273 297.4872,987.33174 C 297.47966,989.43077 297.57382,990.68084 297.76969,991.08195 C 297.84758,991.26154 298.0186,991.40567 298.28278,991.51435 C 298.54692,991.62302 299.49099,991.75085 301.115,991.89782 L 301.07516,993.62001 L 298.65731,993.50254 C 297.12772,993.41246 295.76153,993.35351 294.55874,993.32568 L 287.64613,993.30938 z M 330.75005,987.8913 L 331.28839,988.3335 C 330.97177,989.03595 330.6969,989.74974 330.46378,990.47489 C 328.92706,991.39647 327.43479,992.07251 325.98694,992.50298 C 324.53905,992.93346 322.85959,993.20236 320.94856,993.30966 C 317.37215,993.51048 314.31333,993.05233 311.77211,991.93523 C 309.23087,990.81813 307.2308,989.15714 305.7719,986.95225 C 304.31298,984.74738 303.50075,982.1707 303.33519,979.22221 C 303.09682,974.97696 304.40651,971.41503 307.26428,968.5364 C 310.12203,965.65782 314.19908,964.06983 319.49544,963.77241 C 321.25632,963.67356 323.00897,963.73263 324.75339,963.9496 C 326.49777,964.16663 328.24113,964.548 329.98347,965.09373 L 330.14405,965.39282 C 329.9397,966.14376 329.80893,966.86316 329.75173,967.55102 C 329.64093,968.74859 329.5872,970.2305 329.59055,971.99674 L 327.8706,972.09331 C 327.66757,969.94117 327.51918,968.7616 327.42542,968.5546 C 327.33162,968.34764 326.93592,968.00698 326.23833,967.53263 C 325.5407,967.05832 324.61299,966.69276 323.45519,966.43595 C 322.29735,966.1792 321.0291,966.08951 319.65043,966.1669 C 316.37433,966.35088 313.82724,967.50721 312.00916,969.63589 C 310.19106,971.76463 309.38319,974.63083 309.58555,978.23451 C 309.80475,982.13853 311.14247,985.23343 313.59871,987.51924 C 315.8675,989.63757 318.872,990.59173 322.61222,990.38171 C 324.05914,990.30047 325.40551,990.07424 326.65133,989.70303 C 327.8971,989.33183 329.26334,988.72792 330.75005,987.8913 L 330.75005,987.8913 z M 349.95855,989.86806 C 344.98574,990.71807 340.96039,990.09194 337.8825,987.98966 C 334.80459,985.88738 332.88325,982.59916 332.11846,978.12498 C 331.58404,974.99847 331.76979,972.23083 332.67572,969.82205 C 333.58165,967.41332 335.06979,965.42865 337.14016,963.86802 C 339.21052,962.30745 342.03132,961.22193 345.60258,960.61146 C 349.03905,960.02408 351.94506,960.10642 354.3206,960.8585 C 356.69611,961.61063 358.6445,962.88652 360.16579,964.68618 C 361.68703,966.48589 362.69645,968.84118 363.19405,971.75206 C 363.73305,974.90556 363.55208,977.74174 362.65113,980.26059 C 361.75013,982.77947 360.23151,984.86991 358.09529,986.53192 C 355.95902,988.19395 353.24677,989.30599 349.95855,989.86806 L 349.95855,989.86806 z M 350.35007,987.53336 C 353.05881,987.07035 355.04736,985.70058 356.31573,983.42405 C 357.58406,981.14753 357.86925,977.9676 357.17129,973.88423 C 356.43873,969.59875 354.95353,966.46831 352.71568,964.49288 C 350.90419,962.90234 348.44193,962.37311 345.32889,962.90521 C 342.41798,963.4028 340.32876,964.75164 339.06122,966.95171 C 337.79367,969.15183 337.50198,972.25313 338.18614,976.2556 C 338.6791,979.13957 339.5346,981.5073 340.75265,983.35881 C 341.97069,985.21033 343.33235,986.46168 344.83762,987.11287 C 346.34287,987.76408 348.18035,987.90424 350.35007,987.53336 L 350.35007,987.53336 z M 370.08854,985.45988 L 369.79684,984.43414 C 370.42288,983.88654 370.99263,983.29099 371.50612,982.64747 C 370.66358,979.03509 369.69257,975.29579 368.59307,971.42955 C 367.72918,968.39181 366.88102,965.53437 366.04861,962.85721 C 365.46315,960.94849 365.05696,959.87003 364.83002,959.62183 C 364.71566,959.4696 364.5444,959.37972 364.31626,959.35218 C 364.08812,959.3247 363.09871,959.4817 361.34801,959.82319 L 360.87679,958.16624 C 363.43353,957.51024 365.79681,956.87369 367.96663,956.25659 C 370.07069,955.65826 372.05363,955.0588 373.91545,954.45823 L 374.38667,956.11518 C 372.60556,956.74966 371.60498,957.20478 371.38492,957.48054 C 371.24762,957.64754 371.19423,957.92213 371.22475,958.3043 C 371.25526,958.68654 371.80429,960.82951 372.87182,964.73324 L 375.48539,974.37329 C 375.99773,976.17491 376.63652,978.24617 377.40174,980.58706 C 379.15062,980.1892 380.4393,979.87247 381.26779,979.63686 C 383.7532,978.93004 385.7899,978.14473 387.37787,977.28093 C 387.37944,975.98701 387.309,974.46483 387.16657,972.71437 L 388.90243,972.22071 C 389.14789,974.18351 389.55527,976.59064 390.12457,979.4421 C 388.92761,979.98149 387.80313,980.40078 386.75112,980.69996 L 379.58799,982.65177 L 376.38121,983.52108 C 374.90462,983.92679 372.80706,984.57306 370.08854,985.45988 L 370.08854,985.45988 z M 392.70588,977.15495 C 393.87222,976.61094 394.55908,976.19393 394.76646,975.90393 C 394.90553,975.70044 395.00921,975.09846 395.07752,974.09797 C 395.18631,972.13771 395.25246,969.45019 395.27597,966.03541 L 395.35964,946.83033 L 398.15555,945.70294 L 414.98936,962.66362 C 417.17376,964.86379 418.44706,966.03825 418.80928,966.18702 C 419.17145,966.33582 420.04248,966.18361 421.42236,965.73038 L 422.06658,967.32804 C 419.96395,968.0727 417.99336,968.8157 416.15481,969.55706 C 413.96117,970.4416 411.89324,971.32705 409.95099,972.21342 L 409.30677,970.61576 C 410.79008,969.94393 411.62731,969.50683 411.81845,969.30446 C 412.00955,969.1021 412.04886,968.86144 411.9364,968.58247 C 411.83923,968.34156 411.24062,967.62475 410.14055,966.43201 L 407.57379,963.68581 C 405.99125,964.29446 404.22998,964.98992 402.28998,965.77218 C 400.60355,966.45221 399.0744,967.08355 397.70253,967.6662 L 397.74764,970.19092 C 397.7597,970.87892 397.83865,971.87899 397.98448,973.19114 C 398.01576,973.4881 398.07487,973.74436 398.16179,973.95991 C 398.27938,974.25155 398.4861,974.40775 398.78193,974.4285 C 399.07775,974.44926 400.01836,974.21371 401.60376,973.72184 L 402.24799,975.3195 C 400.96956,975.73181 399.40473,976.3112 397.55348,977.05768 C 395.79098,977.76838 394.40775,978.37773 393.40379,978.88575 L 392.70588,977.15495 z M 397.75125,953.69371 L 397.67246,965.06908 C 398.86456,964.6621 400.16435,964.17485 401.57182,963.6073 C 403.04267,963.01422 404.43735,962.41499 405.75586,961.80961 L 397.75125,953.69371 z M 393.10242,945.83885 L 391.21946,946.59812 L 393.91411,940.5584 C 394.54994,939.13748 395.00636,938.24953 395.28338,937.89455 C 395.56038,937.53966 395.89543,937.28294 396.28851,937.1244 C 396.77034,936.93015 397.21776,936.91558 397.63078,937.08068 C 398.04379,937.24587 398.33722,937.544 398.51107,937.97507 C 398.66445,938.3555 398.6712,938.72869 398.53132,939.09463 C 398.39142,939.46065 397.80652,940.2493 396.7766,941.46061 L 393.10242,945.83885 z M 420.93885,957.94387 L 422.52988,957.0921 C 423.49695,958.86954 424.11399,959.88451 424.38099,960.13701 C 424.64798,960.38953 425.21069,960.60779 426.06909,960.79181 C 426.92749,960.97584 427.91065,960.97288 429.01859,960.78294 C 430.12651,960.59301 431.17465,960.23348 432.16303,959.70434 C 433.86253,958.7945 434.97955,957.61495 435.51411,956.16569 C 436.04863,954.71644 435.95455,953.31683 435.23184,951.96685 C 434.56719,950.72538 433.71993,949.95385 432.69005,949.65226 C 431.6481,949.35716 430.09469,949.58399 428.02981,950.33274 C 424.96584,951.44581 422.80761,952.02745 421.5551,952.07766 C 420.30259,952.1279 419.13196,951.82414 418.04321,951.16637 C 416.95445,950.50864 416.04872,949.50478 415.326,948.15479 C 414.11288,945.8888 413.8838,943.54182 414.63875,941.11385 C 415.39372,938.68592 417.52496,936.53307 421.03245,934.65527 C 422.40653,933.91968 423.68177,933.36878 424.85818,933.00258 C 426.03459,932.63645 427.28499,932.40125 428.6094,932.29699 L 429.0225,932.63412 C 429.23617,933.49675 429.46838,934.25638 429.71913,934.91301 C 429.96987,935.5697 430.46842,936.66749 431.21476,938.20639 L 429.64181,939.04848 C 428.5878,937.22457 427.93923,936.23036 427.6961,936.06584 C 427.25414,935.79072 426.44834,935.68322 425.27869,935.74333 C 424.10903,935.80351 422.92154,936.15623 421.71621,936.80148 C 420.06492,937.68555 418.99881,938.77193 418.5179,940.06063 C 418.03699,941.34939 418.13531,942.62655 418.81285,943.89212 C 419.22584,944.66355 419.77241,945.2355 420.45257,945.60797 C 421.13273,945.98048 421.87988,946.12326 422.69402,946.03631 C 423.50817,945.9494 425.11168,945.49027 427.50456,944.65893 C 429.66672,943.88912 431.1808,943.45848 432.04682,943.36702 C 433.46764,943.2112 434.73749,943.45408 435.85639,944.09568 C 436.97527,944.73732 437.92833,945.79338 438.71559,947.26386 C 440.08357,949.81917 440.24457,952.46623 439.19858,955.20506 C 438.15255,957.94391 435.93606,960.21995 432.54911,962.03318 C 431.04244,962.83979 429.59696,963.42755 428.21267,963.79645 C 426.82836,964.16536 425.30186,964.37003 423.63315,964.41046 C 423.39841,963.45058 423.1333,962.60776 422.83781,961.88201 C 422.42446,960.87818 421.79148,959.56547 420.93885,957.94387 L 420.93885,957.94387 z"
         id="text5649"
         style="font-size:42px;font-style:normal;font-variant:normal;font-weight:bold;font-stretch:normal;text-align:start;line-height:125%;writing-mode:lr-tb;text-anchor:start;fill:#000000;fill-opacity:1;stroke:none;stroke-width:1px;stroke-linecap:butt;stroke-linejoin:miter;stroke-opacity:1;font-family:Book Antiqua;-inkscape-font-specification:Book Antiqua Bold" />
    </g>
    <g
       id="g5816">
      <path
         d="M 43.66436,237.57312 C 43.86034,357.35638 43.25914,477.0969 43.97686,596.85437 C 47.78427,704.06326 129.99367,802.11924 234.82061,824.76062 L 234.85186,824.76062 L 234.88311,824.76062 C 331.87099,848.38031 440.57944,805.90164 495.32064,722.19812 L 495.32064,722.16687 L 495.35184,722.13562 C 528.12364,675.34094 540.21714,617.36485 537.50814,560.85437 L 537.50814,560.82312 L 537.50814,560.79187 C 537.50814,453.05452 537.50814,345.31046 537.50814,237.57312 C 372.89353,237.57313 208.27899,237.57312 43.66436,237.57312 z"
         id="path3313"
         style="fill:#e3e4e5;fill-opacity:1;fill-rule:evenodd;stroke:#ed1c24;stroke-width:0;stroke-linecap:butt;stroke-linejoin:miter;marker:none;stroke-miterlimit:4;stroke-dasharray:none;stroke-dashoffset:0;stroke-opacity:1;visibility:visible;display:inline;overflow:visible" />
      <path
         d="M 43.82254,511.6875 C 43.835508,518.8231 43.865763,525.95812 43.88504,533.09375 L 217.82254,511.6875 L 43.82254,511.6875 z M 267.16629,511.6875 L 44.16629,596.25 C 45.014523,617.95832 49.077157,639.29432 55.88504,659.6875 L 277.44754,511.6875 L 267.16629,511.6875 z M 282.13504,511.6875 L 83.04129,715.90625 C 93.816369,732.53575 106.54539,747.91259 120.85379,761.625 L 285.01004,511.6875 L 282.13504,511.6875 z M 287.07254,511.6875 L 165.57254,795.78125 C 180.93061,804.9537 197.29561,812.42009 214.41629,817.875 L 288.72879,511.6875 L 287.07254,511.6875 z M 290.19754,511.6875 L 265.22879,828.5625 C 282.30773,830.34519 299.53613,830.2685 316.57254,828.375 L 291.63504,511.6875 L 290.19754,511.6875 z M 293.10379,511.6875 L 367.29129,817.3125 C 384.26464,811.74403 400.6756,804.39251 416.10379,795.40625 L 294.76004,511.6875 L 293.10379,511.6875 z M 296.82254,511.6875 L 461.07254,761.8125 C 474.02565,749.57072 485.63435,735.86542 495.47879,720.8125 L 495.47879,720.78125 L 495.51004,720.75 C 496.63359,719.14566 497.71611,717.53634 498.79129,715.90625 L 299.69754,511.6875 L 296.82254,511.6875 z M 304.38504,511.6875 L 525.47879,659.40625 C 531.95647,638.95116 535.78931,617.61048 537.29129,596.09375 L 314.66629,511.6875 L 304.38504,511.6875 z M 363.97879,511.6875 L 537.66629,533.09375 C 537.66629,525.95838 537.66629,518.82288 537.66629,511.6875 L 363.97879,511.6875 z"
         id="path3664"
         style="fill:#eac102;stroke:#000000;stroke-width:1;stroke-miterlimit:4;stroke-dasharray:none" />
      <path
         d="M 42.179294,234.6859 C 42.382844,354.96277 41.769634,475.25298 42.490414,595.52143 C 46.323664,703.45817 128.97034,802.04426 234.50775,824.83909 C 332.14351,848.61655 441.44447,805.88572 496.55369,721.61938 C 529.55846,674.49196 541.71326,616.16939 538.99173,559.39792 C 538.99173,451.16058 538.99173,342.92323 538.99173,234.6859 C 373.38759,234.6859 207.78351,234.6859 42.179294,234.6859 z"
         id="Borde"
         style="fill:none;fill-opacity:1;fill-rule:evenodd;stroke:#000000;stroke-width:2.98339534;stroke-linecap:butt;stroke-linejoin:miter;marker:none;marker-start:none;marker-mid:none;marker-end:none;stroke-miterlimit:4;stroke-dasharray:none;stroke-dashoffset:0;stroke-opacity:1;visibility:visible;display:inline;overflow:visible;enable-background:accumulate" />
      <g
         transform="translate(0,-77.65701)"
         id="g5605"
         style="stroke:#000000">
        <path
           d="M 43.847535,313.84375 C 43.997812,405.69216 43.680656,497.51869 43.847535,589.34375 L 537.69129,589.34375 C 537.69128,497.51088 537.69129,405.67517 537.69129,313.84375 C 373.07671,313.84376 208.46217,313.84375 43.847535,313.84375 z"
           id="Superior"
           style="fill:#ed1c24;fill-opacity:1;fill-rule:evenodd;stroke:#000000;stroke-width:1;stroke-linecap:butt;stroke-linejoin:miter;marker:none;stroke-miterlimit:4;stroke-dasharray:none;stroke-dashoffset:0;stroke-opacity:1;visibility:visible;display:inline;overflow:visible" />
        <g
           transform="translate(6.7469672,-6.1159943)"
           id="g5459"
           style="stroke:#000000">
          <rect
             width="5.9802113"
             height="196.88696"
             ry="2.9901056"
             x="281.00735"
             y="378.61237"
             id="rect4676"
             style="opacity:1;fill:#eac102;fill-opacity:1;fill-rule:nonzero;stroke:#000000;stroke-width:1;stroke-linecap:round;stroke-linejoin:bevel;stroke-miterlimit:3.99834943;stroke-dasharray:none;stroke-dashoffset:0;stroke-opacity:1" />
          <path
             d="M 284.12855,339.92016 C 291.13356,365.78516 298.39348,369.16863 282.22035,395.99261 C 271.90709,375.57012 275.79403,364.76318 284.12855,339.92016 z"
             id="path15404"
             style="fill:#eac102;fill-opacity:1;stroke:#000000;stroke-width:1;stroke-linejoin:miter;stroke-miterlimit:3.99834943;stroke-dasharray:none;stroke-opacity:1" />
          <path
             d="M 263.33155,362.20417 C 273.91363,372.50394 288.14653,375.59496 282.96274,411.90629 C 264.11582,397.3145 266.12449,394.83751 263.33155,362.20417 z"
             id="path15406"
             style="fill:#eac102;fill-opacity:1;stroke:#000000;stroke-width:1;stroke-linejoin:miter;stroke-miterlimit:3.99834943;stroke-dasharray:none;stroke-opacity:1" />
          <path
             d="M 304.66337,362.20417 C 294.08129,372.50394 279.84839,375.59496 285.03218,411.90629 C 303.8791,397.3145 301.87043,394.83751 304.66337,362.20417 z"
             id="path4647"
             style="fill:#eac102;fill-opacity:1;stroke:#000000;stroke-width:1;stroke-linejoin:miter;stroke-miterlimit:3.99834943;stroke-dasharray:none;stroke-opacity:1" />
          <path
             d="M 263.16814,393.53865 C 276.61309,401.91605 288.11272,401.47293 282.69146,433.37965 C 270.23709,419.45079 265.7401,422.07338 263.16814,393.53865 z"
             id="path15408"
             style="fill:#eac102;fill-opacity:1;stroke:#000000;stroke-width:1;stroke-linejoin:miter;stroke-miterlimit:3.99834943;stroke-dasharray:none;stroke-opacity:1" />
          <path
             d="M 263.37487,415.012 C 273.94369,425.06575 288.17073,428.04829 282.94737,463.62553 C 264.11989,449.39435 266.13098,446.96224 263.37487,415.012 z"
             id="path15410"
             style="fill:#eac102;fill-opacity:1;stroke:#000000;stroke-width:1;stroke-linejoin:miter;stroke-miterlimit:3.99834943;stroke-dasharray:none;stroke-opacity:1" />
          <path
             d="M 260.5087,445.25789 C 272.61876,454.70584 289.02708,457.19344 282.63244,491.83817 C 261.76357,476.14362 270.5639,468.9811 260.5087,445.25789 z"
             id="path15412"
             style="fill:#eac102;fill-opacity:1;stroke:#000000;stroke-width:1;stroke-linejoin:miter;stroke-miterlimit:3.99834943;stroke-dasharray:none;stroke-opacity:1" />
          <path
             d="M 260.61625,473.47052 C 272.03734,482.65096 288.78871,485.47122 282.81122,518.94253 C 266.57032,505.40967 264.43383,503.1937 260.61625,473.47052 z"
             id="path15414"
             style="fill:#eac102;fill-opacity:1;stroke:#000000;stroke-width:1;stroke-linejoin:miter;stroke-miterlimit:3.99834943;stroke-dasharray:none;stroke-opacity:1" />
          <path
             d="M 304.82678,393.53865 C 291.38183,401.91605 279.8822,401.47293 285.30346,433.37965 C 297.75783,419.45079 302.25482,422.07338 304.82678,393.53865 z"
             id="path4649"
             style="fill:#eac102;fill-opacity:1;stroke:#000000;stroke-width:1;stroke-linejoin:miter;stroke-miterlimit:3.99834943;stroke-dasharray:none;stroke-opacity:1" />
          <path
             d="M 304.62005,415.012 C 294.05123,425.06575 279.82419,428.04829 285.04755,463.62553 C 303.87503,449.39435 301.86394,446.96224 304.62005,415.012 z"
             id="path4651"
             style="fill:#eac102;fill-opacity:1;stroke:#000000;stroke-width:1;stroke-linejoin:miter;stroke-miterlimit:3.99834943;stroke-dasharray:none;stroke-opacity:1" />
          <path
             d="M 307.48622,445.25789 C 295.37616,454.70584 278.96784,457.19344 285.36248,491.83817 C 306.23135,476.14362 297.43102,468.9811 307.48622,445.25789 z"
             id="path4653"
             style="fill:#eac102;fill-opacity:1;stroke:#000000;stroke-width:1;stroke-linejoin:miter;stroke-miterlimit:3.99834943;stroke-dasharray:none;stroke-opacity:1" />
          <path
             d="M 307.37867,473.47052 C 295.95758,482.65096 279.20621,485.47122 285.1837,518.94253 C 301.4246,505.40967 303.56109,503.1937 307.37867,473.47052 z"
             id="path4655"
             style="fill:#eac102;fill-opacity:1;stroke:#000000;stroke-width:1;stroke-linejoin:miter;stroke-miterlimit:3.99834943;stroke-dasharray:none;stroke-opacity:1" />
        </g>
        <g
           transform="translate(164.79421,-6.1159943)"
           id="g5473"
           style="stroke:#000000">
          <rect
             width="5.9802113"
             height="196.88696"
             ry="2.9901056"
             x="281.00735"
             y="378.61237"
             id="rect5475"
             style="opacity:1;fill:#eac102;fill-opacity:1;fill-rule:nonzero;stroke:#000000;stroke-width:1;stroke-linecap:round;stroke-linejoin:bevel;stroke-miterlimit:3.99834943;stroke-dasharray:none;stroke-dashoffset:0;stroke-opacity:1" />
          <path
             d="M 284.12855,339.92016 C 291.13356,365.78516 298.39348,369.16863 282.22035,395.99261 C 271.90709,375.57012 275.79403,364.76318 284.12855,339.92016 z"
             id="path5477"
             style="fill:#eac102;fill-opacity:1;stroke:#000000;stroke-width:1;stroke-linejoin:miter;stroke-miterlimit:3.99834943;stroke-dasharray:none;stroke-opacity:1" />
          <path
             d="M 263.33155,362.20417 C 273.91363,372.50394 288.14653,375.59496 282.96274,411.90629 C 264.11582,397.3145 266.12449,394.83751 263.33155,362.20417 z"
             id="path5479"
             style="fill:#eac102;fill-opacity:1;stroke:#000000;stroke-width:1;stroke-linejoin:miter;stroke-miterlimit:3.99834943;stroke-dasharray:none;stroke-opacity:1" />
          <path
             d="M 304.66337,362.20417 C 294.08129,372.50394 279.84839,375.59496 285.03218,411.90629 C 303.8791,397.3145 301.87043,394.83751 304.66337,362.20417 z"
             id="path5481"
             style="fill:#eac102;fill-opacity:1;stroke:#000000;stroke-width:1;stroke-linejoin:miter;stroke-miterlimit:3.99834943;stroke-dasharray:none;stroke-opacity:1" />
          <path
             d="M 263.16814,393.53865 C 276.61309,401.91605 288.11272,401.47293 282.69146,433.37965 C 270.23709,419.45079 265.7401,422.07338 263.16814,393.53865 z"
             id="path5483"
             style="fill:#eac102;fill-opacity:1;stroke:#000000;stroke-width:1;stroke-linejoin:miter;stroke-miterlimit:3.99834943;stroke-dasharray:none;stroke-opacity:1" />
          <path
             d="M 263.37487,415.012 C 273.94369,425.06575 288.17073,428.04829 282.94737,463.62553 C 264.11989,449.39435 266.13098,446.96224 263.37487,415.012 z"
             id="path5485"
             style="fill:#eac102;fill-opacity:1;stroke:#000000;stroke-width:1;stroke-linejoin:miter;stroke-miterlimit:3.99834943;stroke-dasharray:none;stroke-opacity:1" />
          <path
             d="M 260.5087,445.25789 C 272.61876,454.70584 289.02708,457.19344 282.63244,491.83817 C 261.76357,476.14362 270.5639,468.9811 260.5087,445.25789 z"
             id="path5487"
             style="fill:#eac102;fill-opacity:1;stroke:#000000;stroke-width:1;stroke-linejoin:miter;stroke-miterlimit:3.99834943;stroke-dasharray:none;stroke-opacity:1" />
          <path
             d="M 260.61625,473.47052 C 272.03734,482.65096 288.78871,485.47122 282.81122,518.94253 C 266.57032,505.40967 264.43383,503.1937 260.61625,473.47052 z"
             id="path5489"
             style="fill:#eac102;fill-opacity:1;stroke:#000000;stroke-width:1;stroke-linejoin:miter;stroke-miterlimit:3.99834943;stroke-dasharray:none;stroke-opacity:1" />
          <path
             d="M 304.82678,393.53865 C 291.38183,401.91605 279.8822,401.47293 285.30346,433.37965 C 297.75783,419.45079 302.25482,422.07338 304.82678,393.53865 z"
             id="path5491"
             style="fill:#eac102;fill-opacity:1;stroke:#000000;stroke-width:1;stroke-linejoin:miter;stroke-miterlimit:3.99834943;stroke-dasharray:none;stroke-opacity:1" />
          <path
             d="M 304.62005,415.012 C 294.05123,425.06575 279.82419,428.04829 285.04755,463.62553 C 303.87503,449.39435 301.86394,446.96224 304.62005,415.012 z"
             id="path5493"
             style="fill:#eac102;fill-opacity:1;stroke:#000000;stroke-width:1;stroke-linejoin:miter;stroke-miterlimit:3.99834943;stroke-dasharray:none;stroke-opacity:1" />
          <path
             d="M 307.48622,445.25789 C 295.37616,454.70584 278.96784,457.19344 285.36248,491.83817 C 306.23135,476.14362 297.43102,468.9811 307.48622,445.25789 z"
             id="path5495"
             style="fill:#eac102;fill-opacity:1;stroke:#000000;stroke-width:1;stroke-linejoin:miter;stroke-miterlimit:3.99834943;stroke-dasharray:none;stroke-opacity:1" />
          <path
             d="M 307.37867,473.47052 C 295.95758,482.65096 279.20621,485.47122 285.1837,518.94253 C 301.4246,505.40967 303.56109,503.1937 307.37867,473.47052 z"
             id="path5497"
             style="fill:#eac102;fill-opacity:1;stroke:#000000;stroke-width:1;stroke-linejoin:miter;stroke-miterlimit:3.99834943;stroke-dasharray:none;stroke-opacity:1" />
        </g>
        <g
           transform="translate(-151.30029,-6.1159943)"
           id="g5499"
           style="stroke:#000000">
          <rect
             width="5.9802113"
             height="196.88696"
             ry="2.9901056"
             x="281.00735"
             y="378.61237"
             id="rect5501"
             style="opacity:1;fill:#eac102;fill-opacity:1;fill-rule:nonzero;stroke:#000000;stroke-width:1;stroke-linecap:round;stroke-linejoin:bevel;stroke-miterlimit:3.99834943;stroke-dasharray:none;stroke-dashoffset:0;stroke-opacity:1" />
          <path
             d="M 284.12855,339.92016 C 291.13356,365.78516 298.39348,369.16863 282.22035,395.99261 C 271.90709,375.57012 275.79403,364.76318 284.12855,339.92016 z"
             id="path5503"
             style="fill:#eac102;fill-opacity:1;stroke:#000000;stroke-width:1;stroke-linejoin:miter;stroke-miterlimit:3.99834943;stroke-dasharray:none;stroke-opacity:1" />
          <path
             d="M 263.33155,362.20417 C 273.91363,372.50394 288.14653,375.59496 282.96274,411.90629 C 264.11582,397.3145 266.12449,394.83751 263.33155,362.20417 z"
             id="path5505"
             style="fill:#eac102;fill-opacity:1;stroke:#000000;stroke-width:1;stroke-linejoin:miter;stroke-miterlimit:3.99834943;stroke-dasharray:none;stroke-opacity:1" />
          <path
             d="M 304.66337,362.20417 C 294.08129,372.50394 279.84839,375.59496 285.03218,411.90629 C 303.8791,397.3145 301.87043,394.83751 304.66337,362.20417 z"
             id="path5507"
             style="fill:#eac102;fill-opacity:1;stroke:#000000;stroke-width:1;stroke-linejoin:miter;stroke-miterlimit:3.99834943;stroke-dasharray:none;stroke-opacity:1" />
          <path
             d="M 263.16814,393.53865 C 276.61309,401.91605 288.11272,401.47293 282.69146,433.37965 C 270.23709,419.45079 265.7401,422.07338 263.16814,393.53865 z"
             id="path5509"
             style="fill:#eac102;fill-opacity:1;stroke:#000000;stroke-width:1;stroke-linejoin:miter;stroke-miterlimit:3.99834943;stroke-dasharray:none;stroke-opacity:1" />
          <path
             d="M 263.37487,415.012 C 273.94369,425.06575 288.17073,428.04829 282.94737,463.62553 C 264.11989,449.39435 266.13098,446.96224 263.37487,415.012 z"
             id="path5511"
             style="fill:#eac102;fill-opacity:1;stroke:#000000;stroke-width:1;stroke-linejoin:miter;stroke-miterlimit:3.99834943;stroke-dasharray:none;stroke-opacity:1" />
          <path
             d="M 260.5087,445.25789 C 272.61876,454.70584 289.02708,457.19344 282.63244,491.83817 C 261.76357,476.14362 270.5639,468.9811 260.5087,445.25789 z"
             id="path5513"
             style="fill:#eac102;fill-opacity:1;stroke:#000000;stroke-width:1;stroke-linejoin:miter;stroke-miterlimit:3.99834943;stroke-dasharray:none;stroke-opacity:1" />
          <path
             d="M 260.61625,473.47052 C 272.03734,482.65096 288.78871,485.47122 282.81122,518.94253 C 266.57032,505.40967 264.43383,503.1937 260.61625,473.47052 z"
             id="path5515"
             style="fill:#eac102;fill-opacity:1;stroke:#000000;stroke-width:1;stroke-linejoin:miter;stroke-miterlimit:3.99834943;stroke-dasharray:none;stroke-opacity:1" />
          <path
             d="M 304.82678,393.53865 C 291.38183,401.91605 279.8822,401.47293 285.30346,433.37965 C 297.75783,419.45079 302.25482,422.07338 304.82678,393.53865 z"
             id="path5517"
             style="fill:#eac102;fill-opacity:1;stroke:#000000;stroke-width:1;stroke-linejoin:miter;stroke-miterlimit:3.99834943;stroke-dasharray:none;stroke-opacity:1" />
          <path
             d="M 304.62005,415.012 C 294.05123,425.06575 279.82419,428.04829 285.04755,463.62553 C 303.87503,449.39435 301.86394,446.96224 304.62005,415.012 z"
             id="path5519"
             style="fill:#eac102;fill-opacity:1;stroke:#000000;stroke-width:1;stroke-linejoin:miter;stroke-miterlimit:3.99834943;stroke-dasharray:none;stroke-opacity:1" />
          <path
             d="M 307.48622,445.25789 C 295.37616,454.70584 278.96784,457.19344 285.36248,491.83817 C 306.23135,476.14362 297.43102,468.9811 307.48622,445.25789 z"
             id="path5521"
             style="fill:#eac102;fill-opacity:1;stroke:#000000;stroke-width:1;stroke-linejoin:miter;stroke-miterlimit:3.99834943;stroke-dasharray:none;stroke-opacity:1" />
          <path
             d="M 307.37867,473.47052 C 295.95758,482.65096 279.20621,485.47122 285.1837,518.94253 C 301.4246,505.40967 303.56109,503.1937 307.37867,473.47052 z"
             id="path5523"
             style="fill:#eac102;fill-opacity:1;stroke:#000000;stroke-width:1;stroke-linejoin:miter;stroke-miterlimit:3.99834943;stroke-dasharray:none;stroke-opacity:1" />
        </g>
      </g>
    </g>
  </g>
</svg>
